%TF.GenerationSoftware,KiCad,Pcbnew,8.0.2*%
%TF.CreationDate,2024-06-26T19:14:07+02:00*%
%TF.ProjectId,PixelDisplay,50697865-6c44-4697-9370-6c61792e6b69,rev?*%
%TF.SameCoordinates,Original*%
%TF.FileFunction,Legend,Bot*%
%TF.FilePolarity,Positive*%
%FSLAX46Y46*%
G04 Gerber Fmt 4.6, Leading zero omitted, Abs format (unit mm)*
G04 Created by KiCad (PCBNEW 8.0.2) date 2024-06-26 19:14:07*
%MOMM*%
%LPD*%
G01*
G04 APERTURE LIST*
%ADD10C,0.100000*%
G04 APERTURE END LIST*
D10*
X164246115Y-80672419D02*
X164246115Y-79672419D01*
X164246115Y-79672419D02*
X163865163Y-79672419D01*
X163865163Y-79672419D02*
X163769925Y-79720038D01*
X163769925Y-79720038D02*
X163722306Y-79767657D01*
X163722306Y-79767657D02*
X163674687Y-79862895D01*
X163674687Y-79862895D02*
X163674687Y-80005752D01*
X163674687Y-80005752D02*
X163722306Y-80100990D01*
X163722306Y-80100990D02*
X163769925Y-80148609D01*
X163769925Y-80148609D02*
X163865163Y-80196228D01*
X163865163Y-80196228D02*
X164246115Y-80196228D01*
X163246115Y-80672419D02*
X163246115Y-80005752D01*
X163246115Y-79672419D02*
X163293734Y-79720038D01*
X163293734Y-79720038D02*
X163246115Y-79767657D01*
X163246115Y-79767657D02*
X163198496Y-79720038D01*
X163198496Y-79720038D02*
X163246115Y-79672419D01*
X163246115Y-79672419D02*
X163246115Y-79767657D01*
X162865163Y-80672419D02*
X162341354Y-80005752D01*
X162865163Y-80005752D02*
X162341354Y-80672419D01*
X161579449Y-80624800D02*
X161674687Y-80672419D01*
X161674687Y-80672419D02*
X161865163Y-80672419D01*
X161865163Y-80672419D02*
X161960401Y-80624800D01*
X161960401Y-80624800D02*
X162008020Y-80529561D01*
X162008020Y-80529561D02*
X162008020Y-80148609D01*
X162008020Y-80148609D02*
X161960401Y-80053371D01*
X161960401Y-80053371D02*
X161865163Y-80005752D01*
X161865163Y-80005752D02*
X161674687Y-80005752D01*
X161674687Y-80005752D02*
X161579449Y-80053371D01*
X161579449Y-80053371D02*
X161531830Y-80148609D01*
X161531830Y-80148609D02*
X161531830Y-80243847D01*
X161531830Y-80243847D02*
X162008020Y-80339085D01*
X160960401Y-80672419D02*
X161055639Y-80624800D01*
X161055639Y-80624800D02*
X161103258Y-80529561D01*
X161103258Y-80529561D02*
X161103258Y-79672419D01*
X159484210Y-80148609D02*
X159341353Y-80196228D01*
X159341353Y-80196228D02*
X159293734Y-80243847D01*
X159293734Y-80243847D02*
X159246115Y-80339085D01*
X159246115Y-80339085D02*
X159246115Y-80481942D01*
X159246115Y-80481942D02*
X159293734Y-80577180D01*
X159293734Y-80577180D02*
X159341353Y-80624800D01*
X159341353Y-80624800D02*
X159436591Y-80672419D01*
X159436591Y-80672419D02*
X159817543Y-80672419D01*
X159817543Y-80672419D02*
X159817543Y-79672419D01*
X159817543Y-79672419D02*
X159484210Y-79672419D01*
X159484210Y-79672419D02*
X159388972Y-79720038D01*
X159388972Y-79720038D02*
X159341353Y-79767657D01*
X159341353Y-79767657D02*
X159293734Y-79862895D01*
X159293734Y-79862895D02*
X159293734Y-79958133D01*
X159293734Y-79958133D02*
X159341353Y-80053371D01*
X159341353Y-80053371D02*
X159388972Y-80100990D01*
X159388972Y-80100990D02*
X159484210Y-80148609D01*
X159484210Y-80148609D02*
X159817543Y-80148609D01*
X158912781Y-80005752D02*
X158674686Y-80672419D01*
X158436591Y-80005752D02*
X158674686Y-80672419D01*
X158674686Y-80672419D02*
X158769924Y-80910514D01*
X158769924Y-80910514D02*
X158817543Y-80958133D01*
X158817543Y-80958133D02*
X158912781Y-81005752D01*
X158198495Y-80005752D02*
X157817543Y-80005752D01*
X158055638Y-79672419D02*
X158055638Y-80529561D01*
X158055638Y-80529561D02*
X158008019Y-80624800D01*
X158008019Y-80624800D02*
X157912781Y-80672419D01*
X157912781Y-80672419D02*
X157817543Y-80672419D01*
X157103257Y-80624800D02*
X157198495Y-80672419D01*
X157198495Y-80672419D02*
X157388971Y-80672419D01*
X157388971Y-80672419D02*
X157484209Y-80624800D01*
X157484209Y-80624800D02*
X157531828Y-80529561D01*
X157531828Y-80529561D02*
X157531828Y-80148609D01*
X157531828Y-80148609D02*
X157484209Y-80053371D01*
X157484209Y-80053371D02*
X157388971Y-80005752D01*
X157388971Y-80005752D02*
X157198495Y-80005752D01*
X157198495Y-80005752D02*
X157103257Y-80053371D01*
X157103257Y-80053371D02*
X157055638Y-80148609D01*
X157055638Y-80148609D02*
X157055638Y-80243847D01*
X157055638Y-80243847D02*
X157531828Y-80339085D01*
X156674685Y-80624800D02*
X156579447Y-80672419D01*
X156579447Y-80672419D02*
X156388971Y-80672419D01*
X156388971Y-80672419D02*
X156293733Y-80624800D01*
X156293733Y-80624800D02*
X156246114Y-80529561D01*
X156246114Y-80529561D02*
X156246114Y-80481942D01*
X156246114Y-80481942D02*
X156293733Y-80386704D01*
X156293733Y-80386704D02*
X156388971Y-80339085D01*
X156388971Y-80339085D02*
X156531828Y-80339085D01*
X156531828Y-80339085D02*
X156627066Y-80291466D01*
X156627066Y-80291466D02*
X156674685Y-80196228D01*
X156674685Y-80196228D02*
X156674685Y-80148609D01*
X156674685Y-80148609D02*
X156627066Y-80053371D01*
X156627066Y-80053371D02*
X156531828Y-80005752D01*
X156531828Y-80005752D02*
X156388971Y-80005752D01*
X156388971Y-80005752D02*
X156293733Y-80053371D01*
X155055637Y-80672419D02*
X155055637Y-79672419D01*
X155055637Y-79672419D02*
X154817542Y-79672419D01*
X154817542Y-79672419D02*
X154674685Y-79720038D01*
X154674685Y-79720038D02*
X154579447Y-79815276D01*
X154579447Y-79815276D02*
X154531828Y-79910514D01*
X154531828Y-79910514D02*
X154484209Y-80100990D01*
X154484209Y-80100990D02*
X154484209Y-80243847D01*
X154484209Y-80243847D02*
X154531828Y-80434323D01*
X154531828Y-80434323D02*
X154579447Y-80529561D01*
X154579447Y-80529561D02*
X154674685Y-80624800D01*
X154674685Y-80624800D02*
X154817542Y-80672419D01*
X154817542Y-80672419D02*
X155055637Y-80672419D01*
X154055637Y-80672419D02*
X154055637Y-80005752D01*
X154055637Y-79672419D02*
X154103256Y-79720038D01*
X154103256Y-79720038D02*
X154055637Y-79767657D01*
X154055637Y-79767657D02*
X154008018Y-79720038D01*
X154008018Y-79720038D02*
X154055637Y-79672419D01*
X154055637Y-79672419D02*
X154055637Y-79767657D01*
X153627066Y-80624800D02*
X153531828Y-80672419D01*
X153531828Y-80672419D02*
X153341352Y-80672419D01*
X153341352Y-80672419D02*
X153246114Y-80624800D01*
X153246114Y-80624800D02*
X153198495Y-80529561D01*
X153198495Y-80529561D02*
X153198495Y-80481942D01*
X153198495Y-80481942D02*
X153246114Y-80386704D01*
X153246114Y-80386704D02*
X153341352Y-80339085D01*
X153341352Y-80339085D02*
X153484209Y-80339085D01*
X153484209Y-80339085D02*
X153579447Y-80291466D01*
X153579447Y-80291466D02*
X153627066Y-80196228D01*
X153627066Y-80196228D02*
X153627066Y-80148609D01*
X153627066Y-80148609D02*
X153579447Y-80053371D01*
X153579447Y-80053371D02*
X153484209Y-80005752D01*
X153484209Y-80005752D02*
X153341352Y-80005752D01*
X153341352Y-80005752D02*
X153246114Y-80053371D01*
X152769923Y-80005752D02*
X152769923Y-81005752D01*
X152769923Y-80053371D02*
X152674685Y-80005752D01*
X152674685Y-80005752D02*
X152484209Y-80005752D01*
X152484209Y-80005752D02*
X152388971Y-80053371D01*
X152388971Y-80053371D02*
X152341352Y-80100990D01*
X152341352Y-80100990D02*
X152293733Y-80196228D01*
X152293733Y-80196228D02*
X152293733Y-80481942D01*
X152293733Y-80481942D02*
X152341352Y-80577180D01*
X152341352Y-80577180D02*
X152388971Y-80624800D01*
X152388971Y-80624800D02*
X152484209Y-80672419D01*
X152484209Y-80672419D02*
X152674685Y-80672419D01*
X152674685Y-80672419D02*
X152769923Y-80624800D01*
X151722304Y-80672419D02*
X151817542Y-80624800D01*
X151817542Y-80624800D02*
X151865161Y-80529561D01*
X151865161Y-80529561D02*
X151865161Y-79672419D01*
X150912780Y-80672419D02*
X150912780Y-80148609D01*
X150912780Y-80148609D02*
X150960399Y-80053371D01*
X150960399Y-80053371D02*
X151055637Y-80005752D01*
X151055637Y-80005752D02*
X151246113Y-80005752D01*
X151246113Y-80005752D02*
X151341351Y-80053371D01*
X150912780Y-80624800D02*
X151008018Y-80672419D01*
X151008018Y-80672419D02*
X151246113Y-80672419D01*
X151246113Y-80672419D02*
X151341351Y-80624800D01*
X151341351Y-80624800D02*
X151388970Y-80529561D01*
X151388970Y-80529561D02*
X151388970Y-80434323D01*
X151388970Y-80434323D02*
X151341351Y-80339085D01*
X151341351Y-80339085D02*
X151246113Y-80291466D01*
X151246113Y-80291466D02*
X151008018Y-80291466D01*
X151008018Y-80291466D02*
X150912780Y-80243847D01*
X150531827Y-80005752D02*
X150293732Y-80672419D01*
X150055637Y-80005752D02*
X150293732Y-80672419D01*
X150293732Y-80672419D02*
X150388970Y-80910514D01*
X150388970Y-80910514D02*
X150436589Y-80958133D01*
X150436589Y-80958133D02*
X150531827Y-81005752D01*
X149055636Y-79672419D02*
X148722303Y-80672419D01*
X148722303Y-80672419D02*
X148388970Y-79672419D01*
X147865160Y-79672419D02*
X147769922Y-79672419D01*
X147769922Y-79672419D02*
X147674684Y-79720038D01*
X147674684Y-79720038D02*
X147627065Y-79767657D01*
X147627065Y-79767657D02*
X147579446Y-79862895D01*
X147579446Y-79862895D02*
X147531827Y-80053371D01*
X147531827Y-80053371D02*
X147531827Y-80291466D01*
X147531827Y-80291466D02*
X147579446Y-80481942D01*
X147579446Y-80481942D02*
X147627065Y-80577180D01*
X147627065Y-80577180D02*
X147674684Y-80624800D01*
X147674684Y-80624800D02*
X147769922Y-80672419D01*
X147769922Y-80672419D02*
X147865160Y-80672419D01*
X147865160Y-80672419D02*
X147960398Y-80624800D01*
X147960398Y-80624800D02*
X148008017Y-80577180D01*
X148008017Y-80577180D02*
X148055636Y-80481942D01*
X148055636Y-80481942D02*
X148103255Y-80291466D01*
X148103255Y-80291466D02*
X148103255Y-80053371D01*
X148103255Y-80053371D02*
X148055636Y-79862895D01*
X148055636Y-79862895D02*
X148008017Y-79767657D01*
X148008017Y-79767657D02*
X147960398Y-79720038D01*
X147960398Y-79720038D02*
X147865160Y-79672419D01*
X147103255Y-80577180D02*
X147055636Y-80624800D01*
X147055636Y-80624800D02*
X147103255Y-80672419D01*
X147103255Y-80672419D02*
X147150874Y-80624800D01*
X147150874Y-80624800D02*
X147103255Y-80577180D01*
X147103255Y-80577180D02*
X147103255Y-80672419D01*
X146103256Y-80672419D02*
X146674684Y-80672419D01*
X146388970Y-80672419D02*
X146388970Y-79672419D01*
X146388970Y-79672419D02*
X146484208Y-79815276D01*
X146484208Y-79815276D02*
X146579446Y-79910514D01*
X146579446Y-79910514D02*
X146674684Y-79958133D01*
X144912779Y-80291466D02*
X144150875Y-80291466D01*
X142960398Y-79767657D02*
X142912779Y-79720038D01*
X142912779Y-79720038D02*
X142817541Y-79672419D01*
X142817541Y-79672419D02*
X142579446Y-79672419D01*
X142579446Y-79672419D02*
X142484208Y-79720038D01*
X142484208Y-79720038D02*
X142436589Y-79767657D01*
X142436589Y-79767657D02*
X142388970Y-79862895D01*
X142388970Y-79862895D02*
X142388970Y-79958133D01*
X142388970Y-79958133D02*
X142436589Y-80100990D01*
X142436589Y-80100990D02*
X143008017Y-80672419D01*
X143008017Y-80672419D02*
X142388970Y-80672419D01*
X141769922Y-79672419D02*
X141674684Y-79672419D01*
X141674684Y-79672419D02*
X141579446Y-79720038D01*
X141579446Y-79720038D02*
X141531827Y-79767657D01*
X141531827Y-79767657D02*
X141484208Y-79862895D01*
X141484208Y-79862895D02*
X141436589Y-80053371D01*
X141436589Y-80053371D02*
X141436589Y-80291466D01*
X141436589Y-80291466D02*
X141484208Y-80481942D01*
X141484208Y-80481942D02*
X141531827Y-80577180D01*
X141531827Y-80577180D02*
X141579446Y-80624800D01*
X141579446Y-80624800D02*
X141674684Y-80672419D01*
X141674684Y-80672419D02*
X141769922Y-80672419D01*
X141769922Y-80672419D02*
X141865160Y-80624800D01*
X141865160Y-80624800D02*
X141912779Y-80577180D01*
X141912779Y-80577180D02*
X141960398Y-80481942D01*
X141960398Y-80481942D02*
X142008017Y-80291466D01*
X142008017Y-80291466D02*
X142008017Y-80053371D01*
X142008017Y-80053371D02*
X141960398Y-79862895D01*
X141960398Y-79862895D02*
X141912779Y-79767657D01*
X141912779Y-79767657D02*
X141865160Y-79720038D01*
X141865160Y-79720038D02*
X141769922Y-79672419D01*
X141055636Y-79767657D02*
X141008017Y-79720038D01*
X141008017Y-79720038D02*
X140912779Y-79672419D01*
X140912779Y-79672419D02*
X140674684Y-79672419D01*
X140674684Y-79672419D02*
X140579446Y-79720038D01*
X140579446Y-79720038D02*
X140531827Y-79767657D01*
X140531827Y-79767657D02*
X140484208Y-79862895D01*
X140484208Y-79862895D02*
X140484208Y-79958133D01*
X140484208Y-79958133D02*
X140531827Y-80100990D01*
X140531827Y-80100990D02*
X141103255Y-80672419D01*
X141103255Y-80672419D02*
X140484208Y-80672419D01*
X139627065Y-80005752D02*
X139627065Y-80672419D01*
X139865160Y-79624800D02*
X140103255Y-80339085D01*
X140103255Y-80339085D02*
X139484208Y-80339085D01*
M02*
