%TF.GenerationSoftware,KiCad,Pcbnew,8.0.5*%
%TF.CreationDate,2024-12-04T19:47:34+01:00*%
%TF.ProjectId,PixelBytesHost,50697865-6c42-4797-9465-73486f73742e,rev?*%
%TF.SameCoordinates,Original*%
%TF.FileFunction,Copper,L3,Inr*%
%TF.FilePolarity,Positive*%
%FSLAX46Y46*%
G04 Gerber Fmt 4.6, Leading zero omitted, Abs format (unit mm)*
G04 Created by KiCad (PCBNEW 8.0.5) date 2024-12-04 19:47:34*
%MOMM*%
%LPD*%
G01*
G04 APERTURE LIST*
%TA.AperFunction,ComponentPad*%
%ADD10C,1.300000*%
%TD*%
%TA.AperFunction,ComponentPad*%
%ADD11O,1.000000X2.100000*%
%TD*%
%TA.AperFunction,ComponentPad*%
%ADD12O,1.000000X1.800000*%
%TD*%
%TA.AperFunction,ComponentPad*%
%ADD13C,1.550000*%
%TD*%
%TA.AperFunction,ComponentPad*%
%ADD14C,1.575000*%
%TD*%
%TA.AperFunction,ViaPad*%
%ADD15C,0.850000*%
%TD*%
%TA.AperFunction,ViaPad*%
%ADD16C,0.800000*%
%TD*%
%TA.AperFunction,Conductor*%
%ADD17C,0.350000*%
%TD*%
%TA.AperFunction,Conductor*%
%ADD18C,0.200000*%
%TD*%
G04 APERTURE END LIST*
D10*
%TO.N,In_Vcc*%
%TO.C,SW_Toggle1*%
X119300000Y-124225000D03*
%TO.N,Vdc_battery*%
X116760000Y-124225000D03*
%TO.N,unconnected-(SW_Toggle1-ON_2-Pad3)*%
X121840000Y-124225000D03*
%TD*%
D11*
%TO.N,Vgnd_main*%
%TO.C,J3*%
X134230000Y-123665000D03*
X142870000Y-123665000D03*
D12*
X134230000Y-127845000D03*
X142870000Y-127845000D03*
%TD*%
D13*
%TO.N,N/C*%
%TO.C,J1*%
X160170000Y-105900000D03*
X155090000Y-106916000D03*
X155090000Y-104884000D03*
%TD*%
D10*
%TO.N,Net-(LS1-+)*%
%TO.C,LS1*%
X116800000Y-105900000D03*
%TO.N,Vgnd_main*%
X124400000Y-105900000D03*
%TD*%
D14*
%TO.N,Vdc_battery*%
%TO.C,J2*%
X158200000Y-98450000D03*
%TO.N,Vgnd_main*%
X158200000Y-100950000D03*
%TD*%
D15*
%TO.N,Vgnd_main*%
X132201758Y-120807673D03*
X137900000Y-120100000D03*
D16*
%TO.N,S_down*%
X127400000Y-120100000D03*
X130700000Y-124200000D03*
%TO.N,Net-(J3-CC2)*%
X140300000Y-121600000D03*
%TO.N,USB_D+*%
X138100000Y-121500000D03*
X139300000Y-121400000D03*
D15*
%TO.N,Vgnd_main*%
X132265000Y-124965000D03*
D16*
%TO.N,OSC1*%
X133500000Y-107000000D03*
D15*
%TO.N,Vgnd_main*%
X132700000Y-108700000D03*
X131800000Y-103700000D03*
D16*
%TO.N,ISDS_int_0*%
X133600000Y-104400000D03*
%TO.N,uc_supply*%
X128700000Y-115300000D03*
X133600000Y-100300000D03*
X134500000Y-103700000D03*
X123400000Y-117100000D03*
X133100000Y-112000000D03*
X146700000Y-111700000D03*
X130625000Y-99700000D03*
X144000000Y-111400000D03*
X121900000Y-115900000D03*
X150000000Y-114300000D03*
X146300000Y-100275000D03*
X145600000Y-101600000D03*
X136500000Y-116100000D03*
X131200000Y-102800000D03*
X136100000Y-112900000D03*
%TO.N,OSC2*%
X135295158Y-107574999D03*
D15*
%TO.N,In_Vcc*%
X148362347Y-114387653D03*
%TO.N,Vgnd_main*%
X120800000Y-112000000D03*
X152612071Y-114142775D03*
X154100000Y-122500000D03*
X128700000Y-121400000D03*
X124300000Y-80300000D03*
X160600000Y-126600000D03*
X155600000Y-103100000D03*
X157000000Y-80600000D03*
X148400000Y-103800000D03*
X153400000Y-107100000D03*
X122500000Y-117700000D03*
X131500000Y-113000000D03*
X138400000Y-105000000D03*
X131100000Y-117400000D03*
X142600000Y-108000000D03*
X149812294Y-109574142D03*
X136500000Y-100400000D03*
X124300000Y-113300000D03*
X160110254Y-116495644D03*
X139300000Y-116464998D03*
X118600000Y-120000000D03*
X140599406Y-113322354D03*
%TO.N,BMS_Vcc*%
X149900000Y-123300000D03*
X152300000Y-105500000D03*
X152900000Y-128500000D03*
%TO.N,display_main*%
X157650000Y-110150000D03*
X158000000Y-114050000D03*
X121700000Y-67000000D03*
X151500000Y-113900000D03*
X123200000Y-86400000D03*
X120700000Y-108600000D03*
X125715686Y-110715686D03*
X127500000Y-85700000D03*
X127500000Y-67200000D03*
D16*
%TO.N,Net-(LED_green_bms1-K)*%
X148200000Y-129600000D03*
%TO.N,Net-(IC_BMS_TP1-PROG)*%
X153356502Y-124920723D03*
X157600000Y-123800000D03*
%TO.N,Net-(IC3-FB)*%
X156100000Y-120500000D03*
X154050000Y-118599997D03*
%TO.N,uc_enable_display*%
X141600000Y-113100000D03*
X160200000Y-112650000D03*
%TO.N,Net-(LED_Red_bms1-K)*%
X145500000Y-125600000D03*
D15*
%TO.N,display_supply*%
X154750000Y-113775000D03*
X159900000Y-119000000D03*
X143600000Y-116300000D03*
X139950000Y-117726281D03*
D16*
%TO.N,SWDIO*%
X143300000Y-106800000D03*
X159000000Y-107500000D03*
X151000000Y-107900000D03*
X146200000Y-108000000D03*
%TO.N,reset*%
X138200000Y-108000000D03*
X157000000Y-104000000D03*
%TO.N,SWCLK*%
X158000000Y-107300000D03*
X157700000Y-103300000D03*
%TO.N,Net-(J3-CC1)*%
X136100000Y-118500000D03*
%TO.N,Vgnd_main*%
X136200000Y-119900000D03*
X139900002Y-118700000D03*
%TO.N,meas_bat_en*%
X142700000Y-105500000D03*
%TO.N,bat_meas*%
X149100000Y-98200000D03*
X140225735Y-109999998D03*
%TO.N,ISDS_SCL*%
X140800000Y-101400000D03*
X124800000Y-100900000D03*
%TO.N,ISDS_SDA*%
X124800000Y-102800000D03*
X140100000Y-105100000D03*
%TO.N,Net-(R10-Pad1)*%
X116500000Y-114200000D03*
%TO.N,USB_D+*%
X147276992Y-114376992D03*
%TO.N,USB_D-*%
X146416560Y-114000000D03*
X139475735Y-120375735D03*
%TO.N,Net-(R12-Pad1)*%
X125445668Y-113325000D03*
%TO.N,Net-(R11-Pad2)*%
X122700000Y-122400000D03*
X129636659Y-120983707D03*
%TO.N,Net-(R15-Pad2)*%
X136800000Y-114100000D03*
X132000000Y-114039998D03*
%TO.N,Net-(R18-Pad2)*%
X158004747Y-122254113D03*
X159000000Y-126125000D03*
X151500000Y-128300000D03*
X158900000Y-127800000D03*
%TO.N,Net-(R17-Pad2)*%
X147900000Y-118500000D03*
X149184015Y-110384015D03*
X146400000Y-117705002D03*
X152200000Y-111900000D03*
%TO.N,Net-(U1-Vdi_s5)*%
X124200000Y-92450000D03*
X152150000Y-86550000D03*
%TO.N,Net-(U1-Vdi_s3)*%
X138300000Y-70100000D03*
X122400000Y-71400000D03*
%TO.N,Net-(U1-Vdi_s2)*%
X122600000Y-57800000D03*
X149500000Y-52800000D03*
%TO.N,Net-(U1-Vdi_s6)*%
X152450000Y-89800000D03*
X147950000Y-70400000D03*
X147900000Y-88000000D03*
X152500000Y-66900000D03*
%TO.N,Net-(U1-Vdi_s4)*%
X122700000Y-75500000D03*
X151500000Y-69600000D03*
%TO.N,PWM_display*%
X139300000Y-109800000D03*
X123000000Y-55200000D03*
%TO.N,Buzzer*%
X141600000Y-109500000D03*
%TO.N,S_b*%
X155300000Y-110800000D03*
X138422503Y-109999998D03*
%TO.N,S_a*%
X148400000Y-123000000D03*
X142100000Y-117900000D03*
%TO.N,S_right*%
X135300000Y-116000000D03*
%TO.N,S_left*%
X119200000Y-110400000D03*
X136100000Y-112000000D03*
X131300000Y-111199998D03*
X116000000Y-113200000D03*
X123400000Y-109625000D03*
%TO.N,S_down*%
X131983988Y-119857302D03*
%TO.N,S_up*%
X132224786Y-112275214D03*
%TO.N,ISDS_int_0*%
X141325000Y-102200000D03*
%TO.N,ISDS_int_1*%
X129525000Y-99949498D03*
X142000000Y-100500000D03*
D15*
%TO.N,Vdc_battery*%
X125400000Y-97300000D03*
X149150000Y-128750000D03*
%TD*%
D17*
%TO.N,In_Vcc*%
X120400000Y-123125000D02*
X119300000Y-124225000D01*
X124475000Y-123125000D02*
X120400000Y-123125000D01*
X125055897Y-122544103D02*
X124475000Y-123125000D01*
X129101568Y-122544103D02*
X125055897Y-122544103D01*
X130361659Y-121284012D02*
X129101568Y-122544103D01*
X130361659Y-120438341D02*
X130361659Y-121284012D01*
%TO.N,Vdc_battery*%
X118860000Y-121500000D02*
X116760000Y-123600000D01*
X124300000Y-117900000D02*
X120700000Y-121500000D01*
X120700000Y-121500000D02*
X118860000Y-121500000D01*
X124300000Y-114900000D02*
X124300000Y-117900000D01*
X123500000Y-114100000D02*
X124300000Y-114900000D01*
%TO.N,Vgnd_main*%
X142870000Y-123665000D02*
X142870000Y-121669998D01*
X142870000Y-121669998D02*
X139900002Y-118700000D01*
X131600000Y-103900000D02*
X131800000Y-103700000D01*
D18*
%TO.N,uc_supply*%
X128700000Y-115300000D02*
X129360002Y-114639998D01*
X132248529Y-114639998D02*
X133100000Y-113788527D01*
X129360002Y-114639998D02*
X132248529Y-114639998D01*
X133100000Y-113788527D02*
X133100000Y-112000000D01*
D17*
%TO.N,In_Vcc*%
X130965985Y-119850000D02*
X130950000Y-119850000D01*
X136128118Y-117375866D02*
X135325000Y-118178984D01*
X137257761Y-117375866D02*
X136128118Y-117375866D01*
X147350000Y-115400000D02*
X139233627Y-115400000D01*
X130950000Y-119850000D02*
X130361659Y-120438341D01*
X139233627Y-115400000D02*
X137257761Y-117375866D01*
X135325000Y-118178984D02*
X132637001Y-118178984D01*
X148362347Y-114387653D02*
X147350000Y-115400000D01*
X132637001Y-118178984D02*
X130965985Y-119850000D01*
D18*
%TO.N,Vgnd_main*%
X150925858Y-109574142D02*
X153400000Y-107100000D01*
D17*
X161000000Y-126200000D02*
X161000000Y-117385390D01*
X130000305Y-106625000D02*
X125125000Y-106625000D01*
X155600000Y-103100000D02*
X154800000Y-103100000D01*
D18*
X152700000Y-103800000D02*
X153400000Y-104500000D01*
D17*
X125125000Y-106625000D02*
X124400000Y-105900000D01*
X160600000Y-126600000D02*
X161000000Y-126200000D01*
D18*
X149812294Y-109574142D02*
X150925858Y-109574142D01*
X148400000Y-103800000D02*
X152700000Y-103800000D01*
D17*
X161000000Y-117385390D02*
X160110254Y-116495644D01*
X154800000Y-103100000D02*
X154300000Y-103600000D01*
X153400000Y-104500000D02*
X153400000Y-107100000D01*
X154300000Y-103600000D02*
X153400000Y-104500000D01*
X131600000Y-105025305D02*
X130000305Y-106625000D01*
X131600000Y-103900000D02*
X131600000Y-105025305D01*
%TO.N,display_main*%
X151500000Y-114091365D02*
X152508635Y-115100000D01*
X156950000Y-114250000D02*
X157800000Y-114250000D01*
X157800000Y-114250000D02*
X158000000Y-114050000D01*
X151500000Y-113900000D02*
X151500000Y-114091365D01*
X156100000Y-115100000D02*
X156950000Y-114250000D01*
X152508635Y-115100000D02*
X156100000Y-115100000D01*
D18*
%TO.N,uc_enable_display*%
X159750000Y-113100000D02*
X160200000Y-112650000D01*
X141600000Y-113100000D02*
X159750000Y-113100000D01*
D17*
%TO.N,display_supply*%
X143600000Y-116300000D02*
X157200000Y-116300000D01*
X141376281Y-116300000D02*
X143600000Y-116300000D01*
X139950000Y-117726281D02*
X141376281Y-116300000D01*
X157200000Y-116300000D02*
X159900000Y-119000000D01*
D18*
%TO.N,bat_meas*%
X140325737Y-110100000D02*
X140225735Y-109999998D01*
X143900000Y-109200000D02*
X143000000Y-110100000D01*
X147100000Y-106100000D02*
X144000000Y-109200000D01*
X143000000Y-110100000D02*
X140325737Y-110100000D01*
X147100000Y-100200000D02*
X147100000Y-106100000D01*
X144000000Y-109200000D02*
X143900000Y-109200000D01*
X149100000Y-98200000D02*
X147100000Y-100200000D01*
D17*
%TO.N,PWM_display*%
X123275000Y-55575000D02*
X123200000Y-55500000D01*
X139300000Y-86900000D02*
X123275000Y-70875000D01*
X123275000Y-70875000D02*
X123275000Y-55575000D01*
X139300000Y-109800000D02*
X139300000Y-86900000D01*
X123200000Y-55500000D02*
X123200000Y-55400000D01*
X123200000Y-55400000D02*
X123000000Y-55200000D01*
D18*
%TO.N,S_b*%
X155115985Y-110984015D02*
X155300000Y-110800000D01*
X139222505Y-110800000D02*
X148751471Y-110800000D01*
X148751471Y-110800000D02*
X148935486Y-110984015D01*
X138422503Y-109999998D02*
X139222505Y-110800000D01*
X148935486Y-110984015D02*
X155115985Y-110984015D01*
%TO.N,S_a*%
X142100000Y-117900000D02*
X147200000Y-123000000D01*
X147200000Y-123000000D02*
X148400000Y-123000000D01*
D17*
%TO.N,Vdc_battery*%
X123500000Y-110700000D02*
X124175000Y-110025000D01*
X124175000Y-110025000D02*
X124175000Y-107175000D01*
X124175000Y-107175000D02*
X123300000Y-106300000D01*
X123300000Y-99400000D02*
X125400000Y-97300000D01*
X123300000Y-106300000D02*
X123300000Y-99400000D01*
X123500000Y-114100000D02*
X123500000Y-110700000D01*
%TD*%
%TA.AperFunction,Conductor*%
%TO.N,Vgnd_main*%
G36*
X153979120Y-113520185D02*
G01*
X154024875Y-113572989D01*
X154035301Y-113638383D01*
X154019909Y-113774996D01*
X154019909Y-113775003D01*
X154038212Y-113937455D01*
X154038213Y-113937460D01*
X154038214Y-113937461D01*
X154040192Y-113943115D01*
X154092210Y-114091774D01*
X154168043Y-114212461D01*
X154179192Y-114230204D01*
X154294796Y-114345808D01*
X154373220Y-114395085D01*
X154373890Y-114395506D01*
X154420181Y-114447841D01*
X154430829Y-114516894D01*
X154402454Y-114580743D01*
X154344064Y-114619115D01*
X154307918Y-114624500D01*
X152756956Y-114624500D01*
X152689917Y-114604815D01*
X152669275Y-114588181D01*
X152247102Y-114166008D01*
X152213617Y-114104685D01*
X152211563Y-114064443D01*
X152230091Y-113900002D01*
X152230091Y-113899996D01*
X152211787Y-113737544D01*
X152211786Y-113737542D01*
X152211786Y-113737539D01*
X152186561Y-113665453D01*
X152183001Y-113595675D01*
X152217730Y-113535048D01*
X152279723Y-113502821D01*
X152303604Y-113500500D01*
X153912081Y-113500500D01*
X153979120Y-113520185D01*
G37*
%TD.AperFunction*%
%TA.AperFunction,Conductor*%
G36*
X159504043Y-46325765D02*
G01*
X159749632Y-46341861D01*
X159765690Y-46343976D01*
X159969394Y-46384495D01*
X160003064Y-46391193D01*
X160018731Y-46395391D01*
X160187510Y-46452683D01*
X160247913Y-46473188D01*
X160262890Y-46479391D01*
X160470539Y-46581792D01*
X160479960Y-46586438D01*
X160494007Y-46594548D01*
X160533528Y-46620955D01*
X160695245Y-46729011D01*
X160708106Y-46738879D01*
X160820036Y-46837039D01*
X160890071Y-46898459D01*
X160901540Y-46909928D01*
X161061117Y-47091890D01*
X161070991Y-47104758D01*
X161205451Y-47305992D01*
X161213561Y-47320039D01*
X161320605Y-47537102D01*
X161326812Y-47552088D01*
X161404608Y-47781268D01*
X161408806Y-47796935D01*
X161456021Y-48034298D01*
X161458139Y-48050379D01*
X161474235Y-48295956D01*
X161474500Y-48304066D01*
X161474500Y-105665898D01*
X161454815Y-105732937D01*
X161402011Y-105778692D01*
X161332853Y-105788636D01*
X161269297Y-105759611D01*
X161231523Y-105700833D01*
X161231266Y-105699947D01*
X161177171Y-105509820D01*
X161136395Y-105427931D01*
X161088329Y-105331401D01*
X161088324Y-105331393D01*
X160968207Y-105172333D01*
X160831200Y-105047436D01*
X160820910Y-105038055D01*
X160728334Y-104980734D01*
X160651447Y-104933127D01*
X160651445Y-104933126D01*
X160524635Y-104884000D01*
X160465586Y-104861124D01*
X160465582Y-104861123D01*
X160370025Y-104843261D01*
X160269660Y-104824500D01*
X160070340Y-104824500D01*
X159986297Y-104840210D01*
X159874417Y-104861123D01*
X159874415Y-104861123D01*
X159874414Y-104861124D01*
X159822517Y-104881229D01*
X159688554Y-104933126D01*
X159688552Y-104933127D01*
X159519088Y-105038056D01*
X159371792Y-105172333D01*
X159251675Y-105331393D01*
X159251670Y-105331401D01*
X159162830Y-105509816D01*
X159162829Y-105509820D01*
X159108767Y-105699832D01*
X159108282Y-105701535D01*
X159089892Y-105899999D01*
X159089892Y-105900000D01*
X159108282Y-106098464D01*
X159108282Y-106098466D01*
X159108283Y-106098469D01*
X159147812Y-106237399D01*
X159162830Y-106290183D01*
X159251670Y-106468598D01*
X159251675Y-106468606D01*
X159371791Y-106627664D01*
X159376889Y-106632312D01*
X159413168Y-106692025D01*
X159411405Y-106761872D01*
X159372159Y-106819678D01*
X159307891Y-106847090D01*
X159257775Y-106840920D01*
X159257508Y-106842005D01*
X159085056Y-106799500D01*
X158914944Y-106799500D01*
X158749774Y-106840209D01*
X158688505Y-106872366D01*
X158619996Y-106886090D01*
X158554943Y-106860597D01*
X158533211Y-106837636D01*
X158533157Y-106837685D01*
X158531686Y-106836025D01*
X158528828Y-106833005D01*
X158528184Y-106832072D01*
X158527118Y-106831128D01*
X158449025Y-106761943D01*
X158400849Y-106719263D01*
X158250226Y-106640210D01*
X158085056Y-106599500D01*
X157914944Y-106599500D01*
X157749773Y-106640210D01*
X157599150Y-106719263D01*
X157514220Y-106794505D01*
X157472882Y-106831128D01*
X157471816Y-106832072D01*
X157375182Y-106972068D01*
X157314860Y-107131125D01*
X157314859Y-107131130D01*
X157294355Y-107300000D01*
X157314859Y-107468869D01*
X157314860Y-107468874D01*
X157375182Y-107627931D01*
X157425274Y-107700500D01*
X157471817Y-107767929D01*
X157577505Y-107861560D01*
X157599150Y-107880736D01*
X157716279Y-107942210D01*
X157749775Y-107959790D01*
X157914944Y-108000500D01*
X158085056Y-108000500D01*
X158250225Y-107959790D01*
X158311493Y-107927633D01*
X158379999Y-107913908D01*
X158445053Y-107939400D01*
X158466789Y-107962362D01*
X158466843Y-107962315D01*
X158468272Y-107963928D01*
X158471162Y-107966981D01*
X158471814Y-107967926D01*
X158471816Y-107967928D01*
X158471817Y-107967929D01*
X158508018Y-108000000D01*
X158599150Y-108080736D01*
X158742045Y-108155733D01*
X158749775Y-108159790D01*
X158914944Y-108200500D01*
X159085056Y-108200500D01*
X159250225Y-108159790D01*
X159329692Y-108118081D01*
X159400849Y-108080736D01*
X159400850Y-108080734D01*
X159400852Y-108080734D01*
X159528183Y-107967929D01*
X159624818Y-107827930D01*
X159685140Y-107668872D01*
X159705645Y-107500000D01*
X159685140Y-107331128D01*
X159680641Y-107319266D01*
X159624818Y-107172070D01*
X159596559Y-107131130D01*
X159542907Y-107053402D01*
X159521025Y-106987050D01*
X159538490Y-106919398D01*
X159589758Y-106871928D01*
X159658551Y-106859711D01*
X159689751Y-106867336D01*
X159874414Y-106938876D01*
X160070340Y-106975500D01*
X160070342Y-106975500D01*
X160269658Y-106975500D01*
X160269660Y-106975500D01*
X160465586Y-106938876D01*
X160651446Y-106866873D01*
X160820910Y-106761945D01*
X160954447Y-106640210D01*
X160968207Y-106627666D01*
X160989478Y-106599500D01*
X161088326Y-106468604D01*
X161177171Y-106290180D01*
X161231234Y-106100164D01*
X161268512Y-106041074D01*
X161331822Y-106011516D01*
X161401062Y-106020878D01*
X161454248Y-106066187D01*
X161474496Y-106133059D01*
X161474500Y-106134101D01*
X161474500Y-128495933D01*
X161474235Y-128504043D01*
X161458139Y-128749620D01*
X161456021Y-128765701D01*
X161408806Y-129003064D01*
X161404608Y-129018731D01*
X161326812Y-129247911D01*
X161320605Y-129262897D01*
X161213561Y-129479960D01*
X161205451Y-129494007D01*
X161070991Y-129695241D01*
X161061117Y-129708109D01*
X160901540Y-129890071D01*
X160890071Y-129901540D01*
X160708109Y-130061117D01*
X160695241Y-130070991D01*
X160494007Y-130205451D01*
X160479960Y-130213561D01*
X160262897Y-130320605D01*
X160247911Y-130326812D01*
X160018731Y-130404608D01*
X160003064Y-130408806D01*
X159765701Y-130456021D01*
X159749620Y-130458139D01*
X159504043Y-130474235D01*
X159495933Y-130474500D01*
X148544217Y-130474500D01*
X148477178Y-130454815D01*
X148431423Y-130402011D01*
X148421479Y-130332853D01*
X148450504Y-130269297D01*
X148486591Y-130240704D01*
X148600849Y-130180736D01*
X148600850Y-130180734D01*
X148600852Y-130180734D01*
X148728183Y-130067929D01*
X148824818Y-129927930D01*
X148885140Y-129768872D01*
X148905645Y-129600000D01*
X148905645Y-129599999D01*
X148905645Y-129592499D01*
X148908692Y-129592499D01*
X148917856Y-129537337D01*
X148964752Y-129485544D01*
X149032205Y-129467328D01*
X149043380Y-129468077D01*
X149080814Y-129472295D01*
X149149998Y-129480091D01*
X149150000Y-129480091D01*
X149150004Y-129480091D01*
X149312455Y-129461787D01*
X149312456Y-129461786D01*
X149312461Y-129461786D01*
X149466775Y-129407789D01*
X149605204Y-129320808D01*
X149720808Y-129205204D01*
X149807789Y-129066775D01*
X149861786Y-128912461D01*
X149863178Y-128900111D01*
X149880091Y-128750003D01*
X149880091Y-128749996D01*
X149861787Y-128587544D01*
X149861786Y-128587542D01*
X149861786Y-128587539D01*
X149807789Y-128433225D01*
X149724078Y-128300000D01*
X150794355Y-128300000D01*
X150814859Y-128468869D01*
X150814860Y-128468874D01*
X150875182Y-128627931D01*
X150899013Y-128662455D01*
X150971817Y-128767929D01*
X151077505Y-128861560D01*
X151099150Y-128880736D01*
X151241037Y-128955204D01*
X151249775Y-128959790D01*
X151414944Y-129000500D01*
X151585056Y-129000500D01*
X151750225Y-128959790D01*
X151871760Y-128896003D01*
X151900849Y-128880736D01*
X151900850Y-128880734D01*
X151900852Y-128880734D01*
X152028183Y-128767929D01*
X152028186Y-128767924D01*
X152029266Y-128766706D01*
X152030283Y-128766067D01*
X152033797Y-128762955D01*
X152034314Y-128763538D01*
X152088452Y-128729574D01*
X152158318Y-128730336D01*
X152216681Y-128768749D01*
X152239129Y-128807969D01*
X152242211Y-128816775D01*
X152329192Y-128955204D01*
X152444796Y-129070808D01*
X152583225Y-129157789D01*
X152737539Y-129211786D01*
X152737542Y-129211786D01*
X152737544Y-129211787D01*
X152899996Y-129230091D01*
X152900000Y-129230091D01*
X152900004Y-129230091D01*
X153062455Y-129211787D01*
X153062456Y-129211786D01*
X153062461Y-129211786D01*
X153216775Y-129157789D01*
X153355204Y-129070808D01*
X153470808Y-128955204D01*
X153557789Y-128816775D01*
X153611786Y-128662461D01*
X153625958Y-128536681D01*
X153630091Y-128500003D01*
X153630091Y-128499996D01*
X153611787Y-128337544D01*
X153611786Y-128337542D01*
X153611786Y-128337539D01*
X153557789Y-128183225D01*
X153470808Y-128044796D01*
X153355204Y-127929192D01*
X153355202Y-127929191D01*
X153216774Y-127842210D01*
X153096144Y-127800000D01*
X158194355Y-127800000D01*
X158214859Y-127968869D01*
X158214860Y-127968874D01*
X158275182Y-128127931D01*
X158337475Y-128218177D01*
X158371817Y-128267929D01*
X158457114Y-128343495D01*
X158499150Y-128380736D01*
X158649773Y-128459789D01*
X158649775Y-128459790D01*
X158814944Y-128500500D01*
X158985056Y-128500500D01*
X159150225Y-128459790D01*
X159229692Y-128418081D01*
X159300849Y-128380736D01*
X159300850Y-128380734D01*
X159300852Y-128380734D01*
X159428183Y-128267929D01*
X159524818Y-128127930D01*
X159585140Y-127968872D01*
X159605645Y-127800000D01*
X159585140Y-127631128D01*
X159575688Y-127606206D01*
X159524817Y-127472068D01*
X159438145Y-127346504D01*
X159428183Y-127332071D01*
X159300852Y-127219266D01*
X159300849Y-127219263D01*
X159150226Y-127140210D01*
X158985056Y-127099500D01*
X158814944Y-127099500D01*
X158649773Y-127140210D01*
X158499150Y-127219263D01*
X158371816Y-127332072D01*
X158275182Y-127472068D01*
X158214860Y-127631125D01*
X158214859Y-127631130D01*
X158194355Y-127800000D01*
X153096144Y-127800000D01*
X153062455Y-127788212D01*
X152900004Y-127769909D01*
X152899996Y-127769909D01*
X152737544Y-127788212D01*
X152583225Y-127842210D01*
X152444797Y-127929191D01*
X152336625Y-128037363D01*
X152275302Y-128070847D01*
X152205610Y-128065863D01*
X152149677Y-128023991D01*
X152133004Y-127993656D01*
X152124818Y-127972070D01*
X152122608Y-127968869D01*
X152095221Y-127929192D01*
X152028183Y-127832071D01*
X151933316Y-127748026D01*
X151900849Y-127719263D01*
X151750226Y-127640210D01*
X151585056Y-127599500D01*
X151414944Y-127599500D01*
X151249773Y-127640210D01*
X151099150Y-127719263D01*
X150971816Y-127832072D01*
X150875182Y-127972068D01*
X150814860Y-128131125D01*
X150814859Y-128131130D01*
X150794355Y-128300000D01*
X149724078Y-128300000D01*
X149720808Y-128294796D01*
X149605204Y-128179192D01*
X149523623Y-128127931D01*
X149466774Y-128092210D01*
X149312455Y-128038212D01*
X149150004Y-128019909D01*
X149149996Y-128019909D01*
X148987544Y-128038212D01*
X148833225Y-128092210D01*
X148694795Y-128179192D01*
X148579192Y-128294795D01*
X148492210Y-128433225D01*
X148438212Y-128587544D01*
X148419909Y-128749996D01*
X148419909Y-128750002D01*
X148421293Y-128762291D01*
X148409235Y-128831112D01*
X148361884Y-128882490D01*
X148294273Y-128900111D01*
X148286213Y-128899500D01*
X148285056Y-128899500D01*
X148114944Y-128899500D01*
X147949773Y-128940210D01*
X147799150Y-129019263D01*
X147671816Y-129132072D01*
X147575182Y-129272068D01*
X147514860Y-129431125D01*
X147514859Y-129431130D01*
X147494355Y-129600000D01*
X147514859Y-129768869D01*
X147514860Y-129768874D01*
X147575182Y-129927931D01*
X147637475Y-130018177D01*
X147671817Y-130067929D01*
X147777505Y-130161560D01*
X147799150Y-130180736D01*
X147913409Y-130240704D01*
X147963622Y-130289289D01*
X147979596Y-130357308D01*
X147956261Y-130423165D01*
X147901024Y-130465952D01*
X147855783Y-130474500D01*
X115004067Y-130474500D01*
X114995957Y-130474235D01*
X114750379Y-130458139D01*
X114734298Y-130456021D01*
X114496935Y-130408806D01*
X114481268Y-130404608D01*
X114252088Y-130326812D01*
X114237102Y-130320605D01*
X114236917Y-130320514D01*
X114196333Y-130300500D01*
X114020039Y-130213561D01*
X114005992Y-130205451D01*
X113804758Y-130070991D01*
X113791890Y-130061117D01*
X113609928Y-129901540D01*
X113598459Y-129890071D01*
X113438882Y-129708109D01*
X113429008Y-129695241D01*
X113383893Y-129627722D01*
X113294548Y-129494007D01*
X113286438Y-129479960D01*
X113207953Y-129320808D01*
X113179391Y-129262890D01*
X113173187Y-129247911D01*
X113095391Y-129018731D01*
X113091193Y-129003064D01*
X113081673Y-128955204D01*
X113043976Y-128765690D01*
X113041861Y-128749632D01*
X113025765Y-128504043D01*
X113025500Y-128495933D01*
X113025500Y-127346504D01*
X133230000Y-127346504D01*
X133230000Y-127595000D01*
X133475858Y-127595000D01*
X133542897Y-127614685D01*
X133588652Y-127667489D01*
X133599858Y-127719000D01*
X133599858Y-127971000D01*
X133580173Y-128038039D01*
X133527369Y-128083794D01*
X133475858Y-128095000D01*
X133230000Y-128095000D01*
X133230000Y-128343495D01*
X133268427Y-128536681D01*
X133268430Y-128536693D01*
X133343807Y-128718671D01*
X133343814Y-128718684D01*
X133453248Y-128882462D01*
X133453251Y-128882466D01*
X133592533Y-129021748D01*
X133592537Y-129021751D01*
X133756315Y-129131185D01*
X133756328Y-129131192D01*
X133938308Y-129206569D01*
X133980000Y-129214862D01*
X133980000Y-128411988D01*
X133989940Y-128429205D01*
X134045795Y-128485060D01*
X134114204Y-128524556D01*
X134190504Y-128545000D01*
X134269496Y-128545000D01*
X134345796Y-128524556D01*
X134414205Y-128485060D01*
X134470060Y-128429205D01*
X134480000Y-128411988D01*
X134480000Y-129214862D01*
X134521690Y-129206569D01*
X134521692Y-129206569D01*
X134703671Y-129131192D01*
X134703684Y-129131185D01*
X134867462Y-129021751D01*
X134867466Y-129021748D01*
X135006748Y-128882466D01*
X135006751Y-128882462D01*
X135116185Y-128718684D01*
X135116192Y-128718671D01*
X135191569Y-128536693D01*
X135191572Y-128536681D01*
X135229999Y-128343495D01*
X135230000Y-128343492D01*
X135230000Y-128095000D01*
X135024881Y-128095000D01*
X134957842Y-128075315D01*
X134912087Y-128022511D01*
X134900881Y-127971000D01*
X134900881Y-127719000D01*
X134920566Y-127651961D01*
X134973370Y-127606206D01*
X135024881Y-127595000D01*
X135230000Y-127595000D01*
X135230000Y-127346508D01*
X135229999Y-127346504D01*
X141870000Y-127346504D01*
X141870000Y-127595000D01*
X142075858Y-127595000D01*
X142142897Y-127614685D01*
X142188652Y-127667489D01*
X142199858Y-127719000D01*
X142199858Y-127971000D01*
X142180173Y-128038039D01*
X142127369Y-128083794D01*
X142075858Y-128095000D01*
X141870000Y-128095000D01*
X141870000Y-128343495D01*
X141908427Y-128536681D01*
X141908430Y-128536693D01*
X141983807Y-128718671D01*
X141983814Y-128718684D01*
X142093248Y-128882462D01*
X142093251Y-128882466D01*
X142232533Y-129021748D01*
X142232537Y-129021751D01*
X142396315Y-129131185D01*
X142396328Y-129131192D01*
X142578308Y-129206569D01*
X142620000Y-129214862D01*
X142620000Y-128411988D01*
X142629940Y-128429205D01*
X142685795Y-128485060D01*
X142754204Y-128524556D01*
X142830504Y-128545000D01*
X142909496Y-128545000D01*
X142985796Y-128524556D01*
X143054205Y-128485060D01*
X143110060Y-128429205D01*
X143120000Y-128411988D01*
X143120000Y-129214862D01*
X143161690Y-129206569D01*
X143161692Y-129206569D01*
X143343671Y-129131192D01*
X143343684Y-129131185D01*
X143507462Y-129021751D01*
X143507466Y-129021748D01*
X143646748Y-128882466D01*
X143646751Y-128882462D01*
X143756185Y-128718684D01*
X143756192Y-128718671D01*
X143831569Y-128536693D01*
X143831572Y-128536681D01*
X143869999Y-128343495D01*
X143870000Y-128343492D01*
X143870000Y-128095000D01*
X143624881Y-128095000D01*
X143557842Y-128075315D01*
X143512087Y-128022511D01*
X143500881Y-127971000D01*
X143500881Y-127719000D01*
X143520566Y-127651961D01*
X143573370Y-127606206D01*
X143624881Y-127595000D01*
X143870000Y-127595000D01*
X143870000Y-127346508D01*
X143869999Y-127346504D01*
X143831572Y-127153318D01*
X143831569Y-127153306D01*
X143756192Y-126971328D01*
X143756185Y-126971315D01*
X143646751Y-126807537D01*
X143646748Y-126807533D01*
X143507466Y-126668251D01*
X143507462Y-126668248D01*
X143343684Y-126558814D01*
X143343671Y-126558807D01*
X143161691Y-126483429D01*
X143161683Y-126483427D01*
X143120000Y-126475135D01*
X143120000Y-127278011D01*
X143110060Y-127260795D01*
X143054205Y-127204940D01*
X142985796Y-127165444D01*
X142909496Y-127145000D01*
X142830504Y-127145000D01*
X142754204Y-127165444D01*
X142685795Y-127204940D01*
X142629940Y-127260795D01*
X142620000Y-127278011D01*
X142620000Y-126475136D01*
X142619999Y-126475135D01*
X142578316Y-126483427D01*
X142578308Y-126483429D01*
X142396328Y-126558807D01*
X142396315Y-126558814D01*
X142232537Y-126668248D01*
X142232533Y-126668251D01*
X142093251Y-126807533D01*
X142093248Y-126807537D01*
X141983814Y-126971315D01*
X141983807Y-126971328D01*
X141908430Y-127153306D01*
X141908427Y-127153318D01*
X141870000Y-127346504D01*
X135229999Y-127346504D01*
X135191572Y-127153318D01*
X135191569Y-127153306D01*
X135116192Y-126971328D01*
X135116185Y-126971315D01*
X135006751Y-126807537D01*
X135006748Y-126807533D01*
X134867466Y-126668251D01*
X134867462Y-126668248D01*
X134703684Y-126558814D01*
X134703671Y-126558807D01*
X134521691Y-126483429D01*
X134521683Y-126483427D01*
X134480000Y-126475135D01*
X134480000Y-127278011D01*
X134470060Y-127260795D01*
X134414205Y-127204940D01*
X134345796Y-127165444D01*
X134269496Y-127145000D01*
X134190504Y-127145000D01*
X134114204Y-127165444D01*
X134045795Y-127204940D01*
X133989940Y-127260795D01*
X133980000Y-127278011D01*
X133980000Y-126475136D01*
X133979999Y-126475135D01*
X133938316Y-126483427D01*
X133938308Y-126483429D01*
X133756328Y-126558807D01*
X133756315Y-126558814D01*
X133592537Y-126668248D01*
X133592533Y-126668251D01*
X133453251Y-126807533D01*
X133453248Y-126807537D01*
X133343814Y-126971315D01*
X133343807Y-126971328D01*
X133268430Y-127153306D01*
X133268427Y-127153318D01*
X133230000Y-127346504D01*
X113025500Y-127346504D01*
X113025500Y-125600000D01*
X144794355Y-125600000D01*
X144814859Y-125768869D01*
X144814860Y-125768874D01*
X144875182Y-125927931D01*
X144894647Y-125956130D01*
X144971817Y-126067929D01*
X145077505Y-126161560D01*
X145099150Y-126180736D01*
X145249773Y-126259789D01*
X145249775Y-126259790D01*
X145414944Y-126300500D01*
X145585056Y-126300500D01*
X145750225Y-126259790D01*
X145829692Y-126218081D01*
X145900849Y-126180736D01*
X145900850Y-126180734D01*
X145900852Y-126180734D01*
X145963763Y-126125000D01*
X158294355Y-126125000D01*
X158314859Y-126293869D01*
X158314860Y-126293874D01*
X158375182Y-126452931D01*
X158396234Y-126483429D01*
X158471817Y-126592929D01*
X158577505Y-126686560D01*
X158599150Y-126705736D01*
X158749773Y-126784789D01*
X158749775Y-126784790D01*
X158914944Y-126825500D01*
X159085056Y-126825500D01*
X159250225Y-126784790D01*
X159329692Y-126743081D01*
X159400849Y-126705736D01*
X159400850Y-126705734D01*
X159400852Y-126705734D01*
X159528183Y-126592929D01*
X159624818Y-126452930D01*
X159685140Y-126293872D01*
X159705645Y-126125000D01*
X159685140Y-125956128D01*
X159624818Y-125797070D01*
X159528183Y-125657071D01*
X159400852Y-125544266D01*
X159400849Y-125544263D01*
X159250226Y-125465210D01*
X159085056Y-125424500D01*
X158914944Y-125424500D01*
X158749773Y-125465210D01*
X158599150Y-125544263D01*
X158471816Y-125657072D01*
X158375182Y-125797068D01*
X158314860Y-125956125D01*
X158314859Y-125956130D01*
X158294355Y-126125000D01*
X145963763Y-126125000D01*
X146028183Y-126067929D01*
X146124818Y-125927930D01*
X146185140Y-125768872D01*
X146205645Y-125600000D01*
X146185140Y-125431128D01*
X146124818Y-125272070D01*
X146108654Y-125248653D01*
X146064622Y-125184862D01*
X146028183Y-125132071D01*
X145900852Y-125019266D01*
X145900849Y-125019263D01*
X145750226Y-124940210D01*
X145671163Y-124920723D01*
X152650857Y-124920723D01*
X152671361Y-125089592D01*
X152671362Y-125089597D01*
X152731684Y-125248654D01*
X152793977Y-125338900D01*
X152828319Y-125388652D01*
X152934007Y-125482283D01*
X152955652Y-125501459D01*
X153106275Y-125580512D01*
X153106277Y-125580513D01*
X153271446Y-125621223D01*
X153441558Y-125621223D01*
X153606727Y-125580513D01*
X153686194Y-125538804D01*
X153757351Y-125501459D01*
X153757352Y-125501457D01*
X153757354Y-125501457D01*
X153884685Y-125388652D01*
X153981320Y-125248653D01*
X154041642Y-125089595D01*
X154062147Y-124920723D01*
X154041642Y-124751851D01*
X153981320Y-124592793D01*
X153979737Y-124590500D01*
X153921889Y-124506693D01*
X153884685Y-124452794D01*
X153757354Y-124339989D01*
X153757351Y-124339986D01*
X153606728Y-124260933D01*
X153441558Y-124220223D01*
X153271446Y-124220223D01*
X153106275Y-124260933D01*
X152955652Y-124339986D01*
X152828318Y-124452795D01*
X152731684Y-124592791D01*
X152671362Y-124751848D01*
X152671361Y-124751853D01*
X152650857Y-124920723D01*
X145671163Y-124920723D01*
X145585056Y-124899500D01*
X145414944Y-124899500D01*
X145249773Y-124940210D01*
X145099150Y-125019263D01*
X144971816Y-125132072D01*
X144875182Y-125272068D01*
X144814860Y-125431125D01*
X144814859Y-125431130D01*
X144794355Y-125600000D01*
X113025500Y-125600000D01*
X113025500Y-124225000D01*
X115804901Y-124225000D01*
X115823252Y-124411331D01*
X115823253Y-124411333D01*
X115877603Y-124590500D01*
X115965862Y-124755623D01*
X115965864Y-124755626D01*
X116084642Y-124900357D01*
X116229373Y-125019135D01*
X116229376Y-125019137D01*
X116361190Y-125089592D01*
X116394499Y-125107396D01*
X116573666Y-125161746D01*
X116573668Y-125161747D01*
X116590374Y-125163392D01*
X116760000Y-125180099D01*
X116946331Y-125161747D01*
X117125501Y-125107396D01*
X117290625Y-125019136D01*
X117435357Y-124900357D01*
X117554136Y-124755625D01*
X117642396Y-124590501D01*
X117642396Y-124590500D01*
X117642397Y-124590500D01*
X117684169Y-124452794D01*
X117696747Y-124411331D01*
X117715099Y-124225000D01*
X118344901Y-124225000D01*
X118363252Y-124411331D01*
X118363253Y-124411333D01*
X118417603Y-124590500D01*
X118505862Y-124755623D01*
X118505864Y-124755626D01*
X118624642Y-124900357D01*
X118769373Y-125019135D01*
X118769376Y-125019137D01*
X118901190Y-125089592D01*
X118934499Y-125107396D01*
X119113666Y-125161746D01*
X119113668Y-125161747D01*
X119130374Y-125163392D01*
X119300000Y-125180099D01*
X119486331Y-125161747D01*
X119665501Y-125107396D01*
X119830625Y-125019136D01*
X119975357Y-124900357D01*
X120094136Y-124755625D01*
X120182396Y-124590501D01*
X120182396Y-124590500D01*
X120182397Y-124590500D01*
X120224169Y-124452794D01*
X120236747Y-124411331D01*
X120255099Y-124225000D01*
X120236747Y-124038669D01*
X120236746Y-124038665D01*
X120236746Y-124038662D01*
X120236150Y-124032606D01*
X120237297Y-124032492D01*
X120242964Y-123969076D01*
X120270674Y-123926783D01*
X120560641Y-123636816D01*
X120621963Y-123603334D01*
X120648321Y-123600500D01*
X120889160Y-123600500D01*
X120956199Y-123620185D01*
X121001954Y-123672989D01*
X121011898Y-123742147D01*
X120998518Y-123782953D01*
X120957604Y-123859497D01*
X120903253Y-124038666D01*
X120903252Y-124038668D01*
X120884901Y-124225000D01*
X120903252Y-124411331D01*
X120903253Y-124411333D01*
X120957603Y-124590500D01*
X121045862Y-124755623D01*
X121045864Y-124755626D01*
X121164642Y-124900357D01*
X121309373Y-125019135D01*
X121309376Y-125019137D01*
X121441190Y-125089592D01*
X121474499Y-125107396D01*
X121653666Y-125161746D01*
X121653668Y-125161747D01*
X121670374Y-125163392D01*
X121840000Y-125180099D01*
X122026331Y-125161747D01*
X122205501Y-125107396D01*
X122370625Y-125019136D01*
X122515357Y-124900357D01*
X122634136Y-124755625D01*
X122722396Y-124590501D01*
X122722396Y-124590500D01*
X122722397Y-124590500D01*
X122764169Y-124452794D01*
X122776747Y-124411331D01*
X122795099Y-124225000D01*
X122792637Y-124200000D01*
X129994355Y-124200000D01*
X130014859Y-124368869D01*
X130014860Y-124368874D01*
X130075182Y-124527931D01*
X130119954Y-124592793D01*
X130171817Y-124667929D01*
X130270806Y-124755625D01*
X130299150Y-124780736D01*
X130435813Y-124852462D01*
X130449775Y-124859790D01*
X130614944Y-124900500D01*
X130785056Y-124900500D01*
X130950225Y-124859790D01*
X131029692Y-124818081D01*
X131100849Y-124780736D01*
X131100850Y-124780734D01*
X131100852Y-124780734D01*
X131228183Y-124667929D01*
X131324818Y-124527930D01*
X131385140Y-124368872D01*
X131405645Y-124200000D01*
X131385140Y-124031128D01*
X131324818Y-123872070D01*
X131324218Y-123871201D01*
X131268859Y-123791000D01*
X131228183Y-123732071D01*
X131114244Y-123631130D01*
X131100849Y-123619263D01*
X130950226Y-123540210D01*
X130785056Y-123499500D01*
X130614944Y-123499500D01*
X130449773Y-123540210D01*
X130299150Y-123619263D01*
X130171816Y-123732072D01*
X130075182Y-123872068D01*
X130014860Y-124031125D01*
X130014859Y-124031130D01*
X129994355Y-124200000D01*
X122792637Y-124200000D01*
X122776747Y-124038669D01*
X122722396Y-123859499D01*
X122692818Y-123804162D01*
X122681482Y-123782953D01*
X122667240Y-123714550D01*
X122692240Y-123649307D01*
X122748545Y-123607936D01*
X122790840Y-123600500D01*
X124537599Y-123600500D01*
X124537601Y-123600500D01*
X124658536Y-123568095D01*
X124766964Y-123505495D01*
X125216537Y-123055922D01*
X125277860Y-123022437D01*
X125304218Y-123019603D01*
X129164167Y-123019603D01*
X129164169Y-123019603D01*
X129175734Y-123016504D01*
X133230000Y-123016504D01*
X133230000Y-123415000D01*
X133475858Y-123415000D01*
X133542897Y-123434685D01*
X133588652Y-123487489D01*
X133599858Y-123539000D01*
X133599858Y-123791000D01*
X133580173Y-123858039D01*
X133527369Y-123903794D01*
X133475858Y-123915000D01*
X133230000Y-123915000D01*
X133230000Y-124313495D01*
X133268427Y-124506681D01*
X133268430Y-124506693D01*
X133343807Y-124688671D01*
X133343814Y-124688684D01*
X133453248Y-124852462D01*
X133453251Y-124852466D01*
X133592533Y-124991748D01*
X133592537Y-124991751D01*
X133756315Y-125101185D01*
X133756328Y-125101192D01*
X133938308Y-125176569D01*
X133980000Y-125184862D01*
X133980000Y-124381988D01*
X133989940Y-124399205D01*
X134045795Y-124455060D01*
X134114204Y-124494556D01*
X134190504Y-124515000D01*
X134269496Y-124515000D01*
X134345796Y-124494556D01*
X134414205Y-124455060D01*
X134470060Y-124399205D01*
X134480000Y-124381988D01*
X134480000Y-125184862D01*
X134521690Y-125176569D01*
X134521692Y-125176569D01*
X134703671Y-125101192D01*
X134703684Y-125101185D01*
X134867462Y-124991751D01*
X134867466Y-124991748D01*
X135006748Y-124852466D01*
X135006751Y-124852462D01*
X135116185Y-124688684D01*
X135116192Y-124688671D01*
X135181583Y-124530802D01*
X135225423Y-124476398D01*
X135291718Y-124454333D01*
X135359417Y-124471612D01*
X135383825Y-124490573D01*
X135398737Y-124505485D01*
X135495763Y-124561503D01*
X135603982Y-124590500D01*
X135603984Y-124590500D01*
X135716016Y-124590500D01*
X135716018Y-124590500D01*
X135824237Y-124561503D01*
X135921263Y-124505485D01*
X136000485Y-124426263D01*
X136056503Y-124329237D01*
X136085500Y-124221018D01*
X136085500Y-124108982D01*
X141014500Y-124108982D01*
X141014500Y-124221018D01*
X141043497Y-124329237D01*
X141099515Y-124426263D01*
X141178737Y-124505485D01*
X141275763Y-124561503D01*
X141383982Y-124590500D01*
X141383984Y-124590500D01*
X141496016Y-124590500D01*
X141496018Y-124590500D01*
X141604237Y-124561503D01*
X141701263Y-124505485D01*
X141716174Y-124490573D01*
X141777494Y-124457088D01*
X141847186Y-124462071D01*
X141903120Y-124503941D01*
X141918416Y-124530801D01*
X141983809Y-124688675D01*
X141983814Y-124688684D01*
X142093248Y-124852462D01*
X142093251Y-124852466D01*
X142232533Y-124991748D01*
X142232537Y-124991751D01*
X142396315Y-125101185D01*
X142396328Y-125101192D01*
X142578308Y-125176569D01*
X142620000Y-125184862D01*
X142620000Y-124381988D01*
X142629940Y-124399205D01*
X142685795Y-124455060D01*
X142754204Y-124494556D01*
X142830504Y-124515000D01*
X142909496Y-124515000D01*
X142985796Y-124494556D01*
X143054205Y-124455060D01*
X143110060Y-124399205D01*
X143120000Y-124381988D01*
X143120000Y-125184862D01*
X143161690Y-125176569D01*
X143161692Y-125176569D01*
X143343671Y-125101192D01*
X143343684Y-125101185D01*
X143507462Y-124991751D01*
X143507466Y-124991748D01*
X143646748Y-124852466D01*
X143646751Y-124852462D01*
X143756185Y-124688684D01*
X143756192Y-124688671D01*
X143831569Y-124506693D01*
X143831572Y-124506681D01*
X143869999Y-124313495D01*
X143870000Y-124313492D01*
X143870000Y-123915000D01*
X143624881Y-123915000D01*
X143557842Y-123895315D01*
X143512087Y-123842511D01*
X143500881Y-123791000D01*
X143500881Y-123539000D01*
X143520566Y-123471961D01*
X143573370Y-123426206D01*
X143624881Y-123415000D01*
X143870000Y-123415000D01*
X143870000Y-123016508D01*
X143869999Y-123016504D01*
X143831572Y-122823318D01*
X143831569Y-122823306D01*
X143756192Y-122641328D01*
X143756185Y-122641315D01*
X143646751Y-122477537D01*
X143646748Y-122477533D01*
X143507466Y-122338251D01*
X143507462Y-122338248D01*
X143343684Y-122228814D01*
X143343671Y-122228807D01*
X143161691Y-122153429D01*
X143161683Y-122153427D01*
X143120000Y-122145135D01*
X143120000Y-122948011D01*
X143110060Y-122930795D01*
X143054205Y-122874940D01*
X142985796Y-122835444D01*
X142909496Y-122815000D01*
X142830504Y-122815000D01*
X142754204Y-122835444D01*
X142685795Y-122874940D01*
X142629940Y-122930795D01*
X142620000Y-122948011D01*
X142620000Y-122145136D01*
X142619999Y-122145135D01*
X142578316Y-122153427D01*
X142578308Y-122153429D01*
X142396328Y-122228807D01*
X142396315Y-122228814D01*
X142232537Y-122338248D01*
X142232533Y-122338251D01*
X142093251Y-122477533D01*
X142093248Y-122477537D01*
X141983814Y-122641315D01*
X141983807Y-122641328D01*
X141908430Y-122823306D01*
X141908427Y-122823318D01*
X141870000Y-123016504D01*
X141870000Y-123415000D01*
X142075858Y-123415000D01*
X142142897Y-123434685D01*
X142188652Y-123487489D01*
X142199858Y-123539000D01*
X142199858Y-123791000D01*
X142180173Y-123858039D01*
X142127369Y-123903794D01*
X142075858Y-123915000D01*
X141843110Y-123915000D01*
X141776071Y-123895315D01*
X141755429Y-123878681D01*
X141701265Y-123824517D01*
X141701263Y-123824515D01*
X141604237Y-123768497D01*
X141496018Y-123739500D01*
X141383982Y-123739500D01*
X141275763Y-123768497D01*
X141275760Y-123768498D01*
X141178740Y-123824513D01*
X141178734Y-123824517D01*
X141099517Y-123903734D01*
X141099513Y-123903740D01*
X141043498Y-124000760D01*
X141043497Y-124000763D01*
X141014500Y-124108982D01*
X136085500Y-124108982D01*
X136056503Y-124000763D01*
X136000485Y-123903737D01*
X135921263Y-123824515D01*
X135824237Y-123768497D01*
X135716018Y-123739500D01*
X135603982Y-123739500D01*
X135495763Y-123768497D01*
X135495760Y-123768498D01*
X135398740Y-123824513D01*
X135398734Y-123824517D01*
X135344571Y-123878681D01*
X135283248Y-123912166D01*
X135256890Y-123915000D01*
X135024881Y-123915000D01*
X134957842Y-123895315D01*
X134912087Y-123842511D01*
X134900881Y-123791000D01*
X134900881Y-123539000D01*
X134920566Y-123471961D01*
X134973370Y-123426206D01*
X135024881Y-123415000D01*
X135230000Y-123415000D01*
X135230000Y-123016508D01*
X135229999Y-123016504D01*
X135191572Y-122823318D01*
X135191569Y-122823306D01*
X135116192Y-122641328D01*
X135116185Y-122641315D01*
X135006751Y-122477537D01*
X135006748Y-122477533D01*
X134867466Y-122338251D01*
X134867462Y-122338248D01*
X134703684Y-122228814D01*
X134703671Y-122228807D01*
X134521691Y-122153429D01*
X134521683Y-122153427D01*
X134480000Y-122145135D01*
X134480000Y-122948011D01*
X134470060Y-122930795D01*
X134414205Y-122874940D01*
X134345796Y-122835444D01*
X134269496Y-122815000D01*
X134190504Y-122815000D01*
X134114204Y-122835444D01*
X134045795Y-122874940D01*
X133989940Y-122930795D01*
X133980000Y-122948011D01*
X133980000Y-122145136D01*
X133979999Y-122145135D01*
X133938316Y-122153427D01*
X133938308Y-122153429D01*
X133756328Y-122228807D01*
X133756315Y-122228814D01*
X133592537Y-122338248D01*
X133592533Y-122338251D01*
X133453251Y-122477533D01*
X133453248Y-122477537D01*
X133343814Y-122641315D01*
X133343807Y-122641328D01*
X133268430Y-122823306D01*
X133268427Y-122823318D01*
X133230000Y-123016504D01*
X129175734Y-123016504D01*
X129285104Y-122987198D01*
X129393532Y-122924598D01*
X130742154Y-121575976D01*
X130786018Y-121500000D01*
X137394355Y-121500000D01*
X137414859Y-121668869D01*
X137414860Y-121668874D01*
X137475182Y-121827931D01*
X137511464Y-121880493D01*
X137571817Y-121967929D01*
X137675506Y-122059789D01*
X137699150Y-122080736D01*
X137821854Y-122145136D01*
X137849775Y-122159790D01*
X138014944Y-122200500D01*
X138185056Y-122200500D01*
X138350225Y-122159790D01*
X138462224Y-122101008D01*
X138500849Y-122080736D01*
X138500850Y-122080734D01*
X138500852Y-122080734D01*
X138628183Y-121967929D01*
X138645325Y-121943095D01*
X138646009Y-121942104D01*
X138700291Y-121898113D01*
X138769740Y-121890453D01*
X138830286Y-121919728D01*
X138899147Y-121980733D01*
X138899149Y-121980735D01*
X139049773Y-122059789D01*
X139049775Y-122059790D01*
X139214944Y-122100500D01*
X139385056Y-122100500D01*
X139550225Y-122059790D01*
X139611493Y-122027633D01*
X139679999Y-122013908D01*
X139745053Y-122039400D01*
X139766789Y-122062362D01*
X139766843Y-122062315D01*
X139768272Y-122063928D01*
X139771162Y-122066981D01*
X139771814Y-122067926D01*
X139771816Y-122067928D01*
X139771817Y-122067929D01*
X139791361Y-122085243D01*
X139899150Y-122180736D01*
X140038958Y-122254113D01*
X140049775Y-122259790D01*
X140214944Y-122300500D01*
X140385056Y-122300500D01*
X140550225Y-122259790D01*
X140629692Y-122218081D01*
X140700849Y-122180736D01*
X140700850Y-122180734D01*
X140700852Y-122180734D01*
X140828183Y-122067929D01*
X140924818Y-121927930D01*
X140985140Y-121768872D01*
X141005645Y-121600000D01*
X140985140Y-121431128D01*
X140924818Y-121272070D01*
X140828183Y-121132071D01*
X140700852Y-121019266D01*
X140700849Y-121019263D01*
X140550226Y-120940210D01*
X140385056Y-120899500D01*
X140214944Y-120899500D01*
X140207443Y-120899500D01*
X140207443Y-120897933D01*
X140147131Y-120887904D01*
X140095345Y-120840999D01*
X140077139Y-120773543D01*
X140097203Y-120710380D01*
X140097066Y-120710309D01*
X140097471Y-120709536D01*
X140098292Y-120706953D01*
X140099061Y-120705826D01*
X140100553Y-120703665D01*
X140160875Y-120544607D01*
X140181380Y-120375735D01*
X140160875Y-120206863D01*
X140100553Y-120047805D01*
X140085623Y-120026176D01*
X140066211Y-119998053D01*
X140003918Y-119907806D01*
X139909051Y-119823761D01*
X139876584Y-119794998D01*
X139725961Y-119715945D01*
X139560791Y-119675235D01*
X139390679Y-119675235D01*
X139225508Y-119715945D01*
X139074885Y-119794998D01*
X138947551Y-119907807D01*
X138850917Y-120047803D01*
X138790595Y-120206860D01*
X138790594Y-120206865D01*
X138770090Y-120375735D01*
X138790594Y-120544604D01*
X138790595Y-120544609D01*
X138842221Y-120680736D01*
X138850917Y-120703665D01*
X138854969Y-120709536D01*
X138856327Y-120711502D01*
X138878212Y-120777856D01*
X138860748Y-120845508D01*
X138836507Y-120874760D01*
X138771816Y-120932071D01*
X138753988Y-120957899D01*
X138699704Y-121001888D01*
X138630255Y-121009545D01*
X138569713Y-120980271D01*
X138500852Y-120919266D01*
X138500850Y-120919264D01*
X138350226Y-120840210D01*
X138185056Y-120799500D01*
X138014944Y-120799500D01*
X137849773Y-120840210D01*
X137699150Y-120919263D01*
X137571816Y-121032072D01*
X137475182Y-121172068D01*
X137414860Y-121331125D01*
X137414859Y-121331130D01*
X137394355Y-121500000D01*
X130786018Y-121500000D01*
X130804754Y-121467548D01*
X130837159Y-121346613D01*
X130837159Y-121221411D01*
X130837159Y-120686661D01*
X130856844Y-120619622D01*
X130873474Y-120598984D01*
X131208587Y-120263870D01*
X131234259Y-120244171D01*
X131253603Y-120233004D01*
X131321499Y-120216532D01*
X131387526Y-120239385D01*
X131417646Y-120269949D01*
X131440381Y-120302886D01*
X131455804Y-120325230D01*
X131583138Y-120438038D01*
X131701197Y-120500000D01*
X131733763Y-120517092D01*
X131898932Y-120557802D01*
X132069044Y-120557802D01*
X132234213Y-120517092D01*
X132313680Y-120475383D01*
X132384837Y-120438038D01*
X132384838Y-120438036D01*
X132384840Y-120438036D01*
X132512171Y-120325231D01*
X132608806Y-120185232D01*
X132669128Y-120026174D01*
X132689633Y-119857302D01*
X132669128Y-119688430D01*
X132608806Y-119529372D01*
X132601830Y-119519266D01*
X132567483Y-119469506D01*
X132512171Y-119389373D01*
X132512169Y-119389371D01*
X132391725Y-119282667D01*
X132354598Y-119223478D01*
X132355366Y-119153613D01*
X132386269Y-119102174D01*
X132797641Y-118690803D01*
X132858964Y-118657318D01*
X132885322Y-118654484D01*
X135323812Y-118654484D01*
X135390851Y-118674169D01*
X135436606Y-118726973D01*
X135439754Y-118734513D01*
X135475182Y-118827930D01*
X135475182Y-118827931D01*
X135529103Y-118906048D01*
X135571817Y-118967929D01*
X135677505Y-119061560D01*
X135699150Y-119080736D01*
X135838006Y-119153613D01*
X135849775Y-119159790D01*
X136014944Y-119200500D01*
X136185056Y-119200500D01*
X136350225Y-119159790D01*
X136460008Y-119102171D01*
X136500849Y-119080736D01*
X136500850Y-119080734D01*
X136500852Y-119080734D01*
X136628183Y-118967929D01*
X136724818Y-118827930D01*
X136785140Y-118668872D01*
X136805645Y-118500000D01*
X136785140Y-118331128D01*
X136772230Y-118297088D01*
X136761923Y-118269909D01*
X136724818Y-118172070D01*
X136697206Y-118132068D01*
X136637664Y-118045806D01*
X136615781Y-117979452D01*
X136633246Y-117911800D01*
X136684514Y-117864330D01*
X136739714Y-117851366D01*
X137320360Y-117851366D01*
X137320362Y-117851366D01*
X137441297Y-117818961D01*
X137549725Y-117756361D01*
X139394267Y-115911819D01*
X139455590Y-115878334D01*
X139481948Y-115875500D01*
X140828960Y-115875500D01*
X140895999Y-115895185D01*
X140941754Y-115947989D01*
X140951698Y-116017147D01*
X140922673Y-116080703D01*
X140916643Y-116087178D01*
X140463605Y-116540216D01*
X140043950Y-116959871D01*
X139982627Y-116993356D01*
X139956269Y-116996190D01*
X139949996Y-116996190D01*
X139787544Y-117014493D01*
X139633225Y-117068491D01*
X139494795Y-117155473D01*
X139379192Y-117271076D01*
X139292210Y-117409506D01*
X139238212Y-117563825D01*
X139219909Y-117726277D01*
X139219909Y-117726284D01*
X139238212Y-117888736D01*
X139292210Y-118043055D01*
X139317646Y-118083536D01*
X139379192Y-118181485D01*
X139494796Y-118297089D01*
X139633225Y-118384070D01*
X139787539Y-118438067D01*
X139787542Y-118438067D01*
X139787544Y-118438068D01*
X139949996Y-118456372D01*
X139950000Y-118456372D01*
X139950004Y-118456372D01*
X140112455Y-118438068D01*
X140112456Y-118438067D01*
X140112461Y-118438067D01*
X140266775Y-118384070D01*
X140405204Y-118297089D01*
X140520808Y-118181485D01*
X140607789Y-118043056D01*
X140657847Y-117900000D01*
X141394355Y-117900000D01*
X141414859Y-118068869D01*
X141414860Y-118068874D01*
X141475182Y-118227931D01*
X141522919Y-118297089D01*
X141571817Y-118367929D01*
X141643151Y-118431125D01*
X141699150Y-118480736D01*
X141849773Y-118559789D01*
X141849775Y-118559790D01*
X142014944Y-118600500D01*
X142182745Y-118600500D01*
X142249784Y-118620185D01*
X142270426Y-118636819D01*
X146954087Y-123320480D01*
X147045412Y-123373207D01*
X147147273Y-123400500D01*
X147760194Y-123400500D01*
X147827233Y-123420185D01*
X147862244Y-123454060D01*
X147871816Y-123467928D01*
X147999150Y-123580736D01*
X148149773Y-123659789D01*
X148149775Y-123659790D01*
X148314944Y-123700500D01*
X148485056Y-123700500D01*
X148650225Y-123659790D01*
X148732184Y-123616774D01*
X148800849Y-123580736D01*
X148800850Y-123580734D01*
X148800852Y-123580734D01*
X148928183Y-123467929D01*
X148964343Y-123415541D01*
X149018626Y-123371552D01*
X149088074Y-123363892D01*
X149150639Y-123394995D01*
X149186457Y-123454986D01*
X149187282Y-123458378D01*
X149188213Y-123462458D01*
X149242210Y-123616774D01*
X149314657Y-123732072D01*
X149329192Y-123755204D01*
X149444796Y-123870808D01*
X149583225Y-123957789D01*
X149737539Y-124011786D01*
X149737542Y-124011786D01*
X149737544Y-124011787D01*
X149899996Y-124030091D01*
X149900000Y-124030091D01*
X149900004Y-124030091D01*
X150062455Y-124011787D01*
X150062456Y-124011786D01*
X150062461Y-124011786D01*
X150216775Y-123957789D01*
X150355204Y-123870808D01*
X150426012Y-123800000D01*
X156894355Y-123800000D01*
X156914859Y-123968869D01*
X156914860Y-123968874D01*
X156975182Y-124127931D01*
X157024929Y-124200000D01*
X157071817Y-124267929D01*
X157177505Y-124361560D01*
X157199150Y-124380736D01*
X157340763Y-124455060D01*
X157349775Y-124459790D01*
X157514944Y-124500500D01*
X157685056Y-124500500D01*
X157850225Y-124459790D01*
X157965659Y-124399205D01*
X158000849Y-124380736D01*
X158000850Y-124380734D01*
X158000852Y-124380734D01*
X158128183Y-124267929D01*
X158224818Y-124127930D01*
X158285140Y-123968872D01*
X158305645Y-123800000D01*
X158285140Y-123631128D01*
X158280641Y-123619266D01*
X158250201Y-123539000D01*
X158224818Y-123472070D01*
X158218185Y-123462461D01*
X158175416Y-123400499D01*
X158128183Y-123332071D01*
X158000852Y-123219266D01*
X158000850Y-123219265D01*
X158000849Y-123219264D01*
X157942060Y-123188409D01*
X157891848Y-123139825D01*
X157875873Y-123071806D01*
X157899208Y-123005948D01*
X157954444Y-122963161D01*
X157999686Y-122954613D01*
X158089803Y-122954613D01*
X158254972Y-122913903D01*
X158346807Y-122865704D01*
X158405596Y-122834849D01*
X158405597Y-122834847D01*
X158405599Y-122834847D01*
X158532930Y-122722042D01*
X158629565Y-122582043D01*
X158689887Y-122422985D01*
X158710392Y-122254113D01*
X158689887Y-122085241D01*
X158688178Y-122080736D01*
X158662042Y-122011819D01*
X158629565Y-121926183D01*
X158625109Y-121919728D01*
X158549231Y-121809800D01*
X158532930Y-121786184D01*
X158405599Y-121673379D01*
X158405596Y-121673376D01*
X158254973Y-121594323D01*
X158089803Y-121553613D01*
X157919691Y-121553613D01*
X157754520Y-121594323D01*
X157603897Y-121673376D01*
X157476563Y-121786185D01*
X157379929Y-121926181D01*
X157319607Y-122085238D01*
X157319606Y-122085243D01*
X157299102Y-122254113D01*
X157319606Y-122422982D01*
X157319607Y-122422987D01*
X157379929Y-122582044D01*
X157442069Y-122672068D01*
X157476564Y-122722042D01*
X157603895Y-122834847D01*
X157606477Y-122836202D01*
X157662687Y-122865704D01*
X157712899Y-122914288D01*
X157728874Y-122982307D01*
X157705539Y-123048165D01*
X157650303Y-123090952D01*
X157605061Y-123099500D01*
X157514944Y-123099500D01*
X157349773Y-123140210D01*
X157199150Y-123219263D01*
X157071816Y-123332072D01*
X156975182Y-123472068D01*
X156914860Y-123631125D01*
X156914859Y-123631130D01*
X156894355Y-123800000D01*
X150426012Y-123800000D01*
X150470808Y-123755204D01*
X150557789Y-123616775D01*
X150611786Y-123462461D01*
X150612246Y-123458378D01*
X150630091Y-123300003D01*
X150630091Y-123299996D01*
X150611787Y-123137544D01*
X150611786Y-123137542D01*
X150611786Y-123137539D01*
X150557789Y-122983225D01*
X150470808Y-122844796D01*
X150355204Y-122729192D01*
X150343822Y-122722040D01*
X150216774Y-122642210D01*
X150062455Y-122588212D01*
X149900004Y-122569909D01*
X149899996Y-122569909D01*
X149737544Y-122588212D01*
X149583225Y-122642210D01*
X149444795Y-122729192D01*
X149329193Y-122844794D01*
X149311781Y-122872505D01*
X149259445Y-122918795D01*
X149190392Y-122929442D01*
X149126544Y-122901066D01*
X149088173Y-122842675D01*
X149086390Y-122836202D01*
X149085141Y-122831138D01*
X149085140Y-122831128D01*
X149024818Y-122672070D01*
X148928183Y-122532071D01*
X148800852Y-122419266D01*
X148800849Y-122419263D01*
X148650226Y-122340210D01*
X148485056Y-122299500D01*
X148314944Y-122299500D01*
X148149773Y-122340210D01*
X147999150Y-122419263D01*
X147871816Y-122532071D01*
X147862244Y-122545940D01*
X147807961Y-122589930D01*
X147760194Y-122599500D01*
X147417255Y-122599500D01*
X147350216Y-122579815D01*
X147329574Y-122563181D01*
X145266393Y-120500000D01*
X155394355Y-120500000D01*
X155414859Y-120668869D01*
X155414860Y-120668874D01*
X155475182Y-120827931D01*
X155537475Y-120918177D01*
X155571817Y-120967929D01*
X155629765Y-121019266D01*
X155699150Y-121080736D01*
X155849773Y-121159789D01*
X155849775Y-121159790D01*
X156014944Y-121200500D01*
X156185056Y-121200500D01*
X156350225Y-121159790D01*
X156429692Y-121118081D01*
X156500849Y-121080736D01*
X156500850Y-121080734D01*
X156500852Y-121080734D01*
X156628183Y-120967929D01*
X156724818Y-120827930D01*
X156785140Y-120668872D01*
X156805645Y-120500000D01*
X156785140Y-120331128D01*
X156724818Y-120172070D01*
X156707085Y-120146380D01*
X156639042Y-120047803D01*
X156628183Y-120032071D01*
X156514244Y-119931130D01*
X156500849Y-119919263D01*
X156350226Y-119840210D01*
X156185056Y-119799500D01*
X156014944Y-119799500D01*
X155849773Y-119840210D01*
X155699150Y-119919263D01*
X155571816Y-120032072D01*
X155475182Y-120172068D01*
X155414860Y-120331125D01*
X155414859Y-120331130D01*
X155394355Y-120500000D01*
X145266393Y-120500000D01*
X143266393Y-118500000D01*
X147194355Y-118500000D01*
X147214859Y-118668869D01*
X147214860Y-118668874D01*
X147275182Y-118827931D01*
X147329103Y-118906048D01*
X147371817Y-118967929D01*
X147477505Y-119061560D01*
X147499150Y-119080736D01*
X147638006Y-119153613D01*
X147649775Y-119159790D01*
X147814944Y-119200500D01*
X147985056Y-119200500D01*
X148150225Y-119159790D01*
X148260008Y-119102171D01*
X148300849Y-119080736D01*
X148300850Y-119080734D01*
X148300852Y-119080734D01*
X148428183Y-118967929D01*
X148524818Y-118827930D01*
X148585140Y-118668872D01*
X148593503Y-118599997D01*
X153344355Y-118599997D01*
X153364859Y-118768866D01*
X153364860Y-118768871D01*
X153425182Y-118927928D01*
X153470602Y-118993729D01*
X153521817Y-119067926D01*
X153618538Y-119153613D01*
X153649150Y-119180733D01*
X153799773Y-119259786D01*
X153799775Y-119259787D01*
X153964944Y-119300497D01*
X154135056Y-119300497D01*
X154300225Y-119259787D01*
X154413186Y-119200500D01*
X154450849Y-119180733D01*
X154450850Y-119180731D01*
X154450852Y-119180731D01*
X154578183Y-119067926D01*
X154674818Y-118927927D01*
X154735140Y-118768869D01*
X154755645Y-118599997D01*
X154735140Y-118431125D01*
X154674818Y-118272067D01*
X154673328Y-118269909D01*
X154619527Y-118191965D01*
X154578183Y-118132068D01*
X154477708Y-118043055D01*
X154450849Y-118019260D01*
X154300226Y-117940207D01*
X154135056Y-117899497D01*
X153964944Y-117899497D01*
X153799773Y-117940207D01*
X153649150Y-118019260D01*
X153521816Y-118132069D01*
X153425182Y-118272065D01*
X153364860Y-118431122D01*
X153364859Y-118431127D01*
X153344355Y-118599997D01*
X148593503Y-118599997D01*
X148605645Y-118500000D01*
X148585140Y-118331128D01*
X148572230Y-118297088D01*
X148561923Y-118269909D01*
X148524818Y-118172070D01*
X148428183Y-118032071D01*
X148300852Y-117919266D01*
X148300849Y-117919263D01*
X148150226Y-117840210D01*
X147985056Y-117799500D01*
X147814944Y-117799500D01*
X147649773Y-117840210D01*
X147499150Y-117919263D01*
X147371816Y-118032072D01*
X147275182Y-118172068D01*
X147214860Y-118331125D01*
X147214859Y-118331130D01*
X147194355Y-118500000D01*
X143266393Y-118500000D01*
X142833259Y-118066866D01*
X142799774Y-118005543D01*
X142797844Y-117964242D01*
X142805645Y-117900000D01*
X142785140Y-117731128D01*
X142724818Y-117572070D01*
X142721958Y-117567927D01*
X142690476Y-117522318D01*
X142628183Y-117432071D01*
X142500852Y-117319266D01*
X142500849Y-117319263D01*
X142350226Y-117240210D01*
X142185056Y-117199500D01*
X142014944Y-117199500D01*
X141849773Y-117240210D01*
X141699150Y-117319263D01*
X141571816Y-117432072D01*
X141475182Y-117572068D01*
X141414860Y-117731125D01*
X141414859Y-117731130D01*
X141394355Y-117900000D01*
X140657847Y-117900000D01*
X140661786Y-117888742D01*
X140663462Y-117873874D01*
X140680091Y-117726283D01*
X140680091Y-117720010D01*
X140699776Y-117652971D01*
X140716410Y-117632329D01*
X141536921Y-116811819D01*
X141598244Y-116778334D01*
X141624602Y-116775500D01*
X142998126Y-116775500D01*
X143065165Y-116795185D01*
X143085807Y-116811819D01*
X143144796Y-116870808D01*
X143283225Y-116957789D01*
X143437539Y-117011786D01*
X143437542Y-117011786D01*
X143437544Y-117011787D01*
X143599996Y-117030091D01*
X143600000Y-117030091D01*
X143600004Y-117030091D01*
X143762455Y-117011787D01*
X143762456Y-117011786D01*
X143762461Y-117011786D01*
X143916775Y-116957789D01*
X144055204Y-116870808D01*
X144114193Y-116811819D01*
X144175516Y-116778334D01*
X144201874Y-116775500D01*
X146222808Y-116775500D01*
X146289847Y-116795185D01*
X146335602Y-116847989D01*
X146345546Y-116917147D01*
X146316521Y-116980703D01*
X146257743Y-117018477D01*
X146252483Y-117019897D01*
X146149773Y-117045212D01*
X145999150Y-117124265D01*
X145871816Y-117237074D01*
X145775182Y-117377070D01*
X145714860Y-117536127D01*
X145714859Y-117536132D01*
X145694355Y-117705002D01*
X145714859Y-117873871D01*
X145714860Y-117873876D01*
X145775182Y-118032933D01*
X145837475Y-118123179D01*
X145871817Y-118172931D01*
X145959063Y-118250224D01*
X145999150Y-118285738D01*
X146149773Y-118364791D01*
X146149775Y-118364792D01*
X146314944Y-118405502D01*
X146485056Y-118405502D01*
X146650225Y-118364792D01*
X146796131Y-118288214D01*
X146800849Y-118285738D01*
X146800850Y-118285736D01*
X146800852Y-118285736D01*
X146928183Y-118172931D01*
X147024818Y-118032932D01*
X147085140Y-117873874D01*
X147105645Y-117705002D01*
X147085140Y-117536130D01*
X147024818Y-117377072D01*
X146928183Y-117237073D01*
X146800852Y-117124268D01*
X146800849Y-117124265D01*
X146650226Y-117045212D01*
X146547517Y-117019897D01*
X146487137Y-116984741D01*
X146455348Y-116922522D01*
X146462244Y-116852993D01*
X146505635Y-116798230D01*
X146571745Y-116775620D01*
X146577192Y-116775500D01*
X156951679Y-116775500D01*
X157018718Y-116795185D01*
X157039360Y-116811819D01*
X159133590Y-118906048D01*
X159167075Y-118967371D01*
X159169909Y-118993729D01*
X159169909Y-119000003D01*
X159188212Y-119162455D01*
X159242210Y-119316774D01*
X159294191Y-119399500D01*
X159329192Y-119455204D01*
X159444796Y-119570808D01*
X159583225Y-119657789D01*
X159737539Y-119711786D01*
X159737542Y-119711786D01*
X159737544Y-119711787D01*
X159899996Y-119730091D01*
X159900000Y-119730091D01*
X159900004Y-119730091D01*
X160062455Y-119711787D01*
X160062456Y-119711786D01*
X160062461Y-119711786D01*
X160216775Y-119657789D01*
X160355204Y-119570808D01*
X160470808Y-119455204D01*
X160557789Y-119316775D01*
X160611786Y-119162461D01*
X160618579Y-119102171D01*
X160630091Y-119000003D01*
X160630091Y-118999996D01*
X160611787Y-118837544D01*
X160611786Y-118837542D01*
X160611786Y-118837539D01*
X160557789Y-118683225D01*
X160470808Y-118544796D01*
X160355204Y-118429192D01*
X160257702Y-118367927D01*
X160216774Y-118342210D01*
X160062455Y-118288212D01*
X159900004Y-118269909D01*
X159893729Y-118269909D01*
X159826690Y-118250224D01*
X159806048Y-118233590D01*
X157491965Y-115919506D01*
X157491964Y-115919505D01*
X157383536Y-115856905D01*
X157383537Y-115856905D01*
X157343224Y-115846103D01*
X157262601Y-115824500D01*
X157262599Y-115824500D01*
X147897321Y-115824500D01*
X147830282Y-115804815D01*
X147784527Y-115752011D01*
X147774583Y-115682853D01*
X147803608Y-115619297D01*
X147809640Y-115612819D01*
X148268395Y-115154063D01*
X148329718Y-115120578D01*
X148356076Y-115117744D01*
X148362350Y-115117744D01*
X148524802Y-115099440D01*
X148524803Y-115099439D01*
X148524808Y-115099439D01*
X148679122Y-115045442D01*
X148817551Y-114958461D01*
X148933155Y-114842857D01*
X149020136Y-114704428D01*
X149074133Y-114550114D01*
X149078935Y-114507494D01*
X149106000Y-114443083D01*
X149163595Y-114403527D01*
X149233432Y-114401388D01*
X149293338Y-114437346D01*
X149318097Y-114477408D01*
X149375182Y-114627930D01*
X149375182Y-114627931D01*
X149425274Y-114700500D01*
X149471817Y-114767929D01*
X149561078Y-114847007D01*
X149599150Y-114880736D01*
X149744278Y-114956905D01*
X149749775Y-114959790D01*
X149914944Y-115000500D01*
X150085056Y-115000500D01*
X150250225Y-114959790D01*
X150360772Y-114901770D01*
X150400849Y-114880736D01*
X150400850Y-114880734D01*
X150400852Y-114880734D01*
X150528183Y-114767929D01*
X150624818Y-114627930D01*
X150685140Y-114468872D01*
X150694099Y-114395083D01*
X150721720Y-114330907D01*
X150779654Y-114291850D01*
X150849507Y-114290315D01*
X150909101Y-114326789D01*
X150922187Y-114344055D01*
X150929192Y-114355204D01*
X151044796Y-114470808D01*
X151183225Y-114557789D01*
X151326859Y-114608049D01*
X151373585Y-114637409D01*
X152128139Y-115391963D01*
X152128140Y-115391964D01*
X152216671Y-115480495D01*
X152325099Y-115543095D01*
X152446034Y-115575500D01*
X152446036Y-115575500D01*
X156162599Y-115575500D01*
X156162601Y-115575500D01*
X156283536Y-115543095D01*
X156391964Y-115480495D01*
X157110639Y-114761818D01*
X157171962Y-114728334D01*
X157198320Y-114725500D01*
X157712773Y-114725500D01*
X157753728Y-114732459D01*
X157837542Y-114761787D01*
X157999996Y-114780091D01*
X158000000Y-114780091D01*
X158000004Y-114780091D01*
X158162455Y-114761787D01*
X158162456Y-114761786D01*
X158162461Y-114761786D01*
X158316775Y-114707789D01*
X158455204Y-114620808D01*
X158570808Y-114505204D01*
X158657789Y-114366775D01*
X158711786Y-114212461D01*
X158713190Y-114200000D01*
X158730091Y-114050003D01*
X158730091Y-114049996D01*
X158711787Y-113887544D01*
X158711786Y-113887542D01*
X158711786Y-113887539D01*
X158672232Y-113774500D01*
X158657789Y-113733224D01*
X158630926Y-113690472D01*
X158611926Y-113623235D01*
X158632294Y-113556400D01*
X158685562Y-113511186D01*
X158735920Y-113500500D01*
X159802725Y-113500500D01*
X159802727Y-113500500D01*
X159904588Y-113473207D01*
X159995913Y-113420480D01*
X159995916Y-113420477D01*
X160029575Y-113386819D01*
X160090898Y-113353334D01*
X160117256Y-113350500D01*
X160285056Y-113350500D01*
X160450225Y-113309790D01*
X160549182Y-113257853D01*
X160600849Y-113230736D01*
X160600850Y-113230734D01*
X160600852Y-113230734D01*
X160728183Y-113117929D01*
X160824818Y-112977930D01*
X160885140Y-112818872D01*
X160905645Y-112650000D01*
X160885140Y-112481128D01*
X160824818Y-112322070D01*
X160728183Y-112182071D01*
X160600852Y-112069266D01*
X160600849Y-112069263D01*
X160450226Y-111990210D01*
X160285056Y-111949500D01*
X160114944Y-111949500D01*
X159949773Y-111990210D01*
X159799150Y-112069263D01*
X159671816Y-112182072D01*
X159575182Y-112322068D01*
X159514860Y-112481125D01*
X159514859Y-112481130D01*
X159501586Y-112590447D01*
X159473964Y-112654625D01*
X159416030Y-112693681D01*
X159378490Y-112699500D01*
X152680877Y-112699500D01*
X152613838Y-112679815D01*
X152568083Y-112627011D01*
X152558139Y-112557853D01*
X152587164Y-112494297D01*
X152598650Y-112482684D01*
X152600849Y-112480735D01*
X152600852Y-112480734D01*
X152728183Y-112367929D01*
X152824818Y-112227930D01*
X152885140Y-112068872D01*
X152905645Y-111900000D01*
X152885140Y-111731128D01*
X152824818Y-111572070D01*
X152824817Y-111572068D01*
X152824815Y-111572063D01*
X152821704Y-111566135D01*
X152807982Y-111497626D01*
X152833477Y-111432574D01*
X152890095Y-111391633D01*
X152931503Y-111384515D01*
X154875789Y-111384515D01*
X154933415Y-111398719D01*
X155049775Y-111459790D01*
X155214944Y-111500500D01*
X155385056Y-111500500D01*
X155550225Y-111459790D01*
X155680086Y-111391633D01*
X155700849Y-111380736D01*
X155700850Y-111380734D01*
X155700852Y-111380734D01*
X155828183Y-111267929D01*
X155924818Y-111127930D01*
X155985140Y-110968872D01*
X156005645Y-110800000D01*
X155985140Y-110631128D01*
X155980639Y-110619261D01*
X155924817Y-110472068D01*
X155874726Y-110399500D01*
X155828183Y-110332071D01*
X155733316Y-110248026D01*
X155700849Y-110219263D01*
X155568872Y-110149996D01*
X156919909Y-110149996D01*
X156919909Y-110150003D01*
X156938212Y-110312455D01*
X156992210Y-110466774D01*
X157012772Y-110499498D01*
X157079192Y-110605204D01*
X157194796Y-110720808D01*
X157333225Y-110807789D01*
X157487539Y-110861786D01*
X157487542Y-110861786D01*
X157487544Y-110861787D01*
X157649996Y-110880091D01*
X157650000Y-110880091D01*
X157650004Y-110880091D01*
X157812455Y-110861787D01*
X157812456Y-110861786D01*
X157812461Y-110861786D01*
X157966775Y-110807789D01*
X158105204Y-110720808D01*
X158220808Y-110605204D01*
X158307789Y-110466775D01*
X158361786Y-110312461D01*
X158361787Y-110312455D01*
X158380091Y-110150003D01*
X158380091Y-110149996D01*
X158361787Y-109987544D01*
X158361786Y-109987542D01*
X158361786Y-109987539D01*
X158307789Y-109833225D01*
X158220808Y-109694796D01*
X158105204Y-109579192D01*
X158030210Y-109532070D01*
X157966774Y-109492210D01*
X157812455Y-109438212D01*
X157650004Y-109419909D01*
X157649996Y-109419909D01*
X157487544Y-109438212D01*
X157333225Y-109492210D01*
X157194795Y-109579192D01*
X157079192Y-109694795D01*
X156992210Y-109833225D01*
X156938212Y-109987544D01*
X156919909Y-110149996D01*
X155568872Y-110149996D01*
X155550226Y-110140210D01*
X155385056Y-110099500D01*
X155214944Y-110099500D01*
X155049773Y-110140210D01*
X154899150Y-110219263D01*
X154825186Y-110284790D01*
X154776494Y-110327928D01*
X154771816Y-110332072D01*
X154675182Y-110472068D01*
X154675181Y-110472071D01*
X154663268Y-110503485D01*
X154621091Y-110559188D01*
X154555493Y-110583246D01*
X154547326Y-110583515D01*
X150005403Y-110583515D01*
X149938364Y-110563830D01*
X149892609Y-110511026D01*
X149882307Y-110444568D01*
X149889660Y-110384015D01*
X149869155Y-110215143D01*
X149808833Y-110056085D01*
X149712198Y-109916086D01*
X149616294Y-109831123D01*
X149584864Y-109803278D01*
X149434241Y-109724225D01*
X149269071Y-109683515D01*
X149098959Y-109683515D01*
X148933788Y-109724225D01*
X148783165Y-109803278D01*
X148655831Y-109916087D01*
X148559197Y-110056083D01*
X148498875Y-110215140D01*
X148498874Y-110215146D01*
X148489731Y-110290447D01*
X148462109Y-110354625D01*
X148404174Y-110393681D01*
X148366635Y-110399500D01*
X143566255Y-110399500D01*
X143499216Y-110379815D01*
X143453461Y-110327011D01*
X143443517Y-110257853D01*
X143472542Y-110194297D01*
X143478574Y-110187819D01*
X143610310Y-110056083D01*
X144047217Y-109619174D01*
X144102805Y-109587082D01*
X144154585Y-109573208D01*
X144154585Y-109573207D01*
X144154588Y-109573207D01*
X144245913Y-109520480D01*
X145414141Y-108352250D01*
X145475462Y-108318767D01*
X145545153Y-108323751D01*
X145601087Y-108365622D01*
X145603869Y-108369492D01*
X145671815Y-108467927D01*
X145799150Y-108580736D01*
X145949773Y-108659789D01*
X145949775Y-108659790D01*
X146114944Y-108700500D01*
X146285056Y-108700500D01*
X146450225Y-108659790D01*
X146529692Y-108618081D01*
X146600849Y-108580736D01*
X146600850Y-108580734D01*
X146600852Y-108580734D01*
X146728183Y-108467929D01*
X146824818Y-108327930D01*
X146885140Y-108168872D01*
X146905645Y-108000000D01*
X146893503Y-107900000D01*
X150294355Y-107900000D01*
X150314859Y-108068869D01*
X150314860Y-108068874D01*
X150375182Y-108227931D01*
X150437475Y-108318177D01*
X150471817Y-108367929D01*
X150577505Y-108461560D01*
X150599150Y-108480736D01*
X150703645Y-108535579D01*
X150749775Y-108559790D01*
X150914944Y-108600500D01*
X151085056Y-108600500D01*
X151250225Y-108559790D01*
X151329692Y-108518081D01*
X151400849Y-108480736D01*
X151400850Y-108480734D01*
X151400852Y-108480734D01*
X151528183Y-108367929D01*
X151624818Y-108227930D01*
X151685140Y-108068872D01*
X151705645Y-107900000D01*
X151685140Y-107731128D01*
X151673524Y-107700500D01*
X151646003Y-107627930D01*
X151624818Y-107572070D01*
X151597208Y-107532071D01*
X151575071Y-107500000D01*
X151528183Y-107432071D01*
X151424493Y-107340210D01*
X151400849Y-107319263D01*
X151250226Y-107240210D01*
X151085056Y-107199500D01*
X150914944Y-107199500D01*
X150749773Y-107240210D01*
X150599150Y-107319263D01*
X150471816Y-107432072D01*
X150375182Y-107572068D01*
X150314860Y-107731125D01*
X150314859Y-107731130D01*
X150294355Y-107900000D01*
X146893503Y-107900000D01*
X146885140Y-107831128D01*
X146824818Y-107672070D01*
X146822608Y-107668869D01*
X146757814Y-107574999D01*
X146728183Y-107532071D01*
X146619286Y-107435597D01*
X146600850Y-107419264D01*
X146583671Y-107410248D01*
X146533460Y-107361662D01*
X146517487Y-107293643D01*
X146540824Y-107227785D01*
X146553612Y-107212779D01*
X147420480Y-106345913D01*
X147473207Y-106254588D01*
X147500500Y-106152727D01*
X147500500Y-106047273D01*
X147500500Y-105499996D01*
X151569909Y-105499996D01*
X151569909Y-105500003D01*
X151588212Y-105662455D01*
X151642210Y-105816774D01*
X151663636Y-105850873D01*
X151729192Y-105955204D01*
X151844796Y-106070808D01*
X151983225Y-106157789D01*
X152137539Y-106211786D01*
X152137542Y-106211786D01*
X152137544Y-106211787D01*
X152299996Y-106230091D01*
X152300000Y-106230091D01*
X152300004Y-106230091D01*
X152462455Y-106211787D01*
X152462456Y-106211786D01*
X152462461Y-106211786D01*
X152616775Y-106157789D01*
X152755204Y-106070808D01*
X152870808Y-105955204D01*
X152957789Y-105816775D01*
X153011786Y-105662461D01*
X153012695Y-105654394D01*
X153030091Y-105500003D01*
X153030091Y-105499996D01*
X153011787Y-105337544D01*
X153011786Y-105337542D01*
X153011786Y-105337539D01*
X152957789Y-105183225D01*
X152870808Y-105044796D01*
X152755204Y-104929192D01*
X152683280Y-104883999D01*
X154009892Y-104883999D01*
X154009892Y-104884000D01*
X154028282Y-105082464D01*
X154028282Y-105082466D01*
X154028283Y-105082469D01*
X154068735Y-105224643D01*
X154082830Y-105274183D01*
X154171670Y-105452598D01*
X154171675Y-105452606D01*
X154291792Y-105611666D01*
X154403682Y-105713666D01*
X154439090Y-105745945D01*
X154489276Y-105777019D01*
X154517626Y-105794573D01*
X154564261Y-105846602D01*
X154575365Y-105915583D01*
X154547411Y-105979618D01*
X154517626Y-106005427D01*
X154439088Y-106054056D01*
X154291792Y-106188333D01*
X154171675Y-106347393D01*
X154171670Y-106347401D01*
X154082830Y-106525816D01*
X154028282Y-106717535D01*
X154009892Y-106915999D01*
X154009892Y-106916000D01*
X154028282Y-107114464D01*
X154028282Y-107114466D01*
X154028283Y-107114469D01*
X154081071Y-107300000D01*
X154082830Y-107306183D01*
X154171670Y-107484598D01*
X154171675Y-107484606D01*
X154291792Y-107643666D01*
X154387731Y-107731125D01*
X154439090Y-107777945D01*
X154568160Y-107857862D01*
X154605102Y-107880736D01*
X154608554Y-107882873D01*
X154794414Y-107954876D01*
X154990340Y-107991500D01*
X154990342Y-107991500D01*
X155189658Y-107991500D01*
X155189660Y-107991500D01*
X155385586Y-107954876D01*
X155571446Y-107882873D01*
X155740910Y-107777945D01*
X155888209Y-107643664D01*
X156008326Y-107484604D01*
X156097171Y-107306180D01*
X156151717Y-107114469D01*
X156170108Y-106916000D01*
X156151717Y-106717531D01*
X156097171Y-106525820D01*
X156049770Y-106430626D01*
X156008329Y-106347401D01*
X156008324Y-106347393D01*
X155888207Y-106188333D01*
X155740911Y-106054056D01*
X155740910Y-106054055D01*
X155662372Y-106005426D01*
X155615738Y-105953399D01*
X155604634Y-105884417D01*
X155632587Y-105820383D01*
X155662373Y-105794573D01*
X155740910Y-105745945D01*
X155888209Y-105611664D01*
X156008326Y-105452604D01*
X156097171Y-105274180D01*
X156151717Y-105082469D01*
X156170108Y-104884000D01*
X156151717Y-104685531D01*
X156097171Y-104493820D01*
X156060732Y-104420640D01*
X156008329Y-104315401D01*
X156008324Y-104315393D01*
X155888207Y-104156333D01*
X155740911Y-104022056D01*
X155740910Y-104022055D01*
X155705290Y-104000000D01*
X156294355Y-104000000D01*
X156314859Y-104168869D01*
X156314860Y-104168874D01*
X156375182Y-104327931D01*
X156424929Y-104400000D01*
X156471817Y-104467929D01*
X156529765Y-104519266D01*
X156599150Y-104580736D01*
X156696961Y-104632071D01*
X156749775Y-104659790D01*
X156914944Y-104700500D01*
X157085056Y-104700500D01*
X157250225Y-104659790D01*
X157329692Y-104618081D01*
X157400849Y-104580736D01*
X157400850Y-104580734D01*
X157400852Y-104580734D01*
X157528183Y-104467929D01*
X157624818Y-104327930D01*
X157685140Y-104168872D01*
X157692815Y-104105657D01*
X157720436Y-104041481D01*
X157778370Y-104002424D01*
X157786211Y-104000215D01*
X157950225Y-103959790D01*
X158031514Y-103917126D01*
X158100849Y-103880736D01*
X158100850Y-103880734D01*
X158100852Y-103880734D01*
X158228183Y-103767929D01*
X158324818Y-103627930D01*
X158385140Y-103468872D01*
X158405645Y-103300000D01*
X158385140Y-103131128D01*
X158380641Y-103119266D01*
X158324817Y-102972068D01*
X158247315Y-102859789D01*
X158228183Y-102832071D01*
X158100852Y-102719266D01*
X158100849Y-102719263D01*
X157950226Y-102640210D01*
X157785056Y-102599500D01*
X157614944Y-102599500D01*
X157449773Y-102640210D01*
X157299150Y-102719263D01*
X157171816Y-102832072D01*
X157075182Y-102972068D01*
X157014860Y-103131125D01*
X157014859Y-103131130D01*
X157007184Y-103194342D01*
X156979562Y-103258519D01*
X156921627Y-103297575D01*
X156913763Y-103299791D01*
X156749773Y-103340210D01*
X156599150Y-103419263D01*
X156507453Y-103500500D01*
X156472882Y-103531128D01*
X156471816Y-103532072D01*
X156375182Y-103672068D01*
X156314860Y-103831125D01*
X156314859Y-103831130D01*
X156294355Y-104000000D01*
X155705290Y-104000000D01*
X155640349Y-103959790D01*
X155571447Y-103917127D01*
X155571445Y-103917126D01*
X155489379Y-103885334D01*
X155385586Y-103845124D01*
X155385582Y-103845123D01*
X155306639Y-103830366D01*
X155189660Y-103808500D01*
X154990340Y-103808500D01*
X154932762Y-103819263D01*
X154794417Y-103845123D01*
X154794415Y-103845123D01*
X154794414Y-103845124D01*
X154742517Y-103865229D01*
X154608554Y-103917126D01*
X154608552Y-103917127D01*
X154439088Y-104022056D01*
X154291792Y-104156333D01*
X154171675Y-104315393D01*
X154171670Y-104315401D01*
X154082830Y-104493816D01*
X154028282Y-104685535D01*
X154009892Y-104883999D01*
X152683280Y-104883999D01*
X152657702Y-104867927D01*
X152616774Y-104842210D01*
X152462455Y-104788212D01*
X152300004Y-104769909D01*
X152299996Y-104769909D01*
X152137544Y-104788212D01*
X151983225Y-104842210D01*
X151844795Y-104929192D01*
X151729192Y-105044795D01*
X151642210Y-105183225D01*
X151588212Y-105337544D01*
X151569909Y-105499996D01*
X147500500Y-105499996D01*
X147500500Y-100949999D01*
X156907582Y-100949999D01*
X156907582Y-100950000D01*
X156927216Y-101174421D01*
X156927218Y-101174431D01*
X156985521Y-101392025D01*
X156985525Y-101392034D01*
X157080732Y-101596207D01*
X157080733Y-101596209D01*
X157129949Y-101666497D01*
X157696624Y-101099822D01*
X157710778Y-101152642D01*
X157779896Y-101272357D01*
X157877643Y-101370104D01*
X157997358Y-101439222D01*
X158050177Y-101453375D01*
X157483501Y-102020049D01*
X157553791Y-102069267D01*
X157757965Y-102164474D01*
X157757974Y-102164478D01*
X157975568Y-102222781D01*
X157975578Y-102222783D01*
X158199999Y-102242418D01*
X158200001Y-102242418D01*
X158424421Y-102222783D01*
X158424431Y-102222781D01*
X158642025Y-102164478D01*
X158642034Y-102164474D01*
X158846208Y-102069267D01*
X158846212Y-102069265D01*
X158916497Y-102020050D01*
X158349822Y-101453375D01*
X158402642Y-101439222D01*
X158522357Y-101370104D01*
X158620104Y-101272357D01*
X158689222Y-101152642D01*
X158703375Y-101099822D01*
X159270050Y-101666497D01*
X159319265Y-101596212D01*
X159319267Y-101596208D01*
X159414474Y-101392034D01*
X159414478Y-101392025D01*
X159472781Y-101174431D01*
X159472783Y-101174421D01*
X159492418Y-100950000D01*
X159492418Y-100949999D01*
X159472783Y-100725578D01*
X159472781Y-100725568D01*
X159414478Y-100507974D01*
X159414474Y-100507965D01*
X159319267Y-100303791D01*
X159270049Y-100233501D01*
X158703374Y-100800176D01*
X158689222Y-100747358D01*
X158620104Y-100627643D01*
X158522357Y-100529896D01*
X158402642Y-100460778D01*
X158349822Y-100446624D01*
X158916497Y-99879949D01*
X158916497Y-99879948D01*
X158846209Y-99830733D01*
X158846207Y-99830732D01*
X158642034Y-99735525D01*
X158642028Y-99735522D01*
X158566262Y-99715221D01*
X158506602Y-99678856D01*
X158476073Y-99616009D01*
X158484368Y-99546633D01*
X158528853Y-99492755D01*
X158553559Y-99479820D01*
X158687041Y-99428110D01*
X158858475Y-99321962D01*
X159007486Y-99186121D01*
X159128999Y-99025212D01*
X159218876Y-98844715D01*
X159274056Y-98650776D01*
X159292661Y-98450000D01*
X159274056Y-98249224D01*
X159218876Y-98055285D01*
X159128999Y-97874788D01*
X159007486Y-97713879D01*
X158858475Y-97578038D01*
X158793190Y-97537615D01*
X158687042Y-97471890D01*
X158687040Y-97471889D01*
X158549561Y-97418630D01*
X158499021Y-97399051D01*
X158300818Y-97362000D01*
X158099182Y-97362000D01*
X157900979Y-97399051D01*
X157900976Y-97399051D01*
X157900976Y-97399052D01*
X157712959Y-97471889D01*
X157712957Y-97471890D01*
X157541523Y-97578039D01*
X157392515Y-97713877D01*
X157271001Y-97874787D01*
X157181125Y-98055281D01*
X157125943Y-98249228D01*
X157107339Y-98450000D01*
X157125943Y-98650771D01*
X157125943Y-98650773D01*
X157125944Y-98650776D01*
X157162920Y-98780734D01*
X157181125Y-98844718D01*
X157210313Y-98903334D01*
X157271001Y-99025212D01*
X157392514Y-99186121D01*
X157541525Y-99321962D01*
X157712959Y-99428110D01*
X157712962Y-99428111D01*
X157846436Y-99479819D01*
X157901838Y-99522392D01*
X157925429Y-99588158D01*
X157909718Y-99656239D01*
X157859694Y-99705018D01*
X157833737Y-99715221D01*
X157757972Y-99735522D01*
X157757965Y-99735525D01*
X157553787Y-99830735D01*
X157483502Y-99879948D01*
X157483501Y-99879949D01*
X158050177Y-100446624D01*
X157997358Y-100460778D01*
X157877643Y-100529896D01*
X157779896Y-100627643D01*
X157710778Y-100747358D01*
X157696625Y-100800177D01*
X157129949Y-100233501D01*
X157129948Y-100233502D01*
X157080735Y-100303787D01*
X156985525Y-100507965D01*
X156985521Y-100507974D01*
X156927218Y-100725568D01*
X156927216Y-100725578D01*
X156907582Y-100949999D01*
X147500500Y-100949999D01*
X147500500Y-100417254D01*
X147520185Y-100350215D01*
X147536814Y-100329578D01*
X148929573Y-98936818D01*
X148990896Y-98903334D01*
X149017254Y-98900500D01*
X149185056Y-98900500D01*
X149350225Y-98859790D01*
X149429692Y-98818081D01*
X149500849Y-98780736D01*
X149500850Y-98780734D01*
X149500852Y-98780734D01*
X149628183Y-98667929D01*
X149724818Y-98527930D01*
X149785140Y-98368872D01*
X149805645Y-98200000D01*
X149785140Y-98031128D01*
X149724818Y-97872070D01*
X149723946Y-97870807D01*
X149690476Y-97822318D01*
X149628183Y-97732071D01*
X149500852Y-97619266D01*
X149500849Y-97619263D01*
X149350226Y-97540210D01*
X149185056Y-97499500D01*
X149014944Y-97499500D01*
X148849773Y-97540210D01*
X148699150Y-97619263D01*
X148571816Y-97732072D01*
X148475182Y-97872068D01*
X148414860Y-98031125D01*
X148414859Y-98031130D01*
X148394355Y-98200000D01*
X148394355Y-98200001D01*
X148402154Y-98264240D01*
X148390693Y-98333164D01*
X148366739Y-98366866D01*
X146962871Y-99770734D01*
X146901548Y-99804219D01*
X146831856Y-99799235D01*
X146792963Y-99775869D01*
X146747424Y-99735525D01*
X146700852Y-99694266D01*
X146700850Y-99694265D01*
X146700849Y-99694264D01*
X146550226Y-99615210D01*
X146385056Y-99574500D01*
X146214944Y-99574500D01*
X146049773Y-99615210D01*
X145899150Y-99694263D01*
X145771816Y-99807072D01*
X145675182Y-99947068D01*
X145614860Y-100106125D01*
X145614859Y-100106130D01*
X145594355Y-100275000D01*
X145614859Y-100443869D01*
X145614860Y-100443874D01*
X145663478Y-100572070D01*
X145675182Y-100602930D01*
X145745678Y-100705061D01*
X145767561Y-100771414D01*
X145750096Y-100839066D01*
X145698828Y-100886536D01*
X145643628Y-100899500D01*
X145514944Y-100899500D01*
X145349773Y-100940210D01*
X145199150Y-101019263D01*
X145071816Y-101132072D01*
X144975182Y-101272068D01*
X144914860Y-101431125D01*
X144914859Y-101431130D01*
X144894355Y-101600000D01*
X144914859Y-101768869D01*
X144914860Y-101768874D01*
X144975182Y-101927931D01*
X145011630Y-101980734D01*
X145071817Y-102067929D01*
X145120805Y-102111328D01*
X145199150Y-102180736D01*
X145349773Y-102259789D01*
X145349775Y-102259790D01*
X145514944Y-102300500D01*
X145685056Y-102300500D01*
X145850225Y-102259790D01*
X145964152Y-102199996D01*
X146000849Y-102180736D01*
X146000850Y-102180734D01*
X146000852Y-102180734D01*
X146128183Y-102067929D01*
X146224818Y-101927930D01*
X146285140Y-101768872D01*
X146305645Y-101600000D01*
X146285140Y-101431128D01*
X146224818Y-101272070D01*
X146154321Y-101169938D01*
X146132439Y-101103586D01*
X146149904Y-101035934D01*
X146201172Y-100988464D01*
X146256372Y-100975500D01*
X146385056Y-100975500D01*
X146545826Y-100935874D01*
X146615627Y-100938943D01*
X146672689Y-100979263D01*
X146698895Y-101044032D01*
X146699500Y-101056271D01*
X146699500Y-105882744D01*
X146679815Y-105949783D01*
X146663181Y-105970425D01*
X143852782Y-108780823D01*
X143797197Y-108812916D01*
X143745413Y-108826792D01*
X143745412Y-108826792D01*
X143654087Y-108879520D01*
X143654084Y-108879522D01*
X142870426Y-109663181D01*
X142809103Y-109696666D01*
X142782745Y-109699500D01*
X142421388Y-109699500D01*
X142354349Y-109679815D01*
X142308594Y-109627011D01*
X142298292Y-109560553D01*
X142305645Y-109500000D01*
X142285140Y-109331128D01*
X142273144Y-109299498D01*
X142259383Y-109263211D01*
X142224818Y-109172070D01*
X142223946Y-109170807D01*
X142190476Y-109122318D01*
X142128183Y-109032071D01*
X142000852Y-108919266D01*
X142000849Y-108919263D01*
X141850226Y-108840210D01*
X141685056Y-108799500D01*
X141514944Y-108799500D01*
X141349773Y-108840210D01*
X141199150Y-108919263D01*
X141071816Y-109032072D01*
X140975182Y-109172068D01*
X140914860Y-109331125D01*
X140914859Y-109331130D01*
X140905678Y-109406748D01*
X140878056Y-109470926D01*
X140820122Y-109509982D01*
X140750269Y-109511517D01*
X140700356Y-109484617D01*
X140626587Y-109419264D01*
X140626584Y-109419261D01*
X140475961Y-109340208D01*
X140310791Y-109299498D01*
X140140679Y-109299498D01*
X139975511Y-109340207D01*
X139964543Y-109345964D01*
X139896034Y-109359686D01*
X139830982Y-109334192D01*
X139824699Y-109328984D01*
X139817269Y-109322402D01*
X139780145Y-109263211D01*
X139775500Y-109229590D01*
X139775500Y-105899757D01*
X139795185Y-105832718D01*
X139847989Y-105786963D01*
X139917147Y-105777019D01*
X139929173Y-105779359D01*
X140014944Y-105800500D01*
X140185056Y-105800500D01*
X140350225Y-105759790D01*
X140438106Y-105713666D01*
X140500849Y-105680736D01*
X140500850Y-105680734D01*
X140500852Y-105680734D01*
X140628183Y-105567929D01*
X140675071Y-105500000D01*
X141994355Y-105500000D01*
X142014859Y-105668869D01*
X142014860Y-105668874D01*
X142075182Y-105827931D01*
X142114172Y-105884417D01*
X142171817Y-105967929D01*
X142254381Y-106041074D01*
X142299150Y-106080736D01*
X142445962Y-106157789D01*
X142449775Y-106159790D01*
X142614944Y-106200500D01*
X142626371Y-106200500D01*
X142693410Y-106220185D01*
X142739165Y-106272989D01*
X142749109Y-106342147D01*
X142728421Y-106394940D01*
X142675183Y-106472068D01*
X142675182Y-106472068D01*
X142614860Y-106631125D01*
X142614859Y-106631130D01*
X142594355Y-106800000D01*
X142614859Y-106968869D01*
X142614860Y-106968874D01*
X142675182Y-107127931D01*
X142733745Y-107212772D01*
X142771817Y-107267929D01*
X142877505Y-107361560D01*
X142899150Y-107380736D01*
X143040035Y-107454678D01*
X143049775Y-107459790D01*
X143214944Y-107500500D01*
X143385056Y-107500500D01*
X143550225Y-107459790D01*
X143629692Y-107418081D01*
X143700849Y-107380736D01*
X143700850Y-107380734D01*
X143700852Y-107380734D01*
X143828183Y-107267929D01*
X143924818Y-107127930D01*
X143985140Y-106968872D01*
X144005645Y-106800000D01*
X143985140Y-106631128D01*
X143970286Y-106591962D01*
X143938440Y-106507988D01*
X143924818Y-106472070D01*
X143922421Y-106468598D01*
X143888368Y-106419263D01*
X143828183Y-106332071D01*
X143713071Y-106230091D01*
X143700849Y-106219263D01*
X143550226Y-106140210D01*
X143385056Y-106099500D01*
X143373629Y-106099500D01*
X143306590Y-106079815D01*
X143260835Y-106027011D01*
X143250891Y-105957853D01*
X143271579Y-105905060D01*
X143283126Y-105888330D01*
X143324818Y-105827930D01*
X143385140Y-105668872D01*
X143405645Y-105500000D01*
X143385140Y-105331128D01*
X143324818Y-105172070D01*
X143228183Y-105032071D01*
X143114244Y-104931130D01*
X143100849Y-104919263D01*
X142950226Y-104840210D01*
X142785056Y-104799500D01*
X142614944Y-104799500D01*
X142449773Y-104840210D01*
X142299150Y-104919263D01*
X142171816Y-105032072D01*
X142075182Y-105172068D01*
X142014860Y-105331125D01*
X142014859Y-105331130D01*
X141994355Y-105500000D01*
X140675071Y-105500000D01*
X140724818Y-105427930D01*
X140785140Y-105268872D01*
X140805645Y-105100000D01*
X140785140Y-104931128D01*
X140784499Y-104929439D01*
X140731300Y-104789162D01*
X140724818Y-104772070D01*
X140723326Y-104769909D01*
X140647315Y-104659789D01*
X140628183Y-104632071D01*
X140500852Y-104519266D01*
X140500849Y-104519263D01*
X140350226Y-104440210D01*
X140185056Y-104399500D01*
X140014944Y-104399500D01*
X139941627Y-104417571D01*
X139929175Y-104420640D01*
X139859373Y-104417571D01*
X139802311Y-104377251D01*
X139776105Y-104312482D01*
X139775500Y-104300243D01*
X139775500Y-101400000D01*
X140094355Y-101400000D01*
X140114859Y-101568869D01*
X140114860Y-101568874D01*
X140175182Y-101727931D01*
X140237475Y-101818177D01*
X140271817Y-101867929D01*
X140399148Y-101980734D01*
X140549775Y-102059790D01*
X140549779Y-102059791D01*
X140555404Y-102062743D01*
X140605616Y-102111328D01*
X140621591Y-102179347D01*
X140620874Y-102187483D01*
X140619355Y-102199996D01*
X140619355Y-102199999D01*
X140639859Y-102368869D01*
X140639860Y-102368874D01*
X140700182Y-102527931D01*
X140762475Y-102618177D01*
X140796817Y-102667929D01*
X140854765Y-102719266D01*
X140924150Y-102780736D01*
X141021961Y-102832071D01*
X141074775Y-102859790D01*
X141239944Y-102900500D01*
X141410056Y-102900500D01*
X141575225Y-102859790D01*
X141689144Y-102800000D01*
X141725849Y-102780736D01*
X141725850Y-102780734D01*
X141725852Y-102780734D01*
X141853183Y-102667929D01*
X141949818Y-102527930D01*
X142010140Y-102368872D01*
X142030645Y-102200000D01*
X142010140Y-102031128D01*
X141949818Y-101872070D01*
X141946958Y-101867927D01*
X141878583Y-101768869D01*
X141853183Y-101732071D01*
X141725852Y-101619266D01*
X141725849Y-101619263D01*
X141569595Y-101537254D01*
X141519382Y-101488669D01*
X141503408Y-101420650D01*
X141504126Y-101412507D01*
X141505645Y-101400000D01*
X141486354Y-101241127D01*
X141497814Y-101172205D01*
X141544718Y-101120419D01*
X141612174Y-101102212D01*
X141667076Y-101116386D01*
X141696961Y-101132071D01*
X141749775Y-101159790D01*
X141914944Y-101200500D01*
X142085056Y-101200500D01*
X142250225Y-101159790D01*
X142359930Y-101102212D01*
X142400849Y-101080736D01*
X142400850Y-101080734D01*
X142400852Y-101080734D01*
X142528183Y-100967929D01*
X142624818Y-100827930D01*
X142685140Y-100668872D01*
X142705645Y-100500000D01*
X142685140Y-100331128D01*
X142680641Y-100319266D01*
X142624817Y-100172068D01*
X142587749Y-100118367D01*
X142528183Y-100032071D01*
X142400852Y-99919266D01*
X142400849Y-99919263D01*
X142250226Y-99840210D01*
X142085056Y-99799500D01*
X141914944Y-99799500D01*
X141749773Y-99840210D01*
X141599150Y-99919263D01*
X141471816Y-100032072D01*
X141375182Y-100172068D01*
X141314860Y-100331125D01*
X141314859Y-100331130D01*
X141294355Y-100500000D01*
X141313645Y-100658871D01*
X141302184Y-100727794D01*
X141255280Y-100779580D01*
X141187825Y-100797787D01*
X141132923Y-100783613D01*
X141050226Y-100740210D01*
X140885056Y-100699500D01*
X140714944Y-100699500D01*
X140549773Y-100740210D01*
X140399150Y-100819263D01*
X140271816Y-100932072D01*
X140175182Y-101072068D01*
X140114860Y-101231125D01*
X140114859Y-101231130D01*
X140094355Y-101400000D01*
X139775500Y-101400000D01*
X139775500Y-89800000D01*
X151744355Y-89800000D01*
X151764859Y-89968869D01*
X151764860Y-89968874D01*
X151825182Y-90127931D01*
X151887475Y-90218177D01*
X151921817Y-90267929D01*
X152027505Y-90361560D01*
X152049150Y-90380736D01*
X152199773Y-90459789D01*
X152199775Y-90459790D01*
X152364944Y-90500500D01*
X152535056Y-90500500D01*
X152700225Y-90459790D01*
X152779692Y-90418081D01*
X152850849Y-90380736D01*
X152850850Y-90380734D01*
X152850852Y-90380734D01*
X152978183Y-90267929D01*
X153074818Y-90127930D01*
X153135140Y-89968872D01*
X153155645Y-89800000D01*
X153135140Y-89631128D01*
X153074818Y-89472070D01*
X152978183Y-89332071D01*
X152850852Y-89219266D01*
X152850849Y-89219263D01*
X152700226Y-89140210D01*
X152535056Y-89099500D01*
X152364944Y-89099500D01*
X152199773Y-89140210D01*
X152049150Y-89219263D01*
X151921816Y-89332072D01*
X151825182Y-89472068D01*
X151764860Y-89631125D01*
X151764859Y-89631130D01*
X151744355Y-89800000D01*
X139775500Y-89800000D01*
X139775500Y-88000000D01*
X147194355Y-88000000D01*
X147214859Y-88168869D01*
X147214860Y-88168874D01*
X147275182Y-88327931D01*
X147337475Y-88418177D01*
X147371817Y-88467929D01*
X147477505Y-88561560D01*
X147499150Y-88580736D01*
X147649773Y-88659789D01*
X147649775Y-88659790D01*
X147814944Y-88700500D01*
X147985056Y-88700500D01*
X148150225Y-88659790D01*
X148229692Y-88618081D01*
X148300849Y-88580736D01*
X148300850Y-88580734D01*
X148300852Y-88580734D01*
X148428183Y-88467929D01*
X148524818Y-88327930D01*
X148585140Y-88168872D01*
X148605645Y-88000000D01*
X148585140Y-87831128D01*
X148524818Y-87672070D01*
X148428183Y-87532071D01*
X148300852Y-87419266D01*
X148300849Y-87419263D01*
X148150226Y-87340210D01*
X147985056Y-87299500D01*
X147814944Y-87299500D01*
X147649773Y-87340210D01*
X147499150Y-87419263D01*
X147371816Y-87532072D01*
X147275182Y-87672068D01*
X147214860Y-87831125D01*
X147214859Y-87831130D01*
X147194355Y-88000000D01*
X139775500Y-88000000D01*
X139775500Y-86837400D01*
X139775500Y-86837399D01*
X139743095Y-86716464D01*
X139680495Y-86608036D01*
X139622459Y-86550000D01*
X151444355Y-86550000D01*
X151464859Y-86718869D01*
X151464860Y-86718874D01*
X151525182Y-86877931D01*
X151587475Y-86968177D01*
X151621817Y-87017929D01*
X151711024Y-87096959D01*
X151749150Y-87130736D01*
X151899773Y-87209789D01*
X151899775Y-87209790D01*
X152064944Y-87250500D01*
X152235056Y-87250500D01*
X152400225Y-87209790D01*
X152479692Y-87168081D01*
X152550849Y-87130736D01*
X152550850Y-87130734D01*
X152550852Y-87130734D01*
X152678183Y-87017929D01*
X152774818Y-86877930D01*
X152835140Y-86718872D01*
X152855645Y-86550000D01*
X152835140Y-86381128D01*
X152774818Y-86222070D01*
X152678183Y-86082071D01*
X152550852Y-85969266D01*
X152550849Y-85969263D01*
X152400226Y-85890210D01*
X152235056Y-85849500D01*
X152064944Y-85849500D01*
X151899773Y-85890210D01*
X151749150Y-85969263D01*
X151621816Y-86082072D01*
X151525182Y-86222068D01*
X151464860Y-86381125D01*
X151464859Y-86381130D01*
X151444355Y-86550000D01*
X139622459Y-86550000D01*
X139591964Y-86519505D01*
X123786819Y-70714360D01*
X123753334Y-70653037D01*
X123750500Y-70626679D01*
X123750500Y-70100000D01*
X137594355Y-70100000D01*
X137614859Y-70268869D01*
X137614860Y-70268874D01*
X137675182Y-70427931D01*
X137737475Y-70518177D01*
X137771817Y-70567929D01*
X137877505Y-70661560D01*
X137899150Y-70680736D01*
X138049773Y-70759789D01*
X138049775Y-70759790D01*
X138214944Y-70800500D01*
X138385056Y-70800500D01*
X138550225Y-70759790D01*
X138691263Y-70685767D01*
X138700849Y-70680736D01*
X138700850Y-70680734D01*
X138700852Y-70680734D01*
X138828183Y-70567929D01*
X138924818Y-70427930D01*
X138935410Y-70400000D01*
X147244355Y-70400000D01*
X147264859Y-70568869D01*
X147264860Y-70568874D01*
X147325182Y-70727931D01*
X147375274Y-70800500D01*
X147421817Y-70867929D01*
X147494219Y-70932071D01*
X147549150Y-70980736D01*
X147699773Y-71059789D01*
X147699775Y-71059790D01*
X147864944Y-71100500D01*
X148035056Y-71100500D01*
X148200225Y-71059790D01*
X148279692Y-71018081D01*
X148350849Y-70980736D01*
X148350850Y-70980734D01*
X148350852Y-70980734D01*
X148478183Y-70867929D01*
X148574818Y-70727930D01*
X148635140Y-70568872D01*
X148655645Y-70400000D01*
X148635140Y-70231128D01*
X148574818Y-70072070D01*
X148571958Y-70067927D01*
X148540476Y-70022318D01*
X148478183Y-69932071D01*
X148350852Y-69819266D01*
X148350849Y-69819263D01*
X148200226Y-69740210D01*
X148035056Y-69699500D01*
X147864944Y-69699500D01*
X147699773Y-69740210D01*
X147549150Y-69819263D01*
X147432638Y-69922484D01*
X147422882Y-69931128D01*
X147421816Y-69932072D01*
X147325182Y-70072068D01*
X147264860Y-70231125D01*
X147264859Y-70231130D01*
X147244355Y-70400000D01*
X138935410Y-70400000D01*
X138985140Y-70268872D01*
X139005645Y-70100000D01*
X138985140Y-69931128D01*
X138924818Y-69772070D01*
X138922608Y-69768869D01*
X138874726Y-69699500D01*
X138828183Y-69632071D01*
X138791982Y-69600000D01*
X150794355Y-69600000D01*
X150814859Y-69768869D01*
X150814860Y-69768874D01*
X150875182Y-69927931D01*
X150937475Y-70018177D01*
X150971817Y-70067929D01*
X151077505Y-70161560D01*
X151099150Y-70180736D01*
X151249773Y-70259789D01*
X151249775Y-70259790D01*
X151414944Y-70300500D01*
X151585056Y-70300500D01*
X151750225Y-70259790D01*
X151829692Y-70218081D01*
X151900849Y-70180736D01*
X151900850Y-70180734D01*
X151900852Y-70180734D01*
X152028183Y-70067929D01*
X152124818Y-69927930D01*
X152185140Y-69768872D01*
X152205645Y-69600000D01*
X152185140Y-69431128D01*
X152124818Y-69272070D01*
X152028183Y-69132071D01*
X151900852Y-69019266D01*
X151900849Y-69019263D01*
X151750226Y-68940210D01*
X151585056Y-68899500D01*
X151414944Y-68899500D01*
X151249773Y-68940210D01*
X151099150Y-69019263D01*
X150971816Y-69132072D01*
X150875182Y-69272068D01*
X150814860Y-69431125D01*
X150814859Y-69431130D01*
X150794355Y-69600000D01*
X138791982Y-69600000D01*
X138700852Y-69519266D01*
X138700849Y-69519263D01*
X138550226Y-69440210D01*
X138385056Y-69399500D01*
X138214944Y-69399500D01*
X138049773Y-69440210D01*
X137899150Y-69519263D01*
X137771816Y-69632072D01*
X137675182Y-69772068D01*
X137614860Y-69931125D01*
X137614859Y-69931130D01*
X137594355Y-70100000D01*
X123750500Y-70100000D01*
X123750500Y-67199996D01*
X126769909Y-67199996D01*
X126769909Y-67200003D01*
X126788212Y-67362455D01*
X126842210Y-67516774D01*
X126876162Y-67570808D01*
X126929192Y-67655204D01*
X127044796Y-67770808D01*
X127183225Y-67857789D01*
X127337539Y-67911786D01*
X127337542Y-67911786D01*
X127337544Y-67911787D01*
X127499996Y-67930091D01*
X127500000Y-67930091D01*
X127500004Y-67930091D01*
X127662455Y-67911787D01*
X127662456Y-67911786D01*
X127662461Y-67911786D01*
X127816775Y-67857789D01*
X127955204Y-67770808D01*
X128070808Y-67655204D01*
X128157789Y-67516775D01*
X128211786Y-67362461D01*
X128230091Y-67200000D01*
X128225861Y-67162461D01*
X128211787Y-67037544D01*
X128211786Y-67037542D01*
X128211786Y-67037539D01*
X128163659Y-66900000D01*
X151794355Y-66900000D01*
X151814859Y-67068869D01*
X151814860Y-67068874D01*
X151875182Y-67227931D01*
X151936507Y-67316774D01*
X151971817Y-67367929D01*
X152077505Y-67461560D01*
X152099150Y-67480736D01*
X152249773Y-67559789D01*
X152249775Y-67559790D01*
X152414944Y-67600500D01*
X152585056Y-67600500D01*
X152750225Y-67559790D01*
X152832184Y-67516774D01*
X152900849Y-67480736D01*
X152900850Y-67480734D01*
X152900852Y-67480734D01*
X153028183Y-67367929D01*
X153124818Y-67227930D01*
X153185140Y-67068872D01*
X153205645Y-66900000D01*
X153185140Y-66731128D01*
X153124818Y-66572070D01*
X153028183Y-66432071D01*
X152900852Y-66319266D01*
X152900849Y-66319263D01*
X152750226Y-66240210D01*
X152585056Y-66199500D01*
X152414944Y-66199500D01*
X152249773Y-66240210D01*
X152099150Y-66319263D01*
X151971816Y-66432072D01*
X151875182Y-66572068D01*
X151814860Y-66731125D01*
X151814859Y-66731130D01*
X151794355Y-66900000D01*
X128163659Y-66900000D01*
X128157789Y-66883225D01*
X128070808Y-66744796D01*
X127955204Y-66629192D01*
X127816774Y-66542210D01*
X127662455Y-66488212D01*
X127500004Y-66469909D01*
X127499996Y-66469909D01*
X127337544Y-66488212D01*
X127183225Y-66542210D01*
X127044795Y-66629192D01*
X126929192Y-66744795D01*
X126842210Y-66883225D01*
X126788212Y-67037544D01*
X126769909Y-67199996D01*
X123750500Y-67199996D01*
X123750500Y-55512400D01*
X123718094Y-55391462D01*
X123718093Y-55391461D01*
X123709298Y-55376227D01*
X123692825Y-55308327D01*
X123693586Y-55299310D01*
X123705645Y-55200000D01*
X123685140Y-55031128D01*
X123624818Y-54872070D01*
X123528183Y-54732071D01*
X123400852Y-54619266D01*
X123400849Y-54619263D01*
X123250226Y-54540210D01*
X123085056Y-54499500D01*
X122914944Y-54499500D01*
X122749773Y-54540210D01*
X122599150Y-54619263D01*
X122471816Y-54732072D01*
X122375182Y-54872068D01*
X122314860Y-55031125D01*
X122314859Y-55031130D01*
X122294355Y-55200000D01*
X122314859Y-55368869D01*
X122314860Y-55368874D01*
X122375182Y-55527931D01*
X122437475Y-55618177D01*
X122471817Y-55667929D01*
X122599148Y-55780734D01*
X122733127Y-55851052D01*
X122783338Y-55899635D01*
X122799500Y-55960847D01*
X122799500Y-56975500D01*
X122779815Y-57042539D01*
X122727011Y-57088294D01*
X122675500Y-57099500D01*
X122514944Y-57099500D01*
X122349773Y-57140210D01*
X122199150Y-57219263D01*
X122071816Y-57332072D01*
X121975182Y-57472068D01*
X121914860Y-57631125D01*
X121914859Y-57631130D01*
X121894355Y-57800000D01*
X121914859Y-57968869D01*
X121914860Y-57968874D01*
X121975182Y-58127931D01*
X122037475Y-58218177D01*
X122071817Y-58267929D01*
X122177505Y-58361560D01*
X122199150Y-58380736D01*
X122349773Y-58459789D01*
X122349775Y-58459790D01*
X122514944Y-58500500D01*
X122675500Y-58500500D01*
X122742539Y-58520185D01*
X122788294Y-58572989D01*
X122799500Y-58624500D01*
X122799500Y-70618728D01*
X122779815Y-70685767D01*
X122727011Y-70731522D01*
X122657853Y-70741466D01*
X122645826Y-70739125D01*
X122485057Y-70699500D01*
X122485056Y-70699500D01*
X122314944Y-70699500D01*
X122149773Y-70740210D01*
X121999150Y-70819263D01*
X121871816Y-70932072D01*
X121775182Y-71072068D01*
X121714860Y-71231125D01*
X121714859Y-71231130D01*
X121694355Y-71400000D01*
X121714859Y-71568869D01*
X121714860Y-71568874D01*
X121775182Y-71727931D01*
X121837475Y-71818177D01*
X121871817Y-71867929D01*
X121977505Y-71961560D01*
X121999150Y-71980736D01*
X122149773Y-72059789D01*
X122149775Y-72059790D01*
X122314944Y-72100500D01*
X122485056Y-72100500D01*
X122650225Y-72059790D01*
X122729692Y-72018081D01*
X122800849Y-71980736D01*
X122800850Y-71980734D01*
X122800852Y-71980734D01*
X122928183Y-71867929D01*
X123024818Y-71727930D01*
X123075225Y-71595015D01*
X123117401Y-71539314D01*
X123182998Y-71515256D01*
X123251189Y-71530482D01*
X123278847Y-71551306D01*
X138788181Y-87060640D01*
X138821666Y-87121963D01*
X138824500Y-87148321D01*
X138824500Y-107341884D01*
X138804815Y-107408923D01*
X138752011Y-107454678D01*
X138682853Y-107464622D01*
X138619297Y-107435597D01*
X138618273Y-107434700D01*
X138615307Y-107432072D01*
X138600852Y-107419266D01*
X138600850Y-107419265D01*
X138600849Y-107419264D01*
X138450226Y-107340210D01*
X138285056Y-107299500D01*
X138114944Y-107299500D01*
X137949773Y-107340210D01*
X137799150Y-107419263D01*
X137671816Y-107532072D01*
X137575182Y-107672068D01*
X137514860Y-107831125D01*
X137514859Y-107831130D01*
X137494355Y-108000000D01*
X137514859Y-108168869D01*
X137514860Y-108168874D01*
X137575182Y-108327931D01*
X137603870Y-108369492D01*
X137671817Y-108467929D01*
X137758543Y-108544761D01*
X137799150Y-108580736D01*
X137949773Y-108659789D01*
X137949775Y-108659790D01*
X138114944Y-108700500D01*
X138285056Y-108700500D01*
X138450225Y-108659790D01*
X138529692Y-108618081D01*
X138600849Y-108580736D01*
X138600850Y-108580734D01*
X138600852Y-108580734D01*
X138618273Y-108565299D01*
X138681504Y-108535579D01*
X138750767Y-108544761D01*
X138804071Y-108589932D01*
X138824492Y-108656751D01*
X138824500Y-108658115D01*
X138824500Y-109219341D01*
X138804815Y-109286380D01*
X138752011Y-109332135D01*
X138682853Y-109342079D01*
X138670826Y-109339738D01*
X138507560Y-109299498D01*
X138507559Y-109299498D01*
X138337447Y-109299498D01*
X138172276Y-109340208D01*
X138021653Y-109419261D01*
X137894319Y-109532070D01*
X137797685Y-109672066D01*
X137737363Y-109831123D01*
X137737362Y-109831128D01*
X137716858Y-109999998D01*
X137737362Y-110168867D01*
X137737363Y-110168872D01*
X137797685Y-110327929D01*
X137836399Y-110384015D01*
X137894320Y-110467927D01*
X137975909Y-110540208D01*
X138021653Y-110580734D01*
X138172276Y-110659787D01*
X138172278Y-110659788D01*
X138337447Y-110700498D01*
X138505249Y-110700498D01*
X138572288Y-110720183D01*
X138592930Y-110736817D01*
X138897684Y-111041571D01*
X138897694Y-111041582D01*
X138902024Y-111045912D01*
X138902025Y-111045913D01*
X138976592Y-111120480D01*
X139063905Y-111170890D01*
X139067918Y-111173207D01*
X139169778Y-111200501D01*
X139169780Y-111200501D01*
X139282828Y-111200501D01*
X139282844Y-111200500D01*
X143178612Y-111200500D01*
X143245651Y-111220185D01*
X143291406Y-111272989D01*
X143301707Y-111339445D01*
X143297576Y-111373475D01*
X143294355Y-111400000D01*
X143314859Y-111568869D01*
X143314860Y-111568874D01*
X143375182Y-111727931D01*
X143411629Y-111780732D01*
X143471817Y-111867929D01*
X143549972Y-111937168D01*
X143599150Y-111980736D01*
X143749773Y-112059789D01*
X143749775Y-112059790D01*
X143914944Y-112100500D01*
X144085056Y-112100500D01*
X144250225Y-112059790D01*
X144329692Y-112018081D01*
X144400849Y-111980736D01*
X144400850Y-111980734D01*
X144400852Y-111980734D01*
X144528183Y-111867929D01*
X144624818Y-111727930D01*
X144685140Y-111568872D01*
X144705645Y-111400000D01*
X144698292Y-111339445D01*
X144709752Y-111270524D01*
X144756656Y-111218737D01*
X144821388Y-111200500D01*
X145960605Y-111200500D01*
X146027644Y-111220185D01*
X146073399Y-111272989D01*
X146083343Y-111342147D01*
X146076547Y-111368471D01*
X146075182Y-111372069D01*
X146075182Y-111372070D01*
X146064590Y-111400000D01*
X146014861Y-111531125D01*
X146014859Y-111531130D01*
X145994355Y-111700000D01*
X146014859Y-111868869D01*
X146014860Y-111868874D01*
X146075182Y-112027931D01*
X146103712Y-112069263D01*
X146171817Y-112167929D01*
X146239546Y-112227931D01*
X146299150Y-112280736D01*
X146449773Y-112359789D01*
X146449775Y-112359790D01*
X146614944Y-112400500D01*
X146785056Y-112400500D01*
X146950225Y-112359790D01*
X147029692Y-112318081D01*
X147100849Y-112280736D01*
X147100850Y-112280734D01*
X147100852Y-112280734D01*
X147228183Y-112167929D01*
X147324818Y-112027930D01*
X147385140Y-111868872D01*
X147405645Y-111700000D01*
X147385140Y-111531128D01*
X147324818Y-111372070D01*
X147324817Y-111372069D01*
X147323453Y-111368471D01*
X147318086Y-111298807D01*
X147351234Y-111237301D01*
X147412372Y-111203480D01*
X147439395Y-111200500D01*
X148534216Y-111200500D01*
X148601255Y-111220185D01*
X148621897Y-111236819D01*
X148689573Y-111304495D01*
X148755322Y-111342455D01*
X148780899Y-111357222D01*
X148882760Y-111384516D01*
X148882763Y-111384516D01*
X148995809Y-111384516D01*
X148995825Y-111384515D01*
X151468497Y-111384515D01*
X151535536Y-111404200D01*
X151581291Y-111457004D01*
X151591235Y-111526162D01*
X151578296Y-111566135D01*
X151575184Y-111572063D01*
X151514860Y-111731125D01*
X151514859Y-111731130D01*
X151494355Y-111900000D01*
X151514859Y-112068869D01*
X151514860Y-112068874D01*
X151575182Y-112227931D01*
X151637475Y-112318177D01*
X151671817Y-112367929D01*
X151799148Y-112480734D01*
X151799150Y-112480735D01*
X151801350Y-112482684D01*
X151838477Y-112541874D01*
X151837709Y-112611739D01*
X151799292Y-112670099D01*
X151735421Y-112698424D01*
X151719123Y-112699500D01*
X142239806Y-112699500D01*
X142172767Y-112679815D01*
X142137756Y-112645940D01*
X142128183Y-112632071D01*
X142000849Y-112519263D01*
X141850226Y-112440210D01*
X141685056Y-112399500D01*
X141514944Y-112399500D01*
X141349773Y-112440210D01*
X141199150Y-112519263D01*
X141071816Y-112632072D01*
X140975182Y-112772068D01*
X140914860Y-112931125D01*
X140914859Y-112931130D01*
X140894355Y-113100000D01*
X140914859Y-113268869D01*
X140914860Y-113268874D01*
X140975182Y-113427931D01*
X141032447Y-113510892D01*
X141071817Y-113567929D01*
X141153406Y-113640210D01*
X141199150Y-113680736D01*
X141307389Y-113737544D01*
X141349775Y-113759790D01*
X141514944Y-113800500D01*
X141685056Y-113800500D01*
X141850225Y-113759790D01*
X141953278Y-113705703D01*
X142000849Y-113680736D01*
X142000850Y-113680734D01*
X142000852Y-113680734D01*
X142128183Y-113567929D01*
X142137756Y-113554059D01*
X142192039Y-113510070D01*
X142239806Y-113500500D01*
X145677165Y-113500500D01*
X145744204Y-113520185D01*
X145789959Y-113572989D01*
X145799903Y-113642147D01*
X145793107Y-113668471D01*
X145791742Y-113672069D01*
X145791742Y-113672070D01*
X145786568Y-113685712D01*
X145731421Y-113831125D01*
X145731419Y-113831130D01*
X145710915Y-114000000D01*
X145731419Y-114168869D01*
X145731420Y-114168874D01*
X145791742Y-114327931D01*
X145842447Y-114401388D01*
X145888377Y-114467929D01*
X145956106Y-114527931D01*
X146015710Y-114580736D01*
X146166333Y-114659789D01*
X146166335Y-114659790D01*
X146245030Y-114679186D01*
X146248749Y-114680103D01*
X146309129Y-114715259D01*
X146340918Y-114777478D01*
X146334022Y-114847007D01*
X146290631Y-114901770D01*
X146224521Y-114924380D01*
X146219074Y-114924500D01*
X139296228Y-114924500D01*
X139171026Y-114924500D01*
X139090402Y-114946103D01*
X139050090Y-114956905D01*
X138941664Y-115019504D01*
X138941661Y-115019506D01*
X137097121Y-116864047D01*
X137035798Y-116897532D01*
X137009440Y-116900366D01*
X136979900Y-116900366D01*
X136912861Y-116880681D01*
X136867106Y-116827877D01*
X136857162Y-116758719D01*
X136886187Y-116695163D01*
X136897673Y-116683551D01*
X136957943Y-116630155D01*
X137028183Y-116567929D01*
X137124818Y-116427930D01*
X137185140Y-116268872D01*
X137205645Y-116100000D01*
X137185140Y-115931128D01*
X137180732Y-115919506D01*
X137124817Y-115772068D01*
X137068306Y-115690199D01*
X137028183Y-115632071D01*
X136933316Y-115548026D01*
X136900849Y-115519263D01*
X136750226Y-115440210D01*
X136585056Y-115399500D01*
X136414944Y-115399500D01*
X136249773Y-115440210D01*
X136099150Y-115519264D01*
X136030286Y-115580272D01*
X135967052Y-115609993D01*
X135897789Y-115600809D01*
X135846010Y-115557897D01*
X135828184Y-115532072D01*
X135700849Y-115419263D01*
X135550226Y-115340210D01*
X135385056Y-115299500D01*
X135214944Y-115299500D01*
X135049773Y-115340210D01*
X134899150Y-115419263D01*
X134771816Y-115532072D01*
X134675182Y-115672068D01*
X134614860Y-115831125D01*
X134614859Y-115831130D01*
X134594355Y-116000000D01*
X134614859Y-116168869D01*
X134614860Y-116168874D01*
X134675182Y-116327931D01*
X134731693Y-116409800D01*
X134771817Y-116467929D01*
X134855540Y-116542101D01*
X134899150Y-116580736D01*
X134996961Y-116632071D01*
X135049775Y-116659790D01*
X135214944Y-116700500D01*
X135385056Y-116700500D01*
X135550225Y-116659790D01*
X135700852Y-116580734D01*
X135769715Y-116519726D01*
X135832945Y-116490007D01*
X135902209Y-116499189D01*
X135953989Y-116542101D01*
X135971817Y-116567929D01*
X136099148Y-116680734D01*
X136099149Y-116680734D01*
X136104762Y-116685707D01*
X136103710Y-116686893D01*
X136142166Y-116734341D01*
X136149829Y-116803789D01*
X136118729Y-116866356D01*
X136059833Y-116901888D01*
X135944586Y-116932769D01*
X135944581Y-116932771D01*
X135836155Y-116995370D01*
X135836152Y-116995372D01*
X135164360Y-117667165D01*
X135103037Y-117700650D01*
X135076679Y-117703484D01*
X132699602Y-117703484D01*
X132574400Y-117703484D01*
X132493776Y-117725087D01*
X132453464Y-117735889D01*
X132345038Y-117798488D01*
X132345035Y-117798490D01*
X130707398Y-119436126D01*
X130681719Y-119455831D01*
X130658033Y-119469506D01*
X130069695Y-120057846D01*
X129981165Y-120146375D01*
X129981161Y-120146380D01*
X129926275Y-120241447D01*
X129875708Y-120289663D01*
X129807101Y-120302886D01*
X129789218Y-120299844D01*
X129721715Y-120283207D01*
X129551603Y-120283207D01*
X129386432Y-120323917D01*
X129235809Y-120402970D01*
X129108475Y-120515779D01*
X129011841Y-120655775D01*
X128951519Y-120814832D01*
X128951518Y-120814837D01*
X128931014Y-120983707D01*
X128951518Y-121152576D01*
X128951519Y-121152581D01*
X129011841Y-121311638D01*
X129025296Y-121331130D01*
X129108476Y-121451636D01*
X129228920Y-121558340D01*
X129266047Y-121617529D01*
X129265279Y-121687394D01*
X129234374Y-121738836D01*
X128940926Y-122032285D01*
X128879606Y-122065769D01*
X128853247Y-122068603D01*
X125118498Y-122068603D01*
X124993296Y-122068603D01*
X124931196Y-122085243D01*
X124872360Y-122101008D01*
X124763934Y-122163607D01*
X124763931Y-122163609D01*
X124314360Y-122613181D01*
X124253037Y-122646666D01*
X124226679Y-122649500D01*
X123515317Y-122649500D01*
X123448278Y-122629815D01*
X123402523Y-122577011D01*
X123392221Y-122510553D01*
X123396230Y-122477537D01*
X123405645Y-122400000D01*
X123385140Y-122231128D01*
X123384262Y-122228814D01*
X123352528Y-122145136D01*
X123324818Y-122072070D01*
X123321958Y-122067927D01*
X123283229Y-122011819D01*
X123228183Y-121932071D01*
X123100852Y-121819266D01*
X123100849Y-121819263D01*
X122950226Y-121740210D01*
X122785056Y-121699500D01*
X122614944Y-121699500D01*
X122449773Y-121740210D01*
X122299150Y-121819263D01*
X122185749Y-121919728D01*
X122178466Y-121926181D01*
X122171816Y-121932072D01*
X122075182Y-122072068D01*
X122014860Y-122231125D01*
X122014859Y-122231130D01*
X122001615Y-122340210D01*
X121994355Y-122400000D01*
X122003769Y-122477533D01*
X122007779Y-122510553D01*
X121996319Y-122579477D01*
X121949415Y-122631263D01*
X121884683Y-122649500D01*
X120462601Y-122649500D01*
X120337399Y-122649500D01*
X120256775Y-122671103D01*
X120216463Y-122681905D01*
X120108037Y-122744504D01*
X120108034Y-122744506D01*
X119598220Y-123254319D01*
X119536897Y-123287804D01*
X119492457Y-123288203D01*
X119492394Y-123288850D01*
X119486381Y-123288257D01*
X119486361Y-123288258D01*
X119486339Y-123288253D01*
X119300000Y-123269901D01*
X119113668Y-123288252D01*
X119113666Y-123288253D01*
X118934497Y-123342604D01*
X118769376Y-123430862D01*
X118769373Y-123430864D01*
X118624642Y-123549642D01*
X118505864Y-123694373D01*
X118505862Y-123694376D01*
X118417604Y-123859497D01*
X118363253Y-124038666D01*
X118363252Y-124038668D01*
X118344901Y-124225000D01*
X117715099Y-124225000D01*
X117696747Y-124038669D01*
X117642396Y-123859499D01*
X117612818Y-123804162D01*
X117554137Y-123694376D01*
X117554134Y-123694373D01*
X117528047Y-123662586D01*
X117500733Y-123598277D01*
X117512523Y-123529409D01*
X117536215Y-123496242D01*
X119020640Y-122011819D01*
X119081963Y-121978334D01*
X119108321Y-121975500D01*
X120762599Y-121975500D01*
X120762601Y-121975500D01*
X120883536Y-121943095D01*
X120991964Y-121880495D01*
X122772459Y-120100000D01*
X126694355Y-120100000D01*
X126714859Y-120268869D01*
X126714860Y-120268874D01*
X126775182Y-120427931D01*
X126835820Y-120515779D01*
X126871817Y-120567929D01*
X126970975Y-120655775D01*
X126999150Y-120680736D01*
X127149773Y-120759789D01*
X127149775Y-120759790D01*
X127314944Y-120800500D01*
X127485056Y-120800500D01*
X127650225Y-120759790D01*
X127745975Y-120709536D01*
X127800849Y-120680736D01*
X127800850Y-120680734D01*
X127800852Y-120680734D01*
X127928183Y-120567929D01*
X128024818Y-120427930D01*
X128085140Y-120268872D01*
X128105645Y-120100000D01*
X128085140Y-119931128D01*
X128080641Y-119919266D01*
X128024817Y-119772068D01*
X127957977Y-119675235D01*
X127928183Y-119632071D01*
X127833316Y-119548026D01*
X127800849Y-119519263D01*
X127650226Y-119440210D01*
X127485056Y-119399500D01*
X127314944Y-119399500D01*
X127149773Y-119440210D01*
X126999150Y-119519263D01*
X126871816Y-119632072D01*
X126775182Y-119772068D01*
X126714860Y-119931125D01*
X126714859Y-119931130D01*
X126694355Y-120100000D01*
X122772459Y-120100000D01*
X124680495Y-118191964D01*
X124743095Y-118083536D01*
X124775500Y-117962601D01*
X124775500Y-117837399D01*
X124775500Y-115300000D01*
X127994355Y-115300000D01*
X128014859Y-115468869D01*
X128014860Y-115468874D01*
X128075182Y-115627931D01*
X128113093Y-115682853D01*
X128171817Y-115767929D01*
X128272251Y-115856905D01*
X128299150Y-115880736D01*
X128427290Y-115947989D01*
X128449775Y-115959790D01*
X128614944Y-116000500D01*
X128785056Y-116000500D01*
X128950225Y-115959790D01*
X129064144Y-115900000D01*
X129100849Y-115880736D01*
X129100850Y-115880734D01*
X129100852Y-115880734D01*
X129228183Y-115767929D01*
X129324818Y-115627930D01*
X129385140Y-115468872D01*
X129405645Y-115300000D01*
X129397844Y-115235758D01*
X129409304Y-115166837D01*
X129433257Y-115133134D01*
X129489576Y-115076816D01*
X129550899Y-115043332D01*
X129577256Y-115040498D01*
X132301254Y-115040498D01*
X132301256Y-115040498D01*
X132403117Y-115013205D01*
X132494442Y-114960478D01*
X133420480Y-114034440D01*
X133473207Y-113943115D01*
X133500500Y-113841254D01*
X133500500Y-113735800D01*
X133500500Y-112636853D01*
X133520185Y-112569814D01*
X133542268Y-112544042D01*
X133628183Y-112467929D01*
X133724818Y-112327930D01*
X133785140Y-112168872D01*
X133805645Y-112000000D01*
X135394355Y-112000000D01*
X135414859Y-112168869D01*
X135414860Y-112168874D01*
X135475182Y-112327931D01*
X135475185Y-112327936D01*
X135510819Y-112379561D01*
X135532702Y-112445915D01*
X135515236Y-112513567D01*
X135510819Y-112520439D01*
X135475185Y-112572063D01*
X135475182Y-112572068D01*
X135414860Y-112731125D01*
X135414859Y-112731130D01*
X135394355Y-112900000D01*
X135414859Y-113068869D01*
X135414860Y-113068874D01*
X135475182Y-113227931D01*
X135531686Y-113309789D01*
X135571817Y-113367929D01*
X135653406Y-113440210D01*
X135699150Y-113480736D01*
X135841971Y-113555694D01*
X135849775Y-113559790D01*
X136014944Y-113600500D01*
X136060605Y-113600500D01*
X136127644Y-113620185D01*
X136173399Y-113672989D01*
X136183343Y-113742147D01*
X136176547Y-113768471D01*
X136175183Y-113772068D01*
X136175182Y-113772070D01*
X136167272Y-113792927D01*
X136114861Y-113931125D01*
X136114859Y-113931130D01*
X136094355Y-114100000D01*
X136114859Y-114268869D01*
X136114860Y-114268874D01*
X136175182Y-114427931D01*
X136236590Y-114516894D01*
X136271817Y-114567929D01*
X136339546Y-114627931D01*
X136399150Y-114680736D01*
X136549773Y-114759789D01*
X136549775Y-114759790D01*
X136714944Y-114800500D01*
X136885056Y-114800500D01*
X137050225Y-114759790D01*
X137154766Y-114704922D01*
X137200849Y-114680736D01*
X137200850Y-114680734D01*
X137200852Y-114680734D01*
X137328183Y-114567929D01*
X137424818Y-114427930D01*
X137485140Y-114268872D01*
X137505645Y-114100000D01*
X137485140Y-113931128D01*
X137478959Y-113914831D01*
X137438029Y-113806905D01*
X137424818Y-113772070D01*
X137399782Y-113735800D01*
X137377377Y-113703340D01*
X137328183Y-113632071D01*
X137229061Y-113544257D01*
X137200849Y-113519263D01*
X137050226Y-113440210D01*
X136885056Y-113399500D01*
X136839395Y-113399500D01*
X136772356Y-113379815D01*
X136726601Y-113327011D01*
X136716657Y-113257853D01*
X136723453Y-113231529D01*
X136735410Y-113200000D01*
X136785140Y-113068872D01*
X136805645Y-112900000D01*
X136785140Y-112731128D01*
X136724818Y-112572070D01*
X136724816Y-112572068D01*
X136724816Y-112572066D01*
X136724815Y-112572065D01*
X136689181Y-112520441D01*
X136667297Y-112454087D01*
X136684762Y-112386435D01*
X136689181Y-112379559D01*
X136724815Y-112327934D01*
X136724816Y-112327933D01*
X136724817Y-112327931D01*
X136724818Y-112327930D01*
X136785140Y-112168872D01*
X136805645Y-112000000D01*
X136785140Y-111831128D01*
X136724818Y-111672070D01*
X136721958Y-111667927D01*
X136660134Y-111578360D01*
X136628183Y-111532071D01*
X136500852Y-111419266D01*
X136500849Y-111419263D01*
X136350226Y-111340210D01*
X136185056Y-111299500D01*
X136014944Y-111299500D01*
X135849773Y-111340210D01*
X135699150Y-111419263D01*
X135607453Y-111500500D01*
X135572882Y-111531128D01*
X135571816Y-111532072D01*
X135475182Y-111672068D01*
X135414860Y-111831125D01*
X135414859Y-111831130D01*
X135394355Y-112000000D01*
X133805645Y-112000000D01*
X133785140Y-111831128D01*
X133724818Y-111672070D01*
X133721958Y-111667927D01*
X133660134Y-111578360D01*
X133628183Y-111532071D01*
X133500852Y-111419266D01*
X133500849Y-111419263D01*
X133350226Y-111340210D01*
X133185056Y-111299500D01*
X133014944Y-111299500D01*
X132849773Y-111340210D01*
X132699150Y-111419263D01*
X132571814Y-111532073D01*
X132557191Y-111553258D01*
X132502907Y-111597247D01*
X132433458Y-111604904D01*
X132425469Y-111603212D01*
X132309843Y-111574714D01*
X132309842Y-111574714D01*
X132139730Y-111574714D01*
X132139726Y-111574714D01*
X132112478Y-111581430D01*
X132042676Y-111578360D01*
X131985614Y-111538039D01*
X131959410Y-111473270D01*
X131966863Y-111417062D01*
X131979207Y-111384515D01*
X131985140Y-111368870D01*
X132005645Y-111199998D01*
X131985140Y-111031126D01*
X131924818Y-110872068D01*
X131917721Y-110861787D01*
X131831460Y-110736817D01*
X131828183Y-110732069D01*
X131733316Y-110648024D01*
X131700849Y-110619261D01*
X131550226Y-110540208D01*
X131385056Y-110499498D01*
X131214944Y-110499498D01*
X131049773Y-110540208D01*
X130899150Y-110619261D01*
X130771816Y-110732070D01*
X130675182Y-110872066D01*
X130614860Y-111031123D01*
X130614859Y-111031128D01*
X130594355Y-111199998D01*
X130614859Y-111368867D01*
X130614860Y-111368872D01*
X130675182Y-111527929D01*
X130703445Y-111568874D01*
X130771817Y-111667927D01*
X130843159Y-111731130D01*
X130899150Y-111780734D01*
X130995172Y-111831130D01*
X131049775Y-111859788D01*
X131214944Y-111900498D01*
X131385057Y-111900498D01*
X131385057Y-111900497D01*
X131412304Y-111893782D01*
X131482105Y-111896849D01*
X131539168Y-111937168D01*
X131565374Y-112001937D01*
X131557923Y-112058147D01*
X131539646Y-112106340D01*
X131539645Y-112106344D01*
X131519141Y-112275214D01*
X131539645Y-112444083D01*
X131539646Y-112444088D01*
X131599968Y-112603145D01*
X131662261Y-112693391D01*
X131696603Y-112743143D01*
X131782084Y-112818872D01*
X131823936Y-112855950D01*
X131954117Y-112924274D01*
X131974561Y-112935004D01*
X132139730Y-112975714D01*
X132309842Y-112975714D01*
X132475011Y-112935004D01*
X132496329Y-112923815D01*
X132517874Y-112912508D01*
X132586382Y-112898782D01*
X132651435Y-112924274D01*
X132692380Y-112980890D01*
X132699500Y-113022304D01*
X132699500Y-113448326D01*
X132679815Y-113515365D01*
X132627011Y-113561120D01*
X132557853Y-113571064D01*
X132494297Y-113542039D01*
X132493317Y-113541181D01*
X132425087Y-113480734D01*
X132400849Y-113459261D01*
X132250226Y-113380208D01*
X132085056Y-113339498D01*
X131914944Y-113339498D01*
X131749773Y-113380208D01*
X131599150Y-113459261D01*
X131492145Y-113554060D01*
X131472952Y-113571064D01*
X131471816Y-113572070D01*
X131375182Y-113712066D01*
X131314860Y-113871123D01*
X131314859Y-113871128D01*
X131294355Y-114039997D01*
X131294355Y-114039998D01*
X131295569Y-114050000D01*
X131301708Y-114100551D01*
X131290248Y-114169474D01*
X131243344Y-114221261D01*
X131178612Y-114239498D01*
X129307275Y-114239498D01*
X129205414Y-114266791D01*
X129205411Y-114266792D01*
X129159752Y-114293153D01*
X129159752Y-114293154D01*
X129147895Y-114300000D01*
X129114089Y-114319518D01*
X129114086Y-114319520D01*
X128870426Y-114563181D01*
X128809103Y-114596666D01*
X128782745Y-114599500D01*
X128614944Y-114599500D01*
X128449773Y-114640210D01*
X128299150Y-114719263D01*
X128171816Y-114832072D01*
X128075182Y-114972068D01*
X128014860Y-115131125D01*
X128014859Y-115131130D01*
X127994355Y-115300000D01*
X124775500Y-115300000D01*
X124775500Y-114837399D01*
X124743095Y-114716464D01*
X124680495Y-114608036D01*
X124591964Y-114519505D01*
X124011819Y-113939360D01*
X123978334Y-113878037D01*
X123975500Y-113851679D01*
X123975500Y-113325000D01*
X124740023Y-113325000D01*
X124760527Y-113493869D01*
X124760528Y-113493874D01*
X124820850Y-113652931D01*
X124857277Y-113705703D01*
X124917485Y-113792929D01*
X125023173Y-113886560D01*
X125044818Y-113905736D01*
X125171207Y-113972070D01*
X125195443Y-113984790D01*
X125360612Y-114025500D01*
X125530724Y-114025500D01*
X125695893Y-113984790D01*
X125786081Y-113937455D01*
X125846517Y-113905736D01*
X125846518Y-113905734D01*
X125846520Y-113905734D01*
X125973851Y-113792929D01*
X126070486Y-113652930D01*
X126130808Y-113493872D01*
X126151313Y-113325000D01*
X126130808Y-113156128D01*
X126070486Y-112997070D01*
X125973851Y-112857071D01*
X125846520Y-112744266D01*
X125846517Y-112744263D01*
X125695894Y-112665210D01*
X125530724Y-112624500D01*
X125360612Y-112624500D01*
X125195441Y-112665210D01*
X125044818Y-112744263D01*
X124917484Y-112857072D01*
X124820850Y-112997068D01*
X124760528Y-113156125D01*
X124760527Y-113156130D01*
X124740023Y-113325000D01*
X123975500Y-113325000D01*
X123975500Y-110948321D01*
X123995185Y-110881282D01*
X124011819Y-110860640D01*
X124156777Y-110715682D01*
X124985595Y-110715682D01*
X124985595Y-110715689D01*
X125003898Y-110878141D01*
X125057896Y-111032460D01*
X125066349Y-111045913D01*
X125144878Y-111170890D01*
X125260482Y-111286494D01*
X125398911Y-111373475D01*
X125553225Y-111427472D01*
X125553228Y-111427472D01*
X125553230Y-111427473D01*
X125715682Y-111445777D01*
X125715686Y-111445777D01*
X125715690Y-111445777D01*
X125878141Y-111427473D01*
X125878142Y-111427472D01*
X125878147Y-111427472D01*
X126032461Y-111373475D01*
X126170890Y-111286494D01*
X126286494Y-111170890D01*
X126373475Y-111032461D01*
X126427472Y-110878147D01*
X126428157Y-110872066D01*
X126445777Y-110715689D01*
X126445777Y-110715682D01*
X126427473Y-110553230D01*
X126427472Y-110553228D01*
X126427472Y-110553225D01*
X126373475Y-110398911D01*
X126286494Y-110260482D01*
X126170890Y-110144878D01*
X126088211Y-110092927D01*
X126032460Y-110057896D01*
X125878141Y-110003898D01*
X125715690Y-109985595D01*
X125715682Y-109985595D01*
X125553230Y-110003898D01*
X125398911Y-110057896D01*
X125260481Y-110144878D01*
X125144878Y-110260481D01*
X125057896Y-110398911D01*
X125003898Y-110553230D01*
X124985595Y-110715682D01*
X124156777Y-110715682D01*
X124267255Y-110605204D01*
X124555495Y-110316964D01*
X124618095Y-110208536D01*
X124650500Y-110087601D01*
X124650500Y-109962399D01*
X124650500Y-107121178D01*
X124670185Y-107054139D01*
X124722989Y-107008384D01*
X124729707Y-107005551D01*
X124744036Y-107000000D01*
X132794355Y-107000000D01*
X132814859Y-107168869D01*
X132814860Y-107168874D01*
X132875182Y-107327931D01*
X132922832Y-107396963D01*
X132971817Y-107467929D01*
X133044219Y-107532071D01*
X133099150Y-107580736D01*
X133249773Y-107659789D01*
X133249775Y-107659790D01*
X133414944Y-107700500D01*
X133585056Y-107700500D01*
X133750225Y-107659790D01*
X133829692Y-107618081D01*
X133900849Y-107580736D01*
X133900850Y-107580734D01*
X133900852Y-107580734D01*
X133907326Y-107574999D01*
X134589513Y-107574999D01*
X134610017Y-107743868D01*
X134610018Y-107743873D01*
X134670340Y-107902930D01*
X134731476Y-107991499D01*
X134766975Y-108042928D01*
X134809652Y-108080736D01*
X134894308Y-108155735D01*
X135044931Y-108234788D01*
X135044933Y-108234789D01*
X135210102Y-108275499D01*
X135380214Y-108275499D01*
X135545383Y-108234789D01*
X135624850Y-108193080D01*
X135696007Y-108155735D01*
X135696008Y-108155733D01*
X135696010Y-108155733D01*
X135823341Y-108042928D01*
X135919976Y-107902929D01*
X135980298Y-107743871D01*
X136000803Y-107574999D01*
X135980298Y-107406127D01*
X135919976Y-107247069D01*
X135823341Y-107107070D01*
X135711947Y-107008384D01*
X135696007Y-106994262D01*
X135545384Y-106915209D01*
X135380214Y-106874499D01*
X135210102Y-106874499D01*
X135044931Y-106915209D01*
X134894308Y-106994262D01*
X134766974Y-107107071D01*
X134670340Y-107247067D01*
X134610018Y-107406124D01*
X134610017Y-107406129D01*
X134589513Y-107574999D01*
X133907326Y-107574999D01*
X134028183Y-107467929D01*
X134124818Y-107327930D01*
X134185140Y-107168872D01*
X134205645Y-107000000D01*
X134185140Y-106831128D01*
X134124818Y-106672070D01*
X134102826Y-106640210D01*
X134058061Y-106575357D01*
X134028183Y-106532071D01*
X133913674Y-106430625D01*
X133900849Y-106419263D01*
X133750226Y-106340210D01*
X133585056Y-106299500D01*
X133414944Y-106299500D01*
X133249773Y-106340210D01*
X133099150Y-106419263D01*
X132999001Y-106507988D01*
X132978878Y-106525816D01*
X132971816Y-106532072D01*
X132875182Y-106672068D01*
X132814860Y-106831125D01*
X132814859Y-106831130D01*
X132794355Y-107000000D01*
X124744036Y-107000000D01*
X124914791Y-106933849D01*
X124914798Y-106933846D01*
X125017006Y-106870560D01*
X125017006Y-106870559D01*
X124446447Y-106300000D01*
X124452661Y-106300000D01*
X124554394Y-106272741D01*
X124645606Y-106220080D01*
X124720080Y-106145606D01*
X124772741Y-106054394D01*
X124800000Y-105952661D01*
X124800000Y-105946447D01*
X125373162Y-106519609D01*
X125373163Y-106519609D01*
X125381940Y-106507988D01*
X125381942Y-106507985D01*
X125476933Y-106317216D01*
X125476941Y-106317196D01*
X125535261Y-106112219D01*
X125535262Y-106112216D01*
X125554927Y-105900000D01*
X125554927Y-105899999D01*
X125535262Y-105687783D01*
X125535261Y-105687780D01*
X125476941Y-105482803D01*
X125476933Y-105482783D01*
X125381942Y-105292014D01*
X125381937Y-105292006D01*
X125373163Y-105280389D01*
X124800000Y-105853552D01*
X124800000Y-105847339D01*
X124772741Y-105745606D01*
X124720080Y-105654394D01*
X124645606Y-105579920D01*
X124554394Y-105527259D01*
X124452661Y-105500000D01*
X124446447Y-105500000D01*
X125017007Y-104929439D01*
X124914793Y-104866151D01*
X124914789Y-104866149D01*
X124716063Y-104789163D01*
X124716058Y-104789162D01*
X124506561Y-104750000D01*
X124293439Y-104750000D01*
X124083941Y-104789162D01*
X124083936Y-104789163D01*
X123944293Y-104843261D01*
X123874670Y-104849123D01*
X123812930Y-104816413D01*
X123778675Y-104755516D01*
X123775500Y-104727634D01*
X123775500Y-104400000D01*
X132894355Y-104400000D01*
X132914859Y-104568869D01*
X132914860Y-104568874D01*
X132975182Y-104727931D01*
X133036258Y-104816413D01*
X133071817Y-104867929D01*
X133145411Y-104933127D01*
X133199150Y-104980736D01*
X133349773Y-105059789D01*
X133349775Y-105059790D01*
X133514944Y-105100500D01*
X133685056Y-105100500D01*
X133850225Y-105059790D01*
X133930603Y-105017604D01*
X134000849Y-104980736D01*
X134000850Y-104980734D01*
X134000852Y-104980734D01*
X134128183Y-104867929D01*
X134224818Y-104727930D01*
X134285140Y-104568872D01*
X134292343Y-104509553D01*
X134319965Y-104445375D01*
X134377900Y-104406319D01*
X134415439Y-104400500D01*
X134585056Y-104400500D01*
X134750225Y-104359790D01*
X134863681Y-104300243D01*
X134900849Y-104280736D01*
X134900850Y-104280734D01*
X134900852Y-104280734D01*
X135028183Y-104167929D01*
X135124818Y-104027930D01*
X135185140Y-103868872D01*
X135205645Y-103700000D01*
X135185140Y-103531128D01*
X135173524Y-103500500D01*
X135142716Y-103419263D01*
X135124818Y-103372070D01*
X135102826Y-103340210D01*
X135052934Y-103267929D01*
X135028183Y-103232071D01*
X134914244Y-103131130D01*
X134900849Y-103119263D01*
X134750226Y-103040210D01*
X134585056Y-102999500D01*
X134414944Y-102999500D01*
X134249773Y-103040210D01*
X134099150Y-103119263D01*
X133971816Y-103232072D01*
X133875182Y-103372068D01*
X133814860Y-103531125D01*
X133814859Y-103531131D01*
X133807657Y-103590447D01*
X133780035Y-103654625D01*
X133722100Y-103693681D01*
X133684561Y-103699500D01*
X133514944Y-103699500D01*
X133349773Y-103740210D01*
X133199150Y-103819263D01*
X133071816Y-103932072D01*
X132975182Y-104072068D01*
X132914860Y-104231125D01*
X132914859Y-104231130D01*
X132894355Y-104400000D01*
X123775500Y-104400000D01*
X123775500Y-102800000D01*
X124094355Y-102800000D01*
X124114859Y-102968869D01*
X124114860Y-102968874D01*
X124175182Y-103127931D01*
X124221023Y-103194342D01*
X124271817Y-103267929D01*
X124353406Y-103340210D01*
X124399150Y-103380736D01*
X124549773Y-103459789D01*
X124549775Y-103459790D01*
X124714944Y-103500500D01*
X124885056Y-103500500D01*
X125050225Y-103459790D01*
X125129692Y-103418081D01*
X125200849Y-103380736D01*
X125200850Y-103380734D01*
X125200852Y-103380734D01*
X125328183Y-103267929D01*
X125424818Y-103127930D01*
X125485140Y-102968872D01*
X125505645Y-102800000D01*
X130494355Y-102800000D01*
X130514859Y-102968869D01*
X130514860Y-102968874D01*
X130575182Y-103127931D01*
X130621023Y-103194342D01*
X130671817Y-103267929D01*
X130753406Y-103340210D01*
X130799150Y-103380736D01*
X130949773Y-103459789D01*
X130949775Y-103459790D01*
X131114944Y-103500500D01*
X131285056Y-103500500D01*
X131450225Y-103459790D01*
X131529692Y-103418081D01*
X131600849Y-103380736D01*
X131600850Y-103380734D01*
X131600852Y-103380734D01*
X131728183Y-103267929D01*
X131824818Y-103127930D01*
X131885140Y-102968872D01*
X131905645Y-102800000D01*
X131885140Y-102631128D01*
X131824818Y-102472070D01*
X131728183Y-102332071D01*
X131600852Y-102219266D01*
X131600849Y-102219263D01*
X131450226Y-102140210D01*
X131285056Y-102099500D01*
X131114944Y-102099500D01*
X130949773Y-102140210D01*
X130799150Y-102219263D01*
X130671816Y-102332072D01*
X130575182Y-102472068D01*
X130514860Y-102631125D01*
X130514859Y-102631130D01*
X130494355Y-102800000D01*
X125505645Y-102800000D01*
X125485140Y-102631128D01*
X125424818Y-102472070D01*
X125328183Y-102332071D01*
X125200852Y-102219266D01*
X125200849Y-102219263D01*
X125050226Y-102140210D01*
X124885056Y-102099500D01*
X124714944Y-102099500D01*
X124549773Y-102140210D01*
X124399150Y-102219263D01*
X124271816Y-102332072D01*
X124175182Y-102472068D01*
X124114860Y-102631125D01*
X124114859Y-102631130D01*
X124094355Y-102800000D01*
X123775500Y-102800000D01*
X123775500Y-100900000D01*
X124094355Y-100900000D01*
X124114859Y-101068869D01*
X124114860Y-101068874D01*
X124175182Y-101227931D01*
X124205848Y-101272357D01*
X124271817Y-101367929D01*
X124377505Y-101461560D01*
X124399150Y-101480736D01*
X124549773Y-101559789D01*
X124549775Y-101559790D01*
X124714944Y-101600500D01*
X124885056Y-101600500D01*
X125050225Y-101559790D01*
X125129692Y-101518081D01*
X125200849Y-101480736D01*
X125200850Y-101480734D01*
X125200852Y-101480734D01*
X125328183Y-101367929D01*
X125424818Y-101227930D01*
X125485140Y-101068872D01*
X125505645Y-100900000D01*
X125485140Y-100731128D01*
X125483031Y-100725568D01*
X125438932Y-100609287D01*
X125424818Y-100572070D01*
X125395940Y-100530234D01*
X125347998Y-100460778D01*
X125328183Y-100432071D01*
X125214244Y-100331130D01*
X125200849Y-100319263D01*
X125050226Y-100240210D01*
X124885056Y-100199500D01*
X124714944Y-100199500D01*
X124549773Y-100240210D01*
X124399150Y-100319263D01*
X124271816Y-100432072D01*
X124175182Y-100572068D01*
X124114860Y-100731125D01*
X124114859Y-100731130D01*
X124094355Y-100900000D01*
X123775500Y-100900000D01*
X123775500Y-99949498D01*
X128819355Y-99949498D01*
X128839859Y-100118367D01*
X128839860Y-100118372D01*
X128900182Y-100277429D01*
X128957032Y-100359789D01*
X128996817Y-100417427D01*
X129054887Y-100468872D01*
X129124150Y-100530234D01*
X129262657Y-100602928D01*
X129274775Y-100609288D01*
X129439944Y-100649998D01*
X129610056Y-100649998D01*
X129775225Y-100609288D01*
X129854692Y-100567579D01*
X129925849Y-100530234D01*
X129925850Y-100530232D01*
X129925852Y-100530232D01*
X130053183Y-100417427D01*
X130105506Y-100341624D01*
X130159786Y-100297636D01*
X130229235Y-100289976D01*
X130265180Y-100302270D01*
X130374773Y-100359789D01*
X130374775Y-100359790D01*
X130539944Y-100400500D01*
X130710056Y-100400500D01*
X130875225Y-100359790D01*
X130989144Y-100300000D01*
X132894355Y-100300000D01*
X132914859Y-100468869D01*
X132914860Y-100468874D01*
X132975182Y-100627931D01*
X133028421Y-100705059D01*
X133071817Y-100767929D01*
X133170929Y-100855734D01*
X133199150Y-100880736D01*
X133331120Y-100949999D01*
X133349775Y-100959790D01*
X133514944Y-101000500D01*
X133685056Y-101000500D01*
X133850225Y-100959790D01*
X133965097Y-100899500D01*
X134000849Y-100880736D01*
X134000850Y-100880734D01*
X134000852Y-100880734D01*
X134128183Y-100767929D01*
X134224818Y-100627930D01*
X134285140Y-100468872D01*
X134305645Y-100300000D01*
X134285140Y-100131128D01*
X134280300Y-100118367D01*
X134224817Y-99972068D01*
X134151091Y-99865259D01*
X134128183Y-99832071D01*
X134000852Y-99719266D01*
X134000849Y-99719263D01*
X133850226Y-99640210D01*
X133685056Y-99599500D01*
X133514944Y-99599500D01*
X133349773Y-99640210D01*
X133199150Y-99719263D01*
X133100036Y-99807071D01*
X133073329Y-99830732D01*
X133071816Y-99832072D01*
X132975182Y-99972068D01*
X132914860Y-100131125D01*
X132914859Y-100131130D01*
X132894355Y-100300000D01*
X130989144Y-100300000D01*
X131025849Y-100280736D01*
X131025850Y-100280734D01*
X131025852Y-100280734D01*
X131153183Y-100167929D01*
X131249818Y-100027930D01*
X131310140Y-99868872D01*
X131330645Y-99700000D01*
X131310140Y-99531128D01*
X131249818Y-99372070D01*
X131241155Y-99359520D01*
X131192967Y-99289708D01*
X131153183Y-99232071D01*
X131025852Y-99119266D01*
X131025849Y-99119263D01*
X130875226Y-99040210D01*
X130710056Y-98999500D01*
X130539944Y-98999500D01*
X130374773Y-99040210D01*
X130224150Y-99119263D01*
X130096816Y-99232071D01*
X130044493Y-99307873D01*
X129990209Y-99351862D01*
X129920760Y-99359520D01*
X129884818Y-99347227D01*
X129775226Y-99289708D01*
X129610056Y-99248998D01*
X129439944Y-99248998D01*
X129274773Y-99289708D01*
X129124150Y-99368761D01*
X128996816Y-99481570D01*
X128900182Y-99621566D01*
X128839860Y-99780623D01*
X128839859Y-99780628D01*
X128819355Y-99949498D01*
X123775500Y-99949498D01*
X123775500Y-99648320D01*
X123795185Y-99581281D01*
X123811814Y-99560644D01*
X125306048Y-98066409D01*
X125367371Y-98032925D01*
X125393729Y-98030091D01*
X125400003Y-98030091D01*
X125562455Y-98011787D01*
X125562456Y-98011786D01*
X125562461Y-98011786D01*
X125716775Y-97957789D01*
X125855204Y-97870808D01*
X125970808Y-97755204D01*
X126057789Y-97616775D01*
X126111786Y-97462461D01*
X126111787Y-97462455D01*
X126130091Y-97300003D01*
X126130091Y-97299996D01*
X126111787Y-97137544D01*
X126111786Y-97137542D01*
X126111786Y-97137539D01*
X126057789Y-96983225D01*
X125970808Y-96844796D01*
X125855204Y-96729192D01*
X125716774Y-96642210D01*
X125562455Y-96588212D01*
X125400004Y-96569909D01*
X125399996Y-96569909D01*
X125237544Y-96588212D01*
X125083225Y-96642210D01*
X124944795Y-96729192D01*
X124829192Y-96844795D01*
X124742210Y-96983225D01*
X124688212Y-97137544D01*
X124669909Y-97299996D01*
X124669909Y-97306269D01*
X124650224Y-97373308D01*
X124633590Y-97393950D01*
X123008036Y-99019505D01*
X122919506Y-99108034D01*
X122919504Y-99108037D01*
X122856905Y-99216463D01*
X122856905Y-99216464D01*
X122824500Y-99337399D01*
X122824500Y-106237399D01*
X122824500Y-106362601D01*
X122853832Y-106472068D01*
X122856905Y-106483536D01*
X122919504Y-106591962D01*
X122919506Y-106591965D01*
X123663181Y-107335640D01*
X123696666Y-107396963D01*
X123699500Y-107423321D01*
X123699500Y-108819081D01*
X123679815Y-108886120D01*
X123627011Y-108931875D01*
X123557853Y-108941819D01*
X123545825Y-108939478D01*
X123485056Y-108924500D01*
X123314944Y-108924500D01*
X123149773Y-108965210D01*
X122999150Y-109044263D01*
X122871816Y-109157072D01*
X122775182Y-109297068D01*
X122714860Y-109456125D01*
X122714859Y-109456130D01*
X122694355Y-109625000D01*
X122714859Y-109793869D01*
X122714860Y-109793874D01*
X122775182Y-109952931D01*
X122797729Y-109985595D01*
X122871817Y-110092929D01*
X122999148Y-110205734D01*
X123066844Y-110241264D01*
X123117055Y-110289846D01*
X123133030Y-110357865D01*
X123116605Y-110413058D01*
X123056905Y-110516463D01*
X123056905Y-110516464D01*
X123024500Y-110637399D01*
X123024500Y-114037399D01*
X123024500Y-114162601D01*
X123056905Y-114283536D01*
X123098282Y-114355205D01*
X123119504Y-114391962D01*
X123119506Y-114391965D01*
X123788181Y-115060640D01*
X123821666Y-115121963D01*
X123824500Y-115148321D01*
X123824500Y-116326658D01*
X123804815Y-116393697D01*
X123752011Y-116439452D01*
X123682853Y-116449396D01*
X123656533Y-116442601D01*
X123650232Y-116440211D01*
X123485056Y-116399500D01*
X123314944Y-116399500D01*
X123149773Y-116440210D01*
X122999150Y-116519263D01*
X122871816Y-116632072D01*
X122775182Y-116772068D01*
X122714860Y-116931125D01*
X122714859Y-116931130D01*
X122694355Y-117100000D01*
X122714859Y-117268869D01*
X122714860Y-117268874D01*
X122775182Y-117427931D01*
X122837475Y-117518177D01*
X122871817Y-117567929D01*
X122944510Y-117632329D01*
X122999150Y-117680736D01*
X123149773Y-117759789D01*
X123149775Y-117759790D01*
X123314944Y-117800500D01*
X123427679Y-117800500D01*
X123494718Y-117820185D01*
X123540473Y-117872989D01*
X123550417Y-117942147D01*
X123521392Y-118005703D01*
X123515360Y-118012181D01*
X120539360Y-120988181D01*
X120478037Y-121021666D01*
X120451679Y-121024500D01*
X118922601Y-121024500D01*
X118797399Y-121024500D01*
X118716775Y-121046103D01*
X118676463Y-121056905D01*
X118568037Y-121119504D01*
X118568034Y-121119506D01*
X116379507Y-123308033D01*
X116379503Y-123308039D01*
X116361651Y-123338959D01*
X116312718Y-123386315D01*
X116229380Y-123430859D01*
X116229373Y-123430864D01*
X116084642Y-123549642D01*
X115965864Y-123694373D01*
X115965862Y-123694376D01*
X115877604Y-123859497D01*
X115823253Y-124038666D01*
X115823252Y-124038668D01*
X115804901Y-124225000D01*
X113025500Y-124225000D01*
X113025500Y-115900000D01*
X121194355Y-115900000D01*
X121214859Y-116068869D01*
X121214860Y-116068874D01*
X121275182Y-116227931D01*
X121337475Y-116318177D01*
X121371817Y-116367929D01*
X121439546Y-116427931D01*
X121499150Y-116480736D01*
X121649773Y-116559789D01*
X121649775Y-116559790D01*
X121814944Y-116600500D01*
X121985056Y-116600500D01*
X122150225Y-116559790D01*
X122229692Y-116518081D01*
X122300849Y-116480736D01*
X122300850Y-116480734D01*
X122300852Y-116480734D01*
X122428183Y-116367929D01*
X122524818Y-116227930D01*
X122585140Y-116068872D01*
X122605645Y-115900000D01*
X122585140Y-115731128D01*
X122524818Y-115572070D01*
X122497208Y-115532071D01*
X122461608Y-115480495D01*
X122428183Y-115432071D01*
X122300852Y-115319266D01*
X122300849Y-115319263D01*
X122150226Y-115240210D01*
X121985056Y-115199500D01*
X121814944Y-115199500D01*
X121649773Y-115240210D01*
X121499150Y-115319263D01*
X121371816Y-115432072D01*
X121275182Y-115572068D01*
X121214860Y-115731125D01*
X121214859Y-115731130D01*
X121194355Y-115900000D01*
X113025500Y-115900000D01*
X113025500Y-113200000D01*
X115294355Y-113200000D01*
X115314859Y-113368869D01*
X115314860Y-113368874D01*
X115375182Y-113527931D01*
X115425274Y-113600500D01*
X115471817Y-113667929D01*
X115555592Y-113742147D01*
X115599150Y-113780736D01*
X115756416Y-113863276D01*
X115755519Y-113864984D01*
X115803242Y-113901117D01*
X115827301Y-113966714D01*
X115819515Y-114018850D01*
X115814862Y-114031120D01*
X115814859Y-114031130D01*
X115794355Y-114200000D01*
X115814859Y-114368869D01*
X115814860Y-114368874D01*
X115875182Y-114527931D01*
X115930476Y-114608037D01*
X115971817Y-114667929D01*
X116044657Y-114732459D01*
X116099150Y-114780736D01*
X116225419Y-114847007D01*
X116249775Y-114859790D01*
X116414944Y-114900500D01*
X116585056Y-114900500D01*
X116750225Y-114859790D01*
X116829692Y-114818081D01*
X116900849Y-114780736D01*
X116900850Y-114780734D01*
X116900852Y-114780734D01*
X117028183Y-114667929D01*
X117124818Y-114527930D01*
X117185140Y-114368872D01*
X117205645Y-114200000D01*
X117185140Y-114031128D01*
X117124818Y-113872070D01*
X117124166Y-113871126D01*
X117086697Y-113816843D01*
X117028183Y-113732071D01*
X116904654Y-113622634D01*
X116900849Y-113619263D01*
X116743584Y-113536724D01*
X116744479Y-113535018D01*
X116696748Y-113498870D01*
X116672697Y-113433271D01*
X116680487Y-113381140D01*
X116685140Y-113368872D01*
X116705645Y-113200000D01*
X116685140Y-113031128D01*
X116624818Y-112872070D01*
X116528183Y-112732071D01*
X116415306Y-112632071D01*
X116400849Y-112619263D01*
X116250226Y-112540210D01*
X116085056Y-112499500D01*
X115914944Y-112499500D01*
X115749773Y-112540210D01*
X115599150Y-112619263D01*
X115508582Y-112699500D01*
X115472882Y-112731128D01*
X115471816Y-112732072D01*
X115375182Y-112872068D01*
X115314860Y-113031125D01*
X115314859Y-113031130D01*
X115294355Y-113200000D01*
X113025500Y-113200000D01*
X113025500Y-110400000D01*
X118494355Y-110400000D01*
X118514859Y-110568869D01*
X118514860Y-110568874D01*
X118575182Y-110727931D01*
X118581316Y-110736817D01*
X118671817Y-110867929D01*
X118762561Y-110948321D01*
X118799150Y-110980736D01*
X118949773Y-111059789D01*
X118949775Y-111059790D01*
X119114944Y-111100500D01*
X119285056Y-111100500D01*
X119450225Y-111059790D01*
X119529692Y-111018081D01*
X119600849Y-110980736D01*
X119600850Y-110980734D01*
X119600852Y-110980734D01*
X119728183Y-110867929D01*
X119824818Y-110727930D01*
X119885140Y-110568872D01*
X119905645Y-110400000D01*
X119885140Y-110231128D01*
X119880641Y-110219266D01*
X119835221Y-110099500D01*
X119824818Y-110072070D01*
X119815034Y-110057896D01*
X119775070Y-109999998D01*
X119728183Y-109932071D01*
X119616609Y-109833225D01*
X119600849Y-109819263D01*
X119450226Y-109740210D01*
X119285056Y-109699500D01*
X119114944Y-109699500D01*
X118949773Y-109740210D01*
X118799150Y-109819263D01*
X118671816Y-109932072D01*
X118575182Y-110072068D01*
X118514860Y-110231125D01*
X118514859Y-110231130D01*
X118494355Y-110400000D01*
X113025500Y-110400000D01*
X113025500Y-108599996D01*
X119969909Y-108599996D01*
X119969909Y-108600003D01*
X119988212Y-108762455D01*
X120042210Y-108916774D01*
X120114657Y-109032072D01*
X120129192Y-109055204D01*
X120244796Y-109170808D01*
X120383225Y-109257789D01*
X120537539Y-109311786D01*
X120537542Y-109311786D01*
X120537544Y-109311787D01*
X120699996Y-109330091D01*
X120700000Y-109330091D01*
X120700004Y-109330091D01*
X120862455Y-109311787D01*
X120862456Y-109311786D01*
X120862461Y-109311786D01*
X121016775Y-109257789D01*
X121155204Y-109170808D01*
X121270808Y-109055204D01*
X121357789Y-108916775D01*
X121411786Y-108762461D01*
X121411787Y-108762455D01*
X121430091Y-108600003D01*
X121430091Y-108599996D01*
X121411787Y-108437544D01*
X121411786Y-108437542D01*
X121411786Y-108437539D01*
X121357789Y-108283225D01*
X121270808Y-108144796D01*
X121155204Y-108029192D01*
X121109541Y-108000500D01*
X121016774Y-107942210D01*
X120862455Y-107888212D01*
X120700004Y-107869909D01*
X120699996Y-107869909D01*
X120537544Y-107888212D01*
X120383225Y-107942210D01*
X120244795Y-108029192D01*
X120129192Y-108144795D01*
X120042210Y-108283225D01*
X119988212Y-108437544D01*
X119969909Y-108599996D01*
X113025500Y-108599996D01*
X113025500Y-105900000D01*
X115844901Y-105900000D01*
X115863252Y-106086331D01*
X115863253Y-106086333D01*
X115917604Y-106265502D01*
X116005862Y-106430623D01*
X116005864Y-106430626D01*
X116124642Y-106575357D01*
X116269373Y-106694135D01*
X116269376Y-106694137D01*
X116434497Y-106782395D01*
X116434499Y-106782396D01*
X116611289Y-106836025D01*
X116613666Y-106836746D01*
X116613668Y-106836747D01*
X116630374Y-106838392D01*
X116800000Y-106855099D01*
X116986331Y-106836747D01*
X117165501Y-106782396D01*
X117330625Y-106694136D01*
X117475357Y-106575357D01*
X117594136Y-106430625D01*
X117682396Y-106265501D01*
X117736747Y-106086331D01*
X117755099Y-105900000D01*
X117736747Y-105713669D01*
X117682396Y-105534499D01*
X117654764Y-105482803D01*
X117594137Y-105369376D01*
X117594135Y-105369373D01*
X117475357Y-105224642D01*
X117330626Y-105105864D01*
X117330623Y-105105862D01*
X117165502Y-105017604D01*
X116986333Y-104963253D01*
X116986331Y-104963252D01*
X116800000Y-104944901D01*
X116613668Y-104963252D01*
X116613666Y-104963253D01*
X116434497Y-105017604D01*
X116269376Y-105105862D01*
X116269373Y-105105864D01*
X116124642Y-105224642D01*
X116005864Y-105369373D01*
X116005862Y-105369376D01*
X115917604Y-105534497D01*
X115863253Y-105713666D01*
X115863252Y-105713668D01*
X115844901Y-105900000D01*
X113025500Y-105900000D01*
X113025500Y-92450000D01*
X123494355Y-92450000D01*
X123514859Y-92618869D01*
X123514860Y-92618874D01*
X123575182Y-92777931D01*
X123637475Y-92868177D01*
X123671817Y-92917929D01*
X123777505Y-93011560D01*
X123799150Y-93030736D01*
X123949773Y-93109789D01*
X123949775Y-93109790D01*
X124114944Y-93150500D01*
X124285056Y-93150500D01*
X124450225Y-93109790D01*
X124529692Y-93068081D01*
X124600849Y-93030736D01*
X124600850Y-93030734D01*
X124600852Y-93030734D01*
X124728183Y-92917929D01*
X124824818Y-92777930D01*
X124885140Y-92618872D01*
X124905645Y-92450000D01*
X124885140Y-92281128D01*
X124824818Y-92122070D01*
X124728183Y-91982071D01*
X124600852Y-91869266D01*
X124600849Y-91869263D01*
X124450226Y-91790210D01*
X124285056Y-91749500D01*
X124114944Y-91749500D01*
X123949773Y-91790210D01*
X123799150Y-91869263D01*
X123671816Y-91982072D01*
X123575182Y-92122068D01*
X123514860Y-92281125D01*
X123514859Y-92281130D01*
X123494355Y-92450000D01*
X113025500Y-92450000D01*
X113025500Y-86399996D01*
X122469909Y-86399996D01*
X122469909Y-86400003D01*
X122488212Y-86562455D01*
X122542210Y-86716774D01*
X122543530Y-86718874D01*
X122629192Y-86855204D01*
X122744796Y-86970808D01*
X122883225Y-87057789D01*
X123037539Y-87111786D01*
X123037542Y-87111786D01*
X123037544Y-87111787D01*
X123199996Y-87130091D01*
X123200000Y-87130091D01*
X123200004Y-87130091D01*
X123362455Y-87111787D01*
X123362456Y-87111786D01*
X123362461Y-87111786D01*
X123516775Y-87057789D01*
X123655204Y-86970808D01*
X123770808Y-86855204D01*
X123857789Y-86716775D01*
X123911786Y-86562461D01*
X123930091Y-86400000D01*
X123927964Y-86381125D01*
X123911787Y-86237544D01*
X123911786Y-86237542D01*
X123911786Y-86237539D01*
X123857789Y-86083225D01*
X123770808Y-85944796D01*
X123655204Y-85829192D01*
X123516774Y-85742210D01*
X123396132Y-85699996D01*
X126769909Y-85699996D01*
X126769909Y-85700003D01*
X126788212Y-85862455D01*
X126842210Y-86016774D01*
X126842211Y-86016775D01*
X126929192Y-86155204D01*
X127044796Y-86270808D01*
X127183225Y-86357789D01*
X127337539Y-86411786D01*
X127337542Y-86411786D01*
X127337544Y-86411787D01*
X127499996Y-86430091D01*
X127500000Y-86430091D01*
X127500004Y-86430091D01*
X127662455Y-86411787D01*
X127662456Y-86411786D01*
X127662461Y-86411786D01*
X127816775Y-86357789D01*
X127955204Y-86270808D01*
X128070808Y-86155204D01*
X128157789Y-86016775D01*
X128211786Y-85862461D01*
X128211787Y-85862455D01*
X128230091Y-85700003D01*
X128230091Y-85699996D01*
X128211787Y-85537544D01*
X128211786Y-85537542D01*
X128211786Y-85537539D01*
X128157789Y-85383225D01*
X128070808Y-85244796D01*
X127955204Y-85129192D01*
X127816774Y-85042210D01*
X127662455Y-84988212D01*
X127500004Y-84969909D01*
X127499996Y-84969909D01*
X127337544Y-84988212D01*
X127183225Y-85042210D01*
X127044795Y-85129192D01*
X126929192Y-85244795D01*
X126842210Y-85383225D01*
X126788212Y-85537544D01*
X126769909Y-85699996D01*
X123396132Y-85699996D01*
X123362455Y-85688212D01*
X123200004Y-85669909D01*
X123199996Y-85669909D01*
X123037544Y-85688212D01*
X122883225Y-85742210D01*
X122744795Y-85829192D01*
X122629192Y-85944795D01*
X122542210Y-86083225D01*
X122488212Y-86237544D01*
X122469909Y-86399996D01*
X113025500Y-86399996D01*
X113025500Y-75500000D01*
X121994355Y-75500000D01*
X122014859Y-75668869D01*
X122014860Y-75668874D01*
X122075182Y-75827931D01*
X122137475Y-75918177D01*
X122171817Y-75967929D01*
X122277505Y-76061560D01*
X122299150Y-76080736D01*
X122449773Y-76159789D01*
X122449775Y-76159790D01*
X122614944Y-76200500D01*
X122785056Y-76200500D01*
X122950225Y-76159790D01*
X123029692Y-76118081D01*
X123100849Y-76080736D01*
X123100850Y-76080734D01*
X123100852Y-76080734D01*
X123228183Y-75967929D01*
X123324818Y-75827930D01*
X123385140Y-75668872D01*
X123405645Y-75500000D01*
X123385140Y-75331128D01*
X123324818Y-75172070D01*
X123228183Y-75032071D01*
X123100852Y-74919266D01*
X123100849Y-74919263D01*
X122950226Y-74840210D01*
X122785056Y-74799500D01*
X122614944Y-74799500D01*
X122449773Y-74840210D01*
X122299150Y-74919263D01*
X122171816Y-75032072D01*
X122075182Y-75172068D01*
X122014860Y-75331125D01*
X122014859Y-75331130D01*
X121994355Y-75500000D01*
X113025500Y-75500000D01*
X113025500Y-66999996D01*
X120969909Y-66999996D01*
X120969909Y-67000003D01*
X120988212Y-67162455D01*
X121042210Y-67316774D01*
X121074352Y-67367927D01*
X121129192Y-67455204D01*
X121244796Y-67570808D01*
X121383225Y-67657789D01*
X121537539Y-67711786D01*
X121537542Y-67711786D01*
X121537544Y-67711787D01*
X121699996Y-67730091D01*
X121700000Y-67730091D01*
X121700004Y-67730091D01*
X121862455Y-67711787D01*
X121862456Y-67711786D01*
X121862461Y-67711786D01*
X122016775Y-67657789D01*
X122155204Y-67570808D01*
X122270808Y-67455204D01*
X122357789Y-67316775D01*
X122411786Y-67162461D01*
X122422331Y-67068872D01*
X122430091Y-67000003D01*
X122430091Y-66999996D01*
X122411787Y-66837544D01*
X122411786Y-66837542D01*
X122411786Y-66837539D01*
X122357789Y-66683225D01*
X122270808Y-66544796D01*
X122155204Y-66429192D01*
X122016774Y-66342210D01*
X121862455Y-66288212D01*
X121700004Y-66269909D01*
X121699996Y-66269909D01*
X121537544Y-66288212D01*
X121383225Y-66342210D01*
X121244795Y-66429192D01*
X121129192Y-66544795D01*
X121042210Y-66683225D01*
X120988212Y-66837544D01*
X120969909Y-66999996D01*
X113025500Y-66999996D01*
X113025500Y-52800000D01*
X148794355Y-52800000D01*
X148814859Y-52968869D01*
X148814860Y-52968874D01*
X148875182Y-53127931D01*
X148937475Y-53218177D01*
X148971817Y-53267929D01*
X149077505Y-53361560D01*
X149099150Y-53380736D01*
X149249773Y-53459789D01*
X149249775Y-53459790D01*
X149414944Y-53500500D01*
X149585056Y-53500500D01*
X149750225Y-53459790D01*
X149829692Y-53418081D01*
X149900849Y-53380736D01*
X149900850Y-53380734D01*
X149900852Y-53380734D01*
X150028183Y-53267929D01*
X150124818Y-53127930D01*
X150185140Y-52968872D01*
X150205645Y-52800000D01*
X150185140Y-52631128D01*
X150124818Y-52472070D01*
X150028183Y-52332071D01*
X149900852Y-52219266D01*
X149900849Y-52219263D01*
X149750226Y-52140210D01*
X149585056Y-52099500D01*
X149414944Y-52099500D01*
X149249773Y-52140210D01*
X149099150Y-52219263D01*
X148971816Y-52332072D01*
X148875182Y-52472068D01*
X148814860Y-52631125D01*
X148814859Y-52631130D01*
X148794355Y-52800000D01*
X113025500Y-52800000D01*
X113025500Y-48304066D01*
X113025765Y-48295956D01*
X113034201Y-48167242D01*
X113041861Y-48050365D01*
X113043976Y-48034311D01*
X113091193Y-47796933D01*
X113095391Y-47781268D01*
X113140790Y-47647527D01*
X113173189Y-47552080D01*
X113179388Y-47537114D01*
X113286441Y-47320033D01*
X113294544Y-47305998D01*
X113429016Y-47104746D01*
X113438873Y-47091900D01*
X113598464Y-46909922D01*
X113609922Y-46898464D01*
X113791900Y-46738873D01*
X113804746Y-46729016D01*
X114005998Y-46594544D01*
X114020033Y-46586441D01*
X114237114Y-46479388D01*
X114252080Y-46473189D01*
X114415302Y-46417783D01*
X114481268Y-46395391D01*
X114496935Y-46391193D01*
X114734311Y-46343976D01*
X114750367Y-46341861D01*
X114975757Y-46327088D01*
X114995958Y-46325765D01*
X115004067Y-46325500D01*
X115008285Y-46325500D01*
X159491715Y-46325500D01*
X159495933Y-46325500D01*
X159504043Y-46325765D01*
G37*
%TD.AperFunction*%
%TD*%
M02*
