%TF.GenerationSoftware,KiCad,Pcbnew,8.0.8*%
%TF.CreationDate,2025-02-11T19:44:29+01:00*%
%TF.ProjectId,PixelBytesHost,50697865-6c42-4797-9465-73486f73742e,rev?*%
%TF.SameCoordinates,Original*%
%TF.FileFunction,Legend,Bot*%
%TF.FilePolarity,Positive*%
%FSLAX46Y46*%
G04 Gerber Fmt 4.6, Leading zero omitted, Abs format (unit mm)*
G04 Created by KiCad (PCBNEW 8.0.8) date 2025-02-11 19:44:29*
%MOMM*%
%LPD*%
G01*
G04 APERTURE LIST*
G04 Aperture macros list*
%AMRoundRect*
0 Rectangle with rounded corners*
0 $1 Rounding radius*
0 $2 $3 $4 $5 $6 $7 $8 $9 X,Y pos of 4 corners*
0 Add a 4 corners polygon primitive as box body*
4,1,4,$2,$3,$4,$5,$6,$7,$8,$9,$2,$3,0*
0 Add four circle primitives for the rounded corners*
1,1,$1+$1,$2,$3*
1,1,$1+$1,$4,$5*
1,1,$1+$1,$6,$7*
1,1,$1+$1,$8,$9*
0 Add four rect primitives between the rounded corners*
20,1,$1+$1,$2,$3,$4,$5,0*
20,1,$1+$1,$4,$5,$6,$7,0*
20,1,$1+$1,$6,$7,$8,$9,0*
20,1,$1+$1,$8,$9,$2,$3,0*%
%AMFreePoly0*
4,1,35,0.535355,0.785355,0.550000,0.750000,0.550000,-0.750000,0.535355,-0.785355,0.500000,-0.800000,0.000000,-0.800000,-0.012286,-0.794911,-0.071157,-0.794911,-0.085244,-0.792886,-0.221795,-0.752791,-0.234740,-0.746879,-0.354462,-0.669938,-0.365217,-0.660618,-0.458414,-0.553063,-0.466109,-0.541091,-0.525228,-0.411637,-0.529237,-0.397982,-0.549491,-0.257116,-0.550000,-0.250000,-0.550000,0.250000,
-0.549491,0.257116,-0.529237,0.397982,-0.525228,0.411637,-0.466109,0.541091,-0.458414,0.553063,-0.365217,0.660618,-0.354462,0.669938,-0.234740,0.746879,-0.221795,0.752791,-0.085244,0.792886,-0.071157,0.794911,-0.012286,0.794911,0.000000,0.800000,0.500000,0.800000,0.535355,0.785355,0.535355,0.785355,$1*%
%AMFreePoly1*
4,1,35,0.012286,0.794911,0.071157,0.794911,0.085244,0.792886,0.221795,0.752791,0.234740,0.746879,0.354462,0.669938,0.365217,0.660618,0.458414,0.553063,0.466109,0.541091,0.525228,0.411637,0.529237,0.397982,0.549491,0.257116,0.550000,0.250000,0.550000,-0.250000,0.549491,-0.257116,0.529237,-0.397982,0.525228,-0.411637,0.466109,-0.541091,0.458414,-0.553063,0.365217,-0.660618,
0.354462,-0.669938,0.234740,-0.746879,0.221795,-0.752791,0.085244,-0.792886,0.071157,-0.794911,0.012286,-0.794911,0.000000,-0.800000,-0.500000,-0.800000,-0.535355,-0.785355,-0.550000,-0.750000,-0.550000,0.750000,-0.535355,0.785355,-0.500000,0.800000,0.000000,0.800000,0.012286,0.794911,0.012286,0.794911,$1*%
G04 Aperture macros list end*
%ADD10C,0.120000*%
%ADD11C,0.250000*%
%ADD12C,0.000000*%
%ADD13C,0.200000*%
%ADD14C,0.100000*%
%ADD15C,1.650000*%
%ADD16C,0.750000*%
%ADD17O,1.204000X2.304000*%
%ADD18O,1.204000X2.004000*%
%ADD19RoundRect,0.275000X0.500000X-0.275000X0.500000X0.275000X-0.500000X0.275000X-0.500000X-0.275000X0*%
%ADD20RoundRect,0.275000X-0.275000X-0.500000X0.275000X-0.500000X0.275000X0.500000X-0.275000X0.500000X0*%
%ADD21RoundRect,0.275000X0.275000X0.500000X-0.275000X0.500000X-0.275000X-0.500000X0.275000X-0.500000X0*%
%ADD22RoundRect,0.050000X0.762500X-0.350000X0.762500X0.350000X-0.762500X0.350000X-0.762500X-0.350000X0*%
%ADD23RoundRect,0.050000X1.256500X1.701000X-1.256500X1.701000X-1.256500X-1.701000X1.256500X-1.701000X0*%
%ADD24C,1.400000*%
%ADD25RoundRect,0.050000X0.625000X-0.300000X0.625000X0.300000X-0.625000X0.300000X-0.625000X-0.300000X0*%
%ADD26RoundRect,0.050000X-0.725000X0.500000X-0.725000X-0.500000X0.725000X-0.500000X0.725000X0.500000X0*%
%ADD27RoundRect,0.274390X-0.288110X-0.475610X0.288110X-0.475610X0.288110X0.475610X-0.288110X0.475610X0*%
%ADD28RoundRect,0.274390X0.475610X-0.288110X0.475610X0.288110X-0.475610X0.288110X-0.475610X-0.288110X0*%
%ADD29RoundRect,0.274390X-0.475610X0.288110X-0.475610X-0.288110X0.475610X-0.288110X0.475610X0.288110X0*%
%ADD30RoundRect,0.050000X0.725000X-0.500000X0.725000X0.500000X-0.725000X0.500000X-0.725000X-0.500000X0*%
%ADD31RoundRect,0.050000X-0.500000X-0.725000X0.500000X-0.725000X0.500000X0.725000X-0.500000X0.725000X0*%
%ADD32RoundRect,0.050000X3.000000X-1.005000X3.000000X1.005000X-3.000000X1.005000X-3.000000X-1.005000X0*%
%ADD33RoundRect,0.050000X-0.735000X0.510000X-0.735000X-0.510000X0.735000X-0.510000X0.735000X0.510000X0*%
%ADD34FreePoly0,0.000000*%
%ADD35FreePoly1,0.000000*%
%ADD36RoundRect,0.050000X0.525000X-0.300000X0.525000X0.300000X-0.525000X0.300000X-0.525000X-0.300000X0*%
%ADD37RoundRect,0.274390X0.288110X0.475610X-0.288110X0.475610X-0.288110X-0.475610X0.288110X-0.475610X0*%
%ADD38RoundRect,0.050000X0.735000X-0.510000X0.735000X0.510000X-0.735000X0.510000X-0.735000X-0.510000X0*%
%ADD39RoundRect,0.050000X-0.800000X0.700000X-0.800000X-0.700000X0.800000X-0.700000X0.800000X0.700000X0*%
%ADD40RoundRect,0.050000X0.500000X0.725000X-0.500000X0.725000X-0.500000X-0.725000X0.500000X-0.725000X0*%
%ADD41C,1.675000*%
%ADD42RoundRect,0.050000X0.510000X0.735000X-0.510000X0.735000X-0.510000X-0.735000X0.510000X-0.735000X0*%
%ADD43RoundRect,0.050000X0.750000X1.150000X-0.750000X1.150000X-0.750000X-1.150000X0.750000X-1.150000X0*%
%ADD44RoundRect,0.050000X0.700000X-0.225000X0.700000X0.225000X-0.700000X0.225000X-0.700000X-0.225000X0*%
%ADD45RoundRect,0.050000X-0.450000X-0.975000X0.450000X-0.975000X0.450000X0.975000X-0.450000X0.975000X0*%
%ADD46RoundRect,0.050000X1.600000X-0.975000X1.600000X0.975000X-1.600000X0.975000X-1.600000X-0.975000X0*%
%ADD47RoundRect,0.050000X0.775000X1.175000X-0.775000X1.175000X-0.775000X-1.175000X0.775000X-1.175000X0*%
%ADD48RoundRect,0.050000X-0.510000X-0.735000X0.510000X-0.735000X0.510000X0.735000X-0.510000X0.735000X0*%
G04 APERTURE END LIST*
D10*
X154700000Y-48600000D02*
X154700000Y-98600000D01*
X154700000Y-98600000D02*
X119700000Y-98600000D01*
X119700000Y-48600000D02*
X119700000Y-98600000D01*
X154700000Y-48600000D02*
X119700000Y-48600000D01*
D11*
X158578384Y-94732000D02*
X157435527Y-94732000D01*
X158006955Y-95303428D02*
X158006955Y-94160571D01*
X158578384Y-104432000D02*
X157435527Y-104432000D01*
D12*
%TO.C,G\u002A\u002A\u002A*%
G36*
X125980461Y-125850297D02*
G01*
X127441667Y-125850595D01*
X127802500Y-126471131D01*
X127858881Y-126568065D01*
X127935142Y-126699126D01*
X128024540Y-126852722D01*
X128125165Y-127025573D01*
X128235108Y-127214400D01*
X128352458Y-127415922D01*
X128475305Y-127626862D01*
X128601741Y-127843939D01*
X128729856Y-128063874D01*
X128857739Y-128283387D01*
X128983481Y-128499199D01*
X129038422Y-128593504D01*
X129152362Y-128789189D01*
X129261038Y-128975975D01*
X129363295Y-129151873D01*
X129457982Y-129314894D01*
X129543944Y-129463048D01*
X129620029Y-129594346D01*
X129685083Y-129706798D01*
X129737954Y-129798415D01*
X129777488Y-129867209D01*
X129802531Y-129911189D01*
X129811932Y-129928365D01*
X129809869Y-129931508D01*
X129796905Y-129935017D01*
X129770695Y-129938076D01*
X129729410Y-129940714D01*
X129671227Y-129942956D01*
X129594318Y-129944832D01*
X129496857Y-129946368D01*
X129377020Y-129947593D01*
X129232979Y-129948533D01*
X129062909Y-129949216D01*
X128864984Y-129949670D01*
X128637378Y-129949922D01*
X128378265Y-129950000D01*
X126936297Y-129950000D01*
X126765950Y-129662500D01*
X126718248Y-129581992D01*
X126651190Y-129468820D01*
X126584020Y-129355460D01*
X126522439Y-129251535D01*
X126472149Y-129166666D01*
X126348695Y-128958333D01*
X127212998Y-128950000D01*
X128077300Y-128941666D01*
X127909484Y-128654779D01*
X127741667Y-128367892D01*
X126869094Y-128363113D01*
X125996522Y-128358333D01*
X125713128Y-127875000D01*
X125664763Y-127792416D01*
X125600576Y-127682501D01*
X125543138Y-127583779D01*
X125494479Y-127499759D01*
X125456629Y-127433948D01*
X125431618Y-127389853D01*
X125421475Y-127370984D01*
X125421801Y-127368807D01*
X125432614Y-127364291D01*
X125459238Y-127360420D01*
X125503863Y-127357130D01*
X125568681Y-127354356D01*
X125655880Y-127352034D01*
X125767652Y-127350101D01*
X125906186Y-127348491D01*
X126073673Y-127347140D01*
X126272303Y-127345984D01*
X127131390Y-127341666D01*
X126986718Y-127104313D01*
X126842046Y-126866959D01*
X125978609Y-126862646D01*
X125115173Y-126858333D01*
X124817213Y-126354166D01*
X124519254Y-125850000D01*
X125980461Y-125850297D01*
G37*
G36*
X132850000Y-127900000D02*
G01*
X132850000Y-129950000D01*
X132308061Y-129950000D01*
X131766121Y-129950000D01*
X131537227Y-129600945D01*
X131486126Y-129523348D01*
X131427707Y-129435515D01*
X131377235Y-129360602D01*
X131337266Y-129302365D01*
X131310356Y-129264561D01*
X131299061Y-129250945D01*
X131297917Y-129252506D01*
X131291642Y-129277445D01*
X131281921Y-129329060D01*
X131269574Y-129402538D01*
X131255421Y-129493067D01*
X131240284Y-129595833D01*
X131190780Y-129941666D01*
X130666224Y-129945911D01*
X130141667Y-129950155D01*
X130115415Y-129904244D01*
X130111770Y-129897945D01*
X130092132Y-129864275D01*
X130057549Y-129805118D01*
X130009332Y-129722716D01*
X129948794Y-129619311D01*
X129877249Y-129497143D01*
X129796010Y-129358456D01*
X129706388Y-129205489D01*
X129609697Y-129040486D01*
X129507250Y-128865686D01*
X129400360Y-128683333D01*
X129270975Y-128462617D01*
X129082810Y-128141611D01*
X128910423Y-127847494D01*
X128753151Y-127579133D01*
X128610331Y-127335393D01*
X128481301Y-127115140D01*
X128365397Y-126917240D01*
X128261959Y-126740558D01*
X128170321Y-126583960D01*
X128089823Y-126446312D01*
X128019802Y-126326479D01*
X127959593Y-126223328D01*
X127908536Y-126135724D01*
X127865968Y-126062533D01*
X127831225Y-126002621D01*
X127803645Y-125954853D01*
X127782566Y-125918095D01*
X127767325Y-125891213D01*
X127757258Y-125873073D01*
X127751705Y-125862541D01*
X127750000Y-125858481D01*
X127760338Y-125856881D01*
X127800286Y-125855039D01*
X127866704Y-125853423D01*
X127955781Y-125852088D01*
X128063704Y-125851090D01*
X128186659Y-125850482D01*
X128320834Y-125850319D01*
X128891667Y-125850638D01*
X128956756Y-125962819D01*
X128963076Y-125973637D01*
X128989488Y-126018415D01*
X129030701Y-126087962D01*
X129085104Y-126179570D01*
X129151088Y-126290533D01*
X129227040Y-126418144D01*
X129311352Y-126559698D01*
X129402411Y-126712488D01*
X129498608Y-126873807D01*
X129598333Y-127040949D01*
X129648729Y-127125305D01*
X129772609Y-127331787D01*
X129880026Y-127509433D01*
X129971032Y-127658325D01*
X130045675Y-127778543D01*
X130104007Y-127870167D01*
X130146077Y-127933278D01*
X130171936Y-127967956D01*
X130181634Y-127974282D01*
X130185498Y-127954072D01*
X130194541Y-127904694D01*
X130207377Y-127833544D01*
X130222921Y-127746639D01*
X130240088Y-127650000D01*
X130291728Y-127358333D01*
X130825031Y-127354347D01*
X131358334Y-127350361D01*
X131566667Y-127643216D01*
X131589082Y-127674655D01*
X131650001Y-127759397D01*
X131704275Y-127833893D01*
X131748766Y-127893894D01*
X131780332Y-127935149D01*
X131795834Y-127953409D01*
X131798939Y-127953132D01*
X131802851Y-127941377D01*
X131806180Y-127914439D01*
X131808967Y-127870303D01*
X131811252Y-127806951D01*
X131813074Y-127722366D01*
X131814475Y-127614533D01*
X131815495Y-127481433D01*
X131816173Y-127321051D01*
X131816550Y-127131370D01*
X131816667Y-126910374D01*
X131816667Y-125850000D01*
X132333334Y-125850000D01*
X132850000Y-125850000D01*
X132850000Y-127900000D01*
G37*
D10*
%TO.C,C15*%
X155665000Y-127478748D02*
X155665000Y-128001252D01*
X157135000Y-127478748D02*
X157135000Y-128001252D01*
%TO.C,C8*%
X129061252Y-108065000D02*
X128538748Y-108065000D01*
X129061252Y-109535000D02*
X128538748Y-109535000D01*
%TO.C,C7*%
X128538748Y-101765000D02*
X129061252Y-101765000D01*
X128538748Y-103235000D02*
X129061252Y-103235000D01*
D13*
%TO.C,IC_BMS_TP1*%
X153550000Y-123295000D02*
X155075000Y-123295000D01*
D14*
%TO.C,LS1*%
X120600000Y-99900000D02*
X120600000Y-99900000D01*
X120600000Y-111900000D02*
X120600000Y-111900000D01*
X120600000Y-99900000D02*
G75*
G02*
X120600000Y-111900000I0J-6000000D01*
G01*
X120600000Y-111900000D02*
G75*
G02*
X120600000Y-99900000I0J6000000D01*
G01*
D13*
%TO.C,Q2*%
X126075000Y-110185000D02*
X126225000Y-110185000D01*
X126075000Y-113105000D02*
X126075000Y-110185000D01*
X126225000Y-110185000D02*
X126225000Y-113105000D01*
X126225000Y-113105000D02*
X126075000Y-113105000D01*
X126575000Y-110140000D02*
X127825000Y-110140000D01*
%TO.C,R4*%
X129725000Y-111695000D02*
X128675000Y-111695000D01*
D10*
%TO.C,R10*%
X118827064Y-113965000D02*
X118372936Y-113965000D01*
X118827064Y-115435000D02*
X118372936Y-115435000D01*
%TO.C,R14*%
X124665000Y-123372936D02*
X124665000Y-123827064D01*
X126135000Y-123372936D02*
X126135000Y-123827064D01*
%TO.C,R13*%
X125965000Y-115627064D02*
X125965000Y-115172936D01*
X127435000Y-115627064D02*
X127435000Y-115172936D01*
%TO.C,R16*%
X135765000Y-116177064D02*
X135765000Y-115722936D01*
X137235000Y-116177064D02*
X137235000Y-115722936D01*
%TO.C,R23*%
X146065000Y-128127064D02*
X146065000Y-127672936D01*
X147535000Y-128127064D02*
X147535000Y-127672936D01*
%TO.C,R24*%
X146065000Y-124122936D02*
X146065000Y-124577064D01*
X147535000Y-124122936D02*
X147535000Y-124577064D01*
D13*
%TO.C,R21*%
X155875000Y-124300000D02*
X156925000Y-124300000D01*
%TO.C,R25*%
X134200000Y-118375000D02*
X134200000Y-119425000D01*
%TO.C,L1*%
X144400000Y-117400000D02*
X144400000Y-119100000D01*
X150400000Y-117400000D02*
X150400000Y-119100000D01*
D10*
%TO.C,R3*%
X149077064Y-99065000D02*
X148622936Y-99065000D01*
X149077064Y-100535000D02*
X148622936Y-100535000D01*
D13*
%TO.C,R1*%
X152225000Y-102800000D02*
X153275000Y-102800000D01*
D10*
%TO.C,JP2*%
X154400000Y-109400000D02*
X154400000Y-108800000D01*
X155100000Y-108100000D02*
X156500000Y-108100000D01*
X156500000Y-110100000D02*
X155100000Y-110100000D01*
X157200000Y-108800000D02*
X157200000Y-109400000D01*
X154400000Y-108800000D02*
G75*
G02*
X155100000Y-108100000I699999J1D01*
G01*
X155100000Y-110100000D02*
G75*
G02*
X154400000Y-109400000I-1J699999D01*
G01*
X156500000Y-108100000D02*
G75*
G02*
X157200000Y-108800000I0J-700000D01*
G01*
X157200000Y-109400000D02*
G75*
G02*
X156500000Y-110100000I-700000J0D01*
G01*
%TO.C,R9*%
X118827064Y-115965000D02*
X118372936Y-115965000D01*
X118827064Y-117435000D02*
X118372936Y-117435000D01*
%TO.C,R31*%
X142965000Y-102914564D02*
X142965000Y-102460436D01*
X144435000Y-102914564D02*
X144435000Y-102460436D01*
%TO.C,R11*%
X126695000Y-123372936D02*
X126695000Y-123827064D01*
X128165000Y-123372936D02*
X128165000Y-123827064D01*
D13*
%TO.C,Q3*%
X155875000Y-111050000D02*
X156325000Y-111050000D01*
X155875000Y-113950000D02*
X155875000Y-111050000D01*
X156325000Y-111050000D02*
X156325000Y-113950000D01*
X156325000Y-113950000D02*
X155875000Y-113950000D01*
X156675000Y-111000000D02*
X157725000Y-111000000D01*
D10*
%TO.C,R32*%
X144072936Y-98665000D02*
X144527064Y-98665000D01*
X144072936Y-100135000D02*
X144527064Y-100135000D01*
D14*
%TO.C,Y1*%
X128000000Y-103400000D02*
X128000000Y-103400000D01*
X128000000Y-103500000D02*
X128000000Y-103500000D01*
D13*
X130800000Y-104200000D02*
X129200000Y-104200000D01*
X130800000Y-107400000D02*
X129200000Y-107400000D01*
D14*
X128000000Y-103400000D02*
G75*
G02*
X128000000Y-103500000I0J-50000D01*
G01*
X128000000Y-103500000D02*
G75*
G02*
X128000000Y-103400000I0J50000D01*
G01*
D13*
%TO.C,R28*%
X155800000Y-121375000D02*
X155800000Y-120325000D01*
D10*
%TO.C,R15*%
X133765000Y-115722936D02*
X133765000Y-116177064D01*
X135235000Y-115722936D02*
X135235000Y-116177064D01*
D14*
%TO.C,J2*%
X154800000Y-96000000D02*
X160550000Y-96000000D01*
X154800000Y-103400000D02*
X154800000Y-96000000D01*
X160550000Y-96000000D02*
X160550000Y-103400000D01*
X160550000Y-103400000D02*
X154800000Y-103400000D01*
D10*
%TO.C,R2*%
X152577064Y-99065000D02*
X152122936Y-99065000D01*
X152577064Y-100535000D02*
X152122936Y-100535000D01*
D13*
%TO.C,R27*%
X159325000Y-119850000D02*
X158275000Y-119850000D01*
D10*
%TO.C,R12*%
X127970000Y-115172936D02*
X127970000Y-115627064D01*
X129440000Y-115172936D02*
X129440000Y-115627064D01*
D14*
%TO.C,S1*%
X137750000Y-101050000D02*
X138500000Y-101050000D01*
X137750000Y-107050000D02*
X137750000Y-101050000D01*
X138500000Y-107050000D02*
X137750000Y-107050000D01*
D13*
X139400000Y-99150000D02*
X139400000Y-99150000D01*
X139600000Y-99150000D02*
X139600000Y-99150000D01*
D14*
X140500000Y-107050000D02*
X141250000Y-107050000D01*
X141250000Y-101050000D02*
X140500000Y-101050000D01*
X141250000Y-107050000D02*
X141250000Y-101050000D01*
D13*
X139400000Y-99150000D02*
G75*
G02*
X139600000Y-99150000I100000J0D01*
G01*
X139600000Y-99150000D02*
G75*
G02*
X139400000Y-99150000I-100000J0D01*
G01*
%TO.C,R30*%
X159650000Y-109525000D02*
X159650000Y-108475000D01*
%TO.C,IC3*%
X153250000Y-116550000D02*
X155550000Y-116550000D01*
X153250000Y-119550000D02*
X153250000Y-116550000D01*
X155550000Y-116550000D02*
X155550000Y-119550000D01*
X155550000Y-119550000D02*
X153250000Y-119550000D01*
X155900000Y-116500000D02*
X157300000Y-116500000D01*
D14*
%TO.C,SW_Toggle1*%
X115090000Y-124625000D02*
X115760000Y-124625000D01*
X115090000Y-131025000D02*
X115090000Y-124625000D01*
X119300000Y-123125000D02*
X119300000Y-123125000D01*
X119300000Y-123225000D02*
X119300000Y-123225000D01*
X122760000Y-124625000D02*
X123510000Y-124625000D01*
X123510000Y-124625000D02*
X123510000Y-131025000D01*
X123510000Y-131025000D02*
X115090000Y-131025000D01*
X119300000Y-123125000D02*
G75*
G02*
X119300000Y-123225000I0J-50000D01*
G01*
X119300000Y-123225000D02*
G75*
G02*
X119300000Y-123125000I0J50000D01*
G01*
D13*
%TO.C,IC2*%
X144750000Y-107670000D02*
X151250000Y-107670000D01*
X144750000Y-111120000D02*
X144750000Y-107670000D01*
X151100000Y-111470000D02*
X151100000Y-113420000D01*
X151250000Y-107670000D02*
X151250000Y-111120000D01*
X151250000Y-111120000D02*
X144750000Y-111120000D01*
%TO.C,R26*%
X155800000Y-114725000D02*
X155800000Y-115775000D01*
%TO.C,R29*%
X134200000Y-120475000D02*
X134200000Y-121525000D01*
%TO.C,D1*%
X140898000Y-115275000D02*
X140898000Y-120798000D01*
X143502000Y-120798000D02*
X143502000Y-115602000D01*
%TO.C,R22*%
X158775000Y-112200000D02*
X159825000Y-112200000D01*
%TO.C,Q1*%
X149475000Y-101340000D02*
X149625000Y-101340000D01*
X149475000Y-104260000D02*
X149475000Y-101340000D01*
X149625000Y-101340000D02*
X149625000Y-104260000D01*
X149625000Y-104260000D02*
X149475000Y-104260000D01*
X149975000Y-101295000D02*
X151225000Y-101295000D01*
%TD*%
%LPC*%
D14*
X152900000Y-119250000D02*
X151500000Y-119250000D01*
X151500000Y-116850000D01*
X152900000Y-116850000D01*
X152900000Y-119250000D01*
G36*
X152900000Y-119250000D02*
G01*
X151500000Y-119250000D01*
X151500000Y-116850000D01*
X152900000Y-116850000D01*
X152900000Y-119250000D01*
G37*
X157300000Y-119250000D02*
X155900000Y-119250000D01*
X155900000Y-116850000D01*
X157300000Y-116850000D01*
X157300000Y-119250000D01*
G36*
X157300000Y-119250000D02*
G01*
X155900000Y-119250000D01*
X155900000Y-116850000D01*
X157300000Y-116850000D01*
X157300000Y-119250000D01*
G37*
D15*
%TO.C,J1*%
X160170000Y-105900000D03*
X155090000Y-106916000D03*
X155090000Y-104884000D03*
%TD*%
D16*
%TO.C,J3*%
X135660000Y-124165000D03*
X141440000Y-124165000D03*
D17*
X134230000Y-123665000D03*
X142870000Y-123665000D03*
D18*
X134230000Y-127845000D03*
X142870000Y-127845000D03*
%TD*%
D19*
%TO.C,C15*%
X156400000Y-128690000D03*
X156400000Y-126790000D03*
%TD*%
D20*
%TO.C,C8*%
X127850000Y-108800000D03*
X129750000Y-108800000D03*
%TD*%
D21*
%TO.C,C7*%
X129750000Y-102500000D03*
X127850000Y-102500000D03*
%TD*%
D22*
%TO.C,IC_BMS_TP1*%
X154312000Y-123995000D03*
X154312000Y-125265000D03*
X154312000Y-126535000D03*
X154312000Y-127805000D03*
X148888000Y-127805000D03*
X148888000Y-126535000D03*
X148888000Y-125265000D03*
X148888000Y-123995000D03*
D23*
X151600000Y-125900000D03*
%TD*%
D24*
%TO.C,LS1*%
X116800000Y-105900000D03*
X124400000Y-105900000D03*
%TD*%
D25*
%TO.C,Q2*%
X127200000Y-110690000D03*
X127200000Y-112600000D03*
X125100000Y-111645000D03*
%TD*%
D26*
%TO.C,R4*%
X129200000Y-110745000D03*
X129200000Y-112645000D03*
%TD*%
D27*
%TO.C,R10*%
X117687500Y-114700000D03*
X119512500Y-114700000D03*
%TD*%
D28*
%TO.C,R14*%
X125400000Y-124512500D03*
X125400000Y-122687500D03*
%TD*%
D29*
%TO.C,R13*%
X126700000Y-114487500D03*
X126700000Y-116312500D03*
%TD*%
%TO.C,R16*%
X136500000Y-115037500D03*
X136500000Y-116862500D03*
%TD*%
%TO.C,R23*%
X146800000Y-126987500D03*
X146800000Y-128812500D03*
%TD*%
D28*
%TO.C,R24*%
X146800000Y-125262500D03*
X146800000Y-123437500D03*
%TD*%
D30*
%TO.C,R21*%
X156400000Y-125250000D03*
X156400000Y-123350000D03*
%TD*%
D31*
%TO.C,R25*%
X133250000Y-118900000D03*
X135150000Y-118900000D03*
%TD*%
D32*
%TO.C,L1*%
X147400000Y-120400000D03*
X147400000Y-116100000D03*
%TD*%
D33*
%TO.C,C21*%
X138700000Y-116000000D03*
X138700000Y-117600000D03*
%TD*%
D27*
%TO.C,R3*%
X147937500Y-99800000D03*
X149762500Y-99800000D03*
%TD*%
D30*
%TO.C,R1*%
X152750000Y-103750000D03*
X152750000Y-101850000D03*
%TD*%
D34*
%TO.C,JP2*%
X155150000Y-109100000D03*
D35*
X156450000Y-109100000D03*
%TD*%
D27*
%TO.C,R9*%
X117687500Y-116700000D03*
X119512500Y-116700000D03*
%TD*%
D29*
%TO.C,R31*%
X143700000Y-101775000D03*
X143700000Y-103600000D03*
%TD*%
D28*
%TO.C,R11*%
X127430000Y-124512500D03*
X127430000Y-122687500D03*
%TD*%
D36*
%TO.C,Q3*%
X157200000Y-111550000D03*
X157200000Y-113450000D03*
X155000000Y-112500000D03*
%TD*%
D37*
%TO.C,R32*%
X145212500Y-99400000D03*
X143387500Y-99400000D03*
%TD*%
D38*
%TO.C,C12*%
X132575000Y-116750000D03*
X132575000Y-115150000D03*
%TD*%
D39*
%TO.C,Y1*%
X128100000Y-104650000D03*
X131900000Y-104650000D03*
X131900000Y-106950000D03*
X128100000Y-106950000D03*
%TD*%
D40*
%TO.C,R28*%
X156750000Y-120850000D03*
X154850000Y-120850000D03*
%TD*%
D28*
%TO.C,R15*%
X134500000Y-116862500D03*
X134500000Y-115037500D03*
%TD*%
D41*
%TO.C,J2*%
X158200000Y-98450000D03*
X158200000Y-100950000D03*
%TD*%
D27*
%TO.C,R2*%
X151437500Y-99800000D03*
X153262500Y-99800000D03*
%TD*%
D42*
%TO.C,C19*%
X153200000Y-120850000D03*
X151600000Y-120850000D03*
%TD*%
D26*
%TO.C,R27*%
X158800000Y-118900000D03*
X158800000Y-120800000D03*
%TD*%
D28*
%TO.C,R12*%
X128705000Y-116312500D03*
X128705000Y-114487500D03*
%TD*%
D43*
%TO.C,S1*%
X139500000Y-100700000D03*
X139500000Y-107400000D03*
%TD*%
D33*
%TO.C,C18*%
X158800000Y-115650000D03*
X158800000Y-117250000D03*
%TD*%
D42*
%TO.C,C20*%
X153200000Y-115250000D03*
X151600000Y-115250000D03*
%TD*%
D40*
%TO.C,R30*%
X160600000Y-109000000D03*
X158700000Y-109000000D03*
%TD*%
D44*
%TO.C,IC3*%
X156600000Y-117075000D03*
X156600000Y-117725000D03*
X156600000Y-118375000D03*
X156600000Y-119025000D03*
X152200000Y-119025000D03*
X152200000Y-118375000D03*
X152200000Y-117725000D03*
X152200000Y-117075000D03*
%TD*%
D24*
%TO.C,SW_Toggle1*%
X119300000Y-124225000D03*
X116760000Y-124225000D03*
X121840000Y-124225000D03*
%TD*%
D38*
%TO.C,C16*%
X152800000Y-110700000D03*
X152800000Y-109100000D03*
%TD*%
D45*
%TO.C,IC2*%
X150300000Y-112445000D03*
X148000000Y-112445000D03*
X145700000Y-112445000D03*
D46*
X148000000Y-106345000D03*
%TD*%
D31*
%TO.C,R26*%
X154850000Y-115250000D03*
X156750000Y-115250000D03*
%TD*%
%TO.C,R29*%
X133250000Y-121000000D03*
X135150000Y-121000000D03*
%TD*%
D38*
%TO.C,C17*%
X143200000Y-110700000D03*
X143200000Y-109100000D03*
%TD*%
D47*
%TO.C,D1*%
X142200000Y-116050000D03*
X142200000Y-120350000D03*
%TD*%
D38*
%TO.C,C10*%
X129400000Y-124400000D03*
X129400000Y-122800000D03*
%TD*%
D33*
%TO.C,C11*%
X124805000Y-114600000D03*
X124805000Y-116200000D03*
%TD*%
D30*
%TO.C,R22*%
X159300000Y-113150000D03*
X159300000Y-111250000D03*
%TD*%
D25*
%TO.C,Q1*%
X150600000Y-101845000D03*
X150600000Y-103755000D03*
X148500000Y-102800000D03*
%TD*%
D48*
%TO.C,C9*%
X117800000Y-118700000D03*
X119400000Y-118700000D03*
%TD*%
%LPD*%
M02*
