%TF.GenerationSoftware,KiCad,Pcbnew,8.0.5*%
%TF.CreationDate,2024-10-17T19:47:35+02:00*%
%TF.ProjectId,PixelBytesHost,50697865-6c42-4797-9465-73486f73742e,rev?*%
%TF.SameCoordinates,Original*%
%TF.FileFunction,Soldermask,Top*%
%TF.FilePolarity,Negative*%
%FSLAX46Y46*%
G04 Gerber Fmt 4.6, Leading zero omitted, Abs format (unit mm)*
G04 Created by KiCad (PCBNEW 8.0.5) date 2024-10-17 19:47:35*
%MOMM*%
%LPD*%
G01*
G04 APERTURE LIST*
G04 Aperture macros list*
%AMRoundRect*
0 Rectangle with rounded corners*
0 $1 Rounding radius*
0 $2 $3 $4 $5 $6 $7 $8 $9 X,Y pos of 4 corners*
0 Add a 4 corners polygon primitive as box body*
4,1,4,$2,$3,$4,$5,$6,$7,$8,$9,$2,$3,0*
0 Add four circle primitives for the rounded corners*
1,1,$1+$1,$2,$3*
1,1,$1+$1,$4,$5*
1,1,$1+$1,$6,$7*
1,1,$1+$1,$8,$9*
0 Add four rect primitives between the rounded corners*
20,1,$1+$1,$2,$3,$4,$5,0*
20,1,$1+$1,$4,$5,$6,$7,0*
20,1,$1+$1,$6,$7,$8,$9,0*
20,1,$1+$1,$8,$9,$2,$3,0*%
%AMFreePoly0*
4,1,35,0.535355,0.785355,0.550000,0.750000,0.550000,-0.750000,0.535355,-0.785355,0.500000,-0.800000,0.000000,-0.800000,-0.012286,-0.794911,-0.071157,-0.794911,-0.085244,-0.792886,-0.221795,-0.752791,-0.234740,-0.746879,-0.354462,-0.669938,-0.365217,-0.660618,-0.458414,-0.553063,-0.466109,-0.541091,-0.525228,-0.411637,-0.529237,-0.397982,-0.549491,-0.257116,-0.550000,-0.250000,-0.550000,0.250000,
-0.549491,0.257116,-0.529237,0.397982,-0.525228,0.411637,-0.466109,0.541091,-0.458414,0.553063,-0.365217,0.660618,-0.354462,0.669938,-0.234740,0.746879,-0.221795,0.752791,-0.085244,0.792886,-0.071157,0.794911,-0.012286,0.794911,0.000000,0.800000,0.500000,0.800000,0.535355,0.785355,0.535355,0.785355,$1*%
%AMFreePoly1*
4,1,35,0.012286,0.794911,0.071157,0.794911,0.085244,0.792886,0.221795,0.752791,0.234740,0.746879,0.354462,0.669938,0.365217,0.660618,0.458414,0.553063,0.466109,0.541091,0.525228,0.411637,0.529237,0.397982,0.549491,0.257116,0.550000,0.250000,0.550000,-0.250000,0.549491,-0.257116,0.529237,-0.397982,0.525228,-0.411637,0.466109,-0.541091,0.458414,-0.553063,0.365217,-0.660618,
0.354462,-0.669938,0.234740,-0.746879,0.221795,-0.752791,0.085244,-0.792886,0.071157,-0.794911,0.012286,-0.794911,0.000000,-0.800000,-0.500000,-0.800000,-0.535355,-0.785355,-0.550000,-0.750000,-0.550000,0.750000,-0.535355,0.785355,-0.500000,0.800000,0.000000,0.800000,0.012286,0.794911,0.012286,0.794911,$1*%
G04 Aperture macros list end*
%ADD10C,0.100000*%
%ADD11RoundRect,0.050000X0.700000X-0.450000X0.700000X0.450000X-0.700000X0.450000X-0.700000X-0.450000X0*%
%ADD12RoundRect,0.050000X-0.500000X-0.725000X0.500000X-0.725000X0.500000X0.725000X-0.500000X0.725000X0*%
%ADD13RoundRect,0.050000X-0.510000X-0.735000X0.510000X-0.735000X0.510000X0.735000X-0.510000X0.735000X0*%
%ADD14C,0.989000*%
%ADD15C,1.650000*%
%ADD16RoundRect,0.050000X0.775000X-0.650000X0.775000X0.650000X-0.775000X0.650000X-0.775000X-0.650000X0*%
%ADD17RoundRect,0.050000X0.735000X-0.510000X0.735000X0.510000X-0.735000X0.510000X-0.735000X-0.510000X0*%
%ADD18RoundRect,0.274390X-0.288110X-0.475610X0.288110X-0.475610X0.288110X0.475610X-0.288110X0.475610X0*%
%ADD19RoundRect,0.274390X-0.475610X0.288110X-0.475610X-0.288110X0.475610X-0.288110X0.475610X0.288110X0*%
%ADD20RoundRect,0.050000X-0.735000X0.510000X-0.735000X-0.510000X0.735000X-0.510000X0.735000X0.510000X0*%
%ADD21RoundRect,0.274390X0.288110X0.475610X-0.288110X0.475610X-0.288110X-0.475610X0.288110X-0.475610X0*%
%ADD22RoundRect,0.050000X0.510000X0.735000X-0.510000X0.735000X-0.510000X-0.735000X0.510000X-0.735000X0*%
%ADD23RoundRect,0.050000X0.175000X0.287500X-0.175000X0.287500X-0.175000X-0.287500X0.175000X-0.287500X0*%
%ADD24RoundRect,0.050000X0.287500X-0.175000X0.287500X0.175000X-0.287500X0.175000X-0.287500X-0.175000X0*%
%ADD25RoundRect,0.100000X-0.687500X-0.100000X0.687500X-0.100000X0.687500X0.100000X-0.687500X0.100000X0*%
%ADD26RoundRect,0.100000X-0.100000X-0.687500X0.100000X-0.687500X0.100000X0.687500X-0.100000X0.687500X0*%
%ADD27FreePoly0,0.000000*%
%ADD28FreePoly1,0.000000*%
%ADD29RoundRect,0.050000X-0.300000X-0.550000X0.300000X-0.550000X0.300000X0.550000X-0.300000X0.550000X0*%
%ADD30RoundRect,0.050000X-0.150000X-0.550000X0.150000X-0.550000X0.150000X0.550000X-0.150000X0.550000X0*%
%ADD31C,2.380000*%
%ADD32C,2.950000*%
%ADD33RoundRect,0.475000X-1.325000X-0.475000X1.325000X-0.475000X1.325000X0.475000X-1.325000X0.475000X0*%
%ADD34C,1.400000*%
%ADD35C,1.675000*%
G04 APERTURE END LIST*
D10*
X145600000Y-110600000D02*
X144100000Y-110600000D01*
X144100000Y-104800000D01*
X145600000Y-104800000D01*
X145600000Y-110600000D01*
G36*
X145600000Y-110600000D02*
G01*
X144100000Y-110600000D01*
X144100000Y-104800000D01*
X145600000Y-104800000D01*
X145600000Y-110600000D01*
G37*
X143600000Y-104300000D02*
X137800000Y-104300000D01*
X137800000Y-102800000D01*
X143600000Y-102800000D01*
X143600000Y-104300000D01*
G36*
X143600000Y-104300000D02*
G01*
X137800000Y-104300000D01*
X137800000Y-102800000D01*
X143600000Y-102800000D01*
X143600000Y-104300000D01*
G37*
X142000000Y-123750000D02*
X135000000Y-123750000D01*
X135000000Y-122650000D01*
X142000000Y-122650000D01*
X142000000Y-123750000D01*
G36*
X142000000Y-123750000D02*
G01*
X135000000Y-123750000D01*
X135000000Y-122650000D01*
X142000000Y-122650000D01*
X142000000Y-123750000D01*
G37*
X129100000Y-102600000D02*
X128500000Y-102600000D01*
X128500000Y-101200000D01*
X129100000Y-101200000D01*
X129100000Y-102600000D01*
G36*
X129100000Y-102600000D02*
G01*
X128500000Y-102600000D01*
X128500000Y-101200000D01*
X129100000Y-101200000D01*
X129100000Y-102600000D01*
G37*
X130650000Y-101050000D02*
X128750000Y-101050000D01*
X128750000Y-100450000D01*
X130650000Y-100450000D01*
X130650000Y-101050000D01*
G36*
X130650000Y-101050000D02*
G01*
X128750000Y-101050000D01*
X128750000Y-100450000D01*
X130650000Y-100450000D01*
X130650000Y-101050000D01*
G37*
X137300000Y-110600000D02*
X135800000Y-110600000D01*
X135800000Y-104800000D01*
X137300000Y-104800000D01*
X137300000Y-110600000D01*
G36*
X137300000Y-110600000D02*
G01*
X135800000Y-110600000D01*
X135800000Y-104800000D01*
X137300000Y-104800000D01*
X137300000Y-110600000D01*
G37*
X130900000Y-102600000D02*
X130300000Y-102600000D01*
X130300000Y-101200000D01*
X130900000Y-101200000D01*
X130900000Y-102600000D01*
G36*
X130900000Y-102600000D02*
G01*
X130300000Y-102600000D01*
X130300000Y-101200000D01*
X130900000Y-101200000D01*
X130900000Y-102600000D01*
G37*
X130650000Y-103400000D02*
X128750000Y-103400000D01*
X128750000Y-102750000D01*
X130650000Y-102750000D01*
X130650000Y-103400000D01*
G36*
X130650000Y-103400000D02*
G01*
X128750000Y-103400000D01*
X128750000Y-102750000D01*
X130650000Y-102750000D01*
X130650000Y-103400000D01*
G37*
X143600000Y-112600000D02*
X137800000Y-112600000D01*
X137800000Y-111100000D01*
X143600000Y-111100000D01*
X143600000Y-112600000D01*
G36*
X143600000Y-112600000D02*
G01*
X137800000Y-112600000D01*
X137800000Y-111100000D01*
X143600000Y-111100000D01*
X143600000Y-112600000D01*
G37*
D11*
%TO.C,LED_Red_bms1*%
X155092500Y-128150000D03*
X155092500Y-126250000D03*
%TD*%
%TO.C,LED_green_bms1*%
X157600000Y-128150000D03*
X157600000Y-126250000D03*
%TD*%
D12*
%TO.C,R19*%
X155250000Y-117900000D03*
X157150000Y-117900000D03*
%TD*%
%TO.C,R20*%
X147349935Y-115678635D03*
X149249935Y-115678635D03*
%TD*%
D13*
%TO.C,C3*%
X142400000Y-114400000D03*
X144000000Y-114400000D03*
%TD*%
D12*
%TO.C,R18*%
X150399935Y-124900000D03*
X152299935Y-124900000D03*
%TD*%
D14*
%TO.C,J1*%
X158900000Y-105265000D03*
X158900000Y-106535000D03*
X157630000Y-105265000D03*
X157630000Y-106535000D03*
X156360000Y-105265000D03*
X156360000Y-106535000D03*
D15*
X160170000Y-105900000D03*
X155090000Y-106916000D03*
X155090000Y-104884000D03*
%TD*%
D16*
%TO.C,S_b1*%
X152025000Y-110950000D03*
X152025000Y-115450000D03*
X159975000Y-110950000D03*
X159975000Y-115450000D03*
%TD*%
D17*
%TO.C,C4*%
X133088000Y-103000000D03*
X133088000Y-101400000D03*
%TD*%
D18*
%TO.C,R7*%
X137987500Y-98300000D03*
X139812500Y-98300000D03*
%TD*%
D19*
%TO.C,R5*%
X126288000Y-99087500D03*
X126288000Y-100912500D03*
%TD*%
D16*
%TO.C,S_left1*%
X114625000Y-114500000D03*
X114625000Y-119000000D03*
X122575000Y-114500000D03*
X122575000Y-119000000D03*
%TD*%
D20*
%TO.C,C1*%
X134000000Y-108300000D03*
X134000000Y-109900000D03*
%TD*%
D19*
%TO.C,R6*%
X126288000Y-102675000D03*
X126288000Y-104500000D03*
%TD*%
D21*
%TO.C,R8*%
X151225000Y-102700000D03*
X149400000Y-102700000D03*
%TD*%
D20*
%TO.C,C5*%
X135800000Y-101400000D03*
X135800000Y-103000000D03*
%TD*%
D22*
%TO.C,C13*%
X155150000Y-108900000D03*
X153550000Y-108900000D03*
%TD*%
D23*
%TO.C,IC1*%
X128950000Y-103063000D03*
X129450000Y-103063000D03*
X129950000Y-103063000D03*
X130450000Y-103063000D03*
D24*
X130612000Y-102400000D03*
X130612000Y-101900000D03*
X130612000Y-101400000D03*
D23*
X130450000Y-100737000D03*
X129950000Y-100737000D03*
X129450000Y-100737000D03*
X128950000Y-100737000D03*
D24*
X128788000Y-101400000D03*
X128788000Y-101900000D03*
X128788000Y-102400000D03*
%TD*%
D25*
%TO.C,U2*%
X136537500Y-104950000D03*
X136537500Y-105450000D03*
X136537500Y-105950000D03*
X136537500Y-106450000D03*
X136537500Y-106950000D03*
X136537500Y-107450000D03*
X136537500Y-107950000D03*
X136537500Y-108450000D03*
X136537500Y-108950000D03*
X136537500Y-109450000D03*
X136537500Y-109950000D03*
X136537500Y-110450000D03*
D26*
X137950000Y-111862500D03*
X138450000Y-111862500D03*
X138950000Y-111862500D03*
X139450000Y-111862500D03*
X139950000Y-111862500D03*
X140450000Y-111862500D03*
X140950000Y-111862500D03*
X141450000Y-111862500D03*
X141950000Y-111862500D03*
X142450000Y-111862500D03*
X142950000Y-111862500D03*
X143450000Y-111862500D03*
D25*
X144862500Y-110450000D03*
X144862500Y-109950000D03*
X144862500Y-109450000D03*
X144862500Y-108950000D03*
X144862500Y-108450000D03*
X144862500Y-107950000D03*
X144862500Y-107450000D03*
X144862500Y-106950000D03*
X144862500Y-106450000D03*
X144862500Y-105950000D03*
X144862500Y-105450000D03*
X144862500Y-104950000D03*
D26*
X143450000Y-103537500D03*
X142950000Y-103537500D03*
X142450000Y-103537500D03*
X141950000Y-103537500D03*
X141450000Y-103537500D03*
X140950000Y-103537500D03*
X140450000Y-103537500D03*
X139950000Y-103537500D03*
X139450000Y-103537500D03*
X138950000Y-103537500D03*
X138450000Y-103537500D03*
X137950000Y-103537500D03*
%TD*%
D27*
%TO.C,JP1*%
X138300000Y-100600000D03*
D28*
X139600000Y-100600000D03*
%TD*%
D29*
%TO.C,J2*%
X135300000Y-123200000D03*
X136100000Y-123200000D03*
D30*
X137250000Y-123200000D03*
X138250000Y-123200000D03*
X138750000Y-123200000D03*
X139750000Y-123200000D03*
D29*
X140900000Y-123200000D03*
X141700000Y-123200000D03*
D30*
X140250000Y-123200000D03*
X139250000Y-123200000D03*
X137750000Y-123200000D03*
X136750000Y-123200000D03*
D31*
X132880000Y-124350000D03*
D32*
X132880000Y-128350000D03*
X144120000Y-128350000D03*
D31*
X144120000Y-124350000D03*
%TD*%
D22*
%TO.C,C14*%
X148899935Y-124900000D03*
X147299935Y-124900000D03*
%TD*%
%TO.C,C6*%
X147400000Y-102700000D03*
X145800000Y-102700000D03*
%TD*%
D16*
%TO.C,S_right1*%
X130575000Y-114500000D03*
X130575000Y-119000000D03*
X138525000Y-114500000D03*
X138525000Y-119000000D03*
%TD*%
%TO.C,S_down1*%
X122625000Y-121292730D03*
X122625000Y-125792730D03*
X130575000Y-121292730D03*
X130575000Y-125792730D03*
%TD*%
D12*
%TO.C,R17*%
X156650000Y-108900000D03*
X158550000Y-108900000D03*
%TD*%
D22*
%TO.C,C2*%
X130500000Y-98300000D03*
X128900000Y-98300000D03*
%TD*%
D33*
%TO.C,U1*%
X119000000Y-49990000D03*
X119000000Y-52530000D03*
X119000000Y-55070000D03*
X119000000Y-57610000D03*
X119000000Y-66957200D03*
X119000000Y-69497200D03*
X119000000Y-72037200D03*
X119000000Y-74577200D03*
X119000000Y-87226400D03*
X119000000Y-89817200D03*
X119000000Y-92306400D03*
X119000000Y-94897200D03*
X155576000Y-49990000D03*
X155576000Y-52530000D03*
X155576000Y-55070000D03*
X155576000Y-57610000D03*
X155576000Y-66855600D03*
X155576000Y-69395600D03*
X155576000Y-71935600D03*
X155576000Y-74475600D03*
X155576000Y-87277200D03*
X155576000Y-89817200D03*
X155576000Y-92357200D03*
X155576000Y-94897200D03*
%TD*%
D16*
%TO.C,S_up1*%
X122625000Y-107950000D03*
X122625000Y-112450000D03*
X130575000Y-107950000D03*
X130575000Y-112450000D03*
%TD*%
%TO.C,S_a1*%
X144125000Y-117650000D03*
X144125000Y-122150000D03*
X152075000Y-117650000D03*
X152075000Y-122150000D03*
%TD*%
D34*
%TO.C,LS1*%
X116800000Y-105900000D03*
X124400000Y-105900000D03*
%TD*%
%TO.C,SW_Toggle1*%
X123275000Y-128050000D03*
X125775000Y-128050000D03*
X128275000Y-128050000D03*
%TD*%
D35*
%TO.C,J3*%
X158200000Y-98450000D03*
X158200000Y-100950000D03*
%TD*%
M02*
