%TF.GenerationSoftware,KiCad,Pcbnew,8.0.5*%
%TF.CreationDate,2024-10-17T19:47:34+02:00*%
%TF.ProjectId,PixelBytesHost,50697865-6c42-4797-9465-73486f73742e,rev?*%
%TF.SameCoordinates,Original*%
%TF.FileFunction,Copper,L1,Top*%
%TF.FilePolarity,Positive*%
%FSLAX46Y46*%
G04 Gerber Fmt 4.6, Leading zero omitted, Abs format (unit mm)*
G04 Created by KiCad (PCBNEW 8.0.5) date 2024-10-17 19:47:34*
%MOMM*%
%LPD*%
G01*
G04 APERTURE LIST*
G04 Aperture macros list*
%AMRoundRect*
0 Rectangle with rounded corners*
0 $1 Rounding radius*
0 $2 $3 $4 $5 $6 $7 $8 $9 X,Y pos of 4 corners*
0 Add a 4 corners polygon primitive as box body*
4,1,4,$2,$3,$4,$5,$6,$7,$8,$9,$2,$3,0*
0 Add four circle primitives for the rounded corners*
1,1,$1+$1,$2,$3*
1,1,$1+$1,$4,$5*
1,1,$1+$1,$6,$7*
1,1,$1+$1,$8,$9*
0 Add four rect primitives between the rounded corners*
20,1,$1+$1,$2,$3,$4,$5,0*
20,1,$1+$1,$4,$5,$6,$7,0*
20,1,$1+$1,$6,$7,$8,$9,0*
20,1,$1+$1,$8,$9,$2,$3,0*%
%AMFreePoly0*
4,1,19,0.500000,-0.750000,0.000000,-0.750000,0.000000,-0.744911,-0.071157,-0.744911,-0.207708,-0.704816,-0.327430,-0.627875,-0.420627,-0.520320,-0.479746,-0.390866,-0.500000,-0.250000,-0.500000,0.250000,-0.479746,0.390866,-0.420627,0.520320,-0.327430,0.627875,-0.207708,0.704816,-0.071157,0.744911,0.000000,0.744911,0.000000,0.750000,0.500000,0.750000,0.500000,-0.750000,0.500000,-0.750000,
$1*%
%AMFreePoly1*
4,1,19,0.000000,0.744911,0.071157,0.744911,0.207708,0.704816,0.327430,0.627875,0.420627,0.520320,0.479746,0.390866,0.500000,0.250000,0.500000,-0.250000,0.479746,-0.390866,0.420627,-0.520320,0.327430,-0.627875,0.207708,-0.704816,0.071157,-0.744911,0.000000,-0.744911,0.000000,-0.750000,-0.500000,-0.750000,-0.500000,0.750000,0.000000,0.750000,0.000000,0.744911,0.000000,0.744911,
$1*%
G04 Aperture macros list end*
%TA.AperFunction,SMDPad,CuDef*%
%ADD10R,1.400000X0.900000*%
%TD*%
%TA.AperFunction,SMDPad,CuDef*%
%ADD11R,1.000000X1.450000*%
%TD*%
%TA.AperFunction,SMDPad,CuDef*%
%ADD12R,1.020000X1.470000*%
%TD*%
%TA.AperFunction,SMDPad,CuDef*%
%ADD13C,0.889000*%
%TD*%
%TA.AperFunction,ComponentPad*%
%ADD14C,1.550000*%
%TD*%
%TA.AperFunction,SMDPad,CuDef*%
%ADD15R,1.550000X1.300000*%
%TD*%
%TA.AperFunction,SMDPad,CuDef*%
%ADD16R,1.470000X1.020000*%
%TD*%
%TA.AperFunction,SMDPad,CuDef*%
%ADD17RoundRect,0.250000X-0.262500X-0.450000X0.262500X-0.450000X0.262500X0.450000X-0.262500X0.450000X0*%
%TD*%
%TA.AperFunction,SMDPad,CuDef*%
%ADD18RoundRect,0.250000X-0.450000X0.262500X-0.450000X-0.262500X0.450000X-0.262500X0.450000X0.262500X0*%
%TD*%
%TA.AperFunction,SMDPad,CuDef*%
%ADD19RoundRect,0.250000X0.262500X0.450000X-0.262500X0.450000X-0.262500X-0.450000X0.262500X-0.450000X0*%
%TD*%
%TA.AperFunction,SMDPad,CuDef*%
%ADD20R,0.350000X0.575000*%
%TD*%
%TA.AperFunction,SMDPad,CuDef*%
%ADD21R,0.575000X0.350000*%
%TD*%
%TA.AperFunction,SMDPad,CuDef*%
%ADD22RoundRect,0.075000X-0.662500X-0.075000X0.662500X-0.075000X0.662500X0.075000X-0.662500X0.075000X0*%
%TD*%
%TA.AperFunction,SMDPad,CuDef*%
%ADD23RoundRect,0.075000X-0.075000X-0.662500X0.075000X-0.662500X0.075000X0.662500X-0.075000X0.662500X0*%
%TD*%
%TA.AperFunction,SMDPad,CuDef*%
%ADD24FreePoly0,0.000000*%
%TD*%
%TA.AperFunction,SMDPad,CuDef*%
%ADD25FreePoly1,0.000000*%
%TD*%
%TA.AperFunction,SMDPad,CuDef*%
%ADD26R,0.600000X1.100000*%
%TD*%
%TA.AperFunction,SMDPad,CuDef*%
%ADD27R,0.300000X1.100000*%
%TD*%
%TA.AperFunction,ComponentPad*%
%ADD28C,2.280000*%
%TD*%
%TA.AperFunction,ComponentPad*%
%ADD29C,2.850000*%
%TD*%
%TA.AperFunction,SMDPad,CuDef*%
%ADD30RoundRect,0.450000X-1.300000X-0.450000X1.300000X-0.450000X1.300000X0.450000X-1.300000X0.450000X0*%
%TD*%
%TA.AperFunction,ComponentPad*%
%ADD31C,1.300000*%
%TD*%
%TA.AperFunction,ComponentPad*%
%ADD32C,1.575000*%
%TD*%
%TA.AperFunction,ViaPad*%
%ADD33C,0.800000*%
%TD*%
%TA.AperFunction,ViaPad*%
%ADD34C,0.850000*%
%TD*%
%TA.AperFunction,Conductor*%
%ADD35C,0.250000*%
%TD*%
%TA.AperFunction,Conductor*%
%ADD36C,0.200000*%
%TD*%
%TA.AperFunction,Conductor*%
%ADD37C,0.350000*%
%TD*%
G04 APERTURE END LIST*
D10*
%TO.P,LED_Red_bms1,1,K*%
%TO.N,Net-(LED_Red_bms1-K)*%
X155092500Y-128150000D03*
%TO.P,LED_Red_bms1,2,A*%
%TO.N,BMS_Vcc*%
X155092500Y-126250000D03*
%TD*%
%TO.P,LED_green_bms1,1,K*%
%TO.N,Net-(LED_green_bms1-K)*%
X157600000Y-128150000D03*
%TO.P,LED_green_bms1,2,A*%
%TO.N,BMS_Vcc*%
X157600000Y-126250000D03*
%TD*%
D11*
%TO.P,R19,1*%
%TO.N,Net-(R17-Pad2)*%
X155250000Y-117900000D03*
%TO.P,R19,2*%
%TO.N,uc_supply*%
X157150000Y-117900000D03*
%TD*%
%TO.P,R20,1*%
%TO.N,Net-(R18-Pad2)*%
X147349935Y-115678635D03*
%TO.P,R20,2*%
%TO.N,uc_supply*%
X149249935Y-115678635D03*
%TD*%
D12*
%TO.P,C3,1*%
%TO.N,Vgnd_main*%
X142400000Y-114400000D03*
%TO.P,C3,2*%
%TO.N,uc_supply*%
X144000000Y-114400000D03*
%TD*%
D11*
%TO.P,R18,1*%
%TO.N,S_a*%
X150399935Y-124900000D03*
%TO.P,R18,2*%
%TO.N,Net-(R18-Pad2)*%
X152299935Y-124900000D03*
%TD*%
D13*
%TO.P,J1,1,-MCLR/VPP*%
%TO.N,uc_supply*%
X158900000Y-105265000D03*
%TO.P,J1,2,VDD*%
%TO.N,SWDIO*%
X158900000Y-106535000D03*
%TO.P,J1,3,GND*%
%TO.N,reset*%
X157630000Y-105265000D03*
%TO.P,J1,4,PGD_(ICSPDAT)*%
%TO.N,SWCLK*%
X157630000Y-106535000D03*
%TO.P,J1,5,PGC_(ICSPCLK)*%
%TO.N,Vgnd_main*%
X156360000Y-105265000D03*
%TO.P,J1,6,UNUSED/LVP*%
%TO.N,unconnected-(J1-UNUSED{slash}LVP-Pad6)*%
X156360000Y-106535000D03*
D14*
%TO.P,J1,7*%
%TO.N,N/C*%
X160170000Y-105900000D03*
%TO.P,J1,8*%
X155090000Y-106916000D03*
%TO.P,J1,9*%
X155090000Y-104884000D03*
%TD*%
D15*
%TO.P,S_b1,1,1*%
%TO.N,Net-(R17-Pad2)*%
X152025000Y-110950000D03*
%TO.P,S_b1,2,2*%
%TO.N,Vgnd_main*%
X152025000Y-115450000D03*
%TO.P,S_b1,3,3*%
%TO.N,Net-(R17-Pad2)*%
X159975000Y-110950000D03*
%TO.P,S_b1,4,4*%
%TO.N,Vgnd_main*%
X159975000Y-115450000D03*
%TD*%
D16*
%TO.P,C4,1*%
%TO.N,Vgnd_main*%
X133088000Y-103000000D03*
%TO.P,C4,2*%
%TO.N,uc_supply*%
X133088000Y-101400000D03*
%TD*%
D17*
%TO.P,R7,1*%
%TO.N,Vgnd_main*%
X137987500Y-98300000D03*
%TO.P,R7,2*%
%TO.N,Net-(JP1-B)*%
X139812500Y-98300000D03*
%TD*%
D18*
%TO.P,R5,1*%
%TO.N,uc_supply*%
X126288000Y-99087500D03*
%TO.P,R5,2*%
%TO.N,ISDS_SCL*%
X126288000Y-100912500D03*
%TD*%
D15*
%TO.P,S_left1,1,1*%
%TO.N,Net-(R10-Pad1)*%
X114625000Y-114500000D03*
%TO.P,S_left1,2,2*%
%TO.N,Vgnd_main*%
X114625000Y-119000000D03*
%TO.P,S_left1,3,3*%
%TO.N,Net-(R10-Pad1)*%
X122575000Y-114500000D03*
%TO.P,S_left1,4,4*%
%TO.N,Vgnd_main*%
X122575000Y-119000000D03*
%TD*%
D16*
%TO.P,C1,1*%
%TO.N,Vgnd_main*%
X134000000Y-108300000D03*
%TO.P,C1,2*%
%TO.N,uc_supply*%
X134000000Y-109900000D03*
%TD*%
D18*
%TO.P,R6,1*%
%TO.N,ISDS_SDA*%
X126288000Y-102675000D03*
%TO.P,R6,2*%
%TO.N,uc_supply*%
X126288000Y-104500000D03*
%TD*%
D19*
%TO.P,R8,1*%
%TO.N,BMS_Vcc*%
X151225000Y-102700000D03*
%TO.P,R8,2*%
%TO.N,USB_D+*%
X149400000Y-102700000D03*
%TD*%
D16*
%TO.P,C5,1*%
%TO.N,Vgnd_main*%
X135800000Y-101400000D03*
%TO.P,C5,2*%
%TO.N,uc_supply*%
X135800000Y-103000000D03*
%TD*%
D12*
%TO.P,C13,1*%
%TO.N,S_b*%
X155150000Y-108900000D03*
%TO.P,C13,2*%
%TO.N,Vgnd_main*%
X153550000Y-108900000D03*
%TD*%
D20*
%TO.P,IC1,1,SAO*%
%TO.N,uc_supply*%
X128950000Y-103063000D03*
%TO.P,IC1,2,RSVD_1*%
X129450000Y-103063000D03*
%TO.P,IC1,3,RSVD_2*%
X129950000Y-103063000D03*
%TO.P,IC1,4,INT_0*%
%TO.N,ISDS_int_0*%
X130450000Y-103063000D03*
D21*
%TO.P,IC1,5,VDD_IO*%
%TO.N,uc_supply*%
X130612000Y-102400000D03*
%TO.P,IC1,6,GND_1*%
%TO.N,Vgnd_main*%
X130612000Y-101900000D03*
%TO.P,IC1,7,GND_2*%
X130612000Y-101400000D03*
D20*
%TO.P,IC1,8,VDD*%
%TO.N,uc_supply*%
X130450000Y-100737000D03*
%TO.P,IC1,9,INT_1*%
%TO.N,ISDS_int_1*%
X129950000Y-100737000D03*
%TO.P,IC1,10,RSVD_3*%
%TO.N,unconnected-(IC1-RSVD_3-Pad10)*%
X129450000Y-100737000D03*
%TO.P,IC1,11,RSVD_4*%
%TO.N,uc_supply*%
X128950000Y-100737000D03*
D21*
%TO.P,IC1,12,CS*%
X128788000Y-101400000D03*
%TO.P,IC1,13,SCL*%
%TO.N,ISDS_SCL*%
X128788000Y-101900000D03*
%TO.P,IC1,14,SDA*%
%TO.N,ISDS_SDA*%
X128788000Y-102400000D03*
%TD*%
D22*
%TO.P,U2,1,VBAT*%
%TO.N,uc_supply*%
X136537500Y-104950000D03*
%TO.P,U2,2,PC13*%
%TO.N,unconnected-(U2-PC13-Pad2)*%
X136537500Y-105450000D03*
%TO.P,U2,3,PC14*%
%TO.N,unconnected-(U2-PC14-Pad3)*%
X136537500Y-105950000D03*
%TO.P,U2,4,PC15*%
%TO.N,unconnected-(U2-PC15-Pad4)*%
X136537500Y-106450000D03*
%TO.P,U2,5,PD0*%
%TO.N,OSC1*%
X136537500Y-106950000D03*
%TO.P,U2,6,PD1*%
%TO.N,OSC2*%
X136537500Y-107450000D03*
%TO.P,U2,7,NRST*%
%TO.N,reset*%
X136537500Y-107950000D03*
%TO.P,U2,8,VSSA*%
%TO.N,Vgnd_main*%
X136537500Y-108450000D03*
%TO.P,U2,9,VDDA*%
%TO.N,uc_supply*%
X136537500Y-108950000D03*
%TO.P,U2,10,PA0*%
%TO.N,S_up*%
X136537500Y-109450000D03*
%TO.P,U2,11,PA1*%
%TO.N,S_down*%
X136537500Y-109950000D03*
%TO.P,U2,12,PA2*%
%TO.N,S_right*%
X136537500Y-110450000D03*
D23*
%TO.P,U2,13,PA3*%
%TO.N,S_left*%
X137950000Y-111862500D03*
%TO.P,U2,14,PA4*%
%TO.N,S_a*%
X138450000Y-111862500D03*
%TO.P,U2,15,PA5*%
%TO.N,S_b*%
X138950000Y-111862500D03*
%TO.P,U2,16,PA6*%
%TO.N,PWM_display*%
X139450000Y-111862500D03*
%TO.P,U2,17,PA7*%
%TO.N,unconnected-(U2-PA7-Pad17)*%
X139950000Y-111862500D03*
%TO.P,U2,18,PB0*%
%TO.N,bat_meas*%
X140450000Y-111862500D03*
%TO.P,U2,19,PB1*%
%TO.N,unconnected-(U2-PB1-Pad19)*%
X140950000Y-111862500D03*
%TO.P,U2,20,PB2*%
%TO.N,uc_enable_display*%
X141450000Y-111862500D03*
%TO.P,U2,21,PB10*%
%TO.N,unconnected-(U2-PB10-Pad21)*%
X141950000Y-111862500D03*
%TO.P,U2,22,PB11*%
%TO.N,unconnected-(U2-PB11-Pad22)*%
X142450000Y-111862500D03*
%TO.P,U2,23,VSS*%
%TO.N,Vgnd_main*%
X142950000Y-111862500D03*
%TO.P,U2,24,VDD*%
%TO.N,uc_supply*%
X143450000Y-111862500D03*
D22*
%TO.P,U2,25,PB12*%
%TO.N,unconnected-(U2-PB12-Pad25)*%
X144862500Y-110450000D03*
%TO.P,U2,26,PB13*%
%TO.N,unconnected-(U2-PB13-Pad26)*%
X144862500Y-109950000D03*
%TO.P,U2,27,PB14*%
%TO.N,Buzzer*%
X144862500Y-109450000D03*
%TO.P,U2,28,PB15*%
%TO.N,unconnected-(U2-PB15-Pad28)*%
X144862500Y-108950000D03*
%TO.P,U2,29,PA8*%
%TO.N,unconnected-(U2-PA8-Pad29)*%
X144862500Y-108450000D03*
%TO.P,U2,30,PA9*%
%TO.N,unconnected-(U2-PA9-Pad30)*%
X144862500Y-107950000D03*
%TO.P,U2,31,PA10*%
%TO.N,unconnected-(U2-PA10-Pad31)*%
X144862500Y-107450000D03*
%TO.P,U2,32,PA11*%
%TO.N,USB_D-*%
X144862500Y-106950000D03*
%TO.P,U2,33,PA12*%
%TO.N,USB_D+*%
X144862500Y-106450000D03*
%TO.P,U2,34,PA13*%
%TO.N,SWDIO*%
X144862500Y-105950000D03*
%TO.P,U2,35,VSS*%
%TO.N,Vgnd_main*%
X144862500Y-105450000D03*
%TO.P,U2,36,VDD*%
%TO.N,uc_supply*%
X144862500Y-104950000D03*
D23*
%TO.P,U2,37,PA14*%
%TO.N,SWCLK*%
X143450000Y-103537500D03*
%TO.P,U2,38,PA15*%
%TO.N,unconnected-(U2-PA15-Pad38)*%
X142950000Y-103537500D03*
%TO.P,U2,39,PB3*%
%TO.N,meas_bat_en*%
X142450000Y-103537500D03*
%TO.P,U2,40,PB4*%
%TO.N,ISDS_int_1*%
X141950000Y-103537500D03*
%TO.P,U2,41,PB5*%
%TO.N,ISDS_int_0*%
X141450000Y-103537500D03*
%TO.P,U2,42,PB6*%
%TO.N,ISDS_SCL*%
X140950000Y-103537500D03*
%TO.P,U2,43,PB7*%
%TO.N,ISDS_SDA*%
X140450000Y-103537500D03*
%TO.P,U2,44,BOOT0*%
%TO.N,Net-(JP1-B)*%
X139950000Y-103537500D03*
%TO.P,U2,45,PB8*%
%TO.N,unconnected-(U2-PB8-Pad45)*%
X139450000Y-103537500D03*
%TO.P,U2,46,PB9*%
%TO.N,unconnected-(U2-PB9-Pad46)*%
X138950000Y-103537500D03*
%TO.P,U2,47,VSS*%
%TO.N,Vgnd_main*%
X138450000Y-103537500D03*
%TO.P,U2,48,VDD*%
%TO.N,uc_supply*%
X137950000Y-103537500D03*
%TD*%
D24*
%TO.P,JP1,1,A*%
%TO.N,uc_supply*%
X138300000Y-100600000D03*
D25*
%TO.P,JP1,2,B*%
%TO.N,Net-(JP1-B)*%
X139600000Y-100600000D03*
%TD*%
D26*
%TO.P,J2,A1,GND_1*%
%TO.N,Vgnd_main*%
X135300000Y-123200000D03*
%TO.P,J2,A4,VBUS_1*%
%TO.N,BMS_Vcc*%
X136100000Y-123200000D03*
D27*
%TO.P,J2,A5,CC1*%
%TO.N,Net-(J2-CC1)*%
X137250000Y-123200000D03*
%TO.P,J2,A6,DP1*%
%TO.N,USB_D+*%
X138250000Y-123200000D03*
%TO.P,J2,A7,DN1*%
%TO.N,USB_D-*%
X138750000Y-123200000D03*
%TO.P,J2,A8,SBU1*%
%TO.N,unconnected-(J2-SBU1-PadA8)*%
X139750000Y-123200000D03*
D26*
%TO.P,J2,A9,VBUS_2*%
%TO.N,BMS_Vcc*%
X140900000Y-123200000D03*
%TO.P,J2,A12,GND_2*%
%TO.N,Vgnd_main*%
X141700000Y-123200000D03*
D27*
%TO.P,J2,B5,CC2*%
%TO.N,Net-(J2-CC2)*%
X140250000Y-123200000D03*
%TO.P,J2,B6,DP2*%
%TO.N,USB_D+*%
X139250000Y-123200000D03*
%TO.P,J2,B7,DN2*%
%TO.N,USB_D-*%
X137750000Y-123200000D03*
%TO.P,J2,B8,SBU2*%
%TO.N,unconnected-(J2-SBU2-PadB8)*%
X136750000Y-123200000D03*
D28*
%TO.P,J2,MH1,MH1*%
%TO.N,Vgnd_main*%
X132880000Y-124350000D03*
D29*
%TO.P,J2,MH2,MH2*%
X132880000Y-128350000D03*
%TO.P,J2,MH3,MH3*%
X144120000Y-128350000D03*
D28*
%TO.P,J2,MH4,MH4*%
X144120000Y-124350000D03*
%TD*%
D12*
%TO.P,C14,1*%
%TO.N,S_a*%
X148899935Y-124900000D03*
%TO.P,C14,2*%
%TO.N,Vgnd_main*%
X147299935Y-124900000D03*
%TD*%
%TO.P,C6,1*%
%TO.N,Vgnd_main*%
X147400000Y-102700000D03*
%TO.P,C6,2*%
%TO.N,uc_supply*%
X145800000Y-102700000D03*
%TD*%
D15*
%TO.P,S_right1,1,1*%
%TO.N,Net-(R15-Pad2)*%
X130575000Y-114500000D03*
%TO.P,S_right1,2,2*%
%TO.N,Vgnd_main*%
X130575000Y-119000000D03*
%TO.P,S_right1,3,3*%
%TO.N,Net-(R15-Pad2)*%
X138525000Y-114500000D03*
%TO.P,S_right1,4,4*%
%TO.N,Vgnd_main*%
X138525000Y-119000000D03*
%TD*%
%TO.P,S_down1,1,1*%
%TO.N,Net-(R11-Pad2)*%
X122625000Y-121292730D03*
%TO.P,S_down1,2,2*%
%TO.N,Vgnd_main*%
X122625000Y-125792730D03*
%TO.P,S_down1,3,3*%
%TO.N,Net-(R11-Pad2)*%
X130575000Y-121292730D03*
%TO.P,S_down1,4,4*%
%TO.N,Vgnd_main*%
X130575000Y-125792730D03*
%TD*%
D11*
%TO.P,R17,1*%
%TO.N,S_b*%
X156650000Y-108900000D03*
%TO.P,R17,2*%
%TO.N,Net-(R17-Pad2)*%
X158550000Y-108900000D03*
%TD*%
D12*
%TO.P,C2,1*%
%TO.N,Vgnd_main*%
X130500000Y-98300000D03*
%TO.P,C2,2*%
%TO.N,uc_supply*%
X128900000Y-98300000D03*
%TD*%
D30*
%TO.P,U1,1,Vdd_s1*%
%TO.N,display_main*%
X119000000Y-49990000D03*
%TO.P,U1,2,Vss_s1*%
%TO.N,Vgnd_main*%
X119000000Y-52530000D03*
%TO.P,U1,3,Vdi_s1*%
%TO.N,PWM_display*%
X119000000Y-55070000D03*
%TO.P,U1,4,Vdo_s1*%
%TO.N,Net-(U1-Vdi_s2)*%
X119000000Y-57610000D03*
%TO.P,U1,5,Vdd_s3*%
%TO.N,display_main*%
X119000000Y-66957200D03*
%TO.P,U1,6,Vss_s3*%
%TO.N,Vgnd_main*%
X119000000Y-69497200D03*
%TO.P,U1,7,Vdi_s3*%
%TO.N,Net-(U1-Vdi_s3)*%
X119000000Y-72037200D03*
%TO.P,U1,8,Vdo_s3*%
%TO.N,Net-(U1-Vdi_s4)*%
X119000000Y-74577200D03*
%TO.P,U1,9,Vdd_s5*%
%TO.N,display_main*%
X119000000Y-87226400D03*
%TO.P,U1,10,Vss_s5*%
%TO.N,Vgnd_main*%
X119000000Y-89817200D03*
%TO.P,U1,11,Vdi_s5*%
%TO.N,Net-(U1-Vdi_s5)*%
X119000000Y-92306400D03*
%TO.P,U1,12,Vdo_s5*%
%TO.N,unconnected-(U1-Vdo_s5-Pad12)*%
X119000000Y-94897200D03*
%TO.P,U1,13,Vdo_s2*%
%TO.N,Net-(U1-Vdi_s3)*%
X155576000Y-49990000D03*
%TO.P,U1,14,Vdi_s2*%
%TO.N,Net-(U1-Vdi_s2)*%
X155576000Y-52530000D03*
%TO.P,U1,15,Vss_s2*%
%TO.N,Vgnd_main*%
X155576000Y-55070000D03*
%TO.P,U1,16,Vdd_s2*%
%TO.N,display_main*%
X155576000Y-57610000D03*
%TO.P,U1,17,Vdo_s4*%
%TO.N,Net-(U1-Vdi_s6)*%
X155576000Y-66855600D03*
%TO.P,U1,18,Vdi_s4*%
%TO.N,Net-(U1-Vdi_s4)*%
X155576000Y-69395600D03*
%TO.P,U1,19,Vss_s4*%
%TO.N,Vgnd_main*%
X155576000Y-71935600D03*
%TO.P,U1,20,Vdd_s4*%
%TO.N,display_main*%
X155576000Y-74475600D03*
%TO.P,U1,21,Vdo_s6*%
%TO.N,Net-(U1-Vdi_s5)*%
X155576000Y-87277200D03*
%TO.P,U1,22,Vdi_s6*%
%TO.N,Net-(U1-Vdi_s6)*%
X155576000Y-89817200D03*
%TO.P,U1,23,Vss_s6*%
%TO.N,Vgnd_main*%
X155576000Y-92357200D03*
%TO.P,U1,24,Vdd_s6*%
%TO.N,display_main*%
X155576000Y-94897200D03*
%TD*%
D15*
%TO.P,S_up1,1,1*%
%TO.N,Net-(R12-Pad1)*%
X122625000Y-107950000D03*
%TO.P,S_up1,2,2*%
%TO.N,Vgnd_main*%
X122625000Y-112450000D03*
%TO.P,S_up1,3,3*%
%TO.N,Net-(R12-Pad1)*%
X130575000Y-107950000D03*
%TO.P,S_up1,4,4*%
%TO.N,Vgnd_main*%
X130575000Y-112450000D03*
%TD*%
%TO.P,S_a1,1,1*%
%TO.N,Net-(R18-Pad2)*%
X144125000Y-117650000D03*
%TO.P,S_a1,2,2*%
%TO.N,Vgnd_main*%
X144125000Y-122150000D03*
%TO.P,S_a1,3,3*%
%TO.N,Net-(R18-Pad2)*%
X152075000Y-117650000D03*
%TO.P,S_a1,4,4*%
%TO.N,Vgnd_main*%
X152075000Y-122150000D03*
%TD*%
D31*
%TO.P,LS1,1,+*%
%TO.N,Net-(LS1-+)*%
X116800000Y-105900000D03*
%TO.P,LS1,2,-*%
%TO.N,Vgnd_main*%
X124400000Y-105900000D03*
%TD*%
%TO.P,SW_Toggle1,1,1*%
%TO.N,Vdc_battery*%
X123275000Y-128050000D03*
%TO.P,SW_Toggle1,2,2*%
%TO.N,In_Vcc*%
X125775000Y-128050000D03*
%TO.P,SW_Toggle1,3,3*%
%TO.N,unconnected-(SW_Toggle1-Pad3)*%
X128275000Y-128050000D03*
%TD*%
D32*
%TO.P,J3,1,1*%
%TO.N,Vdc_battery*%
X158200000Y-98450000D03*
%TO.P,J3,2,2*%
%TO.N,Vgnd_main*%
X158200000Y-100950000D03*
%TD*%
D33*
%TO.N,uc_supply*%
X128700000Y-115300000D03*
X133600000Y-100300000D03*
X134500000Y-103700000D03*
X123400000Y-117100000D03*
X133100000Y-112000000D03*
X146700000Y-111700000D03*
X130625000Y-99700000D03*
X144000000Y-111400000D03*
X121900000Y-115900000D03*
X150000000Y-114300000D03*
X146300000Y-100275000D03*
X145600000Y-101600000D03*
X136500000Y-116100000D03*
X131200000Y-102800000D03*
X136100000Y-112900000D03*
%TO.N,OSC2*%
X135295158Y-107574999D03*
X126400000Y-105900000D03*
X132700000Y-106200000D03*
%TO.N,OSC1*%
X131400000Y-106600000D03*
D34*
%TO.N,In_Vcc*%
X148362347Y-114387653D03*
%TO.N,Vgnd_main*%
X120800000Y-112000000D03*
X152612071Y-114142775D03*
X154100000Y-122500000D03*
X128700000Y-121400000D03*
X124300000Y-80300000D03*
X160600000Y-126600000D03*
X155600000Y-103100000D03*
X157000000Y-80600000D03*
X148400000Y-103800000D03*
X153400000Y-107100000D03*
X122500000Y-117700000D03*
X131500000Y-113000000D03*
X138400000Y-105000000D03*
X131100000Y-117400000D03*
X142600000Y-108000000D03*
X149812294Y-109574142D03*
X132800000Y-107700000D03*
X136500000Y-100400000D03*
X124300000Y-113300000D03*
X160110254Y-116495644D03*
X137900000Y-120000000D03*
X139300000Y-116464998D03*
X131600000Y-103900000D03*
X118600000Y-120000000D03*
X140599406Y-113322354D03*
%TO.N,BMS_Vcc*%
X149900000Y-123300000D03*
X132000000Y-122400000D03*
X141041585Y-122137979D03*
X152300000Y-105500000D03*
X152900000Y-128500000D03*
%TO.N,display_main*%
X157650000Y-110150000D03*
X158000000Y-114050000D03*
X121700000Y-67000000D03*
X151500000Y-113900000D03*
X123200000Y-86400000D03*
X120700000Y-108600000D03*
X125715686Y-110715686D03*
X127500000Y-85700000D03*
X127500000Y-67200000D03*
D33*
%TO.N,Net-(LED_green_bms1-K)*%
X148200000Y-129600000D03*
%TO.N,Net-(IC_BMS_TP1-PROG)*%
X153356502Y-124920723D03*
X157600000Y-123800000D03*
%TO.N,Net-(IC3-FB)*%
X156100000Y-120500000D03*
X154050000Y-118599997D03*
%TO.N,uc_enable_display*%
X141600000Y-113100000D03*
X160200000Y-112650000D03*
%TO.N,Net-(LED_Red_bms1-K)*%
X145500000Y-125600000D03*
D34*
%TO.N,display_supply*%
X154750000Y-113775000D03*
X159900000Y-119000000D03*
X143600000Y-116300000D03*
X139950000Y-117726281D03*
D33*
%TO.N,SWDIO*%
X143300000Y-106800000D03*
X159000000Y-107500000D03*
X151000000Y-107900000D03*
X146200000Y-108000000D03*
%TO.N,reset*%
X138200000Y-108000000D03*
X157000000Y-104000000D03*
%TO.N,SWCLK*%
X158000000Y-107300000D03*
X157700000Y-103300000D03*
%TO.N,Net-(J2-CC1)*%
X136100000Y-118500000D03*
%TO.N,Net-(J2-CC2)*%
X136200000Y-119900000D03*
X132300000Y-120700000D03*
X139900002Y-118700000D03*
%TO.N,meas_bat_en*%
X142700000Y-105500000D03*
%TO.N,bat_meas*%
X149100000Y-98200000D03*
X140225735Y-109999998D03*
%TO.N,ISDS_SCL*%
X140800000Y-101400000D03*
X124800000Y-100900000D03*
%TO.N,ISDS_SDA*%
X124800000Y-102800000D03*
X140100000Y-105100000D03*
%TO.N,Net-(R10-Pad1)*%
X116500000Y-114200000D03*
%TO.N,USB_D+*%
X139533884Y-122133884D03*
X147276992Y-114376992D03*
X138400000Y-121500000D03*
%TO.N,USB_D-*%
X146416560Y-114000000D03*
X139475735Y-120375735D03*
%TO.N,Net-(R12-Pad1)*%
X125445668Y-113325000D03*
%TO.N,Net-(R11-Pad2)*%
X122700000Y-122400000D03*
X129636659Y-120983707D03*
%TO.N,Net-(R15-Pad2)*%
X136800000Y-114100000D03*
X132000000Y-114039998D03*
%TO.N,Net-(R18-Pad2)*%
X158004747Y-122254113D03*
X159000000Y-126125000D03*
X151500000Y-128300000D03*
X158900000Y-127800000D03*
%TO.N,Net-(R17-Pad2)*%
X147900000Y-118500000D03*
X149184015Y-110384015D03*
X146400000Y-117705002D03*
X152200000Y-111900000D03*
%TO.N,Net-(U1-Vdi_s5)*%
X124200000Y-92450000D03*
X152150000Y-86550000D03*
%TO.N,Net-(U1-Vdi_s3)*%
X138300000Y-70100000D03*
X122400000Y-71400000D03*
%TO.N,Net-(U1-Vdi_s2)*%
X122600000Y-57800000D03*
X149500000Y-52800000D03*
%TO.N,Net-(U1-Vdi_s6)*%
X152450000Y-89800000D03*
X147950000Y-70400000D03*
X147900000Y-88000000D03*
X152500000Y-66900000D03*
%TO.N,Net-(U1-Vdi_s4)*%
X122700000Y-75500000D03*
X151500000Y-69600000D03*
%TO.N,PWM_display*%
X139300000Y-109800000D03*
X123000000Y-55200000D03*
%TO.N,Buzzer*%
X141600000Y-109500000D03*
%TO.N,S_b*%
X155300000Y-110800000D03*
X138422503Y-109999998D03*
%TO.N,S_a*%
X148400000Y-123000000D03*
X142100000Y-117900000D03*
%TO.N,S_right*%
X135300000Y-116000000D03*
%TO.N,S_left*%
X119200000Y-110400000D03*
X136100000Y-112000000D03*
X131300000Y-111199998D03*
X116000000Y-113200000D03*
X123400000Y-109625000D03*
%TO.N,S_down*%
X131983988Y-119857302D03*
X127600000Y-124100000D03*
X127400000Y-120100000D03*
%TO.N,S_up*%
X132224786Y-112275214D03*
%TO.N,ISDS_int_0*%
X141325000Y-102200000D03*
X130700000Y-104900000D03*
%TO.N,ISDS_int_1*%
X129525000Y-99949498D03*
X142000000Y-100500000D03*
D34*
%TO.N,Vdc_battery*%
X125400000Y-97300000D03*
X149150000Y-128750000D03*
%TD*%
D35*
%TO.N,uc_supply*%
X158900000Y-105265000D02*
X158900000Y-103616116D01*
X136537500Y-104950000D02*
X136537500Y-103737500D01*
D36*
X123400000Y-117100000D02*
X123100000Y-117100000D01*
X144092590Y-104950000D02*
X143300000Y-105742590D01*
X142457410Y-110100000D02*
X141200000Y-110100000D01*
D35*
X130074500Y-102400000D02*
X129950000Y-102524500D01*
X137950000Y-103537500D02*
X137950000Y-100950000D01*
X138450000Y-108950000D02*
X139000000Y-108400000D01*
D36*
X135900000Y-115100000D02*
X135900000Y-113100000D01*
D35*
X128950000Y-100737000D02*
X128950000Y-101238000D01*
X128950000Y-103063000D02*
X129450000Y-103063000D01*
D36*
X121900000Y-115900000D02*
X122100000Y-115700000D01*
D35*
X133600000Y-100888000D02*
X133088000Y-101400000D01*
D36*
X140150000Y-108950000D02*
X139300000Y-108100000D01*
X132300000Y-111200000D02*
X132300000Y-109900000D01*
D35*
X130612000Y-102400000D02*
X130800000Y-102400000D01*
X136025000Y-103000000D02*
X138300000Y-100725000D01*
X155558884Y-100275000D02*
X146300000Y-100275000D01*
D36*
X128300000Y-115700000D02*
X128700000Y-115300000D01*
X149249935Y-115678635D02*
X149249935Y-115050065D01*
X143450000Y-111092590D02*
X142457410Y-110100000D01*
D35*
X139000000Y-108400000D02*
X139000000Y-108100000D01*
X135060000Y-108950000D02*
X134110000Y-109900000D01*
X137950000Y-103537500D02*
X136537500Y-104950000D01*
X130612000Y-102400000D02*
X130074500Y-102400000D01*
X130450000Y-100737000D02*
X130450000Y-100350000D01*
D36*
X140700000Y-109600000D02*
X140700000Y-109500000D01*
X135900000Y-113100000D02*
X136100000Y-112900000D01*
D35*
X128900000Y-98300000D02*
X128900000Y-100687000D01*
X129735000Y-99360000D02*
X128900000Y-98525000D01*
D36*
X139300000Y-108100000D02*
X139000000Y-108100000D01*
X122100000Y-115700000D02*
X128300000Y-115700000D01*
X140700000Y-109500000D02*
X140150000Y-108950000D01*
X136500000Y-115700000D02*
X135900000Y-115100000D01*
X135800000Y-103000000D02*
X135200000Y-103000000D01*
D35*
X126288000Y-99087500D02*
X128112500Y-99087500D01*
X130625000Y-99700000D02*
X130300000Y-99700000D01*
X130625000Y-99700000D02*
X130625000Y-100175000D01*
X128900000Y-98800000D02*
X128900000Y-98300000D01*
D36*
X149249935Y-115050065D02*
X150000000Y-114300000D01*
D35*
X139000000Y-108100000D02*
X139000000Y-106300000D01*
X145800000Y-102700000D02*
X145800000Y-101800000D01*
X136537500Y-103737500D02*
X135800000Y-103000000D01*
X130300000Y-99700000D02*
X129960000Y-99360000D01*
X129950000Y-102524500D02*
X129950000Y-103063000D01*
X138300000Y-100725000D02*
X138300000Y-100600000D01*
X145800000Y-101800000D02*
X145600000Y-101600000D01*
X157150000Y-117250000D02*
X157150000Y-117900000D01*
X145800000Y-104012500D02*
X145800000Y-102700000D01*
X128950000Y-101238000D02*
X128788000Y-101400000D01*
X128900000Y-100687000D02*
X128950000Y-100737000D01*
X128900000Y-98525000D02*
X128900000Y-98300000D01*
X129450000Y-103063000D02*
X129950000Y-103063000D01*
D36*
X135200000Y-103000000D02*
X134500000Y-103700000D01*
D35*
X150071300Y-116500000D02*
X156400000Y-116500000D01*
X128112500Y-99087500D02*
X128900000Y-98300000D01*
D36*
X144000000Y-112412500D02*
X143450000Y-111862500D01*
D35*
X139000000Y-106300000D02*
X138450000Y-105750000D01*
D36*
X133100000Y-112000000D02*
X132300000Y-111200000D01*
D35*
X126288000Y-104500000D02*
X127513000Y-104500000D01*
D36*
X143537500Y-111862500D02*
X144000000Y-111400000D01*
X143300000Y-105800000D02*
X140150000Y-108950000D01*
X143300000Y-105742590D02*
X143300000Y-105800000D01*
D35*
X135800000Y-103000000D02*
X136025000Y-103000000D01*
D36*
X141200000Y-110100000D02*
X140700000Y-109600000D01*
D35*
X136537500Y-108950000D02*
X135060000Y-108950000D01*
D36*
X144000000Y-114400000D02*
X144000000Y-112412500D01*
X132300000Y-109900000D02*
X132600000Y-109600000D01*
D35*
X137950000Y-100950000D02*
X138300000Y-100600000D01*
D36*
X132600000Y-109600000D02*
X133700000Y-109600000D01*
X136100000Y-112900000D02*
X136000000Y-113000000D01*
X143450000Y-111862500D02*
X143450000Y-111092590D01*
X123100000Y-117100000D02*
X121900000Y-115900000D01*
D35*
X133600000Y-100300000D02*
X133600000Y-100888000D01*
X138089339Y-105750000D02*
X137289339Y-104950000D01*
D36*
X136500000Y-116100000D02*
X136500000Y-115700000D01*
D35*
X137289339Y-104950000D02*
X136537500Y-104950000D01*
D36*
X133700000Y-109600000D02*
X134000000Y-109900000D01*
D35*
X127513000Y-104500000D02*
X128950000Y-103063000D01*
X149249935Y-115678635D02*
X150071300Y-116500000D01*
X144862500Y-104950000D02*
X145800000Y-104012500D01*
X130800000Y-102400000D02*
X131200000Y-102800000D01*
X158900000Y-103616116D02*
X155558884Y-100275000D01*
D36*
X143450000Y-111862500D02*
X143537500Y-111862500D01*
D35*
X134110000Y-109900000D02*
X134000000Y-109900000D01*
X136537500Y-108950000D02*
X138450000Y-108950000D01*
X138450000Y-105750000D02*
X138089339Y-105750000D01*
X129960000Y-99360000D02*
X129735000Y-99360000D01*
D36*
X144862500Y-104950000D02*
X144092590Y-104950000D01*
D35*
X130625000Y-100175000D02*
X130450000Y-100350000D01*
X156400000Y-116500000D02*
X157150000Y-117250000D01*
D36*
%TO.N,OSC2*%
X126400000Y-105900000D02*
X132400000Y-105900000D01*
X135295158Y-107574999D02*
X136412501Y-107574999D01*
X136412501Y-107574999D02*
X136537500Y-107450000D01*
X132400000Y-105900000D02*
X132700000Y-106200000D01*
D35*
%TO.N,OSC1*%
X131750000Y-106950000D02*
X131400000Y-106600000D01*
X136537500Y-106950000D02*
X131750000Y-106950000D01*
D36*
%TO.N,Vgnd_main*%
X144862500Y-105450000D02*
X145850000Y-105450000D01*
D37*
X152612071Y-114862929D02*
X152025000Y-115450000D01*
X125700000Y-81000000D02*
X125000000Y-81000000D01*
X115500000Y-54280001D02*
X115500000Y-67747199D01*
X125500000Y-66600000D02*
X122700000Y-69400000D01*
X157142800Y-92357200D02*
X159400000Y-90100000D01*
X118600000Y-120000000D02*
X117600000Y-119000000D01*
X131249500Y-101400000D02*
X131400000Y-101249500D01*
X136500000Y-99200000D02*
X137400000Y-98300000D01*
X141406383Y-114129331D02*
X140599406Y-113322354D01*
X124300000Y-113300000D02*
X125100000Y-114100000D01*
X142970000Y-123200000D02*
X144120000Y-124350000D01*
X115700000Y-88267199D02*
X115700000Y-71047201D01*
X137900000Y-119625000D02*
X138525000Y-119000000D01*
X155600000Y-103696016D02*
X155600000Y-103100000D01*
X119000000Y-52530000D02*
X123030000Y-52530000D01*
X117250001Y-52530000D02*
X115500000Y-54280001D01*
X157325999Y-55070000D02*
X155576000Y-55070000D01*
X133975000Y-103000000D02*
X133088000Y-103000000D01*
X132188000Y-103900000D02*
X133088000Y-103000000D01*
X115500000Y-67747199D02*
X117250001Y-69497200D01*
X138525000Y-117239998D02*
X139300000Y-116464998D01*
X155576000Y-92357200D02*
X157325999Y-92357200D01*
D36*
X145850000Y-105450000D02*
X146300000Y-105000000D01*
D37*
X147299935Y-124675000D02*
X147299935Y-124900000D01*
X141406383Y-114400000D02*
X141406383Y-114129331D01*
X160300000Y-95331201D02*
X160300000Y-98850000D01*
X119000000Y-52530000D02*
X117250001Y-52530000D01*
X141700000Y-123200000D02*
X142970000Y-123200000D01*
X119600000Y-119000000D02*
X122575000Y-119000000D01*
X155576000Y-92357200D02*
X157142800Y-92357200D01*
D36*
X146300000Y-104025000D02*
X147400000Y-102925000D01*
X122500000Y-118925000D02*
X122575000Y-119000000D01*
D37*
X157000000Y-80600000D02*
X159400000Y-80600000D01*
X124300000Y-113300000D02*
X123475000Y-113300000D01*
X131437270Y-125792730D02*
X132880000Y-124350000D01*
X135300000Y-123200000D02*
X134030000Y-123200000D01*
X130575000Y-119000000D02*
X130400000Y-119000000D01*
X160300000Y-98850000D02*
X158200000Y-100950000D01*
D36*
X138450000Y-103537500D02*
X138450000Y-104950000D01*
D37*
X146749935Y-124350000D02*
X144120000Y-124350000D01*
X152075000Y-122150000D02*
X153750000Y-122150000D01*
X117250001Y-69497200D02*
X115700000Y-71047201D01*
X153400000Y-108750000D02*
X153550000Y-108900000D01*
D36*
X146300000Y-105000000D02*
X146300000Y-104025000D01*
D37*
X144391365Y-124078635D02*
X144120000Y-124350000D01*
X159400000Y-74009601D02*
X157325999Y-71935600D01*
X131125000Y-113000000D02*
X130575000Y-112450000D01*
X138525000Y-119000000D02*
X138525000Y-117239998D01*
X142400000Y-114400000D02*
X141406383Y-114400000D01*
X122625000Y-125792730D02*
X130575000Y-125792730D01*
X130900000Y-101400000D02*
X132500000Y-103000000D01*
X160110254Y-116495644D02*
X160110254Y-115585254D01*
X125700000Y-72400000D02*
X125700000Y-81000000D01*
X144125000Y-124345000D02*
X144120000Y-124350000D01*
X130612000Y-101400000D02*
X131249500Y-101400000D01*
X136500000Y-100400000D02*
X136500000Y-99200000D01*
X122700000Y-69400000D02*
X122602800Y-69497200D01*
X130612000Y-101400000D02*
X130612000Y-101850000D01*
X131400000Y-99200000D02*
X130500000Y-98300000D01*
D36*
X142950000Y-111862500D02*
X142950000Y-113850000D01*
D37*
X156360000Y-104456016D02*
X155600000Y-103696016D01*
X122175000Y-112000000D02*
X122625000Y-112450000D01*
X119000000Y-89817200D02*
X117250001Y-89817200D01*
X152612071Y-114142775D02*
X152612071Y-114862929D01*
D36*
X142950000Y-113850000D02*
X142400000Y-114400000D01*
X134150000Y-108450000D02*
X134000000Y-108300000D01*
D37*
X118600000Y-120000000D02*
X119600000Y-119000000D01*
X123475000Y-113300000D02*
X122625000Y-112450000D01*
X130612000Y-101400000D02*
X130900000Y-101400000D01*
X152025000Y-115450000D02*
X159975000Y-115450000D01*
X125500000Y-55000000D02*
X125500000Y-66600000D01*
D36*
X147400000Y-102925000D02*
X147400000Y-102700000D01*
X136537500Y-108450000D02*
X134150000Y-108450000D01*
D37*
X123030000Y-52530000D02*
X125500000Y-55000000D01*
X125700000Y-86800000D02*
X122682800Y-89817200D01*
X160110254Y-115585254D02*
X159975000Y-115450000D01*
X135800000Y-101400000D02*
X135575000Y-101400000D01*
X159300000Y-69961599D02*
X159300000Y-57044001D01*
D36*
X147400000Y-102800000D02*
X148400000Y-103800000D01*
D37*
X157325999Y-71935600D02*
X159300000Y-69961599D01*
X128925000Y-114100000D02*
X130575000Y-112450000D01*
X132500000Y-103000000D02*
X133088000Y-103000000D01*
D36*
X122500000Y-117700000D02*
X122500000Y-118925000D01*
D37*
X159400000Y-80600000D02*
X159400000Y-74009601D01*
X125700000Y-81000000D02*
X125700000Y-86800000D01*
X128700000Y-120700000D02*
X128700000Y-121400000D01*
X117250001Y-69497200D02*
X119000000Y-69497200D01*
X120800000Y-112000000D02*
X122175000Y-112000000D01*
X122700000Y-69400000D02*
X125700000Y-72400000D01*
X130575000Y-125792730D02*
X131437270Y-125792730D01*
X122682800Y-89817200D02*
X119000000Y-89817200D01*
X131400000Y-101249500D02*
X131400000Y-99200000D01*
X130400000Y-119000000D02*
X128800000Y-120600000D01*
D36*
X136500000Y-100400000D02*
X136500000Y-100700000D01*
D37*
X159400000Y-90100000D02*
X159400000Y-80600000D01*
X153750000Y-122150000D02*
X154100000Y-122500000D01*
X144125000Y-122150000D02*
X144125000Y-124345000D01*
X156360000Y-105265000D02*
X156360000Y-104456016D01*
X130575000Y-119000000D02*
X130575000Y-117925000D01*
X157325999Y-92357200D02*
X160300000Y-95331201D01*
X117600000Y-119000000D02*
X114625000Y-119000000D01*
X131600000Y-103900000D02*
X132188000Y-103900000D01*
D36*
X134000000Y-108300000D02*
X133400000Y-108300000D01*
D37*
X125000000Y-81000000D02*
X124300000Y-80300000D01*
X134030000Y-123200000D02*
X132880000Y-124350000D01*
D36*
X133400000Y-108300000D02*
X132800000Y-107700000D01*
D37*
X159300000Y-57044001D02*
X157325999Y-55070000D01*
D36*
X147400000Y-102700000D02*
X147400000Y-102800000D01*
D37*
X135575000Y-101400000D02*
X133975000Y-103000000D01*
X117250001Y-89817200D02*
X115700000Y-88267199D01*
X125100000Y-114100000D02*
X128925000Y-114100000D01*
X131500000Y-113000000D02*
X131125000Y-113000000D01*
X157325999Y-71935600D02*
X155576000Y-71935600D01*
X153400000Y-107100000D02*
X153400000Y-108750000D01*
D36*
X136500000Y-100700000D02*
X135800000Y-101400000D01*
D37*
X152075000Y-122150000D02*
X144125000Y-122150000D01*
X128800000Y-120600000D02*
X128700000Y-120700000D01*
X137400000Y-98300000D02*
X137987500Y-98300000D01*
X122602800Y-69497200D02*
X119000000Y-69497200D01*
X130575000Y-117925000D02*
X131100000Y-117400000D01*
X137900000Y-120000000D02*
X137900000Y-119625000D01*
D36*
X138450000Y-104950000D02*
X138400000Y-105000000D01*
D37*
X147299935Y-124900000D02*
X146749935Y-124350000D01*
%TO.N,BMS_Vcc*%
X158375000Y-123475000D02*
X158375000Y-125475000D01*
X157600000Y-126250000D02*
X155092500Y-126250000D01*
X140900000Y-122300000D02*
X142200000Y-121000000D01*
X132000000Y-122500000D02*
X132000000Y-122400000D01*
X157278984Y-123025000D02*
X157925000Y-123025000D01*
X136000000Y-122300000D02*
X135800000Y-122100000D01*
X157003984Y-123300000D02*
X157278984Y-123025000D01*
X134352182Y-122100000D02*
X133652182Y-122800000D01*
X140900000Y-123200000D02*
X140900000Y-122300000D01*
X136100000Y-122500000D02*
X136000000Y-122400000D01*
X151225000Y-104425000D02*
X152300000Y-105500000D01*
X135800000Y-122100000D02*
X134352182Y-122100000D01*
X136000000Y-122400000D02*
X136000000Y-122300000D01*
X155253984Y-121000000D02*
X157278984Y-123025000D01*
X142200000Y-121000000D02*
X155253984Y-121000000D01*
X136100000Y-123200000D02*
X136100000Y-122500000D01*
X149900000Y-123300000D02*
X157003984Y-123300000D01*
X157925000Y-123025000D02*
X158375000Y-123475000D01*
X155092500Y-126307500D02*
X152900000Y-128500000D01*
X158375000Y-125475000D02*
X157600000Y-126250000D01*
X155092500Y-126250000D02*
X155092500Y-126307500D01*
X151225000Y-102700000D02*
X151225000Y-104425000D01*
X133652182Y-122800000D02*
X131700000Y-122800000D01*
X131700000Y-122800000D02*
X132000000Y-122500000D01*
%TO.N,display_main*%
X149400000Y-75900000D02*
X150600000Y-74700000D01*
D35*
X119000000Y-49990000D02*
X120749999Y-49990000D01*
D37*
X127500000Y-56222182D02*
X127500000Y-67200000D01*
X150600000Y-74700000D02*
X152500000Y-74700000D01*
X151890000Y-57610000D02*
X149700000Y-59800000D01*
X127500000Y-85700000D02*
X131200000Y-89400000D01*
X119000000Y-49990000D02*
X121267818Y-49990000D01*
X155576000Y-57610000D02*
X151890000Y-57610000D01*
X131500000Y-89400000D02*
X149400000Y-89400000D01*
X149400000Y-91800000D02*
X149400000Y-89400000D01*
X127500000Y-67200000D02*
X127500000Y-85700000D01*
X155576000Y-94897200D02*
X152497200Y-94897200D01*
X123200000Y-86400000D02*
X122373600Y-87226400D01*
X149700000Y-59800000D02*
X149700000Y-73800000D01*
X121700000Y-67000000D02*
X119042800Y-67000000D01*
X120700000Y-100200000D02*
X120700000Y-108600000D01*
X149700000Y-73800000D02*
X150600000Y-74700000D01*
X122373600Y-87226400D02*
X119000000Y-87226400D01*
X121267818Y-49990000D02*
X127500000Y-56222182D01*
X152497200Y-94897200D02*
X149400000Y-91800000D01*
X149400000Y-89400000D02*
X149400000Y-75900000D01*
X131200000Y-89400000D02*
X131500000Y-89400000D01*
X119042800Y-67000000D02*
X119000000Y-66957200D01*
X152724400Y-74475600D02*
X155576000Y-74475600D01*
X131500000Y-89400000D02*
X120700000Y-100200000D01*
X152500000Y-74700000D02*
X152724400Y-74475600D01*
D35*
%TO.N,Net-(LED_green_bms1-K)*%
X148700000Y-129700000D02*
X148300000Y-129700000D01*
X148300000Y-129700000D02*
X148200000Y-129600000D01*
X156050000Y-129700000D02*
X148700000Y-129700000D01*
X157600000Y-128150000D02*
X156050000Y-129700000D01*
%TO.N,Net-(IC_BMS_TP1-PROG)*%
X157300000Y-123800000D02*
X157600000Y-123800000D01*
X154477225Y-123800000D02*
X157300000Y-123800000D01*
X153356502Y-124920723D02*
X154477225Y-123800000D01*
%TO.N,Net-(IC3-FB)*%
X155100000Y-119900000D02*
X155700000Y-120500000D01*
X155700000Y-120500000D02*
X156100000Y-120500000D01*
X154050000Y-118599997D02*
X155100000Y-119649997D01*
X155100000Y-119649997D02*
X155100000Y-119900000D01*
D36*
%TO.N,uc_enable_display*%
X141450000Y-111862500D02*
X141450000Y-112950000D01*
X141450000Y-112950000D02*
X141600000Y-113100000D01*
D35*
%TO.N,Net-(LED_Red_bms1-K)*%
X153992500Y-129250000D02*
X150950000Y-129250000D01*
X155092500Y-128150000D02*
X153992500Y-129250000D01*
X150950000Y-129250000D02*
X148800000Y-127100000D01*
X148800000Y-127100000D02*
X147000000Y-127100000D01*
X147000000Y-127100000D02*
X145500000Y-125600000D01*
%TO.N,SWDIO*%
X151000000Y-107900000D02*
X150100000Y-108800000D01*
X144150000Y-105950000D02*
X144862500Y-105950000D01*
X143300000Y-106800000D02*
X144150000Y-105950000D01*
X158900000Y-106535000D02*
X158900000Y-107400000D01*
X158900000Y-107400000D02*
X159000000Y-107500000D01*
X150100000Y-108800000D02*
X147000000Y-108800000D01*
X147000000Y-108800000D02*
X146200000Y-108000000D01*
D36*
%TO.N,reset*%
X157630000Y-105265000D02*
X157630000Y-104630000D01*
X157630000Y-104630000D02*
X157000000Y-104000000D01*
X138150000Y-107950000D02*
X138200000Y-108000000D01*
X136537500Y-107950000D02*
X138150000Y-107950000D01*
D35*
%TO.N,SWCLK*%
X158000000Y-106905000D02*
X157630000Y-106535000D01*
X158000000Y-107300000D02*
X158000000Y-106905000D01*
X155300000Y-100900000D02*
X157700000Y-103300000D01*
X144600000Y-100900000D02*
X155300000Y-100900000D01*
X143450000Y-103537500D02*
X143450000Y-102050000D01*
X143450000Y-102050000D02*
X144600000Y-100900000D01*
%TO.N,Net-(J2-CC1)*%
X137250000Y-123200000D02*
X137250000Y-120810661D01*
X136825000Y-120335661D02*
X136825000Y-119225000D01*
X136800000Y-120360661D02*
X136825000Y-120335661D01*
X136825000Y-119225000D02*
X136100000Y-118500000D01*
X137250000Y-120810661D02*
X136800000Y-120360661D01*
%TO.N,Net-(J2-CC2)*%
X136200000Y-119900000D02*
X133100000Y-119900000D01*
X140250000Y-119049998D02*
X139900002Y-118700000D01*
X140250000Y-123200000D02*
X140250000Y-119049998D01*
X133100000Y-119900000D02*
X132300000Y-120700000D01*
%TO.N,Net-(JP1-B)*%
X139950000Y-103537500D02*
X139950000Y-100950000D01*
X139600000Y-98512500D02*
X139812500Y-98300000D01*
X139950000Y-100950000D02*
X139600000Y-100600000D01*
X139600000Y-100600000D02*
X139600000Y-98512500D01*
%TO.N,meas_bat_en*%
X142450000Y-105250000D02*
X142700000Y-105500000D01*
X142450000Y-103537500D02*
X142450000Y-105250000D01*
D36*
%TO.N,bat_meas*%
X140225735Y-109999998D02*
X140450000Y-110224263D01*
X140450000Y-110224263D02*
X140450000Y-111862500D01*
D35*
%TO.N,ISDS_SCL*%
X128788000Y-101900000D02*
X128300000Y-101900000D01*
D36*
X126275500Y-100900000D02*
X126288000Y-100912500D01*
X124800000Y-100900000D02*
X126275500Y-100900000D01*
D35*
X127312500Y-100912500D02*
X126288000Y-100912500D01*
D36*
X140950000Y-102673529D02*
X140725000Y-102448529D01*
X140725000Y-102448529D02*
X140725000Y-101475000D01*
X140725000Y-101475000D02*
X140800000Y-101400000D01*
D35*
X128300000Y-101900000D02*
X127312500Y-100912500D01*
D36*
X140950000Y-103537500D02*
X140950000Y-102673529D01*
%TO.N,ISDS_SDA*%
X126163000Y-102800000D02*
X126288000Y-102675000D01*
X140450000Y-104750000D02*
X140100000Y-105100000D01*
X124800000Y-102800000D02*
X126163000Y-102800000D01*
D35*
X126563000Y-102400000D02*
X126288000Y-102675000D01*
D36*
X140450000Y-103537500D02*
X140450000Y-104750000D01*
D35*
X128788000Y-102400000D02*
X126563000Y-102400000D01*
%TO.N,Net-(R10-Pad1)*%
X122575000Y-114500000D02*
X116800000Y-114500000D01*
X116800000Y-114500000D02*
X116500000Y-114200000D01*
X116500000Y-114200000D02*
X114925000Y-114200000D01*
X114925000Y-114200000D02*
X114625000Y-114500000D01*
D36*
%TO.N,USB_D+*%
X149300000Y-105000000D02*
X149300000Y-102800000D01*
D35*
X138250000Y-121650000D02*
X138400000Y-121500000D01*
X138250000Y-123200000D02*
X138250000Y-121650000D01*
D36*
X150900000Y-110753984D02*
X150900000Y-110000000D01*
D35*
X139533884Y-122133884D02*
X139250000Y-122417768D01*
D36*
X150900000Y-110000000D02*
X151500000Y-109400000D01*
D35*
X139250000Y-122417768D02*
X139250000Y-123200000D01*
D36*
X147475000Y-105000000D02*
X149300000Y-105000000D01*
X149300000Y-102800000D02*
X149400000Y-102700000D01*
X152100000Y-109400000D02*
X152500000Y-109000000D01*
D35*
X146025000Y-106450000D02*
X144862500Y-106450000D01*
X147475000Y-105000000D02*
X146025000Y-106450000D01*
D36*
X152500000Y-109000000D02*
X152500000Y-107400000D01*
X150100000Y-105000000D02*
X149300000Y-105000000D01*
X151500000Y-109400000D02*
X152100000Y-109400000D01*
X147276992Y-114376992D02*
X150900000Y-110753984D01*
X152500000Y-107400000D02*
X150100000Y-105000000D01*
D35*
%TO.N,USB_D-*%
X139100000Y-121683884D02*
X139100000Y-120800000D01*
X137750000Y-123200000D02*
X137750000Y-121266116D01*
D36*
X151600000Y-108816560D02*
X151600000Y-107651471D01*
X139100000Y-120800000D02*
X139475735Y-120424265D01*
D35*
X137750000Y-121266116D02*
X138216116Y-120800000D01*
D36*
X150898529Y-106950000D02*
X150948529Y-107000000D01*
X144862500Y-106950000D02*
X150898529Y-106950000D01*
X146416560Y-114000000D02*
X151600000Y-108816560D01*
X151600000Y-107651471D02*
X150948529Y-107000000D01*
D35*
X138216116Y-120800000D02*
X139100000Y-120800000D01*
D36*
X139475735Y-120424265D02*
X139475735Y-120375735D01*
D35*
X138750000Y-123200000D02*
X138750000Y-122033884D01*
X138750000Y-122033884D02*
X139100000Y-121683884D01*
D36*
%TO.N,Net-(R12-Pad1)*%
X125445668Y-113325000D02*
X125445668Y-113245668D01*
X125445668Y-113245668D02*
X122625000Y-110425000D01*
X130575000Y-107950000D02*
X122625000Y-107950000D01*
X122625000Y-110425000D02*
X122625000Y-107950000D01*
D35*
%TO.N,Net-(R11-Pad2)*%
X122700000Y-121367730D02*
X122625000Y-121292730D01*
X129945682Y-121292730D02*
X129636659Y-120983707D01*
X130575000Y-121292730D02*
X129945682Y-121292730D01*
X122700000Y-122400000D02*
X122700000Y-121367730D01*
%TO.N,Net-(R15-Pad2)*%
X130575000Y-114500000D02*
X131539998Y-114500000D01*
X137200000Y-114500000D02*
X136800000Y-114100000D01*
X138525000Y-114500000D02*
X137200000Y-114500000D01*
X131539998Y-114500000D02*
X132000000Y-114039998D01*
%TO.N,Net-(R18-Pad2)*%
X152299935Y-124900000D02*
X151500000Y-125699935D01*
D36*
X147349935Y-117650065D02*
X146694998Y-118305002D01*
D35*
X155975000Y-116950000D02*
X156400000Y-117375000D01*
D36*
X147349935Y-115678635D02*
X147349935Y-117650065D01*
X146694998Y-118305002D02*
X145905002Y-118305002D01*
D35*
X151500000Y-125699935D02*
X151500000Y-128300000D01*
X152075000Y-117650000D02*
X149321300Y-117650000D01*
D36*
X147349935Y-115678635D02*
X147221365Y-115678635D01*
X158900000Y-127800000D02*
X158900000Y-126300000D01*
X145250000Y-117650000D02*
X144125000Y-117650000D01*
D35*
X153150000Y-117650000D02*
X153850000Y-116950000D01*
X156400000Y-117375000D02*
X156400000Y-119200000D01*
X152075000Y-117650000D02*
X153150000Y-117650000D01*
D36*
X159000000Y-126200000D02*
X159000000Y-126125000D01*
X156400000Y-119200000D02*
X158004747Y-120804747D01*
X158004747Y-120804747D02*
X158004747Y-122254113D01*
D35*
X149321300Y-117650000D02*
X147349935Y-115678635D01*
X153850000Y-116950000D02*
X155975000Y-116950000D01*
D36*
X145905002Y-118305002D02*
X145250000Y-117650000D01*
X158900000Y-126300000D02*
X159000000Y-126200000D01*
D35*
%TO.N,Net-(R17-Pad2)*%
X153866113Y-117900000D02*
X153241113Y-118525000D01*
D36*
X152750000Y-110950000D02*
X152025000Y-110950000D01*
X148625000Y-118525000D02*
X148600000Y-118500000D01*
D35*
X145791560Y-115691560D02*
X145791560Y-113741116D01*
D36*
X153500000Y-111700000D02*
X152750000Y-110950000D01*
X148600000Y-118500000D02*
X147900000Y-118500000D01*
X159975000Y-110325000D02*
X158550000Y-108900000D01*
D35*
X155250000Y-117900000D02*
X153866113Y-117900000D01*
X149032676Y-110500000D02*
X149300000Y-110500000D01*
D36*
X159975000Y-110950000D02*
X159975000Y-110325000D01*
X145791560Y-115691560D02*
X146400000Y-116300000D01*
D35*
X145791560Y-113741116D02*
X149032676Y-110500000D01*
D36*
X159975000Y-110950000D02*
X159225000Y-111700000D01*
D35*
X152200000Y-111900000D02*
X152200000Y-111125000D01*
D36*
X146400000Y-116300000D02*
X146400000Y-117705002D01*
D35*
X153241113Y-118525000D02*
X148625000Y-118525000D01*
D36*
X159225000Y-111700000D02*
X153500000Y-111700000D01*
D35*
X149300000Y-110500000D02*
X149184015Y-110384015D01*
X152200000Y-111125000D02*
X152025000Y-110950000D01*
D37*
%TO.N,Net-(U1-Vdi_s5)*%
X119000000Y-92306400D02*
X124056400Y-92306400D01*
X155576000Y-87277200D02*
X152877200Y-87277200D01*
X124056400Y-92306400D02*
X124200000Y-92450000D01*
X152877200Y-87277200D02*
X152150000Y-86550000D01*
D35*
%TO.N,Net-(U1-Vdi_s3)*%
X148600000Y-49900000D02*
X139900000Y-58600000D01*
X139900000Y-59200000D02*
X139900000Y-68500000D01*
X122400000Y-71400000D02*
X121900000Y-71400000D01*
X139900000Y-58600000D02*
X139900000Y-59200000D01*
X154820000Y-49900000D02*
X148600000Y-49900000D01*
X121900000Y-71400000D02*
X121262800Y-72037200D01*
X139900000Y-68500000D02*
X138300000Y-70100000D01*
X121262800Y-72037200D02*
X119000000Y-72037200D01*
X155576000Y-49990000D02*
X154910000Y-49990000D01*
X154910000Y-49990000D02*
X154820000Y-49900000D01*
%TO.N,Net-(U1-Vdi_s2)*%
X149500000Y-52800000D02*
X149770000Y-52530000D01*
X122410000Y-57610000D02*
X122600000Y-57800000D01*
X149770000Y-52530000D02*
X155576000Y-52530000D01*
X119000000Y-57610000D02*
X122410000Y-57610000D01*
D36*
%TO.N,Net-(U1-Vdi_s6)*%
X152582800Y-89817200D02*
X152565600Y-89800000D01*
D37*
X147900000Y-88000000D02*
X147900000Y-70450000D01*
D35*
X155576000Y-66855600D02*
X152544400Y-66855600D01*
X155576000Y-89817200D02*
X152582800Y-89817200D01*
D36*
X152565600Y-89800000D02*
X152450000Y-89800000D01*
D35*
X152544400Y-66855600D02*
X152500000Y-66900000D01*
D37*
X147900000Y-70450000D02*
X147950000Y-70400000D01*
D35*
%TO.N,Net-(U1-Vdi_s4)*%
X119000000Y-74577200D02*
X121777200Y-74577200D01*
X121777200Y-74577200D02*
X122700000Y-75500000D01*
X155576000Y-69395600D02*
X151704400Y-69395600D01*
X151704400Y-69395600D02*
X151500000Y-69600000D01*
D37*
%TO.N,PWM_display*%
X139450000Y-109950000D02*
X139300000Y-109800000D01*
X122870000Y-55070000D02*
X119000000Y-55070000D01*
X139450000Y-111862500D02*
X139450000Y-109950000D01*
X123000000Y-55200000D02*
X122870000Y-55070000D01*
D36*
%TO.N,Buzzer*%
X142150000Y-109450000D02*
X144862500Y-109450000D01*
X142100000Y-109500000D02*
X142150000Y-109450000D01*
X141600000Y-109500000D02*
X142100000Y-109500000D01*
%TO.N,S_b*%
X138950000Y-110527495D02*
X138422503Y-109999998D01*
X155150000Y-108900000D02*
X155300000Y-109050000D01*
X155300000Y-109050000D02*
X155300000Y-110800000D01*
X138950000Y-111862500D02*
X138950000Y-110527495D01*
X156650000Y-108900000D02*
X155150000Y-108900000D01*
D35*
%TO.N,S_a*%
X148899935Y-124900000D02*
X148899935Y-123499935D01*
X138800000Y-113500000D02*
X138500000Y-113200000D01*
X139400000Y-113500000D02*
X138800000Y-113500000D01*
X140400000Y-117100000D02*
X140400000Y-114500000D01*
X138500000Y-112900000D02*
X138450000Y-112850000D01*
X140400000Y-114500000D02*
X139400000Y-113500000D01*
X138450000Y-112850000D02*
X138450000Y-111862500D01*
X140400000Y-117100000D02*
X141200000Y-117900000D01*
X138500000Y-113200000D02*
X138500000Y-112900000D01*
X141200000Y-117900000D02*
X142100000Y-117900000D01*
X148899935Y-123499935D02*
X148400000Y-123000000D01*
X148899935Y-124900000D02*
X150399935Y-124900000D01*
%TO.N,S_right*%
X136537500Y-110450000D02*
X135300000Y-111687500D01*
X135300000Y-111687500D02*
X135300000Y-116000000D01*
D36*
%TO.N,S_left*%
X137950000Y-111862500D02*
X136237500Y-111862500D01*
X136237500Y-111862500D02*
X136100000Y-112000000D01*
X118000002Y-111199998D02*
X116000000Y-113200000D01*
D37*
X123400000Y-109625000D02*
X129725002Y-109625000D01*
D36*
X118400002Y-111199998D02*
X119200000Y-110400000D01*
X118000002Y-111199998D02*
X118400002Y-111199998D01*
D37*
X129725002Y-109625000D02*
X131300000Y-111199998D01*
D36*
%TO.N,S_down*%
X135800001Y-109950000D02*
X135300000Y-110450001D01*
X135300000Y-111227880D02*
X132600000Y-113927880D01*
X132600000Y-119241290D02*
X131983988Y-119857302D01*
X127400000Y-120100000D02*
X127600000Y-120300000D01*
X135300000Y-110450001D02*
X135300000Y-111227880D01*
X127600000Y-120300000D02*
X127600000Y-124100000D01*
X136537500Y-109950000D02*
X135800001Y-109950000D01*
X132600000Y-113927880D02*
X132600000Y-119241290D01*
%TO.N,S_up*%
X134935000Y-111013529D02*
X134935000Y-110315001D01*
X135800001Y-109450000D02*
X136537500Y-109450000D01*
X133348529Y-112600000D02*
X134935000Y-111013529D01*
X132549572Y-112600000D02*
X133348529Y-112600000D01*
X132224786Y-112275214D02*
X132549572Y-112600000D01*
X134935000Y-110315001D02*
X135800001Y-109450000D01*
%TO.N,ISDS_int_0*%
X141450000Y-103537500D02*
X141450000Y-102325000D01*
X141450000Y-102325000D02*
X141325000Y-102200000D01*
X130700000Y-103313000D02*
X130450000Y-103063000D01*
X130700000Y-104900000D02*
X130700000Y-103313000D01*
D35*
%TO.N,ISDS_int_1*%
X129950000Y-100374498D02*
X129525000Y-99949498D01*
X141950000Y-101050000D02*
X141950000Y-103537500D01*
X142000000Y-101000000D02*
X141950000Y-101050000D01*
X142000000Y-100500000D02*
X142000000Y-101000000D01*
X129950000Y-100737000D02*
X129950000Y-100374498D01*
%TD*%
M02*
