%TF.GenerationSoftware,KiCad,Pcbnew,8.0.8*%
%TF.CreationDate,2025-02-11T19:44:29+01:00*%
%TF.ProjectId,PixelBytesHost,50697865-6c42-4797-9465-73486f73742e,rev?*%
%TF.SameCoordinates,Original*%
%TF.FileFunction,Legend,Top*%
%TF.FilePolarity,Positive*%
%FSLAX46Y46*%
G04 Gerber Fmt 4.6, Leading zero omitted, Abs format (unit mm)*
G04 Created by KiCad (PCBNEW 8.0.8) date 2025-02-11 19:44:29*
%MOMM*%
%LPD*%
G01*
G04 APERTURE LIST*
G04 Aperture macros list*
%AMRoundRect*
0 Rectangle with rounded corners*
0 $1 Rounding radius*
0 $2 $3 $4 $5 $6 $7 $8 $9 X,Y pos of 4 corners*
0 Add a 4 corners polygon primitive as box body*
4,1,4,$2,$3,$4,$5,$6,$7,$8,$9,$2,$3,0*
0 Add four circle primitives for the rounded corners*
1,1,$1+$1,$2,$3*
1,1,$1+$1,$4,$5*
1,1,$1+$1,$6,$7*
1,1,$1+$1,$8,$9*
0 Add four rect primitives between the rounded corners*
20,1,$1+$1,$2,$3,$4,$5,0*
20,1,$1+$1,$4,$5,$6,$7,0*
20,1,$1+$1,$6,$7,$8,$9,0*
20,1,$1+$1,$8,$9,$2,$3,0*%
%AMFreePoly0*
4,1,35,0.535355,0.785355,0.550000,0.750000,0.550000,-0.750000,0.535355,-0.785355,0.500000,-0.800000,0.000000,-0.800000,-0.012286,-0.794911,-0.071157,-0.794911,-0.085244,-0.792886,-0.221795,-0.752791,-0.234740,-0.746879,-0.354462,-0.669938,-0.365217,-0.660618,-0.458414,-0.553063,-0.466109,-0.541091,-0.525228,-0.411637,-0.529237,-0.397982,-0.549491,-0.257116,-0.550000,-0.250000,-0.550000,0.250000,
-0.549491,0.257116,-0.529237,0.397982,-0.525228,0.411637,-0.466109,0.541091,-0.458414,0.553063,-0.365217,0.660618,-0.354462,0.669938,-0.234740,0.746879,-0.221795,0.752791,-0.085244,0.792886,-0.071157,0.794911,-0.012286,0.794911,0.000000,0.800000,0.500000,0.800000,0.535355,0.785355,0.535355,0.785355,$1*%
%AMFreePoly1*
4,1,35,0.012286,0.794911,0.071157,0.794911,0.085244,0.792886,0.221795,0.752791,0.234740,0.746879,0.354462,0.669938,0.365217,0.660618,0.458414,0.553063,0.466109,0.541091,0.525228,0.411637,0.529237,0.397982,0.549491,0.257116,0.550000,0.250000,0.550000,-0.250000,0.549491,-0.257116,0.529237,-0.397982,0.525228,-0.411637,0.466109,-0.541091,0.458414,-0.553063,0.365217,-0.660618,
0.354462,-0.669938,0.234740,-0.746879,0.221795,-0.752791,0.085244,-0.792886,0.071157,-0.794911,0.012286,-0.794911,0.000000,-0.800000,-0.500000,-0.800000,-0.535355,-0.785355,-0.550000,-0.750000,-0.550000,0.750000,-0.535355,0.785355,-0.500000,0.800000,0.000000,0.800000,0.012286,0.794911,0.012286,0.794911,$1*%
G04 Aperture macros list end*
%ADD10C,0.150000*%
%ADD11C,0.200000*%
%ADD12C,0.120000*%
%ADD13C,0.254000*%
%ADD14C,0.100000*%
%ADD15C,0.010000*%
%ADD16RoundRect,0.050000X0.700000X-0.450000X0.700000X0.450000X-0.700000X0.450000X-0.700000X-0.450000X0*%
%ADD17RoundRect,0.274390X-0.288110X-0.475610X0.288110X-0.475610X0.288110X0.475610X-0.288110X0.475610X0*%
%ADD18RoundRect,0.050000X-0.510000X-0.735000X0.510000X-0.735000X0.510000X0.735000X-0.510000X0.735000X0*%
%ADD19C,0.989000*%
%ADD20C,1.650000*%
%ADD21RoundRect,0.050000X0.775000X-0.650000X0.775000X0.650000X-0.775000X0.650000X-0.775000X-0.650000X0*%
%ADD22RoundRect,0.050000X0.735000X-0.510000X0.735000X0.510000X-0.735000X0.510000X-0.735000X-0.510000X0*%
%ADD23RoundRect,0.274390X-0.475610X0.288110X-0.475610X-0.288110X0.475610X-0.288110X0.475610X0.288110X0*%
%ADD24RoundRect,0.050000X-0.735000X0.510000X-0.735000X-0.510000X0.735000X-0.510000X0.735000X0.510000X0*%
%ADD25RoundRect,0.274390X0.288110X0.475610X-0.288110X0.475610X-0.288110X-0.475610X0.288110X-0.475610X0*%
%ADD26RoundRect,0.050000X0.510000X0.735000X-0.510000X0.735000X-0.510000X-0.735000X0.510000X-0.735000X0*%
%ADD27C,0.750000*%
%ADD28RoundRect,0.102000X-0.150000X-0.575000X0.150000X-0.575000X0.150000X0.575000X-0.150000X0.575000X0*%
%ADD29O,1.204000X2.304000*%
%ADD30O,1.204000X2.004000*%
%ADD31RoundRect,0.050000X0.175000X0.287500X-0.175000X0.287500X-0.175000X-0.287500X0.175000X-0.287500X0*%
%ADD32RoundRect,0.050000X0.287500X-0.175000X0.287500X0.175000X-0.287500X0.175000X-0.287500X-0.175000X0*%
%ADD33RoundRect,0.100000X-0.687500X-0.100000X0.687500X-0.100000X0.687500X0.100000X-0.687500X0.100000X0*%
%ADD34RoundRect,0.100000X-0.100000X-0.687500X0.100000X-0.687500X0.100000X0.687500X-0.100000X0.687500X0*%
%ADD35FreePoly0,0.000000*%
%ADD36FreePoly1,0.000000*%
%ADD37RoundRect,0.050000X-0.450000X-0.700000X0.450000X-0.700000X0.450000X0.700000X-0.450000X0.700000X0*%
%ADD38RoundRect,0.475000X-1.325000X-0.475000X1.325000X-0.475000X1.325000X0.475000X-1.325000X0.475000X0*%
%ADD39C,1.400000*%
%ADD40C,1.675000*%
G04 APERTURE END LIST*
D10*
X138278743Y-110869809D02*
X138413430Y-110802465D01*
X138413430Y-110802465D02*
X138581789Y-110634107D01*
X138581789Y-110634107D02*
X138615461Y-110533091D01*
X138615461Y-110533091D02*
X138615461Y-110465748D01*
X138615461Y-110465748D02*
X138581789Y-110364733D01*
X138581789Y-110364733D02*
X138514445Y-110297389D01*
X138514445Y-110297389D02*
X138413430Y-110263717D01*
X138413430Y-110263717D02*
X138346087Y-110263717D01*
X138346087Y-110263717D02*
X138245071Y-110297389D01*
X138245071Y-110297389D02*
X138076713Y-110398404D01*
X138076713Y-110398404D02*
X137975697Y-110432076D01*
X137975697Y-110432076D02*
X137908354Y-110432076D01*
X137908354Y-110432076D02*
X137807339Y-110398404D01*
X137807339Y-110398404D02*
X137739995Y-110331061D01*
X137739995Y-110331061D02*
X137706323Y-110230046D01*
X137706323Y-110230046D02*
X137706323Y-110162702D01*
X137706323Y-110162702D02*
X137739995Y-110061687D01*
X137739995Y-110061687D02*
X137908354Y-109893328D01*
X137908354Y-109893328D02*
X138043041Y-109825984D01*
X138211400Y-109590282D02*
X138615461Y-109186221D01*
X139120537Y-110095358D02*
X138413430Y-109388252D01*
X139558270Y-109657626D02*
X138851163Y-108950519D01*
X138851163Y-108950519D02*
X139591942Y-109219893D01*
X139591942Y-109219893D02*
X139322568Y-108479114D01*
X139322568Y-108479114D02*
X140029674Y-109186221D01*
X139591941Y-108209740D02*
X140029674Y-107772008D01*
X140029674Y-107772008D02*
X140063346Y-108277084D01*
X140063346Y-108277084D02*
X140164361Y-108176069D01*
X140164361Y-108176069D02*
X140265376Y-108142397D01*
X140265376Y-108142397D02*
X140332720Y-108142397D01*
X140332720Y-108142397D02*
X140433735Y-108176069D01*
X140433735Y-108176069D02*
X140602094Y-108344427D01*
X140602094Y-108344427D02*
X140635766Y-108445443D01*
X140635766Y-108445443D02*
X140635766Y-108512786D01*
X140635766Y-108512786D02*
X140602094Y-108613801D01*
X140602094Y-108613801D02*
X140400063Y-108815832D01*
X140400063Y-108815832D02*
X140299048Y-108849504D01*
X140299048Y-108849504D02*
X140231705Y-108849504D01*
X140366392Y-107569977D02*
X140366392Y-107502633D01*
X140366392Y-107502633D02*
X140400064Y-107401618D01*
X140400064Y-107401618D02*
X140568422Y-107233259D01*
X140568422Y-107233259D02*
X140669438Y-107199588D01*
X140669438Y-107199588D02*
X140736781Y-107199588D01*
X140736781Y-107199588D02*
X140837796Y-107233259D01*
X140837796Y-107233259D02*
X140905140Y-107300603D01*
X140905140Y-107300603D02*
X140972483Y-107435290D01*
X140972483Y-107435290D02*
X140972483Y-108243412D01*
X140972483Y-108243412D02*
X141410216Y-107805679D01*
X141578575Y-106896542D02*
X141342873Y-107132244D01*
X141713262Y-107502633D02*
X141006155Y-106795527D01*
X141006155Y-106795527D02*
X141342873Y-106458809D01*
X141746934Y-106054748D02*
X141814277Y-105987405D01*
X141814277Y-105987405D02*
X141915292Y-105953733D01*
X141915292Y-105953733D02*
X141982636Y-105953733D01*
X141982636Y-105953733D02*
X142083651Y-105987405D01*
X142083651Y-105987405D02*
X142252010Y-106088420D01*
X142252010Y-106088420D02*
X142420369Y-106256779D01*
X142420369Y-106256779D02*
X142521384Y-106425137D01*
X142521384Y-106425137D02*
X142555056Y-106526153D01*
X142555056Y-106526153D02*
X142555056Y-106593496D01*
X142555056Y-106593496D02*
X142521384Y-106694511D01*
X142521384Y-106694511D02*
X142454040Y-106761855D01*
X142454040Y-106761855D02*
X142353025Y-106795527D01*
X142353025Y-106795527D02*
X142285682Y-106795527D01*
X142285682Y-106795527D02*
X142184666Y-106761855D01*
X142184666Y-106761855D02*
X142016308Y-106660840D01*
X142016308Y-106660840D02*
X141847949Y-106492481D01*
X141847949Y-106492481D02*
X141746934Y-106324122D01*
X141746934Y-106324122D02*
X141713262Y-106223107D01*
X141713262Y-106223107D02*
X141713262Y-106155763D01*
X141713262Y-106155763D02*
X141746934Y-106054748D01*
X143363178Y-105852718D02*
X142959117Y-106256779D01*
X143161147Y-106054748D02*
X142454041Y-105347641D01*
X142454041Y-105347641D02*
X142487712Y-105516000D01*
X142487712Y-105516000D02*
X142487712Y-105650687D01*
X142487712Y-105650687D02*
X142454041Y-105751702D01*
X142891773Y-104909908D02*
X143329506Y-104472176D01*
X143329506Y-104472176D02*
X143363178Y-104977252D01*
X143363178Y-104977252D02*
X143464193Y-104876237D01*
X143464193Y-104876237D02*
X143565208Y-104842565D01*
X143565208Y-104842565D02*
X143632552Y-104842565D01*
X143632552Y-104842565D02*
X143733567Y-104876237D01*
X143733567Y-104876237D02*
X143901926Y-105044595D01*
X143901926Y-105044595D02*
X143935598Y-105145611D01*
X143935598Y-105145611D02*
X143935598Y-105212954D01*
X143935598Y-105212954D02*
X143901926Y-105313969D01*
X143901926Y-105313969D02*
X143699895Y-105516000D01*
X143699895Y-105516000D02*
X143598880Y-105549672D01*
X143598880Y-105549672D02*
X143531537Y-105549672D01*
X154189160Y-124922200D02*
X154332017Y-124969819D01*
X154332017Y-124969819D02*
X154570112Y-124969819D01*
X154570112Y-124969819D02*
X154665350Y-124922200D01*
X154665350Y-124922200D02*
X154712969Y-124874580D01*
X154712969Y-124874580D02*
X154760588Y-124779342D01*
X154760588Y-124779342D02*
X154760588Y-124684104D01*
X154760588Y-124684104D02*
X154712969Y-124588866D01*
X154712969Y-124588866D02*
X154665350Y-124541247D01*
X154665350Y-124541247D02*
X154570112Y-124493628D01*
X154570112Y-124493628D02*
X154379636Y-124446009D01*
X154379636Y-124446009D02*
X154284398Y-124398390D01*
X154284398Y-124398390D02*
X154236779Y-124350771D01*
X154236779Y-124350771D02*
X154189160Y-124255533D01*
X154189160Y-124255533D02*
X154189160Y-124160295D01*
X154189160Y-124160295D02*
X154236779Y-124065057D01*
X154236779Y-124065057D02*
X154284398Y-124017438D01*
X154284398Y-124017438D02*
X154379636Y-123969819D01*
X154379636Y-123969819D02*
X154617731Y-123969819D01*
X154617731Y-123969819D02*
X154760588Y-124017438D01*
X155046303Y-124303152D02*
X155427255Y-124303152D01*
X155189160Y-123969819D02*
X155189160Y-124826961D01*
X155189160Y-124826961D02*
X155236779Y-124922200D01*
X155236779Y-124922200D02*
X155332017Y-124969819D01*
X155332017Y-124969819D02*
X155427255Y-124969819D01*
X156189160Y-124969819D02*
X156189160Y-124446009D01*
X156189160Y-124446009D02*
X156141541Y-124350771D01*
X156141541Y-124350771D02*
X156046303Y-124303152D01*
X156046303Y-124303152D02*
X155855827Y-124303152D01*
X155855827Y-124303152D02*
X155760589Y-124350771D01*
X156189160Y-124922200D02*
X156093922Y-124969819D01*
X156093922Y-124969819D02*
X155855827Y-124969819D01*
X155855827Y-124969819D02*
X155760589Y-124922200D01*
X155760589Y-124922200D02*
X155712970Y-124826961D01*
X155712970Y-124826961D02*
X155712970Y-124731723D01*
X155712970Y-124731723D02*
X155760589Y-124636485D01*
X155760589Y-124636485D02*
X155855827Y-124588866D01*
X155855827Y-124588866D02*
X156093922Y-124588866D01*
X156093922Y-124588866D02*
X156189160Y-124541247D01*
X156522494Y-124303152D02*
X156903446Y-124303152D01*
X156665351Y-123969819D02*
X156665351Y-124826961D01*
X156665351Y-124826961D02*
X156712970Y-124922200D01*
X156712970Y-124922200D02*
X156808208Y-124969819D01*
X156808208Y-124969819D02*
X156903446Y-124969819D01*
X157665351Y-124303152D02*
X157665351Y-124969819D01*
X157236780Y-124303152D02*
X157236780Y-124826961D01*
X157236780Y-124826961D02*
X157284399Y-124922200D01*
X157284399Y-124922200D02*
X157379637Y-124969819D01*
X157379637Y-124969819D02*
X157522494Y-124969819D01*
X157522494Y-124969819D02*
X157617732Y-124922200D01*
X157617732Y-124922200D02*
X157665351Y-124874580D01*
X158093923Y-124922200D02*
X158189161Y-124969819D01*
X158189161Y-124969819D02*
X158379637Y-124969819D01*
X158379637Y-124969819D02*
X158474875Y-124922200D01*
X158474875Y-124922200D02*
X158522494Y-124826961D01*
X158522494Y-124826961D02*
X158522494Y-124779342D01*
X158522494Y-124779342D02*
X158474875Y-124684104D01*
X158474875Y-124684104D02*
X158379637Y-124636485D01*
X158379637Y-124636485D02*
X158236780Y-124636485D01*
X158236780Y-124636485D02*
X158141542Y-124588866D01*
X158141542Y-124588866D02*
X158093923Y-124493628D01*
X158093923Y-124493628D02*
X158093923Y-124446009D01*
X158093923Y-124446009D02*
X158141542Y-124350771D01*
X158141542Y-124350771D02*
X158236780Y-124303152D01*
X158236780Y-124303152D02*
X158379637Y-124303152D01*
X158379637Y-124303152D02*
X158474875Y-124350771D01*
X114559875Y-73263220D02*
X113559875Y-73263220D01*
X113559875Y-73263220D02*
X113559875Y-72882268D01*
X113559875Y-72882268D02*
X113607494Y-72787030D01*
X113607494Y-72787030D02*
X113655113Y-72739411D01*
X113655113Y-72739411D02*
X113750351Y-72691792D01*
X113750351Y-72691792D02*
X113893208Y-72691792D01*
X113893208Y-72691792D02*
X113988446Y-72739411D01*
X113988446Y-72739411D02*
X114036065Y-72787030D01*
X114036065Y-72787030D02*
X114083684Y-72882268D01*
X114083684Y-72882268D02*
X114083684Y-73263220D01*
X114559875Y-72263220D02*
X113893208Y-72263220D01*
X113559875Y-72263220D02*
X113607494Y-72310839D01*
X113607494Y-72310839D02*
X113655113Y-72263220D01*
X113655113Y-72263220D02*
X113607494Y-72215601D01*
X113607494Y-72215601D02*
X113559875Y-72263220D01*
X113559875Y-72263220D02*
X113655113Y-72263220D01*
X114559875Y-71882268D02*
X113893208Y-71358459D01*
X113893208Y-71882268D02*
X114559875Y-71358459D01*
X114512256Y-70596554D02*
X114559875Y-70691792D01*
X114559875Y-70691792D02*
X114559875Y-70882268D01*
X114559875Y-70882268D02*
X114512256Y-70977506D01*
X114512256Y-70977506D02*
X114417017Y-71025125D01*
X114417017Y-71025125D02*
X114036065Y-71025125D01*
X114036065Y-71025125D02*
X113940827Y-70977506D01*
X113940827Y-70977506D02*
X113893208Y-70882268D01*
X113893208Y-70882268D02*
X113893208Y-70691792D01*
X113893208Y-70691792D02*
X113940827Y-70596554D01*
X113940827Y-70596554D02*
X114036065Y-70548935D01*
X114036065Y-70548935D02*
X114131303Y-70548935D01*
X114131303Y-70548935D02*
X114226541Y-71025125D01*
X114559875Y-69977506D02*
X114512256Y-70072744D01*
X114512256Y-70072744D02*
X114417017Y-70120363D01*
X114417017Y-70120363D02*
X113559875Y-70120363D01*
X114036065Y-68501315D02*
X114083684Y-68358458D01*
X114083684Y-68358458D02*
X114131303Y-68310839D01*
X114131303Y-68310839D02*
X114226541Y-68263220D01*
X114226541Y-68263220D02*
X114369398Y-68263220D01*
X114369398Y-68263220D02*
X114464636Y-68310839D01*
X114464636Y-68310839D02*
X114512256Y-68358458D01*
X114512256Y-68358458D02*
X114559875Y-68453696D01*
X114559875Y-68453696D02*
X114559875Y-68834648D01*
X114559875Y-68834648D02*
X113559875Y-68834648D01*
X113559875Y-68834648D02*
X113559875Y-68501315D01*
X113559875Y-68501315D02*
X113607494Y-68406077D01*
X113607494Y-68406077D02*
X113655113Y-68358458D01*
X113655113Y-68358458D02*
X113750351Y-68310839D01*
X113750351Y-68310839D02*
X113845589Y-68310839D01*
X113845589Y-68310839D02*
X113940827Y-68358458D01*
X113940827Y-68358458D02*
X113988446Y-68406077D01*
X113988446Y-68406077D02*
X114036065Y-68501315D01*
X114036065Y-68501315D02*
X114036065Y-68834648D01*
X113893208Y-67929886D02*
X114559875Y-67691791D01*
X113893208Y-67453696D02*
X114559875Y-67691791D01*
X114559875Y-67691791D02*
X114797970Y-67787029D01*
X114797970Y-67787029D02*
X114845589Y-67834648D01*
X114845589Y-67834648D02*
X114893208Y-67929886D01*
X113893208Y-67215600D02*
X113893208Y-66834648D01*
X113559875Y-67072743D02*
X114417017Y-67072743D01*
X114417017Y-67072743D02*
X114512256Y-67025124D01*
X114512256Y-67025124D02*
X114559875Y-66929886D01*
X114559875Y-66929886D02*
X114559875Y-66834648D01*
X114512256Y-66120362D02*
X114559875Y-66215600D01*
X114559875Y-66215600D02*
X114559875Y-66406076D01*
X114559875Y-66406076D02*
X114512256Y-66501314D01*
X114512256Y-66501314D02*
X114417017Y-66548933D01*
X114417017Y-66548933D02*
X114036065Y-66548933D01*
X114036065Y-66548933D02*
X113940827Y-66501314D01*
X113940827Y-66501314D02*
X113893208Y-66406076D01*
X113893208Y-66406076D02*
X113893208Y-66215600D01*
X113893208Y-66215600D02*
X113940827Y-66120362D01*
X113940827Y-66120362D02*
X114036065Y-66072743D01*
X114036065Y-66072743D02*
X114131303Y-66072743D01*
X114131303Y-66072743D02*
X114226541Y-66548933D01*
X114512256Y-65691790D02*
X114559875Y-65596552D01*
X114559875Y-65596552D02*
X114559875Y-65406076D01*
X114559875Y-65406076D02*
X114512256Y-65310838D01*
X114512256Y-65310838D02*
X114417017Y-65263219D01*
X114417017Y-65263219D02*
X114369398Y-65263219D01*
X114369398Y-65263219D02*
X114274160Y-65310838D01*
X114274160Y-65310838D02*
X114226541Y-65406076D01*
X114226541Y-65406076D02*
X114226541Y-65548933D01*
X114226541Y-65548933D02*
X114178922Y-65644171D01*
X114178922Y-65644171D02*
X114083684Y-65691790D01*
X114083684Y-65691790D02*
X114036065Y-65691790D01*
X114036065Y-65691790D02*
X113940827Y-65644171D01*
X113940827Y-65644171D02*
X113893208Y-65548933D01*
X113893208Y-65548933D02*
X113893208Y-65406076D01*
X113893208Y-65406076D02*
X113940827Y-65310838D01*
X114559875Y-64072742D02*
X113559875Y-64072742D01*
X114036065Y-64072742D02*
X114036065Y-63501314D01*
X114559875Y-63501314D02*
X113559875Y-63501314D01*
X114559875Y-62882266D02*
X114512256Y-62977504D01*
X114512256Y-62977504D02*
X114464636Y-63025123D01*
X114464636Y-63025123D02*
X114369398Y-63072742D01*
X114369398Y-63072742D02*
X114083684Y-63072742D01*
X114083684Y-63072742D02*
X113988446Y-63025123D01*
X113988446Y-63025123D02*
X113940827Y-62977504D01*
X113940827Y-62977504D02*
X113893208Y-62882266D01*
X113893208Y-62882266D02*
X113893208Y-62739409D01*
X113893208Y-62739409D02*
X113940827Y-62644171D01*
X113940827Y-62644171D02*
X113988446Y-62596552D01*
X113988446Y-62596552D02*
X114083684Y-62548933D01*
X114083684Y-62548933D02*
X114369398Y-62548933D01*
X114369398Y-62548933D02*
X114464636Y-62596552D01*
X114464636Y-62596552D02*
X114512256Y-62644171D01*
X114512256Y-62644171D02*
X114559875Y-62739409D01*
X114559875Y-62739409D02*
X114559875Y-62882266D01*
X114512256Y-62167980D02*
X114559875Y-62072742D01*
X114559875Y-62072742D02*
X114559875Y-61882266D01*
X114559875Y-61882266D02*
X114512256Y-61787028D01*
X114512256Y-61787028D02*
X114417017Y-61739409D01*
X114417017Y-61739409D02*
X114369398Y-61739409D01*
X114369398Y-61739409D02*
X114274160Y-61787028D01*
X114274160Y-61787028D02*
X114226541Y-61882266D01*
X114226541Y-61882266D02*
X114226541Y-62025123D01*
X114226541Y-62025123D02*
X114178922Y-62120361D01*
X114178922Y-62120361D02*
X114083684Y-62167980D01*
X114083684Y-62167980D02*
X114036065Y-62167980D01*
X114036065Y-62167980D02*
X113940827Y-62120361D01*
X113940827Y-62120361D02*
X113893208Y-62025123D01*
X113893208Y-62025123D02*
X113893208Y-61882266D01*
X113893208Y-61882266D02*
X113940827Y-61787028D01*
X113893208Y-61453694D02*
X113893208Y-61072742D01*
X113559875Y-61310837D02*
X114417017Y-61310837D01*
X114417017Y-61310837D02*
X114512256Y-61263218D01*
X114512256Y-61263218D02*
X114559875Y-61167980D01*
X114559875Y-61167980D02*
X114559875Y-61072742D01*
X113559875Y-60120360D02*
X114559875Y-59787027D01*
X114559875Y-59787027D02*
X113559875Y-59453694D01*
X114559875Y-58596551D02*
X114559875Y-59167979D01*
X114559875Y-58882265D02*
X113559875Y-58882265D01*
X113559875Y-58882265D02*
X113702732Y-58977503D01*
X113702732Y-58977503D02*
X113797970Y-59072741D01*
X113797970Y-59072741D02*
X113845589Y-59167979D01*
X114464636Y-58167979D02*
X114512256Y-58120360D01*
X114512256Y-58120360D02*
X114559875Y-58167979D01*
X114559875Y-58167979D02*
X114512256Y-58215598D01*
X114512256Y-58215598D02*
X114464636Y-58167979D01*
X114464636Y-58167979D02*
X114559875Y-58167979D01*
X113655113Y-57739408D02*
X113607494Y-57691789D01*
X113607494Y-57691789D02*
X113559875Y-57596551D01*
X113559875Y-57596551D02*
X113559875Y-57358456D01*
X113559875Y-57358456D02*
X113607494Y-57263218D01*
X113607494Y-57263218D02*
X113655113Y-57215599D01*
X113655113Y-57215599D02*
X113750351Y-57167980D01*
X113750351Y-57167980D02*
X113845589Y-57167980D01*
X113845589Y-57167980D02*
X113988446Y-57215599D01*
X113988446Y-57215599D02*
X114559875Y-57787027D01*
X114559875Y-57787027D02*
X114559875Y-57167980D01*
X113559875Y-56263218D02*
X113559875Y-56739408D01*
X113559875Y-56739408D02*
X114036065Y-56787027D01*
X114036065Y-56787027D02*
X113988446Y-56739408D01*
X113988446Y-56739408D02*
X113940827Y-56644170D01*
X113940827Y-56644170D02*
X113940827Y-56406075D01*
X113940827Y-56406075D02*
X113988446Y-56310837D01*
X113988446Y-56310837D02*
X114036065Y-56263218D01*
X114036065Y-56263218D02*
X114131303Y-56215599D01*
X114131303Y-56215599D02*
X114369398Y-56215599D01*
X114369398Y-56215599D02*
X114464636Y-56263218D01*
X114464636Y-56263218D02*
X114512256Y-56310837D01*
X114512256Y-56310837D02*
X114559875Y-56406075D01*
X114559875Y-56406075D02*
X114559875Y-56644170D01*
X114559875Y-56644170D02*
X114512256Y-56739408D01*
X114512256Y-56739408D02*
X114464636Y-56787027D01*
X114178922Y-55025122D02*
X114178922Y-54263218D01*
X113655113Y-53072741D02*
X113607494Y-53025122D01*
X113607494Y-53025122D02*
X113559875Y-52929884D01*
X113559875Y-52929884D02*
X113559875Y-52691789D01*
X113559875Y-52691789D02*
X113607494Y-52596551D01*
X113607494Y-52596551D02*
X113655113Y-52548932D01*
X113655113Y-52548932D02*
X113750351Y-52501313D01*
X113750351Y-52501313D02*
X113845589Y-52501313D01*
X113845589Y-52501313D02*
X113988446Y-52548932D01*
X113988446Y-52548932D02*
X114559875Y-53120360D01*
X114559875Y-53120360D02*
X114559875Y-52501313D01*
X113559875Y-51882265D02*
X113559875Y-51787027D01*
X113559875Y-51787027D02*
X113607494Y-51691789D01*
X113607494Y-51691789D02*
X113655113Y-51644170D01*
X113655113Y-51644170D02*
X113750351Y-51596551D01*
X113750351Y-51596551D02*
X113940827Y-51548932D01*
X113940827Y-51548932D02*
X114178922Y-51548932D01*
X114178922Y-51548932D02*
X114369398Y-51596551D01*
X114369398Y-51596551D02*
X114464636Y-51644170D01*
X114464636Y-51644170D02*
X114512256Y-51691789D01*
X114512256Y-51691789D02*
X114559875Y-51787027D01*
X114559875Y-51787027D02*
X114559875Y-51882265D01*
X114559875Y-51882265D02*
X114512256Y-51977503D01*
X114512256Y-51977503D02*
X114464636Y-52025122D01*
X114464636Y-52025122D02*
X114369398Y-52072741D01*
X114369398Y-52072741D02*
X114178922Y-52120360D01*
X114178922Y-52120360D02*
X113940827Y-52120360D01*
X113940827Y-52120360D02*
X113750351Y-52072741D01*
X113750351Y-52072741D02*
X113655113Y-52025122D01*
X113655113Y-52025122D02*
X113607494Y-51977503D01*
X113607494Y-51977503D02*
X113559875Y-51882265D01*
X113655113Y-51167979D02*
X113607494Y-51120360D01*
X113607494Y-51120360D02*
X113559875Y-51025122D01*
X113559875Y-51025122D02*
X113559875Y-50787027D01*
X113559875Y-50787027D02*
X113607494Y-50691789D01*
X113607494Y-50691789D02*
X113655113Y-50644170D01*
X113655113Y-50644170D02*
X113750351Y-50596551D01*
X113750351Y-50596551D02*
X113845589Y-50596551D01*
X113845589Y-50596551D02*
X113988446Y-50644170D01*
X113988446Y-50644170D02*
X114559875Y-51215598D01*
X114559875Y-51215598D02*
X114559875Y-50596551D01*
X113559875Y-49691789D02*
X113559875Y-50167979D01*
X113559875Y-50167979D02*
X114036065Y-50215598D01*
X114036065Y-50215598D02*
X113988446Y-50167979D01*
X113988446Y-50167979D02*
X113940827Y-50072741D01*
X113940827Y-50072741D02*
X113940827Y-49834646D01*
X113940827Y-49834646D02*
X113988446Y-49739408D01*
X113988446Y-49739408D02*
X114036065Y-49691789D01*
X114036065Y-49691789D02*
X114131303Y-49644170D01*
X114131303Y-49644170D02*
X114369398Y-49644170D01*
X114369398Y-49644170D02*
X114464636Y-49691789D01*
X114464636Y-49691789D02*
X114512256Y-49739408D01*
X114512256Y-49739408D02*
X114559875Y-49834646D01*
X114559875Y-49834646D02*
X114559875Y-50072741D01*
X114559875Y-50072741D02*
X114512256Y-50167979D01*
X114512256Y-50167979D02*
X114464636Y-50215598D01*
X116169819Y-73263220D02*
X115169819Y-73263220D01*
X116169819Y-72834649D02*
X115646009Y-72834649D01*
X115646009Y-72834649D02*
X115550771Y-72882268D01*
X115550771Y-72882268D02*
X115503152Y-72977506D01*
X115503152Y-72977506D02*
X115503152Y-73120363D01*
X115503152Y-73120363D02*
X115550771Y-73215601D01*
X115550771Y-73215601D02*
X115598390Y-73263220D01*
X115503152Y-72501315D02*
X115503152Y-72120363D01*
X115169819Y-72358458D02*
X116026961Y-72358458D01*
X116026961Y-72358458D02*
X116122200Y-72310839D01*
X116122200Y-72310839D02*
X116169819Y-72215601D01*
X116169819Y-72215601D02*
X116169819Y-72120363D01*
X115503152Y-71929886D02*
X115503152Y-71548934D01*
X115169819Y-71787029D02*
X116026961Y-71787029D01*
X116026961Y-71787029D02*
X116122200Y-71739410D01*
X116122200Y-71739410D02*
X116169819Y-71644172D01*
X116169819Y-71644172D02*
X116169819Y-71548934D01*
X115503152Y-71215600D02*
X116503152Y-71215600D01*
X115550771Y-71215600D02*
X115503152Y-71120362D01*
X115503152Y-71120362D02*
X115503152Y-70929886D01*
X115503152Y-70929886D02*
X115550771Y-70834648D01*
X115550771Y-70834648D02*
X115598390Y-70787029D01*
X115598390Y-70787029D02*
X115693628Y-70739410D01*
X115693628Y-70739410D02*
X115979342Y-70739410D01*
X115979342Y-70739410D02*
X116074580Y-70787029D01*
X116074580Y-70787029D02*
X116122200Y-70834648D01*
X116122200Y-70834648D02*
X116169819Y-70929886D01*
X116169819Y-70929886D02*
X116169819Y-71120362D01*
X116169819Y-71120362D02*
X116122200Y-71215600D01*
X116122200Y-70358457D02*
X116169819Y-70263219D01*
X116169819Y-70263219D02*
X116169819Y-70072743D01*
X116169819Y-70072743D02*
X116122200Y-69977505D01*
X116122200Y-69977505D02*
X116026961Y-69929886D01*
X116026961Y-69929886D02*
X115979342Y-69929886D01*
X115979342Y-69929886D02*
X115884104Y-69977505D01*
X115884104Y-69977505D02*
X115836485Y-70072743D01*
X115836485Y-70072743D02*
X115836485Y-70215600D01*
X115836485Y-70215600D02*
X115788866Y-70310838D01*
X115788866Y-70310838D02*
X115693628Y-70358457D01*
X115693628Y-70358457D02*
X115646009Y-70358457D01*
X115646009Y-70358457D02*
X115550771Y-70310838D01*
X115550771Y-70310838D02*
X115503152Y-70215600D01*
X115503152Y-70215600D02*
X115503152Y-70072743D01*
X115503152Y-70072743D02*
X115550771Y-69977505D01*
X116074580Y-69501314D02*
X116122200Y-69453695D01*
X116122200Y-69453695D02*
X116169819Y-69501314D01*
X116169819Y-69501314D02*
X116122200Y-69548933D01*
X116122200Y-69548933D02*
X116074580Y-69501314D01*
X116074580Y-69501314D02*
X116169819Y-69501314D01*
X115550771Y-69501314D02*
X115598390Y-69453695D01*
X115598390Y-69453695D02*
X115646009Y-69501314D01*
X115646009Y-69501314D02*
X115598390Y-69548933D01*
X115598390Y-69548933D02*
X115550771Y-69501314D01*
X115550771Y-69501314D02*
X115646009Y-69501314D01*
X115122200Y-68310839D02*
X116407914Y-69167981D01*
X115122200Y-67263220D02*
X116407914Y-68120362D01*
X115503152Y-67025124D02*
X116169819Y-66834648D01*
X116169819Y-66834648D02*
X115693628Y-66644172D01*
X115693628Y-66644172D02*
X116169819Y-66453696D01*
X116169819Y-66453696D02*
X115503152Y-66263220D01*
X115503152Y-65977505D02*
X116169819Y-65787029D01*
X116169819Y-65787029D02*
X115693628Y-65596553D01*
X115693628Y-65596553D02*
X116169819Y-65406077D01*
X116169819Y-65406077D02*
X115503152Y-65215601D01*
X115503152Y-64929886D02*
X116169819Y-64739410D01*
X116169819Y-64739410D02*
X115693628Y-64548934D01*
X115693628Y-64548934D02*
X116169819Y-64358458D01*
X116169819Y-64358458D02*
X115503152Y-64167982D01*
X116074580Y-63787029D02*
X116122200Y-63739410D01*
X116122200Y-63739410D02*
X116169819Y-63787029D01*
X116169819Y-63787029D02*
X116122200Y-63834648D01*
X116122200Y-63834648D02*
X116074580Y-63787029D01*
X116074580Y-63787029D02*
X116169819Y-63787029D01*
X116169819Y-63310839D02*
X115503152Y-63310839D01*
X115598390Y-63310839D02*
X115550771Y-63263220D01*
X115550771Y-63263220D02*
X115503152Y-63167982D01*
X115503152Y-63167982D02*
X115503152Y-63025125D01*
X115503152Y-63025125D02*
X115550771Y-62929887D01*
X115550771Y-62929887D02*
X115646009Y-62882268D01*
X115646009Y-62882268D02*
X116169819Y-62882268D01*
X115646009Y-62882268D02*
X115550771Y-62834649D01*
X115550771Y-62834649D02*
X115503152Y-62739411D01*
X115503152Y-62739411D02*
X115503152Y-62596554D01*
X115503152Y-62596554D02*
X115550771Y-62501315D01*
X115550771Y-62501315D02*
X115646009Y-62453696D01*
X115646009Y-62453696D02*
X116169819Y-62453696D01*
X116169819Y-61548935D02*
X115646009Y-61548935D01*
X115646009Y-61548935D02*
X115550771Y-61596554D01*
X115550771Y-61596554D02*
X115503152Y-61691792D01*
X115503152Y-61691792D02*
X115503152Y-61882268D01*
X115503152Y-61882268D02*
X115550771Y-61977506D01*
X116122200Y-61548935D02*
X116169819Y-61644173D01*
X116169819Y-61644173D02*
X116169819Y-61882268D01*
X116169819Y-61882268D02*
X116122200Y-61977506D01*
X116122200Y-61977506D02*
X116026961Y-62025125D01*
X116026961Y-62025125D02*
X115931723Y-62025125D01*
X115931723Y-62025125D02*
X115836485Y-61977506D01*
X115836485Y-61977506D02*
X115788866Y-61882268D01*
X115788866Y-61882268D02*
X115788866Y-61644173D01*
X115788866Y-61644173D02*
X115741247Y-61548935D01*
X116169819Y-61072744D02*
X115169819Y-61072744D01*
X115788866Y-60977506D02*
X116169819Y-60691792D01*
X115503152Y-60691792D02*
X115884104Y-61072744D01*
X116169819Y-60263220D02*
X115503152Y-60263220D01*
X115169819Y-60263220D02*
X115217438Y-60310839D01*
X115217438Y-60310839D02*
X115265057Y-60263220D01*
X115265057Y-60263220D02*
X115217438Y-60215601D01*
X115217438Y-60215601D02*
X115169819Y-60263220D01*
X115169819Y-60263220D02*
X115265057Y-60263220D01*
X115503152Y-59787030D02*
X116169819Y-59787030D01*
X115598390Y-59787030D02*
X115550771Y-59739411D01*
X115550771Y-59739411D02*
X115503152Y-59644173D01*
X115503152Y-59644173D02*
X115503152Y-59501316D01*
X115503152Y-59501316D02*
X115550771Y-59406078D01*
X115550771Y-59406078D02*
X115646009Y-59358459D01*
X115646009Y-59358459D02*
X116169819Y-59358459D01*
X115503152Y-58453697D02*
X116312676Y-58453697D01*
X116312676Y-58453697D02*
X116407914Y-58501316D01*
X116407914Y-58501316D02*
X116455533Y-58548935D01*
X116455533Y-58548935D02*
X116503152Y-58644173D01*
X116503152Y-58644173D02*
X116503152Y-58787030D01*
X116503152Y-58787030D02*
X116455533Y-58882268D01*
X116122200Y-58453697D02*
X116169819Y-58548935D01*
X116169819Y-58548935D02*
X116169819Y-58739411D01*
X116169819Y-58739411D02*
X116122200Y-58834649D01*
X116122200Y-58834649D02*
X116074580Y-58882268D01*
X116074580Y-58882268D02*
X115979342Y-58929887D01*
X115979342Y-58929887D02*
X115693628Y-58929887D01*
X115693628Y-58929887D02*
X115598390Y-58882268D01*
X115598390Y-58882268D02*
X115550771Y-58834649D01*
X115550771Y-58834649D02*
X115503152Y-58739411D01*
X115503152Y-58739411D02*
X115503152Y-58548935D01*
X115503152Y-58548935D02*
X115550771Y-58453697D01*
X116169819Y-57548935D02*
X115169819Y-57548935D01*
X116122200Y-57548935D02*
X116169819Y-57644173D01*
X116169819Y-57644173D02*
X116169819Y-57834649D01*
X116169819Y-57834649D02*
X116122200Y-57929887D01*
X116122200Y-57929887D02*
X116074580Y-57977506D01*
X116074580Y-57977506D02*
X115979342Y-58025125D01*
X115979342Y-58025125D02*
X115693628Y-58025125D01*
X115693628Y-58025125D02*
X115598390Y-57977506D01*
X115598390Y-57977506D02*
X115550771Y-57929887D01*
X115550771Y-57929887D02*
X115503152Y-57834649D01*
X115503152Y-57834649D02*
X115503152Y-57644173D01*
X115503152Y-57644173D02*
X115550771Y-57548935D01*
X116122200Y-56691792D02*
X116169819Y-56787030D01*
X116169819Y-56787030D02*
X116169819Y-56977506D01*
X116169819Y-56977506D02*
X116122200Y-57072744D01*
X116122200Y-57072744D02*
X116026961Y-57120363D01*
X116026961Y-57120363D02*
X115646009Y-57120363D01*
X115646009Y-57120363D02*
X115550771Y-57072744D01*
X115550771Y-57072744D02*
X115503152Y-56977506D01*
X115503152Y-56977506D02*
X115503152Y-56787030D01*
X115503152Y-56787030D02*
X115550771Y-56691792D01*
X115550771Y-56691792D02*
X115646009Y-56644173D01*
X115646009Y-56644173D02*
X115741247Y-56644173D01*
X115741247Y-56644173D02*
X115836485Y-57120363D01*
X115503152Y-56310839D02*
X116169819Y-56072744D01*
X116169819Y-56072744D02*
X115503152Y-55834649D01*
X116169819Y-55453696D02*
X115503152Y-55453696D01*
X115169819Y-55453696D02*
X115217438Y-55501315D01*
X115217438Y-55501315D02*
X115265057Y-55453696D01*
X115265057Y-55453696D02*
X115217438Y-55406077D01*
X115217438Y-55406077D02*
X115169819Y-55453696D01*
X115169819Y-55453696D02*
X115265057Y-55453696D01*
X116122200Y-54548935D02*
X116169819Y-54644173D01*
X116169819Y-54644173D02*
X116169819Y-54834649D01*
X116169819Y-54834649D02*
X116122200Y-54929887D01*
X116122200Y-54929887D02*
X116074580Y-54977506D01*
X116074580Y-54977506D02*
X115979342Y-55025125D01*
X115979342Y-55025125D02*
X115693628Y-55025125D01*
X115693628Y-55025125D02*
X115598390Y-54977506D01*
X115598390Y-54977506D02*
X115550771Y-54929887D01*
X115550771Y-54929887D02*
X115503152Y-54834649D01*
X115503152Y-54834649D02*
X115503152Y-54644173D01*
X115503152Y-54644173D02*
X115550771Y-54548935D01*
X116122200Y-53739411D02*
X116169819Y-53834649D01*
X116169819Y-53834649D02*
X116169819Y-54025125D01*
X116169819Y-54025125D02*
X116122200Y-54120363D01*
X116122200Y-54120363D02*
X116026961Y-54167982D01*
X116026961Y-54167982D02*
X115646009Y-54167982D01*
X115646009Y-54167982D02*
X115550771Y-54120363D01*
X115550771Y-54120363D02*
X115503152Y-54025125D01*
X115503152Y-54025125D02*
X115503152Y-53834649D01*
X115503152Y-53834649D02*
X115550771Y-53739411D01*
X115550771Y-53739411D02*
X115646009Y-53691792D01*
X115646009Y-53691792D02*
X115741247Y-53691792D01*
X115741247Y-53691792D02*
X115836485Y-54167982D01*
X116122200Y-53310839D02*
X116169819Y-53215601D01*
X116169819Y-53215601D02*
X116169819Y-53025125D01*
X116169819Y-53025125D02*
X116122200Y-52929887D01*
X116122200Y-52929887D02*
X116026961Y-52882268D01*
X116026961Y-52882268D02*
X115979342Y-52882268D01*
X115979342Y-52882268D02*
X115884104Y-52929887D01*
X115884104Y-52929887D02*
X115836485Y-53025125D01*
X115836485Y-53025125D02*
X115836485Y-53167982D01*
X115836485Y-53167982D02*
X115788866Y-53263220D01*
X115788866Y-53263220D02*
X115693628Y-53310839D01*
X115693628Y-53310839D02*
X115646009Y-53310839D01*
X115646009Y-53310839D02*
X115550771Y-53263220D01*
X115550771Y-53263220D02*
X115503152Y-53167982D01*
X115503152Y-53167982D02*
X115503152Y-53025125D01*
X115503152Y-53025125D02*
X115550771Y-52929887D01*
X116074580Y-52453696D02*
X116122200Y-52406077D01*
X116122200Y-52406077D02*
X116169819Y-52453696D01*
X116169819Y-52453696D02*
X116122200Y-52501315D01*
X116122200Y-52501315D02*
X116074580Y-52453696D01*
X116074580Y-52453696D02*
X116169819Y-52453696D01*
X116122200Y-51548935D02*
X116169819Y-51644173D01*
X116169819Y-51644173D02*
X116169819Y-51834649D01*
X116169819Y-51834649D02*
X116122200Y-51929887D01*
X116122200Y-51929887D02*
X116074580Y-51977506D01*
X116074580Y-51977506D02*
X115979342Y-52025125D01*
X115979342Y-52025125D02*
X115693628Y-52025125D01*
X115693628Y-52025125D02*
X115598390Y-51977506D01*
X115598390Y-51977506D02*
X115550771Y-51929887D01*
X115550771Y-51929887D02*
X115503152Y-51834649D01*
X115503152Y-51834649D02*
X115503152Y-51644173D01*
X115503152Y-51644173D02*
X115550771Y-51548935D01*
X116169819Y-50977506D02*
X116122200Y-51072744D01*
X116122200Y-51072744D02*
X116074580Y-51120363D01*
X116074580Y-51120363D02*
X115979342Y-51167982D01*
X115979342Y-51167982D02*
X115693628Y-51167982D01*
X115693628Y-51167982D02*
X115598390Y-51120363D01*
X115598390Y-51120363D02*
X115550771Y-51072744D01*
X115550771Y-51072744D02*
X115503152Y-50977506D01*
X115503152Y-50977506D02*
X115503152Y-50834649D01*
X115503152Y-50834649D02*
X115550771Y-50739411D01*
X115550771Y-50739411D02*
X115598390Y-50691792D01*
X115598390Y-50691792D02*
X115693628Y-50644173D01*
X115693628Y-50644173D02*
X115979342Y-50644173D01*
X115979342Y-50644173D02*
X116074580Y-50691792D01*
X116074580Y-50691792D02*
X116122200Y-50739411D01*
X116122200Y-50739411D02*
X116169819Y-50834649D01*
X116169819Y-50834649D02*
X116169819Y-50977506D01*
X116169819Y-50215601D02*
X115503152Y-50215601D01*
X115598390Y-50215601D02*
X115550771Y-50167982D01*
X115550771Y-50167982D02*
X115503152Y-50072744D01*
X115503152Y-50072744D02*
X115503152Y-49929887D01*
X115503152Y-49929887D02*
X115550771Y-49834649D01*
X115550771Y-49834649D02*
X115646009Y-49787030D01*
X115646009Y-49787030D02*
X116169819Y-49787030D01*
X115646009Y-49787030D02*
X115550771Y-49739411D01*
X115550771Y-49739411D02*
X115503152Y-49644173D01*
X115503152Y-49644173D02*
X115503152Y-49501316D01*
X115503152Y-49501316D02*
X115550771Y-49406077D01*
X115550771Y-49406077D02*
X115646009Y-49358458D01*
X115646009Y-49358458D02*
X116169819Y-49358458D01*
D11*
%TO.C,LED_Red_bms1*%
X154042500Y-126250000D02*
X154042500Y-128950000D01*
X154042500Y-128950000D02*
X156142500Y-128950000D01*
X156142500Y-128950000D02*
X156142500Y-126250000D01*
%TO.C,LED_green_bms1*%
X156550000Y-126250000D02*
X156550000Y-128950000D01*
X156550000Y-128950000D02*
X158650000Y-128950000D01*
X158650000Y-128950000D02*
X158650000Y-126250000D01*
D12*
%TO.C,R19*%
X155972936Y-117165000D02*
X156427064Y-117165000D01*
X155972936Y-118635000D02*
X156427064Y-118635000D01*
%TO.C,R20*%
X148072871Y-114943635D02*
X148526999Y-114943635D01*
X148072871Y-116413635D02*
X148526999Y-116413635D01*
%TO.C,R18*%
X151122871Y-124165000D02*
X151576999Y-124165000D01*
X151122871Y-125635000D02*
X151576999Y-125635000D01*
D11*
%TO.C,J1*%
X158990000Y-104386000D02*
G75*
G02*
X158864000Y-104386000I-63000J0D01*
G01*
X158864000Y-104386000D02*
G75*
G02*
X158990000Y-104386000I63000J0D01*
G01*
D13*
%TO.C,S_b1*%
X152900000Y-110100000D02*
X159100000Y-110100000D01*
X152900000Y-111817330D02*
X152900000Y-114607000D01*
X152900000Y-116300000D02*
X159100000Y-116300000D01*
X159100000Y-111803000D02*
X159100000Y-114564330D01*
X150761130Y-109990670D02*
G75*
G02*
X150608870Y-109990670I-76130J0D01*
G01*
X150608870Y-109990670D02*
G75*
G02*
X150761130Y-109990670I76130J0D01*
G01*
D12*
%TO.C,R7*%
X138672936Y-97565000D02*
X139127064Y-97565000D01*
X138672936Y-99035000D02*
X139127064Y-99035000D01*
%TO.C,R5*%
X125553000Y-99772936D02*
X125553000Y-100227064D01*
X127023000Y-99772936D02*
X127023000Y-100227064D01*
D13*
%TO.C,S_left1*%
X115500000Y-113650000D02*
X121700000Y-113650000D01*
X115500000Y-115367330D02*
X115500000Y-118157000D01*
X115500000Y-119850000D02*
X121700000Y-119850000D01*
X121700000Y-115353000D02*
X121700000Y-118114330D01*
X113361130Y-113540670D02*
G75*
G02*
X113208870Y-113540670I-76130J0D01*
G01*
X113208870Y-113540670D02*
G75*
G02*
X113361130Y-113540670I76130J0D01*
G01*
D12*
%TO.C,R6*%
X125553000Y-103360436D02*
X125553000Y-103814564D01*
X127023000Y-103360436D02*
X127023000Y-103814564D01*
%TO.C,R8*%
X150539564Y-101965000D02*
X150085436Y-101965000D01*
X150539564Y-103435000D02*
X150085436Y-103435000D01*
D11*
%TO.C,J3*%
X133980000Y-125065000D02*
X133980000Y-126565000D01*
X133980000Y-129165000D02*
X133980000Y-130545000D01*
X133980000Y-130545000D02*
X143120000Y-130545000D01*
X143120000Y-126565000D02*
X143120000Y-125065000D01*
X143120000Y-130545000D02*
X143120000Y-129165000D01*
D14*
%TO.C,IC1*%
X128950000Y-103900000D02*
X128950000Y-103900000D01*
X128950000Y-104000000D02*
X128950000Y-104000000D01*
X128950000Y-103900000D02*
G75*
G02*
X128950000Y-104000000I0J-50000D01*
G01*
X128950000Y-104000000D02*
G75*
G02*
X128950000Y-103900000I0J50000D01*
G01*
D12*
%TO.C,U2*%
X137090000Y-104090000D02*
X137090000Y-104540000D01*
X137090000Y-111310000D02*
X137090000Y-110860000D01*
X137540000Y-104090000D02*
X137090000Y-104090000D01*
X137540000Y-111310000D02*
X137090000Y-111310000D01*
X143860000Y-104090000D02*
X144310000Y-104090000D01*
X143860000Y-111310000D02*
X144310000Y-111310000D01*
X144310000Y-104090000D02*
X144310000Y-104540000D01*
X144310000Y-111310000D02*
X144310000Y-110860000D01*
X136500000Y-104540000D02*
X136160000Y-104070000D01*
X136840000Y-104070000D01*
X136500000Y-104540000D01*
G36*
X136500000Y-104540000D02*
G01*
X136160000Y-104070000D01*
X136840000Y-104070000D01*
X136500000Y-104540000D01*
G37*
%TO.C,JP1*%
X137550000Y-100900000D02*
X137550000Y-100300000D01*
X138250000Y-99600000D02*
X139650000Y-99600000D01*
X139650000Y-101600000D02*
X138250000Y-101600000D01*
X140350000Y-100300000D02*
X140350000Y-100900000D01*
X137550000Y-100300000D02*
G75*
G02*
X138250000Y-99600000I699999J1D01*
G01*
X138250000Y-101600000D02*
G75*
G02*
X137550000Y-100900000I-1J699999D01*
G01*
X139650000Y-99600000D02*
G75*
G02*
X140350000Y-100300000I0J-700000D01*
G01*
X140350000Y-100900000D02*
G75*
G02*
X139650000Y-101600000I-700000J0D01*
G01*
D13*
%TO.C,S_right1*%
X131450000Y-113650000D02*
X137650000Y-113650000D01*
X131450000Y-115367330D02*
X131450000Y-118157000D01*
X131450000Y-119850000D02*
X137650000Y-119850000D01*
X137650000Y-115353000D02*
X137650000Y-118114330D01*
X129311130Y-113540670D02*
G75*
G02*
X129158870Y-113540670I-76130J0D01*
G01*
X129158870Y-113540670D02*
G75*
G02*
X129311130Y-113540670I76130J0D01*
G01*
D11*
%TO.C,LED_green_bms2*%
X142450000Y-97850000D02*
X142450000Y-99950000D01*
X142450000Y-99950000D02*
X145150000Y-99950000D01*
X145150000Y-97850000D02*
X142450000Y-97850000D01*
D13*
%TO.C,S_down1*%
X123500000Y-120442730D02*
X129700000Y-120442730D01*
X123500000Y-122160060D02*
X123500000Y-124949730D01*
X123500000Y-126642730D02*
X129700000Y-126642730D01*
X129700000Y-122145730D02*
X129700000Y-124907060D01*
X121361130Y-120333400D02*
G75*
G02*
X121208870Y-120333400I-76130J0D01*
G01*
X121208870Y-120333400D02*
G75*
G02*
X121361130Y-120333400I76130J0D01*
G01*
D12*
%TO.C,R17*%
X157372936Y-108165000D02*
X157827064Y-108165000D01*
X157372936Y-109635000D02*
X157827064Y-109635000D01*
D14*
%TO.C,U1*%
X119000000Y-48897800D02*
X155499800Y-48897800D01*
X119000000Y-48923200D02*
X119000000Y-48897800D01*
X119000000Y-96116400D02*
X119000000Y-48923200D01*
X155499800Y-48897800D02*
X155499800Y-96091000D01*
X155499800Y-96091000D02*
X119000000Y-96116400D01*
D13*
%TO.C,S_up1*%
X123500000Y-107100000D02*
X129700000Y-107100000D01*
X123500000Y-108817330D02*
X123500000Y-111607000D01*
X123500000Y-113300000D02*
X129700000Y-113300000D01*
X129700000Y-108803000D02*
X129700000Y-111564330D01*
X121361130Y-106990670D02*
G75*
G02*
X121208870Y-106990670I-76130J0D01*
G01*
X121208870Y-106990670D02*
G75*
G02*
X121361130Y-106990670I76130J0D01*
G01*
%TO.C,S_a1*%
X145000000Y-116800000D02*
X151200000Y-116800000D01*
X145000000Y-118517330D02*
X145000000Y-121307000D01*
X145000000Y-123000000D02*
X151200000Y-123000000D01*
X151200000Y-118503000D02*
X151200000Y-121264330D01*
X142861130Y-116690670D02*
G75*
G02*
X142708870Y-116690670I-76130J0D01*
G01*
X142708870Y-116690670D02*
G75*
G02*
X142861130Y-116690670I76130J0D01*
G01*
%TD*%
%LPC*%
D14*
X145600000Y-110600000D02*
X144100000Y-110600000D01*
X144100000Y-104800000D01*
X145600000Y-104800000D01*
X145600000Y-110600000D01*
G36*
X145600000Y-110600000D02*
G01*
X144100000Y-110600000D01*
X144100000Y-104800000D01*
X145600000Y-104800000D01*
X145600000Y-110600000D01*
G37*
X143600000Y-104300000D02*
X137800000Y-104300000D01*
X137800000Y-102800000D01*
X143600000Y-102800000D01*
X143600000Y-104300000D01*
G36*
X143600000Y-104300000D02*
G01*
X137800000Y-104300000D01*
X137800000Y-102800000D01*
X143600000Y-102800000D01*
X143600000Y-104300000D01*
G37*
X142200000Y-123900000D02*
X135000000Y-123900000D01*
X135000000Y-122400000D01*
X142200000Y-122400000D01*
X142200000Y-123900000D01*
G36*
X142200000Y-123900000D02*
G01*
X135000000Y-123900000D01*
X135000000Y-122400000D01*
X142200000Y-122400000D01*
X142200000Y-123900000D01*
G37*
X129100000Y-102600000D02*
X128500000Y-102600000D01*
X128500000Y-101200000D01*
X129100000Y-101200000D01*
X129100000Y-102600000D01*
G36*
X129100000Y-102600000D02*
G01*
X128500000Y-102600000D01*
X128500000Y-101200000D01*
X129100000Y-101200000D01*
X129100000Y-102600000D01*
G37*
X130650000Y-101050000D02*
X128750000Y-101050000D01*
X128750000Y-100450000D01*
X130650000Y-100450000D01*
X130650000Y-101050000D01*
G36*
X130650000Y-101050000D02*
G01*
X128750000Y-101050000D01*
X128750000Y-100450000D01*
X130650000Y-100450000D01*
X130650000Y-101050000D01*
G37*
X137300000Y-110600000D02*
X135800000Y-110600000D01*
X135800000Y-104800000D01*
X137300000Y-104800000D01*
X137300000Y-110600000D01*
G36*
X137300000Y-110600000D02*
G01*
X135800000Y-110600000D01*
X135800000Y-104800000D01*
X137300000Y-104800000D01*
X137300000Y-110600000D01*
G37*
X130900000Y-102600000D02*
X130300000Y-102600000D01*
X130300000Y-101200000D01*
X130900000Y-101200000D01*
X130900000Y-102600000D01*
G36*
X130900000Y-102600000D02*
G01*
X130300000Y-102600000D01*
X130300000Y-101200000D01*
X130900000Y-101200000D01*
X130900000Y-102600000D01*
G37*
X130650000Y-103400000D02*
X128750000Y-103400000D01*
X128750000Y-102750000D01*
X130650000Y-102750000D01*
X130650000Y-103400000D01*
G36*
X130650000Y-103400000D02*
G01*
X128750000Y-103400000D01*
X128750000Y-102750000D01*
X130650000Y-102750000D01*
X130650000Y-103400000D01*
G37*
X143600000Y-112600000D02*
X137800000Y-112600000D01*
X137800000Y-111100000D01*
X143600000Y-111100000D01*
X143600000Y-112600000D01*
G36*
X143600000Y-112600000D02*
G01*
X137800000Y-112600000D01*
X137800000Y-111100000D01*
X143600000Y-111100000D01*
X143600000Y-112600000D01*
G37*
D15*
%TO.C,J3*%
X135750000Y-123775000D02*
X134950000Y-123775000D01*
X134950000Y-122425000D01*
X135750000Y-122425000D01*
X135750000Y-123775000D01*
G36*
X135750000Y-123775000D02*
G01*
X134950000Y-123775000D01*
X134950000Y-122425000D01*
X135750000Y-122425000D01*
X135750000Y-123775000D01*
G37*
X136550000Y-123775000D02*
X135750000Y-123775000D01*
X135750000Y-122425000D01*
X136550000Y-122425000D01*
X136550000Y-123775000D01*
G36*
X136550000Y-123775000D02*
G01*
X135750000Y-123775000D01*
X135750000Y-122425000D01*
X136550000Y-122425000D01*
X136550000Y-123775000D01*
G37*
X141350000Y-123775000D02*
X140550000Y-123775000D01*
X140550000Y-122425000D01*
X141350000Y-122425000D01*
X141350000Y-123775000D01*
G36*
X141350000Y-123775000D02*
G01*
X140550000Y-123775000D01*
X140550000Y-122425000D01*
X141350000Y-122425000D01*
X141350000Y-123775000D01*
G37*
X142150000Y-123775000D02*
X141350000Y-123775000D01*
X141350000Y-122425000D01*
X142150000Y-122425000D01*
X142150000Y-123775000D01*
G36*
X142150000Y-123775000D02*
G01*
X141350000Y-123775000D01*
X141350000Y-122425000D01*
X142150000Y-122425000D01*
X142150000Y-123775000D01*
G37*
%TD*%
D16*
%TO.C,LED_Red_bms1*%
X155092500Y-128150000D03*
X155092500Y-126250000D03*
%TD*%
%TO.C,LED_green_bms1*%
X157600000Y-128150000D03*
X157600000Y-126250000D03*
%TD*%
D17*
%TO.C,R19*%
X155287500Y-117900000D03*
X157112500Y-117900000D03*
%TD*%
%TO.C,R20*%
X147387435Y-115678635D03*
X149212435Y-115678635D03*
%TD*%
D18*
%TO.C,C3*%
X142400000Y-114400000D03*
X144000000Y-114400000D03*
%TD*%
D17*
%TO.C,R18*%
X150437435Y-124900000D03*
X152262435Y-124900000D03*
%TD*%
D19*
%TO.C,J1*%
X158900000Y-105265000D03*
X158900000Y-106535000D03*
X157630000Y-105265000D03*
X157630000Y-106535000D03*
X156360000Y-105265000D03*
X156360000Y-106535000D03*
D20*
X160170000Y-105900000D03*
X155090000Y-106916000D03*
X155090000Y-104884000D03*
%TD*%
D21*
%TO.C,S_b1*%
X152025000Y-110950000D03*
X152025000Y-115450000D03*
X159975000Y-110950000D03*
X159975000Y-115450000D03*
%TD*%
D22*
%TO.C,C4*%
X133088000Y-103000000D03*
X133088000Y-101400000D03*
%TD*%
D17*
%TO.C,R7*%
X137987500Y-98300000D03*
X139812500Y-98300000D03*
%TD*%
D23*
%TO.C,R5*%
X126288000Y-99087500D03*
X126288000Y-100912500D03*
%TD*%
D21*
%TO.C,S_left1*%
X114625000Y-114500000D03*
X114625000Y-119000000D03*
X122575000Y-114500000D03*
X122575000Y-119000000D03*
%TD*%
D24*
%TO.C,C1*%
X134000000Y-108300000D03*
X134000000Y-109900000D03*
%TD*%
D23*
%TO.C,R6*%
X126288000Y-102675000D03*
X126288000Y-104500000D03*
%TD*%
D25*
%TO.C,R8*%
X151225000Y-102700000D03*
X149400000Y-102700000D03*
%TD*%
D24*
%TO.C,C5*%
X135800000Y-101400000D03*
X135800000Y-103000000D03*
%TD*%
D26*
%TO.C,C13*%
X155150000Y-108900000D03*
X153550000Y-108900000D03*
%TD*%
D27*
%TO.C,J3*%
X135660000Y-124165000D03*
X141440000Y-124165000D03*
D28*
X137300000Y-123100000D03*
X138300000Y-123100000D03*
X138800000Y-123100000D03*
X139800000Y-123100000D03*
X140300000Y-123100000D03*
X139300000Y-123100000D03*
X137800000Y-123100000D03*
X136800000Y-123100000D03*
D29*
X134230000Y-123665000D03*
X142870000Y-123665000D03*
D30*
X134230000Y-127845000D03*
X142870000Y-127845000D03*
%TD*%
D31*
%TO.C,IC1*%
X128950000Y-103063000D03*
X129450000Y-103063000D03*
X129950000Y-103063000D03*
X130450000Y-103063000D03*
D32*
X130612000Y-102400000D03*
X130612000Y-101900000D03*
X130612000Y-101400000D03*
D31*
X130450000Y-100737000D03*
X129950000Y-100737000D03*
X129450000Y-100737000D03*
X128950000Y-100737000D03*
D32*
X128788000Y-101400000D03*
X128788000Y-101900000D03*
X128788000Y-102400000D03*
%TD*%
D33*
%TO.C,U2*%
X136537500Y-104950000D03*
X136537500Y-105450000D03*
X136537500Y-105950000D03*
X136537500Y-106450000D03*
X136537500Y-106950000D03*
X136537500Y-107450000D03*
X136537500Y-107950000D03*
X136537500Y-108450000D03*
X136537500Y-108950000D03*
X136537500Y-109450000D03*
X136537500Y-109950000D03*
X136537500Y-110450000D03*
D34*
X137950000Y-111862500D03*
X138450000Y-111862500D03*
X138950000Y-111862500D03*
X139450000Y-111862500D03*
X139950000Y-111862500D03*
X140450000Y-111862500D03*
X140950000Y-111862500D03*
X141450000Y-111862500D03*
X141950000Y-111862500D03*
X142450000Y-111862500D03*
X142950000Y-111862500D03*
X143450000Y-111862500D03*
D33*
X144862500Y-110450000D03*
X144862500Y-109950000D03*
X144862500Y-109450000D03*
X144862500Y-108950000D03*
X144862500Y-108450000D03*
X144862500Y-107950000D03*
X144862500Y-107450000D03*
X144862500Y-106950000D03*
X144862500Y-106450000D03*
X144862500Y-105950000D03*
X144862500Y-105450000D03*
X144862500Y-104950000D03*
D34*
X143450000Y-103537500D03*
X142950000Y-103537500D03*
X142450000Y-103537500D03*
X141950000Y-103537500D03*
X141450000Y-103537500D03*
X140950000Y-103537500D03*
X140450000Y-103537500D03*
X139950000Y-103537500D03*
X139450000Y-103537500D03*
X138950000Y-103537500D03*
X138450000Y-103537500D03*
X137950000Y-103537500D03*
%TD*%
D35*
%TO.C,JP1*%
X138300000Y-100600000D03*
D36*
X139600000Y-100600000D03*
%TD*%
D26*
%TO.C,C14*%
X148899935Y-124900000D03*
X147299935Y-124900000D03*
%TD*%
%TO.C,C6*%
X147400000Y-102700000D03*
X145800000Y-102700000D03*
%TD*%
D21*
%TO.C,S_right1*%
X130575000Y-114500000D03*
X130575000Y-119000000D03*
X138525000Y-114500000D03*
X138525000Y-119000000D03*
%TD*%
D37*
%TO.C,LED_green_bms2*%
X143250000Y-98900000D03*
X145150000Y-98900000D03*
%TD*%
D21*
%TO.C,S_down1*%
X122625000Y-121292730D03*
X122625000Y-125792730D03*
X130575000Y-121292730D03*
X130575000Y-125792730D03*
%TD*%
D17*
%TO.C,R17*%
X156687500Y-108900000D03*
X158512500Y-108900000D03*
%TD*%
D26*
%TO.C,C2*%
X130500000Y-98300000D03*
X128900000Y-98300000D03*
%TD*%
D38*
%TO.C,U1*%
X119000000Y-49990000D03*
X119000000Y-52530000D03*
X119000000Y-55070000D03*
X119000000Y-57610000D03*
X119000000Y-66957200D03*
X119000000Y-69497200D03*
X119000000Y-72037200D03*
X119000000Y-74577200D03*
X119000000Y-87226400D03*
X119000000Y-89817200D03*
X119000000Y-92306400D03*
X119000000Y-94897200D03*
X155576000Y-49990000D03*
X155576000Y-52530000D03*
X155576000Y-55070000D03*
X155576000Y-57610000D03*
X155576000Y-66855600D03*
X155576000Y-69395600D03*
X155576000Y-71935600D03*
X155576000Y-74475600D03*
X155576000Y-87277200D03*
X155576000Y-89817200D03*
X155576000Y-92357200D03*
X155576000Y-94897200D03*
%TD*%
D21*
%TO.C,S_up1*%
X122625000Y-107950000D03*
X122625000Y-112450000D03*
X130575000Y-107950000D03*
X130575000Y-112450000D03*
%TD*%
%TO.C,S_a1*%
X144125000Y-117650000D03*
X144125000Y-122150000D03*
X152075000Y-117650000D03*
X152075000Y-122150000D03*
%TD*%
D39*
%TO.C,LS1*%
X116800000Y-105900000D03*
X124400000Y-105900000D03*
%TD*%
D40*
%TO.C,J2*%
X158200000Y-98450000D03*
X158200000Y-100950000D03*
%TD*%
D39*
%TO.C,SW_Toggle1*%
X119300000Y-124225000D03*
X116760000Y-124225000D03*
X121840000Y-124225000D03*
%TD*%
%LPD*%
M02*
