%TF.GenerationSoftware,KiCad,Pcbnew,8.0.5*%
%TF.CreationDate,2024-10-17T19:47:34+02:00*%
%TF.ProjectId,PixelBytesHost,50697865-6c42-4797-9465-73486f73742e,rev?*%
%TF.SameCoordinates,Original*%
%TF.FileFunction,Copper,L2,Inr*%
%TF.FilePolarity,Positive*%
%FSLAX46Y46*%
G04 Gerber Fmt 4.6, Leading zero omitted, Abs format (unit mm)*
G04 Created by KiCad (PCBNEW 8.0.5) date 2024-10-17 19:47:34*
%MOMM*%
%LPD*%
G01*
G04 APERTURE LIST*
%TA.AperFunction,ComponentPad*%
%ADD10C,1.550000*%
%TD*%
%TA.AperFunction,ComponentPad*%
%ADD11C,2.280000*%
%TD*%
%TA.AperFunction,ComponentPad*%
%ADD12C,2.850000*%
%TD*%
%TA.AperFunction,ComponentPad*%
%ADD13C,1.300000*%
%TD*%
%TA.AperFunction,ComponentPad*%
%ADD14C,1.575000*%
%TD*%
%TA.AperFunction,ViaPad*%
%ADD15C,0.800000*%
%TD*%
%TA.AperFunction,ViaPad*%
%ADD16C,0.850000*%
%TD*%
%TA.AperFunction,Conductor*%
%ADD17C,0.200000*%
%TD*%
%TA.AperFunction,Conductor*%
%ADD18C,0.350000*%
%TD*%
G04 APERTURE END LIST*
D10*
%TO.N,N/C*%
%TO.C,J1*%
X160170000Y-105900000D03*
X155090000Y-106916000D03*
X155090000Y-104884000D03*
%TD*%
D11*
%TO.N,Vgnd_main*%
%TO.C,J2*%
X132880000Y-124350000D03*
D12*
X132880000Y-128350000D03*
X144120000Y-128350000D03*
D11*
X144120000Y-124350000D03*
%TD*%
D13*
%TO.N,Net-(LS1-+)*%
%TO.C,LS1*%
X116800000Y-105900000D03*
%TO.N,Vgnd_main*%
X124400000Y-105900000D03*
%TD*%
%TO.N,Vdc_battery*%
%TO.C,SW_Toggle1*%
X123275000Y-128050000D03*
%TO.N,In_Vcc*%
X125775000Y-128050000D03*
%TO.N,unconnected-(SW_Toggle1-Pad3)*%
X128275000Y-128050000D03*
%TD*%
D14*
%TO.N,Vdc_battery*%
%TO.C,J3*%
X158200000Y-98450000D03*
%TO.N,Vgnd_main*%
X158200000Y-100950000D03*
%TD*%
D15*
%TO.N,uc_supply*%
X128700000Y-115300000D03*
X133600000Y-100300000D03*
X134500000Y-103700000D03*
X123400000Y-117100000D03*
X133100000Y-112000000D03*
X146700000Y-111700000D03*
X130625000Y-99700000D03*
X144000000Y-111400000D03*
X121900000Y-115900000D03*
X150000000Y-114300000D03*
X146300000Y-100275000D03*
X145600000Y-101600000D03*
X136500000Y-116100000D03*
X131200000Y-102800000D03*
X136100000Y-112900000D03*
%TO.N,OSC2*%
X135295158Y-107574999D03*
X126400000Y-105900000D03*
X132700000Y-106200000D03*
%TO.N,OSC1*%
X131400000Y-106600000D03*
D16*
%TO.N,In_Vcc*%
X148362347Y-114387653D03*
%TO.N,Vgnd_main*%
X120800000Y-112000000D03*
X152612071Y-114142775D03*
X154100000Y-122500000D03*
X128700000Y-121400000D03*
X124300000Y-80300000D03*
X160600000Y-126600000D03*
X155600000Y-103100000D03*
X157000000Y-80600000D03*
X148400000Y-103800000D03*
X153400000Y-107100000D03*
X122500000Y-117700000D03*
X131500000Y-113000000D03*
X138400000Y-105000000D03*
X131100000Y-117400000D03*
X142600000Y-108000000D03*
X149812294Y-109574142D03*
X132800000Y-107700000D03*
X136500000Y-100400000D03*
X124300000Y-113300000D03*
X160110254Y-116495644D03*
X137900000Y-120000000D03*
X139300000Y-116464998D03*
X131600000Y-103900000D03*
X118600000Y-120000000D03*
X140599406Y-113322354D03*
%TO.N,BMS_Vcc*%
X149900000Y-123300000D03*
X132000000Y-122400000D03*
X141041585Y-122137979D03*
X152300000Y-105500000D03*
X152900000Y-128500000D03*
%TO.N,display_main*%
X157650000Y-110150000D03*
X158000000Y-114050000D03*
X121700000Y-67000000D03*
X151500000Y-113900000D03*
X123200000Y-86400000D03*
X120700000Y-108600000D03*
X125715686Y-110715686D03*
X127500000Y-85700000D03*
X127500000Y-67200000D03*
D15*
%TO.N,Net-(LED_green_bms1-K)*%
X148200000Y-129600000D03*
%TO.N,Net-(IC_BMS_TP1-PROG)*%
X153356502Y-124920723D03*
X157600000Y-123800000D03*
%TO.N,Net-(IC3-FB)*%
X156100000Y-120500000D03*
X154050000Y-118599997D03*
%TO.N,uc_enable_display*%
X141600000Y-113100000D03*
X160200000Y-112650000D03*
%TO.N,Net-(LED_Red_bms1-K)*%
X145500000Y-125600000D03*
D16*
%TO.N,display_supply*%
X154750000Y-113775000D03*
X159900000Y-119000000D03*
X143600000Y-116300000D03*
X139950000Y-117726281D03*
D15*
%TO.N,SWDIO*%
X143300000Y-106800000D03*
X159000000Y-107500000D03*
X151000000Y-107900000D03*
X146200000Y-108000000D03*
%TO.N,reset*%
X138200000Y-108000000D03*
X157000000Y-104000000D03*
%TO.N,SWCLK*%
X158000000Y-107300000D03*
X157700000Y-103300000D03*
%TO.N,Net-(J2-CC1)*%
X136100000Y-118500000D03*
%TO.N,Net-(J2-CC2)*%
X136200000Y-119900000D03*
X132300000Y-120700000D03*
X139900002Y-118700000D03*
%TO.N,meas_bat_en*%
X142700000Y-105500000D03*
%TO.N,bat_meas*%
X149100000Y-98200000D03*
X140225735Y-109999998D03*
%TO.N,ISDS_SCL*%
X140800000Y-101400000D03*
X124800000Y-100900000D03*
%TO.N,ISDS_SDA*%
X124800000Y-102800000D03*
X140100000Y-105100000D03*
%TO.N,Net-(R10-Pad1)*%
X116500000Y-114200000D03*
%TO.N,USB_D+*%
X139533884Y-122133884D03*
X147276992Y-114376992D03*
X138400000Y-121500000D03*
%TO.N,USB_D-*%
X146416560Y-114000000D03*
X139475735Y-120375735D03*
%TO.N,Net-(R12-Pad1)*%
X125445668Y-113325000D03*
%TO.N,Net-(R11-Pad2)*%
X122700000Y-122400000D03*
X129636659Y-120983707D03*
%TO.N,Net-(R15-Pad2)*%
X136800000Y-114100000D03*
X132000000Y-114039998D03*
%TO.N,Net-(R18-Pad2)*%
X158004747Y-122254113D03*
X159000000Y-126125000D03*
X151500000Y-128300000D03*
X158900000Y-127800000D03*
%TO.N,Net-(R17-Pad2)*%
X147900000Y-118500000D03*
X149184015Y-110384015D03*
X146400000Y-117705002D03*
X152200000Y-111900000D03*
%TO.N,Net-(U1-Vdi_s5)*%
X124200000Y-92450000D03*
X152150000Y-86550000D03*
%TO.N,Net-(U1-Vdi_s3)*%
X138300000Y-70100000D03*
X122400000Y-71400000D03*
%TO.N,Net-(U1-Vdi_s2)*%
X122600000Y-57800000D03*
X149500000Y-52800000D03*
%TO.N,Net-(U1-Vdi_s6)*%
X152450000Y-89800000D03*
X147950000Y-70400000D03*
X147900000Y-88000000D03*
X152500000Y-66900000D03*
%TO.N,Net-(U1-Vdi_s4)*%
X122700000Y-75500000D03*
X151500000Y-69600000D03*
%TO.N,PWM_display*%
X139300000Y-109800000D03*
X123000000Y-55200000D03*
%TO.N,Buzzer*%
X141600000Y-109500000D03*
%TO.N,S_b*%
X155300000Y-110800000D03*
X138422503Y-109999998D03*
%TO.N,S_a*%
X148400000Y-123000000D03*
X142100000Y-117900000D03*
%TO.N,S_right*%
X135300000Y-116000000D03*
%TO.N,S_left*%
X119200000Y-110400000D03*
X136100000Y-112000000D03*
X131300000Y-111199998D03*
X116000000Y-113200000D03*
X123400000Y-109625000D03*
%TO.N,S_down*%
X131983988Y-119857302D03*
X127600000Y-124100000D03*
X127400000Y-120100000D03*
%TO.N,S_up*%
X132224786Y-112275214D03*
%TO.N,ISDS_int_0*%
X141325000Y-102200000D03*
X130700000Y-104900000D03*
%TO.N,ISDS_int_1*%
X129525000Y-99949498D03*
X142000000Y-100500000D03*
D16*
%TO.N,Vdc_battery*%
X125400000Y-97300000D03*
X149150000Y-128750000D03*
%TD*%
D17*
%TO.N,uc_supply*%
X149300000Y-114300000D02*
X146700000Y-111700000D01*
X150000000Y-114300000D02*
X149300000Y-114300000D01*
%TO.N,Vgnd_main*%
X140728407Y-111571593D02*
X140728407Y-113193353D01*
X142700000Y-108100000D02*
X142600000Y-108000000D01*
X140728407Y-111571593D02*
X142700000Y-109600000D01*
X142700000Y-109600000D02*
X142700000Y-108100000D01*
X140728407Y-113193353D02*
X140599406Y-113322354D01*
D18*
%TO.N,BMS_Vcc*%
X153412071Y-112016055D02*
X153412071Y-118087929D01*
X153412071Y-118087929D02*
X149900000Y-121600000D01*
X152300000Y-105500000D02*
X152300000Y-110903984D01*
X149900000Y-121600000D02*
X149900000Y-123300000D01*
X152300000Y-110903984D02*
X153412071Y-112016055D01*
%TO.N,display_main*%
X120700000Y-108600000D02*
X123600000Y-108600000D01*
X150500000Y-114900000D02*
X151500000Y-113900000D01*
X158000000Y-114050000D02*
X158000000Y-110500000D01*
X139254337Y-115450000D02*
X150500000Y-115450000D01*
X123600000Y-108600000D02*
X125715686Y-110715686D01*
X136621537Y-117725000D02*
X137072403Y-118175866D01*
X125715686Y-110715686D02*
X132725000Y-117725000D01*
X137072403Y-117631934D02*
X139254337Y-115450000D01*
X137072403Y-118175866D02*
X137072403Y-117631934D01*
X132725000Y-117725000D02*
X136621537Y-117725000D01*
X158000000Y-110500000D02*
X157650000Y-110150000D01*
X150500000Y-115450000D02*
X150500000Y-114900000D01*
%TO.N,display_supply*%
X159850000Y-119050000D02*
X159900000Y-119000000D01*
X154750000Y-115350000D02*
X158450000Y-119050000D01*
X158450000Y-119050000D02*
X159850000Y-119050000D01*
X154750000Y-113775000D02*
X154750000Y-115350000D01*
D17*
%TO.N,reset*%
X155825305Y-102300000D02*
X157000000Y-103474695D01*
X157000000Y-104000000D02*
X156909000Y-103909000D01*
X138200000Y-108000000D02*
X143900000Y-102300000D01*
X143900000Y-102300000D02*
X155825305Y-102300000D01*
X157000000Y-103474695D02*
X157000000Y-104000000D01*
%TO.N,ISDS_SCL*%
X140800000Y-101400000D02*
X125300000Y-101400000D01*
X125300000Y-101400000D02*
X124800000Y-100900000D01*
%TO.N,ISDS_SDA*%
X132848529Y-105500000D02*
X127500000Y-105500000D01*
X140100000Y-105100000D02*
X139475000Y-105725000D01*
X133073529Y-105725000D02*
X132848529Y-105500000D01*
X127500000Y-105500000D02*
X124800000Y-102800000D01*
X139475000Y-105725000D02*
X133073529Y-105725000D01*
%TO.N,ISDS_int_0*%
X134325305Y-102200000D02*
X131625305Y-104900000D01*
X131625305Y-104900000D02*
X130700000Y-104900000D01*
X141325000Y-102200000D02*
X134325305Y-102200000D01*
D18*
%TO.N,Vdc_battery*%
X129995671Y-121650000D02*
X128695671Y-122950000D01*
X128695671Y-122950000D02*
X126650000Y-122950000D01*
X126650000Y-122950000D02*
X124150000Y-125450000D01*
X135475305Y-121650000D02*
X129995671Y-121650000D01*
X122950000Y-126000000D02*
X122950000Y-127725000D01*
X125400000Y-97300000D02*
X149400000Y-97300000D01*
X150550000Y-98450000D02*
X158200000Y-98450000D01*
X137150000Y-119975305D02*
X135475305Y-121650000D01*
X137150000Y-119689339D02*
X137150000Y-119975305D01*
X141336492Y-119494669D02*
X138455330Y-119494669D01*
X122950000Y-127725000D02*
X123275000Y-128050000D01*
X124150000Y-125450000D02*
X123500000Y-125450000D01*
X138455330Y-119494669D02*
X138210661Y-119250000D01*
X149150000Y-127308177D02*
X141336492Y-119494669D01*
X123500000Y-125450000D02*
X122950000Y-126000000D01*
X138210661Y-119250000D02*
X137589339Y-119250000D01*
X137589339Y-119250000D02*
X137150000Y-119689339D01*
X149150000Y-128750000D02*
X149150000Y-127308177D01*
X149400000Y-97300000D02*
X150550000Y-98450000D01*
%TD*%
M02*
