%TF.GenerationSoftware,KiCad,Pcbnew,8.0.5*%
%TF.CreationDate,2024-09-22T15:27:04+02:00*%
%TF.ProjectId,PicBytesMicro,50696342-7974-4657-934d-6963726f2e6b,rev?*%
%TF.SameCoordinates,Original*%
%TF.FileFunction,Legend,Top*%
%TF.FilePolarity,Positive*%
%FSLAX46Y46*%
G04 Gerber Fmt 4.6, Leading zero omitted, Abs format (unit mm)*
G04 Created by KiCad (PCBNEW 8.0.5) date 2024-09-22 15:27:04*
%MOMM*%
%LPD*%
G01*
G04 APERTURE LIST*
G04 Aperture macros list*
%AMRoundRect*
0 Rectangle with rounded corners*
0 $1 Rounding radius*
0 $2 $3 $4 $5 $6 $7 $8 $9 X,Y pos of 4 corners*
0 Add a 4 corners polygon primitive as box body*
4,1,4,$2,$3,$4,$5,$6,$7,$8,$9,$2,$3,0*
0 Add four circle primitives for the rounded corners*
1,1,$1+$1,$2,$3*
1,1,$1+$1,$4,$5*
1,1,$1+$1,$6,$7*
1,1,$1+$1,$8,$9*
0 Add four rect primitives between the rounded corners*
20,1,$1+$1,$2,$3,$4,$5,0*
20,1,$1+$1,$4,$5,$6,$7,0*
20,1,$1+$1,$6,$7,$8,$9,0*
20,1,$1+$1,$8,$9,$2,$3,0*%
%AMFreePoly0*
4,1,35,0.535355,0.785355,0.550000,0.750000,0.550000,-0.750000,0.535355,-0.785355,0.500000,-0.800000,0.000000,-0.800000,-0.012286,-0.794911,-0.071157,-0.794911,-0.085244,-0.792886,-0.221795,-0.752791,-0.234740,-0.746879,-0.354462,-0.669938,-0.365217,-0.660618,-0.458414,-0.553063,-0.466109,-0.541091,-0.525228,-0.411637,-0.529237,-0.397982,-0.549491,-0.257116,-0.550000,-0.250000,-0.550000,0.250000,
-0.549491,0.257116,-0.529237,0.397982,-0.525228,0.411637,-0.466109,0.541091,-0.458414,0.553063,-0.365217,0.660618,-0.354462,0.669938,-0.234740,0.746879,-0.221795,0.752791,-0.085244,0.792886,-0.071157,0.794911,-0.012286,0.794911,0.000000,0.800000,0.500000,0.800000,0.535355,0.785355,0.535355,0.785355,$1*%
%AMFreePoly1*
4,1,35,0.012286,0.794911,0.071157,0.794911,0.085244,0.792886,0.221795,0.752791,0.234740,0.746879,0.354462,0.669938,0.365217,0.660618,0.458414,0.553063,0.466109,0.541091,0.525228,0.411637,0.529237,0.397982,0.549491,0.257116,0.550000,0.250000,0.550000,-0.250000,0.549491,-0.257116,0.529237,-0.397982,0.525228,-0.411637,0.466109,-0.541091,0.458414,-0.553063,0.365217,-0.660618,
0.354462,-0.669938,0.234740,-0.746879,0.221795,-0.752791,0.085244,-0.792886,0.071157,-0.794911,0.012286,-0.794911,0.000000,-0.800000,-0.500000,-0.800000,-0.535355,-0.785355,-0.550000,-0.750000,-0.550000,0.750000,-0.535355,0.785355,-0.500000,0.800000,0.000000,0.800000,0.012286,0.794911,0.012286,0.794911,$1*%
G04 Aperture macros list end*
%ADD10C,0.150000*%
%ADD11C,0.010000*%
%ADD12C,0.200000*%
%ADD13C,0.120000*%
%ADD14C,0.254000*%
%ADD15C,0.100000*%
%ADD16RoundRect,0.050000X0.700000X-0.450000X0.700000X0.450000X-0.700000X0.450000X-0.700000X-0.450000X0*%
%ADD17RoundRect,0.050000X-0.500000X-0.725000X0.500000X-0.725000X0.500000X0.725000X-0.500000X0.725000X0*%
%ADD18RoundRect,0.274390X-0.288110X-0.475610X0.288110X-0.475610X0.288110X0.475610X-0.288110X0.475610X0*%
%ADD19RoundRect,0.050000X-0.510000X-0.735000X0.510000X-0.735000X0.510000X0.735000X-0.510000X0.735000X0*%
%ADD20C,0.989000*%
%ADD21C,1.650000*%
%ADD22RoundRect,0.050000X0.775000X-0.650000X0.775000X0.650000X-0.775000X0.650000X-0.775000X-0.650000X0*%
%ADD23RoundRect,0.050000X0.735000X-0.510000X0.735000X0.510000X-0.735000X0.510000X-0.735000X-0.510000X0*%
%ADD24RoundRect,0.274390X-0.475610X0.288110X-0.475610X-0.288110X0.475610X-0.288110X0.475610X0.288110X0*%
%ADD25RoundRect,0.274390X0.288110X0.475610X-0.288110X0.475610X-0.288110X-0.475610X0.288110X-0.475610X0*%
%ADD26RoundRect,0.050000X-0.735000X0.510000X-0.735000X-0.510000X0.735000X-0.510000X0.735000X0.510000X0*%
%ADD27RoundRect,0.050000X0.510000X0.735000X-0.510000X0.735000X-0.510000X-0.735000X0.510000X-0.735000X0*%
%ADD28RoundRect,0.050000X0.175000X0.287500X-0.175000X0.287500X-0.175000X-0.287500X0.175000X-0.287500X0*%
%ADD29RoundRect,0.050000X0.287500X-0.175000X0.287500X0.175000X-0.287500X0.175000X-0.287500X-0.175000X0*%
%ADD30RoundRect,0.100000X-0.687500X-0.100000X0.687500X-0.100000X0.687500X0.100000X-0.687500X0.100000X0*%
%ADD31RoundRect,0.100000X-0.100000X-0.687500X0.100000X-0.687500X0.100000X0.687500X-0.100000X0.687500X0*%
%ADD32FreePoly0,0.000000*%
%ADD33FreePoly1,0.000000*%
%ADD34RoundRect,0.050000X-0.300000X-0.550000X0.300000X-0.550000X0.300000X0.550000X-0.300000X0.550000X0*%
%ADD35RoundRect,0.050000X-0.150000X-0.550000X0.150000X-0.550000X0.150000X0.550000X-0.150000X0.550000X0*%
%ADD36C,2.380000*%
%ADD37C,2.950000*%
%ADD38RoundRect,0.475000X-1.325000X-0.475000X1.325000X-0.475000X1.325000X0.475000X-1.325000X0.475000X0*%
%ADD39C,1.400000*%
%ADD40C,1.675000*%
G04 APERTURE END LIST*
D10*
X154189160Y-124922200D02*
X154332017Y-124969819D01*
X154332017Y-124969819D02*
X154570112Y-124969819D01*
X154570112Y-124969819D02*
X154665350Y-124922200D01*
X154665350Y-124922200D02*
X154712969Y-124874580D01*
X154712969Y-124874580D02*
X154760588Y-124779342D01*
X154760588Y-124779342D02*
X154760588Y-124684104D01*
X154760588Y-124684104D02*
X154712969Y-124588866D01*
X154712969Y-124588866D02*
X154665350Y-124541247D01*
X154665350Y-124541247D02*
X154570112Y-124493628D01*
X154570112Y-124493628D02*
X154379636Y-124446009D01*
X154379636Y-124446009D02*
X154284398Y-124398390D01*
X154284398Y-124398390D02*
X154236779Y-124350771D01*
X154236779Y-124350771D02*
X154189160Y-124255533D01*
X154189160Y-124255533D02*
X154189160Y-124160295D01*
X154189160Y-124160295D02*
X154236779Y-124065057D01*
X154236779Y-124065057D02*
X154284398Y-124017438D01*
X154284398Y-124017438D02*
X154379636Y-123969819D01*
X154379636Y-123969819D02*
X154617731Y-123969819D01*
X154617731Y-123969819D02*
X154760588Y-124017438D01*
X155046303Y-124303152D02*
X155427255Y-124303152D01*
X155189160Y-123969819D02*
X155189160Y-124826961D01*
X155189160Y-124826961D02*
X155236779Y-124922200D01*
X155236779Y-124922200D02*
X155332017Y-124969819D01*
X155332017Y-124969819D02*
X155427255Y-124969819D01*
X156189160Y-124969819D02*
X156189160Y-124446009D01*
X156189160Y-124446009D02*
X156141541Y-124350771D01*
X156141541Y-124350771D02*
X156046303Y-124303152D01*
X156046303Y-124303152D02*
X155855827Y-124303152D01*
X155855827Y-124303152D02*
X155760589Y-124350771D01*
X156189160Y-124922200D02*
X156093922Y-124969819D01*
X156093922Y-124969819D02*
X155855827Y-124969819D01*
X155855827Y-124969819D02*
X155760589Y-124922200D01*
X155760589Y-124922200D02*
X155712970Y-124826961D01*
X155712970Y-124826961D02*
X155712970Y-124731723D01*
X155712970Y-124731723D02*
X155760589Y-124636485D01*
X155760589Y-124636485D02*
X155855827Y-124588866D01*
X155855827Y-124588866D02*
X156093922Y-124588866D01*
X156093922Y-124588866D02*
X156189160Y-124541247D01*
X156522494Y-124303152D02*
X156903446Y-124303152D01*
X156665351Y-123969819D02*
X156665351Y-124826961D01*
X156665351Y-124826961D02*
X156712970Y-124922200D01*
X156712970Y-124922200D02*
X156808208Y-124969819D01*
X156808208Y-124969819D02*
X156903446Y-124969819D01*
X157665351Y-124303152D02*
X157665351Y-124969819D01*
X157236780Y-124303152D02*
X157236780Y-124826961D01*
X157236780Y-124826961D02*
X157284399Y-124922200D01*
X157284399Y-124922200D02*
X157379637Y-124969819D01*
X157379637Y-124969819D02*
X157522494Y-124969819D01*
X157522494Y-124969819D02*
X157617732Y-124922200D01*
X157617732Y-124922200D02*
X157665351Y-124874580D01*
X158093923Y-124922200D02*
X158189161Y-124969819D01*
X158189161Y-124969819D02*
X158379637Y-124969819D01*
X158379637Y-124969819D02*
X158474875Y-124922200D01*
X158474875Y-124922200D02*
X158522494Y-124826961D01*
X158522494Y-124826961D02*
X158522494Y-124779342D01*
X158522494Y-124779342D02*
X158474875Y-124684104D01*
X158474875Y-124684104D02*
X158379637Y-124636485D01*
X158379637Y-124636485D02*
X158236780Y-124636485D01*
X158236780Y-124636485D02*
X158141542Y-124588866D01*
X158141542Y-124588866D02*
X158093923Y-124493628D01*
X158093923Y-124493628D02*
X158093923Y-124446009D01*
X158093923Y-124446009D02*
X158141542Y-124350771D01*
X158141542Y-124350771D02*
X158236780Y-124303152D01*
X158236780Y-124303152D02*
X158379637Y-124303152D01*
X158379637Y-124303152D02*
X158474875Y-124350771D01*
X114559875Y-73263220D02*
X113559875Y-73263220D01*
X113559875Y-73263220D02*
X113559875Y-72882268D01*
X113559875Y-72882268D02*
X113607494Y-72787030D01*
X113607494Y-72787030D02*
X113655113Y-72739411D01*
X113655113Y-72739411D02*
X113750351Y-72691792D01*
X113750351Y-72691792D02*
X113893208Y-72691792D01*
X113893208Y-72691792D02*
X113988446Y-72739411D01*
X113988446Y-72739411D02*
X114036065Y-72787030D01*
X114036065Y-72787030D02*
X114083684Y-72882268D01*
X114083684Y-72882268D02*
X114083684Y-73263220D01*
X114559875Y-72263220D02*
X113893208Y-72263220D01*
X113559875Y-72263220D02*
X113607494Y-72310839D01*
X113607494Y-72310839D02*
X113655113Y-72263220D01*
X113655113Y-72263220D02*
X113607494Y-72215601D01*
X113607494Y-72215601D02*
X113559875Y-72263220D01*
X113559875Y-72263220D02*
X113655113Y-72263220D01*
X114559875Y-71882268D02*
X113893208Y-71358459D01*
X113893208Y-71882268D02*
X114559875Y-71358459D01*
X114512256Y-70596554D02*
X114559875Y-70691792D01*
X114559875Y-70691792D02*
X114559875Y-70882268D01*
X114559875Y-70882268D02*
X114512256Y-70977506D01*
X114512256Y-70977506D02*
X114417017Y-71025125D01*
X114417017Y-71025125D02*
X114036065Y-71025125D01*
X114036065Y-71025125D02*
X113940827Y-70977506D01*
X113940827Y-70977506D02*
X113893208Y-70882268D01*
X113893208Y-70882268D02*
X113893208Y-70691792D01*
X113893208Y-70691792D02*
X113940827Y-70596554D01*
X113940827Y-70596554D02*
X114036065Y-70548935D01*
X114036065Y-70548935D02*
X114131303Y-70548935D01*
X114131303Y-70548935D02*
X114226541Y-71025125D01*
X114559875Y-69977506D02*
X114512256Y-70072744D01*
X114512256Y-70072744D02*
X114417017Y-70120363D01*
X114417017Y-70120363D02*
X113559875Y-70120363D01*
X114559875Y-68834648D02*
X113559875Y-68834648D01*
X114036065Y-68834648D02*
X114036065Y-68263220D01*
X114559875Y-68263220D02*
X113559875Y-68263220D01*
X114559875Y-67644172D02*
X114512256Y-67739410D01*
X114512256Y-67739410D02*
X114464636Y-67787029D01*
X114464636Y-67787029D02*
X114369398Y-67834648D01*
X114369398Y-67834648D02*
X114083684Y-67834648D01*
X114083684Y-67834648D02*
X113988446Y-67787029D01*
X113988446Y-67787029D02*
X113940827Y-67739410D01*
X113940827Y-67739410D02*
X113893208Y-67644172D01*
X113893208Y-67644172D02*
X113893208Y-67501315D01*
X113893208Y-67501315D02*
X113940827Y-67406077D01*
X113940827Y-67406077D02*
X113988446Y-67358458D01*
X113988446Y-67358458D02*
X114083684Y-67310839D01*
X114083684Y-67310839D02*
X114369398Y-67310839D01*
X114369398Y-67310839D02*
X114464636Y-67358458D01*
X114464636Y-67358458D02*
X114512256Y-67406077D01*
X114512256Y-67406077D02*
X114559875Y-67501315D01*
X114559875Y-67501315D02*
X114559875Y-67644172D01*
X114512256Y-66929886D02*
X114559875Y-66834648D01*
X114559875Y-66834648D02*
X114559875Y-66644172D01*
X114559875Y-66644172D02*
X114512256Y-66548934D01*
X114512256Y-66548934D02*
X114417017Y-66501315D01*
X114417017Y-66501315D02*
X114369398Y-66501315D01*
X114369398Y-66501315D02*
X114274160Y-66548934D01*
X114274160Y-66548934D02*
X114226541Y-66644172D01*
X114226541Y-66644172D02*
X114226541Y-66787029D01*
X114226541Y-66787029D02*
X114178922Y-66882267D01*
X114178922Y-66882267D02*
X114083684Y-66929886D01*
X114083684Y-66929886D02*
X114036065Y-66929886D01*
X114036065Y-66929886D02*
X113940827Y-66882267D01*
X113940827Y-66882267D02*
X113893208Y-66787029D01*
X113893208Y-66787029D02*
X113893208Y-66644172D01*
X113893208Y-66644172D02*
X113940827Y-66548934D01*
X113893208Y-66215600D02*
X113893208Y-65834648D01*
X113559875Y-66072743D02*
X114417017Y-66072743D01*
X114417017Y-66072743D02*
X114512256Y-66025124D01*
X114512256Y-66025124D02*
X114559875Y-65929886D01*
X114559875Y-65929886D02*
X114559875Y-65834648D01*
X113893208Y-64834647D02*
X114559875Y-64596552D01*
X114559875Y-64596552D02*
X113893208Y-64358457D01*
X113559875Y-63787028D02*
X113559875Y-63691790D01*
X113559875Y-63691790D02*
X113607494Y-63596552D01*
X113607494Y-63596552D02*
X113655113Y-63548933D01*
X113655113Y-63548933D02*
X113750351Y-63501314D01*
X113750351Y-63501314D02*
X113940827Y-63453695D01*
X113940827Y-63453695D02*
X114178922Y-63453695D01*
X114178922Y-63453695D02*
X114369398Y-63501314D01*
X114369398Y-63501314D02*
X114464636Y-63548933D01*
X114464636Y-63548933D02*
X114512256Y-63596552D01*
X114512256Y-63596552D02*
X114559875Y-63691790D01*
X114559875Y-63691790D02*
X114559875Y-63787028D01*
X114559875Y-63787028D02*
X114512256Y-63882266D01*
X114512256Y-63882266D02*
X114464636Y-63929885D01*
X114464636Y-63929885D02*
X114369398Y-63977504D01*
X114369398Y-63977504D02*
X114178922Y-64025123D01*
X114178922Y-64025123D02*
X113940827Y-64025123D01*
X113940827Y-64025123D02*
X113750351Y-63977504D01*
X113750351Y-63977504D02*
X113655113Y-63929885D01*
X113655113Y-63929885D02*
X113607494Y-63882266D01*
X113607494Y-63882266D02*
X113559875Y-63787028D01*
X114464636Y-63025123D02*
X114512256Y-62977504D01*
X114512256Y-62977504D02*
X114559875Y-63025123D01*
X114559875Y-63025123D02*
X114512256Y-63072742D01*
X114512256Y-63072742D02*
X114464636Y-63025123D01*
X114464636Y-63025123D02*
X114559875Y-63025123D01*
X114559875Y-62025124D02*
X114559875Y-62596552D01*
X114559875Y-62310838D02*
X113559875Y-62310838D01*
X113559875Y-62310838D02*
X113702732Y-62406076D01*
X113702732Y-62406076D02*
X113797970Y-62501314D01*
X113797970Y-62501314D02*
X113845589Y-62596552D01*
X114178922Y-60834647D02*
X114178922Y-60072743D01*
X113655113Y-58882266D02*
X113607494Y-58834647D01*
X113607494Y-58834647D02*
X113559875Y-58739409D01*
X113559875Y-58739409D02*
X113559875Y-58501314D01*
X113559875Y-58501314D02*
X113607494Y-58406076D01*
X113607494Y-58406076D02*
X113655113Y-58358457D01*
X113655113Y-58358457D02*
X113750351Y-58310838D01*
X113750351Y-58310838D02*
X113845589Y-58310838D01*
X113845589Y-58310838D02*
X113988446Y-58358457D01*
X113988446Y-58358457D02*
X114559875Y-58929885D01*
X114559875Y-58929885D02*
X114559875Y-58310838D01*
X113559875Y-57691790D02*
X113559875Y-57596552D01*
X113559875Y-57596552D02*
X113607494Y-57501314D01*
X113607494Y-57501314D02*
X113655113Y-57453695D01*
X113655113Y-57453695D02*
X113750351Y-57406076D01*
X113750351Y-57406076D02*
X113940827Y-57358457D01*
X113940827Y-57358457D02*
X114178922Y-57358457D01*
X114178922Y-57358457D02*
X114369398Y-57406076D01*
X114369398Y-57406076D02*
X114464636Y-57453695D01*
X114464636Y-57453695D02*
X114512256Y-57501314D01*
X114512256Y-57501314D02*
X114559875Y-57596552D01*
X114559875Y-57596552D02*
X114559875Y-57691790D01*
X114559875Y-57691790D02*
X114512256Y-57787028D01*
X114512256Y-57787028D02*
X114464636Y-57834647D01*
X114464636Y-57834647D02*
X114369398Y-57882266D01*
X114369398Y-57882266D02*
X114178922Y-57929885D01*
X114178922Y-57929885D02*
X113940827Y-57929885D01*
X113940827Y-57929885D02*
X113750351Y-57882266D01*
X113750351Y-57882266D02*
X113655113Y-57834647D01*
X113655113Y-57834647D02*
X113607494Y-57787028D01*
X113607494Y-57787028D02*
X113559875Y-57691790D01*
X113655113Y-56977504D02*
X113607494Y-56929885D01*
X113607494Y-56929885D02*
X113559875Y-56834647D01*
X113559875Y-56834647D02*
X113559875Y-56596552D01*
X113559875Y-56596552D02*
X113607494Y-56501314D01*
X113607494Y-56501314D02*
X113655113Y-56453695D01*
X113655113Y-56453695D02*
X113750351Y-56406076D01*
X113750351Y-56406076D02*
X113845589Y-56406076D01*
X113845589Y-56406076D02*
X113988446Y-56453695D01*
X113988446Y-56453695D02*
X114559875Y-57025123D01*
X114559875Y-57025123D02*
X114559875Y-56406076D01*
X113893208Y-55548933D02*
X114559875Y-55548933D01*
X113512256Y-55787028D02*
X114226541Y-56025123D01*
X114226541Y-56025123D02*
X114226541Y-55406076D01*
X116169819Y-73263220D02*
X115169819Y-73263220D01*
X116169819Y-72834649D02*
X115646009Y-72834649D01*
X115646009Y-72834649D02*
X115550771Y-72882268D01*
X115550771Y-72882268D02*
X115503152Y-72977506D01*
X115503152Y-72977506D02*
X115503152Y-73120363D01*
X115503152Y-73120363D02*
X115550771Y-73215601D01*
X115550771Y-73215601D02*
X115598390Y-73263220D01*
X115503152Y-72501315D02*
X115503152Y-72120363D01*
X115169819Y-72358458D02*
X116026961Y-72358458D01*
X116026961Y-72358458D02*
X116122200Y-72310839D01*
X116122200Y-72310839D02*
X116169819Y-72215601D01*
X116169819Y-72215601D02*
X116169819Y-72120363D01*
X115503152Y-71929886D02*
X115503152Y-71548934D01*
X115169819Y-71787029D02*
X116026961Y-71787029D01*
X116026961Y-71787029D02*
X116122200Y-71739410D01*
X116122200Y-71739410D02*
X116169819Y-71644172D01*
X116169819Y-71644172D02*
X116169819Y-71548934D01*
X115503152Y-71215600D02*
X116503152Y-71215600D01*
X115550771Y-71215600D02*
X115503152Y-71120362D01*
X115503152Y-71120362D02*
X115503152Y-70929886D01*
X115503152Y-70929886D02*
X115550771Y-70834648D01*
X115550771Y-70834648D02*
X115598390Y-70787029D01*
X115598390Y-70787029D02*
X115693628Y-70739410D01*
X115693628Y-70739410D02*
X115979342Y-70739410D01*
X115979342Y-70739410D02*
X116074580Y-70787029D01*
X116074580Y-70787029D02*
X116122200Y-70834648D01*
X116122200Y-70834648D02*
X116169819Y-70929886D01*
X116169819Y-70929886D02*
X116169819Y-71120362D01*
X116169819Y-71120362D02*
X116122200Y-71215600D01*
X116122200Y-70358457D02*
X116169819Y-70263219D01*
X116169819Y-70263219D02*
X116169819Y-70072743D01*
X116169819Y-70072743D02*
X116122200Y-69977505D01*
X116122200Y-69977505D02*
X116026961Y-69929886D01*
X116026961Y-69929886D02*
X115979342Y-69929886D01*
X115979342Y-69929886D02*
X115884104Y-69977505D01*
X115884104Y-69977505D02*
X115836485Y-70072743D01*
X115836485Y-70072743D02*
X115836485Y-70215600D01*
X115836485Y-70215600D02*
X115788866Y-70310838D01*
X115788866Y-70310838D02*
X115693628Y-70358457D01*
X115693628Y-70358457D02*
X115646009Y-70358457D01*
X115646009Y-70358457D02*
X115550771Y-70310838D01*
X115550771Y-70310838D02*
X115503152Y-70215600D01*
X115503152Y-70215600D02*
X115503152Y-70072743D01*
X115503152Y-70072743D02*
X115550771Y-69977505D01*
X116074580Y-69501314D02*
X116122200Y-69453695D01*
X116122200Y-69453695D02*
X116169819Y-69501314D01*
X116169819Y-69501314D02*
X116122200Y-69548933D01*
X116122200Y-69548933D02*
X116074580Y-69501314D01*
X116074580Y-69501314D02*
X116169819Y-69501314D01*
X115550771Y-69501314D02*
X115598390Y-69453695D01*
X115598390Y-69453695D02*
X115646009Y-69501314D01*
X115646009Y-69501314D02*
X115598390Y-69548933D01*
X115598390Y-69548933D02*
X115550771Y-69501314D01*
X115550771Y-69501314D02*
X115646009Y-69501314D01*
X115122200Y-68310839D02*
X116407914Y-69167981D01*
X115122200Y-67263220D02*
X116407914Y-68120362D01*
X115503152Y-67025124D02*
X116169819Y-66834648D01*
X116169819Y-66834648D02*
X115693628Y-66644172D01*
X115693628Y-66644172D02*
X116169819Y-66453696D01*
X116169819Y-66453696D02*
X115503152Y-66263220D01*
X115503152Y-65977505D02*
X116169819Y-65787029D01*
X116169819Y-65787029D02*
X115693628Y-65596553D01*
X115693628Y-65596553D02*
X116169819Y-65406077D01*
X116169819Y-65406077D02*
X115503152Y-65215601D01*
X115503152Y-64929886D02*
X116169819Y-64739410D01*
X116169819Y-64739410D02*
X115693628Y-64548934D01*
X115693628Y-64548934D02*
X116169819Y-64358458D01*
X116169819Y-64358458D02*
X115503152Y-64167982D01*
X116074580Y-63787029D02*
X116122200Y-63739410D01*
X116122200Y-63739410D02*
X116169819Y-63787029D01*
X116169819Y-63787029D02*
X116122200Y-63834648D01*
X116122200Y-63834648D02*
X116074580Y-63787029D01*
X116074580Y-63787029D02*
X116169819Y-63787029D01*
X116169819Y-63310839D02*
X115503152Y-63310839D01*
X115598390Y-63310839D02*
X115550771Y-63263220D01*
X115550771Y-63263220D02*
X115503152Y-63167982D01*
X115503152Y-63167982D02*
X115503152Y-63025125D01*
X115503152Y-63025125D02*
X115550771Y-62929887D01*
X115550771Y-62929887D02*
X115646009Y-62882268D01*
X115646009Y-62882268D02*
X116169819Y-62882268D01*
X115646009Y-62882268D02*
X115550771Y-62834649D01*
X115550771Y-62834649D02*
X115503152Y-62739411D01*
X115503152Y-62739411D02*
X115503152Y-62596554D01*
X115503152Y-62596554D02*
X115550771Y-62501315D01*
X115550771Y-62501315D02*
X115646009Y-62453696D01*
X115646009Y-62453696D02*
X116169819Y-62453696D01*
X116169819Y-61548935D02*
X115646009Y-61548935D01*
X115646009Y-61548935D02*
X115550771Y-61596554D01*
X115550771Y-61596554D02*
X115503152Y-61691792D01*
X115503152Y-61691792D02*
X115503152Y-61882268D01*
X115503152Y-61882268D02*
X115550771Y-61977506D01*
X116122200Y-61548935D02*
X116169819Y-61644173D01*
X116169819Y-61644173D02*
X116169819Y-61882268D01*
X116169819Y-61882268D02*
X116122200Y-61977506D01*
X116122200Y-61977506D02*
X116026961Y-62025125D01*
X116026961Y-62025125D02*
X115931723Y-62025125D01*
X115931723Y-62025125D02*
X115836485Y-61977506D01*
X115836485Y-61977506D02*
X115788866Y-61882268D01*
X115788866Y-61882268D02*
X115788866Y-61644173D01*
X115788866Y-61644173D02*
X115741247Y-61548935D01*
X116169819Y-61072744D02*
X115169819Y-61072744D01*
X115788866Y-60977506D02*
X116169819Y-60691792D01*
X115503152Y-60691792D02*
X115884104Y-61072744D01*
X116169819Y-60263220D02*
X115503152Y-60263220D01*
X115169819Y-60263220D02*
X115217438Y-60310839D01*
X115217438Y-60310839D02*
X115265057Y-60263220D01*
X115265057Y-60263220D02*
X115217438Y-60215601D01*
X115217438Y-60215601D02*
X115169819Y-60263220D01*
X115169819Y-60263220D02*
X115265057Y-60263220D01*
X115503152Y-59787030D02*
X116169819Y-59787030D01*
X115598390Y-59787030D02*
X115550771Y-59739411D01*
X115550771Y-59739411D02*
X115503152Y-59644173D01*
X115503152Y-59644173D02*
X115503152Y-59501316D01*
X115503152Y-59501316D02*
X115550771Y-59406078D01*
X115550771Y-59406078D02*
X115646009Y-59358459D01*
X115646009Y-59358459D02*
X116169819Y-59358459D01*
X115503152Y-58453697D02*
X116312676Y-58453697D01*
X116312676Y-58453697D02*
X116407914Y-58501316D01*
X116407914Y-58501316D02*
X116455533Y-58548935D01*
X116455533Y-58548935D02*
X116503152Y-58644173D01*
X116503152Y-58644173D02*
X116503152Y-58787030D01*
X116503152Y-58787030D02*
X116455533Y-58882268D01*
X116122200Y-58453697D02*
X116169819Y-58548935D01*
X116169819Y-58548935D02*
X116169819Y-58739411D01*
X116169819Y-58739411D02*
X116122200Y-58834649D01*
X116122200Y-58834649D02*
X116074580Y-58882268D01*
X116074580Y-58882268D02*
X115979342Y-58929887D01*
X115979342Y-58929887D02*
X115693628Y-58929887D01*
X115693628Y-58929887D02*
X115598390Y-58882268D01*
X115598390Y-58882268D02*
X115550771Y-58834649D01*
X115550771Y-58834649D02*
X115503152Y-58739411D01*
X115503152Y-58739411D02*
X115503152Y-58548935D01*
X115503152Y-58548935D02*
X115550771Y-58453697D01*
X116169819Y-57548935D02*
X115169819Y-57548935D01*
X116122200Y-57548935D02*
X116169819Y-57644173D01*
X116169819Y-57644173D02*
X116169819Y-57834649D01*
X116169819Y-57834649D02*
X116122200Y-57929887D01*
X116122200Y-57929887D02*
X116074580Y-57977506D01*
X116074580Y-57977506D02*
X115979342Y-58025125D01*
X115979342Y-58025125D02*
X115693628Y-58025125D01*
X115693628Y-58025125D02*
X115598390Y-57977506D01*
X115598390Y-57977506D02*
X115550771Y-57929887D01*
X115550771Y-57929887D02*
X115503152Y-57834649D01*
X115503152Y-57834649D02*
X115503152Y-57644173D01*
X115503152Y-57644173D02*
X115550771Y-57548935D01*
X116122200Y-56691792D02*
X116169819Y-56787030D01*
X116169819Y-56787030D02*
X116169819Y-56977506D01*
X116169819Y-56977506D02*
X116122200Y-57072744D01*
X116122200Y-57072744D02*
X116026961Y-57120363D01*
X116026961Y-57120363D02*
X115646009Y-57120363D01*
X115646009Y-57120363D02*
X115550771Y-57072744D01*
X115550771Y-57072744D02*
X115503152Y-56977506D01*
X115503152Y-56977506D02*
X115503152Y-56787030D01*
X115503152Y-56787030D02*
X115550771Y-56691792D01*
X115550771Y-56691792D02*
X115646009Y-56644173D01*
X115646009Y-56644173D02*
X115741247Y-56644173D01*
X115741247Y-56644173D02*
X115836485Y-57120363D01*
X115503152Y-56310839D02*
X116169819Y-56072744D01*
X116169819Y-56072744D02*
X115503152Y-55834649D01*
X116169819Y-55453696D02*
X115503152Y-55453696D01*
X115169819Y-55453696D02*
X115217438Y-55501315D01*
X115217438Y-55501315D02*
X115265057Y-55453696D01*
X115265057Y-55453696D02*
X115217438Y-55406077D01*
X115217438Y-55406077D02*
X115169819Y-55453696D01*
X115169819Y-55453696D02*
X115265057Y-55453696D01*
X116122200Y-54548935D02*
X116169819Y-54644173D01*
X116169819Y-54644173D02*
X116169819Y-54834649D01*
X116169819Y-54834649D02*
X116122200Y-54929887D01*
X116122200Y-54929887D02*
X116074580Y-54977506D01*
X116074580Y-54977506D02*
X115979342Y-55025125D01*
X115979342Y-55025125D02*
X115693628Y-55025125D01*
X115693628Y-55025125D02*
X115598390Y-54977506D01*
X115598390Y-54977506D02*
X115550771Y-54929887D01*
X115550771Y-54929887D02*
X115503152Y-54834649D01*
X115503152Y-54834649D02*
X115503152Y-54644173D01*
X115503152Y-54644173D02*
X115550771Y-54548935D01*
X116122200Y-53739411D02*
X116169819Y-53834649D01*
X116169819Y-53834649D02*
X116169819Y-54025125D01*
X116169819Y-54025125D02*
X116122200Y-54120363D01*
X116122200Y-54120363D02*
X116026961Y-54167982D01*
X116026961Y-54167982D02*
X115646009Y-54167982D01*
X115646009Y-54167982D02*
X115550771Y-54120363D01*
X115550771Y-54120363D02*
X115503152Y-54025125D01*
X115503152Y-54025125D02*
X115503152Y-53834649D01*
X115503152Y-53834649D02*
X115550771Y-53739411D01*
X115550771Y-53739411D02*
X115646009Y-53691792D01*
X115646009Y-53691792D02*
X115741247Y-53691792D01*
X115741247Y-53691792D02*
X115836485Y-54167982D01*
X116122200Y-53310839D02*
X116169819Y-53215601D01*
X116169819Y-53215601D02*
X116169819Y-53025125D01*
X116169819Y-53025125D02*
X116122200Y-52929887D01*
X116122200Y-52929887D02*
X116026961Y-52882268D01*
X116026961Y-52882268D02*
X115979342Y-52882268D01*
X115979342Y-52882268D02*
X115884104Y-52929887D01*
X115884104Y-52929887D02*
X115836485Y-53025125D01*
X115836485Y-53025125D02*
X115836485Y-53167982D01*
X115836485Y-53167982D02*
X115788866Y-53263220D01*
X115788866Y-53263220D02*
X115693628Y-53310839D01*
X115693628Y-53310839D02*
X115646009Y-53310839D01*
X115646009Y-53310839D02*
X115550771Y-53263220D01*
X115550771Y-53263220D02*
X115503152Y-53167982D01*
X115503152Y-53167982D02*
X115503152Y-53025125D01*
X115503152Y-53025125D02*
X115550771Y-52929887D01*
X116074580Y-52453696D02*
X116122200Y-52406077D01*
X116122200Y-52406077D02*
X116169819Y-52453696D01*
X116169819Y-52453696D02*
X116122200Y-52501315D01*
X116122200Y-52501315D02*
X116074580Y-52453696D01*
X116074580Y-52453696D02*
X116169819Y-52453696D01*
X116122200Y-51548935D02*
X116169819Y-51644173D01*
X116169819Y-51644173D02*
X116169819Y-51834649D01*
X116169819Y-51834649D02*
X116122200Y-51929887D01*
X116122200Y-51929887D02*
X116074580Y-51977506D01*
X116074580Y-51977506D02*
X115979342Y-52025125D01*
X115979342Y-52025125D02*
X115693628Y-52025125D01*
X115693628Y-52025125D02*
X115598390Y-51977506D01*
X115598390Y-51977506D02*
X115550771Y-51929887D01*
X115550771Y-51929887D02*
X115503152Y-51834649D01*
X115503152Y-51834649D02*
X115503152Y-51644173D01*
X115503152Y-51644173D02*
X115550771Y-51548935D01*
X116169819Y-50977506D02*
X116122200Y-51072744D01*
X116122200Y-51072744D02*
X116074580Y-51120363D01*
X116074580Y-51120363D02*
X115979342Y-51167982D01*
X115979342Y-51167982D02*
X115693628Y-51167982D01*
X115693628Y-51167982D02*
X115598390Y-51120363D01*
X115598390Y-51120363D02*
X115550771Y-51072744D01*
X115550771Y-51072744D02*
X115503152Y-50977506D01*
X115503152Y-50977506D02*
X115503152Y-50834649D01*
X115503152Y-50834649D02*
X115550771Y-50739411D01*
X115550771Y-50739411D02*
X115598390Y-50691792D01*
X115598390Y-50691792D02*
X115693628Y-50644173D01*
X115693628Y-50644173D02*
X115979342Y-50644173D01*
X115979342Y-50644173D02*
X116074580Y-50691792D01*
X116074580Y-50691792D02*
X116122200Y-50739411D01*
X116122200Y-50739411D02*
X116169819Y-50834649D01*
X116169819Y-50834649D02*
X116169819Y-50977506D01*
X116169819Y-50215601D02*
X115503152Y-50215601D01*
X115598390Y-50215601D02*
X115550771Y-50167982D01*
X115550771Y-50167982D02*
X115503152Y-50072744D01*
X115503152Y-50072744D02*
X115503152Y-49929887D01*
X115503152Y-49929887D02*
X115550771Y-49834649D01*
X115550771Y-49834649D02*
X115646009Y-49787030D01*
X115646009Y-49787030D02*
X116169819Y-49787030D01*
X115646009Y-49787030D02*
X115550771Y-49739411D01*
X115550771Y-49739411D02*
X115503152Y-49644173D01*
X115503152Y-49644173D02*
X115503152Y-49501316D01*
X115503152Y-49501316D02*
X115550771Y-49406077D01*
X115550771Y-49406077D02*
X115646009Y-49358458D01*
X115646009Y-49358458D02*
X116169819Y-49358458D01*
X138278743Y-110869809D02*
X138413430Y-110802465D01*
X138413430Y-110802465D02*
X138581789Y-110634107D01*
X138581789Y-110634107D02*
X138615461Y-110533091D01*
X138615461Y-110533091D02*
X138615461Y-110465748D01*
X138615461Y-110465748D02*
X138581789Y-110364733D01*
X138581789Y-110364733D02*
X138514445Y-110297389D01*
X138514445Y-110297389D02*
X138413430Y-110263717D01*
X138413430Y-110263717D02*
X138346087Y-110263717D01*
X138346087Y-110263717D02*
X138245071Y-110297389D01*
X138245071Y-110297389D02*
X138076713Y-110398404D01*
X138076713Y-110398404D02*
X137975697Y-110432076D01*
X137975697Y-110432076D02*
X137908354Y-110432076D01*
X137908354Y-110432076D02*
X137807339Y-110398404D01*
X137807339Y-110398404D02*
X137739995Y-110331061D01*
X137739995Y-110331061D02*
X137706323Y-110230046D01*
X137706323Y-110230046D02*
X137706323Y-110162702D01*
X137706323Y-110162702D02*
X137739995Y-110061687D01*
X137739995Y-110061687D02*
X137908354Y-109893328D01*
X137908354Y-109893328D02*
X138043041Y-109825984D01*
X138211400Y-109590282D02*
X138615461Y-109186221D01*
X139120537Y-110095358D02*
X138413430Y-109388252D01*
X139558270Y-109657626D02*
X138851163Y-108950519D01*
X138851163Y-108950519D02*
X139591942Y-109219893D01*
X139591942Y-109219893D02*
X139322568Y-108479114D01*
X139322568Y-108479114D02*
X140029674Y-109186221D01*
X139591941Y-108209740D02*
X140029674Y-107772008D01*
X140029674Y-107772008D02*
X140063346Y-108277084D01*
X140063346Y-108277084D02*
X140164361Y-108176069D01*
X140164361Y-108176069D02*
X140265376Y-108142397D01*
X140265376Y-108142397D02*
X140332720Y-108142397D01*
X140332720Y-108142397D02*
X140433735Y-108176069D01*
X140433735Y-108176069D02*
X140602094Y-108344427D01*
X140602094Y-108344427D02*
X140635766Y-108445443D01*
X140635766Y-108445443D02*
X140635766Y-108512786D01*
X140635766Y-108512786D02*
X140602094Y-108613801D01*
X140602094Y-108613801D02*
X140400063Y-108815832D01*
X140400063Y-108815832D02*
X140299048Y-108849504D01*
X140299048Y-108849504D02*
X140231705Y-108849504D01*
X140366392Y-107569977D02*
X140366392Y-107502633D01*
X140366392Y-107502633D02*
X140400064Y-107401618D01*
X140400064Y-107401618D02*
X140568422Y-107233259D01*
X140568422Y-107233259D02*
X140669438Y-107199588D01*
X140669438Y-107199588D02*
X140736781Y-107199588D01*
X140736781Y-107199588D02*
X140837796Y-107233259D01*
X140837796Y-107233259D02*
X140905140Y-107300603D01*
X140905140Y-107300603D02*
X140972483Y-107435290D01*
X140972483Y-107435290D02*
X140972483Y-108243412D01*
X140972483Y-108243412D02*
X141410216Y-107805679D01*
X141578575Y-106896542D02*
X141342873Y-107132244D01*
X141713262Y-107502633D02*
X141006155Y-106795527D01*
X141006155Y-106795527D02*
X141342873Y-106458809D01*
X141746934Y-106054748D02*
X141814277Y-105987405D01*
X141814277Y-105987405D02*
X141915292Y-105953733D01*
X141915292Y-105953733D02*
X141982636Y-105953733D01*
X141982636Y-105953733D02*
X142083651Y-105987405D01*
X142083651Y-105987405D02*
X142252010Y-106088420D01*
X142252010Y-106088420D02*
X142420369Y-106256779D01*
X142420369Y-106256779D02*
X142521384Y-106425137D01*
X142521384Y-106425137D02*
X142555056Y-106526153D01*
X142555056Y-106526153D02*
X142555056Y-106593496D01*
X142555056Y-106593496D02*
X142521384Y-106694511D01*
X142521384Y-106694511D02*
X142454040Y-106761855D01*
X142454040Y-106761855D02*
X142353025Y-106795527D01*
X142353025Y-106795527D02*
X142285682Y-106795527D01*
X142285682Y-106795527D02*
X142184666Y-106761855D01*
X142184666Y-106761855D02*
X142016308Y-106660840D01*
X142016308Y-106660840D02*
X141847949Y-106492481D01*
X141847949Y-106492481D02*
X141746934Y-106324122D01*
X141746934Y-106324122D02*
X141713262Y-106223107D01*
X141713262Y-106223107D02*
X141713262Y-106155763D01*
X141713262Y-106155763D02*
X141746934Y-106054748D01*
X143363178Y-105852718D02*
X142959117Y-106256779D01*
X143161147Y-106054748D02*
X142454041Y-105347641D01*
X142454041Y-105347641D02*
X142487712Y-105516000D01*
X142487712Y-105516000D02*
X142487712Y-105650687D01*
X142487712Y-105650687D02*
X142454041Y-105751702D01*
X142891773Y-104909908D02*
X143329506Y-104472176D01*
X143329506Y-104472176D02*
X143363178Y-104977252D01*
X143363178Y-104977252D02*
X143464193Y-104876237D01*
X143464193Y-104876237D02*
X143565208Y-104842565D01*
X143565208Y-104842565D02*
X143632552Y-104842565D01*
X143632552Y-104842565D02*
X143733567Y-104876237D01*
X143733567Y-104876237D02*
X143901926Y-105044595D01*
X143901926Y-105044595D02*
X143935598Y-105145611D01*
X143935598Y-105145611D02*
X143935598Y-105212954D01*
X143935598Y-105212954D02*
X143901926Y-105313969D01*
X143901926Y-105313969D02*
X143699895Y-105516000D01*
X143699895Y-105516000D02*
X143598880Y-105549672D01*
X143598880Y-105549672D02*
X143531537Y-105549672D01*
X150833333Y-105554819D02*
X150500000Y-105078628D01*
X150261905Y-105554819D02*
X150261905Y-104554819D01*
X150261905Y-104554819D02*
X150642857Y-104554819D01*
X150642857Y-104554819D02*
X150738095Y-104602438D01*
X150738095Y-104602438D02*
X150785714Y-104650057D01*
X150785714Y-104650057D02*
X150833333Y-104745295D01*
X150833333Y-104745295D02*
X150833333Y-104888152D01*
X150833333Y-104888152D02*
X150785714Y-104983390D01*
X150785714Y-104983390D02*
X150738095Y-105031009D01*
X150738095Y-105031009D02*
X150642857Y-105078628D01*
X150642857Y-105078628D02*
X150261905Y-105078628D01*
X151404762Y-104983390D02*
X151309524Y-104935771D01*
X151309524Y-104935771D02*
X151261905Y-104888152D01*
X151261905Y-104888152D02*
X151214286Y-104792914D01*
X151214286Y-104792914D02*
X151214286Y-104745295D01*
X151214286Y-104745295D02*
X151261905Y-104650057D01*
X151261905Y-104650057D02*
X151309524Y-104602438D01*
X151309524Y-104602438D02*
X151404762Y-104554819D01*
X151404762Y-104554819D02*
X151595238Y-104554819D01*
X151595238Y-104554819D02*
X151690476Y-104602438D01*
X151690476Y-104602438D02*
X151738095Y-104650057D01*
X151738095Y-104650057D02*
X151785714Y-104745295D01*
X151785714Y-104745295D02*
X151785714Y-104792914D01*
X151785714Y-104792914D02*
X151738095Y-104888152D01*
X151738095Y-104888152D02*
X151690476Y-104935771D01*
X151690476Y-104935771D02*
X151595238Y-104983390D01*
X151595238Y-104983390D02*
X151404762Y-104983390D01*
X151404762Y-104983390D02*
X151309524Y-105031009D01*
X151309524Y-105031009D02*
X151261905Y-105078628D01*
X151261905Y-105078628D02*
X151214286Y-105173866D01*
X151214286Y-105173866D02*
X151214286Y-105364342D01*
X151214286Y-105364342D02*
X151261905Y-105459580D01*
X151261905Y-105459580D02*
X151309524Y-105507200D01*
X151309524Y-105507200D02*
X151404762Y-105554819D01*
X151404762Y-105554819D02*
X151595238Y-105554819D01*
X151595238Y-105554819D02*
X151690476Y-105507200D01*
X151690476Y-105507200D02*
X151738095Y-105459580D01*
X151738095Y-105459580D02*
X151785714Y-105364342D01*
X151785714Y-105364342D02*
X151785714Y-105173866D01*
X151785714Y-105173866D02*
X151738095Y-105078628D01*
X151738095Y-105078628D02*
X151690476Y-105031009D01*
X151690476Y-105031009D02*
X151595238Y-104983390D01*
X143033333Y-116259580D02*
X142985714Y-116307200D01*
X142985714Y-116307200D02*
X142842857Y-116354819D01*
X142842857Y-116354819D02*
X142747619Y-116354819D01*
X142747619Y-116354819D02*
X142604762Y-116307200D01*
X142604762Y-116307200D02*
X142509524Y-116211961D01*
X142509524Y-116211961D02*
X142461905Y-116116723D01*
X142461905Y-116116723D02*
X142414286Y-115926247D01*
X142414286Y-115926247D02*
X142414286Y-115783390D01*
X142414286Y-115783390D02*
X142461905Y-115592914D01*
X142461905Y-115592914D02*
X142509524Y-115497676D01*
X142509524Y-115497676D02*
X142604762Y-115402438D01*
X142604762Y-115402438D02*
X142747619Y-115354819D01*
X142747619Y-115354819D02*
X142842857Y-115354819D01*
X142842857Y-115354819D02*
X142985714Y-115402438D01*
X142985714Y-115402438D02*
X143033333Y-115450057D01*
X143366667Y-115354819D02*
X143985714Y-115354819D01*
X143985714Y-115354819D02*
X143652381Y-115735771D01*
X143652381Y-115735771D02*
X143795238Y-115735771D01*
X143795238Y-115735771D02*
X143890476Y-115783390D01*
X143890476Y-115783390D02*
X143938095Y-115831009D01*
X143938095Y-115831009D02*
X143985714Y-115926247D01*
X143985714Y-115926247D02*
X143985714Y-116164342D01*
X143985714Y-116164342D02*
X143938095Y-116259580D01*
X143938095Y-116259580D02*
X143890476Y-116307200D01*
X143890476Y-116307200D02*
X143795238Y-116354819D01*
X143795238Y-116354819D02*
X143509524Y-116354819D01*
X143509524Y-116354819D02*
X143414286Y-116307200D01*
X143414286Y-116307200D02*
X143366667Y-116259580D01*
X155814819Y-100298333D02*
X156529104Y-100298333D01*
X156529104Y-100298333D02*
X156671961Y-100345952D01*
X156671961Y-100345952D02*
X156767200Y-100441190D01*
X156767200Y-100441190D02*
X156814819Y-100584047D01*
X156814819Y-100584047D02*
X156814819Y-100679285D01*
X156814819Y-99298333D02*
X156814819Y-99869761D01*
X156814819Y-99584047D02*
X155814819Y-99584047D01*
X155814819Y-99584047D02*
X155957676Y-99679285D01*
X155957676Y-99679285D02*
X156052914Y-99774523D01*
X156052914Y-99774523D02*
X156100533Y-99869761D01*
X133033333Y-100359580D02*
X132985714Y-100407200D01*
X132985714Y-100407200D02*
X132842857Y-100454819D01*
X132842857Y-100454819D02*
X132747619Y-100454819D01*
X132747619Y-100454819D02*
X132604762Y-100407200D01*
X132604762Y-100407200D02*
X132509524Y-100311961D01*
X132509524Y-100311961D02*
X132461905Y-100216723D01*
X132461905Y-100216723D02*
X132414286Y-100026247D01*
X132414286Y-100026247D02*
X132414286Y-99883390D01*
X132414286Y-99883390D02*
X132461905Y-99692914D01*
X132461905Y-99692914D02*
X132509524Y-99597676D01*
X132509524Y-99597676D02*
X132604762Y-99502438D01*
X132604762Y-99502438D02*
X132747619Y-99454819D01*
X132747619Y-99454819D02*
X132842857Y-99454819D01*
X132842857Y-99454819D02*
X132985714Y-99502438D01*
X132985714Y-99502438D02*
X133033333Y-99550057D01*
X133890476Y-99788152D02*
X133890476Y-100454819D01*
X133652381Y-99407200D02*
X133414286Y-100121485D01*
X133414286Y-100121485D02*
X134033333Y-100121485D01*
X141533333Y-98754819D02*
X141200000Y-98278628D01*
X140961905Y-98754819D02*
X140961905Y-97754819D01*
X140961905Y-97754819D02*
X141342857Y-97754819D01*
X141342857Y-97754819D02*
X141438095Y-97802438D01*
X141438095Y-97802438D02*
X141485714Y-97850057D01*
X141485714Y-97850057D02*
X141533333Y-97945295D01*
X141533333Y-97945295D02*
X141533333Y-98088152D01*
X141533333Y-98088152D02*
X141485714Y-98183390D01*
X141485714Y-98183390D02*
X141438095Y-98231009D01*
X141438095Y-98231009D02*
X141342857Y-98278628D01*
X141342857Y-98278628D02*
X140961905Y-98278628D01*
X141866667Y-97754819D02*
X142533333Y-97754819D01*
X142533333Y-97754819D02*
X142104762Y-98754819D01*
X125354819Y-100166666D02*
X124878628Y-100499999D01*
X125354819Y-100738094D02*
X124354819Y-100738094D01*
X124354819Y-100738094D02*
X124354819Y-100357142D01*
X124354819Y-100357142D02*
X124402438Y-100261904D01*
X124402438Y-100261904D02*
X124450057Y-100214285D01*
X124450057Y-100214285D02*
X124545295Y-100166666D01*
X124545295Y-100166666D02*
X124688152Y-100166666D01*
X124688152Y-100166666D02*
X124783390Y-100214285D01*
X124783390Y-100214285D02*
X124831009Y-100261904D01*
X124831009Y-100261904D02*
X124878628Y-100357142D01*
X124878628Y-100357142D02*
X124878628Y-100738094D01*
X124354819Y-99261904D02*
X124354819Y-99738094D01*
X124354819Y-99738094D02*
X124831009Y-99785713D01*
X124831009Y-99785713D02*
X124783390Y-99738094D01*
X124783390Y-99738094D02*
X124735771Y-99642856D01*
X124735771Y-99642856D02*
X124735771Y-99404761D01*
X124735771Y-99404761D02*
X124783390Y-99309523D01*
X124783390Y-99309523D02*
X124831009Y-99261904D01*
X124831009Y-99261904D02*
X124926247Y-99214285D01*
X124926247Y-99214285D02*
X125164342Y-99214285D01*
X125164342Y-99214285D02*
X125259580Y-99261904D01*
X125259580Y-99261904D02*
X125307200Y-99309523D01*
X125307200Y-99309523D02*
X125354819Y-99404761D01*
X125354819Y-99404761D02*
X125354819Y-99642856D01*
X125354819Y-99642856D02*
X125307200Y-99738094D01*
X125307200Y-99738094D02*
X125259580Y-99785713D01*
X150833333Y-107454819D02*
X150500000Y-106978628D01*
X150261905Y-107454819D02*
X150261905Y-106454819D01*
X150261905Y-106454819D02*
X150642857Y-106454819D01*
X150642857Y-106454819D02*
X150738095Y-106502438D01*
X150738095Y-106502438D02*
X150785714Y-106550057D01*
X150785714Y-106550057D02*
X150833333Y-106645295D01*
X150833333Y-106645295D02*
X150833333Y-106788152D01*
X150833333Y-106788152D02*
X150785714Y-106883390D01*
X150785714Y-106883390D02*
X150738095Y-106931009D01*
X150738095Y-106931009D02*
X150642857Y-106978628D01*
X150642857Y-106978628D02*
X150261905Y-106978628D01*
X151309524Y-107454819D02*
X151500000Y-107454819D01*
X151500000Y-107454819D02*
X151595238Y-107407200D01*
X151595238Y-107407200D02*
X151642857Y-107359580D01*
X151642857Y-107359580D02*
X151738095Y-107216723D01*
X151738095Y-107216723D02*
X151785714Y-107026247D01*
X151785714Y-107026247D02*
X151785714Y-106645295D01*
X151785714Y-106645295D02*
X151738095Y-106550057D01*
X151738095Y-106550057D02*
X151690476Y-106502438D01*
X151690476Y-106502438D02*
X151595238Y-106454819D01*
X151595238Y-106454819D02*
X151404762Y-106454819D01*
X151404762Y-106454819D02*
X151309524Y-106502438D01*
X151309524Y-106502438D02*
X151261905Y-106550057D01*
X151261905Y-106550057D02*
X151214286Y-106645295D01*
X151214286Y-106645295D02*
X151214286Y-106883390D01*
X151214286Y-106883390D02*
X151261905Y-106978628D01*
X151261905Y-106978628D02*
X151309524Y-107026247D01*
X151309524Y-107026247D02*
X151404762Y-107073866D01*
X151404762Y-107073866D02*
X151595238Y-107073866D01*
X151595238Y-107073866D02*
X151690476Y-107026247D01*
X151690476Y-107026247D02*
X151738095Y-106978628D01*
X151738095Y-106978628D02*
X151785714Y-106883390D01*
X132859580Y-109266666D02*
X132907200Y-109314285D01*
X132907200Y-109314285D02*
X132954819Y-109457142D01*
X132954819Y-109457142D02*
X132954819Y-109552380D01*
X132954819Y-109552380D02*
X132907200Y-109695237D01*
X132907200Y-109695237D02*
X132811961Y-109790475D01*
X132811961Y-109790475D02*
X132716723Y-109838094D01*
X132716723Y-109838094D02*
X132526247Y-109885713D01*
X132526247Y-109885713D02*
X132383390Y-109885713D01*
X132383390Y-109885713D02*
X132192914Y-109838094D01*
X132192914Y-109838094D02*
X132097676Y-109790475D01*
X132097676Y-109790475D02*
X132002438Y-109695237D01*
X132002438Y-109695237D02*
X131954819Y-109552380D01*
X131954819Y-109552380D02*
X131954819Y-109457142D01*
X131954819Y-109457142D02*
X132002438Y-109314285D01*
X132002438Y-109314285D02*
X132050057Y-109266666D01*
X132954819Y-108314285D02*
X132954819Y-108885713D01*
X132954819Y-108599999D02*
X131954819Y-108599999D01*
X131954819Y-108599999D02*
X132097676Y-108695237D01*
X132097676Y-108695237D02*
X132192914Y-108790475D01*
X132192914Y-108790475D02*
X132240533Y-108885713D01*
X125254819Y-103666666D02*
X124778628Y-103999999D01*
X125254819Y-104238094D02*
X124254819Y-104238094D01*
X124254819Y-104238094D02*
X124254819Y-103857142D01*
X124254819Y-103857142D02*
X124302438Y-103761904D01*
X124302438Y-103761904D02*
X124350057Y-103714285D01*
X124350057Y-103714285D02*
X124445295Y-103666666D01*
X124445295Y-103666666D02*
X124588152Y-103666666D01*
X124588152Y-103666666D02*
X124683390Y-103714285D01*
X124683390Y-103714285D02*
X124731009Y-103761904D01*
X124731009Y-103761904D02*
X124778628Y-103857142D01*
X124778628Y-103857142D02*
X124778628Y-104238094D01*
X124254819Y-102809523D02*
X124254819Y-102999999D01*
X124254819Y-102999999D02*
X124302438Y-103095237D01*
X124302438Y-103095237D02*
X124350057Y-103142856D01*
X124350057Y-103142856D02*
X124492914Y-103238094D01*
X124492914Y-103238094D02*
X124683390Y-103285713D01*
X124683390Y-103285713D02*
X125064342Y-103285713D01*
X125064342Y-103285713D02*
X125159580Y-103238094D01*
X125159580Y-103238094D02*
X125207200Y-103190475D01*
X125207200Y-103190475D02*
X125254819Y-103095237D01*
X125254819Y-103095237D02*
X125254819Y-102904761D01*
X125254819Y-102904761D02*
X125207200Y-102809523D01*
X125207200Y-102809523D02*
X125159580Y-102761904D01*
X125159580Y-102761904D02*
X125064342Y-102714285D01*
X125064342Y-102714285D02*
X124826247Y-102714285D01*
X124826247Y-102714285D02*
X124731009Y-102761904D01*
X124731009Y-102761904D02*
X124683390Y-102809523D01*
X124683390Y-102809523D02*
X124635771Y-102904761D01*
X124635771Y-102904761D02*
X124635771Y-103095237D01*
X124635771Y-103095237D02*
X124683390Y-103190475D01*
X124683390Y-103190475D02*
X124731009Y-103238094D01*
X124731009Y-103238094D02*
X124826247Y-103285713D01*
X152557142Y-103254819D02*
X152223809Y-102778628D01*
X151985714Y-103254819D02*
X151985714Y-102254819D01*
X151985714Y-102254819D02*
X152366666Y-102254819D01*
X152366666Y-102254819D02*
X152461904Y-102302438D01*
X152461904Y-102302438D02*
X152509523Y-102350057D01*
X152509523Y-102350057D02*
X152557142Y-102445295D01*
X152557142Y-102445295D02*
X152557142Y-102588152D01*
X152557142Y-102588152D02*
X152509523Y-102683390D01*
X152509523Y-102683390D02*
X152461904Y-102731009D01*
X152461904Y-102731009D02*
X152366666Y-102778628D01*
X152366666Y-102778628D02*
X151985714Y-102778628D01*
X153509523Y-103254819D02*
X152938095Y-103254819D01*
X153223809Y-103254819D02*
X153223809Y-102254819D01*
X153223809Y-102254819D02*
X153128571Y-102397676D01*
X153128571Y-102397676D02*
X153033333Y-102492914D01*
X153033333Y-102492914D02*
X152938095Y-102540533D01*
X154128571Y-102254819D02*
X154223809Y-102254819D01*
X154223809Y-102254819D02*
X154319047Y-102302438D01*
X154319047Y-102302438D02*
X154366666Y-102350057D01*
X154366666Y-102350057D02*
X154414285Y-102445295D01*
X154414285Y-102445295D02*
X154461904Y-102635771D01*
X154461904Y-102635771D02*
X154461904Y-102873866D01*
X154461904Y-102873866D02*
X154414285Y-103064342D01*
X154414285Y-103064342D02*
X154366666Y-103159580D01*
X154366666Y-103159580D02*
X154319047Y-103207200D01*
X154319047Y-103207200D02*
X154223809Y-103254819D01*
X154223809Y-103254819D02*
X154128571Y-103254819D01*
X154128571Y-103254819D02*
X154033333Y-103207200D01*
X154033333Y-103207200D02*
X153985714Y-103159580D01*
X153985714Y-103159580D02*
X153938095Y-103064342D01*
X153938095Y-103064342D02*
X153890476Y-102873866D01*
X153890476Y-102873866D02*
X153890476Y-102635771D01*
X153890476Y-102635771D02*
X153938095Y-102445295D01*
X153938095Y-102445295D02*
X153985714Y-102350057D01*
X153985714Y-102350057D02*
X154033333Y-102302438D01*
X154033333Y-102302438D02*
X154128571Y-102254819D01*
X135633333Y-100359580D02*
X135585714Y-100407200D01*
X135585714Y-100407200D02*
X135442857Y-100454819D01*
X135442857Y-100454819D02*
X135347619Y-100454819D01*
X135347619Y-100454819D02*
X135204762Y-100407200D01*
X135204762Y-100407200D02*
X135109524Y-100311961D01*
X135109524Y-100311961D02*
X135061905Y-100216723D01*
X135061905Y-100216723D02*
X135014286Y-100026247D01*
X135014286Y-100026247D02*
X135014286Y-99883390D01*
X135014286Y-99883390D02*
X135061905Y-99692914D01*
X135061905Y-99692914D02*
X135109524Y-99597676D01*
X135109524Y-99597676D02*
X135204762Y-99502438D01*
X135204762Y-99502438D02*
X135347619Y-99454819D01*
X135347619Y-99454819D02*
X135442857Y-99454819D01*
X135442857Y-99454819D02*
X135585714Y-99502438D01*
X135585714Y-99502438D02*
X135633333Y-99550057D01*
X136538095Y-99454819D02*
X136061905Y-99454819D01*
X136061905Y-99454819D02*
X136014286Y-99931009D01*
X136014286Y-99931009D02*
X136061905Y-99883390D01*
X136061905Y-99883390D02*
X136157143Y-99835771D01*
X136157143Y-99835771D02*
X136395238Y-99835771D01*
X136395238Y-99835771D02*
X136490476Y-99883390D01*
X136490476Y-99883390D02*
X136538095Y-99931009D01*
X136538095Y-99931009D02*
X136585714Y-100026247D01*
X136585714Y-100026247D02*
X136585714Y-100264342D01*
X136585714Y-100264342D02*
X136538095Y-100359580D01*
X136538095Y-100359580D02*
X136490476Y-100407200D01*
X136490476Y-100407200D02*
X136395238Y-100454819D01*
X136395238Y-100454819D02*
X136157143Y-100454819D01*
X136157143Y-100454819D02*
X136061905Y-100407200D01*
X136061905Y-100407200D02*
X136014286Y-100359580D01*
X140866666Y-100254819D02*
X140866666Y-100969104D01*
X140866666Y-100969104D02*
X140819047Y-101111961D01*
X140819047Y-101111961D02*
X140723809Y-101207200D01*
X140723809Y-101207200D02*
X140580952Y-101254819D01*
X140580952Y-101254819D02*
X140485714Y-101254819D01*
X141342857Y-101254819D02*
X141342857Y-100254819D01*
X141342857Y-100254819D02*
X141723809Y-100254819D01*
X141723809Y-100254819D02*
X141819047Y-100302438D01*
X141819047Y-100302438D02*
X141866666Y-100350057D01*
X141866666Y-100350057D02*
X141914285Y-100445295D01*
X141914285Y-100445295D02*
X141914285Y-100588152D01*
X141914285Y-100588152D02*
X141866666Y-100683390D01*
X141866666Y-100683390D02*
X141819047Y-100731009D01*
X141819047Y-100731009D02*
X141723809Y-100778628D01*
X141723809Y-100778628D02*
X141342857Y-100778628D01*
X142866666Y-101254819D02*
X142295238Y-101254819D01*
X142580952Y-101254819D02*
X142580952Y-100254819D01*
X142580952Y-100254819D02*
X142485714Y-100397676D01*
X142485714Y-100397676D02*
X142390476Y-100492914D01*
X142390476Y-100492914D02*
X142295238Y-100540533D01*
X138166666Y-126004819D02*
X138166666Y-126719104D01*
X138166666Y-126719104D02*
X138119047Y-126861961D01*
X138119047Y-126861961D02*
X138023809Y-126957200D01*
X138023809Y-126957200D02*
X137880952Y-127004819D01*
X137880952Y-127004819D02*
X137785714Y-127004819D01*
X138595238Y-126100057D02*
X138642857Y-126052438D01*
X138642857Y-126052438D02*
X138738095Y-126004819D01*
X138738095Y-126004819D02*
X138976190Y-126004819D01*
X138976190Y-126004819D02*
X139071428Y-126052438D01*
X139071428Y-126052438D02*
X139119047Y-126100057D01*
X139119047Y-126100057D02*
X139166666Y-126195295D01*
X139166666Y-126195295D02*
X139166666Y-126290533D01*
X139166666Y-126290533D02*
X139119047Y-126433390D01*
X139119047Y-126433390D02*
X138547619Y-127004819D01*
X138547619Y-127004819D02*
X139166666Y-127004819D01*
X146333333Y-101359580D02*
X146285714Y-101407200D01*
X146285714Y-101407200D02*
X146142857Y-101454819D01*
X146142857Y-101454819D02*
X146047619Y-101454819D01*
X146047619Y-101454819D02*
X145904762Y-101407200D01*
X145904762Y-101407200D02*
X145809524Y-101311961D01*
X145809524Y-101311961D02*
X145761905Y-101216723D01*
X145761905Y-101216723D02*
X145714286Y-101026247D01*
X145714286Y-101026247D02*
X145714286Y-100883390D01*
X145714286Y-100883390D02*
X145761905Y-100692914D01*
X145761905Y-100692914D02*
X145809524Y-100597676D01*
X145809524Y-100597676D02*
X145904762Y-100502438D01*
X145904762Y-100502438D02*
X146047619Y-100454819D01*
X146047619Y-100454819D02*
X146142857Y-100454819D01*
X146142857Y-100454819D02*
X146285714Y-100502438D01*
X146285714Y-100502438D02*
X146333333Y-100550057D01*
X147190476Y-100454819D02*
X147000000Y-100454819D01*
X147000000Y-100454819D02*
X146904762Y-100502438D01*
X146904762Y-100502438D02*
X146857143Y-100550057D01*
X146857143Y-100550057D02*
X146761905Y-100692914D01*
X146761905Y-100692914D02*
X146714286Y-100883390D01*
X146714286Y-100883390D02*
X146714286Y-101264342D01*
X146714286Y-101264342D02*
X146761905Y-101359580D01*
X146761905Y-101359580D02*
X146809524Y-101407200D01*
X146809524Y-101407200D02*
X146904762Y-101454819D01*
X146904762Y-101454819D02*
X147095238Y-101454819D01*
X147095238Y-101454819D02*
X147190476Y-101407200D01*
X147190476Y-101407200D02*
X147238095Y-101359580D01*
X147238095Y-101359580D02*
X147285714Y-101264342D01*
X147285714Y-101264342D02*
X147285714Y-101026247D01*
X147285714Y-101026247D02*
X147238095Y-100931009D01*
X147238095Y-100931009D02*
X147190476Y-100883390D01*
X147190476Y-100883390D02*
X147095238Y-100835771D01*
X147095238Y-100835771D02*
X146904762Y-100835771D01*
X146904762Y-100835771D02*
X146809524Y-100883390D01*
X146809524Y-100883390D02*
X146761905Y-100931009D01*
X146761905Y-100931009D02*
X146714286Y-101026247D01*
X129433333Y-97159580D02*
X129385714Y-97207200D01*
X129385714Y-97207200D02*
X129242857Y-97254819D01*
X129242857Y-97254819D02*
X129147619Y-97254819D01*
X129147619Y-97254819D02*
X129004762Y-97207200D01*
X129004762Y-97207200D02*
X128909524Y-97111961D01*
X128909524Y-97111961D02*
X128861905Y-97016723D01*
X128861905Y-97016723D02*
X128814286Y-96826247D01*
X128814286Y-96826247D02*
X128814286Y-96683390D01*
X128814286Y-96683390D02*
X128861905Y-96492914D01*
X128861905Y-96492914D02*
X128909524Y-96397676D01*
X128909524Y-96397676D02*
X129004762Y-96302438D01*
X129004762Y-96302438D02*
X129147619Y-96254819D01*
X129147619Y-96254819D02*
X129242857Y-96254819D01*
X129242857Y-96254819D02*
X129385714Y-96302438D01*
X129385714Y-96302438D02*
X129433333Y-96350057D01*
X129814286Y-96350057D02*
X129861905Y-96302438D01*
X129861905Y-96302438D02*
X129957143Y-96254819D01*
X129957143Y-96254819D02*
X130195238Y-96254819D01*
X130195238Y-96254819D02*
X130290476Y-96302438D01*
X130290476Y-96302438D02*
X130338095Y-96350057D01*
X130338095Y-96350057D02*
X130385714Y-96445295D01*
X130385714Y-96445295D02*
X130385714Y-96540533D01*
X130385714Y-96540533D02*
X130338095Y-96683390D01*
X130338095Y-96683390D02*
X129766667Y-97254819D01*
X129766667Y-97254819D02*
X130385714Y-97254819D01*
X138558095Y-44364819D02*
X138558095Y-45174342D01*
X138558095Y-45174342D02*
X138605714Y-45269580D01*
X138605714Y-45269580D02*
X138653333Y-45317200D01*
X138653333Y-45317200D02*
X138748571Y-45364819D01*
X138748571Y-45364819D02*
X138939047Y-45364819D01*
X138939047Y-45364819D02*
X139034285Y-45317200D01*
X139034285Y-45317200D02*
X139081904Y-45269580D01*
X139081904Y-45269580D02*
X139129523Y-45174342D01*
X139129523Y-45174342D02*
X139129523Y-44364819D01*
X140129523Y-45364819D02*
X139558095Y-45364819D01*
X139843809Y-45364819D02*
X139843809Y-44364819D01*
X139843809Y-44364819D02*
X139748571Y-44507676D01*
X139748571Y-44507676D02*
X139653333Y-44602914D01*
X139653333Y-44602914D02*
X139558095Y-44650533D01*
X127109179Y-95579819D02*
X127109179Y-94579819D01*
X127537750Y-95579819D02*
X127537750Y-95056009D01*
X127537750Y-95056009D02*
X127490131Y-94960771D01*
X127490131Y-94960771D02*
X127394893Y-94913152D01*
X127394893Y-94913152D02*
X127252036Y-94913152D01*
X127252036Y-94913152D02*
X127156798Y-94960771D01*
X127156798Y-94960771D02*
X127109179Y-95008390D01*
X127871084Y-94913152D02*
X128252036Y-94913152D01*
X128013941Y-94579819D02*
X128013941Y-95436961D01*
X128013941Y-95436961D02*
X128061560Y-95532200D01*
X128061560Y-95532200D02*
X128156798Y-95579819D01*
X128156798Y-95579819D02*
X128252036Y-95579819D01*
X128442513Y-94913152D02*
X128823465Y-94913152D01*
X128585370Y-94579819D02*
X128585370Y-95436961D01*
X128585370Y-95436961D02*
X128632989Y-95532200D01*
X128632989Y-95532200D02*
X128728227Y-95579819D01*
X128728227Y-95579819D02*
X128823465Y-95579819D01*
X129156799Y-94913152D02*
X129156799Y-95913152D01*
X129156799Y-94960771D02*
X129252037Y-94913152D01*
X129252037Y-94913152D02*
X129442513Y-94913152D01*
X129442513Y-94913152D02*
X129537751Y-94960771D01*
X129537751Y-94960771D02*
X129585370Y-95008390D01*
X129585370Y-95008390D02*
X129632989Y-95103628D01*
X129632989Y-95103628D02*
X129632989Y-95389342D01*
X129632989Y-95389342D02*
X129585370Y-95484580D01*
X129585370Y-95484580D02*
X129537751Y-95532200D01*
X129537751Y-95532200D02*
X129442513Y-95579819D01*
X129442513Y-95579819D02*
X129252037Y-95579819D01*
X129252037Y-95579819D02*
X129156799Y-95532200D01*
X130013942Y-95532200D02*
X130109180Y-95579819D01*
X130109180Y-95579819D02*
X130299656Y-95579819D01*
X130299656Y-95579819D02*
X130394894Y-95532200D01*
X130394894Y-95532200D02*
X130442513Y-95436961D01*
X130442513Y-95436961D02*
X130442513Y-95389342D01*
X130442513Y-95389342D02*
X130394894Y-95294104D01*
X130394894Y-95294104D02*
X130299656Y-95246485D01*
X130299656Y-95246485D02*
X130156799Y-95246485D01*
X130156799Y-95246485D02*
X130061561Y-95198866D01*
X130061561Y-95198866D02*
X130013942Y-95103628D01*
X130013942Y-95103628D02*
X130013942Y-95056009D01*
X130013942Y-95056009D02*
X130061561Y-94960771D01*
X130061561Y-94960771D02*
X130156799Y-94913152D01*
X130156799Y-94913152D02*
X130299656Y-94913152D01*
X130299656Y-94913152D02*
X130394894Y-94960771D01*
X130871085Y-95484580D02*
X130918704Y-95532200D01*
X130918704Y-95532200D02*
X130871085Y-95579819D01*
X130871085Y-95579819D02*
X130823466Y-95532200D01*
X130823466Y-95532200D02*
X130871085Y-95484580D01*
X130871085Y-95484580D02*
X130871085Y-95579819D01*
X130871085Y-94960771D02*
X130918704Y-95008390D01*
X130918704Y-95008390D02*
X130871085Y-95056009D01*
X130871085Y-95056009D02*
X130823466Y-95008390D01*
X130823466Y-95008390D02*
X130871085Y-94960771D01*
X130871085Y-94960771D02*
X130871085Y-95056009D01*
X132061560Y-94532200D02*
X131204418Y-95817914D01*
X133109179Y-94532200D02*
X132252037Y-95817914D01*
X133442513Y-95579819D02*
X133442513Y-94913152D01*
X133442513Y-95008390D02*
X133490132Y-94960771D01*
X133490132Y-94960771D02*
X133585370Y-94913152D01*
X133585370Y-94913152D02*
X133728227Y-94913152D01*
X133728227Y-94913152D02*
X133823465Y-94960771D01*
X133823465Y-94960771D02*
X133871084Y-95056009D01*
X133871084Y-95056009D02*
X133871084Y-95579819D01*
X133871084Y-95056009D02*
X133918703Y-94960771D01*
X133918703Y-94960771D02*
X134013941Y-94913152D01*
X134013941Y-94913152D02*
X134156798Y-94913152D01*
X134156798Y-94913152D02*
X134252037Y-94960771D01*
X134252037Y-94960771D02*
X134299656Y-95056009D01*
X134299656Y-95056009D02*
X134299656Y-95579819D01*
X135204417Y-95579819D02*
X135204417Y-95056009D01*
X135204417Y-95056009D02*
X135156798Y-94960771D01*
X135156798Y-94960771D02*
X135061560Y-94913152D01*
X135061560Y-94913152D02*
X134871084Y-94913152D01*
X134871084Y-94913152D02*
X134775846Y-94960771D01*
X135204417Y-95532200D02*
X135109179Y-95579819D01*
X135109179Y-95579819D02*
X134871084Y-95579819D01*
X134871084Y-95579819D02*
X134775846Y-95532200D01*
X134775846Y-95532200D02*
X134728227Y-95436961D01*
X134728227Y-95436961D02*
X134728227Y-95341723D01*
X134728227Y-95341723D02*
X134775846Y-95246485D01*
X134775846Y-95246485D02*
X134871084Y-95198866D01*
X134871084Y-95198866D02*
X135109179Y-95198866D01*
X135109179Y-95198866D02*
X135204417Y-95151247D01*
X135680608Y-95579819D02*
X135680608Y-94579819D01*
X135775846Y-95198866D02*
X136061560Y-95579819D01*
X136061560Y-94913152D02*
X135680608Y-95294104D01*
X136490132Y-95579819D02*
X136490132Y-94913152D01*
X136490132Y-94579819D02*
X136442513Y-94627438D01*
X136442513Y-94627438D02*
X136490132Y-94675057D01*
X136490132Y-94675057D02*
X136537751Y-94627438D01*
X136537751Y-94627438D02*
X136490132Y-94579819D01*
X136490132Y-94579819D02*
X136490132Y-94675057D01*
X136966322Y-94913152D02*
X136966322Y-95579819D01*
X136966322Y-95008390D02*
X137013941Y-94960771D01*
X137013941Y-94960771D02*
X137109179Y-94913152D01*
X137109179Y-94913152D02*
X137252036Y-94913152D01*
X137252036Y-94913152D02*
X137347274Y-94960771D01*
X137347274Y-94960771D02*
X137394893Y-95056009D01*
X137394893Y-95056009D02*
X137394893Y-95579819D01*
X138299655Y-94913152D02*
X138299655Y-95722676D01*
X138299655Y-95722676D02*
X138252036Y-95817914D01*
X138252036Y-95817914D02*
X138204417Y-95865533D01*
X138204417Y-95865533D02*
X138109179Y-95913152D01*
X138109179Y-95913152D02*
X137966322Y-95913152D01*
X137966322Y-95913152D02*
X137871084Y-95865533D01*
X138299655Y-95532200D02*
X138204417Y-95579819D01*
X138204417Y-95579819D02*
X138013941Y-95579819D01*
X138013941Y-95579819D02*
X137918703Y-95532200D01*
X137918703Y-95532200D02*
X137871084Y-95484580D01*
X137871084Y-95484580D02*
X137823465Y-95389342D01*
X137823465Y-95389342D02*
X137823465Y-95103628D01*
X137823465Y-95103628D02*
X137871084Y-95008390D01*
X137871084Y-95008390D02*
X137918703Y-94960771D01*
X137918703Y-94960771D02*
X138013941Y-94913152D01*
X138013941Y-94913152D02*
X138204417Y-94913152D01*
X138204417Y-94913152D02*
X138299655Y-94960771D01*
X139204417Y-95579819D02*
X139204417Y-94579819D01*
X139204417Y-95532200D02*
X139109179Y-95579819D01*
X139109179Y-95579819D02*
X138918703Y-95579819D01*
X138918703Y-95579819D02*
X138823465Y-95532200D01*
X138823465Y-95532200D02*
X138775846Y-95484580D01*
X138775846Y-95484580D02*
X138728227Y-95389342D01*
X138728227Y-95389342D02*
X138728227Y-95103628D01*
X138728227Y-95103628D02*
X138775846Y-95008390D01*
X138775846Y-95008390D02*
X138823465Y-94960771D01*
X138823465Y-94960771D02*
X138918703Y-94913152D01*
X138918703Y-94913152D02*
X139109179Y-94913152D01*
X139109179Y-94913152D02*
X139204417Y-94960771D01*
X140061560Y-95532200D02*
X139966322Y-95579819D01*
X139966322Y-95579819D02*
X139775846Y-95579819D01*
X139775846Y-95579819D02*
X139680608Y-95532200D01*
X139680608Y-95532200D02*
X139632989Y-95436961D01*
X139632989Y-95436961D02*
X139632989Y-95056009D01*
X139632989Y-95056009D02*
X139680608Y-94960771D01*
X139680608Y-94960771D02*
X139775846Y-94913152D01*
X139775846Y-94913152D02*
X139966322Y-94913152D01*
X139966322Y-94913152D02*
X140061560Y-94960771D01*
X140061560Y-94960771D02*
X140109179Y-95056009D01*
X140109179Y-95056009D02*
X140109179Y-95151247D01*
X140109179Y-95151247D02*
X139632989Y-95246485D01*
X140442513Y-94913152D02*
X140680608Y-95579819D01*
X140680608Y-95579819D02*
X140918703Y-94913152D01*
X141299656Y-95579819D02*
X141299656Y-94913152D01*
X141299656Y-94579819D02*
X141252037Y-94627438D01*
X141252037Y-94627438D02*
X141299656Y-94675057D01*
X141299656Y-94675057D02*
X141347275Y-94627438D01*
X141347275Y-94627438D02*
X141299656Y-94579819D01*
X141299656Y-94579819D02*
X141299656Y-94675057D01*
X142204417Y-95532200D02*
X142109179Y-95579819D01*
X142109179Y-95579819D02*
X141918703Y-95579819D01*
X141918703Y-95579819D02*
X141823465Y-95532200D01*
X141823465Y-95532200D02*
X141775846Y-95484580D01*
X141775846Y-95484580D02*
X141728227Y-95389342D01*
X141728227Y-95389342D02*
X141728227Y-95103628D01*
X141728227Y-95103628D02*
X141775846Y-95008390D01*
X141775846Y-95008390D02*
X141823465Y-94960771D01*
X141823465Y-94960771D02*
X141918703Y-94913152D01*
X141918703Y-94913152D02*
X142109179Y-94913152D01*
X142109179Y-94913152D02*
X142204417Y-94960771D01*
X143013941Y-95532200D02*
X142918703Y-95579819D01*
X142918703Y-95579819D02*
X142728227Y-95579819D01*
X142728227Y-95579819D02*
X142632989Y-95532200D01*
X142632989Y-95532200D02*
X142585370Y-95436961D01*
X142585370Y-95436961D02*
X142585370Y-95056009D01*
X142585370Y-95056009D02*
X142632989Y-94960771D01*
X142632989Y-94960771D02*
X142728227Y-94913152D01*
X142728227Y-94913152D02*
X142918703Y-94913152D01*
X142918703Y-94913152D02*
X143013941Y-94960771D01*
X143013941Y-94960771D02*
X143061560Y-95056009D01*
X143061560Y-95056009D02*
X143061560Y-95151247D01*
X143061560Y-95151247D02*
X142585370Y-95246485D01*
X143442513Y-95532200D02*
X143537751Y-95579819D01*
X143537751Y-95579819D02*
X143728227Y-95579819D01*
X143728227Y-95579819D02*
X143823465Y-95532200D01*
X143823465Y-95532200D02*
X143871084Y-95436961D01*
X143871084Y-95436961D02*
X143871084Y-95389342D01*
X143871084Y-95389342D02*
X143823465Y-95294104D01*
X143823465Y-95294104D02*
X143728227Y-95246485D01*
X143728227Y-95246485D02*
X143585370Y-95246485D01*
X143585370Y-95246485D02*
X143490132Y-95198866D01*
X143490132Y-95198866D02*
X143442513Y-95103628D01*
X143442513Y-95103628D02*
X143442513Y-95056009D01*
X143442513Y-95056009D02*
X143490132Y-94960771D01*
X143490132Y-94960771D02*
X143585370Y-94913152D01*
X143585370Y-94913152D02*
X143728227Y-94913152D01*
X143728227Y-94913152D02*
X143823465Y-94960771D01*
X144299656Y-95484580D02*
X144347275Y-95532200D01*
X144347275Y-95532200D02*
X144299656Y-95579819D01*
X144299656Y-95579819D02*
X144252037Y-95532200D01*
X144252037Y-95532200D02*
X144299656Y-95484580D01*
X144299656Y-95484580D02*
X144299656Y-95579819D01*
X145204417Y-95532200D02*
X145109179Y-95579819D01*
X145109179Y-95579819D02*
X144918703Y-95579819D01*
X144918703Y-95579819D02*
X144823465Y-95532200D01*
X144823465Y-95532200D02*
X144775846Y-95484580D01*
X144775846Y-95484580D02*
X144728227Y-95389342D01*
X144728227Y-95389342D02*
X144728227Y-95103628D01*
X144728227Y-95103628D02*
X144775846Y-95008390D01*
X144775846Y-95008390D02*
X144823465Y-94960771D01*
X144823465Y-94960771D02*
X144918703Y-94913152D01*
X144918703Y-94913152D02*
X145109179Y-94913152D01*
X145109179Y-94913152D02*
X145204417Y-94960771D01*
X145775846Y-95579819D02*
X145680608Y-95532200D01*
X145680608Y-95532200D02*
X145632989Y-95484580D01*
X145632989Y-95484580D02*
X145585370Y-95389342D01*
X145585370Y-95389342D02*
X145585370Y-95103628D01*
X145585370Y-95103628D02*
X145632989Y-95008390D01*
X145632989Y-95008390D02*
X145680608Y-94960771D01*
X145680608Y-94960771D02*
X145775846Y-94913152D01*
X145775846Y-94913152D02*
X145918703Y-94913152D01*
X145918703Y-94913152D02*
X146013941Y-94960771D01*
X146013941Y-94960771D02*
X146061560Y-95008390D01*
X146061560Y-95008390D02*
X146109179Y-95103628D01*
X146109179Y-95103628D02*
X146109179Y-95389342D01*
X146109179Y-95389342D02*
X146061560Y-95484580D01*
X146061560Y-95484580D02*
X146013941Y-95532200D01*
X146013941Y-95532200D02*
X145918703Y-95579819D01*
X145918703Y-95579819D02*
X145775846Y-95579819D01*
X146537751Y-95579819D02*
X146537751Y-94913152D01*
X146537751Y-95008390D02*
X146585370Y-94960771D01*
X146585370Y-94960771D02*
X146680608Y-94913152D01*
X146680608Y-94913152D02*
X146823465Y-94913152D01*
X146823465Y-94913152D02*
X146918703Y-94960771D01*
X146918703Y-94960771D02*
X146966322Y-95056009D01*
X146966322Y-95056009D02*
X146966322Y-95579819D01*
X146966322Y-95056009D02*
X147013941Y-94960771D01*
X147013941Y-94960771D02*
X147109179Y-94913152D01*
X147109179Y-94913152D02*
X147252036Y-94913152D01*
X147252036Y-94913152D02*
X147347275Y-94960771D01*
X147347275Y-94960771D02*
X147394894Y-95056009D01*
X147394894Y-95056009D02*
X147394894Y-95579819D01*
X130436779Y-93569819D02*
X130436779Y-92569819D01*
X130436779Y-92569819D02*
X130817731Y-92569819D01*
X130817731Y-92569819D02*
X130912969Y-92617438D01*
X130912969Y-92617438D02*
X130960588Y-92665057D01*
X130960588Y-92665057D02*
X131008207Y-92760295D01*
X131008207Y-92760295D02*
X131008207Y-92903152D01*
X131008207Y-92903152D02*
X130960588Y-92998390D01*
X130960588Y-92998390D02*
X130912969Y-93046009D01*
X130912969Y-93046009D02*
X130817731Y-93093628D01*
X130817731Y-93093628D02*
X130436779Y-93093628D01*
X131436779Y-93569819D02*
X131436779Y-92903152D01*
X131436779Y-92569819D02*
X131389160Y-92617438D01*
X131389160Y-92617438D02*
X131436779Y-92665057D01*
X131436779Y-92665057D02*
X131484398Y-92617438D01*
X131484398Y-92617438D02*
X131436779Y-92569819D01*
X131436779Y-92569819D02*
X131436779Y-92665057D01*
X131817731Y-93569819D02*
X132341540Y-92903152D01*
X131817731Y-92903152D02*
X132341540Y-93569819D01*
X133103445Y-93522200D02*
X133008207Y-93569819D01*
X133008207Y-93569819D02*
X132817731Y-93569819D01*
X132817731Y-93569819D02*
X132722493Y-93522200D01*
X132722493Y-93522200D02*
X132674874Y-93426961D01*
X132674874Y-93426961D02*
X132674874Y-93046009D01*
X132674874Y-93046009D02*
X132722493Y-92950771D01*
X132722493Y-92950771D02*
X132817731Y-92903152D01*
X132817731Y-92903152D02*
X133008207Y-92903152D01*
X133008207Y-92903152D02*
X133103445Y-92950771D01*
X133103445Y-92950771D02*
X133151064Y-93046009D01*
X133151064Y-93046009D02*
X133151064Y-93141247D01*
X133151064Y-93141247D02*
X132674874Y-93236485D01*
X133722493Y-93569819D02*
X133627255Y-93522200D01*
X133627255Y-93522200D02*
X133579636Y-93426961D01*
X133579636Y-93426961D02*
X133579636Y-92569819D01*
X135198684Y-93046009D02*
X135341541Y-93093628D01*
X135341541Y-93093628D02*
X135389160Y-93141247D01*
X135389160Y-93141247D02*
X135436779Y-93236485D01*
X135436779Y-93236485D02*
X135436779Y-93379342D01*
X135436779Y-93379342D02*
X135389160Y-93474580D01*
X135389160Y-93474580D02*
X135341541Y-93522200D01*
X135341541Y-93522200D02*
X135246303Y-93569819D01*
X135246303Y-93569819D02*
X134865351Y-93569819D01*
X134865351Y-93569819D02*
X134865351Y-92569819D01*
X134865351Y-92569819D02*
X135198684Y-92569819D01*
X135198684Y-92569819D02*
X135293922Y-92617438D01*
X135293922Y-92617438D02*
X135341541Y-92665057D01*
X135341541Y-92665057D02*
X135389160Y-92760295D01*
X135389160Y-92760295D02*
X135389160Y-92855533D01*
X135389160Y-92855533D02*
X135341541Y-92950771D01*
X135341541Y-92950771D02*
X135293922Y-92998390D01*
X135293922Y-92998390D02*
X135198684Y-93046009D01*
X135198684Y-93046009D02*
X134865351Y-93046009D01*
X135770113Y-92903152D02*
X136008208Y-93569819D01*
X136246303Y-92903152D02*
X136008208Y-93569819D01*
X136008208Y-93569819D02*
X135912970Y-93807914D01*
X135912970Y-93807914D02*
X135865351Y-93855533D01*
X135865351Y-93855533D02*
X135770113Y-93903152D01*
X136484399Y-92903152D02*
X136865351Y-92903152D01*
X136627256Y-92569819D02*
X136627256Y-93426961D01*
X136627256Y-93426961D02*
X136674875Y-93522200D01*
X136674875Y-93522200D02*
X136770113Y-93569819D01*
X136770113Y-93569819D02*
X136865351Y-93569819D01*
X137579637Y-93522200D02*
X137484399Y-93569819D01*
X137484399Y-93569819D02*
X137293923Y-93569819D01*
X137293923Y-93569819D02*
X137198685Y-93522200D01*
X137198685Y-93522200D02*
X137151066Y-93426961D01*
X137151066Y-93426961D02*
X137151066Y-93046009D01*
X137151066Y-93046009D02*
X137198685Y-92950771D01*
X137198685Y-92950771D02*
X137293923Y-92903152D01*
X137293923Y-92903152D02*
X137484399Y-92903152D01*
X137484399Y-92903152D02*
X137579637Y-92950771D01*
X137579637Y-92950771D02*
X137627256Y-93046009D01*
X137627256Y-93046009D02*
X137627256Y-93141247D01*
X137627256Y-93141247D02*
X137151066Y-93236485D01*
X138008209Y-93522200D02*
X138103447Y-93569819D01*
X138103447Y-93569819D02*
X138293923Y-93569819D01*
X138293923Y-93569819D02*
X138389161Y-93522200D01*
X138389161Y-93522200D02*
X138436780Y-93426961D01*
X138436780Y-93426961D02*
X138436780Y-93379342D01*
X138436780Y-93379342D02*
X138389161Y-93284104D01*
X138389161Y-93284104D02*
X138293923Y-93236485D01*
X138293923Y-93236485D02*
X138151066Y-93236485D01*
X138151066Y-93236485D02*
X138055828Y-93188866D01*
X138055828Y-93188866D02*
X138008209Y-93093628D01*
X138008209Y-93093628D02*
X138008209Y-93046009D01*
X138008209Y-93046009D02*
X138055828Y-92950771D01*
X138055828Y-92950771D02*
X138151066Y-92903152D01*
X138151066Y-92903152D02*
X138293923Y-92903152D01*
X138293923Y-92903152D02*
X138389161Y-92950771D01*
X139627257Y-93569819D02*
X139627257Y-92569819D01*
X139627257Y-92569819D02*
X139865352Y-92569819D01*
X139865352Y-92569819D02*
X140008209Y-92617438D01*
X140008209Y-92617438D02*
X140103447Y-92712676D01*
X140103447Y-92712676D02*
X140151066Y-92807914D01*
X140151066Y-92807914D02*
X140198685Y-92998390D01*
X140198685Y-92998390D02*
X140198685Y-93141247D01*
X140198685Y-93141247D02*
X140151066Y-93331723D01*
X140151066Y-93331723D02*
X140103447Y-93426961D01*
X140103447Y-93426961D02*
X140008209Y-93522200D01*
X140008209Y-93522200D02*
X139865352Y-93569819D01*
X139865352Y-93569819D02*
X139627257Y-93569819D01*
X140627257Y-93569819D02*
X140627257Y-92903152D01*
X140627257Y-92569819D02*
X140579638Y-92617438D01*
X140579638Y-92617438D02*
X140627257Y-92665057D01*
X140627257Y-92665057D02*
X140674876Y-92617438D01*
X140674876Y-92617438D02*
X140627257Y-92569819D01*
X140627257Y-92569819D02*
X140627257Y-92665057D01*
X141055828Y-93522200D02*
X141151066Y-93569819D01*
X141151066Y-93569819D02*
X141341542Y-93569819D01*
X141341542Y-93569819D02*
X141436780Y-93522200D01*
X141436780Y-93522200D02*
X141484399Y-93426961D01*
X141484399Y-93426961D02*
X141484399Y-93379342D01*
X141484399Y-93379342D02*
X141436780Y-93284104D01*
X141436780Y-93284104D02*
X141341542Y-93236485D01*
X141341542Y-93236485D02*
X141198685Y-93236485D01*
X141198685Y-93236485D02*
X141103447Y-93188866D01*
X141103447Y-93188866D02*
X141055828Y-93093628D01*
X141055828Y-93093628D02*
X141055828Y-93046009D01*
X141055828Y-93046009D02*
X141103447Y-92950771D01*
X141103447Y-92950771D02*
X141198685Y-92903152D01*
X141198685Y-92903152D02*
X141341542Y-92903152D01*
X141341542Y-92903152D02*
X141436780Y-92950771D01*
X141912971Y-92903152D02*
X141912971Y-93903152D01*
X141912971Y-92950771D02*
X142008209Y-92903152D01*
X142008209Y-92903152D02*
X142198685Y-92903152D01*
X142198685Y-92903152D02*
X142293923Y-92950771D01*
X142293923Y-92950771D02*
X142341542Y-92998390D01*
X142341542Y-92998390D02*
X142389161Y-93093628D01*
X142389161Y-93093628D02*
X142389161Y-93379342D01*
X142389161Y-93379342D02*
X142341542Y-93474580D01*
X142341542Y-93474580D02*
X142293923Y-93522200D01*
X142293923Y-93522200D02*
X142198685Y-93569819D01*
X142198685Y-93569819D02*
X142008209Y-93569819D01*
X142008209Y-93569819D02*
X141912971Y-93522200D01*
X142960590Y-93569819D02*
X142865352Y-93522200D01*
X142865352Y-93522200D02*
X142817733Y-93426961D01*
X142817733Y-93426961D02*
X142817733Y-92569819D01*
X143770114Y-93569819D02*
X143770114Y-93046009D01*
X143770114Y-93046009D02*
X143722495Y-92950771D01*
X143722495Y-92950771D02*
X143627257Y-92903152D01*
X143627257Y-92903152D02*
X143436781Y-92903152D01*
X143436781Y-92903152D02*
X143341543Y-92950771D01*
X143770114Y-93522200D02*
X143674876Y-93569819D01*
X143674876Y-93569819D02*
X143436781Y-93569819D01*
X143436781Y-93569819D02*
X143341543Y-93522200D01*
X143341543Y-93522200D02*
X143293924Y-93426961D01*
X143293924Y-93426961D02*
X143293924Y-93331723D01*
X143293924Y-93331723D02*
X143341543Y-93236485D01*
X143341543Y-93236485D02*
X143436781Y-93188866D01*
X143436781Y-93188866D02*
X143674876Y-93188866D01*
X143674876Y-93188866D02*
X143770114Y-93141247D01*
X144151067Y-92903152D02*
X144389162Y-93569819D01*
X144627257Y-92903152D02*
X144389162Y-93569819D01*
X144389162Y-93569819D02*
X144293924Y-93807914D01*
X144293924Y-93807914D02*
X144246305Y-93855533D01*
X144246305Y-93855533D02*
X144151067Y-93903152D01*
X145008210Y-93474580D02*
X145055829Y-93522200D01*
X145055829Y-93522200D02*
X145008210Y-93569819D01*
X145008210Y-93569819D02*
X144960591Y-93522200D01*
X144960591Y-93522200D02*
X145008210Y-93474580D01*
X145008210Y-93474580D02*
X145008210Y-93569819D01*
X145008210Y-93188866D02*
X144960591Y-92617438D01*
X144960591Y-92617438D02*
X145008210Y-92569819D01*
X145008210Y-92569819D02*
X145055829Y-92617438D01*
X145055829Y-92617438D02*
X145008210Y-93188866D01*
X145008210Y-93188866D02*
X145008210Y-92569819D01*
D11*
%TO.C,REF\u002A\u002A*%
X120352600Y-127558752D02*
X120369948Y-127566334D01*
X120411356Y-127599128D01*
X120446765Y-127646547D01*
X120468664Y-127697151D01*
X120472229Y-127722098D01*
X120460279Y-127756927D01*
X120434067Y-127775357D01*
X120405964Y-127786516D01*
X120393095Y-127788572D01*
X120386829Y-127773649D01*
X120374456Y-127741175D01*
X120369028Y-127726502D01*
X120338590Y-127675744D01*
X120294520Y-127650427D01*
X120238010Y-127651206D01*
X120233825Y-127652203D01*
X120203655Y-127666507D01*
X120181476Y-127694393D01*
X120166327Y-127739287D01*
X120157250Y-127804615D01*
X120153286Y-127893804D01*
X120152914Y-127941261D01*
X120152730Y-128016071D01*
X120151522Y-128067069D01*
X120148309Y-128099471D01*
X120142109Y-128118495D01*
X120131940Y-128129356D01*
X120116819Y-128137272D01*
X120115946Y-128137670D01*
X120086828Y-128149981D01*
X120072403Y-128154514D01*
X120070186Y-128140809D01*
X120068289Y-128102925D01*
X120066847Y-128045715D01*
X120065998Y-127974027D01*
X120065829Y-127921565D01*
X120066692Y-127820047D01*
X120070070Y-127743032D01*
X120077142Y-127686023D01*
X120089088Y-127644526D01*
X120107090Y-127614043D01*
X120132327Y-127590080D01*
X120157247Y-127573355D01*
X120217171Y-127551097D01*
X120286911Y-127546076D01*
X120352600Y-127558752D01*
G36*
X120352600Y-127558752D02*
G01*
X120369948Y-127566334D01*
X120411356Y-127599128D01*
X120446765Y-127646547D01*
X120468664Y-127697151D01*
X120472229Y-127722098D01*
X120460279Y-127756927D01*
X120434067Y-127775357D01*
X120405964Y-127786516D01*
X120393095Y-127788572D01*
X120386829Y-127773649D01*
X120374456Y-127741175D01*
X120369028Y-127726502D01*
X120338590Y-127675744D01*
X120294520Y-127650427D01*
X120238010Y-127651206D01*
X120233825Y-127652203D01*
X120203655Y-127666507D01*
X120181476Y-127694393D01*
X120166327Y-127739287D01*
X120157250Y-127804615D01*
X120153286Y-127893804D01*
X120152914Y-127941261D01*
X120152730Y-128016071D01*
X120151522Y-128067069D01*
X120148309Y-128099471D01*
X120142109Y-128118495D01*
X120131940Y-128129356D01*
X120116819Y-128137272D01*
X120115946Y-128137670D01*
X120086828Y-128149981D01*
X120072403Y-128154514D01*
X120070186Y-128140809D01*
X120068289Y-128102925D01*
X120066847Y-128045715D01*
X120065998Y-127974027D01*
X120065829Y-127921565D01*
X120066692Y-127820047D01*
X120070070Y-127743032D01*
X120077142Y-127686023D01*
X120089088Y-127644526D01*
X120107090Y-127614043D01*
X120132327Y-127590080D01*
X120157247Y-127573355D01*
X120217171Y-127551097D01*
X120286911Y-127546076D01*
X120352600Y-127558752D01*
G37*
X116416093Y-127527780D02*
X116462672Y-127554723D01*
X116495057Y-127581466D01*
X116518742Y-127609484D01*
X116535059Y-127643748D01*
X116545339Y-127689227D01*
X116550914Y-127750892D01*
X116553116Y-127833711D01*
X116553371Y-127893246D01*
X116553371Y-128112391D01*
X116491686Y-128140044D01*
X116430000Y-128167697D01*
X116422743Y-127927670D01*
X116419744Y-127838028D01*
X116416598Y-127772962D01*
X116412701Y-127728026D01*
X116407447Y-127698770D01*
X116400231Y-127680748D01*
X116390450Y-127669511D01*
X116387312Y-127667079D01*
X116339761Y-127648083D01*
X116291697Y-127655600D01*
X116263086Y-127675543D01*
X116251447Y-127689675D01*
X116243391Y-127708220D01*
X116238271Y-127736334D01*
X116235441Y-127779173D01*
X116234256Y-127841895D01*
X116234057Y-127907261D01*
X116234018Y-127989268D01*
X116232614Y-128047316D01*
X116227914Y-128086465D01*
X116217987Y-128111780D01*
X116200903Y-128128323D01*
X116174732Y-128141156D01*
X116139775Y-128154491D01*
X116101596Y-128169007D01*
X116106141Y-127911389D01*
X116107971Y-127818519D01*
X116110112Y-127749889D01*
X116113181Y-127700711D01*
X116117794Y-127666198D01*
X116124568Y-127641562D01*
X116134119Y-127622016D01*
X116145634Y-127604770D01*
X116201190Y-127549680D01*
X116268980Y-127517822D01*
X116342713Y-127510191D01*
X116416093Y-127527780D01*
G36*
X116416093Y-127527780D02*
G01*
X116462672Y-127554723D01*
X116495057Y-127581466D01*
X116518742Y-127609484D01*
X116535059Y-127643748D01*
X116545339Y-127689227D01*
X116550914Y-127750892D01*
X116553116Y-127833711D01*
X116553371Y-127893246D01*
X116553371Y-128112391D01*
X116491686Y-128140044D01*
X116430000Y-128167697D01*
X116422743Y-127927670D01*
X116419744Y-127838028D01*
X116416598Y-127772962D01*
X116412701Y-127728026D01*
X116407447Y-127698770D01*
X116400231Y-127680748D01*
X116390450Y-127669511D01*
X116387312Y-127667079D01*
X116339761Y-127648083D01*
X116291697Y-127655600D01*
X116263086Y-127675543D01*
X116251447Y-127689675D01*
X116243391Y-127708220D01*
X116238271Y-127736334D01*
X116235441Y-127779173D01*
X116234256Y-127841895D01*
X116234057Y-127907261D01*
X116234018Y-127989268D01*
X116232614Y-128047316D01*
X116227914Y-128086465D01*
X116217987Y-128111780D01*
X116200903Y-128128323D01*
X116174732Y-128141156D01*
X116139775Y-128154491D01*
X116101596Y-128169007D01*
X116106141Y-127911389D01*
X116107971Y-127818519D01*
X116110112Y-127749889D01*
X116113181Y-127700711D01*
X116117794Y-127666198D01*
X116124568Y-127641562D01*
X116134119Y-127622016D01*
X116145634Y-127604770D01*
X116201190Y-127549680D01*
X116268980Y-127517822D01*
X116342713Y-127510191D01*
X116416093Y-127527780D01*
G37*
X118229926Y-127549755D02*
X118295858Y-127574084D01*
X118349273Y-127617117D01*
X118370164Y-127647409D01*
X118392939Y-127702994D01*
X118392466Y-127743186D01*
X118368562Y-127770217D01*
X118359717Y-127774813D01*
X118321530Y-127789144D01*
X118302028Y-127785472D01*
X118295422Y-127761407D01*
X118295086Y-127748114D01*
X118282992Y-127699210D01*
X118251471Y-127664999D01*
X118207659Y-127648476D01*
X118158695Y-127652634D01*
X118118894Y-127674227D01*
X118105450Y-127686544D01*
X118095921Y-127701487D01*
X118089485Y-127724075D01*
X118085317Y-127759328D01*
X118082597Y-127812266D01*
X118080502Y-127887907D01*
X118079960Y-127911857D01*
X118077981Y-127993790D01*
X118075731Y-128051455D01*
X118072357Y-128089608D01*
X118067006Y-128113004D01*
X118058824Y-128126398D01*
X118046959Y-128134545D01*
X118039362Y-128138144D01*
X118007102Y-128150452D01*
X117988111Y-128154514D01*
X117981836Y-128140948D01*
X117978006Y-128099934D01*
X117976600Y-128030999D01*
X117977598Y-127933669D01*
X117977908Y-127918657D01*
X117980101Y-127829859D01*
X117982693Y-127765019D01*
X117986382Y-127719067D01*
X117991864Y-127686935D01*
X117999835Y-127663553D01*
X118010993Y-127643852D01*
X118016830Y-127635410D01*
X118050296Y-127598057D01*
X118087727Y-127569003D01*
X118092309Y-127566467D01*
X118159426Y-127546443D01*
X118229926Y-127549755D01*
G36*
X118229926Y-127549755D02*
G01*
X118295858Y-127574084D01*
X118349273Y-127617117D01*
X118370164Y-127647409D01*
X118392939Y-127702994D01*
X118392466Y-127743186D01*
X118368562Y-127770217D01*
X118359717Y-127774813D01*
X118321530Y-127789144D01*
X118302028Y-127785472D01*
X118295422Y-127761407D01*
X118295086Y-127748114D01*
X118282992Y-127699210D01*
X118251471Y-127664999D01*
X118207659Y-127648476D01*
X118158695Y-127652634D01*
X118118894Y-127674227D01*
X118105450Y-127686544D01*
X118095921Y-127701487D01*
X118089485Y-127724075D01*
X118085317Y-127759328D01*
X118082597Y-127812266D01*
X118080502Y-127887907D01*
X118079960Y-127911857D01*
X118077981Y-127993790D01*
X118075731Y-128051455D01*
X118072357Y-128089608D01*
X118067006Y-128113004D01*
X118058824Y-128126398D01*
X118046959Y-128134545D01*
X118039362Y-128138144D01*
X118007102Y-128150452D01*
X117988111Y-128154514D01*
X117981836Y-128140948D01*
X117978006Y-128099934D01*
X117976600Y-128030999D01*
X117977598Y-127933669D01*
X117977908Y-127918657D01*
X117980101Y-127829859D01*
X117982693Y-127765019D01*
X117986382Y-127719067D01*
X117991864Y-127686935D01*
X117999835Y-127663553D01*
X118010993Y-127643852D01*
X118016830Y-127635410D01*
X118050296Y-127598057D01*
X118087727Y-127569003D01*
X118092309Y-127566467D01*
X118159426Y-127546443D01*
X118229926Y-127549755D01*
G37*
X117075886Y-127451289D02*
X117080139Y-127510613D01*
X117085025Y-127545572D01*
X117091795Y-127560820D01*
X117101702Y-127561015D01*
X117104914Y-127559195D01*
X117147644Y-127546015D01*
X117203227Y-127546785D01*
X117259737Y-127560333D01*
X117295082Y-127577861D01*
X117331321Y-127605861D01*
X117357813Y-127637549D01*
X117375999Y-127677813D01*
X117387322Y-127731543D01*
X117393222Y-127803626D01*
X117395143Y-127898951D01*
X117395177Y-127917237D01*
X117395200Y-128122646D01*
X117349491Y-128138580D01*
X117317027Y-128149420D01*
X117299215Y-128154468D01*
X117298691Y-128154514D01*
X117296937Y-128140828D01*
X117295444Y-128103076D01*
X117294326Y-128046224D01*
X117293697Y-127975234D01*
X117293600Y-127932073D01*
X117293398Y-127846973D01*
X117292358Y-127785981D01*
X117289831Y-127744177D01*
X117285164Y-127716642D01*
X117277707Y-127698456D01*
X117266811Y-127684698D01*
X117260007Y-127678073D01*
X117213272Y-127651375D01*
X117162272Y-127649375D01*
X117116001Y-127671955D01*
X117107444Y-127680107D01*
X117094893Y-127695436D01*
X117086188Y-127713618D01*
X117080631Y-127739909D01*
X117077526Y-127779562D01*
X117076176Y-127837832D01*
X117075886Y-127918173D01*
X117075886Y-128122646D01*
X117030177Y-128138580D01*
X116997713Y-128149420D01*
X116979901Y-128154468D01*
X116979377Y-128154514D01*
X116978037Y-128140623D01*
X116976828Y-128101439D01*
X116975801Y-128040700D01*
X116975002Y-127962141D01*
X116974481Y-127869498D01*
X116974286Y-127766509D01*
X116974286Y-127369342D01*
X117021457Y-127349444D01*
X117068629Y-127329547D01*
X117075886Y-127451289D01*
G36*
X117075886Y-127451289D02*
G01*
X117080139Y-127510613D01*
X117085025Y-127545572D01*
X117091795Y-127560820D01*
X117101702Y-127561015D01*
X117104914Y-127559195D01*
X117147644Y-127546015D01*
X117203227Y-127546785D01*
X117259737Y-127560333D01*
X117295082Y-127577861D01*
X117331321Y-127605861D01*
X117357813Y-127637549D01*
X117375999Y-127677813D01*
X117387322Y-127731543D01*
X117393222Y-127803626D01*
X117395143Y-127898951D01*
X117395177Y-127917237D01*
X117395200Y-128122646D01*
X117349491Y-128138580D01*
X117317027Y-128149420D01*
X117299215Y-128154468D01*
X117298691Y-128154514D01*
X117296937Y-128140828D01*
X117295444Y-128103076D01*
X117294326Y-128046224D01*
X117293697Y-127975234D01*
X117293600Y-127932073D01*
X117293398Y-127846973D01*
X117292358Y-127785981D01*
X117289831Y-127744177D01*
X117285164Y-127716642D01*
X117277707Y-127698456D01*
X117266811Y-127684698D01*
X117260007Y-127678073D01*
X117213272Y-127651375D01*
X117162272Y-127649375D01*
X117116001Y-127671955D01*
X117107444Y-127680107D01*
X117094893Y-127695436D01*
X117086188Y-127713618D01*
X117080631Y-127739909D01*
X117077526Y-127779562D01*
X117076176Y-127837832D01*
X117075886Y-127918173D01*
X117075886Y-128122646D01*
X117030177Y-128138580D01*
X116997713Y-128149420D01*
X116979901Y-128154468D01*
X116979377Y-128154514D01*
X116978037Y-128140623D01*
X116976828Y-128101439D01*
X116975801Y-128040700D01*
X116975002Y-127962141D01*
X116974481Y-127869498D01*
X116974286Y-127766509D01*
X116974286Y-127369342D01*
X117021457Y-127349444D01*
X117068629Y-127329547D01*
X117075886Y-127451289D01*
G37*
X119479833Y-127558663D02*
X119482048Y-127596850D01*
X119483784Y-127654886D01*
X119484899Y-127728180D01*
X119485257Y-127805055D01*
X119485257Y-128065196D01*
X119439326Y-128111127D01*
X119407675Y-128139429D01*
X119379890Y-128150893D01*
X119341915Y-128150168D01*
X119326840Y-128148321D01*
X119279726Y-128142948D01*
X119240756Y-128139869D01*
X119231257Y-128139585D01*
X119199233Y-128141445D01*
X119153432Y-128146114D01*
X119135674Y-128148321D01*
X119092057Y-128151735D01*
X119062745Y-128144320D01*
X119033680Y-128121427D01*
X119023188Y-128111127D01*
X118977257Y-128065196D01*
X118977257Y-127578602D01*
X119014226Y-127561758D01*
X119046059Y-127549282D01*
X119064683Y-127544914D01*
X119069458Y-127558718D01*
X119073921Y-127597286D01*
X119077775Y-127656356D01*
X119080722Y-127731663D01*
X119082143Y-127795286D01*
X119086114Y-128045657D01*
X119120759Y-128050556D01*
X119152268Y-128047131D01*
X119167708Y-128036041D01*
X119172023Y-128015308D01*
X119175708Y-127971145D01*
X119178469Y-127909146D01*
X119180012Y-127834909D01*
X119180235Y-127796706D01*
X119180457Y-127576783D01*
X119226166Y-127560849D01*
X119258518Y-127550015D01*
X119276115Y-127544962D01*
X119276623Y-127544914D01*
X119278388Y-127558648D01*
X119280329Y-127596730D01*
X119282282Y-127654482D01*
X119284084Y-127727227D01*
X119285343Y-127795286D01*
X119289314Y-128045657D01*
X119376400Y-128045657D01*
X119380396Y-127817240D01*
X119384392Y-127588822D01*
X119426847Y-127566868D01*
X119458192Y-127551793D01*
X119476744Y-127544951D01*
X119477279Y-127544914D01*
X119479833Y-127558663D01*
G36*
X119479833Y-127558663D02*
G01*
X119482048Y-127596850D01*
X119483784Y-127654886D01*
X119484899Y-127728180D01*
X119485257Y-127805055D01*
X119485257Y-128065196D01*
X119439326Y-128111127D01*
X119407675Y-128139429D01*
X119379890Y-128150893D01*
X119341915Y-128150168D01*
X119326840Y-128148321D01*
X119279726Y-128142948D01*
X119240756Y-128139869D01*
X119231257Y-128139585D01*
X119199233Y-128141445D01*
X119153432Y-128146114D01*
X119135674Y-128148321D01*
X119092057Y-128151735D01*
X119062745Y-128144320D01*
X119033680Y-128121427D01*
X119023188Y-128111127D01*
X118977257Y-128065196D01*
X118977257Y-127578602D01*
X119014226Y-127561758D01*
X119046059Y-127549282D01*
X119064683Y-127544914D01*
X119069458Y-127558718D01*
X119073921Y-127597286D01*
X119077775Y-127656356D01*
X119080722Y-127731663D01*
X119082143Y-127795286D01*
X119086114Y-128045657D01*
X119120759Y-128050556D01*
X119152268Y-128047131D01*
X119167708Y-128036041D01*
X119172023Y-128015308D01*
X119175708Y-127971145D01*
X119178469Y-127909146D01*
X119180012Y-127834909D01*
X119180235Y-127796706D01*
X119180457Y-127576783D01*
X119226166Y-127560849D01*
X119258518Y-127550015D01*
X119276115Y-127544962D01*
X119276623Y-127544914D01*
X119278388Y-127558648D01*
X119280329Y-127596730D01*
X119282282Y-127654482D01*
X119284084Y-127727227D01*
X119285343Y-127795286D01*
X119289314Y-128045657D01*
X119376400Y-128045657D01*
X119380396Y-127817240D01*
X119384392Y-127588822D01*
X119426847Y-127566868D01*
X119458192Y-127551793D01*
X119476744Y-127544951D01*
X119477279Y-127544914D01*
X119479833Y-127558663D01*
G37*
X114741115Y-127521962D02*
X114809145Y-127557733D01*
X114859351Y-127615301D01*
X114877185Y-127652312D01*
X114891063Y-127707882D01*
X114898167Y-127778096D01*
X114898840Y-127854727D01*
X114893427Y-127929552D01*
X114882270Y-127994342D01*
X114865714Y-128040873D01*
X114860626Y-128048887D01*
X114800355Y-128108707D01*
X114728769Y-128144535D01*
X114651092Y-128155020D01*
X114572548Y-128138810D01*
X114550689Y-128129092D01*
X114508122Y-128099143D01*
X114470763Y-128059433D01*
X114467232Y-128054397D01*
X114452881Y-128030124D01*
X114443394Y-128004178D01*
X114437790Y-127970022D01*
X114435086Y-127921119D01*
X114434299Y-127850935D01*
X114434286Y-127835200D01*
X114434322Y-127830192D01*
X114579429Y-127830192D01*
X114580273Y-127896430D01*
X114583596Y-127940386D01*
X114590583Y-127968779D01*
X114602416Y-127988325D01*
X114608457Y-127994857D01*
X114643186Y-128019680D01*
X114676903Y-128018548D01*
X114710995Y-127997016D01*
X114731329Y-127974029D01*
X114743371Y-127940478D01*
X114750134Y-127887569D01*
X114750598Y-127881399D01*
X114751752Y-127785513D01*
X114739688Y-127714299D01*
X114714570Y-127668194D01*
X114676560Y-127647635D01*
X114662992Y-127646514D01*
X114627364Y-127652152D01*
X114602994Y-127671686D01*
X114588093Y-127709042D01*
X114580875Y-127768150D01*
X114579429Y-127830192D01*
X114434322Y-127830192D01*
X114434826Y-127760413D01*
X114437096Y-127708159D01*
X114442068Y-127671949D01*
X114450713Y-127645299D01*
X114464005Y-127621722D01*
X114466943Y-127617338D01*
X114516313Y-127558249D01*
X114570109Y-127523947D01*
X114635602Y-127510331D01*
X114657842Y-127509665D01*
X114741115Y-127521962D01*
G36*
X114741115Y-127521962D02*
G01*
X114809145Y-127557733D01*
X114859351Y-127615301D01*
X114877185Y-127652312D01*
X114891063Y-127707882D01*
X114898167Y-127778096D01*
X114898840Y-127854727D01*
X114893427Y-127929552D01*
X114882270Y-127994342D01*
X114865714Y-128040873D01*
X114860626Y-128048887D01*
X114800355Y-128108707D01*
X114728769Y-128144535D01*
X114651092Y-128155020D01*
X114572548Y-128138810D01*
X114550689Y-128129092D01*
X114508122Y-128099143D01*
X114470763Y-128059433D01*
X114467232Y-128054397D01*
X114452881Y-128030124D01*
X114443394Y-128004178D01*
X114437790Y-127970022D01*
X114435086Y-127921119D01*
X114434299Y-127850935D01*
X114434286Y-127835200D01*
X114434322Y-127830192D01*
X114579429Y-127830192D01*
X114580273Y-127896430D01*
X114583596Y-127940386D01*
X114590583Y-127968779D01*
X114602416Y-127988325D01*
X114608457Y-127994857D01*
X114643186Y-128019680D01*
X114676903Y-128018548D01*
X114710995Y-127997016D01*
X114731329Y-127974029D01*
X114743371Y-127940478D01*
X114750134Y-127887569D01*
X114750598Y-127881399D01*
X114751752Y-127785513D01*
X114739688Y-127714299D01*
X114714570Y-127668194D01*
X114676560Y-127647635D01*
X114662992Y-127646514D01*
X114627364Y-127652152D01*
X114602994Y-127671686D01*
X114588093Y-127709042D01*
X114580875Y-127768150D01*
X114579429Y-127830192D01*
X114434322Y-127830192D01*
X114434826Y-127760413D01*
X114437096Y-127708159D01*
X114442068Y-127671949D01*
X114450713Y-127645299D01*
X114464005Y-127621722D01*
X114466943Y-127617338D01*
X114516313Y-127558249D01*
X114570109Y-127523947D01*
X114635602Y-127510331D01*
X114657842Y-127509665D01*
X114741115Y-127521962D01*
G37*
X120853595Y-127566966D02*
X120911021Y-127604497D01*
X120938719Y-127638096D01*
X120960662Y-127699064D01*
X120962405Y-127747308D01*
X120958457Y-127811816D01*
X120809686Y-127876934D01*
X120737349Y-127910202D01*
X120690084Y-127936964D01*
X120665507Y-127960144D01*
X120661237Y-127982667D01*
X120674889Y-128007455D01*
X120689943Y-128023886D01*
X120733746Y-128050235D01*
X120781389Y-128052081D01*
X120825145Y-128031546D01*
X120857289Y-127990752D01*
X120863038Y-127976347D01*
X120890576Y-127931356D01*
X120922258Y-127912182D01*
X120965714Y-127895779D01*
X120965714Y-127957966D01*
X120961872Y-128000283D01*
X120946823Y-128035969D01*
X120915280Y-128076943D01*
X120910592Y-128082267D01*
X120875506Y-128118720D01*
X120845347Y-128138283D01*
X120807615Y-128147283D01*
X120776335Y-128150230D01*
X120720385Y-128150965D01*
X120680555Y-128141660D01*
X120655708Y-128127846D01*
X120616656Y-128097467D01*
X120589625Y-128064613D01*
X120572517Y-128023294D01*
X120563238Y-127967521D01*
X120559693Y-127891305D01*
X120559410Y-127852622D01*
X120560372Y-127806247D01*
X120648007Y-127806247D01*
X120649023Y-127831126D01*
X120651556Y-127835200D01*
X120668274Y-127829665D01*
X120704249Y-127815017D01*
X120752331Y-127794190D01*
X120762386Y-127789714D01*
X120823152Y-127758814D01*
X120856632Y-127731657D01*
X120863990Y-127706220D01*
X120846391Y-127680481D01*
X120831856Y-127669109D01*
X120779410Y-127646364D01*
X120730322Y-127650122D01*
X120689227Y-127677884D01*
X120660758Y-127727152D01*
X120651631Y-127766257D01*
X120648007Y-127806247D01*
X120560372Y-127806247D01*
X120561285Y-127762249D01*
X120568196Y-127695384D01*
X120581884Y-127646695D01*
X120604096Y-127610849D01*
X120636574Y-127582513D01*
X120650733Y-127573355D01*
X120715053Y-127549507D01*
X120785473Y-127548006D01*
X120853595Y-127566966D01*
G36*
X120853595Y-127566966D02*
G01*
X120911021Y-127604497D01*
X120938719Y-127638096D01*
X120960662Y-127699064D01*
X120962405Y-127747308D01*
X120958457Y-127811816D01*
X120809686Y-127876934D01*
X120737349Y-127910202D01*
X120690084Y-127936964D01*
X120665507Y-127960144D01*
X120661237Y-127982667D01*
X120674889Y-128007455D01*
X120689943Y-128023886D01*
X120733746Y-128050235D01*
X120781389Y-128052081D01*
X120825145Y-128031546D01*
X120857289Y-127990752D01*
X120863038Y-127976347D01*
X120890576Y-127931356D01*
X120922258Y-127912182D01*
X120965714Y-127895779D01*
X120965714Y-127957966D01*
X120961872Y-128000283D01*
X120946823Y-128035969D01*
X120915280Y-128076943D01*
X120910592Y-128082267D01*
X120875506Y-128118720D01*
X120845347Y-128138283D01*
X120807615Y-128147283D01*
X120776335Y-128150230D01*
X120720385Y-128150965D01*
X120680555Y-128141660D01*
X120655708Y-128127846D01*
X120616656Y-128097467D01*
X120589625Y-128064613D01*
X120572517Y-128023294D01*
X120563238Y-127967521D01*
X120559693Y-127891305D01*
X120559410Y-127852622D01*
X120560372Y-127806247D01*
X120648007Y-127806247D01*
X120649023Y-127831126D01*
X120651556Y-127835200D01*
X120668274Y-127829665D01*
X120704249Y-127815017D01*
X120752331Y-127794190D01*
X120762386Y-127789714D01*
X120823152Y-127758814D01*
X120856632Y-127731657D01*
X120863990Y-127706220D01*
X120846391Y-127680481D01*
X120831856Y-127669109D01*
X120779410Y-127646364D01*
X120730322Y-127650122D01*
X120689227Y-127677884D01*
X120660758Y-127727152D01*
X120651631Y-127766257D01*
X120648007Y-127806247D01*
X120560372Y-127806247D01*
X120561285Y-127762249D01*
X120568196Y-127695384D01*
X120581884Y-127646695D01*
X120604096Y-127610849D01*
X120636574Y-127582513D01*
X120650733Y-127573355D01*
X120715053Y-127549507D01*
X120785473Y-127548006D01*
X120853595Y-127566966D01*
G37*
X118890117Y-127665358D02*
X118889933Y-127773837D01*
X118889219Y-127857287D01*
X118887675Y-127919704D01*
X118885001Y-127965085D01*
X118880894Y-127997429D01*
X118875055Y-128020733D01*
X118867182Y-128038995D01*
X118861221Y-128049418D01*
X118811855Y-128105945D01*
X118749264Y-128141377D01*
X118680013Y-128154090D01*
X118610668Y-128142463D01*
X118569375Y-128121568D01*
X118526025Y-128085422D01*
X118496481Y-128041276D01*
X118478655Y-127983462D01*
X118470463Y-127906313D01*
X118469302Y-127849714D01*
X118469458Y-127845647D01*
X118570857Y-127845647D01*
X118571476Y-127910550D01*
X118574314Y-127953514D01*
X118580840Y-127981622D01*
X118592523Y-128001953D01*
X118606483Y-128017288D01*
X118653365Y-128046890D01*
X118703701Y-128049419D01*
X118751276Y-128024705D01*
X118754979Y-128021356D01*
X118770783Y-128003935D01*
X118780693Y-127983209D01*
X118786058Y-127952362D01*
X118788228Y-127904577D01*
X118788571Y-127851748D01*
X118787827Y-127785381D01*
X118784748Y-127741106D01*
X118778061Y-127712009D01*
X118766496Y-127691173D01*
X118757013Y-127680107D01*
X118712960Y-127652198D01*
X118662224Y-127648843D01*
X118613796Y-127670159D01*
X118604450Y-127678073D01*
X118588540Y-127695647D01*
X118578610Y-127716587D01*
X118573278Y-127747782D01*
X118571163Y-127796122D01*
X118570857Y-127845647D01*
X118469458Y-127845647D01*
X118472810Y-127758568D01*
X118484726Y-127690086D01*
X118507135Y-127638600D01*
X118542124Y-127598443D01*
X118569375Y-127577861D01*
X118618907Y-127555625D01*
X118676316Y-127545304D01*
X118729682Y-127548067D01*
X118759543Y-127559212D01*
X118771261Y-127562383D01*
X118779037Y-127550557D01*
X118784465Y-127518866D01*
X118788571Y-127470593D01*
X118793067Y-127416829D01*
X118799313Y-127384482D01*
X118810676Y-127365985D01*
X118830528Y-127353770D01*
X118843000Y-127348362D01*
X118890171Y-127328601D01*
X118890117Y-127665358D01*
G36*
X118890117Y-127665358D02*
G01*
X118889933Y-127773837D01*
X118889219Y-127857287D01*
X118887675Y-127919704D01*
X118885001Y-127965085D01*
X118880894Y-127997429D01*
X118875055Y-128020733D01*
X118867182Y-128038995D01*
X118861221Y-128049418D01*
X118811855Y-128105945D01*
X118749264Y-128141377D01*
X118680013Y-128154090D01*
X118610668Y-128142463D01*
X118569375Y-128121568D01*
X118526025Y-128085422D01*
X118496481Y-128041276D01*
X118478655Y-127983462D01*
X118470463Y-127906313D01*
X118469302Y-127849714D01*
X118469458Y-127845647D01*
X118570857Y-127845647D01*
X118571476Y-127910550D01*
X118574314Y-127953514D01*
X118580840Y-127981622D01*
X118592523Y-128001953D01*
X118606483Y-128017288D01*
X118653365Y-128046890D01*
X118703701Y-128049419D01*
X118751276Y-128024705D01*
X118754979Y-128021356D01*
X118770783Y-128003935D01*
X118780693Y-127983209D01*
X118786058Y-127952362D01*
X118788228Y-127904577D01*
X118788571Y-127851748D01*
X118787827Y-127785381D01*
X118784748Y-127741106D01*
X118778061Y-127712009D01*
X118766496Y-127691173D01*
X118757013Y-127680107D01*
X118712960Y-127652198D01*
X118662224Y-127648843D01*
X118613796Y-127670159D01*
X118604450Y-127678073D01*
X118588540Y-127695647D01*
X118578610Y-127716587D01*
X118573278Y-127747782D01*
X118571163Y-127796122D01*
X118570857Y-127845647D01*
X118469458Y-127845647D01*
X118472810Y-127758568D01*
X118484726Y-127690086D01*
X118507135Y-127638600D01*
X118542124Y-127598443D01*
X118569375Y-127577861D01*
X118618907Y-127555625D01*
X118676316Y-127545304D01*
X118729682Y-127548067D01*
X118759543Y-127559212D01*
X118771261Y-127562383D01*
X118779037Y-127550557D01*
X118784465Y-127518866D01*
X118788571Y-127470593D01*
X118793067Y-127416829D01*
X118799313Y-127384482D01*
X118810676Y-127365985D01*
X118830528Y-127353770D01*
X118843000Y-127348362D01*
X118890171Y-127328601D01*
X118890117Y-127665358D01*
G37*
X115868303Y-127531239D02*
X115925527Y-127569735D01*
X115969749Y-127625335D01*
X115996167Y-127696086D01*
X116001510Y-127748162D01*
X116000903Y-127769893D01*
X115995822Y-127786531D01*
X115981855Y-127801437D01*
X115954589Y-127817973D01*
X115909612Y-127839498D01*
X115842511Y-127869374D01*
X115842171Y-127869524D01*
X115780407Y-127897813D01*
X115729759Y-127922933D01*
X115695404Y-127942179D01*
X115682518Y-127952848D01*
X115682514Y-127952934D01*
X115693872Y-127976166D01*
X115720431Y-128001774D01*
X115750923Y-128020221D01*
X115766370Y-128023886D01*
X115808515Y-128011212D01*
X115844808Y-127979471D01*
X115862517Y-127944572D01*
X115879552Y-127918845D01*
X115912922Y-127889546D01*
X115952149Y-127864235D01*
X115986756Y-127850471D01*
X115993993Y-127849714D01*
X116002139Y-127862160D01*
X116002630Y-127893972D01*
X115996643Y-127936866D01*
X115985357Y-127982558D01*
X115969950Y-128022761D01*
X115969171Y-128024322D01*
X115922804Y-128089062D01*
X115862711Y-128133097D01*
X115794465Y-128154711D01*
X115723638Y-128152185D01*
X115655804Y-128123804D01*
X115652788Y-128121808D01*
X115599427Y-128073448D01*
X115564340Y-128010352D01*
X115544922Y-127927387D01*
X115542316Y-127904078D01*
X115537701Y-127794055D01*
X115543233Y-127742748D01*
X115682514Y-127742748D01*
X115684324Y-127774753D01*
X115694222Y-127784093D01*
X115718898Y-127777105D01*
X115757795Y-127760587D01*
X115801275Y-127739881D01*
X115802356Y-127739333D01*
X115839209Y-127719949D01*
X115854000Y-127707013D01*
X115850353Y-127693451D01*
X115834995Y-127675632D01*
X115795923Y-127649845D01*
X115753846Y-127647950D01*
X115716103Y-127666717D01*
X115690034Y-127702915D01*
X115682514Y-127742748D01*
X115543233Y-127742748D01*
X115547194Y-127706027D01*
X115571550Y-127636212D01*
X115605456Y-127587302D01*
X115666653Y-127537878D01*
X115734063Y-127513359D01*
X115802880Y-127511797D01*
X115868303Y-127531239D01*
G36*
X115868303Y-127531239D02*
G01*
X115925527Y-127569735D01*
X115969749Y-127625335D01*
X115996167Y-127696086D01*
X116001510Y-127748162D01*
X116000903Y-127769893D01*
X115995822Y-127786531D01*
X115981855Y-127801437D01*
X115954589Y-127817973D01*
X115909612Y-127839498D01*
X115842511Y-127869374D01*
X115842171Y-127869524D01*
X115780407Y-127897813D01*
X115729759Y-127922933D01*
X115695404Y-127942179D01*
X115682518Y-127952848D01*
X115682514Y-127952934D01*
X115693872Y-127976166D01*
X115720431Y-128001774D01*
X115750923Y-128020221D01*
X115766370Y-128023886D01*
X115808515Y-128011212D01*
X115844808Y-127979471D01*
X115862517Y-127944572D01*
X115879552Y-127918845D01*
X115912922Y-127889546D01*
X115952149Y-127864235D01*
X115986756Y-127850471D01*
X115993993Y-127849714D01*
X116002139Y-127862160D01*
X116002630Y-127893972D01*
X115996643Y-127936866D01*
X115985357Y-127982558D01*
X115969950Y-128022761D01*
X115969171Y-128024322D01*
X115922804Y-128089062D01*
X115862711Y-128133097D01*
X115794465Y-128154711D01*
X115723638Y-128152185D01*
X115655804Y-128123804D01*
X115652788Y-128121808D01*
X115599427Y-128073448D01*
X115564340Y-128010352D01*
X115544922Y-127927387D01*
X115542316Y-127904078D01*
X115537701Y-127794055D01*
X115543233Y-127742748D01*
X115682514Y-127742748D01*
X115684324Y-127774753D01*
X115694222Y-127784093D01*
X115718898Y-127777105D01*
X115757795Y-127760587D01*
X115801275Y-127739881D01*
X115802356Y-127739333D01*
X115839209Y-127719949D01*
X115854000Y-127707013D01*
X115850353Y-127693451D01*
X115834995Y-127675632D01*
X115795923Y-127649845D01*
X115753846Y-127647950D01*
X115716103Y-127666717D01*
X115690034Y-127702915D01*
X115682514Y-127742748D01*
X115543233Y-127742748D01*
X115547194Y-127706027D01*
X115571550Y-127636212D01*
X115605456Y-127587302D01*
X115666653Y-127537878D01*
X115734063Y-127513359D01*
X115802880Y-127511797D01*
X115868303Y-127531239D01*
G37*
X117739744Y-127550968D02*
X117796616Y-127572087D01*
X117797267Y-127572493D01*
X117832440Y-127598380D01*
X117858407Y-127628633D01*
X117876670Y-127668058D01*
X117888732Y-127721462D01*
X117896096Y-127793651D01*
X117900264Y-127889432D01*
X117900629Y-127903078D01*
X117905876Y-128108842D01*
X117861716Y-128131678D01*
X117829763Y-128147110D01*
X117810470Y-128154423D01*
X117809578Y-128154514D01*
X117806239Y-128141022D01*
X117803587Y-128104626D01*
X117801956Y-128051452D01*
X117801600Y-128008393D01*
X117801592Y-127938641D01*
X117798403Y-127894837D01*
X117787288Y-127873944D01*
X117763501Y-127872925D01*
X117722296Y-127888741D01*
X117660086Y-127917815D01*
X117614341Y-127941963D01*
X117590813Y-127962913D01*
X117583896Y-127985747D01*
X117583886Y-127986877D01*
X117595299Y-128026212D01*
X117629092Y-128047462D01*
X117680809Y-128050539D01*
X117718061Y-128050006D01*
X117737703Y-128060735D01*
X117749952Y-128086505D01*
X117757002Y-128119337D01*
X117746842Y-128137966D01*
X117743017Y-128140632D01*
X117707001Y-128151340D01*
X117656566Y-128152856D01*
X117604626Y-128145759D01*
X117567822Y-128132788D01*
X117516938Y-128089585D01*
X117488014Y-128029446D01*
X117482286Y-127982462D01*
X117486657Y-127940082D01*
X117502475Y-127905488D01*
X117533797Y-127874763D01*
X117584678Y-127843990D01*
X117659176Y-127809252D01*
X117663714Y-127807288D01*
X117730821Y-127776287D01*
X117772232Y-127750862D01*
X117789981Y-127728014D01*
X117786107Y-127704745D01*
X117762643Y-127678056D01*
X117755627Y-127671914D01*
X117708630Y-127648100D01*
X117659933Y-127649103D01*
X117617522Y-127672451D01*
X117589384Y-127715675D01*
X117586769Y-127724160D01*
X117561308Y-127765308D01*
X117529001Y-127785128D01*
X117482286Y-127804770D01*
X117482286Y-127753950D01*
X117496496Y-127680082D01*
X117538675Y-127612327D01*
X117560624Y-127589661D01*
X117610517Y-127560569D01*
X117673967Y-127547400D01*
X117739744Y-127550968D01*
G36*
X117739744Y-127550968D02*
G01*
X117796616Y-127572087D01*
X117797267Y-127572493D01*
X117832440Y-127598380D01*
X117858407Y-127628633D01*
X117876670Y-127668058D01*
X117888732Y-127721462D01*
X117896096Y-127793651D01*
X117900264Y-127889432D01*
X117900629Y-127903078D01*
X117905876Y-128108842D01*
X117861716Y-128131678D01*
X117829763Y-128147110D01*
X117810470Y-128154423D01*
X117809578Y-128154514D01*
X117806239Y-128141022D01*
X117803587Y-128104626D01*
X117801956Y-128051452D01*
X117801600Y-128008393D01*
X117801592Y-127938641D01*
X117798403Y-127894837D01*
X117787288Y-127873944D01*
X117763501Y-127872925D01*
X117722296Y-127888741D01*
X117660086Y-127917815D01*
X117614341Y-127941963D01*
X117590813Y-127962913D01*
X117583896Y-127985747D01*
X117583886Y-127986877D01*
X117595299Y-128026212D01*
X117629092Y-128047462D01*
X117680809Y-128050539D01*
X117718061Y-128050006D01*
X117737703Y-128060735D01*
X117749952Y-128086505D01*
X117757002Y-128119337D01*
X117746842Y-128137966D01*
X117743017Y-128140632D01*
X117707001Y-128151340D01*
X117656566Y-128152856D01*
X117604626Y-128145759D01*
X117567822Y-128132788D01*
X117516938Y-128089585D01*
X117488014Y-128029446D01*
X117482286Y-127982462D01*
X117486657Y-127940082D01*
X117502475Y-127905488D01*
X117533797Y-127874763D01*
X117584678Y-127843990D01*
X117659176Y-127809252D01*
X117663714Y-127807288D01*
X117730821Y-127776287D01*
X117772232Y-127750862D01*
X117789981Y-127728014D01*
X117786107Y-127704745D01*
X117762643Y-127678056D01*
X117755627Y-127671914D01*
X117708630Y-127648100D01*
X117659933Y-127649103D01*
X117617522Y-127672451D01*
X117589384Y-127715675D01*
X117586769Y-127724160D01*
X117561308Y-127765308D01*
X117529001Y-127785128D01*
X117482286Y-127804770D01*
X117482286Y-127753950D01*
X117496496Y-127680082D01*
X117538675Y-127612327D01*
X117560624Y-127589661D01*
X117610517Y-127560569D01*
X117673967Y-127547400D01*
X117739744Y-127550968D01*
G37*
X115299744Y-127519918D02*
X115355201Y-127547568D01*
X115404148Y-127598480D01*
X115417629Y-127617338D01*
X115432314Y-127642015D01*
X115441842Y-127668816D01*
X115447293Y-127704587D01*
X115449747Y-127756169D01*
X115450286Y-127824267D01*
X115447852Y-127917588D01*
X115439394Y-127987657D01*
X115423174Y-128039931D01*
X115397454Y-128079869D01*
X115360497Y-128112929D01*
X115357782Y-128114886D01*
X115321360Y-128134908D01*
X115277502Y-128144815D01*
X115221724Y-128147257D01*
X115131048Y-128147257D01*
X115131010Y-128235283D01*
X115130166Y-128284308D01*
X115125024Y-128313065D01*
X115111587Y-128330311D01*
X115085858Y-128344808D01*
X115079679Y-128347769D01*
X115050764Y-128361648D01*
X115028376Y-128370414D01*
X115011729Y-128371171D01*
X115000036Y-128361023D01*
X114992510Y-128337073D01*
X114988366Y-128296426D01*
X114986815Y-128236186D01*
X114987071Y-128153455D01*
X114988349Y-128045339D01*
X114988748Y-128013000D01*
X114990185Y-127901524D01*
X114991472Y-127828603D01*
X115130971Y-127828603D01*
X115131755Y-127890499D01*
X115135240Y-127930997D01*
X115143124Y-127957708D01*
X115157105Y-127978244D01*
X115166597Y-127988260D01*
X115205404Y-128017567D01*
X115239763Y-128019952D01*
X115275216Y-127995750D01*
X115276114Y-127994857D01*
X115290539Y-127976153D01*
X115299313Y-127950732D01*
X115303739Y-127911584D01*
X115305118Y-127851697D01*
X115305143Y-127838430D01*
X115301812Y-127755901D01*
X115290969Y-127698691D01*
X115271340Y-127663766D01*
X115241650Y-127648094D01*
X115224491Y-127646514D01*
X115183766Y-127653926D01*
X115155832Y-127678330D01*
X115139017Y-127722980D01*
X115131650Y-127791130D01*
X115130971Y-127828603D01*
X114991472Y-127828603D01*
X114991708Y-127815245D01*
X114993677Y-127750333D01*
X114996450Y-127702958D01*
X115000388Y-127669290D01*
X115005849Y-127645498D01*
X115013192Y-127627753D01*
X115022777Y-127612224D01*
X115026887Y-127606381D01*
X115081405Y-127551185D01*
X115150336Y-127519890D01*
X115230072Y-127511165D01*
X115299744Y-127519918D01*
G36*
X115299744Y-127519918D02*
G01*
X115355201Y-127547568D01*
X115404148Y-127598480D01*
X115417629Y-127617338D01*
X115432314Y-127642015D01*
X115441842Y-127668816D01*
X115447293Y-127704587D01*
X115449747Y-127756169D01*
X115450286Y-127824267D01*
X115447852Y-127917588D01*
X115439394Y-127987657D01*
X115423174Y-128039931D01*
X115397454Y-128079869D01*
X115360497Y-128112929D01*
X115357782Y-128114886D01*
X115321360Y-128134908D01*
X115277502Y-128144815D01*
X115221724Y-128147257D01*
X115131048Y-128147257D01*
X115131010Y-128235283D01*
X115130166Y-128284308D01*
X115125024Y-128313065D01*
X115111587Y-128330311D01*
X115085858Y-128344808D01*
X115079679Y-128347769D01*
X115050764Y-128361648D01*
X115028376Y-128370414D01*
X115011729Y-128371171D01*
X115000036Y-128361023D01*
X114992510Y-128337073D01*
X114988366Y-128296426D01*
X114986815Y-128236186D01*
X114987071Y-128153455D01*
X114988349Y-128045339D01*
X114988748Y-128013000D01*
X114990185Y-127901524D01*
X114991472Y-127828603D01*
X115130971Y-127828603D01*
X115131755Y-127890499D01*
X115135240Y-127930997D01*
X115143124Y-127957708D01*
X115157105Y-127978244D01*
X115166597Y-127988260D01*
X115205404Y-128017567D01*
X115239763Y-128019952D01*
X115275216Y-127995750D01*
X115276114Y-127994857D01*
X115290539Y-127976153D01*
X115299313Y-127950732D01*
X115303739Y-127911584D01*
X115305118Y-127851697D01*
X115305143Y-127838430D01*
X115301812Y-127755901D01*
X115290969Y-127698691D01*
X115271340Y-127663766D01*
X115241650Y-127648094D01*
X115224491Y-127646514D01*
X115183766Y-127653926D01*
X115155832Y-127678330D01*
X115139017Y-127722980D01*
X115131650Y-127791130D01*
X115130971Y-127828603D01*
X114991472Y-127828603D01*
X114991708Y-127815245D01*
X114993677Y-127750333D01*
X114996450Y-127702958D01*
X115000388Y-127669290D01*
X115005849Y-127645498D01*
X115013192Y-127627753D01*
X115022777Y-127612224D01*
X115026887Y-127606381D01*
X115081405Y-127551185D01*
X115150336Y-127519890D01*
X115230072Y-127511165D01*
X115299744Y-127519918D01*
G37*
X119844876Y-127556335D02*
X119886667Y-127575344D01*
X119919469Y-127598378D01*
X119943503Y-127624133D01*
X119960097Y-127657358D01*
X119970577Y-127702800D01*
X119976271Y-127765207D01*
X119978507Y-127849327D01*
X119978743Y-127904721D01*
X119978743Y-128120826D01*
X119941774Y-128137670D01*
X119912656Y-128149981D01*
X119898231Y-128154514D01*
X119895472Y-128141025D01*
X119893282Y-128104653D01*
X119891942Y-128051542D01*
X119891657Y-128009372D01*
X119890434Y-127948447D01*
X119887136Y-127900115D01*
X119882321Y-127870518D01*
X119878496Y-127864229D01*
X119852783Y-127870652D01*
X119812418Y-127887125D01*
X119765679Y-127909458D01*
X119720845Y-127933457D01*
X119686193Y-127954930D01*
X119670002Y-127969685D01*
X119669938Y-127969845D01*
X119671330Y-127997152D01*
X119683818Y-128023219D01*
X119705743Y-128044392D01*
X119737743Y-128051474D01*
X119765092Y-128050649D01*
X119803826Y-128050042D01*
X119824158Y-128059116D01*
X119836369Y-128083092D01*
X119837909Y-128087613D01*
X119843203Y-128121806D01*
X119829047Y-128142568D01*
X119792148Y-128152462D01*
X119752289Y-128154292D01*
X119680562Y-128140727D01*
X119643432Y-128121355D01*
X119597576Y-128075845D01*
X119573256Y-128019983D01*
X119571073Y-127960957D01*
X119591629Y-127905953D01*
X119622549Y-127871486D01*
X119653420Y-127852189D01*
X119701942Y-127827759D01*
X119758485Y-127802985D01*
X119767910Y-127799199D01*
X119830019Y-127771791D01*
X119865822Y-127747634D01*
X119877337Y-127723619D01*
X119866580Y-127696635D01*
X119848114Y-127675543D01*
X119804469Y-127649572D01*
X119756446Y-127647624D01*
X119712406Y-127667637D01*
X119680709Y-127707551D01*
X119676549Y-127717848D01*
X119652327Y-127755724D01*
X119616965Y-127783842D01*
X119572343Y-127806917D01*
X119572343Y-127741485D01*
X119574969Y-127701506D01*
X119586230Y-127669997D01*
X119611199Y-127636378D01*
X119635169Y-127610484D01*
X119672441Y-127573817D01*
X119701401Y-127554121D01*
X119732505Y-127546220D01*
X119767713Y-127544914D01*
X119844876Y-127556335D01*
G36*
X119844876Y-127556335D02*
G01*
X119886667Y-127575344D01*
X119919469Y-127598378D01*
X119943503Y-127624133D01*
X119960097Y-127657358D01*
X119970577Y-127702800D01*
X119976271Y-127765207D01*
X119978507Y-127849327D01*
X119978743Y-127904721D01*
X119978743Y-128120826D01*
X119941774Y-128137670D01*
X119912656Y-128149981D01*
X119898231Y-128154514D01*
X119895472Y-128141025D01*
X119893282Y-128104653D01*
X119891942Y-128051542D01*
X119891657Y-128009372D01*
X119890434Y-127948447D01*
X119887136Y-127900115D01*
X119882321Y-127870518D01*
X119878496Y-127864229D01*
X119852783Y-127870652D01*
X119812418Y-127887125D01*
X119765679Y-127909458D01*
X119720845Y-127933457D01*
X119686193Y-127954930D01*
X119670002Y-127969685D01*
X119669938Y-127969845D01*
X119671330Y-127997152D01*
X119683818Y-128023219D01*
X119705743Y-128044392D01*
X119737743Y-128051474D01*
X119765092Y-128050649D01*
X119803826Y-128050042D01*
X119824158Y-128059116D01*
X119836369Y-128083092D01*
X119837909Y-128087613D01*
X119843203Y-128121806D01*
X119829047Y-128142568D01*
X119792148Y-128152462D01*
X119752289Y-128154292D01*
X119680562Y-128140727D01*
X119643432Y-128121355D01*
X119597576Y-128075845D01*
X119573256Y-128019983D01*
X119571073Y-127960957D01*
X119591629Y-127905953D01*
X119622549Y-127871486D01*
X119653420Y-127852189D01*
X119701942Y-127827759D01*
X119758485Y-127802985D01*
X119767910Y-127799199D01*
X119830019Y-127771791D01*
X119865822Y-127747634D01*
X119877337Y-127723619D01*
X119866580Y-127696635D01*
X119848114Y-127675543D01*
X119804469Y-127649572D01*
X119756446Y-127647624D01*
X119712406Y-127667637D01*
X119680709Y-127707551D01*
X119676549Y-127717848D01*
X119652327Y-127755724D01*
X119616965Y-127783842D01*
X119572343Y-127806917D01*
X119572343Y-127741485D01*
X119574969Y-127701506D01*
X119586230Y-127669997D01*
X119611199Y-127636378D01*
X119635169Y-127610484D01*
X119672441Y-127573817D01*
X119701401Y-127554121D01*
X119732505Y-127546220D01*
X119767713Y-127544914D01*
X119844876Y-127556335D01*
G37*
X117803910Y-122842348D02*
X117882454Y-122842778D01*
X117939298Y-122843942D01*
X117978105Y-122846207D01*
X118002538Y-122849940D01*
X118016262Y-122855506D01*
X118022940Y-122863273D01*
X118026236Y-122873605D01*
X118026556Y-122874943D01*
X118031562Y-122899079D01*
X118040829Y-122946701D01*
X118053392Y-123012741D01*
X118068287Y-123092128D01*
X118084551Y-123179796D01*
X118085119Y-123182875D01*
X118101410Y-123268789D01*
X118116652Y-123344696D01*
X118129861Y-123406045D01*
X118140054Y-123448282D01*
X118146248Y-123466855D01*
X118146543Y-123467184D01*
X118164788Y-123476253D01*
X118202405Y-123491367D01*
X118251271Y-123509262D01*
X118251543Y-123509358D01*
X118313093Y-123532493D01*
X118385657Y-123561965D01*
X118454057Y-123591597D01*
X118457294Y-123593062D01*
X118568702Y-123643626D01*
X118815399Y-123475160D01*
X118891077Y-123423803D01*
X118959631Y-123377889D01*
X119017088Y-123340030D01*
X119059476Y-123312837D01*
X119082825Y-123298921D01*
X119085042Y-123297889D01*
X119102010Y-123302484D01*
X119133701Y-123324655D01*
X119181352Y-123365447D01*
X119246198Y-123425905D01*
X119312397Y-123490227D01*
X119376214Y-123553612D01*
X119433329Y-123611451D01*
X119480305Y-123660175D01*
X119513703Y-123696210D01*
X119530085Y-123715984D01*
X119530694Y-123717002D01*
X119532505Y-123730572D01*
X119525683Y-123752733D01*
X119508540Y-123786478D01*
X119479393Y-123834800D01*
X119436555Y-123900692D01*
X119379448Y-123985517D01*
X119328766Y-124060177D01*
X119283461Y-124127140D01*
X119246150Y-124182516D01*
X119219452Y-124222420D01*
X119205985Y-124242962D01*
X119205137Y-124244356D01*
X119206781Y-124264038D01*
X119219245Y-124302293D01*
X119240048Y-124351889D01*
X119247462Y-124367728D01*
X119279814Y-124438290D01*
X119314328Y-124518353D01*
X119342365Y-124587629D01*
X119362568Y-124639045D01*
X119378615Y-124678119D01*
X119387888Y-124698541D01*
X119389041Y-124700114D01*
X119406096Y-124702721D01*
X119446298Y-124709863D01*
X119504302Y-124720523D01*
X119574763Y-124733685D01*
X119652335Y-124748333D01*
X119731672Y-124763449D01*
X119807431Y-124778018D01*
X119874264Y-124791022D01*
X119926828Y-124801445D01*
X119959776Y-124808270D01*
X119967857Y-124810199D01*
X119976205Y-124814962D01*
X119982506Y-124825718D01*
X119987045Y-124846098D01*
X119990104Y-124879734D01*
X119991967Y-124930255D01*
X119992918Y-125001292D01*
X119993240Y-125096476D01*
X119993257Y-125135492D01*
X119993257Y-125452799D01*
X119917057Y-125467839D01*
X119874663Y-125475995D01*
X119811400Y-125487899D01*
X119734962Y-125502116D01*
X119653043Y-125517210D01*
X119630400Y-125521355D01*
X119554806Y-125536053D01*
X119488953Y-125550505D01*
X119438366Y-125563375D01*
X119408574Y-125573322D01*
X119403612Y-125576287D01*
X119391426Y-125597283D01*
X119373953Y-125637967D01*
X119354577Y-125690322D01*
X119350734Y-125701600D01*
X119325339Y-125771523D01*
X119293817Y-125850418D01*
X119262969Y-125921266D01*
X119262817Y-125921595D01*
X119211447Y-126032733D01*
X119380399Y-126281253D01*
X119549352Y-126529772D01*
X119332429Y-126747058D01*
X119266819Y-126811726D01*
X119206979Y-126868733D01*
X119156267Y-126915033D01*
X119118046Y-126947584D01*
X119095675Y-126963343D01*
X119092466Y-126964343D01*
X119073626Y-126956469D01*
X119035180Y-126934578D01*
X118981330Y-126901267D01*
X118916276Y-126859131D01*
X118845940Y-126811943D01*
X118774555Y-126763810D01*
X118710908Y-126721928D01*
X118659041Y-126688871D01*
X118622995Y-126667218D01*
X118606867Y-126659543D01*
X118587189Y-126666037D01*
X118549875Y-126683150D01*
X118502621Y-126707326D01*
X118497612Y-126710013D01*
X118433977Y-126741927D01*
X118390341Y-126757579D01*
X118363202Y-126757745D01*
X118349057Y-126743204D01*
X118348975Y-126743000D01*
X118341905Y-126725779D01*
X118325042Y-126684899D01*
X118299695Y-126623525D01*
X118267171Y-126544819D01*
X118228778Y-126451947D01*
X118185822Y-126348072D01*
X118144222Y-126247502D01*
X118098504Y-126136516D01*
X118056526Y-126033703D01*
X118019548Y-125942215D01*
X117988827Y-125865201D01*
X117965622Y-125805815D01*
X117951190Y-125767209D01*
X117946743Y-125752800D01*
X117957896Y-125736272D01*
X117987069Y-125709930D01*
X118025971Y-125680887D01*
X118136757Y-125589039D01*
X118223351Y-125483759D01*
X118284716Y-125367266D01*
X118319815Y-125241776D01*
X118327608Y-125109507D01*
X118321943Y-125048457D01*
X118291078Y-124921795D01*
X118237920Y-124809941D01*
X118165767Y-124714001D01*
X118077917Y-124635076D01*
X117977665Y-124574270D01*
X117868310Y-124532687D01*
X117753147Y-124511428D01*
X117635475Y-124511599D01*
X117518590Y-124534301D01*
X117405789Y-124580638D01*
X117300369Y-124651713D01*
X117256368Y-124691911D01*
X117171979Y-124795129D01*
X117113222Y-124907925D01*
X117079704Y-125027010D01*
X117071035Y-125149095D01*
X117086823Y-125270893D01*
X117126678Y-125389116D01*
X117190207Y-125500475D01*
X117277021Y-125601684D01*
X117374029Y-125680887D01*
X117414437Y-125711162D01*
X117442982Y-125737219D01*
X117453257Y-125752825D01*
X117447877Y-125769843D01*
X117432575Y-125810500D01*
X117408612Y-125871642D01*
X117377244Y-125950119D01*
X117339732Y-126042780D01*
X117297333Y-126146472D01*
X117255663Y-126247526D01*
X117209690Y-126358607D01*
X117167107Y-126461541D01*
X117129221Y-126553165D01*
X117097340Y-126630316D01*
X117072771Y-126689831D01*
X117056820Y-126728544D01*
X117050910Y-126743000D01*
X117036948Y-126757685D01*
X117009940Y-126757642D01*
X116966413Y-126742099D01*
X116902890Y-126710284D01*
X116902388Y-126710013D01*
X116854560Y-126685323D01*
X116815897Y-126667338D01*
X116794095Y-126659614D01*
X116793133Y-126659543D01*
X116776721Y-126667378D01*
X116740487Y-126689165D01*
X116688474Y-126722328D01*
X116624725Y-126764291D01*
X116554060Y-126811943D01*
X116482116Y-126860191D01*
X116417274Y-126902151D01*
X116363735Y-126935227D01*
X116325697Y-126956821D01*
X116307533Y-126964343D01*
X116290808Y-126954457D01*
X116257180Y-126926826D01*
X116210010Y-126884495D01*
X116152658Y-126830505D01*
X116088484Y-126767899D01*
X116067497Y-126746983D01*
X115850499Y-126529623D01*
X116015668Y-126287220D01*
X116065864Y-126212781D01*
X116109919Y-126145972D01*
X116145362Y-126090665D01*
X116169719Y-126050729D01*
X116180522Y-126030036D01*
X116180838Y-126028563D01*
X116175143Y-126009058D01*
X116159826Y-125969822D01*
X116137537Y-125917430D01*
X116121893Y-125882355D01*
X116092641Y-125815201D01*
X116065094Y-125747358D01*
X116043737Y-125690034D01*
X116037935Y-125672572D01*
X116021452Y-125625938D01*
X116005340Y-125589905D01*
X115996490Y-125576287D01*
X115976960Y-125567952D01*
X115934334Y-125556137D01*
X115874145Y-125542181D01*
X115801922Y-125527422D01*
X115769600Y-125521355D01*
X115687522Y-125506273D01*
X115608795Y-125491669D01*
X115541109Y-125478980D01*
X115492160Y-125469642D01*
X115482943Y-125467839D01*
X115406743Y-125452799D01*
X115406743Y-125135492D01*
X115406914Y-125031154D01*
X115407616Y-124952213D01*
X115409134Y-124895038D01*
X115411749Y-124855999D01*
X115415746Y-124831465D01*
X115421409Y-124817805D01*
X115429020Y-124811389D01*
X115432143Y-124810199D01*
X115450978Y-124805980D01*
X115492588Y-124797562D01*
X115551630Y-124785961D01*
X115622757Y-124772195D01*
X115700625Y-124757280D01*
X115779887Y-124742232D01*
X115855198Y-124728069D01*
X115921213Y-124715806D01*
X115972587Y-124706461D01*
X116003975Y-124701050D01*
X116010959Y-124700114D01*
X116017285Y-124687596D01*
X116031290Y-124654246D01*
X116050355Y-124606377D01*
X116057634Y-124587629D01*
X116086996Y-124515195D01*
X116121571Y-124435170D01*
X116152537Y-124367728D01*
X116175323Y-124316159D01*
X116190482Y-124273785D01*
X116195542Y-124247834D01*
X116194736Y-124244356D01*
X116184041Y-124227936D01*
X116159620Y-124191417D01*
X116124095Y-124138687D01*
X116080087Y-124073635D01*
X116030217Y-124000151D01*
X116020356Y-123985645D01*
X115962492Y-123899704D01*
X115919956Y-123834261D01*
X115891054Y-123786304D01*
X115874090Y-123752820D01*
X115867367Y-123730795D01*
X115869190Y-123717217D01*
X115869236Y-123717131D01*
X115883586Y-123699297D01*
X115915323Y-123664817D01*
X115961010Y-123617268D01*
X116017204Y-123560222D01*
X116080468Y-123497255D01*
X116087602Y-123490227D01*
X116167330Y-123413020D01*
X116228857Y-123356330D01*
X116273421Y-123319110D01*
X116302257Y-123300315D01*
X116314958Y-123297889D01*
X116333494Y-123308471D01*
X116371961Y-123332916D01*
X116426386Y-123368612D01*
X116492798Y-123412947D01*
X116567225Y-123463311D01*
X116584601Y-123475160D01*
X116831297Y-123643626D01*
X116942706Y-123593062D01*
X117010457Y-123563595D01*
X117083183Y-123533959D01*
X117145703Y-123510330D01*
X117148457Y-123509358D01*
X117197360Y-123491457D01*
X117235057Y-123476320D01*
X117253425Y-123467210D01*
X117253456Y-123467184D01*
X117259285Y-123450717D01*
X117269192Y-123410219D01*
X117282195Y-123350242D01*
X117297309Y-123275340D01*
X117313552Y-123190064D01*
X117314881Y-123182875D01*
X117331175Y-123095014D01*
X117346133Y-123015260D01*
X117358791Y-122948681D01*
X117368186Y-122900347D01*
X117373354Y-122875325D01*
X117373444Y-122874943D01*
X117376589Y-122864299D01*
X117382704Y-122856262D01*
X117395453Y-122850467D01*
X117418500Y-122846547D01*
X117455509Y-122844135D01*
X117510144Y-122842865D01*
X117586067Y-122842371D01*
X117686944Y-122842286D01*
X117700000Y-122842286D01*
X117803910Y-122842348D01*
G36*
X117803910Y-122842348D02*
G01*
X117882454Y-122842778D01*
X117939298Y-122843942D01*
X117978105Y-122846207D01*
X118002538Y-122849940D01*
X118016262Y-122855506D01*
X118022940Y-122863273D01*
X118026236Y-122873605D01*
X118026556Y-122874943D01*
X118031562Y-122899079D01*
X118040829Y-122946701D01*
X118053392Y-123012741D01*
X118068287Y-123092128D01*
X118084551Y-123179796D01*
X118085119Y-123182875D01*
X118101410Y-123268789D01*
X118116652Y-123344696D01*
X118129861Y-123406045D01*
X118140054Y-123448282D01*
X118146248Y-123466855D01*
X118146543Y-123467184D01*
X118164788Y-123476253D01*
X118202405Y-123491367D01*
X118251271Y-123509262D01*
X118251543Y-123509358D01*
X118313093Y-123532493D01*
X118385657Y-123561965D01*
X118454057Y-123591597D01*
X118457294Y-123593062D01*
X118568702Y-123643626D01*
X118815399Y-123475160D01*
X118891077Y-123423803D01*
X118959631Y-123377889D01*
X119017088Y-123340030D01*
X119059476Y-123312837D01*
X119082825Y-123298921D01*
X119085042Y-123297889D01*
X119102010Y-123302484D01*
X119133701Y-123324655D01*
X119181352Y-123365447D01*
X119246198Y-123425905D01*
X119312397Y-123490227D01*
X119376214Y-123553612D01*
X119433329Y-123611451D01*
X119480305Y-123660175D01*
X119513703Y-123696210D01*
X119530085Y-123715984D01*
X119530694Y-123717002D01*
X119532505Y-123730572D01*
X119525683Y-123752733D01*
X119508540Y-123786478D01*
X119479393Y-123834800D01*
X119436555Y-123900692D01*
X119379448Y-123985517D01*
X119328766Y-124060177D01*
X119283461Y-124127140D01*
X119246150Y-124182516D01*
X119219452Y-124222420D01*
X119205985Y-124242962D01*
X119205137Y-124244356D01*
X119206781Y-124264038D01*
X119219245Y-124302293D01*
X119240048Y-124351889D01*
X119247462Y-124367728D01*
X119279814Y-124438290D01*
X119314328Y-124518353D01*
X119342365Y-124587629D01*
X119362568Y-124639045D01*
X119378615Y-124678119D01*
X119387888Y-124698541D01*
X119389041Y-124700114D01*
X119406096Y-124702721D01*
X119446298Y-124709863D01*
X119504302Y-124720523D01*
X119574763Y-124733685D01*
X119652335Y-124748333D01*
X119731672Y-124763449D01*
X119807431Y-124778018D01*
X119874264Y-124791022D01*
X119926828Y-124801445D01*
X119959776Y-124808270D01*
X119967857Y-124810199D01*
X119976205Y-124814962D01*
X119982506Y-124825718D01*
X119987045Y-124846098D01*
X119990104Y-124879734D01*
X119991967Y-124930255D01*
X119992918Y-125001292D01*
X119993240Y-125096476D01*
X119993257Y-125135492D01*
X119993257Y-125452799D01*
X119917057Y-125467839D01*
X119874663Y-125475995D01*
X119811400Y-125487899D01*
X119734962Y-125502116D01*
X119653043Y-125517210D01*
X119630400Y-125521355D01*
X119554806Y-125536053D01*
X119488953Y-125550505D01*
X119438366Y-125563375D01*
X119408574Y-125573322D01*
X119403612Y-125576287D01*
X119391426Y-125597283D01*
X119373953Y-125637967D01*
X119354577Y-125690322D01*
X119350734Y-125701600D01*
X119325339Y-125771523D01*
X119293817Y-125850418D01*
X119262969Y-125921266D01*
X119262817Y-125921595D01*
X119211447Y-126032733D01*
X119380399Y-126281253D01*
X119549352Y-126529772D01*
X119332429Y-126747058D01*
X119266819Y-126811726D01*
X119206979Y-126868733D01*
X119156267Y-126915033D01*
X119118046Y-126947584D01*
X119095675Y-126963343D01*
X119092466Y-126964343D01*
X119073626Y-126956469D01*
X119035180Y-126934578D01*
X118981330Y-126901267D01*
X118916276Y-126859131D01*
X118845940Y-126811943D01*
X118774555Y-126763810D01*
X118710908Y-126721928D01*
X118659041Y-126688871D01*
X118622995Y-126667218D01*
X118606867Y-126659543D01*
X118587189Y-126666037D01*
X118549875Y-126683150D01*
X118502621Y-126707326D01*
X118497612Y-126710013D01*
X118433977Y-126741927D01*
X118390341Y-126757579D01*
X118363202Y-126757745D01*
X118349057Y-126743204D01*
X118348975Y-126743000D01*
X118341905Y-126725779D01*
X118325042Y-126684899D01*
X118299695Y-126623525D01*
X118267171Y-126544819D01*
X118228778Y-126451947D01*
X118185822Y-126348072D01*
X118144222Y-126247502D01*
X118098504Y-126136516D01*
X118056526Y-126033703D01*
X118019548Y-125942215D01*
X117988827Y-125865201D01*
X117965622Y-125805815D01*
X117951190Y-125767209D01*
X117946743Y-125752800D01*
X117957896Y-125736272D01*
X117987069Y-125709930D01*
X118025971Y-125680887D01*
X118136757Y-125589039D01*
X118223351Y-125483759D01*
X118284716Y-125367266D01*
X118319815Y-125241776D01*
X118327608Y-125109507D01*
X118321943Y-125048457D01*
X118291078Y-124921795D01*
X118237920Y-124809941D01*
X118165767Y-124714001D01*
X118077917Y-124635076D01*
X117977665Y-124574270D01*
X117868310Y-124532687D01*
X117753147Y-124511428D01*
X117635475Y-124511599D01*
X117518590Y-124534301D01*
X117405789Y-124580638D01*
X117300369Y-124651713D01*
X117256368Y-124691911D01*
X117171979Y-124795129D01*
X117113222Y-124907925D01*
X117079704Y-125027010D01*
X117071035Y-125149095D01*
X117086823Y-125270893D01*
X117126678Y-125389116D01*
X117190207Y-125500475D01*
X117277021Y-125601684D01*
X117374029Y-125680887D01*
X117414437Y-125711162D01*
X117442982Y-125737219D01*
X117453257Y-125752825D01*
X117447877Y-125769843D01*
X117432575Y-125810500D01*
X117408612Y-125871642D01*
X117377244Y-125950119D01*
X117339732Y-126042780D01*
X117297333Y-126146472D01*
X117255663Y-126247526D01*
X117209690Y-126358607D01*
X117167107Y-126461541D01*
X117129221Y-126553165D01*
X117097340Y-126630316D01*
X117072771Y-126689831D01*
X117056820Y-126728544D01*
X117050910Y-126743000D01*
X117036948Y-126757685D01*
X117009940Y-126757642D01*
X116966413Y-126742099D01*
X116902890Y-126710284D01*
X116902388Y-126710013D01*
X116854560Y-126685323D01*
X116815897Y-126667338D01*
X116794095Y-126659614D01*
X116793133Y-126659543D01*
X116776721Y-126667378D01*
X116740487Y-126689165D01*
X116688474Y-126722328D01*
X116624725Y-126764291D01*
X116554060Y-126811943D01*
X116482116Y-126860191D01*
X116417274Y-126902151D01*
X116363735Y-126935227D01*
X116325697Y-126956821D01*
X116307533Y-126964343D01*
X116290808Y-126954457D01*
X116257180Y-126926826D01*
X116210010Y-126884495D01*
X116152658Y-126830505D01*
X116088484Y-126767899D01*
X116067497Y-126746983D01*
X115850499Y-126529623D01*
X116015668Y-126287220D01*
X116065864Y-126212781D01*
X116109919Y-126145972D01*
X116145362Y-126090665D01*
X116169719Y-126050729D01*
X116180522Y-126030036D01*
X116180838Y-126028563D01*
X116175143Y-126009058D01*
X116159826Y-125969822D01*
X116137537Y-125917430D01*
X116121893Y-125882355D01*
X116092641Y-125815201D01*
X116065094Y-125747358D01*
X116043737Y-125690034D01*
X116037935Y-125672572D01*
X116021452Y-125625938D01*
X116005340Y-125589905D01*
X115996490Y-125576287D01*
X115976960Y-125567952D01*
X115934334Y-125556137D01*
X115874145Y-125542181D01*
X115801922Y-125527422D01*
X115769600Y-125521355D01*
X115687522Y-125506273D01*
X115608795Y-125491669D01*
X115541109Y-125478980D01*
X115492160Y-125469642D01*
X115482943Y-125467839D01*
X115406743Y-125452799D01*
X115406743Y-125135492D01*
X115406914Y-125031154D01*
X115407616Y-124952213D01*
X115409134Y-124895038D01*
X115411749Y-124855999D01*
X115415746Y-124831465D01*
X115421409Y-124817805D01*
X115429020Y-124811389D01*
X115432143Y-124810199D01*
X115450978Y-124805980D01*
X115492588Y-124797562D01*
X115551630Y-124785961D01*
X115622757Y-124772195D01*
X115700625Y-124757280D01*
X115779887Y-124742232D01*
X115855198Y-124728069D01*
X115921213Y-124715806D01*
X115972587Y-124706461D01*
X116003975Y-124701050D01*
X116010959Y-124700114D01*
X116017285Y-124687596D01*
X116031290Y-124654246D01*
X116050355Y-124606377D01*
X116057634Y-124587629D01*
X116086996Y-124515195D01*
X116121571Y-124435170D01*
X116152537Y-124367728D01*
X116175323Y-124316159D01*
X116190482Y-124273785D01*
X116195542Y-124247834D01*
X116194736Y-124244356D01*
X116184041Y-124227936D01*
X116159620Y-124191417D01*
X116124095Y-124138687D01*
X116080087Y-124073635D01*
X116030217Y-124000151D01*
X116020356Y-123985645D01*
X115962492Y-123899704D01*
X115919956Y-123834261D01*
X115891054Y-123786304D01*
X115874090Y-123752820D01*
X115867367Y-123730795D01*
X115869190Y-123717217D01*
X115869236Y-123717131D01*
X115883586Y-123699297D01*
X115915323Y-123664817D01*
X115961010Y-123617268D01*
X116017204Y-123560222D01*
X116080468Y-123497255D01*
X116087602Y-123490227D01*
X116167330Y-123413020D01*
X116228857Y-123356330D01*
X116273421Y-123319110D01*
X116302257Y-123300315D01*
X116314958Y-123297889D01*
X116333494Y-123308471D01*
X116371961Y-123332916D01*
X116426386Y-123368612D01*
X116492798Y-123412947D01*
X116567225Y-123463311D01*
X116584601Y-123475160D01*
X116831297Y-123643626D01*
X116942706Y-123593062D01*
X117010457Y-123563595D01*
X117083183Y-123533959D01*
X117145703Y-123510330D01*
X117148457Y-123509358D01*
X117197360Y-123491457D01*
X117235057Y-123476320D01*
X117253425Y-123467210D01*
X117253456Y-123467184D01*
X117259285Y-123450717D01*
X117269192Y-123410219D01*
X117282195Y-123350242D01*
X117297309Y-123275340D01*
X117313552Y-123190064D01*
X117314881Y-123182875D01*
X117331175Y-123095014D01*
X117346133Y-123015260D01*
X117358791Y-122948681D01*
X117368186Y-122900347D01*
X117373354Y-122875325D01*
X117373444Y-122874943D01*
X117376589Y-122864299D01*
X117382704Y-122856262D01*
X117395453Y-122850467D01*
X117418500Y-122846547D01*
X117455509Y-122844135D01*
X117510144Y-122842865D01*
X117586067Y-122842371D01*
X117686944Y-122842286D01*
X117700000Y-122842286D01*
X117803910Y-122842348D01*
G37*
D12*
%TO.C,LED_Red_bms1*%
X154042500Y-126250000D02*
X154042500Y-128950000D01*
X154042500Y-128950000D02*
X156142500Y-128950000D01*
X156142500Y-128950000D02*
X156142500Y-126250000D01*
%TO.C,LED_green_bms1*%
X156550000Y-126250000D02*
X156550000Y-128950000D01*
X156550000Y-128950000D02*
X158650000Y-128950000D01*
X158650000Y-128950000D02*
X158650000Y-126250000D01*
%TO.C,R21*%
X156200000Y-117375000D02*
X156200000Y-118425000D01*
%TO.C,R22*%
X148299935Y-115153635D02*
X148299935Y-116203635D01*
D13*
%TO.C,R8*%
X148160436Y-104265000D02*
X148614564Y-104265000D01*
X148160436Y-105735000D02*
X148614564Y-105735000D01*
D12*
%TO.C,R20*%
X151349935Y-124375000D02*
X151349935Y-125425000D01*
%TO.C,J1*%
X158990000Y-104386000D02*
G75*
G02*
X158864000Y-104386000I-63000J0D01*
G01*
X158864000Y-104386000D02*
G75*
G02*
X158990000Y-104386000I63000J0D01*
G01*
D14*
%TO.C,S_b1*%
X152900000Y-110100000D02*
X159100000Y-110100000D01*
X152900000Y-111817330D02*
X152900000Y-114607000D01*
X152900000Y-116300000D02*
X159100000Y-116300000D01*
X159100000Y-111803000D02*
X159100000Y-114564330D01*
X150761130Y-109990670D02*
G75*
G02*
X150608870Y-109990670I-76130J0D01*
G01*
X150608870Y-109990670D02*
G75*
G02*
X150761130Y-109990670I76130J0D01*
G01*
D13*
%TO.C,R7*%
X138672936Y-97565000D02*
X139127064Y-97565000D01*
X138672936Y-99035000D02*
X139127064Y-99035000D01*
%TO.C,R5*%
X125553000Y-99772936D02*
X125553000Y-100227064D01*
X127023000Y-99772936D02*
X127023000Y-100227064D01*
%TO.C,R9*%
X148627064Y-106265000D02*
X148172936Y-106265000D01*
X148627064Y-107735000D02*
X148172936Y-107735000D01*
D14*
%TO.C,S_left1*%
X115500000Y-113650000D02*
X121700000Y-113650000D01*
X115500000Y-115367330D02*
X115500000Y-118157000D01*
X115500000Y-119850000D02*
X121700000Y-119850000D01*
X121700000Y-115353000D02*
X121700000Y-118114330D01*
X113361130Y-113540670D02*
G75*
G02*
X113208870Y-113540670I-76130J0D01*
G01*
X113208870Y-113540670D02*
G75*
G02*
X113361130Y-113540670I76130J0D01*
G01*
D13*
%TO.C,R6*%
X125553000Y-103360436D02*
X125553000Y-103814564D01*
X127023000Y-103360436D02*
X127023000Y-103814564D01*
%TO.C,R10*%
X150539564Y-101965000D02*
X150085436Y-101965000D01*
X150539564Y-103435000D02*
X150085436Y-103435000D01*
D15*
%TO.C,IC1*%
X128950000Y-103900000D02*
X128950000Y-103900000D01*
X128950000Y-104000000D02*
X128950000Y-104000000D01*
X128950000Y-103900000D02*
G75*
G02*
X128950000Y-104000000I0J-50000D01*
G01*
X128950000Y-104000000D02*
G75*
G02*
X128950000Y-103900000I0J50000D01*
G01*
D13*
%TO.C,U2*%
X137090000Y-104090000D02*
X137090000Y-104540000D01*
X137090000Y-111310000D02*
X137090000Y-110860000D01*
X137540000Y-104090000D02*
X137090000Y-104090000D01*
X137540000Y-111310000D02*
X137090000Y-111310000D01*
X143860000Y-104090000D02*
X144310000Y-104090000D01*
X143860000Y-111310000D02*
X144310000Y-111310000D01*
X144310000Y-104090000D02*
X144310000Y-104540000D01*
X144310000Y-111310000D02*
X144310000Y-110860000D01*
X136500000Y-104540000D02*
X136160000Y-104070000D01*
X136840000Y-104070000D01*
X136500000Y-104540000D01*
G36*
X136500000Y-104540000D02*
G01*
X136160000Y-104070000D01*
X136840000Y-104070000D01*
X136500000Y-104540000D01*
G37*
%TO.C,JP1*%
X137550000Y-100900000D02*
X137550000Y-100300000D01*
X138250000Y-99600000D02*
X139650000Y-99600000D01*
X139650000Y-101600000D02*
X138250000Y-101600000D01*
X140350000Y-100300000D02*
X140350000Y-100900000D01*
X137550000Y-100300000D02*
G75*
G02*
X138250000Y-99600000I699999J1D01*
G01*
X138250000Y-101600000D02*
G75*
G02*
X137550000Y-100900000I-1J699999D01*
G01*
X139650000Y-99600000D02*
G75*
G02*
X140350000Y-100300000I0J-700000D01*
G01*
X140350000Y-100900000D02*
G75*
G02*
X139650000Y-101600000I-700000J0D01*
G01*
D12*
%TO.C,J2*%
X134030000Y-130200000D02*
X134030000Y-130450000D01*
X134030000Y-130450000D02*
X142970000Y-130450000D01*
X135300000Y-122000000D02*
X135300000Y-122000000D01*
X135300000Y-122000000D02*
X135300000Y-122000000D01*
X135300000Y-122100000D02*
X135300000Y-122100000D01*
X142970000Y-130450000D02*
X142970000Y-130200000D01*
X135300000Y-122000000D02*
G75*
G02*
X135300000Y-122100000I0J-50000D01*
G01*
X135300000Y-122100000D02*
G75*
G02*
X135300000Y-122000000I0J50000D01*
G01*
X135300000Y-122100000D02*
G75*
G02*
X135300000Y-122000000I0J50000D01*
G01*
D14*
%TO.C,S_right1*%
X131450000Y-113650000D02*
X137650000Y-113650000D01*
X131450000Y-115367330D02*
X131450000Y-118157000D01*
X131450000Y-119850000D02*
X137650000Y-119850000D01*
X137650000Y-115353000D02*
X137650000Y-118114330D01*
X129311130Y-113540670D02*
G75*
G02*
X129158870Y-113540670I-76130J0D01*
G01*
X129158870Y-113540670D02*
G75*
G02*
X129311130Y-113540670I76130J0D01*
G01*
%TO.C,S_down1*%
X123500000Y-120442730D02*
X129700000Y-120442730D01*
X123500000Y-122160060D02*
X123500000Y-124949730D01*
X123500000Y-126642730D02*
X129700000Y-126642730D01*
X129700000Y-122145730D02*
X129700000Y-124907060D01*
X121361130Y-120333400D02*
G75*
G02*
X121208870Y-120333400I-76130J0D01*
G01*
X121208870Y-120333400D02*
G75*
G02*
X121361130Y-120333400I76130J0D01*
G01*
D12*
%TO.C,R19*%
X157600000Y-108375000D02*
X157600000Y-109425000D01*
D15*
%TO.C,U1*%
X119000000Y-48897800D02*
X155499800Y-48897800D01*
X119000000Y-48923200D02*
X119000000Y-48897800D01*
X119000000Y-96116400D02*
X119000000Y-48923200D01*
X155499800Y-48897800D02*
X155499800Y-96091000D01*
X155499800Y-96091000D02*
X119000000Y-96116400D01*
D14*
%TO.C,S_up1*%
X123500000Y-107100000D02*
X129700000Y-107100000D01*
X123500000Y-108817330D02*
X123500000Y-111607000D01*
X123500000Y-113300000D02*
X129700000Y-113300000D01*
X129700000Y-108803000D02*
X129700000Y-111564330D01*
X121361130Y-106990670D02*
G75*
G02*
X121208870Y-106990670I-76130J0D01*
G01*
X121208870Y-106990670D02*
G75*
G02*
X121361130Y-106990670I76130J0D01*
G01*
%TO.C,S_a1*%
X145000000Y-116800000D02*
X151200000Y-116800000D01*
X145000000Y-118517330D02*
X145000000Y-121307000D01*
X145000000Y-123000000D02*
X151200000Y-123000000D01*
X151200000Y-118503000D02*
X151200000Y-121264330D01*
X142861130Y-116690670D02*
G75*
G02*
X142708870Y-116690670I-76130J0D01*
G01*
X142708870Y-116690670D02*
G75*
G02*
X142861130Y-116690670I76130J0D01*
G01*
%TD*%
%LPC*%
D16*
%TO.C,LED_Red_bms1*%
X155092500Y-128150000D03*
X155092500Y-126250000D03*
%TD*%
%TO.C,LED_green_bms1*%
X157600000Y-128150000D03*
X157600000Y-126250000D03*
%TD*%
D17*
%TO.C,R21*%
X155250000Y-117900000D03*
X157150000Y-117900000D03*
%TD*%
%TO.C,R22*%
X147349935Y-115678635D03*
X149249935Y-115678635D03*
%TD*%
D18*
%TO.C,R8*%
X147475000Y-105000000D03*
X149300000Y-105000000D03*
%TD*%
D19*
%TO.C,C3*%
X142400000Y-114400000D03*
X144000000Y-114400000D03*
%TD*%
D17*
%TO.C,R20*%
X150399935Y-124900000D03*
X152299935Y-124900000D03*
%TD*%
D20*
%TO.C,J1*%
X158900000Y-105265000D03*
X158900000Y-106535000D03*
X157630000Y-105265000D03*
X157630000Y-106535000D03*
X156360000Y-105265000D03*
X156360000Y-106535000D03*
D21*
X160170000Y-105900000D03*
X155090000Y-106916000D03*
X155090000Y-104884000D03*
%TD*%
D22*
%TO.C,S_b1*%
X152025000Y-110950000D03*
X152025000Y-115450000D03*
X159975000Y-110950000D03*
X159975000Y-115450000D03*
%TD*%
D23*
%TO.C,C4*%
X133088000Y-103000000D03*
X133088000Y-101400000D03*
%TD*%
D18*
%TO.C,R7*%
X137987500Y-98300000D03*
X139812500Y-98300000D03*
%TD*%
D24*
%TO.C,R5*%
X126288000Y-99087500D03*
X126288000Y-100912500D03*
%TD*%
D25*
%TO.C,R9*%
X149312500Y-107000000D03*
X147487500Y-107000000D03*
%TD*%
D22*
%TO.C,S_left1*%
X114625000Y-114500000D03*
X114625000Y-119000000D03*
X122575000Y-114500000D03*
X122575000Y-119000000D03*
%TD*%
D26*
%TO.C,C1*%
X134000000Y-108300000D03*
X134000000Y-109900000D03*
%TD*%
D24*
%TO.C,R6*%
X126288000Y-102675000D03*
X126288000Y-104500000D03*
%TD*%
D25*
%TO.C,R10*%
X151225000Y-102700000D03*
X149400000Y-102700000D03*
%TD*%
D26*
%TO.C,C5*%
X135800000Y-101400000D03*
X135800000Y-103000000D03*
%TD*%
D27*
%TO.C,C13*%
X155150000Y-108900000D03*
X153550000Y-108900000D03*
%TD*%
D28*
%TO.C,IC1*%
X128950000Y-103063000D03*
X129450000Y-103063000D03*
X129950000Y-103063000D03*
X130450000Y-103063000D03*
D29*
X130612000Y-102400000D03*
X130612000Y-101900000D03*
X130612000Y-101400000D03*
D28*
X130450000Y-100737000D03*
X129950000Y-100737000D03*
X129450000Y-100737000D03*
X128950000Y-100737000D03*
D29*
X128788000Y-101400000D03*
X128788000Y-101900000D03*
X128788000Y-102400000D03*
%TD*%
D30*
%TO.C,U2*%
X136537500Y-104950000D03*
X136537500Y-105450000D03*
X136537500Y-105950000D03*
X136537500Y-106450000D03*
X136537500Y-106950000D03*
X136537500Y-107450000D03*
X136537500Y-107950000D03*
X136537500Y-108450000D03*
X136537500Y-108950000D03*
X136537500Y-109450000D03*
X136537500Y-109950000D03*
X136537500Y-110450000D03*
D31*
X137950000Y-111862500D03*
X138450000Y-111862500D03*
X138950000Y-111862500D03*
X139450000Y-111862500D03*
X139950000Y-111862500D03*
X140450000Y-111862500D03*
X140950000Y-111862500D03*
X141450000Y-111862500D03*
X141950000Y-111862500D03*
X142450000Y-111862500D03*
X142950000Y-111862500D03*
X143450000Y-111862500D03*
D30*
X144862500Y-110450000D03*
X144862500Y-109950000D03*
X144862500Y-109450000D03*
X144862500Y-108950000D03*
X144862500Y-108450000D03*
X144862500Y-107950000D03*
X144862500Y-107450000D03*
X144862500Y-106950000D03*
X144862500Y-106450000D03*
X144862500Y-105950000D03*
X144862500Y-105450000D03*
X144862500Y-104950000D03*
D31*
X143450000Y-103537500D03*
X142950000Y-103537500D03*
X142450000Y-103537500D03*
X141950000Y-103537500D03*
X141450000Y-103537500D03*
X140950000Y-103537500D03*
X140450000Y-103537500D03*
X139950000Y-103537500D03*
X139450000Y-103537500D03*
X138950000Y-103537500D03*
X138450000Y-103537500D03*
X137950000Y-103537500D03*
%TD*%
D32*
%TO.C,JP1*%
X138300000Y-100600000D03*
D33*
X139600000Y-100600000D03*
%TD*%
D34*
%TO.C,J2*%
X135300000Y-123200000D03*
X136100000Y-123200000D03*
D35*
X137250000Y-123200000D03*
X138250000Y-123200000D03*
X138750000Y-123200000D03*
X139750000Y-123200000D03*
D34*
X140900000Y-123200000D03*
X141700000Y-123200000D03*
D35*
X140250000Y-123200000D03*
X139250000Y-123200000D03*
X137750000Y-123200000D03*
X136750000Y-123200000D03*
D36*
X132880000Y-124350000D03*
D37*
X132880000Y-128350000D03*
X144120000Y-128350000D03*
D36*
X144120000Y-124350000D03*
%TD*%
D27*
%TO.C,C14*%
X148899935Y-124900000D03*
X147299935Y-124900000D03*
%TD*%
%TO.C,C6*%
X147400000Y-102700000D03*
X145800000Y-102700000D03*
%TD*%
D22*
%TO.C,S_right1*%
X130575000Y-114500000D03*
X130575000Y-119000000D03*
X138525000Y-114500000D03*
X138525000Y-119000000D03*
%TD*%
%TO.C,S_down1*%
X122625000Y-121292730D03*
X122625000Y-125792730D03*
X130575000Y-121292730D03*
X130575000Y-125792730D03*
%TD*%
D17*
%TO.C,R19*%
X156650000Y-108900000D03*
X158550000Y-108900000D03*
%TD*%
D27*
%TO.C,C2*%
X130500000Y-98300000D03*
X128900000Y-98300000D03*
%TD*%
D38*
%TO.C,U1*%
X119000000Y-49990000D03*
X119000000Y-52530000D03*
X119000000Y-55070000D03*
X119000000Y-57610000D03*
X119000000Y-66957200D03*
X119000000Y-69497200D03*
X119000000Y-72037200D03*
X119000000Y-74577200D03*
X119000000Y-87226400D03*
X119000000Y-89817200D03*
X119000000Y-92306400D03*
X119000000Y-94897200D03*
X155576000Y-49990000D03*
X155576000Y-52530000D03*
X155576000Y-55070000D03*
X155576000Y-57610000D03*
X155576000Y-66855600D03*
X155576000Y-69395600D03*
X155576000Y-71935600D03*
X155576000Y-74475600D03*
X155576000Y-87277200D03*
X155576000Y-89817200D03*
X155576000Y-92357200D03*
X155576000Y-94897200D03*
%TD*%
D22*
%TO.C,S_up1*%
X122625000Y-107950000D03*
X122625000Y-112450000D03*
X130575000Y-107950000D03*
X130575000Y-112450000D03*
%TD*%
%TO.C,S_a1*%
X144125000Y-117650000D03*
X144125000Y-122150000D03*
X152075000Y-117650000D03*
X152075000Y-122150000D03*
%TD*%
D39*
%TO.C,LS1*%
X116800000Y-105900000D03*
X124400000Y-105900000D03*
%TD*%
%TO.C,SW_Toggle1*%
X123275000Y-128050000D03*
X125775000Y-128050000D03*
X128275000Y-128050000D03*
%TD*%
D40*
%TO.C,J3*%
X158200000Y-98450000D03*
X158200000Y-100950000D03*
%TD*%
%LPD*%
M02*
