%TF.GenerationSoftware,KiCad,Pcbnew,8.0.2*%
%TF.CreationDate,2024-06-24T13:44:32+02:00*%
%TF.ProjectId,PixelDisplay,50697865-6c44-4697-9370-6c61792e6b69,rev?*%
%TF.SameCoordinates,Original*%
%TF.FileFunction,Copper,L1,Top*%
%TF.FilePolarity,Positive*%
%FSLAX46Y46*%
G04 Gerber Fmt 4.6, Leading zero omitted, Abs format (unit mm)*
G04 Created by KiCad (PCBNEW 8.0.2) date 2024-06-24 13:44:32*
%MOMM*%
%LPD*%
G01*
G04 APERTURE LIST*
G04 Aperture macros list*
%AMRoundRect*
0 Rectangle with rounded corners*
0 $1 Rounding radius*
0 $2 $3 $4 $5 $6 $7 $8 $9 X,Y pos of 4 corners*
0 Add a 4 corners polygon primitive as box body*
4,1,4,$2,$3,$4,$5,$6,$7,$8,$9,$2,$3,0*
0 Add four circle primitives for the rounded corners*
1,1,$1+$1,$2,$3*
1,1,$1+$1,$4,$5*
1,1,$1+$1,$6,$7*
1,1,$1+$1,$8,$9*
0 Add four rect primitives between the rounded corners*
20,1,$1+$1,$2,$3,$4,$5,0*
20,1,$1+$1,$4,$5,$6,$7,0*
20,1,$1+$1,$6,$7,$8,$9,0*
20,1,$1+$1,$8,$9,$2,$3,0*%
G04 Aperture macros list end*
%TA.AperFunction,SMDPad,CuDef*%
%ADD10R,0.690000X0.690000*%
%TD*%
%TA.AperFunction,SMDPad,CuDef*%
%ADD11RoundRect,0.250000X-0.475000X0.250000X-0.475000X-0.250000X0.475000X-0.250000X0.475000X0.250000X0*%
%TD*%
%TA.AperFunction,CastellatedPad*%
%ADD12R,1.500000X1.500000*%
%TD*%
%TA.AperFunction,SMDPad,CuDef*%
%ADD13RoundRect,0.250000X0.475000X-0.250000X0.475000X0.250000X-0.475000X0.250000X-0.475000X-0.250000X0*%
%TD*%
%TA.AperFunction,SMDPad,CuDef*%
%ADD14RoundRect,0.250000X0.250000X0.475000X-0.250000X0.475000X-0.250000X-0.475000X0.250000X-0.475000X0*%
%TD*%
%TA.AperFunction,ViaPad*%
%ADD15C,0.600000*%
%TD*%
%TA.AperFunction,Conductor*%
%ADD16C,0.300000*%
%TD*%
%TA.AperFunction,Conductor*%
%ADD17C,0.200000*%
%TD*%
G04 APERTURE END LIST*
D10*
%TO.P,ICled210,1-DOUT,DO*%
%TO.N,Net-(ICled210-DO)*%
X148324112Y-85256000D03*
%TO.P,ICled210,2-VDD,VDD*%
%TO.N,Vdd_str6*%
X148324112Y-86746000D03*
%TO.P,ICled210,3-DIN,DI*%
%TO.N,Net-(ICled207-DO)*%
X146834112Y-86746000D03*
%TO.P,ICled210,4-GND,GND*%
%TO.N,Vss_str6*%
X146834112Y-85256000D03*
%TD*%
%TO.P,ICled127,1-DOUT,DO*%
%TO.N,Net-(ICled127-DO)*%
X145814362Y-72705100D03*
%TO.P,ICled127,2-VDD,VDD*%
%TO.N,Vdd_str4*%
X145814362Y-74195100D03*
%TO.P,ICled127,3-DIN,DI*%
%TO.N,Net-(ICled124-DO)*%
X144324362Y-74195100D03*
%TO.P,ICled127,4-GND,GND*%
%TO.N,Vss_str4*%
X144324362Y-72705100D03*
%TD*%
%TO.P,ICled117,1-DOUT,DO*%
%TO.N,dout_led_pwm_3*%
X168402112Y-67684400D03*
%TO.P,ICled117,2-VDD,VDD*%
%TO.N,Vdd_str3*%
X168402112Y-69174400D03*
%TO.P,ICled117,3-DIN,DI*%
%TO.N,Net-(ICled113-DO)*%
X166912112Y-69174400D03*
%TO.P,ICled117,4-GND,GND*%
%TO.N,Vss_str3*%
X166912112Y-67684400D03*
%TD*%
%TO.P,ICled136,1-DOUT,DO*%
%TO.N,Net-(ICled136-DO)*%
X153343612Y-72705100D03*
%TO.P,ICled136,2-VDD,VDD*%
%TO.N,Vdd_str4*%
X153343612Y-74195100D03*
%TO.P,ICled136,3-DIN,DI*%
%TO.N,Net-(ICled133-DO)*%
X151853612Y-74195100D03*
%TO.P,ICled136,4-GND,GND*%
%TO.N,Vss_str4*%
X151853612Y-72705100D03*
%TD*%
%TO.P,ICled68,1-DOUT,DO*%
%TO.N,Net-(ICled68-DO)*%
X160872862Y-60154200D03*
%TO.P,ICled68,2-VDD,VDD*%
%TO.N,Vdd_str2*%
X160872862Y-61644200D03*
%TO.P,ICled68,3-DIN,DI*%
%TO.N,Net-(ICled65-DO)*%
X159382862Y-61644200D03*
%TO.P,ICled68,4-GND,GND*%
%TO.N,Vss_str2*%
X159382862Y-60154200D03*
%TD*%
%TO.P,ICled193,1-DOUT,DO*%
%TO.N,Net-(ICled157-DI)*%
X168402112Y-77725800D03*
%TO.P,ICled193,2-VDD,VDD*%
%TO.N,Vdd_str5*%
X168402112Y-79215800D03*
%TO.P,ICled193,3-DIN,DI*%
%TO.N,Net-(ICled192-DO)*%
X166912112Y-79215800D03*
%TO.P,ICled193,4-GND,GND*%
%TO.N,Vss_str5*%
X166912112Y-77725800D03*
%TD*%
%TO.P,ICled22,1-DOUT,DO*%
%TO.N,Net-(ICled22-DO)*%
X155853355Y-50114500D03*
%TO.P,ICled22,2-VDD,VDD*%
%TO.N,Vdd_str1*%
X155853355Y-51604500D03*
%TO.P,ICled22,3-DIN,DI*%
%TO.N,Net-(ICled19-DO)*%
X154363355Y-51604500D03*
%TO.P,ICled22,4-GND,GND*%
%TO.N,Vss_str1*%
X154363355Y-50114500D03*
%TD*%
D11*
%TO.P,C4,1*%
%TO.N,Vdd_str2*%
X169800000Y-55660000D03*
%TO.P,C4,2*%
%TO.N,Vss_str2*%
X169800000Y-57560000D03*
%TD*%
D10*
%TO.P,ICled32,1-DOUT,DO*%
%TO.N,Net-(ICled32-DO)*%
X163382612Y-52624000D03*
%TO.P,ICled32,2-VDD,VDD*%
%TO.N,Vdd_str1*%
X163382612Y-54114000D03*
%TO.P,ICled32,3-DIN,DI*%
%TO.N,Net-(ICled29-DO)*%
X161892612Y-54114000D03*
%TO.P,ICled32,4-GND,GND*%
%TO.N,Vss_str1*%
X161892612Y-52624000D03*
%TD*%
%TO.P,ICled125,1-DOUT,DO*%
%TO.N,Net-(ICled125-DO)*%
X143304612Y-75214600D03*
%TO.P,ICled125,2-VDD,VDD*%
%TO.N,Vdd_str4*%
X143304612Y-76704600D03*
%TO.P,ICled125,3-DIN,DI*%
%TO.N,Net-(ICled122-DO)*%
X141814612Y-76704600D03*
%TO.P,ICled125,4-GND,GND*%
%TO.N,Vss_str4*%
X141814612Y-75214600D03*
%TD*%
%TO.P,ICled65,1-DOUT,DO*%
%TO.N,Net-(ICled65-DO)*%
X158363112Y-60154200D03*
%TO.P,ICled65,2-VDD,VDD*%
%TO.N,Vdd_str2*%
X158363112Y-61644200D03*
%TO.P,ICled65,3-DIN,DI*%
%TO.N,Net-(ICled62-DO)*%
X156873112Y-61644200D03*
%TO.P,ICled65,4-GND,GND*%
%TO.N,Vss_str2*%
X156873112Y-60154200D03*
%TD*%
%TO.P,ICled169,1-DOUT,DO*%
%TO.N,Net-(ICled169-DO)*%
X148324112Y-80235300D03*
%TO.P,ICled169,2-VDD,VDD*%
%TO.N,Vdd_str5*%
X148324112Y-81725300D03*
%TO.P,ICled169,3-DIN,DI*%
%TO.N,Net-(ICled166-DO)*%
X146834112Y-81725300D03*
%TO.P,ICled169,4-GND,GND*%
%TO.N,Vss_str5*%
X146834112Y-80235300D03*
%TD*%
%TO.P,ICled211,1-DOUT,DO*%
%TO.N,Net-(ICled211-DO)*%
X150833862Y-87765500D03*
%TO.P,ICled211,2-VDD,VDD*%
%TO.N,Vdd_str6*%
X150833862Y-89255500D03*
%TO.P,ICled211,3-DIN,DI*%
%TO.N,Net-(ICled208-DO)*%
X149343862Y-89255500D03*
%TO.P,ICled211,4-GND,GND*%
%TO.N,Vss_str6*%
X149343862Y-87765500D03*
%TD*%
%TO.P,ICled42,1-DOUT,DO*%
%TO.N,Net-(ICled42-DO)*%
X138284862Y-55135200D03*
%TO.P,ICled42,2-VDD,VDD*%
%TO.N,Vdd_str2*%
X138284862Y-56625200D03*
%TO.P,ICled42,3-DIN,DI*%
%TO.N,din_led_pwm_2*%
X136794862Y-56625200D03*
%TO.P,ICled42,4-GND,GND*%
%TO.N,Vss_str2*%
X136794862Y-55135200D03*
%TD*%
%TO.P,ICled101,1-DOUT,DO*%
%TO.N,Net-(ICled101-DO)*%
X155853362Y-67684400D03*
%TO.P,ICled101,2-VDD,VDD*%
%TO.N,Vdd_str3*%
X155853362Y-69174400D03*
%TO.P,ICled101,3-DIN,DI*%
%TO.N,Net-(ICled101-DI)*%
X154363362Y-69174400D03*
%TO.P,ICled101,4-GND,GND*%
%TO.N,Vss_str3*%
X154363362Y-67684400D03*
%TD*%
%TO.P,ICled27,1-DOUT,DO*%
%TO.N,Net-(ICled27-DO)*%
X158363054Y-47605000D03*
%TO.P,ICled27,2-VDD,VDD*%
%TO.N,Vdd_str1*%
X158363054Y-49095000D03*
%TO.P,ICled27,3-DIN,DI*%
%TO.N,Net-(ICled24-DO)*%
X156873054Y-49095000D03*
%TO.P,ICled27,4-GND,GND*%
%TO.N,Vss_str1*%
X156873054Y-47605000D03*
%TD*%
%TO.P,ICled129,1-DOUT,DO*%
%TO.N,Net-(ICled129-DO)*%
X145814362Y-70195600D03*
%TO.P,ICled129,2-VDD,VDD*%
%TO.N,Vdd_str4*%
X145814362Y-71685600D03*
%TO.P,ICled129,3-DIN,DI*%
%TO.N,Net-(ICled126-DO)*%
X144324362Y-71685600D03*
%TO.P,ICled129,4-GND,GND*%
%TO.N,Vss_str4*%
X144324362Y-70195600D03*
%TD*%
D12*
%TO.P,J6,1,Pin_1*%
%TO.N,Vdd_str6*%
X135350000Y-83540000D03*
%TO.P,J6,2,Pin_2*%
%TO.N,Vss_str6*%
X135350000Y-86080000D03*
%TO.P,J6,3,Pin_3*%
%TO.N,din_led_pwm_6*%
X135350000Y-88620000D03*
%TO.P,J6,4,Pin_4*%
%TO.N,dout_led_pwm_6*%
X135350000Y-91160000D03*
%TD*%
D10*
%TO.P,ICled140,1-DOUT,DO*%
%TO.N,Net-(ICled140-DO)*%
X155853362Y-75214600D03*
%TO.P,ICled140,2-VDD,VDD*%
%TO.N,Vdd_str4*%
X155853362Y-76704600D03*
%TO.P,ICled140,3-DIN,DI*%
%TO.N,Net-(ICled137-DO)*%
X154363362Y-76704600D03*
%TO.P,ICled140,4-GND,GND*%
%TO.N,Vss_str4*%
X154363362Y-75214600D03*
%TD*%
%TO.P,ICled233,1-DOUT,DO*%
%TO.N,Net-(ICled197-DI)*%
X168402112Y-87765500D03*
%TO.P,ICled233,2-VDD,VDD*%
%TO.N,Vdd_str6*%
X168402112Y-89255500D03*
%TO.P,ICled233,3-DIN,DI*%
%TO.N,Net-(ICled229-DO)*%
X166912112Y-89255500D03*
%TO.P,ICled233,4-GND,GND*%
%TO.N,Vss_str6*%
X166912112Y-87765500D03*
%TD*%
%TO.P,ICled19,1-DOUT,DO*%
%TO.N,Net-(ICled19-DO)*%
X153343612Y-50114500D03*
%TO.P,ICled19,2-VDD,VDD*%
%TO.N,Vdd_str1*%
X153343612Y-51604500D03*
%TO.P,ICled19,3-DIN,DI*%
%TO.N,Net-(ICled16-DO)*%
X151853612Y-51604500D03*
%TO.P,ICled19,4-GND,GND*%
%TO.N,Vss_str1*%
X151853612Y-50114500D03*
%TD*%
%TO.P,ICled24,1-DOUT,DO*%
%TO.N,Net-(ICled24-DO)*%
X155853332Y-47605000D03*
%TO.P,ICled24,2-VDD,VDD*%
%TO.N,Vdd_str1*%
X155853332Y-49095000D03*
%TO.P,ICled24,3-DIN,DI*%
%TO.N,Net-(ICled21-DO)*%
X154363332Y-49095000D03*
%TO.P,ICled24,4-GND,GND*%
%TO.N,Vss_str1*%
X154363332Y-47605000D03*
%TD*%
%TO.P,ICled30,1-DOUT,DO*%
%TO.N,Net-(ICled30-DO)*%
X160872776Y-47605000D03*
%TO.P,ICled30,2-VDD,VDD*%
%TO.N,Vdd_str1*%
X160872776Y-49095000D03*
%TO.P,ICled30,3-DIN,DI*%
%TO.N,Net-(ICled27-DO)*%
X159382776Y-49095000D03*
%TO.P,ICled30,4-GND,GND*%
%TO.N,Vss_str1*%
X159382776Y-47605000D03*
%TD*%
%TO.P,ICled62,1-DOUT,DO*%
%TO.N,Net-(ICled62-DO)*%
X155853362Y-60154200D03*
%TO.P,ICled62,2-VDD,VDD*%
%TO.N,Vdd_str2*%
X155853362Y-61644200D03*
%TO.P,ICled62,3-DIN,DI*%
%TO.N,Net-(ICled59-DO)*%
X154363362Y-61644200D03*
%TO.P,ICled62,4-GND,GND*%
%TO.N,Vss_str2*%
X154363362Y-60154200D03*
%TD*%
%TO.P,ICled39,1-DOUT,DO*%
%TO.N,dout_led_pwm_1*%
X168402112Y-52624000D03*
%TO.P,ICled39,2-VDD,VDD*%
%TO.N,Vdd_str1*%
X168402112Y-54114000D03*
%TO.P,ICled39,3-DIN,DI*%
%TO.N,Net-(ICled35-DO)*%
X166912112Y-54114000D03*
%TO.P,ICled39,4-GND,GND*%
%TO.N,Vss_str1*%
X166912112Y-52624000D03*
%TD*%
%TO.P,ICled59,1-DOUT,DO*%
%TO.N,Net-(ICled59-DO)*%
X153343612Y-60154200D03*
%TO.P,ICled59,2-VDD,VDD*%
%TO.N,Vdd_str2*%
X153343612Y-61644200D03*
%TO.P,ICled59,3-DIN,DI*%
%TO.N,Net-(ICled56-DO)*%
X151853612Y-61644200D03*
%TO.P,ICled59,4-GND,GND*%
%TO.N,Vss_str2*%
X151853612Y-60154200D03*
%TD*%
%TO.P,ICled87,1-DOUT,DO*%
%TO.N,Net-(ICled87-DO)*%
X143304612Y-62665400D03*
%TO.P,ICled87,2-VDD,VDD*%
%TO.N,Vdd_str3*%
X143304612Y-64155400D03*
%TO.P,ICled87,3-DIN,DI*%
%TO.N,Net-(ICled84-DO)*%
X141814612Y-64155400D03*
%TO.P,ICled87,4-GND,GND*%
%TO.N,Vss_str3*%
X141814612Y-62665400D03*
%TD*%
D13*
%TO.P,C9,1*%
%TO.N,Vdd_str5*%
X135450000Y-77900000D03*
%TO.P,C9,2*%
%TO.N,Vss_str5*%
X135450000Y-76000000D03*
%TD*%
D10*
%TO.P,ICled35,1-DOUT,DO*%
%TO.N,Net-(ICled35-DO)*%
X165892362Y-52624000D03*
%TO.P,ICled35,2-VDD,VDD*%
%TO.N,Vdd_str1*%
X165892362Y-54114000D03*
%TO.P,ICled35,3-DIN,DI*%
%TO.N,Net-(ICled32-DO)*%
X164402362Y-54114000D03*
%TO.P,ICled35,4-GND,GND*%
%TO.N,Vss_str1*%
X164402362Y-52624000D03*
%TD*%
%TO.P,ICled128,1-DOUT,DO*%
%TO.N,Net-(ICled128-DO)*%
X145814362Y-75214600D03*
%TO.P,ICled128,2-VDD,VDD*%
%TO.N,Vdd_str4*%
X145814362Y-76704600D03*
%TO.P,ICled128,3-DIN,DI*%
%TO.N,Net-(ICled125-DO)*%
X144324362Y-76704600D03*
%TO.P,ICled128,4-GND,GND*%
%TO.N,Vss_str4*%
X144324362Y-75214600D03*
%TD*%
%TO.P,ICled91,1-DOUT,DO*%
%TO.N,Net-(ICled91-DO)*%
X148324112Y-65174900D03*
%TO.P,ICled91,2-VDD,VDD*%
%TO.N,Vdd_str3*%
X148324112Y-66664900D03*
%TO.P,ICled91,3-DIN,DI*%
%TO.N,Net-(ICled88-DO)*%
X146834112Y-66664900D03*
%TO.P,ICled91,4-GND,GND*%
%TO.N,Vss_str3*%
X146834112Y-65174900D03*
%TD*%
%TO.P,ICled78,1-DOUT,DO*%
%TO.N,dout_led_pwm_2*%
X168402112Y-60154200D03*
%TO.P,ICled78,2-VDD,VDD*%
%TO.N,Vdd_str2*%
X168402112Y-61644200D03*
%TO.P,ICled78,3-DIN,DI*%
%TO.N,Net-(ICled74-DO)*%
X166912112Y-61644200D03*
%TO.P,ICled78,4-GND,GND*%
%TO.N,Vss_str2*%
X166912112Y-60154200D03*
%TD*%
%TO.P,ICled51,1-DOUT,DO*%
%TO.N,Net-(ICled51-DO)*%
X145814235Y-55135200D03*
%TO.P,ICled51,2-VDD,VDD*%
%TO.N,Vdd_str2*%
X145814235Y-56625200D03*
%TO.P,ICled51,3-DIN,DI*%
%TO.N,Net-(ICled48-DO)*%
X144324235Y-56625200D03*
%TO.P,ICled51,4-GND,GND*%
%TO.N,Vss_str2*%
X144324235Y-55135200D03*
%TD*%
%TO.P,ICled226,1-DOUT,DO*%
%TO.N,Net-(ICled226-DO)*%
X163382612Y-87765500D03*
%TO.P,ICled226,2-VDD,VDD*%
%TO.N,Vdd_str6*%
X163382612Y-89255500D03*
%TO.P,ICled226,3-DIN,DI*%
%TO.N,Net-(ICled223-DO)*%
X161892612Y-89255500D03*
%TO.P,ICled226,4-GND,GND*%
%TO.N,Vss_str6*%
X161892612Y-87765500D03*
%TD*%
%TO.P,ICled2,1-DOUT,DO*%
%TO.N,Net-(ICled2-DO)*%
X138285112Y-52624000D03*
%TO.P,ICled2,2-VDD,VDD*%
%TO.N,Vdd_str1*%
X138285112Y-54114000D03*
%TO.P,ICled2,3-DIN,DI*%
%TO.N,Net-(ICled2-DI)*%
X136795112Y-54114000D03*
%TO.P,ICled2,4-GND,GND*%
%TO.N,Vss_str1*%
X136795112Y-52624000D03*
%TD*%
%TO.P,ICled220,1-DOUT,DO*%
%TO.N,Net-(ICled220-DO)*%
X158363112Y-87765500D03*
%TO.P,ICled220,2-VDD,VDD*%
%TO.N,Vdd_str6*%
X158363112Y-89255500D03*
%TO.P,ICled220,3-DIN,DI*%
%TO.N,Net-(ICled217-DO)*%
X156873112Y-89255500D03*
%TO.P,ICled220,4-GND,GND*%
%TO.N,Vss_str6*%
X156873112Y-87765500D03*
%TD*%
%TO.P,ICled116,1-DOUT,DO*%
%TO.N,Net-(ICled116-DO)*%
X168402112Y-65174900D03*
%TO.P,ICled116,2-VDD,VDD*%
%TO.N,Vdd_str3*%
X168402112Y-66664900D03*
%TO.P,ICled116,3-DIN,DI*%
%TO.N,Net-(ICled112-DO)*%
X166912112Y-66664900D03*
%TO.P,ICled116,4-GND,GND*%
%TO.N,Vss_str3*%
X166912112Y-65174900D03*
%TD*%
%TO.P,ICled37,1-DOUT,DO*%
%TO.N,Net-(ICled1-DI)*%
X168401946Y-47605000D03*
%TO.P,ICled37,2-VDD,VDD*%
%TO.N,Vdd_str1*%
X168401946Y-49095000D03*
%TO.P,ICled37,3-DIN,DI*%
%TO.N,Net-(ICled36-DO)*%
X166911946Y-49095000D03*
%TO.P,ICled37,4-GND,GND*%
%TO.N,Vss_str1*%
X166911946Y-47605000D03*
%TD*%
%TO.P,ICled145,1-DOUT,DO*%
%TO.N,Net-(ICled145-DO)*%
X160872862Y-72705100D03*
%TO.P,ICled145,2-VDD,VDD*%
%TO.N,Vdd_str4*%
X160872862Y-74195100D03*
%TO.P,ICled145,3-DIN,DI*%
%TO.N,Net-(ICled142-DO)*%
X159382862Y-74195100D03*
%TO.P,ICled145,4-GND,GND*%
%TO.N,Vss_str4*%
X159382862Y-72705100D03*
%TD*%
%TO.P,ICled112,1-DOUT,DO*%
%TO.N,Net-(ICled112-DO)*%
X165892362Y-65174900D03*
%TO.P,ICled112,2-VDD,VDD*%
%TO.N,Vdd_str3*%
X165892362Y-66664900D03*
%TO.P,ICled112,3-DIN,DI*%
%TO.N,Net-(ICled109-DO)*%
X164402362Y-66664900D03*
%TO.P,ICled112,4-GND,GND*%
%TO.N,Vss_str3*%
X164402362Y-65174900D03*
%TD*%
%TO.P,ICled223,1-DOUT,DO*%
%TO.N,Net-(ICled223-DO)*%
X160872862Y-87765500D03*
%TO.P,ICled223,2-VDD,VDD*%
%TO.N,Vdd_str6*%
X160872862Y-89255500D03*
%TO.P,ICled223,3-DIN,DI*%
%TO.N,Net-(ICled220-DO)*%
X159382862Y-89255500D03*
%TO.P,ICled223,4-GND,GND*%
%TO.N,Vss_str6*%
X159382862Y-87765500D03*
%TD*%
%TO.P,ICled137,1-DOUT,DO*%
%TO.N,Net-(ICled137-DO)*%
X153343612Y-75214600D03*
%TO.P,ICled137,2-VDD,VDD*%
%TO.N,Vdd_str4*%
X153343612Y-76704600D03*
%TO.P,ICled137,3-DIN,DI*%
%TO.N,Net-(ICled134-DO)*%
X151853612Y-76704600D03*
%TO.P,ICled137,4-GND,GND*%
%TO.N,Vss_str4*%
X151853612Y-75214600D03*
%TD*%
%TO.P,ICled94,1-DOUT,DO*%
%TO.N,Net-(ICled94-DO)*%
X150833862Y-65174900D03*
%TO.P,ICled94,2-VDD,VDD*%
%TO.N,Vdd_str3*%
X150833862Y-66664900D03*
%TO.P,ICled94,3-DIN,DI*%
%TO.N,Net-(ICled91-DO)*%
X149343862Y-66664900D03*
%TO.P,ICled94,4-GND,GND*%
%TO.N,Vss_str3*%
X149343862Y-65174900D03*
%TD*%
%TO.P,ICled119,1-DOUT,DO*%
%TO.N,Net-(ICled119-DO)*%
X138285112Y-75214600D03*
%TO.P,ICled119,2-VDD,VDD*%
%TO.N,Vdd_str4*%
X138285112Y-76704600D03*
%TO.P,ICled119,3-DIN,DI*%
%TO.N,Net-(ICled119-DI)*%
X136795112Y-76704600D03*
%TO.P,ICled119,4-GND,GND*%
%TO.N,Vss_str4*%
X136795112Y-75214600D03*
%TD*%
%TO.P,ICled151,1-DOUT,DO*%
%TO.N,Net-(ICled151-DO)*%
X165892362Y-72705100D03*
%TO.P,ICled151,2-VDD,VDD*%
%TO.N,Vdd_str4*%
X165892362Y-74195100D03*
%TO.P,ICled151,3-DIN,DI*%
%TO.N,Net-(ICled148-DO)*%
X164402362Y-74195100D03*
%TO.P,ICled151,4-GND,GND*%
%TO.N,Vss_str4*%
X164402362Y-72705100D03*
%TD*%
%TO.P,ICled188,1-DOUT,DO*%
%TO.N,Net-(ICled188-DO)*%
X163382612Y-82744800D03*
%TO.P,ICled188,2-VDD,VDD*%
%TO.N,Vdd_str5*%
X163382612Y-84234800D03*
%TO.P,ICled188,3-DIN,DI*%
%TO.N,Net-(ICled185-DO)*%
X161892612Y-84234800D03*
%TO.P,ICled188,4-GND,GND*%
%TO.N,Vss_str5*%
X161892612Y-82744800D03*
%TD*%
%TO.P,ICled4,1-DOUT,DO*%
%TO.N,Net-(ICled4-DO)*%
X140794897Y-50114500D03*
%TO.P,ICled4,2-VDD,VDD*%
%TO.N,Vdd_str1*%
X140794897Y-51604500D03*
%TO.P,ICled4,3-DIN,DI*%
%TO.N,Net-(ICled1-DO)*%
X139304897Y-51604500D03*
%TO.P,ICled4,4-GND,GND*%
%TO.N,Vss_str1*%
X139304897Y-50114500D03*
%TD*%
%TO.P,ICled115,1-DOUT,DO*%
%TO.N,Net-(ICled115-DO)*%
X168402112Y-62665400D03*
%TO.P,ICled115,2-VDD,VDD*%
%TO.N,Vdd_str3*%
X168402112Y-64155400D03*
%TO.P,ICled115,3-DIN,DI*%
%TO.N,Net-(ICled114-DO)*%
X166912112Y-64155400D03*
%TO.P,ICled115,4-GND,GND*%
%TO.N,Vss_str3*%
X166912112Y-62665400D03*
%TD*%
%TO.P,ICled133,1-DOUT,DO*%
%TO.N,Net-(ICled133-DO)*%
X150833862Y-72705100D03*
%TO.P,ICled133,2-VDD,VDD*%
%TO.N,Vdd_str4*%
X150833862Y-74195100D03*
%TO.P,ICled133,3-DIN,DI*%
%TO.N,Net-(ICled130-DO)*%
X149343862Y-74195100D03*
%TO.P,ICled133,4-GND,GND*%
%TO.N,Vss_str4*%
X149343862Y-72705100D03*
%TD*%
%TO.P,ICled160,1-DOUT,DO*%
%TO.N,Net-(ICled160-DO)*%
X140794862Y-80235300D03*
%TO.P,ICled160,2-VDD,VDD*%
%TO.N,Vdd_str5*%
X140794862Y-81725300D03*
%TO.P,ICled160,3-DIN,DI*%
%TO.N,Net-(ICled157-DO)*%
X139304862Y-81725300D03*
%TO.P,ICled160,4-GND,GND*%
%TO.N,Vss_str5*%
X139304862Y-80235300D03*
%TD*%
%TO.P,ICled139,1-DOUT,DO*%
%TO.N,Net-(ICled139-DO)*%
X155853362Y-72705100D03*
%TO.P,ICled139,2-VDD,VDD*%
%TO.N,Vdd_str4*%
X155853362Y-74195100D03*
%TO.P,ICled139,3-DIN,DI*%
%TO.N,Net-(ICled136-DO)*%
X154363362Y-74195100D03*
%TO.P,ICled139,4-GND,GND*%
%TO.N,Vss_str4*%
X154363362Y-72705100D03*
%TD*%
%TO.P,ICled209,1-DOUT,DO*%
%TO.N,Net-(ICled209-DO)*%
X148324112Y-90275000D03*
%TO.P,ICled209,2-VDD,VDD*%
%TO.N,Vdd_str6*%
X148324112Y-91765000D03*
%TO.P,ICled209,3-DIN,DI*%
%TO.N,Net-(ICled206-DO)*%
X146834112Y-91765000D03*
%TO.P,ICled209,4-GND,GND*%
%TO.N,Vss_str6*%
X146834112Y-90275000D03*
%TD*%
%TO.P,ICled189,1-DOUT,DO*%
%TO.N,Net-(ICled189-DO)*%
X163382612Y-77725800D03*
%TO.P,ICled189,2-VDD,VDD*%
%TO.N,Vdd_str5*%
X163382612Y-79215800D03*
%TO.P,ICled189,3-DIN,DI*%
%TO.N,Net-(ICled186-DO)*%
X161892612Y-79215800D03*
%TO.P,ICled189,4-GND,GND*%
%TO.N,Vss_str5*%
X161892612Y-77725800D03*
%TD*%
%TO.P,ICled105,1-DOUT,DO*%
%TO.N,Net-(ICled105-DO)*%
X158363112Y-62665400D03*
%TO.P,ICled105,2-VDD,VDD*%
%TO.N,Vdd_str3*%
X158363112Y-64155400D03*
%TO.P,ICled105,3-DIN,DI*%
%TO.N,Net-(ICled102-DO)*%
X156873112Y-64155400D03*
%TO.P,ICled105,4-GND,GND*%
%TO.N,Vss_str3*%
X156873112Y-62665400D03*
%TD*%
%TO.P,ICled33,1-DOUT,DO*%
%TO.N,Net-(ICled33-DO)*%
X163382498Y-47605000D03*
%TO.P,ICled33,2-VDD,VDD*%
%TO.N,Vdd_str1*%
X163382498Y-49095000D03*
%TO.P,ICled33,3-DIN,DI*%
%TO.N,Net-(ICled30-DO)*%
X161892498Y-49095000D03*
%TO.P,ICled33,4-GND,GND*%
%TO.N,Vss_str1*%
X161892498Y-47605000D03*
%TD*%
%TO.P,ICled80,1-DOUT,DO*%
%TO.N,Net-(ICled80-DO)*%
X138285112Y-67684400D03*
%TO.P,ICled80,2-VDD,VDD*%
%TO.N,Vdd_str3*%
X138285112Y-69174400D03*
%TO.P,ICled80,3-DIN,DI*%
%TO.N,Net-(ICled116-DO)*%
X136795112Y-69174400D03*
%TO.P,ICled80,4-GND,GND*%
%TO.N,Vss_str3*%
X136795112Y-67684400D03*
%TD*%
%TO.P,ICled154,1-DOUT,DO*%
%TO.N,Net-(ICled118-DI)*%
X168402112Y-70195600D03*
%TO.P,ICled154,2-VDD,VDD*%
%TO.N,Vdd_str4*%
X168402112Y-71685600D03*
%TO.P,ICled154,3-DIN,DI*%
%TO.N,Net-(ICled153-DO)*%
X166912112Y-71685600D03*
%TO.P,ICled154,4-GND,GND*%
%TO.N,Vss_str4*%
X166912112Y-70195600D03*
%TD*%
%TO.P,ICled34,1-DOUT,DO*%
%TO.N,Net-(ICled34-DO)*%
X165892327Y-50114500D03*
%TO.P,ICled34,2-VDD,VDD*%
%TO.N,Vdd_str1*%
X165892327Y-51604500D03*
%TO.P,ICled34,3-DIN,DI*%
%TO.N,Net-(ICled31-DO)*%
X164402327Y-51604500D03*
%TO.P,ICled34,4-GND,GND*%
%TO.N,Vss_str1*%
X164402327Y-50114500D03*
%TD*%
%TO.P,ICled143,1-DOUT,DO*%
%TO.N,Net-(ICled143-DO)*%
X158363112Y-75214600D03*
%TO.P,ICled143,2-VDD,VDD*%
%TO.N,Vdd_str4*%
X158363112Y-76704600D03*
%TO.P,ICled143,3-DIN,DI*%
%TO.N,Net-(ICled140-DO)*%
X156873112Y-76704600D03*
%TO.P,ICled143,4-GND,GND*%
%TO.N,Vss_str4*%
X156873112Y-75214600D03*
%TD*%
%TO.P,ICled168,1-DOUT,DO*%
%TO.N,Net-(ICled168-DO)*%
X145814362Y-77725800D03*
%TO.P,ICled168,2-VDD,VDD*%
%TO.N,Vdd_str5*%
X145814362Y-79215800D03*
%TO.P,ICled168,3-DIN,DI*%
%TO.N,Net-(ICled165-DO)*%
X144324362Y-79215800D03*
%TO.P,ICled168,4-GND,GND*%
%TO.N,Vss_str5*%
X144324362Y-77725800D03*
%TD*%
D14*
%TO.P,C2,1*%
%TO.N,Vdd_str1*%
X166570000Y-46200000D03*
%TO.P,C2,2*%
%TO.N,Vss_str1*%
X164670000Y-46200000D03*
%TD*%
D10*
%TO.P,ICled5,1-DOUT,DO*%
%TO.N,Net-(ICled5-DO)*%
X140794862Y-52624000D03*
%TO.P,ICled5,2-VDD,VDD*%
%TO.N,Vdd_str1*%
X140794862Y-54114000D03*
%TO.P,ICled5,3-DIN,DI*%
%TO.N,Net-(ICled2-DO)*%
X139304862Y-54114000D03*
%TO.P,ICled5,4-GND,GND*%
%TO.N,Vss_str1*%
X139304862Y-52624000D03*
%TD*%
%TO.P,ICled205,1-DOUT,DO*%
%TO.N,Net-(ICled205-DO)*%
X145814362Y-87765500D03*
%TO.P,ICled205,2-VDD,VDD*%
%TO.N,Vdd_str6*%
X145814362Y-89255500D03*
%TO.P,ICled205,3-DIN,DI*%
%TO.N,Net-(ICled202-DO)*%
X144324362Y-89255500D03*
%TO.P,ICled205,4-GND,GND*%
%TO.N,Vss_str6*%
X144324362Y-87765500D03*
%TD*%
%TO.P,ICled29,1-DOUT,DO*%
%TO.N,Net-(ICled29-DO)*%
X160872862Y-52624000D03*
%TO.P,ICled29,2-VDD,VDD*%
%TO.N,Vdd_str1*%
X160872862Y-54114000D03*
%TO.P,ICled29,3-DIN,DI*%
%TO.N,Net-(ICled26-DO)*%
X159382862Y-54114000D03*
%TO.P,ICled29,4-GND,GND*%
%TO.N,Vss_str1*%
X159382862Y-52624000D03*
%TD*%
%TO.P,ICled100,1-DOUT,DO*%
%TO.N,Net-(ICled100-DO)*%
X155853362Y-65174900D03*
%TO.P,ICled100,2-VDD,VDD*%
%TO.N,Vdd_str3*%
X155853362Y-66664900D03*
%TO.P,ICled100,3-DIN,DI*%
%TO.N,Net-(ICled100-DI)*%
X154363362Y-66664900D03*
%TO.P,ICled100,4-GND,GND*%
%TO.N,Vss_str3*%
X154363362Y-65174900D03*
%TD*%
%TO.P,ICled222,1-DOUT,DO*%
%TO.N,Net-(ICled222-DO)*%
X158363112Y-85256000D03*
%TO.P,ICled222,2-VDD,VDD*%
%TO.N,Vdd_str6*%
X158363112Y-86746000D03*
%TO.P,ICled222,3-DIN,DI*%
%TO.N,Net-(ICled219-DO)*%
X156873112Y-86746000D03*
%TO.P,ICled222,4-GND,GND*%
%TO.N,Vss_str6*%
X156873112Y-85256000D03*
%TD*%
%TO.P,ICled163,1-DOUT,DO*%
%TO.N,Net-(ICled163-DO)*%
X143304612Y-80235300D03*
%TO.P,ICled163,2-VDD,VDD*%
%TO.N,Vdd_str5*%
X143304612Y-81725300D03*
%TO.P,ICled163,3-DIN,DI*%
%TO.N,Net-(ICled160-DO)*%
X141814612Y-81725300D03*
%TO.P,ICled163,4-GND,GND*%
%TO.N,Vss_str5*%
X141814612Y-80235300D03*
%TD*%
%TO.P,ICled229,1-DOUT,DO*%
%TO.N,Net-(ICled229-DO)*%
X165892362Y-87765500D03*
%TO.P,ICled229,2-VDD,VDD*%
%TO.N,Vdd_str6*%
X165892362Y-89255500D03*
%TO.P,ICled229,3-DIN,DI*%
%TO.N,Net-(ICled226-DO)*%
X164402362Y-89255500D03*
%TO.P,ICled229,4-GND,GND*%
%TO.N,Vss_str6*%
X164402362Y-87765500D03*
%TD*%
%TO.P,ICled81,1-DOUT,DO*%
%TO.N,Net-(ICled81-DO)*%
X138285112Y-62665400D03*
%TO.P,ICled81,2-VDD,VDD*%
%TO.N,Vdd_str3*%
X138285112Y-64155400D03*
%TO.P,ICled81,3-DIN,DI*%
%TO.N,din_led_pwm_3*%
X136795112Y-64155400D03*
%TO.P,ICled81,4-GND,GND*%
%TO.N,Vss_str3*%
X136795112Y-62665400D03*
%TD*%
%TO.P,ICled165,1-DOUT,DO*%
%TO.N,Net-(ICled165-DO)*%
X143304612Y-77725800D03*
%TO.P,ICled165,2-VDD,VDD*%
%TO.N,Vdd_str5*%
X143304612Y-79215800D03*
%TO.P,ICled165,3-DIN,DI*%
%TO.N,Net-(ICled162-DO)*%
X141814612Y-79215800D03*
%TO.P,ICled165,4-GND,GND*%
%TO.N,Vss_str5*%
X141814612Y-77725800D03*
%TD*%
%TO.P,ICled130,1-DOUT,DO*%
%TO.N,Net-(ICled130-DO)*%
X148324112Y-72705100D03*
%TO.P,ICled130,2-VDD,VDD*%
%TO.N,Vdd_str4*%
X148324112Y-74195100D03*
%TO.P,ICled130,3-DIN,DI*%
%TO.N,Net-(ICled127-DO)*%
X146834112Y-74195100D03*
%TO.P,ICled130,4-GND,GND*%
%TO.N,Vss_str4*%
X146834112Y-72705100D03*
%TD*%
%TO.P,ICled53,1-DOUT,DO*%
%TO.N,Net-(ICled53-DO)*%
X148324112Y-60154200D03*
%TO.P,ICled53,2-VDD,VDD*%
%TO.N,Vdd_str2*%
X148324112Y-61644200D03*
%TO.P,ICled53,3-DIN,DI*%
%TO.N,Net-(ICled50-DO)*%
X146834112Y-61644200D03*
%TO.P,ICled53,4-GND,GND*%
%TO.N,Vss_str2*%
X146834112Y-60154200D03*
%TD*%
%TO.P,ICled121,1-DOUT,DO*%
%TO.N,Net-(ICled121-DO)*%
X140794862Y-72705100D03*
%TO.P,ICled121,2-VDD,VDD*%
%TO.N,Vdd_str4*%
X140794862Y-74195100D03*
%TO.P,ICled121,3-DIN,DI*%
%TO.N,Net-(ICled118-DO)*%
X139304862Y-74195100D03*
%TO.P,ICled121,4-GND,GND*%
%TO.N,Vss_str4*%
X139304862Y-72705100D03*
%TD*%
%TO.P,ICled38,1-DOUT,DO*%
%TO.N,Net-(ICled2-DI)*%
X168402071Y-50114500D03*
%TO.P,ICled38,2-VDD,VDD*%
%TO.N,Vdd_str1*%
X168402071Y-51604500D03*
%TO.P,ICled38,3-DIN,DI*%
%TO.N,Net-(ICled34-DO)*%
X166912071Y-51604500D03*
%TO.P,ICled38,4-GND,GND*%
%TO.N,Vss_str1*%
X166912071Y-50114500D03*
%TD*%
%TO.P,ICled144,1-DOUT,DO*%
%TO.N,Net-(ICled144-DO)*%
X158363112Y-70195600D03*
%TO.P,ICled144,2-VDD,VDD*%
%TO.N,Vdd_str4*%
X158363112Y-71685600D03*
%TO.P,ICled144,3-DIN,DI*%
%TO.N,Net-(ICled141-DO)*%
X156873112Y-71685600D03*
%TO.P,ICled144,4-GND,GND*%
%TO.N,Vss_str4*%
X156873112Y-70195600D03*
%TD*%
%TO.P,ICled41,1-DOUT,DO*%
%TO.N,Net-(ICled41-DO)*%
X138285112Y-60154200D03*
%TO.P,ICled41,2-VDD,VDD*%
%TO.N,Vdd_str2*%
X138285112Y-61644200D03*
%TO.P,ICled41,3-DIN,DI*%
%TO.N,Net-(ICled41-DI)*%
X136795112Y-61644200D03*
%TO.P,ICled41,4-GND,GND*%
%TO.N,Vss_str2*%
X136795112Y-60154200D03*
%TD*%
%TO.P,ICled57,1-DOUT,DO*%
%TO.N,Net-(ICled57-DO)*%
X150833817Y-55135200D03*
%TO.P,ICled57,2-VDD,VDD*%
%TO.N,Vdd_str2*%
X150833817Y-56625200D03*
%TO.P,ICled57,3-DIN,DI*%
%TO.N,Net-(ICled54-DO)*%
X149343817Y-56625200D03*
%TO.P,ICled57,4-GND,GND*%
%TO.N,Vss_str2*%
X149343817Y-55135200D03*
%TD*%
%TO.P,ICled216,1-DOUT,DO*%
%TO.N,Net-(ICled216-DO)*%
X153343612Y-85256000D03*
%TO.P,ICled216,2-VDD,VDD*%
%TO.N,Vdd_str6*%
X153343612Y-86746000D03*
%TO.P,ICled216,3-DIN,DI*%
%TO.N,Net-(ICled213-DO)*%
X151853612Y-86746000D03*
%TO.P,ICled216,4-GND,GND*%
%TO.N,Vss_str6*%
X151853612Y-85256000D03*
%TD*%
%TO.P,ICled96,1-DOUT,DO*%
%TO.N,Net-(ICled96-DO)*%
X150833862Y-62665400D03*
%TO.P,ICled96,2-VDD,VDD*%
%TO.N,Vdd_str3*%
X150833862Y-64155400D03*
%TO.P,ICled96,3-DIN,DI*%
%TO.N,Net-(ICled93-DO)*%
X149343862Y-64155400D03*
%TO.P,ICled96,4-GND,GND*%
%TO.N,Vss_str3*%
X149343862Y-62665400D03*
%TD*%
%TO.P,ICled77,1-DOUT,DO*%
%TO.N,Net-(ICled41-DI)*%
X168402071Y-57644700D03*
%TO.P,ICled77,2-VDD,VDD*%
%TO.N,Vdd_str2*%
X168402071Y-59134700D03*
%TO.P,ICled77,3-DIN,DI*%
%TO.N,Net-(ICled73-DO)*%
X166912071Y-59134700D03*
%TO.P,ICled77,4-GND,GND*%
%TO.N,Vss_str2*%
X166912071Y-57644700D03*
%TD*%
%TO.P,ICled141,1-DOUT,DO*%
%TO.N,Net-(ICled141-DO)*%
X155853362Y-70195600D03*
%TO.P,ICled141,2-VDD,VDD*%
%TO.N,Vdd_str4*%
X155853362Y-71685600D03*
%TO.P,ICled141,3-DIN,DI*%
%TO.N,Net-(ICled138-DO)*%
X154363362Y-71685600D03*
%TO.P,ICled141,4-GND,GND*%
%TO.N,Vss_str4*%
X154363362Y-70195600D03*
%TD*%
%TO.P,ICled103,1-DOUT,DO*%
%TO.N,Net-(ICled103-DO)*%
X158363112Y-65174900D03*
%TO.P,ICled103,2-VDD,VDD*%
%TO.N,Vdd_str3*%
X158363112Y-66664900D03*
%TO.P,ICled103,3-DIN,DI*%
%TO.N,Net-(ICled100-DO)*%
X156873112Y-66664900D03*
%TO.P,ICled103,4-GND,GND*%
%TO.N,Vss_str3*%
X156873112Y-65174900D03*
%TD*%
%TO.P,ICled181,1-DOUT,DO*%
%TO.N,Net-(ICled181-DO)*%
X158363112Y-80235300D03*
%TO.P,ICled181,2-VDD,VDD*%
%TO.N,Vdd_str5*%
X158363112Y-81725300D03*
%TO.P,ICled181,3-DIN,DI*%
%TO.N,Net-(ICled178-DO)*%
X156873112Y-81725300D03*
%TO.P,ICled181,4-GND,GND*%
%TO.N,Vss_str5*%
X156873112Y-80235300D03*
%TD*%
%TO.P,ICled85,1-DOUT,DO*%
%TO.N,Net-(ICled85-DO)*%
X143304612Y-65174900D03*
%TO.P,ICled85,2-VDD,VDD*%
%TO.N,Vdd_str3*%
X143304612Y-66664900D03*
%TO.P,ICled85,3-DIN,DI*%
%TO.N,Net-(ICled82-DO)*%
X141814612Y-66664900D03*
%TO.P,ICled85,4-GND,GND*%
%TO.N,Vss_str3*%
X141814612Y-65174900D03*
%TD*%
%TO.P,ICled93,1-DOUT,DO*%
%TO.N,Net-(ICled93-DO)*%
X148324112Y-62665400D03*
%TO.P,ICled93,2-VDD,VDD*%
%TO.N,Vdd_str3*%
X148324112Y-64155400D03*
%TO.P,ICled93,3-DIN,DI*%
%TO.N,Net-(ICled90-DO)*%
X146834112Y-64155400D03*
%TO.P,ICled93,4-GND,GND*%
%TO.N,Vss_str3*%
X146834112Y-62665400D03*
%TD*%
%TO.P,ICled187,1-DOUT,DO*%
%TO.N,Net-(ICled187-DO)*%
X163382612Y-80235300D03*
%TO.P,ICled187,2-VDD,VDD*%
%TO.N,Vdd_str5*%
X163382612Y-81725300D03*
%TO.P,ICled187,3-DIN,DI*%
%TO.N,Net-(ICled184-DO)*%
X161892612Y-81725300D03*
%TO.P,ICled187,4-GND,GND*%
%TO.N,Vss_str5*%
X161892612Y-80235300D03*
%TD*%
D12*
%TO.P,J5,1,Pin_1*%
%TO.N,Vdd_str5*%
X169850000Y-91190000D03*
%TO.P,J5,2,Pin_2*%
%TO.N,Vss_str5*%
X169850000Y-88650000D03*
%TO.P,J5,3,Pin_3*%
%TO.N,din_led_pwm_5*%
X169850000Y-86110000D03*
%TO.P,J5,4,Pin_4*%
%TO.N,dout_led_pwm_5*%
X169850000Y-83570000D03*
%TD*%
D10*
%TO.P,ICled174,1-DOUT,DO*%
%TO.N,Net-(ICled174-DO)*%
X150833862Y-77725800D03*
%TO.P,ICled174,2-VDD,VDD*%
%TO.N,Vdd_str5*%
X150833862Y-79215800D03*
%TO.P,ICled174,3-DIN,DI*%
%TO.N,Net-(ICled171-DO)*%
X149343862Y-79215800D03*
%TO.P,ICled174,4-GND,GND*%
%TO.N,Vss_str5*%
X149343862Y-77725800D03*
%TD*%
%TO.P,ICled92,1-DOUT,DO*%
%TO.N,Net-(ICled92-DO)*%
X148324112Y-67684400D03*
%TO.P,ICled92,2-VDD,VDD*%
%TO.N,Vdd_str3*%
X148324112Y-69174400D03*
%TO.P,ICled92,3-DIN,DI*%
%TO.N,Net-(ICled89-DO)*%
X146834112Y-69174400D03*
%TO.P,ICled92,4-GND,GND*%
%TO.N,Vss_str3*%
X146834112Y-67684400D03*
%TD*%
%TO.P,ICled76,1-DOUT,DO*%
%TO.N,Net-(ICled40-DI)*%
X168402362Y-55135200D03*
%TO.P,ICled76,2-VDD,VDD*%
%TO.N,Vdd_str2*%
X168402362Y-56625200D03*
%TO.P,ICled76,3-DIN,DI*%
%TO.N,Net-(ICled75-DO)*%
X166912362Y-56625200D03*
%TO.P,ICled76,4-GND,GND*%
%TO.N,Vss_str2*%
X166912362Y-55135200D03*
%TD*%
%TO.P,ICled28,1-DOUT,DO*%
%TO.N,Net-(ICled28-DO)*%
X160872841Y-50114500D03*
%TO.P,ICled28,2-VDD,VDD*%
%TO.N,Vdd_str1*%
X160872841Y-51604500D03*
%TO.P,ICled28,3-DIN,DI*%
%TO.N,Net-(ICled25-DO)*%
X159382841Y-51604500D03*
%TO.P,ICled28,4-GND,GND*%
%TO.N,Vss_str1*%
X159382841Y-50114500D03*
%TD*%
%TO.P,ICled20,1-DOUT,DO*%
%TO.N,Net-(ICled20-DO)*%
X153343612Y-52624000D03*
%TO.P,ICled20,2-VDD,VDD*%
%TO.N,Vdd_str1*%
X153343612Y-54114000D03*
%TO.P,ICled20,3-DIN,DI*%
%TO.N,Net-(ICled17-DO)*%
X151853612Y-54114000D03*
%TO.P,ICled20,4-GND,GND*%
%TO.N,Vss_str1*%
X151853612Y-52624000D03*
%TD*%
%TO.P,ICled171,1-DOUT,DO*%
%TO.N,Net-(ICled171-DO)*%
X148324112Y-77725800D03*
%TO.P,ICled171,2-VDD,VDD*%
%TO.N,Vdd_str5*%
X148324112Y-79215800D03*
%TO.P,ICled171,3-DIN,DI*%
%TO.N,Net-(ICled168-DO)*%
X146834112Y-79215800D03*
%TO.P,ICled171,4-GND,GND*%
%TO.N,Vss_str5*%
X146834112Y-77725800D03*
%TD*%
%TO.P,ICled120,1-DOUT,DO*%
%TO.N,Net-(ICled120-DO)*%
X138285112Y-70195600D03*
%TO.P,ICled120,2-VDD,VDD*%
%TO.N,Vdd_str4*%
X138285112Y-71685600D03*
%TO.P,ICled120,3-DIN,DI*%
%TO.N,din_led_pwm_4*%
X136795112Y-71685600D03*
%TO.P,ICled120,4-GND,GND*%
%TO.N,Vss_str4*%
X136795112Y-70195600D03*
%TD*%
%TO.P,ICled82,1-DOUT,DO*%
%TO.N,Net-(ICled82-DO)*%
X140794862Y-65174900D03*
%TO.P,ICled82,2-VDD,VDD*%
%TO.N,Vdd_str3*%
X140794862Y-66664900D03*
%TO.P,ICled82,3-DIN,DI*%
%TO.N,Net-(ICled79-DO)*%
X139304862Y-66664900D03*
%TO.P,ICled82,4-GND,GND*%
%TO.N,Vss_str3*%
X139304862Y-65174900D03*
%TD*%
%TO.P,ICled185,1-DOUT,DO*%
%TO.N,Net-(ICled185-DO)*%
X160872862Y-82744800D03*
%TO.P,ICled185,2-VDD,VDD*%
%TO.N,Vdd_str5*%
X160872862Y-84234800D03*
%TO.P,ICled185,3-DIN,DI*%
%TO.N,Net-(ICled182-DO)*%
X159382862Y-84234800D03*
%TO.P,ICled185,4-GND,GND*%
%TO.N,Vss_str5*%
X159382862Y-82744800D03*
%TD*%
%TO.P,ICled11,1-DOUT,DO*%
%TO.N,Net-(ICled11-DO)*%
X145814362Y-52624000D03*
%TO.P,ICled11,2-VDD,VDD*%
%TO.N,Vdd_str1*%
X145814362Y-54114000D03*
%TO.P,ICled11,3-DIN,DI*%
%TO.N,Net-(ICled11-DI)*%
X144324362Y-54114000D03*
%TO.P,ICled11,4-GND,GND*%
%TO.N,Vss_str1*%
X144324362Y-52624000D03*
%TD*%
%TO.P,ICled155,1-DOUT,DO*%
%TO.N,Net-(ICled119-DI)*%
X168402112Y-72705100D03*
%TO.P,ICled155,2-VDD,VDD*%
%TO.N,Vdd_str4*%
X168402112Y-74195100D03*
%TO.P,ICled155,3-DIN,DI*%
%TO.N,Net-(ICled151-DO)*%
X166912112Y-74195100D03*
%TO.P,ICled155,4-GND,GND*%
%TO.N,Vss_str4*%
X166912112Y-72705100D03*
%TD*%
%TO.P,ICled180,1-DOUT,DO*%
%TO.N,Net-(ICled180-DO)*%
X155853362Y-77725800D03*
%TO.P,ICled180,2-VDD,VDD*%
%TO.N,Vdd_str5*%
X155853362Y-79215800D03*
%TO.P,ICled180,3-DIN,DI*%
%TO.N,Net-(ICled177-DO)*%
X154363362Y-79215800D03*
%TO.P,ICled180,4-GND,GND*%
%TO.N,Vss_str5*%
X154363362Y-77725800D03*
%TD*%
%TO.P,ICled83,1-DOUT,DO*%
%TO.N,Net-(ICled83-DO)*%
X140794862Y-67684400D03*
%TO.P,ICled83,2-VDD,VDD*%
%TO.N,Vdd_str3*%
X140794862Y-69174400D03*
%TO.P,ICled83,3-DIN,DI*%
%TO.N,Net-(ICled80-DO)*%
X139304862Y-69174400D03*
%TO.P,ICled83,4-GND,GND*%
%TO.N,Vss_str3*%
X139304862Y-67684400D03*
%TD*%
%TO.P,ICled55,1-DOUT,DO*%
%TO.N,Net-(ICled55-DO)*%
X150833869Y-57644700D03*
%TO.P,ICled55,2-VDD,VDD*%
%TO.N,Vdd_str2*%
X150833869Y-59134700D03*
%TO.P,ICled55,3-DIN,DI*%
%TO.N,Net-(ICled52-DO)*%
X149343869Y-59134700D03*
%TO.P,ICled55,4-GND,GND*%
%TO.N,Vss_str2*%
X149343869Y-57644700D03*
%TD*%
D13*
%TO.P,C8,1*%
%TO.N,Vdd_str4*%
X135450000Y-74500000D03*
%TO.P,C8,2*%
%TO.N,Vss_str4*%
X135450000Y-72600000D03*
%TD*%
D10*
%TO.P,ICled44,1-DOUT,DO*%
%TO.N,Net-(ICled44-DO)*%
X140794862Y-60154200D03*
%TO.P,ICled44,2-VDD,VDD*%
%TO.N,Vdd_str2*%
X140794862Y-61644200D03*
%TO.P,ICled44,3-DIN,DI*%
%TO.N,Net-(ICled41-DO)*%
X139304862Y-61644200D03*
%TO.P,ICled44,4-GND,GND*%
%TO.N,Vss_str2*%
X139304862Y-60154200D03*
%TD*%
%TO.P,ICled198,1-DOUT,DO*%
%TO.N,Net-(ICled198-DO)*%
X138285112Y-85256000D03*
%TO.P,ICled198,2-VDD,VDD*%
%TO.N,Vdd_str6*%
X138285112Y-86746000D03*
%TO.P,ICled198,3-DIN,DI*%
%TO.N,din_led_pwm_6*%
X136795112Y-86746000D03*
%TO.P,ICled198,4-GND,GND*%
%TO.N,Vss_str6*%
X136795112Y-85256000D03*
%TD*%
%TO.P,ICled102,1-DOUT,DO*%
%TO.N,Net-(ICled102-DO)*%
X155853362Y-62665400D03*
%TO.P,ICled102,2-VDD,VDD*%
%TO.N,Vdd_str3*%
X155853362Y-64155400D03*
%TO.P,ICled102,3-DIN,DI*%
%TO.N,Net-(ICled102-DI)*%
X154363362Y-64155400D03*
%TO.P,ICled102,4-GND,GND*%
%TO.N,Vss_str3*%
X154363362Y-62665400D03*
%TD*%
%TO.P,ICled64,1-DOUT,DO*%
%TO.N,Net-(ICled64-DO)*%
X158363098Y-57644700D03*
%TO.P,ICled64,2-VDD,VDD*%
%TO.N,Vdd_str2*%
X158363098Y-59134700D03*
%TO.P,ICled64,3-DIN,DI*%
%TO.N,Net-(ICled61-DO)*%
X156873098Y-59134700D03*
%TO.P,ICled64,4-GND,GND*%
%TO.N,Vss_str2*%
X156873098Y-57644700D03*
%TD*%
%TO.P,ICled207,1-DOUT,DO*%
%TO.N,Net-(ICled207-DO)*%
X145814362Y-85256000D03*
%TO.P,ICled207,2-VDD,VDD*%
%TO.N,Vdd_str6*%
X145814362Y-86746000D03*
%TO.P,ICled207,3-DIN,DI*%
%TO.N,Net-(ICled204-DO)*%
X144324362Y-86746000D03*
%TO.P,ICled207,4-GND,GND*%
%TO.N,Vss_str6*%
X144324362Y-85256000D03*
%TD*%
%TO.P,ICled7,1-DOUT,DO*%
%TO.N,Net-(ICled10-DI)*%
X143304640Y-50114500D03*
%TO.P,ICled7,2-VDD,VDD*%
%TO.N,Vdd_str1*%
X143304640Y-51604500D03*
%TO.P,ICled7,3-DIN,DI*%
%TO.N,Net-(ICled4-DO)*%
X141814640Y-51604500D03*
%TO.P,ICled7,4-GND,GND*%
%TO.N,Vss_str1*%
X141814640Y-50114500D03*
%TD*%
%TO.P,ICled231,1-DOUT,DO*%
%TO.N,Net-(ICled231-DO)*%
X165892362Y-85256000D03*
%TO.P,ICled231,2-VDD,VDD*%
%TO.N,Vdd_str6*%
X165892362Y-86746000D03*
%TO.P,ICled231,3-DIN,DI*%
%TO.N,Net-(ICled228-DO)*%
X164402362Y-86746000D03*
%TO.P,ICled231,4-GND,GND*%
%TO.N,Vss_str6*%
X164402362Y-85256000D03*
%TD*%
%TO.P,ICled182,1-DOUT,DO*%
%TO.N,Net-(ICled182-DO)*%
X158363112Y-82744800D03*
%TO.P,ICled182,2-VDD,VDD*%
%TO.N,Vdd_str5*%
X158363112Y-84234800D03*
%TO.P,ICled182,3-DIN,DI*%
%TO.N,Net-(ICled179-DO)*%
X156873112Y-84234800D03*
%TO.P,ICled182,4-GND,GND*%
%TO.N,Vss_str5*%
X156873112Y-82744800D03*
%TD*%
%TO.P,ICled153,1-DOUT,DO*%
%TO.N,Net-(ICled153-DO)*%
X165892362Y-70195600D03*
%TO.P,ICled153,2-VDD,VDD*%
%TO.N,Vdd_str4*%
X165892362Y-71685600D03*
%TO.P,ICled153,3-DIN,DI*%
%TO.N,Net-(ICled150-DO)*%
X164402362Y-71685600D03*
%TO.P,ICled153,4-GND,GND*%
%TO.N,Vss_str4*%
X164402362Y-70195600D03*
%TD*%
%TO.P,ICled74,1-DOUT,DO*%
%TO.N,Net-(ICled74-DO)*%
X165892362Y-60154200D03*
%TO.P,ICled74,2-VDD,VDD*%
%TO.N,Vdd_str2*%
X165892362Y-61644200D03*
%TO.P,ICled74,3-DIN,DI*%
%TO.N,Net-(ICled71-DO)*%
X164402362Y-61644200D03*
%TO.P,ICled74,4-GND,GND*%
%TO.N,Vss_str2*%
X164402362Y-60154200D03*
%TD*%
%TO.P,ICled190,1-DOUT,DO*%
%TO.N,Net-(ICled190-DO)*%
X165892362Y-80235300D03*
%TO.P,ICled190,2-VDD,VDD*%
%TO.N,Vdd_str5*%
X165892362Y-81725300D03*
%TO.P,ICled190,3-DIN,DI*%
%TO.N,Net-(ICled187-DO)*%
X164402362Y-81725300D03*
%TO.P,ICled190,4-GND,GND*%
%TO.N,Vss_str5*%
X164402362Y-80235300D03*
%TD*%
%TO.P,ICled179,1-DOUT,DO*%
%TO.N,Net-(ICled179-DO)*%
X155853362Y-82744800D03*
%TO.P,ICled179,2-VDD,VDD*%
%TO.N,Vdd_str5*%
X155853362Y-84234800D03*
%TO.P,ICled179,3-DIN,DI*%
%TO.N,Net-(ICled176-DO)*%
X154363362Y-84234800D03*
%TO.P,ICled179,4-GND,GND*%
%TO.N,Vss_str5*%
X154363362Y-82744800D03*
%TD*%
%TO.P,ICled150,1-DOUT,DO*%
%TO.N,Net-(ICled150-DO)*%
X163382612Y-70195600D03*
%TO.P,ICled150,2-VDD,VDD*%
%TO.N,Vdd_str4*%
X163382612Y-71685600D03*
%TO.P,ICled150,3-DIN,DI*%
%TO.N,Net-(ICled147-DO)*%
X161892612Y-71685600D03*
%TO.P,ICled150,4-GND,GND*%
%TO.N,Vss_str4*%
X161892612Y-70195600D03*
%TD*%
%TO.P,ICled1,1-DOUT,DO*%
%TO.N,Net-(ICled1-DO)*%
X138285154Y-50114500D03*
%TO.P,ICled1,2-VDD,VDD*%
%TO.N,Vdd_str1*%
X138285154Y-51604500D03*
%TO.P,ICled1,3-DIN,DI*%
%TO.N,Net-(ICled1-DI)*%
X136795154Y-51604500D03*
%TO.P,ICled1,4-GND,GND*%
%TO.N,Vss_str1*%
X136795154Y-50114500D03*
%TD*%
%TO.P,ICled214,1-DOUT,DO*%
%TO.N,Net-(ICled214-DO)*%
X153343612Y-87765500D03*
%TO.P,ICled214,2-VDD,VDD*%
%TO.N,Vdd_str6*%
X153343612Y-89255500D03*
%TO.P,ICled214,3-DIN,DI*%
%TO.N,Net-(ICled211-DO)*%
X151853612Y-89255500D03*
%TO.P,ICled214,4-GND,GND*%
%TO.N,Vss_str6*%
X151853612Y-87765500D03*
%TD*%
%TO.P,ICled113,1-DOUT,DO*%
%TO.N,Net-(ICled113-DO)*%
X165892362Y-67684400D03*
%TO.P,ICled113,2-VDD,VDD*%
%TO.N,Vdd_str3*%
X165892362Y-69174400D03*
%TO.P,ICled113,3-DIN,DI*%
%TO.N,Net-(ICled110-DO)*%
X164402362Y-69174400D03*
%TO.P,ICled113,4-GND,GND*%
%TO.N,Vss_str3*%
X164402362Y-67684400D03*
%TD*%
%TO.P,ICled219,1-DOUT,DO*%
%TO.N,Net-(ICled219-DO)*%
X155853362Y-85256000D03*
%TO.P,ICled219,2-VDD,VDD*%
%TO.N,Vdd_str6*%
X155853362Y-86746000D03*
%TO.P,ICled219,3-DIN,DI*%
%TO.N,Net-(ICled216-DO)*%
X154363362Y-86746000D03*
%TO.P,ICled219,4-GND,GND*%
%TO.N,Vss_str6*%
X154363362Y-85256000D03*
%TD*%
%TO.P,ICled170,1-DOUT,DO*%
%TO.N,Net-(ICled170-DO)*%
X148324112Y-82744800D03*
%TO.P,ICled170,2-VDD,VDD*%
%TO.N,Vdd_str5*%
X148324112Y-84234800D03*
%TO.P,ICled170,3-DIN,DI*%
%TO.N,Net-(ICled167-DO)*%
X146834112Y-84234800D03*
%TO.P,ICled170,4-GND,GND*%
%TO.N,Vss_str5*%
X146834112Y-82744800D03*
%TD*%
%TO.P,ICled197,1-DOUT,DO*%
%TO.N,Net-(ICled197-DO)*%
X138285112Y-90275000D03*
%TO.P,ICled197,2-VDD,VDD*%
%TO.N,Vdd_str6*%
X138285112Y-91765000D03*
%TO.P,ICled197,3-DIN,DI*%
%TO.N,Net-(ICled197-DI)*%
X136795112Y-91765000D03*
%TO.P,ICled197,4-GND,GND*%
%TO.N,Vss_str6*%
X136795112Y-90275000D03*
%TD*%
%TO.P,ICled146,1-DOUT,DO*%
%TO.N,Net-(ICled146-DO)*%
X160872862Y-75214600D03*
%TO.P,ICled146,2-VDD,VDD*%
%TO.N,Vdd_str4*%
X160872862Y-76704600D03*
%TO.P,ICled146,3-DIN,DI*%
%TO.N,Net-(ICled143-DO)*%
X159382862Y-76704600D03*
%TO.P,ICled146,4-GND,GND*%
%TO.N,Vss_str4*%
X159382862Y-75214600D03*
%TD*%
%TO.P,ICled208,1-DOUT,DO*%
%TO.N,Net-(ICled208-DO)*%
X148324112Y-87765500D03*
%TO.P,ICled208,2-VDD,VDD*%
%TO.N,Vdd_str6*%
X148324112Y-89255500D03*
%TO.P,ICled208,3-DIN,DI*%
%TO.N,Net-(ICled205-DO)*%
X146834112Y-89255500D03*
%TO.P,ICled208,4-GND,GND*%
%TO.N,Vss_str6*%
X146834112Y-87765500D03*
%TD*%
%TO.P,ICled172,1-DOUT,DO*%
%TO.N,Net-(ICled172-DO)*%
X150833862Y-80235300D03*
%TO.P,ICled172,2-VDD,VDD*%
%TO.N,Vdd_str5*%
X150833862Y-81725300D03*
%TO.P,ICled172,3-DIN,DI*%
%TO.N,Net-(ICled169-DO)*%
X149343862Y-81725300D03*
%TO.P,ICled172,4-GND,GND*%
%TO.N,Vss_str5*%
X149343862Y-80235300D03*
%TD*%
%TO.P,ICled66,1-DOUT,DO*%
%TO.N,Net-(ICled66-DO)*%
X158363190Y-55135200D03*
%TO.P,ICled66,2-VDD,VDD*%
%TO.N,Vdd_str2*%
X158363190Y-56625200D03*
%TO.P,ICled66,3-DIN,DI*%
%TO.N,Net-(ICled63-DO)*%
X156873190Y-56625200D03*
%TO.P,ICled66,4-GND,GND*%
%TO.N,Vss_str2*%
X156873190Y-55135200D03*
%TD*%
%TO.P,ICled8,1-DOUT,DO*%
%TO.N,Net-(ICled11-DI)*%
X143304612Y-52624000D03*
%TO.P,ICled8,2-VDD,VDD*%
%TO.N,Vdd_str1*%
X143304612Y-54114000D03*
%TO.P,ICled8,3-DIN,DI*%
%TO.N,Net-(ICled5-DO)*%
X141814612Y-54114000D03*
%TO.P,ICled8,4-GND,GND*%
%TO.N,Vss_str1*%
X141814612Y-52624000D03*
%TD*%
%TO.P,ICled61,1-DOUT,DO*%
%TO.N,Net-(ICled61-DO)*%
X155853355Y-57644700D03*
%TO.P,ICled61,2-VDD,VDD*%
%TO.N,Vdd_str2*%
X155853355Y-59134700D03*
%TO.P,ICled61,3-DIN,DI*%
%TO.N,Net-(ICled58-DO)*%
X154363355Y-59134700D03*
%TO.P,ICled61,4-GND,GND*%
%TO.N,Vss_str2*%
X154363355Y-57644700D03*
%TD*%
%TO.P,ICled213,1-DOUT,DO*%
%TO.N,Net-(ICled213-DO)*%
X150833862Y-85256000D03*
%TO.P,ICled213,2-VDD,VDD*%
%TO.N,Vdd_str6*%
X150833862Y-86746000D03*
%TO.P,ICled213,3-DIN,DI*%
%TO.N,Net-(ICled210-DO)*%
X149343862Y-86746000D03*
%TO.P,ICled213,4-GND,GND*%
%TO.N,Vss_str6*%
X149343862Y-85256000D03*
%TD*%
%TO.P,ICled183,1-DOUT,DO*%
%TO.N,Net-(ICled183-DO)*%
X158363112Y-77725800D03*
%TO.P,ICled183,2-VDD,VDD*%
%TO.N,Vdd_str5*%
X158363112Y-79215800D03*
%TO.P,ICled183,3-DIN,DI*%
%TO.N,Net-(ICled180-DO)*%
X156873112Y-79215800D03*
%TO.P,ICled183,4-GND,GND*%
%TO.N,Vss_str5*%
X156873112Y-77725800D03*
%TD*%
%TO.P,ICled225,1-DOUT,DO*%
%TO.N,Net-(ICled225-DO)*%
X160872862Y-85256000D03*
%TO.P,ICled225,2-VDD,VDD*%
%TO.N,Vdd_str6*%
X160872862Y-86746000D03*
%TO.P,ICled225,3-DIN,DI*%
%TO.N,Net-(ICled222-DO)*%
X159382862Y-86746000D03*
%TO.P,ICled225,4-GND,GND*%
%TO.N,Vss_str6*%
X159382862Y-85256000D03*
%TD*%
%TO.P,ICled224,1-DOUT,DO*%
%TO.N,Net-(ICled224-DO)*%
X160872862Y-90275000D03*
%TO.P,ICled224,2-VDD,VDD*%
%TO.N,Vdd_str6*%
X160872862Y-91765000D03*
%TO.P,ICled224,3-DIN,DI*%
%TO.N,Net-(ICled221-DO)*%
X159382862Y-91765000D03*
%TO.P,ICled224,4-GND,GND*%
%TO.N,Vss_str6*%
X159382862Y-90275000D03*
%TD*%
%TO.P,ICled200,1-DOUT,DO*%
%TO.N,Net-(ICled200-DO)*%
X140794862Y-90275000D03*
%TO.P,ICled200,2-VDD,VDD*%
%TO.N,Vdd_str6*%
X140794862Y-91765000D03*
%TO.P,ICled200,3-DIN,DI*%
%TO.N,Net-(ICled197-DO)*%
X139304862Y-91765000D03*
%TO.P,ICled200,4-GND,GND*%
%TO.N,Vss_str6*%
X139304862Y-90275000D03*
%TD*%
%TO.P,ICled10,1-DOUT,DO*%
%TO.N,Net-(ICled10-DO)*%
X145814383Y-50114500D03*
%TO.P,ICled10,2-VDD,VDD*%
%TO.N,Vdd_str1*%
X145814383Y-51604500D03*
%TO.P,ICled10,3-DIN,DI*%
%TO.N,Net-(ICled10-DI)*%
X144324383Y-51604500D03*
%TO.P,ICled10,4-GND,GND*%
%TO.N,Vss_str1*%
X144324383Y-50114500D03*
%TD*%
%TO.P,ICled176,1-DOUT,DO*%
%TO.N,Net-(ICled176-DO)*%
X153343612Y-82744800D03*
%TO.P,ICled176,2-VDD,VDD*%
%TO.N,Vdd_str5*%
X153343612Y-84234800D03*
%TO.P,ICled176,3-DIN,DI*%
%TO.N,Net-(ICled173-DO)*%
X151853612Y-84234800D03*
%TO.P,ICled176,4-GND,GND*%
%TO.N,Vss_str5*%
X151853612Y-82744800D03*
%TD*%
%TO.P,ICled89,1-DOUT,DO*%
%TO.N,Net-(ICled89-DO)*%
X145814362Y-67684400D03*
%TO.P,ICled89,2-VDD,VDD*%
%TO.N,Vdd_str3*%
X145814362Y-69174400D03*
%TO.P,ICled89,3-DIN,DI*%
%TO.N,Net-(ICled86-DO)*%
X144324362Y-69174400D03*
%TO.P,ICled89,4-GND,GND*%
%TO.N,Vss_str3*%
X144324362Y-67684400D03*
%TD*%
D13*
%TO.P,C7,1*%
%TO.N,Vdd_str4*%
X169800000Y-74475000D03*
%TO.P,C7,2*%
%TO.N,Vss_str4*%
X169800000Y-72575000D03*
%TD*%
D10*
%TO.P,ICled13,1-DOUT,DO*%
%TO.N,Net-(ICled13-DO)*%
X148324126Y-50114500D03*
%TO.P,ICled13,2-VDD,VDD*%
%TO.N,Vdd_str1*%
X148324126Y-51604500D03*
%TO.P,ICled13,3-DIN,DI*%
%TO.N,Net-(ICled10-DO)*%
X146834126Y-51604500D03*
%TO.P,ICled13,4-GND,GND*%
%TO.N,Vss_str1*%
X146834126Y-50114500D03*
%TD*%
%TO.P,ICled15,1-DOUT,DO*%
%TO.N,Net-(ICled15-DO)*%
X148324166Y-47605000D03*
%TO.P,ICled15,2-VDD,VDD*%
%TO.N,Vdd_str1*%
X148324166Y-49095000D03*
%TO.P,ICled15,3-DIN,DI*%
%TO.N,Net-(ICled12-DO)*%
X146834166Y-49095000D03*
%TO.P,ICled15,4-GND,GND*%
%TO.N,Vss_str1*%
X146834166Y-47605000D03*
%TD*%
%TO.P,ICled227,1-DOUT,DO*%
%TO.N,Net-(ICled227-DO)*%
X163382612Y-90275000D03*
%TO.P,ICled227,2-VDD,VDD*%
%TO.N,Vdd_str6*%
X163382612Y-91765000D03*
%TO.P,ICled227,3-DIN,DI*%
%TO.N,Net-(ICled224-DO)*%
X161892612Y-91765000D03*
%TO.P,ICled227,4-GND,GND*%
%TO.N,Vss_str6*%
X161892612Y-90275000D03*
%TD*%
%TO.P,ICled206,1-DOUT,DO*%
%TO.N,Net-(ICled206-DO)*%
X145814362Y-90275000D03*
%TO.P,ICled206,2-VDD,VDD*%
%TO.N,Vdd_str6*%
X145814362Y-91765000D03*
%TO.P,ICled206,3-DIN,DI*%
%TO.N,Net-(ICled203-DO)*%
X144324362Y-91765000D03*
%TO.P,ICled206,4-GND,GND*%
%TO.N,Vss_str6*%
X144324362Y-90275000D03*
%TD*%
%TO.P,ICled45,1-DOUT,DO*%
%TO.N,Net-(ICled45-DO)*%
X140794653Y-55135200D03*
%TO.P,ICled45,2-VDD,VDD*%
%TO.N,Vdd_str2*%
X140794653Y-56625200D03*
%TO.P,ICled45,3-DIN,DI*%
%TO.N,Net-(ICled42-DO)*%
X139304653Y-56625200D03*
%TO.P,ICled45,4-GND,GND*%
%TO.N,Vss_str2*%
X139304653Y-55135200D03*
%TD*%
%TO.P,ICled152,1-DOUT,DO*%
%TO.N,Net-(ICled152-DO)*%
X165892362Y-75214600D03*
%TO.P,ICled152,2-VDD,VDD*%
%TO.N,Vdd_str4*%
X165892362Y-76704600D03*
%TO.P,ICled152,3-DIN,DI*%
%TO.N,Net-(ICled149-DO)*%
X164402362Y-76704600D03*
%TO.P,ICled152,4-GND,GND*%
%TO.N,Vss_str4*%
X164402362Y-75214600D03*
%TD*%
%TO.P,ICled23,1-DOUT,DO*%
%TO.N,Net-(ICled23-DO)*%
X155853362Y-52624000D03*
%TO.P,ICled23,2-VDD,VDD*%
%TO.N,Vdd_str1*%
X155853362Y-54114000D03*
%TO.P,ICled23,3-DIN,DI*%
%TO.N,Net-(ICled20-DO)*%
X154363362Y-54114000D03*
%TO.P,ICled23,4-GND,GND*%
%TO.N,Vss_str1*%
X154363362Y-52624000D03*
%TD*%
%TO.P,ICled52,1-DOUT,DO*%
%TO.N,Net-(ICled52-DO)*%
X148324126Y-57644700D03*
%TO.P,ICled52,2-VDD,VDD*%
%TO.N,Vdd_str2*%
X148324126Y-59134700D03*
%TO.P,ICled52,3-DIN,DI*%
%TO.N,Net-(ICled49-DO)*%
X146834126Y-59134700D03*
%TO.P,ICled52,4-GND,GND*%
%TO.N,Vss_str2*%
X146834126Y-57644700D03*
%TD*%
%TO.P,ICled204,1-DOUT,DO*%
%TO.N,Net-(ICled204-DO)*%
X143304612Y-85256000D03*
%TO.P,ICled204,2-VDD,VDD*%
%TO.N,Vdd_str6*%
X143304612Y-86746000D03*
%TO.P,ICled204,3-DIN,DI*%
%TO.N,Net-(ICled201-DO)*%
X141814612Y-86746000D03*
%TO.P,ICled204,4-GND,GND*%
%TO.N,Vss_str6*%
X141814612Y-85256000D03*
%TD*%
%TO.P,ICled69,1-DOUT,DO*%
%TO.N,Net-(ICled69-DO)*%
X160872981Y-55135200D03*
%TO.P,ICled69,2-VDD,VDD*%
%TO.N,Vdd_str2*%
X160872981Y-56625200D03*
%TO.P,ICled69,3-DIN,DI*%
%TO.N,Net-(ICled66-DO)*%
X159382981Y-56625200D03*
%TO.P,ICled69,4-GND,GND*%
%TO.N,Vss_str2*%
X159382981Y-55135200D03*
%TD*%
%TO.P,ICled135,1-DOUT,DO*%
%TO.N,Net-(ICled135-DO)*%
X150833862Y-70195600D03*
%TO.P,ICled135,2-VDD,VDD*%
%TO.N,Vdd_str4*%
X150833862Y-71685600D03*
%TO.P,ICled135,3-DIN,DI*%
%TO.N,Net-(ICled132-DO)*%
X149343862Y-71685600D03*
%TO.P,ICled135,4-GND,GND*%
%TO.N,Vss_str4*%
X149343862Y-70195600D03*
%TD*%
%TO.P,ICled138,1-DOUT,DO*%
%TO.N,Net-(ICled138-DO)*%
X153343612Y-70195600D03*
%TO.P,ICled138,2-VDD,VDD*%
%TO.N,Vdd_str4*%
X153343612Y-71685600D03*
%TO.P,ICled138,3-DIN,DI*%
%TO.N,Net-(ICled135-DO)*%
X151853612Y-71685600D03*
%TO.P,ICled138,4-GND,GND*%
%TO.N,Vss_str4*%
X151853612Y-70195600D03*
%TD*%
D12*
%TO.P,J2,1,Pin_1*%
%TO.N,Vdd_str2*%
X169850000Y-53880000D03*
%TO.P,J2,2,Pin_2*%
%TO.N,Vss_str2*%
X169850000Y-51340000D03*
%TO.P,J2,3,Pin_3*%
%TO.N,din_led_pwm_2*%
X169850000Y-48800000D03*
%TO.P,J2,4,Pin_4*%
%TO.N,dout_led_pwm_2*%
X169850000Y-46260000D03*
%TD*%
D10*
%TO.P,ICled199,1-DOUT,DO*%
%TO.N,Net-(ICled199-DO)*%
X140794862Y-87765500D03*
%TO.P,ICled199,2-VDD,VDD*%
%TO.N,Vdd_str6*%
X140794862Y-89255500D03*
%TO.P,ICled199,3-DIN,DI*%
%TO.N,Net-(ICled196-DO)*%
X139304862Y-89255500D03*
%TO.P,ICled199,4-GND,GND*%
%TO.N,Vss_str6*%
X139304862Y-87765500D03*
%TD*%
%TO.P,ICled56,1-DOUT,DO*%
%TO.N,Net-(ICled56-DO)*%
X150833862Y-60154200D03*
%TO.P,ICled56,2-VDD,VDD*%
%TO.N,Vdd_str2*%
X150833862Y-61644200D03*
%TO.P,ICled56,3-DIN,DI*%
%TO.N,Net-(ICled53-DO)*%
X149343862Y-61644200D03*
%TO.P,ICled56,4-GND,GND*%
%TO.N,Vss_str2*%
X149343862Y-60154200D03*
%TD*%
D13*
%TO.P,C3,1*%
%TO.N,Vdd_str2*%
X135450000Y-57560000D03*
%TO.P,C3,2*%
%TO.N,Vss_str2*%
X135450000Y-55660000D03*
%TD*%
D10*
%TO.P,ICled108,1-DOUT,DO*%
%TO.N,Net-(ICled108-DO)*%
X160872862Y-62665400D03*
%TO.P,ICled108,2-VDD,VDD*%
%TO.N,Vdd_str3*%
X160872862Y-64155400D03*
%TO.P,ICled108,3-DIN,DI*%
%TO.N,Net-(ICled105-DO)*%
X159382862Y-64155400D03*
%TO.P,ICled108,4-GND,GND*%
%TO.N,Vss_str3*%
X159382862Y-62665400D03*
%TD*%
%TO.P,ICled228,1-DOUT,DO*%
%TO.N,Net-(ICled228-DO)*%
X163382612Y-85256000D03*
%TO.P,ICled228,2-VDD,VDD*%
%TO.N,Vdd_str6*%
X163382612Y-86746000D03*
%TO.P,ICled228,3-DIN,DI*%
%TO.N,Net-(ICled225-DO)*%
X161892612Y-86746000D03*
%TO.P,ICled228,4-GND,GND*%
%TO.N,Vss_str6*%
X161892612Y-85256000D03*
%TD*%
%TO.P,ICled158,1-DOUT,DO*%
%TO.N,Net-(ICled158-DO)*%
X138285112Y-82744800D03*
%TO.P,ICled158,2-VDD,VDD*%
%TO.N,Vdd_str5*%
X138285112Y-84234800D03*
%TO.P,ICled158,3-DIN,DI*%
%TO.N,Net-(ICled158-DI)*%
X136795112Y-84234800D03*
%TO.P,ICled158,4-GND,GND*%
%TO.N,Vss_str5*%
X136795112Y-82744800D03*
%TD*%
D13*
%TO.P,C6,1*%
%TO.N,Vdd_str3*%
X135450000Y-61010000D03*
%TO.P,C6,2*%
%TO.N,Vss_str3*%
X135450000Y-59110000D03*
%TD*%
D10*
%TO.P,ICled215,1-DOUT,DO*%
%TO.N,Net-(ICled215-DO)*%
X153343612Y-90275000D03*
%TO.P,ICled215,2-VDD,VDD*%
%TO.N,Vdd_str6*%
X153343612Y-91765000D03*
%TO.P,ICled215,3-DIN,DI*%
%TO.N,Net-(ICled212-DO)*%
X151853612Y-91765000D03*
%TO.P,ICled215,4-GND,GND*%
%TO.N,Vss_str6*%
X151853612Y-90275000D03*
%TD*%
%TO.P,ICled90,1-DOUT,DO*%
%TO.N,Net-(ICled90-DO)*%
X145814362Y-62665400D03*
%TO.P,ICled90,2-VDD,VDD*%
%TO.N,Vdd_str3*%
X145814362Y-64155400D03*
%TO.P,ICled90,3-DIN,DI*%
%TO.N,Net-(ICled87-DO)*%
X144324362Y-64155400D03*
%TO.P,ICled90,4-GND,GND*%
%TO.N,Vss_str3*%
X144324362Y-62665400D03*
%TD*%
%TO.P,ICled175,1-DOUT,DO*%
%TO.N,Net-(ICled175-DO)*%
X153343612Y-80235300D03*
%TO.P,ICled175,2-VDD,VDD*%
%TO.N,Vdd_str5*%
X153343612Y-81725300D03*
%TO.P,ICled175,3-DIN,DI*%
%TO.N,Net-(ICled172-DO)*%
X151853612Y-81725300D03*
%TO.P,ICled175,4-GND,GND*%
%TO.N,Vss_str5*%
X151853612Y-80235300D03*
%TD*%
%TO.P,ICled43,1-DOUT,DO*%
%TO.N,Net-(ICled43-DO)*%
X140794897Y-57644700D03*
%TO.P,ICled43,2-VDD,VDD*%
%TO.N,Vdd_str2*%
X140794897Y-59134700D03*
%TO.P,ICled43,3-DIN,DI*%
%TO.N,Net-(ICled40-DO)*%
X139304897Y-59134700D03*
%TO.P,ICled43,4-GND,GND*%
%TO.N,Vss_str2*%
X139304897Y-57644700D03*
%TD*%
%TO.P,ICled147,1-DOUT,DO*%
%TO.N,Net-(ICled147-DO)*%
X160872862Y-70195600D03*
%TO.P,ICled147,2-VDD,VDD*%
%TO.N,Vdd_str4*%
X160872862Y-71685600D03*
%TO.P,ICled147,3-DIN,DI*%
%TO.N,Net-(ICled144-DO)*%
X159382862Y-71685600D03*
%TO.P,ICled147,4-GND,GND*%
%TO.N,Vss_str4*%
X159382862Y-70195600D03*
%TD*%
%TO.P,ICled58,1-DOUT,DO*%
%TO.N,Net-(ICled58-DO)*%
X153343612Y-57644700D03*
%TO.P,ICled58,2-VDD,VDD*%
%TO.N,Vdd_str2*%
X153343612Y-59134700D03*
%TO.P,ICled58,3-DIN,DI*%
%TO.N,Net-(ICled55-DO)*%
X151853612Y-59134700D03*
%TO.P,ICled58,4-GND,GND*%
%TO.N,Vss_str2*%
X151853612Y-57644700D03*
%TD*%
%TO.P,ICled131,1-DOUT,DO*%
%TO.N,Net-(ICled131-DO)*%
X148324112Y-75214600D03*
%TO.P,ICled131,2-VDD,VDD*%
%TO.N,Vdd_str4*%
X148324112Y-76704600D03*
%TO.P,ICled131,3-DIN,DI*%
%TO.N,Net-(ICled128-DO)*%
X146834112Y-76704600D03*
%TO.P,ICled131,4-GND,GND*%
%TO.N,Vss_str4*%
X146834112Y-75214600D03*
%TD*%
%TO.P,ICled192,1-DOUT,DO*%
%TO.N,Net-(ICled192-DO)*%
X165892362Y-77725800D03*
%TO.P,ICled192,2-VDD,VDD*%
%TO.N,Vdd_str5*%
X165892362Y-79215800D03*
%TO.P,ICled192,3-DIN,DI*%
%TO.N,Net-(ICled189-DO)*%
X164402362Y-79215800D03*
%TO.P,ICled192,4-GND,GND*%
%TO.N,Vss_str5*%
X164402362Y-77725800D03*
%TD*%
%TO.P,ICled164,1-DOUT,DO*%
%TO.N,Net-(ICled164-DO)*%
X143304612Y-82744800D03*
%TO.P,ICled164,2-VDD,VDD*%
%TO.N,Vdd_str5*%
X143304612Y-84234800D03*
%TO.P,ICled164,3-DIN,DI*%
%TO.N,Net-(ICled161-DO)*%
X141814612Y-84234800D03*
%TO.P,ICled164,4-GND,GND*%
%TO.N,Vss_str5*%
X141814612Y-82744800D03*
%TD*%
%TO.P,ICled98,1-DOUT,DO*%
%TO.N,Net-(ICled101-DI)*%
X153343612Y-67684400D03*
%TO.P,ICled98,2-VDD,VDD*%
%TO.N,Vdd_str3*%
X153343612Y-69174400D03*
%TO.P,ICled98,3-DIN,DI*%
%TO.N,Net-(ICled95-DO)*%
X151853612Y-69174400D03*
%TO.P,ICled98,4-GND,GND*%
%TO.N,Vss_str3*%
X151853612Y-67684400D03*
%TD*%
%TO.P,ICled21,1-DOUT,DO*%
%TO.N,Net-(ICled21-DO)*%
X153343610Y-47605000D03*
%TO.P,ICled21,2-VDD,VDD*%
%TO.N,Vdd_str1*%
X153343610Y-49095000D03*
%TO.P,ICled21,3-DIN,DI*%
%TO.N,Net-(ICled18-DO)*%
X151853610Y-49095000D03*
%TO.P,ICled21,4-GND,GND*%
%TO.N,Vss_str1*%
X151853610Y-47605000D03*
%TD*%
%TO.P,ICled79,1-DOUT,DO*%
%TO.N,Net-(ICled79-DO)*%
X138285112Y-65174900D03*
%TO.P,ICled79,2-VDD,VDD*%
%TO.N,Vdd_str3*%
X138285112Y-66664900D03*
%TO.P,ICled79,3-DIN,DI*%
%TO.N,Net-(ICled115-DO)*%
X136795112Y-66664900D03*
%TO.P,ICled79,4-GND,GND*%
%TO.N,Vss_str3*%
X136795112Y-65174900D03*
%TD*%
%TO.P,ICled25,1-DOUT,DO*%
%TO.N,Net-(ICled25-DO)*%
X158363098Y-50114500D03*
%TO.P,ICled25,2-VDD,VDD*%
%TO.N,Vdd_str1*%
X158363098Y-51604500D03*
%TO.P,ICled25,3-DIN,DI*%
%TO.N,Net-(ICled22-DO)*%
X156873098Y-51604500D03*
%TO.P,ICled25,4-GND,GND*%
%TO.N,Vss_str1*%
X156873098Y-50114500D03*
%TD*%
%TO.P,ICled6,1-DOUT,DO*%
%TO.N,Net-(ICled6-DO)*%
X140795000Y-47605000D03*
%TO.P,ICled6,2-VDD,VDD*%
%TO.N,Vdd_str1*%
X140795000Y-49095000D03*
%TO.P,ICled6,3-DIN,DI*%
%TO.N,Net-(ICled3-DO)*%
X139305000Y-49095000D03*
%TO.P,ICled6,4-GND,GND*%
%TO.N,Vss_str1*%
X139305000Y-47605000D03*
%TD*%
%TO.P,ICled84,1-DOUT,DO*%
%TO.N,Net-(ICled84-DO)*%
X140794862Y-62665400D03*
%TO.P,ICled84,2-VDD,VDD*%
%TO.N,Vdd_str3*%
X140794862Y-64155400D03*
%TO.P,ICled84,3-DIN,DI*%
%TO.N,Net-(ICled81-DO)*%
X139304862Y-64155400D03*
%TO.P,ICled84,4-GND,GND*%
%TO.N,Vss_str3*%
X139304862Y-62665400D03*
%TD*%
%TO.P,ICled107,1-DOUT,DO*%
%TO.N,Net-(ICled107-DO)*%
X160872862Y-67684400D03*
%TO.P,ICled107,2-VDD,VDD*%
%TO.N,Vdd_str3*%
X160872862Y-69174400D03*
%TO.P,ICled107,3-DIN,DI*%
%TO.N,Net-(ICled104-DO)*%
X159382862Y-69174400D03*
%TO.P,ICled107,4-GND,GND*%
%TO.N,Vss_str3*%
X159382862Y-67684400D03*
%TD*%
%TO.P,ICled26,1-DOUT,DO*%
%TO.N,Net-(ICled26-DO)*%
X158363112Y-52624000D03*
%TO.P,ICled26,2-VDD,VDD*%
%TO.N,Vdd_str1*%
X158363112Y-54114000D03*
%TO.P,ICled26,3-DIN,DI*%
%TO.N,Net-(ICled23-DO)*%
X156873112Y-54114000D03*
%TO.P,ICled26,4-GND,GND*%
%TO.N,Vss_str1*%
X156873112Y-52624000D03*
%TD*%
%TO.P,ICled40,1-DOUT,DO*%
%TO.N,Net-(ICled40-DO)*%
X138285154Y-57644700D03*
%TO.P,ICled40,2-VDD,VDD*%
%TO.N,Vdd_str2*%
X138285154Y-59134700D03*
%TO.P,ICled40,3-DIN,DI*%
%TO.N,Net-(ICled40-DI)*%
X136795154Y-59134700D03*
%TO.P,ICled40,4-GND,GND*%
%TO.N,Vss_str2*%
X136795154Y-57644700D03*
%TD*%
%TO.P,ICled123,1-DOUT,DO*%
%TO.N,Net-(ICled123-DO)*%
X140794862Y-70195600D03*
%TO.P,ICled123,2-VDD,VDD*%
%TO.N,Vdd_str4*%
X140794862Y-71685600D03*
%TO.P,ICled123,3-DIN,DI*%
%TO.N,Net-(ICled120-DO)*%
X139304862Y-71685600D03*
%TO.P,ICled123,4-GND,GND*%
%TO.N,Vss_str4*%
X139304862Y-70195600D03*
%TD*%
%TO.P,ICled60,1-DOUT,DO*%
%TO.N,Net-(ICled60-DO)*%
X153343608Y-55135200D03*
%TO.P,ICled60,2-VDD,VDD*%
%TO.N,Vdd_str2*%
X153343608Y-56625200D03*
%TO.P,ICled60,3-DIN,DI*%
%TO.N,Net-(ICled57-DO)*%
X151853608Y-56625200D03*
%TO.P,ICled60,4-GND,GND*%
%TO.N,Vss_str2*%
X151853608Y-55135200D03*
%TD*%
%TO.P,ICled195,1-DOUT,DO*%
%TO.N,dout_led_pwm_5*%
X168402112Y-82744800D03*
%TO.P,ICled195,2-VDD,VDD*%
%TO.N,Vdd_str5*%
X168402112Y-84234800D03*
%TO.P,ICled195,3-DIN,DI*%
%TO.N,Net-(ICled191-DO)*%
X166912112Y-84234800D03*
%TO.P,ICled195,4-GND,GND*%
%TO.N,Vss_str5*%
X166912112Y-82744800D03*
%TD*%
%TO.P,ICled217,1-DOUT,DO*%
%TO.N,Net-(ICled217-DO)*%
X155853362Y-87765500D03*
%TO.P,ICled217,2-VDD,VDD*%
%TO.N,Vdd_str6*%
X155853362Y-89255500D03*
%TO.P,ICled217,3-DIN,DI*%
%TO.N,Net-(ICled214-DO)*%
X154363362Y-89255500D03*
%TO.P,ICled217,4-GND,GND*%
%TO.N,Vss_str6*%
X154363362Y-87765500D03*
%TD*%
%TO.P,ICled18,1-DOUT,DO*%
%TO.N,Net-(ICled18-DO)*%
X150833888Y-47605000D03*
%TO.P,ICled18,2-VDD,VDD*%
%TO.N,Vdd_str1*%
X150833888Y-49095000D03*
%TO.P,ICled18,3-DIN,DI*%
%TO.N,Net-(ICled15-DO)*%
X149343888Y-49095000D03*
%TO.P,ICled18,4-GND,GND*%
%TO.N,Vss_str1*%
X149343888Y-47605000D03*
%TD*%
%TO.P,ICled114,1-DOUT,DO*%
%TO.N,Net-(ICled114-DO)*%
X165892362Y-62665400D03*
%TO.P,ICled114,2-VDD,VDD*%
%TO.N,Vdd_str3*%
X165892362Y-64155400D03*
%TO.P,ICled114,3-DIN,DI*%
%TO.N,Net-(ICled111-DO)*%
X164402362Y-64155400D03*
%TO.P,ICled114,4-GND,GND*%
%TO.N,Vss_str3*%
X164402362Y-62665400D03*
%TD*%
%TO.P,ICled75,1-DOUT,DO*%
%TO.N,Net-(ICled75-DO)*%
X165892563Y-55135200D03*
%TO.P,ICled75,2-VDD,VDD*%
%TO.N,Vdd_str2*%
X165892563Y-56625200D03*
%TO.P,ICled75,3-DIN,DI*%
%TO.N,Net-(ICled72-DO)*%
X164402563Y-56625200D03*
%TO.P,ICled75,4-GND,GND*%
%TO.N,Vss_str2*%
X164402563Y-55135200D03*
%TD*%
%TO.P,ICled161,1-DOUT,DO*%
%TO.N,Net-(ICled161-DO)*%
X140794862Y-82744800D03*
%TO.P,ICled161,2-VDD,VDD*%
%TO.N,Vdd_str5*%
X140794862Y-84234800D03*
%TO.P,ICled161,3-DIN,DI*%
%TO.N,Net-(ICled158-DO)*%
X139304862Y-84234800D03*
%TO.P,ICled161,4-GND,GND*%
%TO.N,Vss_str5*%
X139304862Y-82744800D03*
%TD*%
%TO.P,ICled63,1-DOUT,DO*%
%TO.N,Net-(ICled63-DO)*%
X155853399Y-55135200D03*
%TO.P,ICled63,2-VDD,VDD*%
%TO.N,Vdd_str2*%
X155853399Y-56625200D03*
%TO.P,ICled63,3-DIN,DI*%
%TO.N,Net-(ICled60-DO)*%
X154363399Y-56625200D03*
%TO.P,ICled63,4-GND,GND*%
%TO.N,Vss_str2*%
X154363399Y-55135200D03*
%TD*%
%TO.P,ICled173,1-DOUT,DO*%
%TO.N,Net-(ICled173-DO)*%
X150833862Y-82744800D03*
%TO.P,ICled173,2-VDD,VDD*%
%TO.N,Vdd_str5*%
X150833862Y-84234800D03*
%TO.P,ICled173,3-DIN,DI*%
%TO.N,Net-(ICled170-DO)*%
X149343862Y-84234800D03*
%TO.P,ICled173,4-GND,GND*%
%TO.N,Vss_str5*%
X149343862Y-82744800D03*
%TD*%
%TO.P,ICled221,1-DOUT,DO*%
%TO.N,Net-(ICled221-DO)*%
X158363112Y-90275000D03*
%TO.P,ICled221,2-VDD,VDD*%
%TO.N,Vdd_str6*%
X158363112Y-91765000D03*
%TO.P,ICled221,3-DIN,DI*%
%TO.N,Net-(ICled218-DO)*%
X156873112Y-91765000D03*
%TO.P,ICled221,4-GND,GND*%
%TO.N,Vss_str6*%
X156873112Y-90275000D03*
%TD*%
%TO.P,ICled86,1-DOUT,DO*%
%TO.N,Net-(ICled86-DO)*%
X143304612Y-67684400D03*
%TO.P,ICled86,2-VDD,VDD*%
%TO.N,Vdd_str3*%
X143304612Y-69174400D03*
%TO.P,ICled86,3-DIN,DI*%
%TO.N,Net-(ICled83-DO)*%
X141814612Y-69174400D03*
%TO.P,ICled86,4-GND,GND*%
%TO.N,Vss_str3*%
X141814612Y-67684400D03*
%TD*%
%TO.P,ICled48,1-DOUT,DO*%
%TO.N,Net-(ICled48-DO)*%
X143304444Y-55135200D03*
%TO.P,ICled48,2-VDD,VDD*%
%TO.N,Vdd_str2*%
X143304444Y-56625200D03*
%TO.P,ICled48,3-DIN,DI*%
%TO.N,Net-(ICled45-DO)*%
X141814444Y-56625200D03*
%TO.P,ICled48,4-GND,GND*%
%TO.N,Vss_str2*%
X141814444Y-55135200D03*
%TD*%
%TO.P,ICled212,1-DOUT,DO*%
%TO.N,Net-(ICled212-DO)*%
X150833862Y-90275000D03*
%TO.P,ICled212,2-VDD,VDD*%
%TO.N,Vdd_str6*%
X150833862Y-91765000D03*
%TO.P,ICled212,3-DIN,DI*%
%TO.N,Net-(ICled209-DO)*%
X149343862Y-91765000D03*
%TO.P,ICled212,4-GND,GND*%
%TO.N,Vss_str6*%
X149343862Y-90275000D03*
%TD*%
%TO.P,ICled132,1-DOUT,DO*%
%TO.N,Net-(ICled132-DO)*%
X148324112Y-70195600D03*
%TO.P,ICled132,2-VDD,VDD*%
%TO.N,Vdd_str4*%
X148324112Y-71685600D03*
%TO.P,ICled132,3-DIN,DI*%
%TO.N,Net-(ICled129-DO)*%
X146834112Y-71685600D03*
%TO.P,ICled132,4-GND,GND*%
%TO.N,Vss_str4*%
X146834112Y-70195600D03*
%TD*%
%TO.P,ICled149,1-DOUT,DO*%
%TO.N,Net-(ICled149-DO)*%
X163382612Y-75214600D03*
%TO.P,ICled149,2-VDD,VDD*%
%TO.N,Vdd_str4*%
X163382612Y-76704600D03*
%TO.P,ICled149,3-DIN,DI*%
%TO.N,Net-(ICled146-DO)*%
X161892612Y-76704600D03*
%TO.P,ICled149,4-GND,GND*%
%TO.N,Vss_str4*%
X161892612Y-75214600D03*
%TD*%
%TO.P,ICled184,1-DOUT,DO*%
%TO.N,Net-(ICled184-DO)*%
X160872862Y-80235300D03*
%TO.P,ICled184,2-VDD,VDD*%
%TO.N,Vdd_str5*%
X160872862Y-81725300D03*
%TO.P,ICled184,3-DIN,DI*%
%TO.N,Net-(ICled181-DO)*%
X159382862Y-81725300D03*
%TO.P,ICled184,4-GND,GND*%
%TO.N,Vss_str5*%
X159382862Y-80235300D03*
%TD*%
%TO.P,ICled196,1-DOUT,DO*%
%TO.N,Net-(ICled196-DO)*%
X138285112Y-87765500D03*
%TO.P,ICled196,2-VDD,VDD*%
%TO.N,Vdd_str6*%
X138285112Y-89255500D03*
%TO.P,ICled196,3-DIN,DI*%
%TO.N,Net-(ICled196-DI)*%
X136795112Y-89255500D03*
%TO.P,ICled196,4-GND,GND*%
%TO.N,Vss_str6*%
X136795112Y-87765500D03*
%TD*%
D14*
%TO.P,C1,1*%
%TO.N,Vdd_str1*%
X140520000Y-46200000D03*
%TO.P,C1,2*%
%TO.N,Vss_str1*%
X138620000Y-46200000D03*
%TD*%
D10*
%TO.P,ICled36,1-DOUT,DO*%
%TO.N,Net-(ICled36-DO)*%
X165892220Y-47605000D03*
%TO.P,ICled36,2-VDD,VDD*%
%TO.N,Vdd_str1*%
X165892220Y-49095000D03*
%TO.P,ICled36,3-DIN,DI*%
%TO.N,Net-(ICled33-DO)*%
X164402220Y-49095000D03*
%TO.P,ICled36,4-GND,GND*%
%TO.N,Vss_str1*%
X164402220Y-47605000D03*
%TD*%
%TO.P,ICled122,1-DOUT,DO*%
%TO.N,Net-(ICled122-DO)*%
X140794862Y-75214600D03*
%TO.P,ICled122,2-VDD,VDD*%
%TO.N,Vdd_str4*%
X140794862Y-76704600D03*
%TO.P,ICled122,3-DIN,DI*%
%TO.N,Net-(ICled119-DO)*%
X139304862Y-76704600D03*
%TO.P,ICled122,4-GND,GND*%
%TO.N,Vss_str4*%
X139304862Y-75214600D03*
%TD*%
%TO.P,ICled124,1-DOUT,DO*%
%TO.N,Net-(ICled124-DO)*%
X143304612Y-72705100D03*
%TO.P,ICled124,2-VDD,VDD*%
%TO.N,Vdd_str4*%
X143304612Y-74195100D03*
%TO.P,ICled124,3-DIN,DI*%
%TO.N,Net-(ICled121-DO)*%
X141814612Y-74195100D03*
%TO.P,ICled124,4-GND,GND*%
%TO.N,Vss_str4*%
X141814612Y-72705100D03*
%TD*%
%TO.P,ICled203,1-DOUT,DO*%
%TO.N,Net-(ICled203-DO)*%
X143304612Y-90275000D03*
%TO.P,ICled203,2-VDD,VDD*%
%TO.N,Vdd_str6*%
X143304612Y-91765000D03*
%TO.P,ICled203,3-DIN,DI*%
%TO.N,Net-(ICled200-DO)*%
X141814612Y-91765000D03*
%TO.P,ICled203,4-GND,GND*%
%TO.N,Vss_str6*%
X141814612Y-90275000D03*
%TD*%
%TO.P,ICled194,1-DOUT,DO*%
%TO.N,Net-(ICled158-DI)*%
X168402112Y-80235300D03*
%TO.P,ICled194,2-VDD,VDD*%
%TO.N,Vdd_str5*%
X168402112Y-81725300D03*
%TO.P,ICled194,3-DIN,DI*%
%TO.N,Net-(ICled190-DO)*%
X166912112Y-81725300D03*
%TO.P,ICled194,4-GND,GND*%
%TO.N,Vss_str5*%
X166912112Y-80235300D03*
%TD*%
%TO.P,ICled50,1-DOUT,DO*%
%TO.N,Net-(ICled50-DO)*%
X145814362Y-60154200D03*
%TO.P,ICled50,2-VDD,VDD*%
%TO.N,Vdd_str2*%
X145814362Y-61644200D03*
%TO.P,ICled50,3-DIN,DI*%
%TO.N,Net-(ICled47-DO)*%
X144324362Y-61644200D03*
%TO.P,ICled50,4-GND,GND*%
%TO.N,Vss_str2*%
X144324362Y-60154200D03*
%TD*%
%TO.P,ICled111,1-DOUT,DO*%
%TO.N,Net-(ICled111-DO)*%
X163382612Y-62665400D03*
%TO.P,ICled111,2-VDD,VDD*%
%TO.N,Vdd_str3*%
X163382612Y-64155400D03*
%TO.P,ICled111,3-DIN,DI*%
%TO.N,Net-(ICled108-DO)*%
X161892612Y-64155400D03*
%TO.P,ICled111,4-GND,GND*%
%TO.N,Vss_str3*%
X161892612Y-62665400D03*
%TD*%
%TO.P,ICled73,1-DOUT,DO*%
%TO.N,Net-(ICled73-DO)*%
X165892327Y-57644700D03*
%TO.P,ICled73,2-VDD,VDD*%
%TO.N,Vdd_str2*%
X165892327Y-59134700D03*
%TO.P,ICled73,3-DIN,DI*%
%TO.N,Net-(ICled70-DO)*%
X164402327Y-59134700D03*
%TO.P,ICled73,4-GND,GND*%
%TO.N,Vss_str2*%
X164402327Y-57644700D03*
%TD*%
%TO.P,ICled202,1-DOUT,DO*%
%TO.N,Net-(ICled202-DO)*%
X143304612Y-87765500D03*
%TO.P,ICled202,2-VDD,VDD*%
%TO.N,Vdd_str6*%
X143304612Y-89255500D03*
%TO.P,ICled202,3-DIN,DI*%
%TO.N,Net-(ICled199-DO)*%
X141814612Y-89255500D03*
%TO.P,ICled202,4-GND,GND*%
%TO.N,Vss_str6*%
X141814612Y-87765500D03*
%TD*%
%TO.P,ICled47,1-DOUT,DO*%
%TO.N,Net-(ICled47-DO)*%
X143304612Y-60154200D03*
%TO.P,ICled47,2-VDD,VDD*%
%TO.N,Vdd_str2*%
X143304612Y-61644200D03*
%TO.P,ICled47,3-DIN,DI*%
%TO.N,Net-(ICled44-DO)*%
X141814612Y-61644200D03*
%TO.P,ICled47,4-GND,GND*%
%TO.N,Vss_str2*%
X141814612Y-60154200D03*
%TD*%
%TO.P,ICled9,1-DOUT,DO*%
%TO.N,Net-(ICled12-DI)*%
X143304722Y-47605000D03*
%TO.P,ICled9,2-VDD,VDD*%
%TO.N,Vdd_str1*%
X143304722Y-49095000D03*
%TO.P,ICled9,3-DIN,DI*%
%TO.N,Net-(ICled6-DO)*%
X141814722Y-49095000D03*
%TO.P,ICled9,4-GND,GND*%
%TO.N,Vss_str1*%
X141814722Y-47605000D03*
%TD*%
D11*
%TO.P,C5,1*%
%TO.N,Vdd_str3*%
X169800000Y-59110000D03*
%TO.P,C5,2*%
%TO.N,Vss_str3*%
X169800000Y-61010000D03*
%TD*%
D10*
%TO.P,ICled162,1-DOUT,DO*%
%TO.N,Net-(ICled162-DO)*%
X140794862Y-77725800D03*
%TO.P,ICled162,2-VDD,VDD*%
%TO.N,Vdd_str5*%
X140794862Y-79215800D03*
%TO.P,ICled162,3-DIN,DI*%
%TO.N,Net-(ICled159-DO)*%
X139304862Y-79215800D03*
%TO.P,ICled162,4-GND,GND*%
%TO.N,Vss_str5*%
X139304862Y-77725800D03*
%TD*%
%TO.P,ICled178,1-DOUT,DO*%
%TO.N,Net-(ICled178-DO)*%
X155853362Y-80235300D03*
%TO.P,ICled178,2-VDD,VDD*%
%TO.N,Vdd_str5*%
X155853362Y-81725300D03*
%TO.P,ICled178,3-DIN,DI*%
%TO.N,Net-(ICled175-DO)*%
X154363362Y-81725300D03*
%TO.P,ICled178,4-GND,GND*%
%TO.N,Vss_str5*%
X154363362Y-80235300D03*
%TD*%
%TO.P,ICled54,1-DOUT,DO*%
%TO.N,Net-(ICled54-DO)*%
X148324026Y-55135200D03*
%TO.P,ICled54,2-VDD,VDD*%
%TO.N,Vdd_str2*%
X148324026Y-56625200D03*
%TO.P,ICled54,3-DIN,DI*%
%TO.N,Net-(ICled51-DO)*%
X146834026Y-56625200D03*
%TO.P,ICled54,4-GND,GND*%
%TO.N,Vss_str2*%
X146834026Y-55135200D03*
%TD*%
%TO.P,ICled156,1-DOUT,DO*%
%TO.N,dout_led_pwm_4*%
X168402112Y-75214600D03*
%TO.P,ICled156,2-VDD,VDD*%
%TO.N,Vdd_str4*%
X168402112Y-76704600D03*
%TO.P,ICled156,3-DIN,DI*%
%TO.N,Net-(ICled152-DO)*%
X166912112Y-76704600D03*
%TO.P,ICled156,4-GND,GND*%
%TO.N,Vss_str4*%
X166912112Y-75214600D03*
%TD*%
%TO.P,ICled104,1-DOUT,DO*%
%TO.N,Net-(ICled104-DO)*%
X158363112Y-67684400D03*
%TO.P,ICled104,2-VDD,VDD*%
%TO.N,Vdd_str3*%
X158363112Y-69174400D03*
%TO.P,ICled104,3-DIN,DI*%
%TO.N,Net-(ICled101-DO)*%
X156873112Y-69174400D03*
%TO.P,ICled104,4-GND,GND*%
%TO.N,Vss_str3*%
X156873112Y-67684400D03*
%TD*%
%TO.P,ICled12,1-DOUT,DO*%
%TO.N,Net-(ICled12-DO)*%
X145814444Y-47605000D03*
%TO.P,ICled12,2-VDD,VDD*%
%TO.N,Vdd_str1*%
X145814444Y-49095000D03*
%TO.P,ICled12,3-DIN,DI*%
%TO.N,Net-(ICled12-DI)*%
X144324444Y-49095000D03*
%TO.P,ICled12,4-GND,GND*%
%TO.N,Vss_str1*%
X144324444Y-47605000D03*
%TD*%
D11*
%TO.P,C12,1*%
%TO.N,Vdd_str6*%
X169800000Y-79475000D03*
%TO.P,C12,2*%
%TO.N,Vss_str6*%
X169800000Y-81375000D03*
%TD*%
D12*
%TO.P,J3,1,Pin_1*%
%TO.N,Vdd_str3*%
X135350000Y-63260000D03*
%TO.P,J3,2,Pin_2*%
%TO.N,Vss_str3*%
X135350000Y-65800000D03*
%TO.P,J3,3,Pin_3*%
%TO.N,din_led_pwm_3*%
X135350000Y-68340000D03*
%TO.P,J3,4,Pin_4*%
%TO.N,dout_led_pwm_3*%
X135350000Y-70880000D03*
%TD*%
D10*
%TO.P,ICled17,1-DOUT,DO*%
%TO.N,Net-(ICled17-DO)*%
X150833862Y-52624000D03*
%TO.P,ICled17,2-VDD,VDD*%
%TO.N,Vdd_str1*%
X150833862Y-54114000D03*
%TO.P,ICled17,3-DIN,DI*%
%TO.N,Net-(ICled14-DO)*%
X149343862Y-54114000D03*
%TO.P,ICled17,4-GND,GND*%
%TO.N,Vss_str1*%
X149343862Y-52624000D03*
%TD*%
%TO.P,ICled16,1-DOUT,DO*%
%TO.N,Net-(ICled16-DO)*%
X150833869Y-50114500D03*
%TO.P,ICled16,2-VDD,VDD*%
%TO.N,Vdd_str1*%
X150833869Y-51604500D03*
%TO.P,ICled16,3-DIN,DI*%
%TO.N,Net-(ICled13-DO)*%
X149343869Y-51604500D03*
%TO.P,ICled16,4-GND,GND*%
%TO.N,Vss_str1*%
X149343869Y-50114500D03*
%TD*%
%TO.P,ICled95,1-DOUT,DO*%
%TO.N,Net-(ICled95-DO)*%
X150833862Y-67684400D03*
%TO.P,ICled95,2-VDD,VDD*%
%TO.N,Vdd_str3*%
X150833862Y-69174400D03*
%TO.P,ICled95,3-DIN,DI*%
%TO.N,Net-(ICled92-DO)*%
X149343862Y-69174400D03*
%TO.P,ICled95,4-GND,GND*%
%TO.N,Vss_str3*%
X149343862Y-67684400D03*
%TD*%
%TO.P,ICled134,1-DOUT,DO*%
%TO.N,Net-(ICled134-DO)*%
X150833862Y-75214600D03*
%TO.P,ICled134,2-VDD,VDD*%
%TO.N,Vdd_str4*%
X150833862Y-76704600D03*
%TO.P,ICled134,3-DIN,DI*%
%TO.N,Net-(ICled131-DO)*%
X149343862Y-76704600D03*
%TO.P,ICled134,4-GND,GND*%
%TO.N,Vss_str4*%
X149343862Y-75214600D03*
%TD*%
%TO.P,ICled106,1-DOUT,DO*%
%TO.N,Net-(ICled106-DO)*%
X160872862Y-65174900D03*
%TO.P,ICled106,2-VDD,VDD*%
%TO.N,Vdd_str3*%
X160872862Y-66664900D03*
%TO.P,ICled106,3-DIN,DI*%
%TO.N,Net-(ICled103-DO)*%
X159382862Y-66664900D03*
%TO.P,ICled106,4-GND,GND*%
%TO.N,Vss_str3*%
X159382862Y-65174900D03*
%TD*%
%TO.P,ICled186,1-DOUT,DO*%
%TO.N,Net-(ICled186-DO)*%
X160872862Y-77725800D03*
%TO.P,ICled186,2-VDD,VDD*%
%TO.N,Vdd_str5*%
X160872862Y-79215800D03*
%TO.P,ICled186,3-DIN,DI*%
%TO.N,Net-(ICled183-DO)*%
X159382862Y-79215800D03*
%TO.P,ICled186,4-GND,GND*%
%TO.N,Vss_str5*%
X159382862Y-77725800D03*
%TD*%
%TO.P,ICled201,1-DOUT,DO*%
%TO.N,Net-(ICled201-DO)*%
X140794862Y-85256000D03*
%TO.P,ICled201,2-VDD,VDD*%
%TO.N,Vdd_str6*%
X140794862Y-86746000D03*
%TO.P,ICled201,3-DIN,DI*%
%TO.N,Net-(ICled198-DO)*%
X139304862Y-86746000D03*
%TO.P,ICled201,4-GND,GND*%
%TO.N,Vss_str6*%
X139304862Y-85256000D03*
%TD*%
%TO.P,ICled232,1-DOUT,DO*%
%TO.N,Net-(ICled196-DI)*%
X168402112Y-85256000D03*
%TO.P,ICled232,2-VDD,VDD*%
%TO.N,Vdd_str6*%
X168402112Y-86746000D03*
%TO.P,ICled232,3-DIN,DI*%
%TO.N,Net-(ICled231-DO)*%
X166912112Y-86746000D03*
%TO.P,ICled232,4-GND,GND*%
%TO.N,Vss_str6*%
X166912112Y-85256000D03*
%TD*%
%TO.P,ICled230,1-DOUT,DO*%
%TO.N,Net-(ICled230-DO)*%
X165892362Y-90275000D03*
%TO.P,ICled230,2-VDD,VDD*%
%TO.N,Vdd_str6*%
X165892362Y-91765000D03*
%TO.P,ICled230,3-DIN,DI*%
%TO.N,Net-(ICled227-DO)*%
X164402362Y-91765000D03*
%TO.P,ICled230,4-GND,GND*%
%TO.N,Vss_str6*%
X164402362Y-90275000D03*
%TD*%
%TO.P,ICled97,1-DOUT,DO*%
%TO.N,Net-(ICled100-DI)*%
X153343612Y-65174900D03*
%TO.P,ICled97,2-VDD,VDD*%
%TO.N,Vdd_str3*%
X153343612Y-66664900D03*
%TO.P,ICled97,3-DIN,DI*%
%TO.N,Net-(ICled94-DO)*%
X151853612Y-66664900D03*
%TO.P,ICled97,4-GND,GND*%
%TO.N,Vss_str3*%
X151853612Y-65174900D03*
%TD*%
%TO.P,ICled148,1-DOUT,DO*%
%TO.N,Net-(ICled148-DO)*%
X163382612Y-72705100D03*
%TO.P,ICled148,2-VDD,VDD*%
%TO.N,Vdd_str4*%
X163382612Y-74195100D03*
%TO.P,ICled148,3-DIN,DI*%
%TO.N,Net-(ICled145-DO)*%
X161892612Y-74195100D03*
%TO.P,ICled148,4-GND,GND*%
%TO.N,Vss_str4*%
X161892612Y-72705100D03*
%TD*%
%TO.P,ICled109,1-DOUT,DO*%
%TO.N,Net-(ICled109-DO)*%
X163382612Y-65174900D03*
%TO.P,ICled109,2-VDD,VDD*%
%TO.N,Vdd_str3*%
X163382612Y-66664900D03*
%TO.P,ICled109,3-DIN,DI*%
%TO.N,Net-(ICled106-DO)*%
X161892612Y-66664900D03*
%TO.P,ICled109,4-GND,GND*%
%TO.N,Vss_str3*%
X161892612Y-65174900D03*
%TD*%
%TO.P,ICled234,1-DOUT,DO*%
%TO.N,dout_led_pwm_6*%
X168402112Y-90275000D03*
%TO.P,ICled234,2-VDD,VDD*%
%TO.N,Vdd_str6*%
X168402112Y-91765000D03*
%TO.P,ICled234,3-DIN,DI*%
%TO.N,Net-(ICled230-DO)*%
X166912112Y-91765000D03*
%TO.P,ICled234,4-GND,GND*%
%TO.N,Vss_str6*%
X166912112Y-90275000D03*
%TD*%
%TO.P,ICled159,1-DOUT,DO*%
%TO.N,Net-(ICled159-DO)*%
X138285112Y-77725800D03*
%TO.P,ICled159,2-VDD,VDD*%
%TO.N,Vdd_str5*%
X138285112Y-79215800D03*
%TO.P,ICled159,3-DIN,DI*%
%TO.N,din_led_pwm_5*%
X136795112Y-79215800D03*
%TO.P,ICled159,4-GND,GND*%
%TO.N,Vss_str5*%
X136795112Y-77725800D03*
%TD*%
%TO.P,ICled67,1-DOUT,DO*%
%TO.N,Net-(ICled67-DO)*%
X160872841Y-57644700D03*
%TO.P,ICled67,2-VDD,VDD*%
%TO.N,Vdd_str2*%
X160872841Y-59134700D03*
%TO.P,ICled67,3-DIN,DI*%
%TO.N,Net-(ICled64-DO)*%
X159382841Y-59134700D03*
%TO.P,ICled67,4-GND,GND*%
%TO.N,Vss_str2*%
X159382841Y-57644700D03*
%TD*%
%TO.P,ICled70,1-DOUT,DO*%
%TO.N,Net-(ICled70-DO)*%
X163382584Y-57644700D03*
%TO.P,ICled70,2-VDD,VDD*%
%TO.N,Vdd_str2*%
X163382584Y-59134700D03*
%TO.P,ICled70,3-DIN,DI*%
%TO.N,Net-(ICled67-DO)*%
X161892584Y-59134700D03*
%TO.P,ICled70,4-GND,GND*%
%TO.N,Vss_str2*%
X161892584Y-57644700D03*
%TD*%
%TO.P,ICled191,1-DOUT,DO*%
%TO.N,Net-(ICled191-DO)*%
X165892362Y-82744800D03*
%TO.P,ICled191,2-VDD,VDD*%
%TO.N,Vdd_str5*%
X165892362Y-84234800D03*
%TO.P,ICled191,3-DIN,DI*%
%TO.N,Net-(ICled188-DO)*%
X164402362Y-84234800D03*
%TO.P,ICled191,4-GND,GND*%
%TO.N,Vss_str5*%
X164402362Y-82744800D03*
%TD*%
%TO.P,ICled46,1-DOUT,DO*%
%TO.N,Net-(ICled46-DO)*%
X143304640Y-57644700D03*
%TO.P,ICled46,2-VDD,VDD*%
%TO.N,Vdd_str2*%
X143304640Y-59134700D03*
%TO.P,ICled46,3-DIN,DI*%
%TO.N,Net-(ICled43-DO)*%
X141814640Y-59134700D03*
%TO.P,ICled46,4-GND,GND*%
%TO.N,Vss_str2*%
X141814640Y-57644700D03*
%TD*%
%TO.P,ICled99,1-DOUT,DO*%
%TO.N,Net-(ICled102-DI)*%
X153343612Y-62665400D03*
%TO.P,ICled99,2-VDD,VDD*%
%TO.N,Vdd_str3*%
X153343612Y-64155400D03*
%TO.P,ICled99,3-DIN,DI*%
%TO.N,Net-(ICled96-DO)*%
X151853612Y-64155400D03*
%TO.P,ICled99,4-GND,GND*%
%TO.N,Vss_str3*%
X151853612Y-62665400D03*
%TD*%
D12*
%TO.P,J4,1,Pin_1*%
%TO.N,Vdd_str4*%
X169850500Y-70760000D03*
%TO.P,J4,2,Pin_2*%
%TO.N,Vss_str4*%
X169850500Y-68220000D03*
%TO.P,J4,3,Pin_3*%
%TO.N,din_led_pwm_4*%
X169850500Y-65680000D03*
%TO.P,J4,4,Pin_4*%
%TO.N,dout_led_pwm_4*%
X169850500Y-63140000D03*
%TD*%
D10*
%TO.P,ICled31,1-DOUT,DO*%
%TO.N,Net-(ICled31-DO)*%
X163382584Y-50114500D03*
%TO.P,ICled31,2-VDD,VDD*%
%TO.N,Vdd_str1*%
X163382584Y-51604500D03*
%TO.P,ICled31,3-DIN,DI*%
%TO.N,Net-(ICled28-DO)*%
X161892584Y-51604500D03*
%TO.P,ICled31,4-GND,GND*%
%TO.N,Vss_str1*%
X161892584Y-50114500D03*
%TD*%
%TO.P,ICled218,1-DOUT,DO*%
%TO.N,Net-(ICled218-DO)*%
X155853362Y-90275000D03*
%TO.P,ICled218,2-VDD,VDD*%
%TO.N,Vdd_str6*%
X155853362Y-91765000D03*
%TO.P,ICled218,3-DIN,DI*%
%TO.N,Net-(ICled215-DO)*%
X154363362Y-91765000D03*
%TO.P,ICled218,4-GND,GND*%
%TO.N,Vss_str6*%
X154363362Y-90275000D03*
%TD*%
D11*
%TO.P,C10,1*%
%TO.N,Vdd_str5*%
X135450000Y-79450000D03*
%TO.P,C10,2*%
%TO.N,Vss_str5*%
X135450000Y-81350000D03*
%TD*%
D10*
%TO.P,ICled3,1-DOUT,DO*%
%TO.N,Net-(ICled3-DO)*%
X138285278Y-47605000D03*
%TO.P,ICled3,2-VDD,VDD*%
%TO.N,Vdd_str1*%
X138285278Y-49095000D03*
%TO.P,ICled3,3-DIN,DI*%
%TO.N,din_led_pwm_1*%
X136795278Y-49095000D03*
%TO.P,ICled3,4-GND,GND*%
%TO.N,Vss_str1*%
X136795278Y-47605000D03*
%TD*%
%TO.P,ICled110,1-DOUT,DO*%
%TO.N,Net-(ICled110-DO)*%
X163382612Y-67684400D03*
%TO.P,ICled110,2-VDD,VDD*%
%TO.N,Vdd_str3*%
X163382612Y-69174400D03*
%TO.P,ICled110,3-DIN,DI*%
%TO.N,Net-(ICled107-DO)*%
X161892612Y-69174400D03*
%TO.P,ICled110,4-GND,GND*%
%TO.N,Vss_str3*%
X161892612Y-67684400D03*
%TD*%
%TO.P,ICled157,1-DOUT,DO*%
%TO.N,Net-(ICled157-DO)*%
X138285112Y-80235300D03*
%TO.P,ICled157,2-VDD,VDD*%
%TO.N,Vdd_str5*%
X138285112Y-81725300D03*
%TO.P,ICled157,3-DIN,DI*%
%TO.N,Net-(ICled157-DI)*%
X136795112Y-81725300D03*
%TO.P,ICled157,4-GND,GND*%
%TO.N,Vss_str5*%
X136795112Y-80235300D03*
%TD*%
D13*
%TO.P,C11,1*%
%TO.N,Vdd_str6*%
X169800000Y-77925000D03*
%TO.P,C11,2*%
%TO.N,Vss_str6*%
X169800000Y-76025000D03*
%TD*%
D12*
%TO.P,J1,1,Pin_1*%
%TO.N,Vdd_str1*%
X135350000Y-46290000D03*
%TO.P,J1,2,Pin_2*%
%TO.N,Vss_str1*%
X135350000Y-48830000D03*
%TO.P,J1,3,Pin_3*%
%TO.N,din_led_pwm_1*%
X135350000Y-51370000D03*
%TO.P,J1,4,Pin_4*%
%TO.N,dout_led_pwm_1*%
X135350000Y-53910000D03*
%TD*%
D10*
%TO.P,ICled166,1-DOUT,DO*%
%TO.N,Net-(ICled166-DO)*%
X145814362Y-80235300D03*
%TO.P,ICled166,2-VDD,VDD*%
%TO.N,Vdd_str5*%
X145814362Y-81725300D03*
%TO.P,ICled166,3-DIN,DI*%
%TO.N,Net-(ICled163-DO)*%
X144324362Y-81725300D03*
%TO.P,ICled166,4-GND,GND*%
%TO.N,Vss_str5*%
X144324362Y-80235300D03*
%TD*%
%TO.P,ICled142,1-DOUT,DO*%
%TO.N,Net-(ICled142-DO)*%
X158363112Y-72705100D03*
%TO.P,ICled142,2-VDD,VDD*%
%TO.N,Vdd_str4*%
X158363112Y-74195100D03*
%TO.P,ICled142,3-DIN,DI*%
%TO.N,Net-(ICled139-DO)*%
X156873112Y-74195100D03*
%TO.P,ICled142,4-GND,GND*%
%TO.N,Vss_str4*%
X156873112Y-72705100D03*
%TD*%
%TO.P,ICled49,1-DOUT,DO*%
%TO.N,Net-(ICled49-DO)*%
X145814383Y-57644700D03*
%TO.P,ICled49,2-VDD,VDD*%
%TO.N,Vdd_str2*%
X145814383Y-59134700D03*
%TO.P,ICled49,3-DIN,DI*%
%TO.N,Net-(ICled46-DO)*%
X144324383Y-59134700D03*
%TO.P,ICled49,4-GND,GND*%
%TO.N,Vss_str2*%
X144324383Y-57644700D03*
%TD*%
%TO.P,ICled126,1-DOUT,DO*%
%TO.N,Net-(ICled126-DO)*%
X143304612Y-70195600D03*
%TO.P,ICled126,2-VDD,VDD*%
%TO.N,Vdd_str4*%
X143304612Y-71685600D03*
%TO.P,ICled126,3-DIN,DI*%
%TO.N,Net-(ICled123-DO)*%
X141814612Y-71685600D03*
%TO.P,ICled126,4-GND,GND*%
%TO.N,Vss_str4*%
X141814612Y-70195600D03*
%TD*%
%TO.P,ICled167,1-DOUT,DO*%
%TO.N,Net-(ICled167-DO)*%
X145814362Y-82744800D03*
%TO.P,ICled167,2-VDD,VDD*%
%TO.N,Vdd_str5*%
X145814362Y-84234800D03*
%TO.P,ICled167,3-DIN,DI*%
%TO.N,Net-(ICled164-DO)*%
X144324362Y-84234800D03*
%TO.P,ICled167,4-GND,GND*%
%TO.N,Vss_str5*%
X144324362Y-82744800D03*
%TD*%
%TO.P,ICled71,1-DOUT,DO*%
%TO.N,Net-(ICled71-DO)*%
X163382612Y-60154200D03*
%TO.P,ICled71,2-VDD,VDD*%
%TO.N,Vdd_str2*%
X163382612Y-61644200D03*
%TO.P,ICled71,3-DIN,DI*%
%TO.N,Net-(ICled68-DO)*%
X161892612Y-61644200D03*
%TO.P,ICled71,4-GND,GND*%
%TO.N,Vss_str2*%
X161892612Y-60154200D03*
%TD*%
%TO.P,ICled14,1-DOUT,DO*%
%TO.N,Net-(ICled14-DO)*%
X148324112Y-52624000D03*
%TO.P,ICled14,2-VDD,VDD*%
%TO.N,Vdd_str1*%
X148324112Y-54114000D03*
%TO.P,ICled14,3-DIN,DI*%
%TO.N,Net-(ICled11-DO)*%
X146834112Y-54114000D03*
%TO.P,ICled14,4-GND,GND*%
%TO.N,Vss_str1*%
X146834112Y-52624000D03*
%TD*%
%TO.P,ICled72,1-DOUT,DO*%
%TO.N,Net-(ICled72-DO)*%
X163382772Y-55135200D03*
%TO.P,ICled72,2-VDD,VDD*%
%TO.N,Vdd_str2*%
X163382772Y-56625200D03*
%TO.P,ICled72,3-DIN,DI*%
%TO.N,Net-(ICled69-DO)*%
X161892772Y-56625200D03*
%TO.P,ICled72,4-GND,GND*%
%TO.N,Vss_str2*%
X161892772Y-55135200D03*
%TD*%
%TO.P,ICled118,1-DOUT,DO*%
%TO.N,Net-(ICled118-DO)*%
X138285112Y-72705100D03*
%TO.P,ICled118,2-VDD,VDD*%
%TO.N,Vdd_str4*%
X138285112Y-74195100D03*
%TO.P,ICled118,3-DIN,DI*%
%TO.N,Net-(ICled118-DI)*%
X136795112Y-74195100D03*
%TO.P,ICled118,4-GND,GND*%
%TO.N,Vss_str4*%
X136795112Y-72705100D03*
%TD*%
%TO.P,ICled177,1-DOUT,DO*%
%TO.N,Net-(ICled177-DO)*%
X153343612Y-77725800D03*
%TO.P,ICled177,2-VDD,VDD*%
%TO.N,Vdd_str5*%
X153343612Y-79215800D03*
%TO.P,ICled177,3-DIN,DI*%
%TO.N,Net-(ICled174-DO)*%
X151853612Y-79215800D03*
%TO.P,ICled177,4-GND,GND*%
%TO.N,Vss_str5*%
X151853612Y-77725800D03*
%TD*%
%TO.P,ICled88,1-DOUT,DO*%
%TO.N,Net-(ICled88-DO)*%
X145814362Y-65174900D03*
%TO.P,ICled88,2-VDD,VDD*%
%TO.N,Vdd_str3*%
X145814362Y-66664900D03*
%TO.P,ICled88,3-DIN,DI*%
%TO.N,Net-(ICled85-DO)*%
X144324362Y-66664900D03*
%TO.P,ICled88,4-GND,GND*%
%TO.N,Vss_str3*%
X144324362Y-65174900D03*
%TD*%
D15*
%TO.N,Vss_str1*%
X136251352Y-52736215D03*
X164800000Y-53050000D03*
X144730000Y-48170000D03*
X154513213Y-48296785D03*
X147068722Y-50761278D03*
X152160000Y-53280000D03*
X152060000Y-48299998D03*
X154610000Y-53260000D03*
X147040000Y-48299998D03*
X159610000Y-50809498D03*
X139520000Y-48230000D03*
X159510000Y-53250000D03*
X142120000Y-53240000D03*
X157262876Y-53321230D03*
X157060000Y-48299998D03*
X139544108Y-50765892D03*
X157101876Y-50755459D03*
X161990000Y-53250000D03*
X149721439Y-53320179D03*
X137630139Y-46770139D03*
X142324906Y-50840944D03*
X139560000Y-53090000D03*
X167156946Y-48140000D03*
X144523851Y-50726149D03*
X152083465Y-50756535D03*
X162200000Y-48299998D03*
X149580000Y-50809498D03*
X167390000Y-53060000D03*
X154514821Y-50807890D03*
X149580000Y-48299998D03*
X137643987Y-50801324D03*
X142230000Y-48120000D03*
X167390000Y-50809498D03*
X162232951Y-50809498D03*
X159610000Y-48299998D03*
X164900000Y-47830000D03*
X147230000Y-53290000D03*
X164690000Y-50770000D03*
X144500000Y-53230000D03*
%TO.N,Vdd_str1*%
X137682414Y-51910092D03*
X147979252Y-53419002D03*
X155420000Y-48440000D03*
X137674952Y-54422866D03*
X152960000Y-53540000D03*
X147990000Y-48440000D03*
X143013469Y-51138238D03*
X142872411Y-48507055D03*
X147990000Y-50909502D03*
X150466552Y-53418448D03*
X155370000Y-53560000D03*
X150469164Y-50909070D03*
X165419386Y-50944642D03*
X145270000Y-53610000D03*
X168559138Y-51000000D03*
X142924906Y-53470000D03*
X152860000Y-50920000D03*
X141290000Y-46430000D03*
X150470000Y-48510000D03*
X145470000Y-48400002D03*
X158030000Y-51010000D03*
X155419857Y-50900714D03*
X160540000Y-50920000D03*
X167240000Y-46020000D03*
X163060000Y-51150000D03*
X158030000Y-48400002D03*
X165290000Y-48740000D03*
X140329291Y-53402548D03*
X160540000Y-48470000D03*
X140330000Y-50980000D03*
X167910000Y-53840000D03*
X163060000Y-48450000D03*
X158020000Y-53470000D03*
X140330000Y-48510000D03*
X138179999Y-48577539D03*
X145240944Y-50945880D03*
X162970000Y-53620000D03*
X152860000Y-48380000D03*
X167800000Y-48691706D03*
X160490000Y-53500000D03*
X165460000Y-53860000D03*
%TO.N,Vdd_str2*%
X140500000Y-55930202D03*
X150395672Y-55920456D03*
X137817043Y-55917043D03*
X142796172Y-58408961D03*
X167707114Y-61600000D03*
X137791612Y-60923993D03*
X148000000Y-61000000D03*
X167808379Y-56212466D03*
X165640334Y-61050790D03*
X152895707Y-55918279D03*
X155775547Y-61024453D03*
X160675161Y-58524839D03*
X163200000Y-58500000D03*
X142800000Y-61000000D03*
X158065547Y-60949202D03*
X140500000Y-58439702D03*
X138000000Y-58439702D03*
X140394307Y-60945759D03*
X160498053Y-55929205D03*
X153080398Y-58459304D03*
X145400000Y-58600000D03*
X160700000Y-60949202D03*
X148100000Y-58500000D03*
X157900000Y-56000000D03*
X145396008Y-55924204D03*
X165684904Y-58515096D03*
X155665418Y-58534582D03*
X147895777Y-55922434D03*
X153100000Y-60949202D03*
X145200000Y-61500000D03*
X162920386Y-55978025D03*
X155395892Y-55915910D03*
X150500000Y-61000000D03*
X142799666Y-55900881D03*
X167845643Y-58511685D03*
X150555675Y-58444325D03*
X163000000Y-61000000D03*
X165500000Y-56000000D03*
X158200000Y-58600000D03*
X135400000Y-56900000D03*
%TO.N,Vss_str2*%
X144800000Y-60700000D03*
X147278854Y-60793958D03*
X139700000Y-55700000D03*
X164800000Y-55600000D03*
X154700000Y-60849198D03*
X154608009Y-55791991D03*
X149700000Y-60800000D03*
X152309386Y-60863045D03*
X149600000Y-58339698D03*
X149600000Y-55800000D03*
X162100000Y-58339698D03*
X136900000Y-60800000D03*
X147000000Y-55830198D03*
X142000000Y-55700000D03*
X164507851Y-58292149D03*
X164806189Y-60853060D03*
X159700000Y-60700000D03*
X142078854Y-60793958D03*
X167390000Y-55590000D03*
X169640000Y-52380000D03*
X136400000Y-55700000D03*
X139900000Y-60000000D03*
X144600000Y-58339698D03*
X152100000Y-58300000D03*
X137390000Y-58000000D03*
X144600000Y-55830198D03*
X157059325Y-55733517D03*
X167130000Y-58287277D03*
X142000000Y-58339698D03*
X159600000Y-55830198D03*
X159700000Y-58339698D03*
X167305181Y-60851774D03*
X154608009Y-58300000D03*
X139707281Y-58343372D03*
X147000000Y-58339698D03*
X162170390Y-55830198D03*
X157320743Y-60861058D03*
X152100000Y-55830198D03*
X162259708Y-60849741D03*
X157059325Y-58339698D03*
X169800000Y-56800000D03*
%TO.N,Vss_str3*%
X142000000Y-65869898D03*
X169300000Y-61900000D03*
X139650000Y-65860000D03*
X152200099Y-65869901D03*
X157200000Y-63360398D03*
X142203684Y-63362562D03*
X157200000Y-68200000D03*
X157200000Y-65869898D03*
X147300000Y-63300000D03*
X167563741Y-68413826D03*
X164700000Y-63360398D03*
X167300000Y-63300000D03*
X149701070Y-65800000D03*
X162100000Y-65869898D03*
X167100000Y-65869898D03*
X152200000Y-63300000D03*
X136000110Y-59900000D03*
X162326285Y-63369221D03*
X147000000Y-65800000D03*
X144700000Y-63300000D03*
X147200000Y-68300000D03*
X154600000Y-68379398D03*
X139600000Y-68379398D03*
X164802116Y-68382742D03*
X142200000Y-68300000D03*
X152200000Y-68300000D03*
X144700000Y-68300000D03*
X159700000Y-63300000D03*
X159700000Y-68300000D03*
X154700000Y-63300000D03*
X149800000Y-68300000D03*
X164700000Y-65800000D03*
X162321353Y-68387259D03*
X139700000Y-63000000D03*
X144702109Y-65871092D03*
X137200000Y-63300000D03*
X159700000Y-65869898D03*
X154700000Y-65869898D03*
X149701070Y-63360565D03*
X137350000Y-68000000D03*
%TO.N,Vdd_str3*%
X155300000Y-66450000D03*
X147700000Y-69350000D03*
X145421146Y-63506042D03*
X137911515Y-63537172D03*
X157997215Y-63459916D03*
X147800000Y-66100000D03*
X165200000Y-69300000D03*
X155200000Y-68900000D03*
X145119364Y-69300000D03*
X152933063Y-66028857D03*
X137800000Y-68600000D03*
X148011515Y-63537171D03*
X169200000Y-60000000D03*
X160300000Y-66400000D03*
X157993409Y-65969222D03*
X138050000Y-66033803D03*
X160434715Y-63450656D03*
X145445566Y-65969960D03*
X167707114Y-69149997D03*
X162709566Y-66306857D03*
X152700000Y-69300000D03*
X167721107Y-63920623D03*
X153000000Y-63500000D03*
X140383987Y-66014166D03*
X142980697Y-63460402D03*
X150436579Y-63507297D03*
X160200000Y-68900000D03*
X155421146Y-63506042D03*
X157668523Y-68785653D03*
X150436579Y-66000000D03*
X140200000Y-69300000D03*
X142609614Y-69300000D03*
X163099898Y-63460504D03*
X165500000Y-63500000D03*
X150200000Y-69000000D03*
X162800000Y-69200000D03*
X140316542Y-63440199D03*
X165500000Y-66100000D03*
X142785385Y-65934805D03*
X167707114Y-66400000D03*
%TO.N,Vdd_str4*%
X167705234Y-71299520D03*
X160536085Y-73504857D03*
X145119364Y-76600000D03*
X138000000Y-71000000D03*
X142900000Y-71000000D03*
X168100000Y-76200000D03*
X165500000Y-71100000D03*
X147839817Y-73523280D03*
X160200000Y-76600000D03*
X137911515Y-76037171D03*
X153000000Y-73600000D03*
X160500000Y-71100000D03*
X135400000Y-73800000D03*
X145400000Y-71000000D03*
X157800000Y-73800000D03*
X165300000Y-76600000D03*
X140170823Y-76235411D03*
X147900000Y-71100000D03*
X155400000Y-71000000D03*
X140411515Y-73637171D03*
X152700000Y-76900000D03*
X155346722Y-73470069D03*
X157700000Y-76800000D03*
X155300000Y-76700000D03*
X162978474Y-73662868D03*
X165510918Y-73501483D03*
X137600000Y-73400000D03*
X163000000Y-71000000D03*
X145500000Y-73500102D03*
X142609614Y-73900000D03*
X158000000Y-71000000D03*
X162700000Y-76500000D03*
X150300000Y-74461149D03*
X142800000Y-76400000D03*
X150500000Y-71000000D03*
X140300000Y-71000000D03*
X168900000Y-73900000D03*
X147700000Y-76700000D03*
X153000000Y-71000000D03*
X150200000Y-76600000D03*
%TO.N,Vss_str4*%
X159792785Y-73404806D03*
X136200000Y-73400000D03*
X137200000Y-75800000D03*
X139900000Y-70000000D03*
X152400000Y-75600000D03*
X154600000Y-70890598D03*
X167023834Y-73358754D03*
X157200000Y-70890598D03*
X144649997Y-70890598D03*
X137400000Y-70000000D03*
X162400000Y-75700000D03*
X162275417Y-73401689D03*
X152200030Y-73400000D03*
X164763230Y-70890878D03*
X154600000Y-73400000D03*
X144708593Y-73401812D03*
X144900000Y-75800000D03*
X162260202Y-70876700D03*
X149600000Y-75800000D03*
X167027790Y-75872210D03*
X159900000Y-75800000D03*
X139700000Y-73400000D03*
X169267172Y-72012929D03*
X154800000Y-75900000D03*
X164767737Y-73400560D03*
X147400000Y-75800000D03*
X159778906Y-70893503D03*
X157500000Y-76000000D03*
X166982589Y-70808009D03*
X142000000Y-73400000D03*
X164900000Y-75900000D03*
X157200000Y-73300000D03*
X142200000Y-75900000D03*
X142000000Y-70890598D03*
X147100000Y-70890598D03*
X149700000Y-70800000D03*
X139500000Y-75900000D03*
X147100000Y-73400098D03*
X149703171Y-73400326D03*
X152200030Y-70890601D03*
%TO.N,Net-(ICled2-DI)*%
X136960000Y-53570000D03*
X167800000Y-49890000D03*
%TO.N,Net-(ICled1-DI)*%
X136800000Y-50909502D03*
X168658737Y-47098253D03*
%TO.N,Net-(ICled41-DI)*%
X168800000Y-58300000D03*
X137400000Y-61800000D03*
%TO.N,Vdd_str5*%
X142842465Y-81100000D03*
X165300000Y-84000000D03*
X160441526Y-78512442D03*
X137600000Y-83800000D03*
X145119364Y-84300000D03*
X142800000Y-83700000D03*
X168035570Y-78609069D03*
X160300000Y-81400000D03*
X137700000Y-81000000D03*
X165498004Y-81100000D03*
X152752732Y-80957185D03*
X155339798Y-81200000D03*
X145275981Y-81200000D03*
X155158364Y-84300000D03*
X147845744Y-81010084D03*
X140099864Y-83985653D03*
X157700000Y-84400000D03*
X140397933Y-78517795D03*
X157849418Y-81000303D03*
X152648614Y-84000000D03*
X147845247Y-78505120D03*
X138090747Y-78609253D03*
X162700000Y-84300000D03*
X136045671Y-78673496D03*
X157846185Y-78519383D03*
X150421146Y-78606042D03*
X142842465Y-78506066D03*
X150200000Y-83600000D03*
X155339798Y-78523300D03*
X167707114Y-81800000D03*
X163039222Y-78526703D03*
X167707114Y-84249997D03*
X160200000Y-84400000D03*
X147668523Y-83985653D03*
X140100000Y-81200000D03*
X163039222Y-81100000D03*
X165498004Y-78518086D03*
X150445629Y-81028335D03*
X145275981Y-78516564D03*
X152869483Y-78501876D03*
%TO.N,Vss_str5*%
X164700000Y-78420798D03*
X144603590Y-83396410D03*
X152003339Y-80926959D03*
X164800000Y-83300000D03*
X159711647Y-83439798D03*
X149702036Y-80930492D03*
X147200000Y-83400000D03*
X142000000Y-83400000D03*
X157102690Y-78420798D03*
X167107114Y-80900000D03*
X147100000Y-78420798D03*
X167308816Y-78423779D03*
X137300000Y-77900000D03*
X141968690Y-80930298D03*
X152100000Y-78300000D03*
X149700000Y-78400000D03*
X149500000Y-83300000D03*
X144543190Y-78356810D03*
X154600000Y-78400000D03*
X154600000Y-80930298D03*
X162300000Y-83400000D03*
X167200000Y-83400000D03*
X139600000Y-83400000D03*
X159700000Y-80900000D03*
X139328964Y-80801334D03*
X139600000Y-78400000D03*
X154600000Y-83400000D03*
X162300000Y-80900000D03*
X136000000Y-82200000D03*
X144423565Y-80876435D03*
X147100000Y-80930298D03*
X157102690Y-80930298D03*
X164700000Y-80930298D03*
X142100000Y-78400000D03*
X135800000Y-76800000D03*
X157200000Y-83400000D03*
X159700000Y-78400000D03*
X162300000Y-78400000D03*
X152100000Y-83400000D03*
%TO.N,Vdd_str6*%
X143021146Y-91106042D03*
X157800000Y-86100000D03*
X160409617Y-88703290D03*
X157839031Y-88607819D03*
X168457784Y-86090745D03*
X140400000Y-86100000D03*
X152798083Y-86003851D03*
X155404208Y-88548281D03*
X142900000Y-88700000D03*
X148053464Y-91070002D03*
X160300000Y-86100000D03*
X140200000Y-89000000D03*
X150296337Y-86007738D03*
X145459518Y-88560394D03*
X165652148Y-91117854D03*
X137895100Y-86048744D03*
X168100000Y-91100000D03*
X150521146Y-91106042D03*
X145543899Y-91106909D03*
X165494318Y-88600000D03*
X152798083Y-88600000D03*
X169200000Y-80300000D03*
X137796559Y-88738543D03*
X142900000Y-86100000D03*
X167707261Y-89140778D03*
X155616605Y-91121311D03*
X163100000Y-88600000D03*
X162900000Y-86100000D03*
X145300000Y-86100000D03*
X153121146Y-91106042D03*
X158200000Y-91070002D03*
X165494318Y-86047864D03*
X162968523Y-91485653D03*
X147987427Y-88687023D03*
X160511515Y-91137171D03*
X140441242Y-91069919D03*
X150296337Y-88700000D03*
X137970823Y-91135411D03*
X155390421Y-86035271D03*
X148000000Y-86100000D03*
%TO.N,Net-(ICled116-DO)*%
X136125166Y-69539297D03*
X167800000Y-64900000D03*
%TO.N,Vss_str6*%
X142100000Y-85800000D03*
X137400000Y-85400000D03*
X152048096Y-85950998D03*
X139600000Y-88400000D03*
X144803016Y-90990305D03*
X152400000Y-90900000D03*
X159700000Y-88460498D03*
X157400000Y-90900000D03*
X167500000Y-88400000D03*
X166994965Y-90905035D03*
X137300000Y-90800000D03*
X162160202Y-85950998D03*
X157103640Y-85821455D03*
X139700000Y-90900000D03*
X164746091Y-88460498D03*
X164803322Y-90973491D03*
X159800000Y-90900000D03*
X169800000Y-80800000D03*
X142300000Y-90900000D03*
X152048096Y-88400000D03*
X154659360Y-88460498D03*
X149558283Y-88400000D03*
X164746091Y-85950998D03*
X149800000Y-90900000D03*
X159579316Y-85892350D03*
X167727364Y-85920483D03*
X162500000Y-90900000D03*
X162300000Y-88400000D03*
X144713550Y-88462673D03*
X142100000Y-88460498D03*
X144560202Y-85950998D03*
X147269603Y-88469691D03*
X137100000Y-88460498D03*
X154659360Y-85867778D03*
X139900000Y-85200000D03*
X147303582Y-90987555D03*
X147263381Y-85958960D03*
X157103640Y-88460498D03*
X169700000Y-76800000D03*
X154900000Y-90900000D03*
X149558283Y-85874396D03*
%TO.N,Net-(ICled119-DI)*%
X167707114Y-72400000D03*
X137362778Y-76989748D03*
%TO.N,din_led_pwm_1*%
X136637651Y-48400000D03*
%TO.N,Net-(ICled158-DI)*%
X136896580Y-83539800D03*
X167707114Y-79900000D03*
%TO.N,Net-(ICled197-DI)*%
X136550002Y-91070002D03*
X167707114Y-87500000D03*
%TO.N,Net-(ICled40-DI)*%
X167858523Y-54960000D03*
X136790000Y-58570000D03*
%TO.N,dout_led_pwm_1*%
X167959138Y-52388716D03*
%TO.N,din_led_pwm_2*%
X136262468Y-56693799D03*
%TO.N,dout_led_pwm_2*%
X167707114Y-60130000D03*
X168310000Y-46130000D03*
%TO.N,Net-(ICled118-DI)*%
X137369657Y-74482546D03*
X167707114Y-69900000D03*
%TO.N,din_led_pwm_3*%
X136122004Y-64521928D03*
%TO.N,Net-(ICled115-DO)*%
X137300000Y-66600000D03*
X167771245Y-62347255D03*
%TO.N,dout_led_pwm_3*%
X167705343Y-67299525D03*
%TO.N,Net-(ICled157-DI)*%
X136800000Y-81100000D03*
X167707114Y-77400000D03*
%TO.N,din_led_pwm_5*%
X137491885Y-79600723D03*
%TO.N,din_led_pwm_4*%
X136550002Y-71100000D03*
%TO.N,dout_led_pwm_4*%
X167707114Y-75000000D03*
X169197114Y-66978552D03*
X169300000Y-64300000D03*
%TO.N,Net-(ICled196-DI)*%
X167707114Y-85000000D03*
X135402182Y-89820000D03*
%TO.N,dout_led_pwm_6*%
X167705401Y-89890778D03*
%TD*%
D16*
%TO.N,Vss_str1*%
X154363332Y-47334722D02*
X154363332Y-47605000D01*
X146834112Y-52624000D02*
X146834112Y-52894112D01*
X159510000Y-52751138D02*
X159382862Y-52624000D01*
X136795278Y-47605000D02*
X137630139Y-46770139D01*
X166911946Y-47895000D02*
X167156946Y-48140000D01*
X159382841Y-50114500D02*
X159382841Y-50582339D01*
X161990000Y-52721388D02*
X161892612Y-52624000D01*
X156873054Y-48113052D02*
X157060000Y-48299998D01*
X164402327Y-50114500D02*
X164402327Y-50482327D01*
X139560000Y-53090000D02*
X139560000Y-52879138D01*
X144500000Y-52799638D02*
X144324362Y-52624000D01*
X161892498Y-47334722D02*
X161892498Y-47605000D01*
X144324444Y-47605000D02*
X144324444Y-47764444D01*
X152498610Y-46960000D02*
X153988610Y-46960000D01*
X161517776Y-46960000D02*
X161892498Y-47334722D01*
X146834112Y-52894112D02*
X147230000Y-53290000D01*
X138200278Y-46200000D02*
X138620000Y-46200000D01*
X149988888Y-46960000D02*
X151478888Y-46960000D01*
X164402327Y-50482327D02*
X164690000Y-50770000D01*
X159382841Y-50582339D02*
X159610000Y-50809498D01*
X151853610Y-47605000D02*
X152498610Y-46960000D01*
X166911946Y-47605000D02*
X166911946Y-47895000D01*
X164900000Y-47830000D02*
X164627220Y-47830000D01*
X166912112Y-52624000D02*
X166954000Y-52624000D01*
X166911946Y-47605000D02*
X166935000Y-47605000D01*
X166912071Y-50114500D02*
X166912071Y-50331569D01*
X141814722Y-47605000D02*
X141814722Y-47704722D01*
X149721439Y-53001577D02*
X149343862Y-52624000D01*
X154363362Y-52624000D02*
X154363362Y-53013362D01*
X147479166Y-46960000D02*
X148969166Y-46960000D01*
X139304897Y-50526681D02*
X139544108Y-50765892D01*
X154363332Y-48146904D02*
X154513213Y-48296785D01*
X146530000Y-46960000D02*
X146834166Y-47264166D01*
X157262876Y-53013764D02*
X156873112Y-52624000D01*
X144324383Y-50114500D02*
X144324383Y-50526681D01*
X161892498Y-47992496D02*
X162200000Y-48299998D01*
X141814722Y-47605000D02*
X142459722Y-46960000D01*
X159382776Y-47605000D02*
X160027776Y-46960000D01*
X154363332Y-47605000D02*
X155008332Y-46960000D01*
X149343888Y-48063886D02*
X149580000Y-48299998D01*
X159510000Y-53250000D02*
X159510000Y-52751138D01*
X137630139Y-46770139D02*
X138200278Y-46200000D01*
X161892498Y-47605000D02*
X161892498Y-47992496D01*
X164402362Y-52624000D02*
X164402362Y-52652362D01*
X154363362Y-53013362D02*
X154610000Y-53260000D01*
X156873054Y-47605000D02*
X157518054Y-46960000D01*
X151853612Y-52973612D02*
X152160000Y-53280000D01*
X164402220Y-47334722D02*
X164402220Y-47605000D01*
X159382776Y-47605000D02*
X159382776Y-48072774D01*
X161892584Y-50469131D02*
X162232951Y-50809498D01*
X141814722Y-47704722D02*
X142230000Y-48120000D01*
X144324383Y-50526681D02*
X144523851Y-50726149D01*
X144969444Y-46960000D02*
X146530000Y-46960000D01*
X164402220Y-47605000D02*
X164402220Y-46467780D01*
X164627220Y-47830000D02*
X164402220Y-47605000D01*
X146834166Y-47605000D02*
X147479166Y-46960000D01*
X161892584Y-50114500D02*
X161892584Y-50469131D01*
X159382776Y-48072774D02*
X159610000Y-48299998D01*
X154363355Y-50114500D02*
X154363355Y-50656424D01*
X155008332Y-46960000D02*
X156498332Y-46960000D01*
X160027776Y-46960000D02*
X161517776Y-46960000D01*
X162537498Y-46960000D02*
X164027498Y-46960000D01*
X149343888Y-47605000D02*
X149988888Y-46960000D01*
X151853610Y-47334722D02*
X151853610Y-47605000D01*
X151853610Y-48093608D02*
X152060000Y-48299998D01*
X156873054Y-47605000D02*
X156873054Y-48113052D01*
X146834166Y-48094164D02*
X147040000Y-48299998D01*
X141814640Y-50330678D02*
X142324906Y-50840944D01*
X156873054Y-47334722D02*
X156873054Y-47605000D01*
X139305000Y-48015000D02*
X139520000Y-48230000D01*
X139304897Y-50114500D02*
X139304897Y-50526681D01*
X142459722Y-46960000D02*
X143990000Y-46960000D01*
X146834166Y-47264166D02*
X146834166Y-47605000D01*
X141814640Y-50114500D02*
X141814640Y-50330678D01*
X157518054Y-46960000D02*
X159008054Y-46960000D01*
X149343869Y-50114500D02*
X149343869Y-50573367D01*
X134600000Y-48830000D02*
X135825000Y-47605000D01*
X146834166Y-47605000D02*
X146834166Y-48094164D01*
X149343869Y-50573367D02*
X149580000Y-50809498D01*
X166954000Y-52624000D02*
X167390000Y-53060000D01*
X156498332Y-46960000D02*
X156873054Y-47334722D01*
X135825000Y-47605000D02*
X136795278Y-47605000D01*
X144324444Y-47605000D02*
X144969444Y-46960000D01*
X143990000Y-46960000D02*
X144324444Y-47294444D01*
X151853612Y-50114500D02*
X151853612Y-50526682D01*
X159008054Y-46960000D02*
X159382776Y-47334722D01*
X153988610Y-46960000D02*
X154363332Y-47334722D01*
X144324444Y-47764444D02*
X144730000Y-48170000D01*
X151478888Y-46960000D02*
X151853610Y-47334722D01*
X161990000Y-53250000D02*
X161990000Y-52721388D01*
X149343888Y-47605000D02*
X149343888Y-48063886D01*
X151853612Y-50526682D02*
X152083465Y-50756535D01*
X159382776Y-47334722D02*
X159382776Y-47605000D01*
X136795154Y-50114500D02*
X136957163Y-50114500D01*
X156873098Y-50114500D02*
X156873098Y-50526681D01*
X136795112Y-52624000D02*
X136363567Y-52624000D01*
X149343888Y-47334722D02*
X149343888Y-47605000D01*
X166912071Y-50331569D02*
X167390000Y-50809498D01*
X164027498Y-46960000D02*
X164402220Y-47334722D01*
X144500000Y-53230000D02*
X144500000Y-52799638D01*
X164402220Y-46467780D02*
X164670000Y-46200000D01*
X139305000Y-47605000D02*
X139305000Y-46885000D01*
X154363355Y-50656424D02*
X154514821Y-50807890D01*
X139305000Y-46885000D02*
X138620000Y-46200000D01*
X148969166Y-46960000D02*
X149343888Y-47334722D01*
X156873098Y-50526681D02*
X157101876Y-50755459D01*
X139560000Y-52879138D02*
X139304862Y-52624000D01*
X139305000Y-47605000D02*
X139305000Y-48015000D01*
X142120000Y-53240000D02*
X142120000Y-52929388D01*
X149721439Y-53320179D02*
X149721439Y-53001577D01*
X151853612Y-52624000D02*
X151853612Y-52973612D01*
X146834126Y-50526682D02*
X147068722Y-50761278D01*
X157262876Y-53321230D02*
X157262876Y-53013764D01*
X136363567Y-52624000D02*
X136251352Y-52736215D01*
X151853610Y-47605000D02*
X151853610Y-48093608D01*
X164402362Y-52652362D02*
X164800000Y-53050000D01*
X154363332Y-47605000D02*
X154363332Y-48146904D01*
X136957163Y-50114500D02*
X137643987Y-50801324D01*
X146834126Y-50114500D02*
X146834126Y-50526682D01*
X142120000Y-52929388D02*
X141814612Y-52624000D01*
X161892498Y-47605000D02*
X162537498Y-46960000D01*
X144324444Y-47294444D02*
X144324444Y-47605000D01*
%TO.N,Vdd_str1*%
X166666946Y-46200000D02*
X167756946Y-47290000D01*
X166570000Y-46200000D02*
X166666946Y-46200000D01*
X167240000Y-46020000D02*
X166750000Y-46020000D01*
X150833869Y-51273775D02*
X150469164Y-50909070D01*
X138285278Y-49095000D02*
X138285278Y-48682818D01*
X155370000Y-53630638D02*
X155853362Y-54114000D01*
X152960000Y-53540000D02*
X152960000Y-53730388D01*
X158363098Y-51343098D02*
X158030000Y-51010000D01*
X145814444Y-48744446D02*
X145470000Y-48400002D01*
X168203294Y-49095000D02*
X167800000Y-48691706D01*
X150833888Y-48873888D02*
X150470000Y-48510000D01*
X160490000Y-53731138D02*
X160872862Y-54114000D01*
X140690862Y-54010000D02*
X140794862Y-54114000D01*
X147979252Y-53769140D02*
X148324112Y-54114000D01*
X143304722Y-49095000D02*
X143304722Y-48939366D01*
X168402071Y-51157067D02*
X168559138Y-51000000D01*
X145310362Y-53610000D02*
X145814362Y-54114000D01*
X147979252Y-53419002D02*
X147979252Y-53769140D01*
X162970000Y-53620000D02*
X162970000Y-53701388D01*
X163382584Y-51604500D02*
X163382584Y-51472584D01*
X137976246Y-54422866D02*
X138285112Y-54114000D01*
X166750000Y-46020000D02*
X166570000Y-46200000D01*
X137674952Y-54422866D02*
X137976246Y-54422866D01*
X158363054Y-49095000D02*
X158363054Y-48733056D01*
X155853332Y-48873332D02*
X155420000Y-48440000D01*
X145814444Y-49095000D02*
X145814444Y-48744446D01*
X138285154Y-51604500D02*
X137988006Y-51604500D01*
X148324126Y-51604500D02*
X148324126Y-51243628D01*
X163382498Y-49095000D02*
X163382498Y-48772498D01*
X138285278Y-48682818D02*
X138179999Y-48577539D01*
X153343612Y-51604500D02*
X153343612Y-51403612D01*
X158020000Y-53470000D02*
X158020000Y-53770888D01*
X167756946Y-47290000D02*
X167756946Y-48648652D01*
X140794897Y-51604500D02*
X140794897Y-51444897D01*
X150466552Y-53418448D02*
X150466552Y-53746690D01*
X160872841Y-51252841D02*
X160540000Y-50920000D01*
X143304612Y-53849706D02*
X142924906Y-53470000D01*
X158020000Y-53770888D02*
X158363112Y-54114000D01*
X155853355Y-51604500D02*
X155853355Y-51334212D01*
X168402071Y-51604500D02*
X168402071Y-51157067D01*
X165892220Y-49095000D02*
X165645000Y-49095000D01*
X140794862Y-53868119D02*
X140329291Y-53402548D01*
X140794897Y-51444897D02*
X140330000Y-50980000D01*
X150833869Y-51604500D02*
X150833869Y-51273775D01*
X163382584Y-51472584D02*
X163060000Y-51150000D01*
X140520000Y-46200000D02*
X141060000Y-46200000D01*
X145814383Y-51604500D02*
X145814383Y-51519319D01*
X168401946Y-49095000D02*
X168203294Y-49095000D01*
X165892327Y-51604500D02*
X165892327Y-51417583D01*
X160872776Y-49095000D02*
X160872776Y-48802776D01*
X143304722Y-48939366D02*
X142872411Y-48507055D01*
X158363054Y-48733056D02*
X158030000Y-48400002D01*
X165645000Y-49095000D02*
X165290000Y-48740000D01*
X165638362Y-53860000D02*
X165892362Y-54114000D01*
X148324126Y-51243628D02*
X147990000Y-50909502D01*
X137988006Y-51604500D02*
X137682414Y-51910092D01*
X140795000Y-48975000D02*
X140330000Y-48510000D01*
X160872776Y-48802776D02*
X160540000Y-48470000D01*
X150466552Y-53746690D02*
X150833862Y-54114000D01*
X167910000Y-53840000D02*
X168128112Y-53840000D01*
X168128112Y-53840000D02*
X168402112Y-54114000D01*
X140795000Y-49095000D02*
X140795000Y-48975000D01*
X165892327Y-51417583D02*
X165419386Y-50944642D01*
X153343612Y-51403612D02*
X152860000Y-50920000D01*
X153343610Y-49095000D02*
X153343610Y-48863610D01*
X160872841Y-51604500D02*
X160872841Y-51252841D01*
X143304640Y-51429409D02*
X143013469Y-51138238D01*
X162970000Y-53701388D02*
X163382612Y-54114000D01*
X150833888Y-49095000D02*
X150833888Y-48873888D01*
X158363098Y-51604500D02*
X158363098Y-51343098D01*
X153343610Y-48863610D02*
X152860000Y-48380000D01*
X163382498Y-48772498D02*
X163060000Y-48450000D01*
X143304612Y-54114000D02*
X143304612Y-53849706D01*
X145270000Y-53610000D02*
X145310362Y-53610000D01*
X148324166Y-49095000D02*
X148324166Y-48774166D01*
X165460000Y-53860000D02*
X165638362Y-53860000D01*
X143304640Y-51604500D02*
X143304640Y-51429409D01*
X140794862Y-54114000D02*
X140794862Y-53868119D01*
X167756946Y-48648652D02*
X167800000Y-48691706D01*
X152960000Y-53730388D02*
X153343612Y-54114000D01*
X145814383Y-51519319D02*
X145240944Y-50945880D01*
X141060000Y-46200000D02*
X141290000Y-46430000D01*
X148324166Y-48774166D02*
X147990000Y-48440000D01*
X155853332Y-49095000D02*
X155853332Y-48873332D01*
X155370000Y-53560000D02*
X155370000Y-53630638D01*
X160490000Y-53500000D02*
X160490000Y-53731138D01*
X155853355Y-51334212D02*
X155419857Y-50900714D01*
X143130612Y-53940000D02*
X143304612Y-54114000D01*
%TO.N,Vdd_str2*%
X163382772Y-56440411D02*
X162920386Y-55978025D01*
X165892563Y-56392563D02*
X165500000Y-56000000D01*
X168402071Y-59134700D02*
X168402071Y-59068113D01*
X165640334Y-61050790D02*
X165640334Y-61392172D01*
X148000000Y-61320088D02*
X148324112Y-61644200D01*
X153343612Y-58722518D02*
X153080398Y-58459304D01*
X163000000Y-61261588D02*
X163382612Y-61644200D01*
X153100000Y-60949202D02*
X153100000Y-61400588D01*
X140794897Y-59134700D02*
X140794897Y-58734599D01*
X137791612Y-60923993D02*
X137791612Y-61150700D01*
X150833869Y-59134700D02*
X150833869Y-58722519D01*
X163382584Y-58682584D02*
X163200000Y-58500000D01*
X140794653Y-56224855D02*
X140500000Y-55930202D01*
X160872841Y-59134700D02*
X160872841Y-58722519D01*
X163382772Y-56625200D02*
X163382772Y-56440411D01*
X140794653Y-56625200D02*
X140794653Y-56224855D01*
X163000000Y-61000000D02*
X163000000Y-61261588D01*
X148324126Y-59134700D02*
X148324126Y-58724126D01*
X158065547Y-61346635D02*
X158363112Y-61644200D01*
X145670162Y-61500000D02*
X145814362Y-61644200D01*
X160700000Y-61471338D02*
X160872862Y-61644200D01*
X153343608Y-56625200D02*
X153343608Y-56366180D01*
X168402362Y-56625200D02*
X168834800Y-56625200D01*
X168834800Y-56625200D02*
X169800000Y-55660000D01*
X150833817Y-56625200D02*
X150833817Y-56358601D01*
X153100000Y-61400588D02*
X153343612Y-61644200D01*
X153343608Y-56366180D02*
X152895707Y-55918279D01*
X163382584Y-59134700D02*
X163382584Y-58682584D01*
X138284862Y-56384862D02*
X137817043Y-55917043D01*
X150500000Y-61000000D02*
X150500000Y-61310338D01*
X140794897Y-58734599D02*
X140500000Y-58439702D01*
X160872981Y-56625200D02*
X160872981Y-56304133D01*
X169800000Y-54680000D02*
X170600000Y-53880000D01*
X145814235Y-56625200D02*
X145814235Y-56342431D01*
X145814235Y-56342431D02*
X145396008Y-55924204D01*
X168357912Y-61600000D02*
X168402112Y-61644200D01*
X150833869Y-58722519D02*
X150555675Y-58444325D01*
X148324126Y-58724126D02*
X148100000Y-58500000D01*
X158363190Y-56625200D02*
X158363190Y-56463190D01*
X138285154Y-59134700D02*
X138285154Y-58724856D01*
X140394307Y-61243645D02*
X140794862Y-61644200D01*
X135400000Y-56900000D02*
X135400000Y-57510000D01*
X143304640Y-59134700D02*
X143304640Y-58917429D01*
X142800000Y-61000000D02*
X142800000Y-61139588D01*
X138284862Y-56625200D02*
X138284862Y-56384862D01*
X143304640Y-58917429D02*
X142796172Y-58408961D01*
X155775547Y-61566385D02*
X155853362Y-61644200D01*
X142800000Y-61139588D02*
X143304612Y-61644200D01*
X155853399Y-56373417D02*
X155395892Y-55915910D01*
X158363098Y-59134700D02*
X158363098Y-58763098D01*
X150500000Y-61310338D02*
X150833862Y-61644200D01*
X148324026Y-56625200D02*
X148324026Y-56350683D01*
X150833817Y-56358601D02*
X150395672Y-55920456D01*
X155853399Y-56625200D02*
X155853399Y-56373417D01*
X169800000Y-55660000D02*
X169800000Y-54680000D01*
X168402362Y-56625200D02*
X168221113Y-56625200D01*
X155853355Y-59134700D02*
X155853355Y-58722519D01*
X165640334Y-61392172D02*
X165892362Y-61644200D01*
X165892563Y-56625200D02*
X165892563Y-56392563D01*
X145814383Y-59014383D02*
X145400000Y-58600000D01*
X143304444Y-56625200D02*
X143304444Y-56405659D01*
X165892327Y-59134700D02*
X165892327Y-58722519D01*
X137791612Y-61150700D02*
X138285112Y-61644200D01*
X148324026Y-56350683D02*
X147895777Y-55922434D01*
X167707114Y-61600000D02*
X168357912Y-61600000D01*
X138285154Y-58724856D02*
X138000000Y-58439702D01*
X168221113Y-56625200D02*
X167808379Y-56212466D01*
X145200000Y-61500000D02*
X145670162Y-61500000D01*
X145814383Y-59134700D02*
X145814383Y-59014383D01*
X140394307Y-60945759D02*
X140394307Y-61243645D01*
X160872841Y-58722519D02*
X160675161Y-58524839D01*
X160872981Y-56304133D02*
X160498053Y-55929205D01*
X168402071Y-59068113D02*
X167845643Y-58511685D01*
X160700000Y-60949202D02*
X160700000Y-61471338D01*
X143304444Y-56405659D02*
X142799666Y-55900881D01*
X153343612Y-59134700D02*
X153343612Y-58722518D01*
X165892327Y-58722519D02*
X165684904Y-58515096D01*
X158363190Y-56463190D02*
X157900000Y-56000000D01*
X155853355Y-58722519D02*
X155665418Y-58534582D01*
X158065547Y-60949202D02*
X158065547Y-61346635D01*
X158363098Y-58763098D02*
X158200000Y-58600000D01*
X148000000Y-61000000D02*
X148000000Y-61320088D01*
X155775547Y-61024453D02*
X155775547Y-61566385D01*
X135400000Y-57510000D02*
X135450000Y-57560000D01*
%TO.N,Vss_str2*%
X141814640Y-57644700D02*
X141814640Y-58154338D01*
X154363362Y-60154200D02*
X154363362Y-60512560D01*
X149700000Y-60510338D02*
X149343862Y-60154200D01*
X151853612Y-57644700D02*
X151853612Y-58053612D01*
X144800000Y-60700000D02*
X144800000Y-60629838D01*
X142078854Y-60793958D02*
X142078854Y-60418442D01*
X144324383Y-57644700D02*
X144324383Y-58064081D01*
X159382841Y-57644700D02*
X159382841Y-58022539D01*
X166912071Y-57644700D02*
X166912071Y-58069348D01*
X154363399Y-55547381D02*
X154608009Y-55791991D01*
X149700000Y-60800000D02*
X149700000Y-60510338D01*
X139304653Y-55304653D02*
X139700000Y-55700000D01*
X164402563Y-55202563D02*
X164800000Y-55600000D01*
X154363399Y-55135200D02*
X154363399Y-55547381D01*
X154363355Y-57644700D02*
X154363355Y-58055346D01*
X156873112Y-60413427D02*
X157320743Y-60861058D01*
X167367162Y-55590000D02*
X166912362Y-55135200D01*
X141814444Y-55514444D02*
X142000000Y-55700000D01*
X151853612Y-60407271D02*
X152309386Y-60863045D01*
X146834026Y-55135200D02*
X146834026Y-55664224D01*
X146834026Y-55664224D02*
X147000000Y-55830198D01*
X144324383Y-58064081D02*
X144600000Y-58339698D01*
X154363362Y-60512560D02*
X154700000Y-60849198D01*
X151853608Y-55135200D02*
X151853608Y-55583806D01*
X161892772Y-55552580D02*
X162170390Y-55830198D01*
X137034700Y-57644700D02*
X137390000Y-58000000D01*
X146834126Y-58173824D02*
X147000000Y-58339698D01*
X146834112Y-60154200D02*
X146834112Y-60349216D01*
X156873190Y-55547382D02*
X157059325Y-55733517D01*
X159382862Y-60154200D02*
X159382862Y-60382862D01*
X151853612Y-58053612D02*
X152100000Y-58300000D01*
X141814444Y-55135200D02*
X141814444Y-55514444D01*
X136900000Y-60259088D02*
X136795112Y-60154200D01*
X161892612Y-60154200D02*
X161892612Y-60482645D01*
X164806189Y-60853060D02*
X164806189Y-60558027D01*
X156873098Y-57644700D02*
X156873098Y-58153471D01*
X136794862Y-55135200D02*
X135974800Y-55135200D01*
X139900000Y-60000000D02*
X139459062Y-60000000D01*
X161892584Y-58132282D02*
X162100000Y-58339698D01*
X139304897Y-57940988D02*
X139707281Y-58343372D01*
X156873098Y-58153471D02*
X157059325Y-58339698D01*
X144324235Y-55135200D02*
X144324235Y-55554433D01*
X149343869Y-58083567D02*
X149600000Y-58339698D01*
X149343817Y-55135200D02*
X149343817Y-55543817D01*
X166912071Y-58069348D02*
X167130000Y-58287277D01*
X170600000Y-51340000D02*
X170600000Y-51420000D01*
X141814640Y-58154338D02*
X142000000Y-58339698D01*
X136795154Y-57644700D02*
X137034700Y-57644700D01*
X156873112Y-60154200D02*
X156873112Y-60413427D01*
X159382981Y-55135200D02*
X159382981Y-55613179D01*
X166912112Y-60458705D02*
X166912112Y-60154200D01*
X169800000Y-57560000D02*
X169800000Y-56800000D01*
X161892584Y-57644700D02*
X161892584Y-58132282D01*
X136900000Y-60800000D02*
X136900000Y-60259088D01*
X144324235Y-55554433D02*
X144600000Y-55830198D01*
X142078854Y-60418442D02*
X141814612Y-60154200D01*
X149343817Y-55543817D02*
X149600000Y-55800000D01*
X159382841Y-58022539D02*
X159700000Y-58339698D01*
X167305181Y-60851774D02*
X166912112Y-60458705D01*
X159382862Y-60382862D02*
X159700000Y-60700000D01*
X164402327Y-58186625D02*
X164507851Y-58292149D01*
X161892612Y-60482645D02*
X162259708Y-60849741D01*
X159382981Y-55613179D02*
X159600000Y-55830198D01*
X144800000Y-60629838D02*
X144324362Y-60154200D01*
X167390000Y-55590000D02*
X167367162Y-55590000D01*
X151853612Y-60154200D02*
X151853612Y-60407271D01*
X139459062Y-60000000D02*
X139304862Y-60154200D01*
X164806189Y-60558027D02*
X164402362Y-60154200D01*
X156873190Y-55135200D02*
X156873190Y-55547382D01*
X136360000Y-55660000D02*
X136400000Y-55700000D01*
X135974800Y-55135200D02*
X135450000Y-55660000D01*
X146834112Y-60349216D02*
X147278854Y-60793958D01*
X139304897Y-57644700D02*
X139304897Y-57940988D01*
X170600000Y-51420000D02*
X169640000Y-52380000D01*
X151853608Y-55583806D02*
X152100000Y-55830198D01*
X135450000Y-55660000D02*
X136360000Y-55660000D01*
X164402327Y-57644700D02*
X164402327Y-58186625D01*
X164402563Y-55135200D02*
X164402563Y-55202563D01*
X149343869Y-57644700D02*
X149343869Y-58083567D01*
X161892772Y-55135200D02*
X161892772Y-55552580D01*
X146834126Y-57644700D02*
X146834126Y-58173824D01*
X154363355Y-58055346D02*
X154608009Y-58300000D01*
X139304653Y-55135200D02*
X139304653Y-55304653D01*
%TO.N,Vss_str3*%
X164402362Y-65502362D02*
X164700000Y-65800000D01*
X151853612Y-67953612D02*
X152200000Y-68300000D01*
X141814612Y-62973490D02*
X142203684Y-63362562D01*
X147200000Y-68050288D02*
X146834112Y-67684400D01*
X154363362Y-65533260D02*
X154700000Y-65869898D01*
X144324362Y-62924362D02*
X144700000Y-63300000D01*
X164402362Y-63062760D02*
X164700000Y-63360398D01*
X146834112Y-65634112D02*
X147000000Y-65800000D01*
X146834112Y-65174900D02*
X146834112Y-65634112D01*
X161892612Y-62665400D02*
X161892612Y-62935548D01*
X139304862Y-62665400D02*
X139365400Y-62665400D01*
X167563741Y-68336029D02*
X167563741Y-68413826D01*
X164402362Y-65174900D02*
X164402362Y-65502362D01*
X141814612Y-65684510D02*
X142000000Y-65869898D01*
X154363362Y-62665400D02*
X154363362Y-62963362D01*
X161892612Y-65662510D02*
X162100000Y-65869898D01*
X159382862Y-65174900D02*
X159382862Y-65552760D01*
X169800000Y-61010000D02*
X169800000Y-61400000D01*
X164402362Y-62665400D02*
X164402362Y-63062760D01*
X156873112Y-62665400D02*
X156873112Y-63033510D01*
X149800000Y-68140538D02*
X149343862Y-67684400D01*
X154363362Y-62963362D02*
X154700000Y-63300000D01*
X149343862Y-65442792D02*
X149701070Y-65800000D01*
X151853612Y-62953612D02*
X152200000Y-63300000D01*
X141814612Y-62665400D02*
X141814612Y-62973490D01*
X149343862Y-65174900D02*
X149343862Y-65442792D01*
X169800000Y-61400000D02*
X169300000Y-61900000D01*
X142200000Y-68069788D02*
X141814612Y-67684400D01*
X149343862Y-62665400D02*
X149343862Y-63003357D01*
X151853612Y-62665400D02*
X151853612Y-62953612D01*
X136795112Y-62895112D02*
X137200000Y-63300000D01*
X156873112Y-63033510D02*
X157200000Y-63360398D01*
X144700000Y-68300000D02*
X144700000Y-68060038D01*
X156873112Y-67684400D02*
X156873112Y-67873112D01*
X149343862Y-63003357D02*
X149701070Y-63360565D01*
X139304862Y-65514862D02*
X139650000Y-65860000D01*
X161892612Y-62935548D02*
X162326285Y-63369221D01*
X156873112Y-65543010D02*
X157200000Y-65869898D01*
X142200000Y-68300000D02*
X142200000Y-68069788D01*
X139365400Y-62665400D02*
X139700000Y-63000000D01*
X139600000Y-67979538D02*
X139304862Y-67684400D01*
X144324362Y-62665400D02*
X144324362Y-62924362D01*
X162321353Y-68113141D02*
X161892612Y-67684400D01*
X136795112Y-62665400D02*
X136795112Y-62895112D01*
X161892612Y-65174900D02*
X161892612Y-65662510D01*
X166912112Y-62665400D02*
X166912112Y-62912112D01*
X156873112Y-65174900D02*
X156873112Y-65543010D01*
X154600000Y-68379398D02*
X154600000Y-67921038D01*
X139304862Y-65174900D02*
X139304862Y-65514862D01*
X166912112Y-62912112D02*
X167300000Y-63300000D01*
X151853612Y-65174900D02*
X151853612Y-65523414D01*
X167200000Y-67972288D02*
X166912112Y-67684400D01*
X166912112Y-65174900D02*
X166912112Y-65682010D01*
X135450000Y-59349890D02*
X136000110Y-59900000D01*
X146834112Y-62834112D02*
X147300000Y-63300000D01*
X159382862Y-62665400D02*
X159382862Y-62982862D01*
X141814612Y-65174900D02*
X141814612Y-65684510D01*
X166912112Y-65682010D02*
X167100000Y-65869898D01*
X164802116Y-68382742D02*
X164802116Y-68084154D01*
X144324362Y-65493345D02*
X144702109Y-65871092D01*
X149800000Y-68300000D02*
X149800000Y-68140538D01*
X146834112Y-62665400D02*
X146834112Y-62834112D01*
X139600000Y-68379398D02*
X139600000Y-67979538D01*
X137034400Y-67684400D02*
X137350000Y-68000000D01*
X159700000Y-68001538D02*
X159382862Y-67684400D01*
X134600000Y-65800000D02*
X136170012Y-65800000D01*
X147200000Y-68300000D02*
X147200000Y-68050288D01*
X144700000Y-68060038D02*
X144324362Y-67684400D01*
X144324362Y-65174900D02*
X144324362Y-65493345D01*
X136170012Y-65800000D02*
X136795112Y-65174900D01*
X151853612Y-67684400D02*
X151853612Y-67953612D01*
X154363362Y-65174900D02*
X154363362Y-65533260D01*
X135450000Y-59110000D02*
X135450000Y-59349890D01*
X136795112Y-67684400D02*
X137034400Y-67684400D01*
X156873112Y-67873112D02*
X157200000Y-68200000D01*
X159700000Y-68300000D02*
X159700000Y-68001538D01*
X164802116Y-68084154D02*
X164402362Y-67684400D01*
X151853612Y-65523414D02*
X152200099Y-65869901D01*
X154600000Y-67921038D02*
X154363362Y-67684400D01*
X167200000Y-67972288D02*
X167563741Y-68336029D01*
X162321353Y-68387259D02*
X162321353Y-68113141D01*
X159382862Y-62982862D02*
X159700000Y-63300000D01*
X159382862Y-65552760D02*
X159700000Y-65869898D01*
%TO.N,Vdd_str3*%
X137911515Y-63537172D02*
X137911515Y-63781803D01*
X145814362Y-69174400D02*
X145244964Y-69174400D01*
X165892362Y-66492362D02*
X165500000Y-66100000D01*
X145814362Y-66338756D02*
X145445566Y-65969960D01*
X143304612Y-66454032D02*
X142785385Y-65934805D01*
X163382612Y-63743218D02*
X163099898Y-63460504D01*
X153218012Y-69300000D02*
X153343612Y-69174400D01*
X165892362Y-63892362D02*
X165500000Y-63500000D01*
X165892362Y-64155400D02*
X165892362Y-63892362D01*
X135450000Y-62410000D02*
X134600000Y-63260000D01*
X155853362Y-69174400D02*
X155474400Y-69174400D01*
X140794862Y-64155400D02*
X140794862Y-63918519D01*
X167707114Y-66400000D02*
X168137212Y-66400000D01*
X155853362Y-66664900D02*
X155514900Y-66664900D01*
X163067609Y-66664900D02*
X162709566Y-66306857D01*
X155514900Y-66664900D02*
X155300000Y-66450000D01*
X160872862Y-66664900D02*
X160564900Y-66664900D01*
X150833862Y-66664900D02*
X150833862Y-66397283D01*
X165200000Y-69300000D02*
X165766762Y-69300000D01*
X153343612Y-64155400D02*
X153343612Y-63843612D01*
X140200000Y-69300000D02*
X140669262Y-69300000D01*
X160474400Y-69174400D02*
X160200000Y-68900000D01*
X158363112Y-66338925D02*
X157993409Y-65969222D01*
X163382612Y-66664900D02*
X163067609Y-66664900D01*
X140669262Y-69300000D02*
X140794862Y-69174400D01*
X158363112Y-64155400D02*
X158363112Y-63825813D01*
X160872862Y-69174400D02*
X160474400Y-69174400D01*
X150200000Y-69000000D02*
X150659462Y-69000000D01*
X143304612Y-66664900D02*
X143304612Y-66454032D01*
X152700000Y-69300000D02*
X153218012Y-69300000D01*
X155474400Y-69174400D02*
X155200000Y-68900000D01*
X163357012Y-69200000D02*
X163382612Y-69174400D01*
X148324112Y-63849768D02*
X148011515Y-63537171D01*
X168402112Y-64155400D02*
X167955884Y-64155400D01*
X167707114Y-69149997D02*
X168377709Y-69149997D01*
X163382612Y-64155400D02*
X163382612Y-63743218D01*
X148148512Y-69350000D02*
X148324112Y-69174400D01*
X147700000Y-69350000D02*
X148148512Y-69350000D01*
X167955884Y-64155400D02*
X167721107Y-63920623D01*
X140794862Y-63918519D02*
X140316542Y-63440199D01*
X158363112Y-63825813D02*
X157997215Y-63459916D01*
X168377709Y-69149997D02*
X168402112Y-69174400D01*
X143304612Y-64155400D02*
X143304612Y-63784317D01*
X153343612Y-63843612D02*
X153000000Y-63500000D01*
X143179012Y-69300000D02*
X143304612Y-69174400D01*
X158363112Y-66664900D02*
X158363112Y-66338925D01*
X138285112Y-66268915D02*
X138050000Y-66033803D01*
X145244964Y-69174400D02*
X145119364Y-69300000D01*
X140794862Y-66425041D02*
X140383987Y-66014166D01*
X148324112Y-66664900D02*
X148324112Y-66624112D01*
X165766762Y-69300000D02*
X165892362Y-69174400D01*
X140794862Y-66664900D02*
X140794862Y-66425041D01*
X148324112Y-66624112D02*
X147800000Y-66100000D01*
X135450000Y-61010000D02*
X135450000Y-62410000D01*
X137911515Y-63781803D02*
X138285112Y-64155400D01*
X168137212Y-66400000D02*
X168402112Y-66664900D01*
X158363112Y-69174400D02*
X158057270Y-69174400D01*
X162800000Y-69200000D02*
X163357012Y-69200000D01*
X165892362Y-66664900D02*
X165892362Y-66492362D01*
X160872862Y-64155400D02*
X160872862Y-63888803D01*
X143304612Y-63784317D02*
X142980697Y-63460402D01*
X148324112Y-64155400D02*
X148324112Y-63849768D01*
X138285112Y-69174400D02*
X138285112Y-69085112D01*
X145814362Y-63899258D02*
X145421146Y-63506042D01*
X138285112Y-66664900D02*
X138285112Y-66268915D01*
X150833862Y-66397283D02*
X150436579Y-66000000D01*
X150659462Y-69000000D02*
X150833862Y-69174400D01*
X145814362Y-66664900D02*
X145814362Y-66338756D01*
X150833862Y-63904580D02*
X150436579Y-63507297D01*
X160564900Y-66664900D02*
X160300000Y-66400000D01*
X138285112Y-69085112D02*
X137800000Y-68600000D01*
X169800000Y-59110000D02*
X169800000Y-59400000D01*
X158057270Y-69174400D02*
X157668523Y-68785653D01*
X142609614Y-69300000D02*
X143179012Y-69300000D01*
X155853362Y-64155400D02*
X155853362Y-63938258D01*
X160872862Y-63888803D02*
X160434715Y-63450656D01*
X155853362Y-63938258D02*
X155421146Y-63506042D01*
X153343612Y-66664900D02*
X153343612Y-66439406D01*
X153343612Y-66439406D02*
X152933063Y-66028857D01*
X150833862Y-64155400D02*
X150833862Y-63904580D01*
X145814362Y-64155400D02*
X145814362Y-63899258D01*
X169800000Y-59400000D02*
X169200000Y-60000000D01*
%TO.N,Vdd_str4*%
X143000012Y-76400000D02*
X143304612Y-76704600D01*
X165892362Y-71685600D02*
X165892362Y-71492362D01*
X163382612Y-71382612D02*
X163000000Y-71000000D01*
X150729262Y-76600000D02*
X150833862Y-76704600D01*
X138285112Y-71685600D02*
X138285112Y-71285112D01*
X150833862Y-74195100D02*
X150566049Y-74195100D01*
X150200000Y-76600000D02*
X150729262Y-76600000D01*
X155853362Y-74195100D02*
X155853362Y-73976709D01*
X140794862Y-71685600D02*
X140794862Y-71494862D01*
X155848762Y-76700000D02*
X155853362Y-76704600D01*
X169475000Y-74475000D02*
X168900000Y-73900000D01*
X153343612Y-74195100D02*
X153343612Y-73943612D01*
X160872862Y-71685600D02*
X160872862Y-71472862D01*
X140794862Y-74020518D02*
X140411515Y-73637171D01*
X145709762Y-76600000D02*
X145814362Y-76704600D01*
X163382612Y-71685600D02*
X163382612Y-71382612D01*
X150833862Y-71685600D02*
X150833862Y-71333862D01*
X165892362Y-73882927D02*
X165510918Y-73501483D01*
X140794862Y-74195100D02*
X140794862Y-74020518D01*
X138285112Y-74085112D02*
X137600000Y-73400000D01*
X155853362Y-73976709D02*
X155346722Y-73470069D01*
X145814362Y-73814464D02*
X145500000Y-73500102D01*
X140170823Y-76235411D02*
X140325673Y-76235411D01*
X148324112Y-74195100D02*
X148324112Y-74007575D01*
X160872862Y-71472862D02*
X160500000Y-71100000D01*
X165892362Y-71492362D02*
X165500000Y-71100000D01*
X160872862Y-74195100D02*
X160872862Y-73841634D01*
X163178012Y-76500000D02*
X163382612Y-76704600D01*
X148324112Y-71685600D02*
X148324112Y-71524112D01*
X138285112Y-76410768D02*
X137911515Y-76037171D01*
X138285112Y-71285112D02*
X138000000Y-71000000D01*
X168402112Y-74195100D02*
X168604900Y-74195100D01*
X158195100Y-74195100D02*
X157800000Y-73800000D01*
X142904714Y-74195100D02*
X142609614Y-73900000D01*
X143304612Y-74195100D02*
X142904714Y-74195100D01*
X163382612Y-74195100D02*
X163382612Y-74067006D01*
X140794862Y-71494862D02*
X140300000Y-71000000D01*
X150566049Y-74195100D02*
X150300000Y-74461149D01*
X158363112Y-74195100D02*
X158195100Y-74195100D01*
X168402112Y-71497888D02*
X169140000Y-70760000D01*
X165892362Y-74195100D02*
X165892362Y-73882927D01*
X152700000Y-76900000D02*
X153148212Y-76900000D01*
X145119364Y-76600000D02*
X145709762Y-76600000D01*
X160768262Y-76600000D02*
X160872862Y-76704600D01*
X153343612Y-71343612D02*
X153000000Y-71000000D01*
X168100000Y-76402488D02*
X168402112Y-76704600D01*
X148324112Y-74007575D02*
X147839817Y-73523280D01*
X153343612Y-71685600D02*
X153343612Y-71343612D01*
X145814362Y-71414362D02*
X145400000Y-71000000D01*
X155853362Y-71453362D02*
X155400000Y-71000000D01*
X165300000Y-76600000D02*
X165787762Y-76600000D01*
X160872862Y-73841634D02*
X160536085Y-73504857D01*
X162700000Y-76500000D02*
X163178012Y-76500000D01*
X168091314Y-71685600D02*
X167705234Y-71299520D01*
X143304612Y-71404612D02*
X142900000Y-71000000D01*
X153343612Y-73943612D02*
X153000000Y-73600000D01*
X168402112Y-71685600D02*
X168091314Y-71685600D01*
X168402112Y-71685600D02*
X168402112Y-71497888D01*
X169140000Y-70760000D02*
X170600500Y-70760000D01*
X158363112Y-71685600D02*
X158363112Y-71363112D01*
X155300000Y-76700000D02*
X155848762Y-76700000D01*
X153148212Y-76900000D02*
X153343612Y-76704600D01*
X142800000Y-76400000D02*
X143000012Y-76400000D01*
X168100000Y-76200000D02*
X168100000Y-76402488D01*
X169800000Y-74475000D02*
X169475000Y-74475000D01*
X148324112Y-71524112D02*
X147900000Y-71100000D01*
X163382612Y-74067006D02*
X162978474Y-73662868D01*
X145814362Y-71685600D02*
X145814362Y-71414362D01*
X143304612Y-71685600D02*
X143304612Y-71404612D01*
X155853362Y-71685600D02*
X155853362Y-71453362D01*
X157700000Y-76800000D02*
X158267712Y-76800000D01*
X158267712Y-76800000D02*
X158363112Y-76704600D01*
X135450000Y-74500000D02*
X135450000Y-73850000D01*
X150833862Y-71333862D02*
X150500000Y-71000000D01*
X138285112Y-76704600D02*
X138285112Y-76410768D01*
X168604900Y-74195100D02*
X168900000Y-73900000D01*
X135450000Y-73850000D02*
X135400000Y-73800000D01*
X158363112Y-71363112D02*
X158000000Y-71000000D01*
X148319512Y-76700000D02*
X148324112Y-76704600D01*
X140325673Y-76235411D02*
X140794862Y-76704600D01*
X165787762Y-76600000D02*
X165892362Y-76704600D01*
X160200000Y-76600000D02*
X160768262Y-76600000D01*
X138285112Y-74195100D02*
X138285112Y-74085112D01*
X147700000Y-76700000D02*
X148319512Y-76700000D01*
X145814362Y-74195100D02*
X145814362Y-73814464D01*
%TO.N,Vss_str4*%
X156873112Y-72973112D02*
X157200000Y-73300000D01*
X137204400Y-70195600D02*
X137400000Y-70000000D01*
X136690012Y-72600000D02*
X136795112Y-72705100D01*
X149343862Y-75214600D02*
X149343862Y-75543862D01*
X139704400Y-70195600D02*
X139900000Y-70000000D01*
X157500000Y-76000000D02*
X157500000Y-75841488D01*
X139304862Y-75214600D02*
X139304862Y-75704862D01*
X144324362Y-75224362D02*
X144900000Y-75800000D01*
X152014600Y-75214600D02*
X152400000Y-75600000D01*
X156873112Y-70563710D02*
X157200000Y-70890598D01*
X139304862Y-70195600D02*
X139704400Y-70195600D01*
X139304862Y-72705100D02*
X139304862Y-73004862D01*
X151853612Y-70544183D02*
X152200030Y-70890601D01*
X141814612Y-73214612D02*
X142000000Y-73400000D01*
X151853612Y-75214600D02*
X152014600Y-75214600D01*
X161892612Y-70195600D02*
X161892612Y-70509110D01*
X146834112Y-70195600D02*
X146834112Y-70624710D01*
X141814612Y-70705210D02*
X142000000Y-70890598D01*
X139304862Y-73004862D02*
X139700000Y-73400000D01*
X141814612Y-72705100D02*
X141814612Y-73214612D01*
X144324362Y-70564963D02*
X144649997Y-70890598D01*
X159382862Y-72994883D02*
X159792785Y-73404806D01*
X164402362Y-72705100D02*
X164402362Y-73035185D01*
X166982589Y-70808009D02*
X166982589Y-70266077D01*
X156873112Y-72705100D02*
X156873112Y-72973112D01*
X159382862Y-72705100D02*
X159382862Y-72994883D01*
X135450000Y-72600000D02*
X136200000Y-72600000D01*
X167027790Y-75330278D02*
X166912112Y-75214600D01*
X151853612Y-73053582D02*
X152200030Y-73400000D01*
X149343862Y-72705100D02*
X149343862Y-73041017D01*
X164402362Y-73035185D02*
X164767737Y-73400560D01*
X154363362Y-72705100D02*
X154363362Y-73163362D01*
X154800000Y-75900000D02*
X154800000Y-75651238D01*
X154800000Y-75651238D02*
X154363362Y-75214600D01*
X149343862Y-73041017D02*
X149703171Y-73400326D01*
X136200000Y-72600000D02*
X136690012Y-72600000D01*
X161914600Y-75214600D02*
X162400000Y-75700000D01*
X149343862Y-70195600D02*
X149343862Y-70443862D01*
X159382862Y-70497459D02*
X159778906Y-70893503D01*
X164402362Y-75214600D02*
X164402362Y-75402362D01*
X136200000Y-73400000D02*
X136200000Y-72600000D01*
X146834112Y-72705100D02*
X146834112Y-73134210D01*
X149343862Y-75543862D02*
X149600000Y-75800000D01*
X164402362Y-70530010D02*
X164763230Y-70890878D01*
X164402362Y-75402362D02*
X164900000Y-75900000D01*
X137200000Y-75800000D02*
X137200000Y-75619488D01*
X144324362Y-72705100D02*
X144324362Y-73017581D01*
X141814612Y-75514612D02*
X142200000Y-75900000D01*
X144324362Y-75214600D02*
X144324362Y-75224362D01*
X151853612Y-72705100D02*
X151853612Y-73053582D01*
X154363362Y-70653960D02*
X154600000Y-70890598D01*
X137200000Y-75619488D02*
X136795112Y-75214600D01*
X167027790Y-75872210D02*
X167027790Y-75330278D01*
X141814612Y-70195600D02*
X141814612Y-70705210D01*
X169800000Y-72575000D02*
X169800000Y-72545757D01*
X141814612Y-75214600D02*
X141814612Y-75514612D01*
X146834112Y-75234112D02*
X147400000Y-75800000D01*
X161892612Y-75214600D02*
X161914600Y-75214600D01*
X146834112Y-70624710D02*
X147100000Y-70890598D01*
X157500000Y-75841488D02*
X156873112Y-75214600D01*
X159900000Y-75800000D02*
X159900000Y-75731738D01*
X136795112Y-70195600D02*
X137204400Y-70195600D01*
X167023834Y-72816822D02*
X166912112Y-72705100D01*
X161892612Y-72705100D02*
X161892612Y-73018884D01*
X161892612Y-73018884D02*
X162275417Y-73401689D01*
X146834112Y-73134210D02*
X147100000Y-73400098D01*
X154363362Y-70195600D02*
X154363362Y-70653960D01*
X159382862Y-70195600D02*
X159382862Y-70497459D01*
X139304862Y-75704862D02*
X139500000Y-75900000D01*
X164402362Y-70195600D02*
X164402362Y-70530010D01*
X166982589Y-70266077D02*
X166912112Y-70195600D01*
X154363362Y-73163362D02*
X154600000Y-73400000D01*
X167023834Y-73358754D02*
X167023834Y-72816822D01*
X144324362Y-73017581D02*
X144708593Y-73401812D01*
X146834112Y-75214600D02*
X146834112Y-75234112D01*
X156873112Y-70195600D02*
X156873112Y-70563710D01*
X169800000Y-72545757D02*
X169267172Y-72012929D01*
X151853612Y-70195600D02*
X151853612Y-70544183D01*
X144324362Y-70195600D02*
X144324362Y-70564963D01*
X149343862Y-70443862D02*
X149700000Y-70800000D01*
X161892612Y-70509110D02*
X162260202Y-70876700D01*
X159900000Y-75731738D02*
X159382862Y-75214600D01*
D17*
%TO.N,Net-(ICled2-DI)*%
X168024500Y-50114500D02*
X167800000Y-49890000D01*
X136960000Y-53570000D02*
X136960000Y-53949112D01*
X136960000Y-53949112D02*
X136795112Y-54114000D01*
X168402071Y-50114500D02*
X168024500Y-50114500D01*
%TO.N,Net-(ICled1-DO)*%
X139304897Y-51304500D02*
X138285154Y-50284757D01*
X138285154Y-50284757D02*
X138285154Y-50114500D01*
X139304897Y-51604500D02*
X139304897Y-51304500D01*
%TO.N,Net-(ICled1-DI)*%
X168401946Y-47355044D02*
X168658737Y-47098253D01*
X136800000Y-51599654D02*
X136795154Y-51604500D01*
X168401946Y-47605000D02*
X168401946Y-47355044D01*
X136800000Y-50909502D02*
X136800000Y-51599654D01*
%TO.N,Net-(ICled41-DI)*%
X168402071Y-57644700D02*
X168402071Y-57902071D01*
X136950912Y-61800000D02*
X136795112Y-61644200D01*
X168402071Y-57902071D02*
X168800000Y-58300000D01*
X137400000Y-61800000D02*
X136950912Y-61800000D01*
D16*
%TO.N,Vdd_str5*%
X163382612Y-81725300D02*
X163382612Y-81443390D01*
X145814362Y-81725300D02*
X145801281Y-81725300D01*
X153343612Y-81548065D02*
X152752732Y-80957185D01*
X160872862Y-81725300D02*
X160625300Y-81725300D01*
X136045671Y-78673496D02*
X136045671Y-78854329D01*
X138285112Y-78803618D02*
X138090747Y-78609253D01*
X152883414Y-84234800D02*
X152648614Y-84000000D01*
X168009069Y-78609069D02*
X168035570Y-78609069D01*
X162700000Y-84300000D02*
X163317412Y-84300000D01*
X145814362Y-79215800D02*
X145814362Y-79054945D01*
X150200000Y-83600000D02*
X150200000Y-83600938D01*
X138285112Y-79215800D02*
X138285112Y-78803618D01*
X165657562Y-84000000D02*
X165892362Y-84234800D01*
X143304612Y-78968213D02*
X142842465Y-78506066D01*
X163317412Y-84300000D02*
X163382612Y-84234800D01*
X165892362Y-78912444D02*
X165498004Y-78518086D01*
X136045671Y-78495671D02*
X135450000Y-77900000D01*
X165300000Y-84000000D02*
X165657562Y-84000000D01*
X136045671Y-78673496D02*
X136045671Y-78495671D01*
X138285112Y-81585112D02*
X137700000Y-81000000D01*
X140545715Y-83985653D02*
X140794862Y-84234800D01*
X167707114Y-81800000D02*
X168327412Y-81800000D01*
X163382612Y-78870093D02*
X163039222Y-78526703D01*
X148324112Y-78983985D02*
X147845247Y-78505120D01*
X150833862Y-81416568D02*
X150445629Y-81028335D01*
X140099864Y-83985653D02*
X140545715Y-83985653D01*
X148324112Y-79215800D02*
X148324112Y-78983985D01*
X148324112Y-81725300D02*
X148324112Y-81488452D01*
X140794862Y-79215800D02*
X140794862Y-78914724D01*
X136045671Y-78854329D02*
X135450000Y-79450000D01*
X160625300Y-81725300D02*
X160300000Y-81400000D01*
X143304612Y-81562147D02*
X142842465Y-81100000D01*
X158363112Y-79215800D02*
X158363112Y-79036310D01*
X153343612Y-81725300D02*
X153343612Y-81548065D01*
X150833862Y-79215800D02*
X150833862Y-79018758D01*
X168402112Y-79215800D02*
X168402112Y-79002112D01*
X158363112Y-81725300D02*
X158363112Y-81513997D01*
X145814362Y-79054945D02*
X145275981Y-78516564D01*
X150833862Y-81725300D02*
X150833862Y-81416568D01*
X136045671Y-78673496D02*
X135972175Y-78600000D01*
X153343612Y-84234800D02*
X152883414Y-84234800D01*
X145801281Y-81725300D02*
X145275981Y-81200000D01*
X155853362Y-81713564D02*
X155339798Y-81200000D01*
X153343612Y-79215800D02*
X153343612Y-78976005D01*
X160365200Y-84234800D02*
X160200000Y-84400000D01*
X145749162Y-84300000D02*
X145814362Y-84234800D01*
X135972175Y-78600000D02*
X135450000Y-78600000D01*
X155853362Y-81725300D02*
X155853362Y-81713564D01*
X160872862Y-79215800D02*
X160872862Y-78943778D01*
X145119364Y-84300000D02*
X145749162Y-84300000D01*
X138285112Y-79215800D02*
X138215800Y-79215800D01*
X137850312Y-83800000D02*
X138285112Y-84234800D01*
X160872862Y-84234800D02*
X160365200Y-84234800D01*
X140794862Y-78914724D02*
X140397933Y-78517795D01*
X150200000Y-83600938D02*
X150833862Y-84234800D01*
X155788162Y-84300000D02*
X155853362Y-84234800D01*
X150833862Y-79018758D02*
X150421146Y-78606042D01*
X155853362Y-79036864D02*
X155339798Y-78523300D01*
X163382612Y-79215800D02*
X163382612Y-78870093D01*
X140794862Y-81725300D02*
X140625300Y-81725300D01*
X158363112Y-84234800D02*
X157865200Y-84234800D01*
X137600000Y-83800000D02*
X137850312Y-83800000D01*
X142800000Y-83700000D02*
X142800000Y-83730188D01*
X148074965Y-83985653D02*
X148324112Y-84234800D01*
X143304612Y-79215800D02*
X143304612Y-78968213D01*
X138285112Y-81725300D02*
X138285112Y-81585112D01*
X168402112Y-79002112D02*
X168009069Y-78609069D01*
X157865200Y-84234800D02*
X157700000Y-84400000D01*
X165892362Y-79215800D02*
X165892362Y-78912444D01*
X165892362Y-81725300D02*
X165892362Y-81494358D01*
X160872862Y-78943778D02*
X160441526Y-78512442D01*
X167722311Y-84234800D02*
X167707114Y-84249997D01*
X135450000Y-77900000D02*
X135450000Y-78600000D01*
X143304612Y-81725300D02*
X143304612Y-81562147D01*
X163382612Y-81443390D02*
X163039222Y-81100000D01*
X158363112Y-79036310D02*
X157846185Y-78519383D01*
X135450000Y-78600000D02*
X135450000Y-79450000D01*
X148324112Y-81488452D02*
X147845744Y-81010084D01*
X140625300Y-81725300D02*
X140100000Y-81200000D01*
X147668523Y-83985653D02*
X148074965Y-83985653D01*
X155853362Y-79215800D02*
X155853362Y-79036864D01*
X155158364Y-84300000D02*
X155788162Y-84300000D01*
X168327412Y-81800000D02*
X168402112Y-81725300D01*
X158363112Y-81513997D02*
X157849418Y-81000303D01*
X165892362Y-81494358D02*
X165498004Y-81100000D01*
X142800000Y-83730188D02*
X143304612Y-84234800D01*
X153343612Y-78976005D02*
X152869483Y-78501876D01*
X168402112Y-84234800D02*
X167722311Y-84234800D01*
%TO.N,Vss_str5*%
X139304862Y-77725800D02*
X139304862Y-78104862D01*
X156873112Y-82744800D02*
X156873112Y-83073112D01*
X144324362Y-80235300D02*
X144324362Y-80777232D01*
X164402362Y-78123160D02*
X164700000Y-78420798D01*
X161892612Y-82992612D02*
X162300000Y-83400000D01*
X135800000Y-76350000D02*
X135450000Y-76000000D01*
X149343862Y-77725800D02*
X149343862Y-78043862D01*
X149343862Y-82744800D02*
X149343862Y-83143862D01*
X146834112Y-78154910D02*
X147100000Y-78420798D01*
X139304862Y-80235300D02*
X139304862Y-80777232D01*
X136000000Y-82200000D02*
X136544800Y-82744800D01*
X151853612Y-80777232D02*
X152003339Y-80926959D01*
X144603590Y-83396410D02*
X144603590Y-83024028D01*
X154363362Y-77725800D02*
X154363362Y-78163362D01*
X141814612Y-80776220D02*
X141968690Y-80930298D01*
X166912112Y-83112112D02*
X167200000Y-83400000D01*
X166912112Y-80235300D02*
X166912112Y-80704998D01*
X149343862Y-83143862D02*
X149500000Y-83300000D01*
X135800000Y-76800000D02*
X135800000Y-76350000D01*
X164402362Y-80235300D02*
X164402362Y-80632660D01*
X152100000Y-82991188D02*
X151853612Y-82744800D01*
X144603590Y-83024028D02*
X144324362Y-82744800D01*
X166912112Y-80704998D02*
X167107114Y-80900000D01*
X156873112Y-78191220D02*
X157102690Y-78420798D01*
X159382862Y-78082862D02*
X159700000Y-78400000D01*
X136000000Y-81900000D02*
X135450000Y-81350000D01*
X149343862Y-78043862D02*
X149700000Y-78400000D01*
X156873112Y-77725800D02*
X156873112Y-78191220D01*
X146834112Y-80235300D02*
X146834112Y-80664410D01*
X164402362Y-80632660D02*
X164700000Y-80930298D01*
X139600000Y-83400000D02*
X139600000Y-83039938D01*
X146834112Y-80664410D02*
X147100000Y-80930298D01*
X159382862Y-83111013D02*
X159711647Y-83439798D01*
X164402362Y-82902362D02*
X164800000Y-83300000D01*
X164402362Y-82744800D02*
X164402362Y-82902362D01*
X152100000Y-83400000D02*
X152100000Y-82991188D01*
X147200000Y-83400000D02*
X147200000Y-83110688D01*
X154363362Y-80693660D02*
X154600000Y-80930298D01*
X141814612Y-77725800D02*
X141814612Y-78114612D01*
X151853612Y-77725800D02*
X151853612Y-78053612D01*
X154363362Y-82744800D02*
X154363362Y-83163362D01*
X161892612Y-80492612D02*
X162300000Y-80900000D01*
X139600000Y-83039938D02*
X139304862Y-82744800D01*
X154363362Y-78163362D02*
X154600000Y-78400000D01*
X166912112Y-78027075D02*
X167308816Y-78423779D01*
X159382862Y-77725800D02*
X159382862Y-78082862D01*
X151853612Y-78053612D02*
X152100000Y-78300000D01*
X166912112Y-77725800D02*
X166912112Y-78027075D01*
X156873112Y-83073112D02*
X157200000Y-83400000D01*
X159382862Y-80582862D02*
X159700000Y-80900000D01*
X139304862Y-80777232D02*
X139328964Y-80801334D01*
X136544800Y-82744800D02*
X136795112Y-82744800D01*
X136564700Y-80235300D02*
X135450000Y-81350000D01*
X144324362Y-78137982D02*
X144543190Y-78356810D01*
X161892612Y-77992612D02*
X162300000Y-78400000D01*
X149343862Y-80572318D02*
X149702036Y-80930492D01*
X141814612Y-80235300D02*
X141814612Y-80776220D01*
X161892612Y-82744800D02*
X161892612Y-82992612D01*
X136000000Y-82200000D02*
X136000000Y-81900000D01*
X161892612Y-77725800D02*
X161892612Y-77992612D01*
X137125800Y-77725800D02*
X137300000Y-77900000D01*
X142000000Y-83400000D02*
X142000000Y-82930188D01*
X147200000Y-83110688D02*
X146834112Y-82744800D01*
X156873112Y-80700720D02*
X157102690Y-80930298D01*
X136795112Y-77725800D02*
X137125800Y-77725800D01*
X151853612Y-80235300D02*
X151853612Y-80777232D01*
X139304862Y-78104862D02*
X139600000Y-78400000D01*
X141814612Y-78114612D02*
X142100000Y-78400000D01*
X161892612Y-80235300D02*
X161892612Y-80492612D01*
X142000000Y-82930188D02*
X141814612Y-82744800D01*
X164402362Y-77725800D02*
X164402362Y-78123160D01*
X159382862Y-82744800D02*
X159382862Y-83111013D01*
X166912112Y-82744800D02*
X166912112Y-83112112D01*
X156873112Y-80235300D02*
X156873112Y-80700720D01*
X144324362Y-80777232D02*
X144423565Y-80876435D01*
X136795112Y-80235300D02*
X136564700Y-80235300D01*
X144324362Y-77725800D02*
X144324362Y-78137982D01*
X159382862Y-80235300D02*
X159382862Y-80582862D01*
X154363362Y-80235300D02*
X154363362Y-80693660D01*
X154363362Y-83163362D02*
X154600000Y-83400000D01*
X146834112Y-77725800D02*
X146834112Y-78154910D01*
X149343862Y-80235300D02*
X149343862Y-80572318D01*
D17*
%TO.N,Net-(ICled2-DO)*%
X138285112Y-52924000D02*
X139304862Y-53943750D01*
X138285112Y-52624000D02*
X138285112Y-52924000D01*
X139304862Y-53943750D02*
X139304862Y-54114000D01*
D16*
%TO.N,Vdd_str6*%
X167821983Y-89255500D02*
X167707261Y-89140778D01*
X168457784Y-86090745D02*
X168457784Y-86690328D01*
X150833862Y-86545263D02*
X150296337Y-86007738D01*
X158200000Y-91070002D02*
X158200000Y-91601888D01*
X148324112Y-91340650D02*
X148324112Y-91650000D01*
X145814362Y-88915238D02*
X145459518Y-88560394D01*
X145814362Y-86614362D02*
X145300000Y-86100000D01*
X153121146Y-91542534D02*
X153228612Y-91650000D01*
X150833862Y-91418758D02*
X150833862Y-91650000D01*
X143189612Y-91650000D02*
X143304612Y-91650000D01*
X163382612Y-88882612D02*
X163100000Y-88600000D01*
X160511515Y-91137171D02*
X160511515Y-91403653D01*
X137970823Y-91135411D02*
X137970823Y-91450711D01*
X145814362Y-89255500D02*
X145814362Y-88915238D01*
X138285112Y-86746000D02*
X138285112Y-86438756D01*
X165652148Y-91524786D02*
X165777362Y-91650000D01*
X145543899Y-91106909D02*
X145543899Y-91494537D01*
X155853362Y-88997435D02*
X155404208Y-88548281D01*
X140455500Y-89255500D02*
X140200000Y-89000000D01*
X138285112Y-89227096D02*
X137796559Y-88738543D01*
X158363112Y-89255500D02*
X158363112Y-89131900D01*
X140441242Y-91069919D02*
X140441242Y-91411380D01*
X158363112Y-86746000D02*
X158363112Y-86663112D01*
X143304612Y-86504612D02*
X142900000Y-86100000D01*
X155853362Y-89255500D02*
X155853362Y-88997435D01*
X165892362Y-88998044D02*
X165494318Y-88600000D01*
X140794862Y-89255500D02*
X140455500Y-89255500D01*
X137970823Y-91450711D02*
X138170112Y-91650000D01*
X169800000Y-79475000D02*
X169800000Y-79700000D01*
X140794862Y-86494862D02*
X140400000Y-86100000D01*
X148324112Y-89255500D02*
X148324112Y-89023708D01*
X150521146Y-91106042D02*
X150833862Y-91418758D01*
X168402112Y-91765000D02*
X168402112Y-91402112D01*
X148324112Y-86746000D02*
X148324112Y-86424112D01*
X143304612Y-89255500D02*
X143304612Y-89104612D01*
X140794862Y-86746000D02*
X140794862Y-86494862D01*
X138285112Y-86438756D02*
X137895100Y-86048744D01*
X163382612Y-86582612D02*
X162900000Y-86100000D01*
X153343612Y-89145529D02*
X152798083Y-88600000D01*
X162968523Y-91485653D02*
X163132870Y-91650000D01*
X168402112Y-89255500D02*
X167821983Y-89255500D01*
X148324112Y-89023708D02*
X147987427Y-88687023D01*
X153343612Y-89255500D02*
X153343612Y-89145529D01*
X160757862Y-91650000D02*
X160872862Y-91650000D01*
X165892362Y-86445908D02*
X165494318Y-86047864D01*
X155853362Y-86746000D02*
X155853362Y-86498212D01*
X145814362Y-86746000D02*
X145814362Y-86614362D01*
X138285112Y-89255500D02*
X138285112Y-89227096D01*
X155616605Y-91528243D02*
X155738362Y-91650000D01*
X155616605Y-91121311D02*
X155616605Y-91528243D01*
X163382612Y-89255500D02*
X163382612Y-88882612D01*
X153343612Y-86549380D02*
X152798083Y-86003851D01*
X155853362Y-86498212D02*
X155390421Y-86035271D01*
X143304612Y-89104612D02*
X142900000Y-88700000D01*
X153121146Y-91106042D02*
X153121146Y-91542534D01*
X165652148Y-91117854D02*
X165652148Y-91524786D01*
X165892362Y-86746000D02*
X165892362Y-86445908D01*
X158248112Y-91650000D02*
X158363112Y-91650000D01*
X148324112Y-86424112D02*
X148000000Y-86100000D01*
X168457784Y-86690328D02*
X168402112Y-86746000D01*
X160872862Y-89255500D02*
X160872862Y-89166535D01*
X150833862Y-86746000D02*
X150833862Y-86545263D01*
X145543899Y-91494537D02*
X145699362Y-91650000D01*
X143304612Y-86746000D02*
X143304612Y-86504612D01*
X140441242Y-91411380D02*
X140679862Y-91650000D01*
X158200000Y-91601888D02*
X158248112Y-91650000D01*
X169800000Y-77925000D02*
X169800000Y-79475000D01*
X169800000Y-79700000D02*
X169200000Y-80300000D01*
X140679862Y-91650000D02*
X140794862Y-91650000D01*
X163382612Y-86746000D02*
X163382612Y-86582612D01*
X155738362Y-91650000D02*
X155853362Y-91650000D01*
X148053464Y-91070002D02*
X148324112Y-91340650D01*
X153343612Y-86746000D02*
X153343612Y-86549380D01*
X158363112Y-89131900D02*
X157839031Y-88607819D01*
X158363112Y-86663112D02*
X157800000Y-86100000D01*
X168402112Y-91402112D02*
X168100000Y-91100000D01*
X145699362Y-91650000D02*
X145814362Y-91650000D01*
X165777362Y-91650000D02*
X165892362Y-91650000D01*
X160872862Y-86746000D02*
X160872862Y-86672862D01*
X143021146Y-91106042D02*
X143021146Y-91481534D01*
X150833862Y-89237525D02*
X150296337Y-88700000D01*
X160872862Y-89166535D02*
X160409617Y-88703290D01*
X165892362Y-89255500D02*
X165892362Y-88998044D01*
X160511515Y-91403653D02*
X160757862Y-91650000D01*
X138170112Y-91650000D02*
X138285112Y-91650000D01*
X160872862Y-86672862D02*
X160300000Y-86100000D01*
X163132870Y-91650000D02*
X163382612Y-91650000D01*
X143021146Y-91481534D02*
X143189612Y-91650000D01*
X150833862Y-89255500D02*
X150833862Y-89237525D01*
X153228612Y-91650000D02*
X153343612Y-91650000D01*
D17*
%TO.N,Net-(ICled3-DO)*%
X139305000Y-48924722D02*
X139305000Y-49095000D01*
X138285278Y-47605000D02*
X138285278Y-47905000D01*
X138285278Y-47905000D02*
X139305000Y-48924722D01*
%TO.N,Net-(ICled116-DO)*%
X168074900Y-65174900D02*
X167800000Y-64900000D01*
X136430215Y-69539297D02*
X136795112Y-69174400D01*
X136125166Y-69539297D02*
X136430215Y-69539297D01*
X168402112Y-65174900D02*
X168074900Y-65174900D01*
D16*
%TO.N,Vss_str6*%
X146834112Y-85529691D02*
X147263381Y-85958960D01*
X156873112Y-85590927D02*
X157103640Y-85821455D01*
X156873112Y-87765500D02*
X156873112Y-88229970D01*
X136795112Y-90275000D02*
X136795112Y-90295112D01*
X141814612Y-88175110D02*
X142100000Y-88460498D01*
X164402362Y-85256000D02*
X164402362Y-85607269D01*
X136795112Y-90295112D02*
X137300000Y-90800000D01*
X144324362Y-85256000D02*
X144324362Y-85715158D01*
X149343862Y-90275000D02*
X149343862Y-90443862D01*
X141814612Y-85514612D02*
X142100000Y-85800000D01*
X146834112Y-88034200D02*
X147269603Y-88469691D01*
X146834112Y-87765500D02*
X146834112Y-88034200D01*
X151853612Y-85756514D02*
X152048096Y-85950998D01*
X139304862Y-88104862D02*
X139600000Y-88400000D01*
X159382862Y-85256000D02*
X159382862Y-85695896D01*
X161892612Y-85683408D02*
X162160202Y-85950998D01*
X149343862Y-87765500D02*
X149343862Y-88185579D01*
X169800000Y-81375000D02*
X169800000Y-80800000D01*
X144324362Y-85715158D02*
X144560202Y-85950998D01*
X144324362Y-90511651D02*
X144803016Y-90990305D01*
X159382862Y-90275000D02*
X159382862Y-90482862D01*
X159382862Y-85695896D02*
X159579316Y-85892350D01*
X141814612Y-87765500D02*
X141814612Y-88175110D01*
X139304862Y-85256000D02*
X139844000Y-85256000D01*
X139304862Y-87765500D02*
X139304862Y-88104862D01*
X151853612Y-85256000D02*
X151853612Y-85756514D01*
X156873112Y-90373112D02*
X157400000Y-90900000D01*
X156873112Y-88229970D02*
X157103640Y-88460498D01*
X161892612Y-90292612D02*
X162500000Y-90900000D01*
X154363362Y-87765500D02*
X154363362Y-88164500D01*
X161892612Y-87765500D02*
X161892612Y-87992612D01*
X156873112Y-85256000D02*
X156873112Y-85590927D01*
X136795112Y-85256000D02*
X137256000Y-85256000D01*
X164402362Y-90275000D02*
X164402362Y-90572531D01*
X149343862Y-85256000D02*
X149343862Y-85659975D01*
X159382862Y-87765500D02*
X159382862Y-88143360D01*
X149343862Y-90443862D02*
X149800000Y-90900000D01*
X164402362Y-90572531D02*
X164803322Y-90973491D01*
X169800000Y-76700000D02*
X169700000Y-76800000D01*
X141814612Y-90275000D02*
X141814612Y-90414612D01*
X159382862Y-90482862D02*
X159800000Y-90900000D01*
X146834112Y-85256000D02*
X146834112Y-85529691D01*
X167727364Y-85920483D02*
X167576595Y-85920483D01*
X161892612Y-85256000D02*
X161892612Y-85683408D01*
X161892612Y-90275000D02*
X161892612Y-90292612D01*
X141814612Y-90414612D02*
X142300000Y-90900000D01*
X166994965Y-90905035D02*
X166994965Y-90357853D01*
X146834112Y-90275000D02*
X146834112Y-90518085D01*
X169800000Y-76025000D02*
X169800000Y-76700000D01*
X161892612Y-87992612D02*
X162300000Y-88400000D01*
X151853612Y-90353612D02*
X152400000Y-90900000D01*
X164402362Y-85607269D02*
X164746091Y-85950998D01*
X154363362Y-88164500D02*
X154659360Y-88460498D01*
X166912112Y-87765500D02*
X166912112Y-87812112D01*
X159382862Y-88143360D02*
X159700000Y-88460498D01*
X135971112Y-86080000D02*
X136795112Y-85256000D01*
X154363362Y-85571780D02*
X154659360Y-85867778D01*
X139844000Y-85256000D02*
X139900000Y-85200000D01*
X136795112Y-88155610D02*
X137100000Y-88460498D01*
X149343862Y-85659975D02*
X149558283Y-85874396D01*
X166912112Y-87812112D02*
X167500000Y-88400000D01*
X151853612Y-87765500D02*
X151853612Y-88205516D01*
X151853612Y-90275000D02*
X151853612Y-90353612D01*
X144324362Y-87765500D02*
X144324362Y-88073485D01*
X156873112Y-90275000D02*
X156873112Y-90373112D01*
X164402362Y-87765500D02*
X164402362Y-88116769D01*
X144324362Y-88073485D02*
X144713550Y-88462673D01*
X154363362Y-85256000D02*
X154363362Y-85571780D01*
X144324362Y-90275000D02*
X144324362Y-90511651D01*
X146834112Y-90518085D02*
X147303582Y-90987555D01*
X149343862Y-88185579D02*
X149558283Y-88400000D01*
X134600000Y-86080000D02*
X135971112Y-86080000D01*
X154363362Y-90363362D02*
X154900000Y-90900000D01*
X151853612Y-88205516D02*
X152048096Y-88400000D01*
X136795112Y-87765500D02*
X136795112Y-88155610D01*
X167576595Y-85920483D02*
X166912112Y-85256000D01*
X137256000Y-85256000D02*
X137400000Y-85400000D01*
X139700000Y-90900000D02*
X139700000Y-90670138D01*
X166994965Y-90357853D02*
X166912112Y-90275000D01*
X154363362Y-90275000D02*
X154363362Y-90363362D01*
X139700000Y-90670138D02*
X139304862Y-90275000D01*
X164402362Y-88116769D02*
X164746091Y-88460498D01*
X141814612Y-85256000D02*
X141814612Y-85514612D01*
D17*
%TO.N,Net-(ICled119-DI)*%
X168012214Y-72705100D02*
X167707114Y-72400000D01*
X137362778Y-76989748D02*
X137080260Y-76989748D01*
X137080260Y-76989748D02*
X136795112Y-76704600D01*
X168402112Y-72705100D02*
X168012214Y-72705100D01*
%TO.N,din_led_pwm_1*%
X136637651Y-48400000D02*
X136637651Y-48937373D01*
X136637651Y-48937373D02*
X136795278Y-49095000D01*
%TO.N,Net-(ICled4-DO)*%
X141814640Y-51304500D02*
X140794897Y-50284757D01*
X140794897Y-50284757D02*
X140794897Y-50114500D01*
X141814640Y-51604500D02*
X141814640Y-51304500D01*
%TO.N,Net-(ICled5-DO)*%
X140794862Y-52624000D02*
X140794862Y-52924000D01*
X140794862Y-52924000D02*
X141814612Y-53943750D01*
X141814612Y-53943750D02*
X141814612Y-54114000D01*
%TO.N,Net-(ICled10-DI)*%
X143304640Y-50284757D02*
X143304640Y-50114500D01*
X144324383Y-51604500D02*
X144324383Y-51304500D01*
X144324383Y-51304500D02*
X143304640Y-50284757D01*
%TO.N,Net-(ICled11-DI)*%
X144324362Y-53943750D02*
X144324362Y-54114000D01*
X143304612Y-52924000D02*
X144324362Y-53943750D01*
X143304612Y-52624000D02*
X143304612Y-52924000D01*
%TO.N,Net-(ICled12-DI)*%
X143304722Y-47605000D02*
X143304722Y-47905000D01*
X143304722Y-47905000D02*
X144324444Y-48924722D01*
X144324444Y-48924722D02*
X144324444Y-49095000D01*
%TO.N,Net-(ICled6-DO)*%
X140795000Y-47905000D02*
X141814722Y-48924722D01*
X141814722Y-48924722D02*
X141814722Y-49095000D01*
X140795000Y-47605000D02*
X140795000Y-47905000D01*
%TO.N,Net-(ICled10-DO)*%
X146834126Y-51304500D02*
X145814383Y-50284757D01*
X146834126Y-51604500D02*
X146834126Y-51304500D01*
X145814383Y-50284757D02*
X145814383Y-50114500D01*
%TO.N,Net-(ICled11-DO)*%
X146834112Y-53814000D02*
X146834112Y-54114000D01*
X145814362Y-52794250D02*
X146834112Y-53814000D01*
X145814362Y-52624000D02*
X145814362Y-52794250D01*
%TO.N,Net-(ICled12-DO)*%
X145814444Y-47905000D02*
X146834166Y-48924722D01*
X145814444Y-47605000D02*
X145814444Y-47905000D01*
X146834166Y-48924722D02*
X146834166Y-49095000D01*
%TO.N,Net-(ICled13-DO)*%
X149343869Y-51434243D02*
X148324126Y-50414500D01*
X148324126Y-50414500D02*
X148324126Y-50114500D01*
X149343869Y-51604500D02*
X149343869Y-51434243D01*
%TO.N,Net-(ICled14-DO)*%
X149343862Y-53943750D02*
X149343862Y-54114000D01*
X148324112Y-52624000D02*
X148324112Y-52924000D01*
X148324112Y-52924000D02*
X149343862Y-53943750D01*
%TO.N,Net-(ICled15-DO)*%
X148324166Y-47605000D02*
X148324166Y-47905000D01*
X149343888Y-48924722D02*
X149343888Y-49095000D01*
X148324166Y-47905000D02*
X149343888Y-48924722D01*
%TO.N,Net-(ICled16-DO)*%
X151853612Y-51604500D02*
X151853612Y-51304500D01*
X151853612Y-51304500D02*
X150833869Y-50284757D01*
X150833869Y-50284757D02*
X150833869Y-50114500D01*
%TO.N,Net-(ICled17-DO)*%
X151853612Y-53943750D02*
X151853612Y-54114000D01*
X150833862Y-52624000D02*
X150833862Y-52924000D01*
X150833862Y-52924000D02*
X151853612Y-53943750D01*
%TO.N,Net-(ICled18-DO)*%
X151853610Y-48924722D02*
X151853610Y-49095000D01*
X150833888Y-47605000D02*
X150833888Y-47905000D01*
X150833888Y-47905000D02*
X151853610Y-48924722D01*
%TO.N,Net-(ICled19-DO)*%
X154363355Y-51434243D02*
X153343612Y-50414500D01*
X154363355Y-51604500D02*
X154363355Y-51434243D01*
X153343612Y-50414500D02*
X153343612Y-50114500D01*
%TO.N,Net-(ICled20-DO)*%
X153343612Y-52924000D02*
X154363362Y-53943750D01*
X153343612Y-52624000D02*
X153343612Y-52924000D01*
X154363362Y-53943750D02*
X154363362Y-54114000D01*
%TO.N,Net-(ICled21-DO)*%
X153343610Y-47605000D02*
X153343610Y-47905000D01*
X153343610Y-47905000D02*
X154363332Y-48924722D01*
X154363332Y-48924722D02*
X154363332Y-49095000D01*
%TO.N,Net-(ICled22-DO)*%
X156873098Y-51604500D02*
X156873098Y-51304500D01*
X155853355Y-50284757D02*
X155853355Y-50114500D01*
X156873098Y-51304500D02*
X155853355Y-50284757D01*
%TO.N,Net-(ICled23-DO)*%
X155853362Y-52924000D02*
X156873112Y-53943750D01*
X156873112Y-53943750D02*
X156873112Y-54114000D01*
X155853362Y-52624000D02*
X155853362Y-52924000D01*
%TO.N,Net-(ICled24-DO)*%
X155853332Y-47905000D02*
X156873054Y-48924722D01*
X156873054Y-48924722D02*
X156873054Y-49095000D01*
X155853332Y-47605000D02*
X155853332Y-47905000D01*
%TO.N,Net-(ICled25-DO)*%
X159382841Y-51604500D02*
X159382841Y-51572841D01*
X158363098Y-50553098D02*
X158363098Y-50114500D01*
X159382841Y-51572841D02*
X158363098Y-50553098D01*
%TO.N,Net-(ICled26-DO)*%
X158363112Y-52924000D02*
X159382862Y-53943750D01*
X158363112Y-52624000D02*
X158363112Y-52924000D01*
X159382862Y-53943750D02*
X159382862Y-54114000D01*
%TO.N,Net-(ICled27-DO)*%
X158363054Y-47905000D02*
X159382776Y-48924722D01*
X159382776Y-48924722D02*
X159382776Y-49095000D01*
X158363054Y-47605000D02*
X158363054Y-47905000D01*
%TO.N,Net-(ICled28-DO)*%
X160872841Y-50284757D02*
X160872841Y-50114500D01*
X161892584Y-51304500D02*
X160872841Y-50284757D01*
X161892584Y-51604500D02*
X161892584Y-51304500D01*
%TO.N,Net-(ICled29-DO)*%
X160872862Y-52624000D02*
X160872862Y-52924000D01*
X160872862Y-52924000D02*
X161892612Y-53943750D01*
X161892612Y-53943750D02*
X161892612Y-54114000D01*
%TO.N,Net-(ICled30-DO)*%
X160872776Y-47905000D02*
X161892498Y-48924722D01*
X161892498Y-48924722D02*
X161892498Y-49095000D01*
X160872776Y-47605000D02*
X160872776Y-47905000D01*
%TO.N,Net-(ICled31-DO)*%
X164402327Y-51604500D02*
X164402327Y-51304500D01*
X163382584Y-50284757D02*
X163382584Y-50114500D01*
X164402327Y-51304500D02*
X163382584Y-50284757D01*
%TO.N,Net-(ICled32-DO)*%
X163382612Y-52924000D02*
X164402362Y-53943750D01*
X164402362Y-53943750D02*
X164402362Y-54114000D01*
X163382612Y-52624000D02*
X163382612Y-52924000D01*
%TO.N,Net-(ICled33-DO)*%
X163382498Y-47605000D02*
X163382498Y-47905000D01*
X164402220Y-48924722D02*
X164402220Y-49095000D01*
X163382498Y-47905000D02*
X164402220Y-48924722D01*
%TO.N,Net-(ICled34-DO)*%
X165892327Y-50284756D02*
X165892327Y-50114500D01*
X166912071Y-51604500D02*
X166912071Y-51304500D01*
X166912071Y-51304500D02*
X165892327Y-50284756D01*
%TO.N,Net-(ICled35-DO)*%
X165892362Y-52624000D02*
X165892362Y-52924000D01*
X165892362Y-52924000D02*
X166912112Y-53943750D01*
X166912112Y-53943750D02*
X166912112Y-54114000D01*
%TO.N,Net-(ICled36-DO)*%
X166911946Y-48795000D02*
X166911946Y-49095000D01*
X165892220Y-47775274D02*
X166911946Y-48795000D01*
X165892220Y-47605000D02*
X165892220Y-47775274D01*
%TO.N,Net-(ICled158-DI)*%
X136896580Y-84133332D02*
X136795112Y-84234800D01*
X168402112Y-80235300D02*
X168042414Y-80235300D01*
X136896580Y-83539800D02*
X136896580Y-84133332D01*
X168042414Y-80235300D02*
X167707114Y-79900000D01*
%TO.N,Net-(ICled197-DI)*%
X136730112Y-91700000D02*
X136795112Y-91700000D01*
X136550002Y-91519890D02*
X136730112Y-91700000D01*
X136550002Y-91070002D02*
X136550002Y-91519890D01*
X168402112Y-87765500D02*
X167972614Y-87765500D01*
X167972614Y-87765500D02*
X167707114Y-87500000D01*
%TO.N,Net-(ICled40-DI)*%
X168033723Y-55135200D02*
X167858523Y-54960000D01*
X136790000Y-59129546D02*
X136795154Y-59134700D01*
X136790000Y-58570000D02*
X136790000Y-59129546D01*
X168402362Y-55135200D02*
X168033723Y-55135200D01*
%TO.N,Net-(ICled40-DO)*%
X138285154Y-57944700D02*
X139304897Y-58964443D01*
X138285154Y-57644700D02*
X138285154Y-57944700D01*
X139304897Y-58964443D02*
X139304897Y-59134700D01*
%TO.N,Net-(ICled41-DO)*%
X138285112Y-60324450D02*
X138285112Y-60154200D01*
X139304862Y-61344200D02*
X138285112Y-60324450D01*
X139304862Y-61644200D02*
X139304862Y-61344200D01*
%TO.N,Net-(ICled42-DO)*%
X138284862Y-55435200D02*
X139304653Y-56454991D01*
X139304653Y-56454991D02*
X139304653Y-56625200D01*
X138284862Y-55135200D02*
X138284862Y-55435200D01*
%TO.N,Net-(ICled43-DO)*%
X140794897Y-57644700D02*
X140794897Y-57944700D01*
X141814640Y-58964443D02*
X141814640Y-59134700D01*
X140794897Y-57944700D02*
X141814640Y-58964443D01*
%TO.N,Net-(ICled44-DO)*%
X141814612Y-61644200D02*
X141814612Y-61344200D01*
X140794862Y-60324450D02*
X140794862Y-60154200D01*
X141814612Y-61344200D02*
X140794862Y-60324450D01*
%TO.N,dout_led_pwm_1*%
X168402112Y-52624000D02*
X168194422Y-52624000D01*
X168194422Y-52624000D02*
X167959138Y-52388716D01*
%TO.N,Net-(ICled49-DO)*%
X146834126Y-58964443D02*
X146834126Y-59134700D01*
X145814383Y-57644700D02*
X145814383Y-57944700D01*
X145814383Y-57944700D02*
X146834126Y-58964443D01*
%TO.N,Net-(ICled45-DO)*%
X140794653Y-55305409D02*
X141814444Y-56325200D01*
X140794653Y-55135200D02*
X140794653Y-55305409D01*
X141814444Y-56325200D02*
X141814444Y-56625200D01*
%TO.N,Net-(ICled46-DO)*%
X144324383Y-58964443D02*
X144324383Y-59134700D01*
X143304640Y-57644700D02*
X143304640Y-57944700D01*
X143304640Y-57944700D02*
X144324383Y-58964443D01*
%TO.N,Net-(ICled47-DO)*%
X143304612Y-60324450D02*
X143304612Y-60154200D01*
X144324362Y-61644200D02*
X144324362Y-61344200D01*
X144324362Y-61344200D02*
X143304612Y-60324450D01*
%TO.N,Net-(ICled48-DO)*%
X143304444Y-55435200D02*
X144324235Y-56454991D01*
X144324235Y-56454991D02*
X144324235Y-56625200D01*
X143304444Y-55135200D02*
X143304444Y-55435200D01*
%TO.N,Net-(ICled50-DO)*%
X146834112Y-61644200D02*
X146834112Y-61473950D01*
X145814362Y-60454200D02*
X145814362Y-60154200D01*
X146834112Y-61473950D02*
X145814362Y-60454200D01*
%TO.N,Net-(ICled51-DO)*%
X146834026Y-56554226D02*
X146834026Y-56625200D01*
X145814235Y-55534435D02*
X146834026Y-56554226D01*
X145814235Y-55135200D02*
X145814235Y-55534435D01*
%TO.N,Net-(ICled93-DO)*%
X149343862Y-63985150D02*
X149343862Y-64155400D01*
X148324112Y-62665400D02*
X148324112Y-62965400D01*
X148324112Y-62965400D02*
X149343862Y-63985150D01*
%TO.N,din_led_pwm_2*%
X136726263Y-56693799D02*
X136794862Y-56625200D01*
X136262468Y-56693799D02*
X136726263Y-56693799D01*
%TO.N,Net-(ICled52-DO)*%
X148324126Y-57944700D02*
X149343869Y-58964443D01*
X148324126Y-57644700D02*
X148324126Y-57944700D01*
X149343869Y-58964443D02*
X149343869Y-59134700D01*
%TO.N,Net-(ICled53-DO)*%
X148324112Y-60324450D02*
X148324112Y-60154200D01*
X149343862Y-61644200D02*
X149343862Y-61344200D01*
X149343862Y-61344200D02*
X148324112Y-60324450D01*
%TO.N,Net-(ICled54-DO)*%
X148324026Y-55435200D02*
X149343817Y-56454991D01*
X148324026Y-55135200D02*
X148324026Y-55435200D01*
X149343817Y-56454991D02*
X149343817Y-56625200D01*
%TO.N,Net-(ICled55-DO)*%
X150833869Y-57944700D02*
X151853612Y-58964443D01*
X151853612Y-58964443D02*
X151853612Y-59134700D01*
X150833869Y-57644700D02*
X150833869Y-57944700D01*
%TO.N,Net-(ICled56-DO)*%
X150833862Y-60324450D02*
X150833862Y-60154200D01*
X151853612Y-61644200D02*
X151853612Y-61344200D01*
X151853612Y-61344200D02*
X150833862Y-60324450D01*
%TO.N,Net-(ICled57-DO)*%
X151853608Y-56454991D02*
X151853608Y-56625200D01*
X150833817Y-55135200D02*
X150833817Y-55435200D01*
X150833817Y-55435200D02*
X151853608Y-56454991D01*
%TO.N,Net-(ICled58-DO)*%
X153343612Y-57644700D02*
X153343612Y-57944700D01*
X154363355Y-58964443D02*
X154363355Y-59134700D01*
X153343612Y-57944700D02*
X154363355Y-58964443D01*
%TO.N,Net-(ICled59-DO)*%
X154363362Y-61644200D02*
X154363362Y-61344200D01*
X153343612Y-60324450D02*
X153343612Y-60154200D01*
X154363362Y-61344200D02*
X153343612Y-60324450D01*
%TO.N,Net-(ICled60-DO)*%
X153343608Y-55305409D02*
X154363399Y-56325200D01*
X153343608Y-55135200D02*
X153343608Y-55305409D01*
X154363399Y-56325200D02*
X154363399Y-56625200D01*
%TO.N,Net-(ICled61-DO)*%
X156873098Y-58964443D02*
X156873098Y-59134700D01*
X155853355Y-57944700D02*
X156873098Y-58964443D01*
X155853355Y-57644700D02*
X155853355Y-57944700D01*
%TO.N,Net-(ICled62-DO)*%
X156873112Y-61644200D02*
X156873112Y-61344200D01*
X156873112Y-61344200D02*
X155853362Y-60324450D01*
X155853362Y-60324450D02*
X155853362Y-60154200D01*
%TO.N,Net-(ICled63-DO)*%
X156873190Y-56325200D02*
X156873190Y-56625200D01*
X155853399Y-55305409D02*
X156873190Y-56325200D01*
X155853399Y-55135200D02*
X155853399Y-55305409D01*
%TO.N,Net-(ICled64-DO)*%
X159382841Y-58964443D02*
X159382841Y-59134700D01*
X158363098Y-57644700D02*
X158363098Y-57944700D01*
X158363098Y-57944700D02*
X159382841Y-58964443D01*
%TO.N,Net-(ICled65-DO)*%
X158363112Y-60154200D02*
X158035800Y-60154200D01*
X159382862Y-61644200D02*
X159382862Y-61473950D01*
X158363112Y-60454200D02*
X158363112Y-60154200D01*
X159382862Y-61473950D02*
X158363112Y-60454200D01*
X158035800Y-60154200D02*
X158010000Y-60180000D01*
%TO.N,Net-(ICled66-DO)*%
X159382981Y-56454991D02*
X159382981Y-56625200D01*
X158363190Y-55135200D02*
X158363190Y-55435200D01*
X158363190Y-55435200D02*
X159382981Y-56454991D01*
%TO.N,Net-(ICled67-DO)*%
X160872841Y-57644700D02*
X160872841Y-57944700D01*
X160872841Y-57944700D02*
X161892584Y-58964443D01*
X161892584Y-58964443D02*
X161892584Y-59134700D01*
%TO.N,Net-(ICled68-DO)*%
X161892612Y-61344200D02*
X160872862Y-60324450D01*
X160872862Y-60324450D02*
X160872862Y-60154200D01*
X161892612Y-61644200D02*
X161892612Y-61344200D01*
%TO.N,Net-(ICled69-DO)*%
X160872981Y-55135200D02*
X160872981Y-55435200D01*
X160872981Y-55435200D02*
X161892772Y-56454991D01*
X161892772Y-56454991D02*
X161892772Y-56625200D01*
%TO.N,Net-(ICled70-DO)*%
X163807327Y-57997327D02*
X163807327Y-58369443D01*
X163807327Y-58369443D02*
X164402327Y-58964443D01*
X163382584Y-57644700D02*
X163454700Y-57644700D01*
X164402327Y-58964443D02*
X164402327Y-59134700D01*
X163454700Y-57644700D02*
X163807327Y-57997327D01*
%TO.N,Net-(ICled71-DO)*%
X163382612Y-60454200D02*
X163382612Y-60154200D01*
X164402362Y-61644200D02*
X164402362Y-61473950D01*
X164402362Y-61473950D02*
X163382612Y-60454200D01*
%TO.N,Net-(ICled72-DO)*%
X164402563Y-56080200D02*
X164402563Y-56625200D01*
X164122363Y-55800000D02*
X164402563Y-56080200D01*
X163502572Y-55800000D02*
X164122363Y-55800000D01*
X163382772Y-55135200D02*
X163382772Y-55680200D01*
X163382772Y-55680200D02*
X163502572Y-55800000D01*
%TO.N,Net-(ICled73-DO)*%
X165892327Y-57944700D02*
X166912071Y-58964444D01*
X166912071Y-58964444D02*
X166912071Y-59134700D01*
X165892327Y-57644700D02*
X165892327Y-57944700D01*
%TO.N,Net-(ICled74-DO)*%
X166912112Y-61644200D02*
X166912112Y-61544750D01*
X165892362Y-60525000D02*
X165892362Y-60154200D01*
X166912112Y-61544750D02*
X165892362Y-60525000D01*
%TO.N,Net-(ICled75-DO)*%
X166912362Y-56454999D02*
X166912362Y-56625200D01*
X165892563Y-55135200D02*
X165892563Y-55435200D01*
X165892563Y-55435200D02*
X166912362Y-56454999D01*
%TO.N,Net-(ICled94-DO)*%
X151853612Y-66494650D02*
X151853612Y-66664900D01*
X150833862Y-65474900D02*
X151853612Y-66494650D01*
X150833862Y-65174900D02*
X150833862Y-65474900D01*
%TO.N,Net-(ICled95-DO)*%
X150833862Y-67684400D02*
X150833862Y-67984400D01*
X151853612Y-69004150D02*
X151853612Y-69174400D01*
X150833862Y-67984400D02*
X151853612Y-69004150D01*
%TO.N,Net-(ICled96-DO)*%
X150833862Y-62665400D02*
X150833862Y-63105000D01*
X151853612Y-64124750D02*
X151853612Y-64155400D01*
X150833862Y-63105000D02*
X151853612Y-64124750D01*
%TO.N,Net-(ICled79-DO)*%
X138285112Y-65174900D02*
X138285112Y-65474900D01*
X139304862Y-66494650D02*
X139304862Y-66664900D01*
X138285112Y-65474900D02*
X139304862Y-66494650D01*
%TO.N,Net-(ICled80-DO)*%
X138285112Y-67984400D02*
X139304862Y-69004150D01*
X138285112Y-67684400D02*
X138285112Y-67984400D01*
X139304862Y-69004150D02*
X139304862Y-69174400D01*
%TO.N,Net-(ICled81-DO)*%
X138285112Y-62665400D02*
X138285112Y-62965400D01*
X139304862Y-63985150D02*
X139304862Y-64155400D01*
X138285112Y-62965400D02*
X139304862Y-63985150D01*
%TO.N,Net-(ICled82-DO)*%
X140794862Y-65174900D02*
X140794862Y-65474900D01*
X140794862Y-65474900D02*
X141814612Y-66494650D01*
X141814612Y-66494650D02*
X141814612Y-66664900D01*
%TO.N,Net-(ICled83-DO)*%
X141814612Y-69004150D02*
X141814612Y-69174400D01*
X140794862Y-67984400D02*
X141814612Y-69004150D01*
X140794862Y-67684400D02*
X140794862Y-67984400D01*
%TO.N,Net-(ICled84-DO)*%
X140794862Y-62665400D02*
X140794862Y-62965400D01*
X141814612Y-63985150D02*
X141814612Y-64155400D01*
X140794862Y-62965400D02*
X141814612Y-63985150D01*
%TO.N,Net-(ICled85-DO)*%
X143304612Y-65474900D02*
X144324362Y-66494650D01*
X144324362Y-66494650D02*
X144324362Y-66664900D01*
X143304612Y-65174900D02*
X143304612Y-65474900D01*
%TO.N,Net-(ICled86-DO)*%
X143304612Y-67684400D02*
X143304612Y-67984400D01*
X143304612Y-67984400D02*
X144324362Y-69004150D01*
X144324362Y-69004150D02*
X144324362Y-69174400D01*
%TO.N,Net-(ICled87-DO)*%
X143304612Y-62665400D02*
X143304612Y-62965400D01*
X143304612Y-62965400D02*
X144324362Y-63985150D01*
X144324362Y-63985150D02*
X144324362Y-64155400D01*
%TO.N,Net-(ICled88-DO)*%
X145814362Y-65174900D02*
X145814362Y-65474900D01*
X145814362Y-65474900D02*
X146834112Y-66494650D01*
X146834112Y-66494650D02*
X146834112Y-66664900D01*
%TO.N,Net-(ICled89-DO)*%
X145814362Y-67684400D02*
X145814362Y-67984400D01*
X145814362Y-67984400D02*
X146834112Y-69004150D01*
X146834112Y-69004150D02*
X146834112Y-69174400D01*
%TO.N,Net-(ICled90-DO)*%
X145814362Y-62965400D02*
X146834112Y-63985150D01*
X145814362Y-62665400D02*
X145814362Y-62965400D01*
X146834112Y-63985150D02*
X146834112Y-64155400D01*
%TO.N,Net-(ICled91-DO)*%
X148324112Y-65474900D02*
X149343862Y-66494650D01*
X149343862Y-66494650D02*
X149343862Y-66664900D01*
X148324112Y-65174900D02*
X148324112Y-65474900D01*
%TO.N,Net-(ICled92-DO)*%
X148324112Y-67984400D02*
X149343862Y-69004150D01*
X149343862Y-69004150D02*
X149343862Y-69174400D01*
X148324112Y-67684400D02*
X148324112Y-67984400D01*
%TO.N,dout_led_pwm_2*%
X168377912Y-60130000D02*
X168402112Y-60154200D01*
X167707114Y-60130000D02*
X168377912Y-60130000D01*
%TO.N,Net-(ICled101-DI)*%
X153343612Y-67984400D02*
X154363362Y-69004150D01*
X153343612Y-67684400D02*
X153343612Y-67984400D01*
X154363362Y-69004150D02*
X154363362Y-69174400D01*
%TO.N,Net-(ICled143-DO)*%
X158363112Y-75514600D02*
X159382862Y-76534350D01*
X158363112Y-75214600D02*
X158363112Y-75514600D01*
X159382862Y-76534350D02*
X159382862Y-76704600D01*
%TO.N,Net-(ICled100-DI)*%
X154363362Y-66494650D02*
X154363362Y-66664900D01*
X153343612Y-65174900D02*
X153343612Y-65474900D01*
X153343612Y-65474900D02*
X154363362Y-66494650D01*
%TO.N,Net-(ICled144-DO)*%
X158363112Y-70495600D02*
X159382862Y-71515350D01*
X159382862Y-71515350D02*
X159382862Y-71685600D01*
X158363112Y-70195600D02*
X158363112Y-70495600D01*
%TO.N,Net-(ICled102-DI)*%
X153343612Y-62965400D02*
X154363362Y-63985150D01*
X154363362Y-63985150D02*
X154363362Y-64155400D01*
X153343612Y-62665400D02*
X153343612Y-62965400D01*
%TO.N,Net-(ICled118-DI)*%
X168002714Y-70195600D02*
X167707114Y-69900000D01*
X137082558Y-74482546D02*
X136795112Y-74195100D01*
X168402112Y-70195600D02*
X168002714Y-70195600D01*
X137369657Y-74482546D02*
X137082558Y-74482546D01*
%TO.N,Net-(ICled142-DO)*%
X159382862Y-74024850D02*
X159382862Y-74195100D01*
X158363112Y-73005100D02*
X159382862Y-74024850D01*
X158363112Y-72705100D02*
X158363112Y-73005100D01*
%TO.N,Net-(ICled100-DO)*%
X156873112Y-66494650D02*
X156873112Y-66664900D01*
X155853362Y-65474900D02*
X156873112Y-66494650D01*
X155853362Y-65174900D02*
X155853362Y-65474900D01*
%TO.N,din_led_pwm_3*%
X136795112Y-64155400D02*
X136488532Y-64155400D01*
X136488532Y-64155400D02*
X136122004Y-64521928D01*
%TO.N,Net-(ICled101-DO)*%
X155853362Y-67984400D02*
X156873112Y-69004150D01*
X156873112Y-69004150D02*
X156873112Y-69174400D01*
X155853362Y-67684400D02*
X155853362Y-67984400D01*
%TO.N,Net-(ICled102-DO)*%
X155853362Y-62965400D02*
X156873112Y-63985150D01*
X155853362Y-62665400D02*
X155853362Y-62965400D01*
X156873112Y-63985150D02*
X156873112Y-64155400D01*
%TO.N,Net-(ICled103-DO)*%
X159382862Y-66494650D02*
X159382862Y-66664900D01*
X158363112Y-65174900D02*
X158363112Y-65474900D01*
X158363112Y-65474900D02*
X159382862Y-66494650D01*
%TO.N,Net-(ICled104-DO)*%
X158363112Y-67684400D02*
X158363112Y-67984400D01*
X159382862Y-69004150D02*
X159382862Y-69174400D01*
X158363112Y-67984400D02*
X159382862Y-69004150D01*
%TO.N,Net-(ICled105-DO)*%
X158363112Y-62965400D02*
X159382862Y-63985150D01*
X158363112Y-62665400D02*
X158363112Y-62965400D01*
X159382862Y-63985150D02*
X159382862Y-64155400D01*
%TO.N,Net-(ICled106-DO)*%
X160872862Y-65174900D02*
X160872862Y-65474900D01*
X160872862Y-65474900D02*
X161892612Y-66494650D01*
X161892612Y-66494650D02*
X161892612Y-66664900D01*
%TO.N,Net-(ICled107-DO)*%
X160872862Y-67684400D02*
X160872862Y-67984400D01*
X160872862Y-67984400D02*
X161892612Y-69004150D01*
X161892612Y-69004150D02*
X161892612Y-69174400D01*
%TO.N,Net-(ICled108-DO)*%
X161892612Y-63985150D02*
X161892612Y-64155400D01*
X160872862Y-62665400D02*
X160872862Y-62965400D01*
X160872862Y-62965400D02*
X161892612Y-63985150D01*
%TO.N,Net-(ICled109-DO)*%
X163382612Y-65275250D02*
X164402362Y-66295000D01*
X163382612Y-65174900D02*
X163382612Y-65275250D01*
X164402362Y-66295000D02*
X164402362Y-66664900D01*
%TO.N,Net-(ICled110-DO)*%
X164402362Y-69004150D02*
X164402362Y-69174400D01*
X163382612Y-67684400D02*
X163382612Y-67984400D01*
X163382612Y-67984400D02*
X164402362Y-69004150D01*
%TO.N,Net-(ICled111-DO)*%
X163382612Y-62965400D02*
X164402362Y-63985150D01*
X164402362Y-63985150D02*
X164402362Y-64155400D01*
X163382612Y-62665400D02*
X163382612Y-62965400D01*
%TO.N,Net-(ICled112-DO)*%
X165892362Y-65474900D02*
X166912112Y-66494650D01*
X166912112Y-66494650D02*
X166912112Y-66664900D01*
X165892362Y-65174900D02*
X165892362Y-65474900D01*
%TO.N,Net-(ICled113-DO)*%
X165892362Y-67984400D02*
X166912112Y-69004150D01*
X166912112Y-69004150D02*
X166912112Y-69174400D01*
X165892362Y-67684400D02*
X165892362Y-67984400D01*
%TO.N,Net-(ICled114-DO)*%
X165892362Y-62665400D02*
X165892362Y-62965400D01*
X166912112Y-63985150D02*
X166912112Y-64155400D01*
X165892362Y-62965400D02*
X166912112Y-63985150D01*
%TO.N,Net-(ICled115-DO)*%
X168089390Y-62665400D02*
X167771245Y-62347255D01*
X168402112Y-62665400D02*
X168089390Y-62665400D01*
X137300000Y-66600000D02*
X136860012Y-66600000D01*
X136860012Y-66600000D02*
X136795112Y-66664900D01*
%TO.N,Net-(ICled141-DO)*%
X156873112Y-71515350D02*
X156873112Y-71685600D01*
X155853362Y-70195600D02*
X155853362Y-70495600D01*
X155853362Y-70495600D02*
X156873112Y-71515350D01*
%TO.N,Net-(ICled118-DO)*%
X138285112Y-72705100D02*
X138285112Y-73005100D01*
X139304862Y-74024850D02*
X139304862Y-74195100D01*
X138285112Y-73005100D02*
X139304862Y-74024850D01*
%TO.N,Net-(ICled119-DO)*%
X138285112Y-75214600D02*
X138285112Y-75514600D01*
X138285112Y-75514600D02*
X139304862Y-76534350D01*
X139304862Y-76534350D02*
X139304862Y-76704600D01*
%TO.N,Net-(ICled120-DO)*%
X139304862Y-71515350D02*
X139304862Y-71685600D01*
X138285112Y-70495600D02*
X139304862Y-71515350D01*
X138285112Y-70195600D02*
X138285112Y-70495600D01*
%TO.N,Net-(ICled121-DO)*%
X141814612Y-74024850D02*
X141814612Y-74195100D01*
X140794862Y-73005100D02*
X141814612Y-74024850D01*
X140794862Y-72705100D02*
X140794862Y-73005100D01*
%TO.N,Net-(ICled122-DO)*%
X141814612Y-76534350D02*
X141814612Y-76704600D01*
X140794862Y-75514600D02*
X141814612Y-76534350D01*
X140794862Y-75214600D02*
X140794862Y-75514600D01*
%TO.N,Net-(ICled123-DO)*%
X141814612Y-71515350D02*
X141814612Y-71685600D01*
X140794862Y-70495600D02*
X141814612Y-71515350D01*
X140794862Y-70195600D02*
X140794862Y-70495600D01*
%TO.N,Net-(ICled124-DO)*%
X143304612Y-72705100D02*
X143304612Y-73005100D01*
X143304612Y-73005100D02*
X144324362Y-74024850D01*
X144324362Y-74024850D02*
X144324362Y-74195100D01*
%TO.N,Net-(ICled125-DO)*%
X143304612Y-75214600D02*
X143304612Y-75514600D01*
X143304612Y-75514600D02*
X144324362Y-76534350D01*
X144324362Y-76534350D02*
X144324362Y-76704600D01*
%TO.N,Net-(ICled126-DO)*%
X144324362Y-71515350D02*
X144324362Y-71685600D01*
X143304612Y-70495600D02*
X144324362Y-71515350D01*
X143304612Y-70195600D02*
X143304612Y-70495600D01*
%TO.N,Net-(ICled127-DO)*%
X145814362Y-73005100D02*
X146834112Y-74024850D01*
X145814362Y-72705100D02*
X145814362Y-73005100D01*
X146834112Y-74024850D02*
X146834112Y-74195100D01*
%TO.N,Net-(ICled128-DO)*%
X145814362Y-75514600D02*
X146834112Y-76534350D01*
X145814362Y-75214600D02*
X145814362Y-75514600D01*
X146834112Y-76534350D02*
X146834112Y-76704600D01*
%TO.N,Net-(ICled129-DO)*%
X145814362Y-70195600D02*
X145814362Y-70495600D01*
X146834112Y-71515350D02*
X146834112Y-71685600D01*
X145814362Y-70495600D02*
X146834112Y-71515350D01*
%TO.N,Net-(ICled130-DO)*%
X149343862Y-74024850D02*
X149343862Y-74195100D01*
X148324112Y-72705100D02*
X148324112Y-73005100D01*
X148324112Y-73005100D02*
X149343862Y-74024850D01*
%TO.N,Net-(ICled131-DO)*%
X149343862Y-76534350D02*
X149343862Y-76704600D01*
X148324112Y-75514600D02*
X149343862Y-76534350D01*
X148324112Y-75214600D02*
X148324112Y-75514600D01*
%TO.N,Net-(ICled132-DO)*%
X148324112Y-70195600D02*
X148324112Y-70495600D01*
X148324112Y-70495600D02*
X149343862Y-71515350D01*
X149343862Y-71515350D02*
X149343862Y-71685600D01*
%TO.N,Net-(ICled133-DO)*%
X151853612Y-74024850D02*
X151853612Y-74195100D01*
X150833862Y-72705100D02*
X150833862Y-73005100D01*
X150833862Y-73005100D02*
X151853612Y-74024850D01*
%TO.N,Net-(ICled134-DO)*%
X151853612Y-76404600D02*
X151853612Y-76704600D01*
X150833862Y-75384850D02*
X151853612Y-76404600D01*
X150833862Y-75214600D02*
X150833862Y-75384850D01*
%TO.N,Net-(ICled135-DO)*%
X151853612Y-71515350D02*
X151853612Y-71685600D01*
X150833862Y-70495600D02*
X151853612Y-71515350D01*
X150833862Y-70195600D02*
X150833862Y-70495600D01*
%TO.N,Net-(ICled136-DO)*%
X153343612Y-72705100D02*
X153343612Y-73005100D01*
X153343612Y-73005100D02*
X154363362Y-74024850D01*
X154363362Y-74024850D02*
X154363362Y-74195100D01*
%TO.N,Net-(ICled137-DO)*%
X154363362Y-76534350D02*
X154363362Y-76704600D01*
X153343612Y-75514600D02*
X154363362Y-76534350D01*
X153343612Y-75214600D02*
X153343612Y-75514600D01*
%TO.N,Net-(ICled138-DO)*%
X154363362Y-71515350D02*
X154363362Y-71685600D01*
X153343612Y-70195600D02*
X153343612Y-70495600D01*
X153343612Y-70495600D02*
X154363362Y-71515350D01*
%TO.N,Net-(ICled139-DO)*%
X155853362Y-73005100D02*
X156873112Y-74024850D01*
X155853362Y-72705100D02*
X155853362Y-73005100D01*
X156873112Y-74024850D02*
X156873112Y-74195100D01*
%TO.N,Net-(ICled140-DO)*%
X155853362Y-75214600D02*
X155853362Y-75514600D01*
X156873112Y-76534350D02*
X156873112Y-76704600D01*
X155853362Y-75514600D02*
X156873112Y-76534350D01*
%TO.N,dout_led_pwm_3*%
X168090218Y-67684400D02*
X167705343Y-67299525D01*
X168402112Y-67684400D02*
X168090218Y-67684400D01*
%TO.N,Net-(ICled157-DI)*%
X137019610Y-81949798D02*
X136795112Y-81725300D01*
X136795112Y-81104888D02*
X136800000Y-81100000D01*
X136795112Y-81725300D02*
X136795112Y-81104888D01*
X168032914Y-77725800D02*
X167707114Y-77400000D01*
X168402112Y-77725800D02*
X168032914Y-77725800D01*
X137100000Y-81949798D02*
X137019610Y-81949798D01*
%TO.N,Net-(ICled145-DO)*%
X160872862Y-72875350D02*
X161892612Y-73895100D01*
X160872862Y-72705100D02*
X160872862Y-72875350D01*
X161892612Y-73895100D02*
X161892612Y-74195100D01*
%TO.N,Net-(ICled146-DO)*%
X160872862Y-75214600D02*
X160872862Y-75514600D01*
X161892612Y-76534350D02*
X161892612Y-76704600D01*
X160872862Y-75514600D02*
X161892612Y-76534350D01*
%TO.N,din_led_pwm_5*%
X136795112Y-79215800D02*
X137106962Y-79215800D01*
X137106962Y-79215800D02*
X137491885Y-79600723D01*
%TO.N,Net-(ICled189-DO)*%
X163382612Y-78082612D02*
X164402362Y-79102362D01*
X163382612Y-77725800D02*
X163382612Y-78082612D01*
X164402362Y-79102362D02*
X164402362Y-79215800D01*
%TO.N,Net-(ICled190-DO)*%
X165892362Y-80235300D02*
X165892362Y-80622662D01*
X166912112Y-81642412D02*
X166912112Y-81725300D01*
X165892362Y-80622662D02*
X166912112Y-81642412D01*
%TO.N,Net-(ICled191-DO)*%
X165892362Y-83044800D02*
X166912112Y-84064550D01*
X166912112Y-84064550D02*
X166912112Y-84234800D01*
X165892362Y-82744800D02*
X165892362Y-83044800D01*
%TO.N,Net-(ICled147-DO)*%
X160872862Y-70195600D02*
X160872862Y-70495600D01*
X161892612Y-71515350D02*
X161892612Y-71685600D01*
X160872862Y-70495600D02*
X161892612Y-71515350D01*
%TO.N,din_led_pwm_4*%
X136550002Y-71440490D02*
X136795112Y-71685600D01*
X136550002Y-71100000D02*
X136550002Y-71440490D01*
%TO.N,Net-(ICled148-DO)*%
X163382612Y-72705100D02*
X163382612Y-72875350D01*
X163382612Y-72875350D02*
X164402362Y-73895100D01*
X164402362Y-73895100D02*
X164402362Y-74195100D01*
%TO.N,Net-(ICled149-DO)*%
X163382612Y-75514600D02*
X164402362Y-76534350D01*
X164402362Y-76534350D02*
X164402362Y-76704600D01*
X163382612Y-75214600D02*
X163382612Y-75514600D01*
%TO.N,Net-(ICled150-DO)*%
X163382612Y-70495600D02*
X164402362Y-71515350D01*
X164402362Y-71515350D02*
X164402362Y-71685600D01*
X163382612Y-70195600D02*
X163382612Y-70495600D01*
%TO.N,Net-(ICled151-DO)*%
X165892362Y-72705100D02*
X165892362Y-73005100D01*
X166912112Y-74024850D02*
X166912112Y-74195100D01*
X165892362Y-73005100D02*
X166912112Y-74024850D01*
%TO.N,Net-(ICled152-DO)*%
X166912112Y-76534350D02*
X166912112Y-76704600D01*
X165892362Y-75214600D02*
X165892362Y-75514600D01*
X165892362Y-75514600D02*
X166912112Y-76534350D01*
%TO.N,Net-(ICled153-DO)*%
X165892362Y-70495600D02*
X166912112Y-71515350D01*
X165892362Y-70195600D02*
X165892362Y-70495600D01*
X166912112Y-71515350D02*
X166912112Y-71685600D01*
%TO.N,Net-(ICled192-DO)*%
X166912112Y-79045550D02*
X166912112Y-79215800D01*
X165892362Y-77725800D02*
X165892362Y-78025800D01*
X165892362Y-78025800D02*
X166912112Y-79045550D01*
%TO.N,dout_led_pwm_5*%
X168402112Y-82744800D02*
X169774800Y-82744800D01*
X169774800Y-82744800D02*
X170600000Y-83570000D01*
%TO.N,Net-(ICled157-DO)*%
X138285112Y-80235300D02*
X138285112Y-80535300D01*
X138285112Y-80535300D02*
X139304862Y-81555050D01*
X139304862Y-81555050D02*
X139304862Y-81725300D01*
%TO.N,Net-(ICled158-DO)*%
X139304862Y-84064550D02*
X139304862Y-84234800D01*
X138285112Y-83044800D02*
X139304862Y-84064550D01*
X138285112Y-82744800D02*
X138285112Y-83044800D01*
%TO.N,Net-(ICled159-DO)*%
X139304862Y-79045550D02*
X139304862Y-79215800D01*
X138285112Y-77725800D02*
X138285112Y-78025800D01*
X138285112Y-78025800D02*
X139304862Y-79045550D01*
%TO.N,Net-(ICled160-DO)*%
X141814612Y-81555050D02*
X141814612Y-81725300D01*
X140794862Y-80535300D02*
X141814612Y-81555050D01*
X140794862Y-80235300D02*
X140794862Y-80535300D01*
%TO.N,Net-(ICled161-DO)*%
X141814612Y-84064550D02*
X141814612Y-84234800D01*
X140794862Y-83044800D02*
X141814612Y-84064550D01*
X140794862Y-82744800D02*
X140794862Y-83044800D01*
%TO.N,Net-(ICled162-DO)*%
X140794862Y-78025800D02*
X141814612Y-79045550D01*
X140794862Y-77725800D02*
X140794862Y-78025800D01*
X141814612Y-79045550D02*
X141814612Y-79215800D01*
%TO.N,Net-(ICled163-DO)*%
X144324362Y-81555050D02*
X144324362Y-81725300D01*
X143304612Y-80535300D02*
X144324362Y-81555050D01*
X143304612Y-80235300D02*
X143304612Y-80535300D01*
%TO.N,Net-(ICled164-DO)*%
X143304612Y-82744800D02*
X143304612Y-82875250D01*
X143304612Y-82875250D02*
X144324362Y-83895000D01*
X144324362Y-83895000D02*
X144324362Y-84234800D01*
%TO.N,Net-(ICled165-DO)*%
X143304612Y-77896050D02*
X144324362Y-78915800D01*
X143304612Y-77725800D02*
X143304612Y-77896050D01*
X144324362Y-78915800D02*
X144324362Y-79215800D01*
%TO.N,Net-(ICled166-DO)*%
X146834112Y-81555050D02*
X146834112Y-81725300D01*
X145814362Y-80235300D02*
X145814362Y-80535300D01*
X145814362Y-80535300D02*
X146834112Y-81555050D01*
%TO.N,Net-(ICled167-DO)*%
X145814362Y-82915050D02*
X146834112Y-83934800D01*
X145814362Y-82744800D02*
X145814362Y-82915050D01*
X146834112Y-83934800D02*
X146834112Y-84234800D01*
%TO.N,Net-(ICled168-DO)*%
X146834112Y-79045550D02*
X146834112Y-79215800D01*
X145814362Y-78025800D02*
X146834112Y-79045550D01*
X145814362Y-77725800D02*
X145814362Y-78025800D01*
%TO.N,Net-(ICled169-DO)*%
X148324112Y-80535300D02*
X149343862Y-81555050D01*
X148324112Y-80235300D02*
X148324112Y-80535300D01*
X149343862Y-81555050D02*
X149343862Y-81725300D01*
%TO.N,Net-(ICled170-DO)*%
X148324112Y-82744800D02*
X148324112Y-83044800D01*
X148324112Y-83044800D02*
X149343862Y-84064550D01*
X149343862Y-84064550D02*
X149343862Y-84234800D01*
%TO.N,Net-(ICled171-DO)*%
X149343862Y-79045550D02*
X149343862Y-79215800D01*
X148324112Y-78025800D02*
X149343862Y-79045550D01*
X148324112Y-77725800D02*
X148324112Y-78025800D01*
%TO.N,Net-(ICled172-DO)*%
X150833862Y-80535300D02*
X151853612Y-81555050D01*
X151853612Y-81555050D02*
X151853612Y-81725300D01*
X150833862Y-80235300D02*
X150833862Y-80535300D01*
%TO.N,Net-(ICled173-DO)*%
X151853612Y-84064550D02*
X151853612Y-84234800D01*
X150833862Y-83044800D02*
X151853612Y-84064550D01*
X150833862Y-82744800D02*
X150833862Y-83044800D01*
%TO.N,Net-(ICled174-DO)*%
X150833862Y-77725800D02*
X150833862Y-78025800D01*
X151853612Y-79045550D02*
X151853612Y-79215800D01*
X150833862Y-78025800D02*
X151853612Y-79045550D01*
%TO.N,Net-(ICled175-DO)*%
X154363362Y-81555050D02*
X154363362Y-81725300D01*
X153343612Y-80535300D02*
X154363362Y-81555050D01*
X153343612Y-80235300D02*
X153343612Y-80535300D01*
%TO.N,Net-(ICled176-DO)*%
X153343612Y-83044800D02*
X154363362Y-84064550D01*
X154363362Y-84064550D02*
X154363362Y-84234800D01*
X153343612Y-82744800D02*
X153343612Y-83044800D01*
%TO.N,Net-(ICled177-DO)*%
X153343612Y-77725800D02*
X153343612Y-78025800D01*
X154363362Y-79045550D02*
X154363362Y-79215800D01*
X153343612Y-78025800D02*
X154363362Y-79045550D01*
%TO.N,Net-(ICled178-DO)*%
X156873112Y-81555050D02*
X156873112Y-81725300D01*
X155853362Y-80235300D02*
X155853362Y-80535300D01*
X155853362Y-80535300D02*
X156873112Y-81555050D01*
%TO.N,Net-(ICled179-DO)*%
X155853362Y-83044800D02*
X156873112Y-84064550D01*
X156873112Y-84064550D02*
X156873112Y-84234800D01*
X155853362Y-82744800D02*
X155853362Y-83044800D01*
%TO.N,Net-(ICled180-DO)*%
X155853362Y-77725800D02*
X155853362Y-78025800D01*
X155853362Y-78025800D02*
X156873112Y-79045550D01*
X156873112Y-79045550D02*
X156873112Y-79215800D01*
%TO.N,Net-(ICled181-DO)*%
X159382862Y-81555050D02*
X159382862Y-81725300D01*
X158363112Y-80535300D02*
X159382862Y-81555050D01*
X158363112Y-80235300D02*
X158363112Y-80535300D01*
%TO.N,Net-(ICled182-DO)*%
X159382862Y-83934800D02*
X159382862Y-84234800D01*
X158363112Y-82915050D02*
X159382862Y-83934800D01*
X158363112Y-82744800D02*
X158363112Y-82915050D01*
%TO.N,Net-(ICled183-DO)*%
X158363112Y-77725800D02*
X158363112Y-78025800D01*
X158363112Y-78025800D02*
X159382862Y-79045550D01*
X159382862Y-79045550D02*
X159382862Y-79215800D01*
%TO.N,Net-(ICled184-DO)*%
X160872862Y-80535300D02*
X161892612Y-81555050D01*
X161892612Y-81555050D02*
X161892612Y-81725300D01*
X160872862Y-80235300D02*
X160872862Y-80535300D01*
%TO.N,Net-(ICled185-DO)*%
X160872862Y-83044800D02*
X161892612Y-84064550D01*
X160872862Y-82744800D02*
X160872862Y-83044800D01*
X161892612Y-84064550D02*
X161892612Y-84234800D01*
%TO.N,Net-(ICled186-DO)*%
X160872862Y-78025800D02*
X161892612Y-79045550D01*
X161892612Y-79045550D02*
X161892612Y-79215800D01*
X160872862Y-77725800D02*
X160872862Y-78025800D01*
%TO.N,Net-(ICled187-DO)*%
X164402362Y-81602362D02*
X164402362Y-81725300D01*
X163382612Y-80235300D02*
X163382612Y-80582612D01*
X163382612Y-80582612D02*
X164402362Y-81602362D01*
%TO.N,Net-(ICled188-DO)*%
X163382612Y-83044800D02*
X164402362Y-84064550D01*
X164402362Y-84064550D02*
X164402362Y-84234800D01*
X163382612Y-82744800D02*
X163382612Y-83044800D01*
%TO.N,dout_led_pwm_4*%
X168402112Y-75214600D02*
X167921714Y-75214600D01*
X167921714Y-75214600D02*
X167707114Y-75000000D01*
%TO.N,Net-(ICled196-DI)*%
X135542182Y-89680000D02*
X136370612Y-89680000D01*
X135402182Y-89820000D02*
X135542182Y-89680000D01*
X167963114Y-85256000D02*
X167707114Y-85000000D01*
X168402112Y-85256000D02*
X167963114Y-85256000D01*
X136370612Y-89680000D02*
X136795112Y-89255500D01*
%TO.N,Net-(ICled196-DO)*%
X139304862Y-89085250D02*
X139304862Y-89255500D01*
X138285112Y-87765500D02*
X138285112Y-88065500D01*
X138285112Y-88065500D02*
X139304862Y-89085250D01*
%TO.N,Net-(ICled197-DO)*%
X139304862Y-91465000D02*
X139304862Y-91600000D01*
X138285112Y-90445250D02*
X139304862Y-91465000D01*
X138285112Y-90275000D02*
X138285112Y-90445250D01*
%TO.N,Net-(ICled198-DO)*%
X138285112Y-85556000D02*
X139304862Y-86575750D01*
X138285112Y-85256000D02*
X138285112Y-85556000D01*
X139304862Y-86575750D02*
X139304862Y-86746000D01*
%TO.N,din_led_pwm_6*%
X134810000Y-88620000D02*
X136684000Y-86746000D01*
X136684000Y-86746000D02*
X136795112Y-86746000D01*
X134600000Y-88620000D02*
X134810000Y-88620000D01*
%TO.N,Net-(ICled199-DO)*%
X141814612Y-89085250D02*
X141814612Y-89255500D01*
X140794862Y-87765500D02*
X140794862Y-88065500D01*
X140794862Y-88065500D02*
X141814612Y-89085250D01*
%TO.N,Net-(ICled200-DO)*%
X140794862Y-90580250D02*
X141814612Y-91600000D01*
X140794862Y-90275000D02*
X140794862Y-90580250D01*
%TO.N,Net-(ICled201-DO)*%
X140794862Y-85556000D02*
X141814612Y-86575750D01*
X140794862Y-85256000D02*
X140794862Y-85556000D01*
X141814612Y-86575750D02*
X141814612Y-86746000D01*
%TO.N,Net-(ICled202-DO)*%
X144324362Y-89085250D02*
X144324362Y-89255500D01*
X143304612Y-88065500D02*
X144324362Y-89085250D01*
X143304612Y-87765500D02*
X143304612Y-88065500D01*
%TO.N,Net-(ICled203-DO)*%
X143304612Y-90580250D02*
X144324362Y-91600000D01*
X143304612Y-90275000D02*
X143304612Y-90580250D01*
%TO.N,Net-(ICled204-DO)*%
X143304612Y-85256000D02*
X143304612Y-85556000D01*
X144324362Y-86575750D02*
X144324362Y-86746000D01*
X143304612Y-85556000D02*
X144324362Y-86575750D01*
%TO.N,Net-(ICled205-DO)*%
X145814362Y-87765500D02*
X145814362Y-88065500D01*
X145814362Y-88065500D02*
X146834112Y-89085250D01*
X146834112Y-89085250D02*
X146834112Y-89255500D01*
%TO.N,Net-(ICled206-DO)*%
X145814362Y-90580250D02*
X146834112Y-91600000D01*
X145814362Y-90275000D02*
X145814362Y-90580250D01*
%TO.N,Net-(ICled207-DO)*%
X145814362Y-85256000D02*
X145814362Y-85556000D01*
X146834112Y-86575750D02*
X146834112Y-86746000D01*
X145814362Y-85556000D02*
X146834112Y-86575750D01*
%TO.N,Net-(ICled208-DO)*%
X149343862Y-89085250D02*
X149343862Y-89255500D01*
X148324112Y-87765500D02*
X148324112Y-88065500D01*
X148324112Y-88065500D02*
X149343862Y-89085250D01*
%TO.N,Net-(ICled209-DO)*%
X148748862Y-91005000D02*
X149343862Y-91600000D01*
X148475000Y-90275000D02*
X148748862Y-90548862D01*
X148748862Y-90548862D02*
X148748862Y-91005000D01*
X148324112Y-90275000D02*
X148475000Y-90275000D01*
%TO.N,Net-(ICled210-DO)*%
X148324112Y-85256000D02*
X148324112Y-85556000D01*
X149343862Y-86575750D02*
X149343862Y-86746000D01*
X148324112Y-85556000D02*
X149343862Y-86575750D01*
%TO.N,Net-(ICled211-DO)*%
X150833862Y-87765500D02*
X150833862Y-88065500D01*
X150833862Y-88065500D02*
X151853612Y-89085250D01*
X151853612Y-89085250D02*
X151853612Y-89255500D01*
%TO.N,Net-(ICled212-DO)*%
X150833862Y-90275000D02*
X150833862Y-90580250D01*
X150833862Y-90580250D02*
X151853612Y-91600000D01*
%TO.N,Net-(ICled213-DO)*%
X150833862Y-85256000D02*
X150833862Y-85556000D01*
X151853612Y-86575750D02*
X151853612Y-86746000D01*
X150833862Y-85556000D02*
X151853612Y-86575750D01*
%TO.N,Net-(ICled214-DO)*%
X153343612Y-88065500D02*
X154363362Y-89085250D01*
X153343612Y-87765500D02*
X153343612Y-88065500D01*
X154363362Y-89085250D02*
X154363362Y-89255500D01*
%TO.N,Net-(ICled215-DO)*%
X154363362Y-91465000D02*
X154363362Y-91700000D01*
X153343612Y-90275000D02*
X153343612Y-90445250D01*
X153343612Y-90445250D02*
X154363362Y-91465000D01*
%TO.N,Net-(ICled216-DO)*%
X154363362Y-86446000D02*
X154363362Y-86746000D01*
X153343612Y-85426250D02*
X154363362Y-86446000D01*
X153343612Y-85256000D02*
X153343612Y-85426250D01*
%TO.N,Net-(ICled217-DO)*%
X155853362Y-87765500D02*
X155853362Y-88065500D01*
X155853362Y-88065500D02*
X156873112Y-89085250D01*
X156873112Y-89085250D02*
X156873112Y-89255500D01*
%TO.N,Net-(ICled218-DO)*%
X155853362Y-90275000D02*
X155853362Y-90580250D01*
X155853362Y-90580250D02*
X156873112Y-91600000D01*
%TO.N,Net-(ICled219-DO)*%
X156873112Y-86446000D02*
X156873112Y-86746000D01*
X155853362Y-85426250D02*
X156873112Y-86446000D01*
X155853362Y-85256000D02*
X155853362Y-85426250D01*
%TO.N,Net-(ICled220-DO)*%
X158363112Y-87765500D02*
X158363112Y-88123612D01*
X159382862Y-89143362D02*
X159382862Y-89255500D01*
X158363112Y-88123612D02*
X159382862Y-89143362D01*
%TO.N,Net-(ICled221-DO)*%
X159117862Y-91500000D02*
X159217862Y-91600000D01*
X158363112Y-90275000D02*
X158363112Y-90445250D01*
X159217862Y-91600000D02*
X159382862Y-91600000D01*
X159117862Y-91200000D02*
X159117862Y-91500000D01*
X158363112Y-90445250D02*
X159117862Y-91200000D01*
%TO.N,Net-(ICled222-DO)*%
X158363112Y-85556000D02*
X159382862Y-86575750D01*
X158363112Y-85256000D02*
X158363112Y-85556000D01*
X159382862Y-86575750D02*
X159382862Y-86746000D01*
%TO.N,Net-(ICled223-DO)*%
X161892612Y-89085250D02*
X161892612Y-89255500D01*
X160872862Y-88065500D02*
X161892612Y-89085250D01*
X160872862Y-87765500D02*
X160872862Y-88065500D01*
%TO.N,Net-(ICled224-DO)*%
X161767862Y-91600000D02*
X161892612Y-91600000D01*
X160872862Y-90275000D02*
X160872862Y-90705000D01*
X160872862Y-90705000D02*
X161767862Y-91600000D01*
%TO.N,Net-(ICled225-DO)*%
X160872862Y-85556000D02*
X161892612Y-86575750D01*
X161892612Y-86575750D02*
X161892612Y-86746000D01*
X160872862Y-85256000D02*
X160872862Y-85556000D01*
%TO.N,Net-(ICled226-DO)*%
X163382612Y-88065500D02*
X164402362Y-89085250D01*
X164402362Y-89085250D02*
X164402362Y-89255500D01*
X163382612Y-87765500D02*
X163382612Y-88065500D01*
%TO.N,Net-(ICled227-DO)*%
X163382612Y-90580250D02*
X164402362Y-91600000D01*
X163382612Y-90275000D02*
X163382612Y-90580250D01*
%TO.N,Net-(ICled228-DO)*%
X163382612Y-85256000D02*
X163382612Y-85556000D01*
X163382612Y-85556000D02*
X164402362Y-86575750D01*
X164402362Y-86575750D02*
X164402362Y-86746000D01*
%TO.N,Net-(ICled229-DO)*%
X165892362Y-87765500D02*
X165892362Y-88065500D01*
X165892362Y-88065500D02*
X166912112Y-89085250D01*
X166912112Y-89085250D02*
X166912112Y-89255500D01*
%TO.N,Net-(ICled230-DO)*%
X165892362Y-90580250D02*
X166912112Y-91600000D01*
X165892362Y-90275000D02*
X165892362Y-90580250D01*
%TO.N,Net-(ICled231-DO)*%
X165892362Y-85256000D02*
X165892362Y-85556000D01*
X166912112Y-86575750D02*
X166912112Y-86746000D01*
X165892362Y-85556000D02*
X166912112Y-86575750D01*
%TO.N,dout_led_pwm_6*%
X168089623Y-90275000D02*
X167705401Y-89890778D01*
X134600000Y-91160000D02*
X134840000Y-91160000D01*
X168402112Y-90275000D02*
X168089623Y-90275000D01*
%TD*%
%TA.AperFunction,Conductor*%
%TO.N,Vss_str1*%
G36*
X163613039Y-45620185D02*
G01*
X163658794Y-45672989D01*
X163670000Y-45724500D01*
X163670000Y-45950000D01*
X164796000Y-45950000D01*
X164863039Y-45969685D01*
X164908794Y-46022489D01*
X164920000Y-46074000D01*
X164920000Y-46326000D01*
X164900315Y-46393039D01*
X164847511Y-46438794D01*
X164796000Y-46450000D01*
X163670001Y-46450000D01*
X163670001Y-46635500D01*
X163650316Y-46702539D01*
X163597512Y-46748294D01*
X163546001Y-46759500D01*
X162989627Y-46759500D01*
X162989621Y-46759501D01*
X162930014Y-46765908D01*
X162795169Y-46816202D01*
X162795167Y-46816204D01*
X162711392Y-46878918D01*
X162645928Y-46903335D01*
X162577655Y-46888484D01*
X162562770Y-46878918D01*
X162479586Y-46816646D01*
X162479584Y-46816645D01*
X162344877Y-46766403D01*
X162344870Y-46766401D01*
X162285342Y-46760000D01*
X162142498Y-46760000D01*
X162142498Y-47731000D01*
X162122813Y-47798039D01*
X162070009Y-47843794D01*
X162018498Y-47855000D01*
X161842275Y-47855000D01*
X161775236Y-47835315D01*
X161729481Y-47782511D01*
X161718275Y-47731000D01*
X161718275Y-47212129D01*
X161718274Y-47212123D01*
X161711867Y-47152516D01*
X161661571Y-47017665D01*
X161657667Y-47010516D01*
X161642498Y-46951088D01*
X161642498Y-46760000D01*
X161499653Y-46760000D01*
X161440125Y-46766401D01*
X161440112Y-46766404D01*
X161426680Y-46771414D01*
X161356988Y-46776396D01*
X161340019Y-46771413D01*
X161325267Y-46765910D01*
X161325256Y-46765908D01*
X161265659Y-46759501D01*
X161265657Y-46759500D01*
X161265649Y-46759500D01*
X161265640Y-46759500D01*
X160479905Y-46759500D01*
X160479899Y-46759501D01*
X160420292Y-46765908D01*
X160285447Y-46816202D01*
X160285445Y-46816204D01*
X160201670Y-46878918D01*
X160136206Y-46903335D01*
X160067933Y-46888484D01*
X160053048Y-46878918D01*
X159969864Y-46816646D01*
X159969862Y-46816645D01*
X159835155Y-46766403D01*
X159835148Y-46766401D01*
X159775620Y-46760000D01*
X159632776Y-46760000D01*
X159632776Y-47731000D01*
X159613091Y-47798039D01*
X159560287Y-47843794D01*
X159508776Y-47855000D01*
X159332553Y-47855000D01*
X159265514Y-47835315D01*
X159219759Y-47782511D01*
X159208553Y-47731000D01*
X159208553Y-47212129D01*
X159208552Y-47212123D01*
X159202145Y-47152516D01*
X159151849Y-47017665D01*
X159147945Y-47010516D01*
X159132776Y-46951088D01*
X159132776Y-46760000D01*
X158989931Y-46760000D01*
X158930403Y-46766401D01*
X158930390Y-46766404D01*
X158916958Y-46771414D01*
X158847266Y-46776396D01*
X158830297Y-46771413D01*
X158815545Y-46765910D01*
X158815534Y-46765908D01*
X158755937Y-46759501D01*
X158755935Y-46759500D01*
X158755927Y-46759500D01*
X158755918Y-46759500D01*
X157970183Y-46759500D01*
X157970177Y-46759501D01*
X157910570Y-46765908D01*
X157775725Y-46816202D01*
X157775723Y-46816204D01*
X157691948Y-46878918D01*
X157626484Y-46903335D01*
X157558211Y-46888484D01*
X157543326Y-46878918D01*
X157460142Y-46816646D01*
X157460140Y-46816645D01*
X157325433Y-46766403D01*
X157325426Y-46766401D01*
X157265898Y-46760000D01*
X157123054Y-46760000D01*
X157123054Y-47731000D01*
X157103369Y-47798039D01*
X157050565Y-47843794D01*
X156999054Y-47855000D01*
X156822831Y-47855000D01*
X156755792Y-47835315D01*
X156710037Y-47782511D01*
X156698831Y-47731000D01*
X156698831Y-47212129D01*
X156698830Y-47212123D01*
X156692423Y-47152516D01*
X156642127Y-47017665D01*
X156638223Y-47010516D01*
X156623054Y-46951088D01*
X156623054Y-46760000D01*
X156480209Y-46760000D01*
X156420681Y-46766401D01*
X156420668Y-46766404D01*
X156407236Y-46771414D01*
X156337544Y-46776396D01*
X156320575Y-46771413D01*
X156305823Y-46765910D01*
X156305812Y-46765908D01*
X156246215Y-46759501D01*
X156246213Y-46759500D01*
X156246205Y-46759500D01*
X156246196Y-46759500D01*
X155460461Y-46759500D01*
X155460455Y-46759501D01*
X155400848Y-46765908D01*
X155266003Y-46816202D01*
X155266001Y-46816204D01*
X155182226Y-46878918D01*
X155116762Y-46903335D01*
X155048489Y-46888484D01*
X155033604Y-46878918D01*
X154950420Y-46816646D01*
X154950418Y-46816645D01*
X154815711Y-46766403D01*
X154815704Y-46766401D01*
X154756176Y-46760000D01*
X154613332Y-46760000D01*
X154613332Y-47731000D01*
X154593647Y-47798039D01*
X154540843Y-47843794D01*
X154489332Y-47855000D01*
X154313109Y-47855000D01*
X154246070Y-47835315D01*
X154200315Y-47782511D01*
X154189109Y-47731000D01*
X154189109Y-47212129D01*
X154189108Y-47212123D01*
X154182701Y-47152516D01*
X154132405Y-47017665D01*
X154128501Y-47010516D01*
X154113332Y-46951088D01*
X154113332Y-46760000D01*
X153970487Y-46760000D01*
X153910959Y-46766401D01*
X153910946Y-46766404D01*
X153897514Y-46771414D01*
X153827822Y-46776396D01*
X153810853Y-46771413D01*
X153796101Y-46765910D01*
X153796090Y-46765908D01*
X153736493Y-46759501D01*
X153736491Y-46759500D01*
X153736483Y-46759500D01*
X153736474Y-46759500D01*
X152950739Y-46759500D01*
X152950733Y-46759501D01*
X152891126Y-46765908D01*
X152756281Y-46816202D01*
X152756279Y-46816204D01*
X152672504Y-46878918D01*
X152607040Y-46903335D01*
X152538767Y-46888484D01*
X152523882Y-46878918D01*
X152440698Y-46816646D01*
X152440696Y-46816645D01*
X152305989Y-46766403D01*
X152305982Y-46766401D01*
X152246454Y-46760000D01*
X152103610Y-46760000D01*
X152103610Y-47731000D01*
X152083925Y-47798039D01*
X152031121Y-47843794D01*
X151979610Y-47855000D01*
X151803387Y-47855000D01*
X151736348Y-47835315D01*
X151690593Y-47782511D01*
X151679387Y-47731000D01*
X151679387Y-47212129D01*
X151679386Y-47212123D01*
X151672979Y-47152516D01*
X151622683Y-47017665D01*
X151618779Y-47010516D01*
X151603610Y-46951088D01*
X151603610Y-46760000D01*
X151460765Y-46760000D01*
X151401237Y-46766401D01*
X151401224Y-46766404D01*
X151387792Y-46771414D01*
X151318100Y-46776396D01*
X151301131Y-46771413D01*
X151286379Y-46765910D01*
X151286368Y-46765908D01*
X151226771Y-46759501D01*
X151226769Y-46759500D01*
X151226761Y-46759500D01*
X151226752Y-46759500D01*
X150441017Y-46759500D01*
X150441011Y-46759501D01*
X150381404Y-46765908D01*
X150246559Y-46816202D01*
X150246557Y-46816204D01*
X150162782Y-46878918D01*
X150097318Y-46903335D01*
X150029045Y-46888484D01*
X150014160Y-46878918D01*
X149930976Y-46816646D01*
X149930974Y-46816645D01*
X149796267Y-46766403D01*
X149796260Y-46766401D01*
X149736732Y-46760000D01*
X149593888Y-46760000D01*
X149593888Y-47731000D01*
X149574203Y-47798039D01*
X149521399Y-47843794D01*
X149469888Y-47855000D01*
X149293665Y-47855000D01*
X149226626Y-47835315D01*
X149180871Y-47782511D01*
X149169665Y-47731000D01*
X149169665Y-47212129D01*
X149169664Y-47212123D01*
X149163257Y-47152516D01*
X149112961Y-47017665D01*
X149109057Y-47010516D01*
X149093888Y-46951088D01*
X149093888Y-46760000D01*
X148951043Y-46760000D01*
X148891515Y-46766401D01*
X148891502Y-46766404D01*
X148878070Y-46771414D01*
X148808378Y-46776396D01*
X148791409Y-46771413D01*
X148776657Y-46765910D01*
X148776646Y-46765908D01*
X148717049Y-46759501D01*
X148717047Y-46759500D01*
X148717039Y-46759500D01*
X148717030Y-46759500D01*
X147931295Y-46759500D01*
X147931289Y-46759501D01*
X147871682Y-46765908D01*
X147736837Y-46816202D01*
X147736835Y-46816204D01*
X147653060Y-46878918D01*
X147587596Y-46903335D01*
X147519323Y-46888484D01*
X147504438Y-46878918D01*
X147421254Y-46816646D01*
X147421252Y-46816645D01*
X147286545Y-46766403D01*
X147286538Y-46766401D01*
X147227010Y-46760000D01*
X147084166Y-46760000D01*
X147084166Y-47731000D01*
X147064481Y-47798039D01*
X147011677Y-47843794D01*
X146960166Y-47855000D01*
X146783943Y-47855000D01*
X146716904Y-47835315D01*
X146671149Y-47782511D01*
X146659943Y-47731000D01*
X146659943Y-47212129D01*
X146659942Y-47212123D01*
X146653535Y-47152516D01*
X146603239Y-47017665D01*
X146599335Y-47010516D01*
X146584166Y-46951088D01*
X146584166Y-46760000D01*
X146441321Y-46760000D01*
X146381793Y-46766401D01*
X146381780Y-46766404D01*
X146368348Y-46771414D01*
X146298656Y-46776396D01*
X146281687Y-46771413D01*
X146266935Y-46765910D01*
X146266924Y-46765908D01*
X146207327Y-46759501D01*
X146207325Y-46759500D01*
X146207317Y-46759500D01*
X146207308Y-46759500D01*
X145421573Y-46759500D01*
X145421567Y-46759501D01*
X145361960Y-46765908D01*
X145227115Y-46816202D01*
X145227113Y-46816204D01*
X145143338Y-46878918D01*
X145077874Y-46903335D01*
X145009601Y-46888484D01*
X144994716Y-46878918D01*
X144911532Y-46816646D01*
X144911530Y-46816645D01*
X144776823Y-46766403D01*
X144776816Y-46766401D01*
X144717288Y-46760000D01*
X144574444Y-46760000D01*
X144574444Y-47731000D01*
X144554759Y-47798039D01*
X144501955Y-47843794D01*
X144450444Y-47855000D01*
X144274221Y-47855000D01*
X144207182Y-47835315D01*
X144161427Y-47782511D01*
X144150221Y-47731000D01*
X144150221Y-47212129D01*
X144150220Y-47212123D01*
X144143813Y-47152516D01*
X144093517Y-47017665D01*
X144089613Y-47010516D01*
X144074444Y-46951088D01*
X144074444Y-46760000D01*
X143931599Y-46760000D01*
X143872071Y-46766401D01*
X143872058Y-46766404D01*
X143858626Y-46771414D01*
X143788934Y-46776396D01*
X143771965Y-46771413D01*
X143757213Y-46765910D01*
X143757202Y-46765908D01*
X143697605Y-46759501D01*
X143697603Y-46759500D01*
X143697595Y-46759500D01*
X143697586Y-46759500D01*
X142911851Y-46759500D01*
X142911845Y-46759501D01*
X142852238Y-46765908D01*
X142717393Y-46816202D01*
X142717391Y-46816204D01*
X142633616Y-46878918D01*
X142568152Y-46903335D01*
X142499879Y-46888484D01*
X142484994Y-46878918D01*
X142401810Y-46816646D01*
X142401808Y-46816645D01*
X142267101Y-46766403D01*
X142267094Y-46766401D01*
X142207566Y-46760000D01*
X142196452Y-46760000D01*
X142129413Y-46740315D01*
X142083658Y-46687511D01*
X142073714Y-46618353D01*
X142075314Y-46609734D01*
X142095565Y-46430003D01*
X142095565Y-46429996D01*
X142075369Y-46250750D01*
X142075368Y-46250745D01*
X142015788Y-46080476D01*
X141919815Y-45927737D01*
X141804259Y-45812181D01*
X141770774Y-45750858D01*
X141775758Y-45681166D01*
X141817630Y-45625233D01*
X141883094Y-45600816D01*
X141891940Y-45600500D01*
X163546000Y-45600500D01*
X163613039Y-45620185D01*
G37*
%TD.AperFunction*%
%TA.AperFunction,Conductor*%
G36*
X137563039Y-45620185D02*
G01*
X137608794Y-45672989D01*
X137620000Y-45724500D01*
X137620000Y-45950000D01*
X138746000Y-45950000D01*
X138813039Y-45969685D01*
X138858794Y-46022489D01*
X138870000Y-46074000D01*
X138870000Y-46326000D01*
X138850315Y-46393039D01*
X138797511Y-46438794D01*
X138746000Y-46450000D01*
X137620001Y-46450000D01*
X137620001Y-46724984D01*
X137621076Y-46735507D01*
X137608302Y-46804199D01*
X137560419Y-46855081D01*
X137492628Y-46871998D01*
X137426453Y-46849578D01*
X137423406Y-46847369D01*
X137382366Y-46816646D01*
X137382364Y-46816645D01*
X137247657Y-46766403D01*
X137247650Y-46766401D01*
X137188122Y-46760000D01*
X137045278Y-46760000D01*
X137045278Y-47519780D01*
X137025593Y-47586819D01*
X136972789Y-47632574D01*
X136903631Y-47642518D01*
X136880324Y-47636822D01*
X136816908Y-47614632D01*
X136816901Y-47614630D01*
X136655394Y-47596433D01*
X136590980Y-47569366D01*
X136551425Y-47511771D01*
X136545278Y-47473213D01*
X136545278Y-47300729D01*
X136553096Y-47257396D01*
X136554985Y-47252331D01*
X136594091Y-47147483D01*
X136600500Y-47087873D01*
X136600499Y-45724499D01*
X136620184Y-45657461D01*
X136672987Y-45611706D01*
X136724499Y-45600500D01*
X137496000Y-45600500D01*
X137563039Y-45620185D01*
G37*
%TD.AperFunction*%
%TD*%
M02*
