%TF.GenerationSoftware,KiCad,Pcbnew,8.0.2*%
%TF.CreationDate,2024-06-24T13:44:33+02:00*%
%TF.ProjectId,PixelDisplay,50697865-6c44-4697-9370-6c61792e6b69,rev?*%
%TF.SameCoordinates,Original*%
%TF.FileFunction,Legend,Top*%
%TF.FilePolarity,Positive*%
%FSLAX46Y46*%
G04 Gerber Fmt 4.6, Leading zero omitted, Abs format (unit mm)*
G04 Created by KiCad (PCBNEW 8.0.2) date 2024-06-24 13:44:33*
%MOMM*%
%LPD*%
G01*
G04 APERTURE LIST*
%ADD10C,0.100000*%
%ADD11C,0.125000*%
%ADD12C,0.120000*%
G04 APERTURE END LIST*
D10*
X169470075Y-82683014D02*
X169470075Y-81933014D01*
X169470075Y-82647300D02*
X169398646Y-82683014D01*
X169398646Y-82683014D02*
X169255789Y-82683014D01*
X169255789Y-82683014D02*
X169184360Y-82647300D01*
X169184360Y-82647300D02*
X169148646Y-82611585D01*
X169148646Y-82611585D02*
X169112932Y-82540157D01*
X169112932Y-82540157D02*
X169112932Y-82325871D01*
X169112932Y-82325871D02*
X169148646Y-82254442D01*
X169148646Y-82254442D02*
X169184360Y-82218728D01*
X169184360Y-82218728D02*
X169255789Y-82183014D01*
X169255789Y-82183014D02*
X169398646Y-82183014D01*
X169398646Y-82183014D02*
X169470075Y-82218728D01*
X169934360Y-82683014D02*
X169862931Y-82647300D01*
X169862931Y-82647300D02*
X169827217Y-82611585D01*
X169827217Y-82611585D02*
X169791503Y-82540157D01*
X169791503Y-82540157D02*
X169791503Y-82325871D01*
X169791503Y-82325871D02*
X169827217Y-82254442D01*
X169827217Y-82254442D02*
X169862931Y-82218728D01*
X169862931Y-82218728D02*
X169934360Y-82183014D01*
X169934360Y-82183014D02*
X170041503Y-82183014D01*
X170041503Y-82183014D02*
X170112931Y-82218728D01*
X170112931Y-82218728D02*
X170148646Y-82254442D01*
X170148646Y-82254442D02*
X170184360Y-82325871D01*
X170184360Y-82325871D02*
X170184360Y-82540157D01*
X170184360Y-82540157D02*
X170148646Y-82611585D01*
X170148646Y-82611585D02*
X170112931Y-82647300D01*
X170112931Y-82647300D02*
X170041503Y-82683014D01*
X170041503Y-82683014D02*
X169934360Y-82683014D01*
X136162931Y-46093014D02*
X136341503Y-46593014D01*
X136341503Y-46593014D02*
X136520074Y-46093014D01*
X137127218Y-46593014D02*
X137127218Y-45843014D01*
X137127218Y-46557300D02*
X137055789Y-46593014D01*
X137055789Y-46593014D02*
X136912932Y-46593014D01*
X136912932Y-46593014D02*
X136841503Y-46557300D01*
X136841503Y-46557300D02*
X136805789Y-46521585D01*
X136805789Y-46521585D02*
X136770075Y-46450157D01*
X136770075Y-46450157D02*
X136770075Y-46235871D01*
X136770075Y-46235871D02*
X136805789Y-46164442D01*
X136805789Y-46164442D02*
X136841503Y-46128728D01*
X136841503Y-46128728D02*
X136912932Y-46093014D01*
X136912932Y-46093014D02*
X137055789Y-46093014D01*
X137055789Y-46093014D02*
X137127218Y-46128728D01*
X137805789Y-46593014D02*
X137805789Y-45843014D01*
X137805789Y-46557300D02*
X137734360Y-46593014D01*
X137734360Y-46593014D02*
X137591503Y-46593014D01*
X137591503Y-46593014D02*
X137520074Y-46557300D01*
X137520074Y-46557300D02*
X137484360Y-46521585D01*
X137484360Y-46521585D02*
X137448646Y-46450157D01*
X137448646Y-46450157D02*
X137448646Y-46235871D01*
X137448646Y-46235871D02*
X137484360Y-46164442D01*
X137484360Y-46164442D02*
X137520074Y-46128728D01*
X137520074Y-46128728D02*
X137591503Y-46093014D01*
X137591503Y-46093014D02*
X137734360Y-46093014D01*
X137734360Y-46093014D02*
X137805789Y-46128728D01*
X168791503Y-89803014D02*
X168970075Y-90303014D01*
X168970075Y-90303014D02*
X169148646Y-89803014D01*
X169755790Y-90303014D02*
X169755790Y-89553014D01*
X169755790Y-90267300D02*
X169684361Y-90303014D01*
X169684361Y-90303014D02*
X169541504Y-90303014D01*
X169541504Y-90303014D02*
X169470075Y-90267300D01*
X169470075Y-90267300D02*
X169434361Y-90231585D01*
X169434361Y-90231585D02*
X169398647Y-90160157D01*
X169398647Y-90160157D02*
X169398647Y-89945871D01*
X169398647Y-89945871D02*
X169434361Y-89874442D01*
X169434361Y-89874442D02*
X169470075Y-89838728D01*
X169470075Y-89838728D02*
X169541504Y-89803014D01*
X169541504Y-89803014D02*
X169684361Y-89803014D01*
X169684361Y-89803014D02*
X169755790Y-89838728D01*
X170434361Y-90303014D02*
X170434361Y-89553014D01*
X170434361Y-90267300D02*
X170362932Y-90303014D01*
X170362932Y-90303014D02*
X170220075Y-90303014D01*
X170220075Y-90303014D02*
X170148646Y-90267300D01*
X170148646Y-90267300D02*
X170112932Y-90231585D01*
X170112932Y-90231585D02*
X170077218Y-90160157D01*
X170077218Y-90160157D02*
X170077218Y-89945871D01*
X170077218Y-89945871D02*
X170112932Y-89874442D01*
X170112932Y-89874442D02*
X170148646Y-89838728D01*
X170148646Y-89838728D02*
X170220075Y-89803014D01*
X170220075Y-89803014D02*
X170362932Y-89803014D01*
X170362932Y-89803014D02*
X170434361Y-89838728D01*
X134667931Y-84733014D02*
X134846503Y-85233014D01*
X134846503Y-85233014D02*
X135025074Y-84733014D01*
X135275075Y-85197300D02*
X135346503Y-85233014D01*
X135346503Y-85233014D02*
X135489360Y-85233014D01*
X135489360Y-85233014D02*
X135560789Y-85197300D01*
X135560789Y-85197300D02*
X135596503Y-85125871D01*
X135596503Y-85125871D02*
X135596503Y-85090157D01*
X135596503Y-85090157D02*
X135560789Y-85018728D01*
X135560789Y-85018728D02*
X135489360Y-84983014D01*
X135489360Y-84983014D02*
X135382218Y-84983014D01*
X135382218Y-84983014D02*
X135310789Y-84947300D01*
X135310789Y-84947300D02*
X135275075Y-84875871D01*
X135275075Y-84875871D02*
X135275075Y-84840157D01*
X135275075Y-84840157D02*
X135310789Y-84768728D01*
X135310789Y-84768728D02*
X135382218Y-84733014D01*
X135382218Y-84733014D02*
X135489360Y-84733014D01*
X135489360Y-84733014D02*
X135560789Y-84768728D01*
X135882218Y-85197300D02*
X135953646Y-85233014D01*
X135953646Y-85233014D02*
X136096503Y-85233014D01*
X136096503Y-85233014D02*
X136167932Y-85197300D01*
X136167932Y-85197300D02*
X136203646Y-85125871D01*
X136203646Y-85125871D02*
X136203646Y-85090157D01*
X136203646Y-85090157D02*
X136167932Y-85018728D01*
X136167932Y-85018728D02*
X136096503Y-84983014D01*
X136096503Y-84983014D02*
X135989361Y-84983014D01*
X135989361Y-84983014D02*
X135917932Y-84947300D01*
X135917932Y-84947300D02*
X135882218Y-84875871D01*
X135882218Y-84875871D02*
X135882218Y-84840157D01*
X135882218Y-84840157D02*
X135917932Y-84768728D01*
X135917932Y-84768728D02*
X135989361Y-84733014D01*
X135989361Y-84733014D02*
X136096503Y-84733014D01*
X136096503Y-84733014D02*
X136167932Y-84768728D01*
X134602931Y-61893014D02*
X134781503Y-62393014D01*
X134781503Y-62393014D02*
X134960074Y-61893014D01*
X135567218Y-62393014D02*
X135567218Y-61643014D01*
X135567218Y-62357300D02*
X135495789Y-62393014D01*
X135495789Y-62393014D02*
X135352932Y-62393014D01*
X135352932Y-62393014D02*
X135281503Y-62357300D01*
X135281503Y-62357300D02*
X135245789Y-62321585D01*
X135245789Y-62321585D02*
X135210075Y-62250157D01*
X135210075Y-62250157D02*
X135210075Y-62035871D01*
X135210075Y-62035871D02*
X135245789Y-61964442D01*
X135245789Y-61964442D02*
X135281503Y-61928728D01*
X135281503Y-61928728D02*
X135352932Y-61893014D01*
X135352932Y-61893014D02*
X135495789Y-61893014D01*
X135495789Y-61893014D02*
X135567218Y-61928728D01*
X136245789Y-62393014D02*
X136245789Y-61643014D01*
X136245789Y-62357300D02*
X136174360Y-62393014D01*
X136174360Y-62393014D02*
X136031503Y-62393014D01*
X136031503Y-62393014D02*
X135960074Y-62357300D01*
X135960074Y-62357300D02*
X135924360Y-62321585D01*
X135924360Y-62321585D02*
X135888646Y-62250157D01*
X135888646Y-62250157D02*
X135888646Y-62035871D01*
X135888646Y-62035871D02*
X135924360Y-61964442D01*
X135924360Y-61964442D02*
X135960074Y-61928728D01*
X135960074Y-61928728D02*
X136031503Y-61893014D01*
X136031503Y-61893014D02*
X136174360Y-61893014D01*
X136174360Y-61893014D02*
X136245789Y-61928728D01*
X168948645Y-49883014D02*
X169127217Y-50383014D01*
X169127217Y-50383014D02*
X169305788Y-49883014D01*
X169555789Y-50347300D02*
X169627217Y-50383014D01*
X169627217Y-50383014D02*
X169770074Y-50383014D01*
X169770074Y-50383014D02*
X169841503Y-50347300D01*
X169841503Y-50347300D02*
X169877217Y-50275871D01*
X169877217Y-50275871D02*
X169877217Y-50240157D01*
X169877217Y-50240157D02*
X169841503Y-50168728D01*
X169841503Y-50168728D02*
X169770074Y-50133014D01*
X169770074Y-50133014D02*
X169662932Y-50133014D01*
X169662932Y-50133014D02*
X169591503Y-50097300D01*
X169591503Y-50097300D02*
X169555789Y-50025871D01*
X169555789Y-50025871D02*
X169555789Y-49990157D01*
X169555789Y-49990157D02*
X169591503Y-49918728D01*
X169591503Y-49918728D02*
X169662932Y-49883014D01*
X169662932Y-49883014D02*
X169770074Y-49883014D01*
X169770074Y-49883014D02*
X169841503Y-49918728D01*
X170162932Y-50347300D02*
X170234360Y-50383014D01*
X170234360Y-50383014D02*
X170377217Y-50383014D01*
X170377217Y-50383014D02*
X170448646Y-50347300D01*
X170448646Y-50347300D02*
X170484360Y-50275871D01*
X170484360Y-50275871D02*
X170484360Y-50240157D01*
X170484360Y-50240157D02*
X170448646Y-50168728D01*
X170448646Y-50168728D02*
X170377217Y-50133014D01*
X170377217Y-50133014D02*
X170270075Y-50133014D01*
X170270075Y-50133014D02*
X170198646Y-50097300D01*
X170198646Y-50097300D02*
X170162932Y-50025871D01*
X170162932Y-50025871D02*
X170162932Y-49990157D01*
X170162932Y-49990157D02*
X170198646Y-49918728D01*
X170198646Y-49918728D02*
X170270075Y-49883014D01*
X170270075Y-49883014D02*
X170377217Y-49883014D01*
X170377217Y-49883014D02*
X170448646Y-49918728D01*
X135275075Y-90323014D02*
X135275075Y-89573014D01*
X135275075Y-90287300D02*
X135203646Y-90323014D01*
X135203646Y-90323014D02*
X135060789Y-90323014D01*
X135060789Y-90323014D02*
X134989360Y-90287300D01*
X134989360Y-90287300D02*
X134953646Y-90251585D01*
X134953646Y-90251585D02*
X134917932Y-90180157D01*
X134917932Y-90180157D02*
X134917932Y-89965871D01*
X134917932Y-89965871D02*
X134953646Y-89894442D01*
X134953646Y-89894442D02*
X134989360Y-89858728D01*
X134989360Y-89858728D02*
X135060789Y-89823014D01*
X135060789Y-89823014D02*
X135203646Y-89823014D01*
X135203646Y-89823014D02*
X135275075Y-89858728D01*
X135739360Y-90323014D02*
X135667931Y-90287300D01*
X135667931Y-90287300D02*
X135632217Y-90251585D01*
X135632217Y-90251585D02*
X135596503Y-90180157D01*
X135596503Y-90180157D02*
X135596503Y-89965871D01*
X135596503Y-89965871D02*
X135632217Y-89894442D01*
X135632217Y-89894442D02*
X135667931Y-89858728D01*
X135667931Y-89858728D02*
X135739360Y-89823014D01*
X135739360Y-89823014D02*
X135846503Y-89823014D01*
X135846503Y-89823014D02*
X135917931Y-89858728D01*
X135917931Y-89858728D02*
X135953646Y-89894442D01*
X135953646Y-89894442D02*
X135989360Y-89965871D01*
X135989360Y-89965871D02*
X135989360Y-90180157D01*
X135989360Y-90180157D02*
X135953646Y-90251585D01*
X135953646Y-90251585D02*
X135917931Y-90287300D01*
X135917931Y-90287300D02*
X135846503Y-90323014D01*
X135846503Y-90323014D02*
X135739360Y-90323014D01*
X168977931Y-66863014D02*
X169156503Y-67363014D01*
X169156503Y-67363014D02*
X169335074Y-66863014D01*
X169585075Y-67327300D02*
X169656503Y-67363014D01*
X169656503Y-67363014D02*
X169799360Y-67363014D01*
X169799360Y-67363014D02*
X169870789Y-67327300D01*
X169870789Y-67327300D02*
X169906503Y-67255871D01*
X169906503Y-67255871D02*
X169906503Y-67220157D01*
X169906503Y-67220157D02*
X169870789Y-67148728D01*
X169870789Y-67148728D02*
X169799360Y-67113014D01*
X169799360Y-67113014D02*
X169692218Y-67113014D01*
X169692218Y-67113014D02*
X169620789Y-67077300D01*
X169620789Y-67077300D02*
X169585075Y-67005871D01*
X169585075Y-67005871D02*
X169585075Y-66970157D01*
X169585075Y-66970157D02*
X169620789Y-66898728D01*
X169620789Y-66898728D02*
X169692218Y-66863014D01*
X169692218Y-66863014D02*
X169799360Y-66863014D01*
X169799360Y-66863014D02*
X169870789Y-66898728D01*
X170192218Y-67327300D02*
X170263646Y-67363014D01*
X170263646Y-67363014D02*
X170406503Y-67363014D01*
X170406503Y-67363014D02*
X170477932Y-67327300D01*
X170477932Y-67327300D02*
X170513646Y-67255871D01*
X170513646Y-67255871D02*
X170513646Y-67220157D01*
X170513646Y-67220157D02*
X170477932Y-67148728D01*
X170477932Y-67148728D02*
X170406503Y-67113014D01*
X170406503Y-67113014D02*
X170299361Y-67113014D01*
X170299361Y-67113014D02*
X170227932Y-67077300D01*
X170227932Y-67077300D02*
X170192218Y-67005871D01*
X170192218Y-67005871D02*
X170192218Y-66970157D01*
X170192218Y-66970157D02*
X170227932Y-66898728D01*
X170227932Y-66898728D02*
X170299361Y-66863014D01*
X170299361Y-66863014D02*
X170406503Y-66863014D01*
X170406503Y-66863014D02*
X170477932Y-66898728D01*
X135442217Y-67463014D02*
X135442217Y-66713014D01*
X135442217Y-67427300D02*
X135370788Y-67463014D01*
X135370788Y-67463014D02*
X135227931Y-67463014D01*
X135227931Y-67463014D02*
X135156502Y-67427300D01*
X135156502Y-67427300D02*
X135120788Y-67391585D01*
X135120788Y-67391585D02*
X135085074Y-67320157D01*
X135085074Y-67320157D02*
X135085074Y-67105871D01*
X135085074Y-67105871D02*
X135120788Y-67034442D01*
X135120788Y-67034442D02*
X135156502Y-66998728D01*
X135156502Y-66998728D02*
X135227931Y-66963014D01*
X135227931Y-66963014D02*
X135370788Y-66963014D01*
X135370788Y-66963014D02*
X135442217Y-66998728D01*
X135799359Y-67463014D02*
X135799359Y-66963014D01*
X135799359Y-66713014D02*
X135763645Y-66748728D01*
X135763645Y-66748728D02*
X135799359Y-66784442D01*
X135799359Y-66784442D02*
X135835073Y-66748728D01*
X135835073Y-66748728D02*
X135799359Y-66713014D01*
X135799359Y-66713014D02*
X135799359Y-66784442D01*
X134662931Y-47293014D02*
X134841503Y-47793014D01*
X134841503Y-47793014D02*
X135020074Y-47293014D01*
X135270075Y-47757300D02*
X135341503Y-47793014D01*
X135341503Y-47793014D02*
X135484360Y-47793014D01*
X135484360Y-47793014D02*
X135555789Y-47757300D01*
X135555789Y-47757300D02*
X135591503Y-47685871D01*
X135591503Y-47685871D02*
X135591503Y-47650157D01*
X135591503Y-47650157D02*
X135555789Y-47578728D01*
X135555789Y-47578728D02*
X135484360Y-47543014D01*
X135484360Y-47543014D02*
X135377218Y-47543014D01*
X135377218Y-47543014D02*
X135305789Y-47507300D01*
X135305789Y-47507300D02*
X135270075Y-47435871D01*
X135270075Y-47435871D02*
X135270075Y-47400157D01*
X135270075Y-47400157D02*
X135305789Y-47328728D01*
X135305789Y-47328728D02*
X135377218Y-47293014D01*
X135377218Y-47293014D02*
X135484360Y-47293014D01*
X135484360Y-47293014D02*
X135555789Y-47328728D01*
X135877218Y-47757300D02*
X135948646Y-47793014D01*
X135948646Y-47793014D02*
X136091503Y-47793014D01*
X136091503Y-47793014D02*
X136162932Y-47757300D01*
X136162932Y-47757300D02*
X136198646Y-47685871D01*
X136198646Y-47685871D02*
X136198646Y-47650157D01*
X136198646Y-47650157D02*
X136162932Y-47578728D01*
X136162932Y-47578728D02*
X136091503Y-47543014D01*
X136091503Y-47543014D02*
X135984361Y-47543014D01*
X135984361Y-47543014D02*
X135912932Y-47507300D01*
X135912932Y-47507300D02*
X135877218Y-47435871D01*
X135877218Y-47435871D02*
X135877218Y-47400157D01*
X135877218Y-47400157D02*
X135912932Y-47328728D01*
X135912932Y-47328728D02*
X135984361Y-47293014D01*
X135984361Y-47293014D02*
X136091503Y-47293014D01*
X136091503Y-47293014D02*
X136162932Y-47328728D01*
X169716503Y-47843014D02*
X169716503Y-47093014D01*
X169716503Y-47807300D02*
X169645074Y-47843014D01*
X169645074Y-47843014D02*
X169502217Y-47843014D01*
X169502217Y-47843014D02*
X169430788Y-47807300D01*
X169430788Y-47807300D02*
X169395074Y-47771585D01*
X169395074Y-47771585D02*
X169359360Y-47700157D01*
X169359360Y-47700157D02*
X169359360Y-47485871D01*
X169359360Y-47485871D02*
X169395074Y-47414442D01*
X169395074Y-47414442D02*
X169430788Y-47378728D01*
X169430788Y-47378728D02*
X169502217Y-47343014D01*
X169502217Y-47343014D02*
X169645074Y-47343014D01*
X169645074Y-47343014D02*
X169716503Y-47378728D01*
X170073645Y-47843014D02*
X170073645Y-47343014D01*
X170073645Y-47093014D02*
X170037931Y-47128728D01*
X170037931Y-47128728D02*
X170073645Y-47164442D01*
X170073645Y-47164442D02*
X170109359Y-47128728D01*
X170109359Y-47128728D02*
X170073645Y-47093014D01*
X170073645Y-47093014D02*
X170073645Y-47164442D01*
X168877217Y-52433014D02*
X169055789Y-52933014D01*
X169055789Y-52933014D02*
X169234360Y-52433014D01*
X169841504Y-52933014D02*
X169841504Y-52183014D01*
X169841504Y-52897300D02*
X169770075Y-52933014D01*
X169770075Y-52933014D02*
X169627218Y-52933014D01*
X169627218Y-52933014D02*
X169555789Y-52897300D01*
X169555789Y-52897300D02*
X169520075Y-52861585D01*
X169520075Y-52861585D02*
X169484361Y-52790157D01*
X169484361Y-52790157D02*
X169484361Y-52575871D01*
X169484361Y-52575871D02*
X169520075Y-52504442D01*
X169520075Y-52504442D02*
X169555789Y-52468728D01*
X169555789Y-52468728D02*
X169627218Y-52433014D01*
X169627218Y-52433014D02*
X169770075Y-52433014D01*
X169770075Y-52433014D02*
X169841504Y-52468728D01*
X170520075Y-52933014D02*
X170520075Y-52183014D01*
X170520075Y-52897300D02*
X170448646Y-52933014D01*
X170448646Y-52933014D02*
X170305789Y-52933014D01*
X170305789Y-52933014D02*
X170234360Y-52897300D01*
X170234360Y-52897300D02*
X170198646Y-52861585D01*
X170198646Y-52861585D02*
X170162932Y-52790157D01*
X170162932Y-52790157D02*
X170162932Y-52575871D01*
X170162932Y-52575871D02*
X170198646Y-52504442D01*
X170198646Y-52504442D02*
X170234360Y-52468728D01*
X170234360Y-52468728D02*
X170305789Y-52433014D01*
X170305789Y-52433014D02*
X170448646Y-52433014D01*
X170448646Y-52433014D02*
X170520075Y-52468728D01*
X135265789Y-50483014D02*
X135265789Y-49733014D01*
X135265789Y-50447300D02*
X135194360Y-50483014D01*
X135194360Y-50483014D02*
X135051503Y-50483014D01*
X135051503Y-50483014D02*
X134980074Y-50447300D01*
X134980074Y-50447300D02*
X134944360Y-50411585D01*
X134944360Y-50411585D02*
X134908646Y-50340157D01*
X134908646Y-50340157D02*
X134908646Y-50125871D01*
X134908646Y-50125871D02*
X134944360Y-50054442D01*
X134944360Y-50054442D02*
X134980074Y-50018728D01*
X134980074Y-50018728D02*
X135051503Y-49983014D01*
X135051503Y-49983014D02*
X135194360Y-49983014D01*
X135194360Y-49983014D02*
X135265789Y-50018728D01*
X135622931Y-50483014D02*
X135622931Y-49983014D01*
X135622931Y-49733014D02*
X135587217Y-49768728D01*
X135587217Y-49768728D02*
X135622931Y-49804442D01*
X135622931Y-49804442D02*
X135658645Y-49768728D01*
X135658645Y-49768728D02*
X135622931Y-49733014D01*
X135622931Y-49733014D02*
X135622931Y-49804442D01*
X168862931Y-87253014D02*
X169041503Y-87753014D01*
X169041503Y-87753014D02*
X169220074Y-87253014D01*
X169470075Y-87717300D02*
X169541503Y-87753014D01*
X169541503Y-87753014D02*
X169684360Y-87753014D01*
X169684360Y-87753014D02*
X169755789Y-87717300D01*
X169755789Y-87717300D02*
X169791503Y-87645871D01*
X169791503Y-87645871D02*
X169791503Y-87610157D01*
X169791503Y-87610157D02*
X169755789Y-87538728D01*
X169755789Y-87538728D02*
X169684360Y-87503014D01*
X169684360Y-87503014D02*
X169577218Y-87503014D01*
X169577218Y-87503014D02*
X169505789Y-87467300D01*
X169505789Y-87467300D02*
X169470075Y-87395871D01*
X169470075Y-87395871D02*
X169470075Y-87360157D01*
X169470075Y-87360157D02*
X169505789Y-87288728D01*
X169505789Y-87288728D02*
X169577218Y-87253014D01*
X169577218Y-87253014D02*
X169684360Y-87253014D01*
X169684360Y-87253014D02*
X169755789Y-87288728D01*
X170077218Y-87717300D02*
X170148646Y-87753014D01*
X170148646Y-87753014D02*
X170291503Y-87753014D01*
X170291503Y-87753014D02*
X170362932Y-87717300D01*
X170362932Y-87717300D02*
X170398646Y-87645871D01*
X170398646Y-87645871D02*
X170398646Y-87610157D01*
X170398646Y-87610157D02*
X170362932Y-87538728D01*
X170362932Y-87538728D02*
X170291503Y-87503014D01*
X170291503Y-87503014D02*
X170184361Y-87503014D01*
X170184361Y-87503014D02*
X170112932Y-87467300D01*
X170112932Y-87467300D02*
X170077218Y-87395871D01*
X170077218Y-87395871D02*
X170077218Y-87360157D01*
X170077218Y-87360157D02*
X170112932Y-87288728D01*
X170112932Y-87288728D02*
X170184361Y-87253014D01*
X170184361Y-87253014D02*
X170291503Y-87253014D01*
X170291503Y-87253014D02*
X170362932Y-87288728D01*
X134674359Y-64423014D02*
X134852931Y-64923014D01*
X134852931Y-64923014D02*
X135031502Y-64423014D01*
X135281503Y-64887300D02*
X135352931Y-64923014D01*
X135352931Y-64923014D02*
X135495788Y-64923014D01*
X135495788Y-64923014D02*
X135567217Y-64887300D01*
X135567217Y-64887300D02*
X135602931Y-64815871D01*
X135602931Y-64815871D02*
X135602931Y-64780157D01*
X135602931Y-64780157D02*
X135567217Y-64708728D01*
X135567217Y-64708728D02*
X135495788Y-64673014D01*
X135495788Y-64673014D02*
X135388646Y-64673014D01*
X135388646Y-64673014D02*
X135317217Y-64637300D01*
X135317217Y-64637300D02*
X135281503Y-64565871D01*
X135281503Y-64565871D02*
X135281503Y-64530157D01*
X135281503Y-64530157D02*
X135317217Y-64458728D01*
X135317217Y-64458728D02*
X135388646Y-64423014D01*
X135388646Y-64423014D02*
X135495788Y-64423014D01*
X135495788Y-64423014D02*
X135567217Y-64458728D01*
X135888646Y-64887300D02*
X135960074Y-64923014D01*
X135960074Y-64923014D02*
X136102931Y-64923014D01*
X136102931Y-64923014D02*
X136174360Y-64887300D01*
X136174360Y-64887300D02*
X136210074Y-64815871D01*
X136210074Y-64815871D02*
X136210074Y-64780157D01*
X136210074Y-64780157D02*
X136174360Y-64708728D01*
X136174360Y-64708728D02*
X136102931Y-64673014D01*
X136102931Y-64673014D02*
X135995789Y-64673014D01*
X135995789Y-64673014D02*
X135924360Y-64637300D01*
X135924360Y-64637300D02*
X135888646Y-64565871D01*
X135888646Y-64565871D02*
X135888646Y-64530157D01*
X135888646Y-64530157D02*
X135924360Y-64458728D01*
X135924360Y-64458728D02*
X135995789Y-64423014D01*
X135995789Y-64423014D02*
X136102931Y-64423014D01*
X136102931Y-64423014D02*
X136174360Y-64458728D01*
X168085789Y-46543014D02*
X168085789Y-45793014D01*
X168085789Y-46507300D02*
X168014360Y-46543014D01*
X168014360Y-46543014D02*
X167871503Y-46543014D01*
X167871503Y-46543014D02*
X167800074Y-46507300D01*
X167800074Y-46507300D02*
X167764360Y-46471585D01*
X167764360Y-46471585D02*
X167728646Y-46400157D01*
X167728646Y-46400157D02*
X167728646Y-46185871D01*
X167728646Y-46185871D02*
X167764360Y-46114442D01*
X167764360Y-46114442D02*
X167800074Y-46078728D01*
X167800074Y-46078728D02*
X167871503Y-46043014D01*
X167871503Y-46043014D02*
X168014360Y-46043014D01*
X168014360Y-46043014D02*
X168085789Y-46078728D01*
X168550074Y-46543014D02*
X168478645Y-46507300D01*
X168478645Y-46507300D02*
X168442931Y-46471585D01*
X168442931Y-46471585D02*
X168407217Y-46400157D01*
X168407217Y-46400157D02*
X168407217Y-46185871D01*
X168407217Y-46185871D02*
X168442931Y-46114442D01*
X168442931Y-46114442D02*
X168478645Y-46078728D01*
X168478645Y-46078728D02*
X168550074Y-46043014D01*
X168550074Y-46043014D02*
X168657217Y-46043014D01*
X168657217Y-46043014D02*
X168728645Y-46078728D01*
X168728645Y-46078728D02*
X168764360Y-46114442D01*
X168764360Y-46114442D02*
X168800074Y-46185871D01*
X168800074Y-46185871D02*
X168800074Y-46400157D01*
X168800074Y-46400157D02*
X168764360Y-46471585D01*
X168764360Y-46471585D02*
X168728645Y-46507300D01*
X168728645Y-46507300D02*
X168657217Y-46543014D01*
X168657217Y-46543014D02*
X168550074Y-46543014D01*
X134596503Y-82203014D02*
X134775075Y-82703014D01*
X134775075Y-82703014D02*
X134953646Y-82203014D01*
X135560790Y-82703014D02*
X135560790Y-81953014D01*
X135560790Y-82667300D02*
X135489361Y-82703014D01*
X135489361Y-82703014D02*
X135346504Y-82703014D01*
X135346504Y-82703014D02*
X135275075Y-82667300D01*
X135275075Y-82667300D02*
X135239361Y-82631585D01*
X135239361Y-82631585D02*
X135203647Y-82560157D01*
X135203647Y-82560157D02*
X135203647Y-82345871D01*
X135203647Y-82345871D02*
X135239361Y-82274442D01*
X135239361Y-82274442D02*
X135275075Y-82238728D01*
X135275075Y-82238728D02*
X135346504Y-82203014D01*
X135346504Y-82203014D02*
X135489361Y-82203014D01*
X135489361Y-82203014D02*
X135560790Y-82238728D01*
X136239361Y-82703014D02*
X136239361Y-81953014D01*
X136239361Y-82667300D02*
X136167932Y-82703014D01*
X136167932Y-82703014D02*
X136025075Y-82703014D01*
X136025075Y-82703014D02*
X135953646Y-82667300D01*
X135953646Y-82667300D02*
X135917932Y-82631585D01*
X135917932Y-82631585D02*
X135882218Y-82560157D01*
X135882218Y-82560157D02*
X135882218Y-82345871D01*
X135882218Y-82345871D02*
X135917932Y-82274442D01*
X135917932Y-82274442D02*
X135953646Y-82238728D01*
X135953646Y-82238728D02*
X136025075Y-82203014D01*
X136025075Y-82203014D02*
X136167932Y-82203014D01*
X136167932Y-82203014D02*
X136239361Y-82238728D01*
X169585075Y-62293014D02*
X169585075Y-61543014D01*
X169585075Y-62257300D02*
X169513646Y-62293014D01*
X169513646Y-62293014D02*
X169370789Y-62293014D01*
X169370789Y-62293014D02*
X169299360Y-62257300D01*
X169299360Y-62257300D02*
X169263646Y-62221585D01*
X169263646Y-62221585D02*
X169227932Y-62150157D01*
X169227932Y-62150157D02*
X169227932Y-61935871D01*
X169227932Y-61935871D02*
X169263646Y-61864442D01*
X169263646Y-61864442D02*
X169299360Y-61828728D01*
X169299360Y-61828728D02*
X169370789Y-61793014D01*
X169370789Y-61793014D02*
X169513646Y-61793014D01*
X169513646Y-61793014D02*
X169585075Y-61828728D01*
X170049360Y-62293014D02*
X169977931Y-62257300D01*
X169977931Y-62257300D02*
X169942217Y-62221585D01*
X169942217Y-62221585D02*
X169906503Y-62150157D01*
X169906503Y-62150157D02*
X169906503Y-61935871D01*
X169906503Y-61935871D02*
X169942217Y-61864442D01*
X169942217Y-61864442D02*
X169977931Y-61828728D01*
X169977931Y-61828728D02*
X170049360Y-61793014D01*
X170049360Y-61793014D02*
X170156503Y-61793014D01*
X170156503Y-61793014D02*
X170227931Y-61828728D01*
X170227931Y-61828728D02*
X170263646Y-61864442D01*
X170263646Y-61864442D02*
X170299360Y-61935871D01*
X170299360Y-61935871D02*
X170299360Y-62150157D01*
X170299360Y-62150157D02*
X170263646Y-62221585D01*
X170263646Y-62221585D02*
X170227931Y-62257300D01*
X170227931Y-62257300D02*
X170156503Y-62293014D01*
X170156503Y-62293014D02*
X170049360Y-62293014D01*
X168906503Y-69413014D02*
X169085075Y-69913014D01*
X169085075Y-69913014D02*
X169263646Y-69413014D01*
X169870790Y-69913014D02*
X169870790Y-69163014D01*
X169870790Y-69877300D02*
X169799361Y-69913014D01*
X169799361Y-69913014D02*
X169656504Y-69913014D01*
X169656504Y-69913014D02*
X169585075Y-69877300D01*
X169585075Y-69877300D02*
X169549361Y-69841585D01*
X169549361Y-69841585D02*
X169513647Y-69770157D01*
X169513647Y-69770157D02*
X169513647Y-69555871D01*
X169513647Y-69555871D02*
X169549361Y-69484442D01*
X169549361Y-69484442D02*
X169585075Y-69448728D01*
X169585075Y-69448728D02*
X169656504Y-69413014D01*
X169656504Y-69413014D02*
X169799361Y-69413014D01*
X169799361Y-69413014D02*
X169870790Y-69448728D01*
X170549361Y-69913014D02*
X170549361Y-69163014D01*
X170549361Y-69877300D02*
X170477932Y-69913014D01*
X170477932Y-69913014D02*
X170335075Y-69913014D01*
X170335075Y-69913014D02*
X170263646Y-69877300D01*
X170263646Y-69877300D02*
X170227932Y-69841585D01*
X170227932Y-69841585D02*
X170192218Y-69770157D01*
X170192218Y-69770157D02*
X170192218Y-69555871D01*
X170192218Y-69555871D02*
X170227932Y-69484442D01*
X170227932Y-69484442D02*
X170263646Y-69448728D01*
X170263646Y-69448728D02*
X170335075Y-69413014D01*
X170335075Y-69413014D02*
X170477932Y-69413014D01*
X170477932Y-69413014D02*
X170549361Y-69448728D01*
X135435789Y-87773014D02*
X135435789Y-87023014D01*
X135435789Y-87737300D02*
X135364360Y-87773014D01*
X135364360Y-87773014D02*
X135221503Y-87773014D01*
X135221503Y-87773014D02*
X135150074Y-87737300D01*
X135150074Y-87737300D02*
X135114360Y-87701585D01*
X135114360Y-87701585D02*
X135078646Y-87630157D01*
X135078646Y-87630157D02*
X135078646Y-87415871D01*
X135078646Y-87415871D02*
X135114360Y-87344442D01*
X135114360Y-87344442D02*
X135150074Y-87308728D01*
X135150074Y-87308728D02*
X135221503Y-87273014D01*
X135221503Y-87273014D02*
X135364360Y-87273014D01*
X135364360Y-87273014D02*
X135435789Y-87308728D01*
X135792931Y-87773014D02*
X135792931Y-87273014D01*
X135792931Y-87023014D02*
X135757217Y-87058728D01*
X135757217Y-87058728D02*
X135792931Y-87094442D01*
X135792931Y-87094442D02*
X135828645Y-87058728D01*
X135828645Y-87058728D02*
X135792931Y-87023014D01*
X135792931Y-87023014D02*
X135792931Y-87094442D01*
X135281503Y-70013014D02*
X135281503Y-69263014D01*
X135281503Y-69977300D02*
X135210074Y-70013014D01*
X135210074Y-70013014D02*
X135067217Y-70013014D01*
X135067217Y-70013014D02*
X134995788Y-69977300D01*
X134995788Y-69977300D02*
X134960074Y-69941585D01*
X134960074Y-69941585D02*
X134924360Y-69870157D01*
X134924360Y-69870157D02*
X134924360Y-69655871D01*
X134924360Y-69655871D02*
X134960074Y-69584442D01*
X134960074Y-69584442D02*
X134995788Y-69548728D01*
X134995788Y-69548728D02*
X135067217Y-69513014D01*
X135067217Y-69513014D02*
X135210074Y-69513014D01*
X135210074Y-69513014D02*
X135281503Y-69548728D01*
X135745788Y-70013014D02*
X135674359Y-69977300D01*
X135674359Y-69977300D02*
X135638645Y-69941585D01*
X135638645Y-69941585D02*
X135602931Y-69870157D01*
X135602931Y-69870157D02*
X135602931Y-69655871D01*
X135602931Y-69655871D02*
X135638645Y-69584442D01*
X135638645Y-69584442D02*
X135674359Y-69548728D01*
X135674359Y-69548728D02*
X135745788Y-69513014D01*
X135745788Y-69513014D02*
X135852931Y-69513014D01*
X135852931Y-69513014D02*
X135924359Y-69548728D01*
X135924359Y-69548728D02*
X135960074Y-69584442D01*
X135960074Y-69584442D02*
X135995788Y-69655871D01*
X135995788Y-69655871D02*
X135995788Y-69870157D01*
X135995788Y-69870157D02*
X135960074Y-69941585D01*
X135960074Y-69941585D02*
X135924359Y-69977300D01*
X135924359Y-69977300D02*
X135852931Y-70013014D01*
X135852931Y-70013014D02*
X135745788Y-70013014D01*
X135235789Y-53003014D02*
X135235789Y-52253014D01*
X135235789Y-52967300D02*
X135164360Y-53003014D01*
X135164360Y-53003014D02*
X135021503Y-53003014D01*
X135021503Y-53003014D02*
X134950074Y-52967300D01*
X134950074Y-52967300D02*
X134914360Y-52931585D01*
X134914360Y-52931585D02*
X134878646Y-52860157D01*
X134878646Y-52860157D02*
X134878646Y-52645871D01*
X134878646Y-52645871D02*
X134914360Y-52574442D01*
X134914360Y-52574442D02*
X134950074Y-52538728D01*
X134950074Y-52538728D02*
X135021503Y-52503014D01*
X135021503Y-52503014D02*
X135164360Y-52503014D01*
X135164360Y-52503014D02*
X135235789Y-52538728D01*
X135700074Y-53003014D02*
X135628645Y-52967300D01*
X135628645Y-52967300D02*
X135592931Y-52931585D01*
X135592931Y-52931585D02*
X135557217Y-52860157D01*
X135557217Y-52860157D02*
X135557217Y-52645871D01*
X135557217Y-52645871D02*
X135592931Y-52574442D01*
X135592931Y-52574442D02*
X135628645Y-52538728D01*
X135628645Y-52538728D02*
X135700074Y-52503014D01*
X135700074Y-52503014D02*
X135807217Y-52503014D01*
X135807217Y-52503014D02*
X135878645Y-52538728D01*
X135878645Y-52538728D02*
X135914360Y-52574442D01*
X135914360Y-52574442D02*
X135950074Y-52645871D01*
X135950074Y-52645871D02*
X135950074Y-52860157D01*
X135950074Y-52860157D02*
X135914360Y-52931585D01*
X135914360Y-52931585D02*
X135878645Y-52967300D01*
X135878645Y-52967300D02*
X135807217Y-53003014D01*
X135807217Y-53003014D02*
X135700074Y-53003014D01*
X169630789Y-85213014D02*
X169630789Y-84463014D01*
X169630789Y-85177300D02*
X169559360Y-85213014D01*
X169559360Y-85213014D02*
X169416503Y-85213014D01*
X169416503Y-85213014D02*
X169345074Y-85177300D01*
X169345074Y-85177300D02*
X169309360Y-85141585D01*
X169309360Y-85141585D02*
X169273646Y-85070157D01*
X169273646Y-85070157D02*
X169273646Y-84855871D01*
X169273646Y-84855871D02*
X169309360Y-84784442D01*
X169309360Y-84784442D02*
X169345074Y-84748728D01*
X169345074Y-84748728D02*
X169416503Y-84713014D01*
X169416503Y-84713014D02*
X169559360Y-84713014D01*
X169559360Y-84713014D02*
X169630789Y-84748728D01*
X169987931Y-85213014D02*
X169987931Y-84713014D01*
X169987931Y-84463014D02*
X169952217Y-84498728D01*
X169952217Y-84498728D02*
X169987931Y-84534442D01*
X169987931Y-84534442D02*
X170023645Y-84498728D01*
X170023645Y-84498728D02*
X169987931Y-84463014D01*
X169987931Y-84463014D02*
X169987931Y-84534442D01*
X169745789Y-64823014D02*
X169745789Y-64073014D01*
X169745789Y-64787300D02*
X169674360Y-64823014D01*
X169674360Y-64823014D02*
X169531503Y-64823014D01*
X169531503Y-64823014D02*
X169460074Y-64787300D01*
X169460074Y-64787300D02*
X169424360Y-64751585D01*
X169424360Y-64751585D02*
X169388646Y-64680157D01*
X169388646Y-64680157D02*
X169388646Y-64465871D01*
X169388646Y-64465871D02*
X169424360Y-64394442D01*
X169424360Y-64394442D02*
X169460074Y-64358728D01*
X169460074Y-64358728D02*
X169531503Y-64323014D01*
X169531503Y-64323014D02*
X169674360Y-64323014D01*
X169674360Y-64323014D02*
X169745789Y-64358728D01*
X170102931Y-64823014D02*
X170102931Y-64323014D01*
X170102931Y-64073014D02*
X170067217Y-64108728D01*
X170067217Y-64108728D02*
X170102931Y-64144442D01*
X170102931Y-64144442D02*
X170138645Y-64108728D01*
X170138645Y-64108728D02*
X170102931Y-64073014D01*
X170102931Y-64073014D02*
X170102931Y-64144442D01*
D11*
X141885807Y-46551714D02*
X141885807Y-45801714D01*
X141885807Y-45801714D02*
X142135807Y-46337428D01*
X142135807Y-46337428D02*
X142385807Y-45801714D01*
X142385807Y-45801714D02*
X142385807Y-46551714D01*
X143064379Y-46551714D02*
X143064379Y-46158857D01*
X143064379Y-46158857D02*
X143028664Y-46087428D01*
X143028664Y-46087428D02*
X142957236Y-46051714D01*
X142957236Y-46051714D02*
X142814379Y-46051714D01*
X142814379Y-46051714D02*
X142742950Y-46087428D01*
X143064379Y-46516000D02*
X142992950Y-46551714D01*
X142992950Y-46551714D02*
X142814379Y-46551714D01*
X142814379Y-46551714D02*
X142742950Y-46516000D01*
X142742950Y-46516000D02*
X142707236Y-46444571D01*
X142707236Y-46444571D02*
X142707236Y-46373142D01*
X142707236Y-46373142D02*
X142742950Y-46301714D01*
X142742950Y-46301714D02*
X142814379Y-46266000D01*
X142814379Y-46266000D02*
X142992950Y-46266000D01*
X142992950Y-46266000D02*
X143064379Y-46230285D01*
X143421521Y-46551714D02*
X143421521Y-45801714D01*
X143492950Y-46266000D02*
X143707235Y-46551714D01*
X143707235Y-46051714D02*
X143421521Y-46337428D01*
X144028664Y-46551714D02*
X144028664Y-46051714D01*
X144028664Y-45801714D02*
X143992950Y-45837428D01*
X143992950Y-45837428D02*
X144028664Y-45873142D01*
X144028664Y-45873142D02*
X144064378Y-45837428D01*
X144064378Y-45837428D02*
X144028664Y-45801714D01*
X144028664Y-45801714D02*
X144028664Y-45873142D01*
X144385807Y-46051714D02*
X144385807Y-46551714D01*
X144385807Y-46123142D02*
X144421521Y-46087428D01*
X144421521Y-46087428D02*
X144492950Y-46051714D01*
X144492950Y-46051714D02*
X144600093Y-46051714D01*
X144600093Y-46051714D02*
X144671521Y-46087428D01*
X144671521Y-46087428D02*
X144707236Y-46158857D01*
X144707236Y-46158857D02*
X144707236Y-46551714D01*
X145385807Y-46051714D02*
X145385807Y-46658857D01*
X145385807Y-46658857D02*
X145350092Y-46730285D01*
X145350092Y-46730285D02*
X145314378Y-46766000D01*
X145314378Y-46766000D02*
X145242949Y-46801714D01*
X145242949Y-46801714D02*
X145135807Y-46801714D01*
X145135807Y-46801714D02*
X145064378Y-46766000D01*
X145385807Y-46516000D02*
X145314378Y-46551714D01*
X145314378Y-46551714D02*
X145171521Y-46551714D01*
X145171521Y-46551714D02*
X145100092Y-46516000D01*
X145100092Y-46516000D02*
X145064378Y-46480285D01*
X145064378Y-46480285D02*
X145028664Y-46408857D01*
X145028664Y-46408857D02*
X145028664Y-46194571D01*
X145028664Y-46194571D02*
X145064378Y-46123142D01*
X145064378Y-46123142D02*
X145100092Y-46087428D01*
X145100092Y-46087428D02*
X145171521Y-46051714D01*
X145171521Y-46051714D02*
X145314378Y-46051714D01*
X145314378Y-46051714D02*
X145385807Y-46087428D01*
X146314378Y-46551714D02*
X146314378Y-45801714D01*
X146314378Y-45801714D02*
X146492949Y-45801714D01*
X146492949Y-45801714D02*
X146600092Y-45837428D01*
X146600092Y-45837428D02*
X146671521Y-45908857D01*
X146671521Y-45908857D02*
X146707235Y-45980285D01*
X146707235Y-45980285D02*
X146742949Y-46123142D01*
X146742949Y-46123142D02*
X146742949Y-46230285D01*
X146742949Y-46230285D02*
X146707235Y-46373142D01*
X146707235Y-46373142D02*
X146671521Y-46444571D01*
X146671521Y-46444571D02*
X146600092Y-46516000D01*
X146600092Y-46516000D02*
X146492949Y-46551714D01*
X146492949Y-46551714D02*
X146314378Y-46551714D01*
X147350092Y-46516000D02*
X147278664Y-46551714D01*
X147278664Y-46551714D02*
X147135807Y-46551714D01*
X147135807Y-46551714D02*
X147064378Y-46516000D01*
X147064378Y-46516000D02*
X147028664Y-46444571D01*
X147028664Y-46444571D02*
X147028664Y-46158857D01*
X147028664Y-46158857D02*
X147064378Y-46087428D01*
X147064378Y-46087428D02*
X147135807Y-46051714D01*
X147135807Y-46051714D02*
X147278664Y-46051714D01*
X147278664Y-46051714D02*
X147350092Y-46087428D01*
X147350092Y-46087428D02*
X147385807Y-46158857D01*
X147385807Y-46158857D02*
X147385807Y-46230285D01*
X147385807Y-46230285D02*
X147028664Y-46301714D01*
X147635806Y-46051714D02*
X147814378Y-46551714D01*
X147814378Y-46551714D02*
X147992949Y-46051714D01*
X148278664Y-46551714D02*
X148278664Y-46051714D01*
X148278664Y-45801714D02*
X148242950Y-45837428D01*
X148242950Y-45837428D02*
X148278664Y-45873142D01*
X148278664Y-45873142D02*
X148314378Y-45837428D01*
X148314378Y-45837428D02*
X148278664Y-45801714D01*
X148278664Y-45801714D02*
X148278664Y-45873142D01*
X148957236Y-46516000D02*
X148885807Y-46551714D01*
X148885807Y-46551714D02*
X148742950Y-46551714D01*
X148742950Y-46551714D02*
X148671521Y-46516000D01*
X148671521Y-46516000D02*
X148635807Y-46480285D01*
X148635807Y-46480285D02*
X148600093Y-46408857D01*
X148600093Y-46408857D02*
X148600093Y-46194571D01*
X148600093Y-46194571D02*
X148635807Y-46123142D01*
X148635807Y-46123142D02*
X148671521Y-46087428D01*
X148671521Y-46087428D02*
X148742950Y-46051714D01*
X148742950Y-46051714D02*
X148885807Y-46051714D01*
X148885807Y-46051714D02*
X148957236Y-46087428D01*
X149564378Y-46516000D02*
X149492950Y-46551714D01*
X149492950Y-46551714D02*
X149350093Y-46551714D01*
X149350093Y-46551714D02*
X149278664Y-46516000D01*
X149278664Y-46516000D02*
X149242950Y-46444571D01*
X149242950Y-46444571D02*
X149242950Y-46158857D01*
X149242950Y-46158857D02*
X149278664Y-46087428D01*
X149278664Y-46087428D02*
X149350093Y-46051714D01*
X149350093Y-46051714D02*
X149492950Y-46051714D01*
X149492950Y-46051714D02*
X149564378Y-46087428D01*
X149564378Y-46087428D02*
X149600093Y-46158857D01*
X149600093Y-46158857D02*
X149600093Y-46230285D01*
X149600093Y-46230285D02*
X149242950Y-46301714D01*
X149885807Y-46516000D02*
X149957235Y-46551714D01*
X149957235Y-46551714D02*
X150100092Y-46551714D01*
X150100092Y-46551714D02*
X150171521Y-46516000D01*
X150171521Y-46516000D02*
X150207235Y-46444571D01*
X150207235Y-46444571D02*
X150207235Y-46408857D01*
X150207235Y-46408857D02*
X150171521Y-46337428D01*
X150171521Y-46337428D02*
X150100092Y-46301714D01*
X150100092Y-46301714D02*
X149992950Y-46301714D01*
X149992950Y-46301714D02*
X149921521Y-46266000D01*
X149921521Y-46266000D02*
X149885807Y-46194571D01*
X149885807Y-46194571D02*
X149885807Y-46158857D01*
X149885807Y-46158857D02*
X149921521Y-46087428D01*
X149921521Y-46087428D02*
X149992950Y-46051714D01*
X149992950Y-46051714D02*
X150100092Y-46051714D01*
X150100092Y-46051714D02*
X150171521Y-46087428D01*
X151100093Y-46266000D02*
X151671522Y-46266000D01*
X152600093Y-46551714D02*
X152600093Y-45801714D01*
X152600093Y-45801714D02*
X152885807Y-45801714D01*
X152885807Y-45801714D02*
X152957236Y-45837428D01*
X152957236Y-45837428D02*
X152992950Y-45873142D01*
X152992950Y-45873142D02*
X153028664Y-45944571D01*
X153028664Y-45944571D02*
X153028664Y-46051714D01*
X153028664Y-46051714D02*
X152992950Y-46123142D01*
X152992950Y-46123142D02*
X152957236Y-46158857D01*
X152957236Y-46158857D02*
X152885807Y-46194571D01*
X152885807Y-46194571D02*
X152600093Y-46194571D01*
X153350093Y-46551714D02*
X153350093Y-46051714D01*
X153350093Y-45801714D02*
X153314379Y-45837428D01*
X153314379Y-45837428D02*
X153350093Y-45873142D01*
X153350093Y-45873142D02*
X153385807Y-45837428D01*
X153385807Y-45837428D02*
X153350093Y-45801714D01*
X153350093Y-45801714D02*
X153350093Y-45873142D01*
X153635807Y-46551714D02*
X154028665Y-46051714D01*
X153635807Y-46051714D02*
X154028665Y-46551714D01*
X154600093Y-46516000D02*
X154528665Y-46551714D01*
X154528665Y-46551714D02*
X154385808Y-46551714D01*
X154385808Y-46551714D02*
X154314379Y-46516000D01*
X154314379Y-46516000D02*
X154278665Y-46444571D01*
X154278665Y-46444571D02*
X154278665Y-46158857D01*
X154278665Y-46158857D02*
X154314379Y-46087428D01*
X154314379Y-46087428D02*
X154385808Y-46051714D01*
X154385808Y-46051714D02*
X154528665Y-46051714D01*
X154528665Y-46051714D02*
X154600093Y-46087428D01*
X154600093Y-46087428D02*
X154635808Y-46158857D01*
X154635808Y-46158857D02*
X154635808Y-46230285D01*
X154635808Y-46230285D02*
X154278665Y-46301714D01*
X155064379Y-46551714D02*
X154992950Y-46516000D01*
X154992950Y-46516000D02*
X154957236Y-46444571D01*
X154957236Y-46444571D02*
X154957236Y-45801714D01*
X156171522Y-46158857D02*
X156278665Y-46194571D01*
X156278665Y-46194571D02*
X156314379Y-46230285D01*
X156314379Y-46230285D02*
X156350093Y-46301714D01*
X156350093Y-46301714D02*
X156350093Y-46408857D01*
X156350093Y-46408857D02*
X156314379Y-46480285D01*
X156314379Y-46480285D02*
X156278665Y-46516000D01*
X156278665Y-46516000D02*
X156207236Y-46551714D01*
X156207236Y-46551714D02*
X155921522Y-46551714D01*
X155921522Y-46551714D02*
X155921522Y-45801714D01*
X155921522Y-45801714D02*
X156171522Y-45801714D01*
X156171522Y-45801714D02*
X156242951Y-45837428D01*
X156242951Y-45837428D02*
X156278665Y-45873142D01*
X156278665Y-45873142D02*
X156314379Y-45944571D01*
X156314379Y-45944571D02*
X156314379Y-46016000D01*
X156314379Y-46016000D02*
X156278665Y-46087428D01*
X156278665Y-46087428D02*
X156242951Y-46123142D01*
X156242951Y-46123142D02*
X156171522Y-46158857D01*
X156171522Y-46158857D02*
X155921522Y-46158857D01*
X156600093Y-46051714D02*
X156778665Y-46551714D01*
X156957236Y-46051714D02*
X156778665Y-46551714D01*
X156778665Y-46551714D02*
X156707236Y-46730285D01*
X156707236Y-46730285D02*
X156671522Y-46766000D01*
X156671522Y-46766000D02*
X156600093Y-46801714D01*
X157135808Y-46051714D02*
X157421522Y-46051714D01*
X157242951Y-45801714D02*
X157242951Y-46444571D01*
X157242951Y-46444571D02*
X157278665Y-46516000D01*
X157278665Y-46516000D02*
X157350094Y-46551714D01*
X157350094Y-46551714D02*
X157421522Y-46551714D01*
X157957236Y-46516000D02*
X157885808Y-46551714D01*
X157885808Y-46551714D02*
X157742951Y-46551714D01*
X157742951Y-46551714D02*
X157671522Y-46516000D01*
X157671522Y-46516000D02*
X157635808Y-46444571D01*
X157635808Y-46444571D02*
X157635808Y-46158857D01*
X157635808Y-46158857D02*
X157671522Y-46087428D01*
X157671522Y-46087428D02*
X157742951Y-46051714D01*
X157742951Y-46051714D02*
X157885808Y-46051714D01*
X157885808Y-46051714D02*
X157957236Y-46087428D01*
X157957236Y-46087428D02*
X157992951Y-46158857D01*
X157992951Y-46158857D02*
X157992951Y-46230285D01*
X157992951Y-46230285D02*
X157635808Y-46301714D01*
X158278665Y-46516000D02*
X158350093Y-46551714D01*
X158350093Y-46551714D02*
X158492950Y-46551714D01*
X158492950Y-46551714D02*
X158564379Y-46516000D01*
X158564379Y-46516000D02*
X158600093Y-46444571D01*
X158600093Y-46444571D02*
X158600093Y-46408857D01*
X158600093Y-46408857D02*
X158564379Y-46337428D01*
X158564379Y-46337428D02*
X158492950Y-46301714D01*
X158492950Y-46301714D02*
X158385808Y-46301714D01*
X158385808Y-46301714D02*
X158314379Y-46266000D01*
X158314379Y-46266000D02*
X158278665Y-46194571D01*
X158278665Y-46194571D02*
X158278665Y-46158857D01*
X158278665Y-46158857D02*
X158314379Y-46087428D01*
X158314379Y-46087428D02*
X158385808Y-46051714D01*
X158385808Y-46051714D02*
X158492950Y-46051714D01*
X158492950Y-46051714D02*
X158564379Y-46087428D01*
X159492951Y-46551714D02*
X159492951Y-45801714D01*
X159492951Y-45801714D02*
X159671522Y-45801714D01*
X159671522Y-45801714D02*
X159778665Y-45837428D01*
X159778665Y-45837428D02*
X159850094Y-45908857D01*
X159850094Y-45908857D02*
X159885808Y-45980285D01*
X159885808Y-45980285D02*
X159921522Y-46123142D01*
X159921522Y-46123142D02*
X159921522Y-46230285D01*
X159921522Y-46230285D02*
X159885808Y-46373142D01*
X159885808Y-46373142D02*
X159850094Y-46444571D01*
X159850094Y-46444571D02*
X159778665Y-46516000D01*
X159778665Y-46516000D02*
X159671522Y-46551714D01*
X159671522Y-46551714D02*
X159492951Y-46551714D01*
X160242951Y-46551714D02*
X160242951Y-46051714D01*
X160242951Y-45801714D02*
X160207237Y-45837428D01*
X160207237Y-45837428D02*
X160242951Y-45873142D01*
X160242951Y-45873142D02*
X160278665Y-45837428D01*
X160278665Y-45837428D02*
X160242951Y-45801714D01*
X160242951Y-45801714D02*
X160242951Y-45873142D01*
X160564380Y-46516000D02*
X160635808Y-46551714D01*
X160635808Y-46551714D02*
X160778665Y-46551714D01*
X160778665Y-46551714D02*
X160850094Y-46516000D01*
X160850094Y-46516000D02*
X160885808Y-46444571D01*
X160885808Y-46444571D02*
X160885808Y-46408857D01*
X160885808Y-46408857D02*
X160850094Y-46337428D01*
X160850094Y-46337428D02*
X160778665Y-46301714D01*
X160778665Y-46301714D02*
X160671523Y-46301714D01*
X160671523Y-46301714D02*
X160600094Y-46266000D01*
X160600094Y-46266000D02*
X160564380Y-46194571D01*
X160564380Y-46194571D02*
X160564380Y-46158857D01*
X160564380Y-46158857D02*
X160600094Y-46087428D01*
X160600094Y-46087428D02*
X160671523Y-46051714D01*
X160671523Y-46051714D02*
X160778665Y-46051714D01*
X160778665Y-46051714D02*
X160850094Y-46087428D01*
X161207237Y-46051714D02*
X161207237Y-46801714D01*
X161207237Y-46087428D02*
X161278666Y-46051714D01*
X161278666Y-46051714D02*
X161421523Y-46051714D01*
X161421523Y-46051714D02*
X161492951Y-46087428D01*
X161492951Y-46087428D02*
X161528666Y-46123142D01*
X161528666Y-46123142D02*
X161564380Y-46194571D01*
X161564380Y-46194571D02*
X161564380Y-46408857D01*
X161564380Y-46408857D02*
X161528666Y-46480285D01*
X161528666Y-46480285D02*
X161492951Y-46516000D01*
X161492951Y-46516000D02*
X161421523Y-46551714D01*
X161421523Y-46551714D02*
X161278666Y-46551714D01*
X161278666Y-46551714D02*
X161207237Y-46516000D01*
X161992951Y-46551714D02*
X161921522Y-46516000D01*
X161921522Y-46516000D02*
X161885808Y-46444571D01*
X161885808Y-46444571D02*
X161885808Y-45801714D01*
X162600094Y-46551714D02*
X162600094Y-46158857D01*
X162600094Y-46158857D02*
X162564379Y-46087428D01*
X162564379Y-46087428D02*
X162492951Y-46051714D01*
X162492951Y-46051714D02*
X162350094Y-46051714D01*
X162350094Y-46051714D02*
X162278665Y-46087428D01*
X162600094Y-46516000D02*
X162528665Y-46551714D01*
X162528665Y-46551714D02*
X162350094Y-46551714D01*
X162350094Y-46551714D02*
X162278665Y-46516000D01*
X162278665Y-46516000D02*
X162242951Y-46444571D01*
X162242951Y-46444571D02*
X162242951Y-46373142D01*
X162242951Y-46373142D02*
X162278665Y-46301714D01*
X162278665Y-46301714D02*
X162350094Y-46266000D01*
X162350094Y-46266000D02*
X162528665Y-46266000D01*
X162528665Y-46266000D02*
X162600094Y-46230285D01*
X162885807Y-46051714D02*
X163064379Y-46551714D01*
X163242950Y-46051714D02*
X163064379Y-46551714D01*
X163064379Y-46551714D02*
X162992950Y-46730285D01*
X162992950Y-46730285D02*
X162957236Y-46766000D01*
X162957236Y-46766000D02*
X162885807Y-46801714D01*
D10*
%TO.C,ICled210*%
X146629112Y-85051000D02*
X148529112Y-85051000D01*
X146629112Y-86951000D02*
X146629112Y-85051000D01*
X148329112Y-85851000D02*
X148329112Y-86151000D01*
X148329112Y-85851000D02*
X148529112Y-85851000D01*
X148329112Y-86151000D02*
X148529112Y-86151000D01*
X148529112Y-85051000D02*
X148529112Y-85851000D01*
X148529112Y-85851000D02*
X148529112Y-86151000D01*
X148529112Y-86151000D02*
X148529112Y-86951000D01*
X148529112Y-86951000D02*
X146629112Y-86951000D01*
X148079112Y-86001000D02*
G75*
G02*
X147079112Y-86001000I-500000J0D01*
G01*
X147079112Y-86001000D02*
G75*
G02*
X148079112Y-86001000I500000J0D01*
G01*
%TO.C,ICled127*%
X144119362Y-72500100D02*
X146019362Y-72500100D01*
X144119362Y-74400100D02*
X144119362Y-72500100D01*
X145819362Y-73300100D02*
X145819362Y-73600100D01*
X145819362Y-73300100D02*
X146019362Y-73300100D01*
X145819362Y-73600100D02*
X146019362Y-73600100D01*
X146019362Y-72500100D02*
X146019362Y-73300100D01*
X146019362Y-73300100D02*
X146019362Y-73600100D01*
X146019362Y-73600100D02*
X146019362Y-74400100D01*
X146019362Y-74400100D02*
X144119362Y-74400100D01*
X145569362Y-73450100D02*
G75*
G02*
X144569362Y-73450100I-500000J0D01*
G01*
X144569362Y-73450100D02*
G75*
G02*
X145569362Y-73450100I500000J0D01*
G01*
%TO.C,ICled117*%
X166707112Y-67479400D02*
X168607112Y-67479400D01*
X166707112Y-69379400D02*
X166707112Y-67479400D01*
X168407112Y-68279400D02*
X168407112Y-68579400D01*
X168407112Y-68279400D02*
X168607112Y-68279400D01*
X168407112Y-68579400D02*
X168607112Y-68579400D01*
X168607112Y-67479400D02*
X168607112Y-68279400D01*
X168607112Y-68279400D02*
X168607112Y-68579400D01*
X168607112Y-68579400D02*
X168607112Y-69379400D01*
X168607112Y-69379400D02*
X166707112Y-69379400D01*
X168157112Y-68429400D02*
G75*
G02*
X167157112Y-68429400I-500000J0D01*
G01*
X167157112Y-68429400D02*
G75*
G02*
X168157112Y-68429400I500000J0D01*
G01*
%TO.C,ICled136*%
X151648612Y-72500100D02*
X153548612Y-72500100D01*
X151648612Y-74400100D02*
X151648612Y-72500100D01*
X153348612Y-73300100D02*
X153348612Y-73600100D01*
X153348612Y-73300100D02*
X153548612Y-73300100D01*
X153348612Y-73600100D02*
X153548612Y-73600100D01*
X153548612Y-72500100D02*
X153548612Y-73300100D01*
X153548612Y-73300100D02*
X153548612Y-73600100D01*
X153548612Y-73600100D02*
X153548612Y-74400100D01*
X153548612Y-74400100D02*
X151648612Y-74400100D01*
X153098612Y-73450100D02*
G75*
G02*
X152098612Y-73450100I-500000J0D01*
G01*
X152098612Y-73450100D02*
G75*
G02*
X153098612Y-73450100I500000J0D01*
G01*
%TO.C,ICled68*%
X159177862Y-59949200D02*
X161077862Y-59949200D01*
X159177862Y-61849200D02*
X159177862Y-59949200D01*
X160877862Y-60749200D02*
X160877862Y-61049200D01*
X160877862Y-60749200D02*
X161077862Y-60749200D01*
X160877862Y-61049200D02*
X161077862Y-61049200D01*
X161077862Y-59949200D02*
X161077862Y-60749200D01*
X161077862Y-60749200D02*
X161077862Y-61049200D01*
X161077862Y-61049200D02*
X161077862Y-61849200D01*
X161077862Y-61849200D02*
X159177862Y-61849200D01*
X160627862Y-60899200D02*
G75*
G02*
X159627862Y-60899200I-500000J0D01*
G01*
X159627862Y-60899200D02*
G75*
G02*
X160627862Y-60899200I500000J0D01*
G01*
%TO.C,ICled193*%
X166707112Y-77520800D02*
X168607112Y-77520800D01*
X166707112Y-79420800D02*
X166707112Y-77520800D01*
X168407112Y-78320800D02*
X168407112Y-78620800D01*
X168407112Y-78320800D02*
X168607112Y-78320800D01*
X168407112Y-78620800D02*
X168607112Y-78620800D01*
X168607112Y-77520800D02*
X168607112Y-78320800D01*
X168607112Y-78320800D02*
X168607112Y-78620800D01*
X168607112Y-78620800D02*
X168607112Y-79420800D01*
X168607112Y-79420800D02*
X166707112Y-79420800D01*
X168157112Y-78470800D02*
G75*
G02*
X167157112Y-78470800I-500000J0D01*
G01*
X167157112Y-78470800D02*
G75*
G02*
X168157112Y-78470800I500000J0D01*
G01*
%TO.C,ICled22*%
X154158355Y-49909500D02*
X156058355Y-49909500D01*
X154158355Y-51809500D02*
X154158355Y-49909500D01*
X155858355Y-50709500D02*
X155858355Y-51009500D01*
X155858355Y-50709500D02*
X156058355Y-50709500D01*
X155858355Y-51009500D02*
X156058355Y-51009500D01*
X156058355Y-49909500D02*
X156058355Y-50709500D01*
X156058355Y-50709500D02*
X156058355Y-51009500D01*
X156058355Y-51009500D02*
X156058355Y-51809500D01*
X156058355Y-51809500D02*
X154158355Y-51809500D01*
X155608355Y-50859500D02*
G75*
G02*
X154608355Y-50859500I-500000J0D01*
G01*
X154608355Y-50859500D02*
G75*
G02*
X155608355Y-50859500I500000J0D01*
G01*
D12*
%TO.C,C4*%
X169065000Y-56348748D02*
X169065000Y-56871252D01*
X170535000Y-56348748D02*
X170535000Y-56871252D01*
D10*
%TO.C,ICled32*%
X161687612Y-52419000D02*
X163587612Y-52419000D01*
X161687612Y-54319000D02*
X161687612Y-52419000D01*
X163387612Y-53219000D02*
X163387612Y-53519000D01*
X163387612Y-53219000D02*
X163587612Y-53219000D01*
X163387612Y-53519000D02*
X163587612Y-53519000D01*
X163587612Y-52419000D02*
X163587612Y-53219000D01*
X163587612Y-53219000D02*
X163587612Y-53519000D01*
X163587612Y-53519000D02*
X163587612Y-54319000D01*
X163587612Y-54319000D02*
X161687612Y-54319000D01*
X163137612Y-53369000D02*
G75*
G02*
X162137612Y-53369000I-500000J0D01*
G01*
X162137612Y-53369000D02*
G75*
G02*
X163137612Y-53369000I500000J0D01*
G01*
%TO.C,ICled125*%
X141609612Y-75009600D02*
X143509612Y-75009600D01*
X141609612Y-76909600D02*
X141609612Y-75009600D01*
X143309612Y-75809600D02*
X143309612Y-76109600D01*
X143309612Y-75809600D02*
X143509612Y-75809600D01*
X143309612Y-76109600D02*
X143509612Y-76109600D01*
X143509612Y-75009600D02*
X143509612Y-75809600D01*
X143509612Y-75809600D02*
X143509612Y-76109600D01*
X143509612Y-76109600D02*
X143509612Y-76909600D01*
X143509612Y-76909600D02*
X141609612Y-76909600D01*
X143059612Y-75959600D02*
G75*
G02*
X142059612Y-75959600I-500000J0D01*
G01*
X142059612Y-75959600D02*
G75*
G02*
X143059612Y-75959600I500000J0D01*
G01*
%TO.C,ICled65*%
X156668112Y-59949200D02*
X158568112Y-59949200D01*
X156668112Y-61849200D02*
X156668112Y-59949200D01*
X158368112Y-60749200D02*
X158368112Y-61049200D01*
X158368112Y-60749200D02*
X158568112Y-60749200D01*
X158368112Y-61049200D02*
X158568112Y-61049200D01*
X158568112Y-59949200D02*
X158568112Y-60749200D01*
X158568112Y-60749200D02*
X158568112Y-61049200D01*
X158568112Y-61049200D02*
X158568112Y-61849200D01*
X158568112Y-61849200D02*
X156668112Y-61849200D01*
X158118112Y-60899200D02*
G75*
G02*
X157118112Y-60899200I-500000J0D01*
G01*
X157118112Y-60899200D02*
G75*
G02*
X158118112Y-60899200I500000J0D01*
G01*
%TO.C,ICled169*%
X146629112Y-80030300D02*
X148529112Y-80030300D01*
X146629112Y-81930300D02*
X146629112Y-80030300D01*
X148329112Y-80830300D02*
X148329112Y-81130300D01*
X148329112Y-80830300D02*
X148529112Y-80830300D01*
X148329112Y-81130300D02*
X148529112Y-81130300D01*
X148529112Y-80030300D02*
X148529112Y-80830300D01*
X148529112Y-80830300D02*
X148529112Y-81130300D01*
X148529112Y-81130300D02*
X148529112Y-81930300D01*
X148529112Y-81930300D02*
X146629112Y-81930300D01*
X148079112Y-80980300D02*
G75*
G02*
X147079112Y-80980300I-500000J0D01*
G01*
X147079112Y-80980300D02*
G75*
G02*
X148079112Y-80980300I500000J0D01*
G01*
%TO.C,ICled211*%
X149138862Y-87560500D02*
X151038862Y-87560500D01*
X149138862Y-89460500D02*
X149138862Y-87560500D01*
X150838862Y-88360500D02*
X150838862Y-88660500D01*
X150838862Y-88360500D02*
X151038862Y-88360500D01*
X150838862Y-88660500D02*
X151038862Y-88660500D01*
X151038862Y-87560500D02*
X151038862Y-88360500D01*
X151038862Y-88360500D02*
X151038862Y-88660500D01*
X151038862Y-88660500D02*
X151038862Y-89460500D01*
X151038862Y-89460500D02*
X149138862Y-89460500D01*
X150588862Y-88510500D02*
G75*
G02*
X149588862Y-88510500I-500000J0D01*
G01*
X149588862Y-88510500D02*
G75*
G02*
X150588862Y-88510500I500000J0D01*
G01*
%TO.C,ICled42*%
X136589862Y-54930200D02*
X138489862Y-54930200D01*
X136589862Y-56830200D02*
X136589862Y-54930200D01*
X138289862Y-55730200D02*
X138289862Y-56030200D01*
X138289862Y-55730200D02*
X138489862Y-55730200D01*
X138289862Y-56030200D02*
X138489862Y-56030200D01*
X138489862Y-54930200D02*
X138489862Y-55730200D01*
X138489862Y-55730200D02*
X138489862Y-56030200D01*
X138489862Y-56030200D02*
X138489862Y-56830200D01*
X138489862Y-56830200D02*
X136589862Y-56830200D01*
X138039862Y-55880200D02*
G75*
G02*
X137039862Y-55880200I-500000J0D01*
G01*
X137039862Y-55880200D02*
G75*
G02*
X138039862Y-55880200I500000J0D01*
G01*
%TO.C,ICled101*%
X154158362Y-67479400D02*
X156058362Y-67479400D01*
X154158362Y-69379400D02*
X154158362Y-67479400D01*
X155858362Y-68279400D02*
X155858362Y-68579400D01*
X155858362Y-68279400D02*
X156058362Y-68279400D01*
X155858362Y-68579400D02*
X156058362Y-68579400D01*
X156058362Y-67479400D02*
X156058362Y-68279400D01*
X156058362Y-68279400D02*
X156058362Y-68579400D01*
X156058362Y-68579400D02*
X156058362Y-69379400D01*
X156058362Y-69379400D02*
X154158362Y-69379400D01*
X155608362Y-68429400D02*
G75*
G02*
X154608362Y-68429400I-500000J0D01*
G01*
X154608362Y-68429400D02*
G75*
G02*
X155608362Y-68429400I500000J0D01*
G01*
%TO.C,ICled27*%
X156668054Y-47400000D02*
X158568054Y-47400000D01*
X156668054Y-49300000D02*
X156668054Y-47400000D01*
X158368054Y-48200000D02*
X158368054Y-48500000D01*
X158368054Y-48200000D02*
X158568054Y-48200000D01*
X158368054Y-48500000D02*
X158568054Y-48500000D01*
X158568054Y-47400000D02*
X158568054Y-48200000D01*
X158568054Y-48200000D02*
X158568054Y-48500000D01*
X158568054Y-48500000D02*
X158568054Y-49300000D01*
X158568054Y-49300000D02*
X156668054Y-49300000D01*
X158118054Y-48350000D02*
G75*
G02*
X157118054Y-48350000I-500000J0D01*
G01*
X157118054Y-48350000D02*
G75*
G02*
X158118054Y-48350000I500000J0D01*
G01*
%TO.C,ICled129*%
X144119362Y-69990600D02*
X146019362Y-69990600D01*
X144119362Y-71890600D02*
X144119362Y-69990600D01*
X145819362Y-70790600D02*
X145819362Y-71090600D01*
X145819362Y-70790600D02*
X146019362Y-70790600D01*
X145819362Y-71090600D02*
X146019362Y-71090600D01*
X146019362Y-69990600D02*
X146019362Y-70790600D01*
X146019362Y-70790600D02*
X146019362Y-71090600D01*
X146019362Y-71090600D02*
X146019362Y-71890600D01*
X146019362Y-71890600D02*
X144119362Y-71890600D01*
X145569362Y-70940600D02*
G75*
G02*
X144569362Y-70940600I-500000J0D01*
G01*
X144569362Y-70940600D02*
G75*
G02*
X145569362Y-70940600I500000J0D01*
G01*
%TO.C,ICled140*%
X154158362Y-75009600D02*
X156058362Y-75009600D01*
X154158362Y-76909600D02*
X154158362Y-75009600D01*
X155858362Y-75809600D02*
X155858362Y-76109600D01*
X155858362Y-75809600D02*
X156058362Y-75809600D01*
X155858362Y-76109600D02*
X156058362Y-76109600D01*
X156058362Y-75009600D02*
X156058362Y-75809600D01*
X156058362Y-75809600D02*
X156058362Y-76109600D01*
X156058362Y-76109600D02*
X156058362Y-76909600D01*
X156058362Y-76909600D02*
X154158362Y-76909600D01*
X155608362Y-75959600D02*
G75*
G02*
X154608362Y-75959600I-500000J0D01*
G01*
X154608362Y-75959600D02*
G75*
G02*
X155608362Y-75959600I500000J0D01*
G01*
%TO.C,ICled233*%
X166707112Y-87560500D02*
X168607112Y-87560500D01*
X166707112Y-89460500D02*
X166707112Y-87560500D01*
X168407112Y-88360500D02*
X168407112Y-88660500D01*
X168407112Y-88360500D02*
X168607112Y-88360500D01*
X168407112Y-88660500D02*
X168607112Y-88660500D01*
X168607112Y-87560500D02*
X168607112Y-88360500D01*
X168607112Y-88360500D02*
X168607112Y-88660500D01*
X168607112Y-88660500D02*
X168607112Y-89460500D01*
X168607112Y-89460500D02*
X166707112Y-89460500D01*
X168157112Y-88510500D02*
G75*
G02*
X167157112Y-88510500I-500000J0D01*
G01*
X167157112Y-88510500D02*
G75*
G02*
X168157112Y-88510500I500000J0D01*
G01*
%TO.C,ICled19*%
X151648612Y-49909500D02*
X153548612Y-49909500D01*
X151648612Y-51809500D02*
X151648612Y-49909500D01*
X153348612Y-50709500D02*
X153348612Y-51009500D01*
X153348612Y-50709500D02*
X153548612Y-50709500D01*
X153348612Y-51009500D02*
X153548612Y-51009500D01*
X153548612Y-49909500D02*
X153548612Y-50709500D01*
X153548612Y-50709500D02*
X153548612Y-51009500D01*
X153548612Y-51009500D02*
X153548612Y-51809500D01*
X153548612Y-51809500D02*
X151648612Y-51809500D01*
X153098612Y-50859500D02*
G75*
G02*
X152098612Y-50859500I-500000J0D01*
G01*
X152098612Y-50859500D02*
G75*
G02*
X153098612Y-50859500I500000J0D01*
G01*
%TO.C,ICled24*%
X154158332Y-47400000D02*
X156058332Y-47400000D01*
X154158332Y-49300000D02*
X154158332Y-47400000D01*
X155858332Y-48200000D02*
X155858332Y-48500000D01*
X155858332Y-48200000D02*
X156058332Y-48200000D01*
X155858332Y-48500000D02*
X156058332Y-48500000D01*
X156058332Y-47400000D02*
X156058332Y-48200000D01*
X156058332Y-48200000D02*
X156058332Y-48500000D01*
X156058332Y-48500000D02*
X156058332Y-49300000D01*
X156058332Y-49300000D02*
X154158332Y-49300000D01*
X155608332Y-48350000D02*
G75*
G02*
X154608332Y-48350000I-500000J0D01*
G01*
X154608332Y-48350000D02*
G75*
G02*
X155608332Y-48350000I500000J0D01*
G01*
%TO.C,ICled30*%
X159177776Y-47400000D02*
X161077776Y-47400000D01*
X159177776Y-49300000D02*
X159177776Y-47400000D01*
X160877776Y-48200000D02*
X160877776Y-48500000D01*
X160877776Y-48200000D02*
X161077776Y-48200000D01*
X160877776Y-48500000D02*
X161077776Y-48500000D01*
X161077776Y-47400000D02*
X161077776Y-48200000D01*
X161077776Y-48200000D02*
X161077776Y-48500000D01*
X161077776Y-48500000D02*
X161077776Y-49300000D01*
X161077776Y-49300000D02*
X159177776Y-49300000D01*
X160627776Y-48350000D02*
G75*
G02*
X159627776Y-48350000I-500000J0D01*
G01*
X159627776Y-48350000D02*
G75*
G02*
X160627776Y-48350000I500000J0D01*
G01*
%TO.C,ICled62*%
X154158362Y-59949200D02*
X156058362Y-59949200D01*
X154158362Y-61849200D02*
X154158362Y-59949200D01*
X155858362Y-60749200D02*
X155858362Y-61049200D01*
X155858362Y-60749200D02*
X156058362Y-60749200D01*
X155858362Y-61049200D02*
X156058362Y-61049200D01*
X156058362Y-59949200D02*
X156058362Y-60749200D01*
X156058362Y-60749200D02*
X156058362Y-61049200D01*
X156058362Y-61049200D02*
X156058362Y-61849200D01*
X156058362Y-61849200D02*
X154158362Y-61849200D01*
X155608362Y-60899200D02*
G75*
G02*
X154608362Y-60899200I-500000J0D01*
G01*
X154608362Y-60899200D02*
G75*
G02*
X155608362Y-60899200I500000J0D01*
G01*
%TO.C,ICled39*%
X166707112Y-52419000D02*
X168607112Y-52419000D01*
X166707112Y-54319000D02*
X166707112Y-52419000D01*
X168407112Y-53219000D02*
X168407112Y-53519000D01*
X168407112Y-53219000D02*
X168607112Y-53219000D01*
X168407112Y-53519000D02*
X168607112Y-53519000D01*
X168607112Y-52419000D02*
X168607112Y-53219000D01*
X168607112Y-53219000D02*
X168607112Y-53519000D01*
X168607112Y-53519000D02*
X168607112Y-54319000D01*
X168607112Y-54319000D02*
X166707112Y-54319000D01*
X168157112Y-53369000D02*
G75*
G02*
X167157112Y-53369000I-500000J0D01*
G01*
X167157112Y-53369000D02*
G75*
G02*
X168157112Y-53369000I500000J0D01*
G01*
%TO.C,ICled59*%
X151648612Y-59949200D02*
X153548612Y-59949200D01*
X151648612Y-61849200D02*
X151648612Y-59949200D01*
X153348612Y-60749200D02*
X153348612Y-61049200D01*
X153348612Y-60749200D02*
X153548612Y-60749200D01*
X153348612Y-61049200D02*
X153548612Y-61049200D01*
X153548612Y-59949200D02*
X153548612Y-60749200D01*
X153548612Y-60749200D02*
X153548612Y-61049200D01*
X153548612Y-61049200D02*
X153548612Y-61849200D01*
X153548612Y-61849200D02*
X151648612Y-61849200D01*
X153098612Y-60899200D02*
G75*
G02*
X152098612Y-60899200I-500000J0D01*
G01*
X152098612Y-60899200D02*
G75*
G02*
X153098612Y-60899200I500000J0D01*
G01*
%TO.C,ICled87*%
X141609612Y-62460400D02*
X143509612Y-62460400D01*
X141609612Y-64360400D02*
X141609612Y-62460400D01*
X143309612Y-63260400D02*
X143309612Y-63560400D01*
X143309612Y-63260400D02*
X143509612Y-63260400D01*
X143309612Y-63560400D02*
X143509612Y-63560400D01*
X143509612Y-62460400D02*
X143509612Y-63260400D01*
X143509612Y-63260400D02*
X143509612Y-63560400D01*
X143509612Y-63560400D02*
X143509612Y-64360400D01*
X143509612Y-64360400D02*
X141609612Y-64360400D01*
X143059612Y-63410400D02*
G75*
G02*
X142059612Y-63410400I-500000J0D01*
G01*
X142059612Y-63410400D02*
G75*
G02*
X143059612Y-63410400I500000J0D01*
G01*
D12*
%TO.C,C9*%
X134715000Y-77211252D02*
X134715000Y-76688748D01*
X136185000Y-77211252D02*
X136185000Y-76688748D01*
D10*
%TO.C,ICled35*%
X164197362Y-52419000D02*
X166097362Y-52419000D01*
X164197362Y-54319000D02*
X164197362Y-52419000D01*
X165897362Y-53219000D02*
X165897362Y-53519000D01*
X165897362Y-53219000D02*
X166097362Y-53219000D01*
X165897362Y-53519000D02*
X166097362Y-53519000D01*
X166097362Y-52419000D02*
X166097362Y-53219000D01*
X166097362Y-53219000D02*
X166097362Y-53519000D01*
X166097362Y-53519000D02*
X166097362Y-54319000D01*
X166097362Y-54319000D02*
X164197362Y-54319000D01*
X165647362Y-53369000D02*
G75*
G02*
X164647362Y-53369000I-500000J0D01*
G01*
X164647362Y-53369000D02*
G75*
G02*
X165647362Y-53369000I500000J0D01*
G01*
%TO.C,ICled128*%
X144119362Y-75009600D02*
X146019362Y-75009600D01*
X144119362Y-76909600D02*
X144119362Y-75009600D01*
X145819362Y-75809600D02*
X145819362Y-76109600D01*
X145819362Y-75809600D02*
X146019362Y-75809600D01*
X145819362Y-76109600D02*
X146019362Y-76109600D01*
X146019362Y-75009600D02*
X146019362Y-75809600D01*
X146019362Y-75809600D02*
X146019362Y-76109600D01*
X146019362Y-76109600D02*
X146019362Y-76909600D01*
X146019362Y-76909600D02*
X144119362Y-76909600D01*
X145569362Y-75959600D02*
G75*
G02*
X144569362Y-75959600I-500000J0D01*
G01*
X144569362Y-75959600D02*
G75*
G02*
X145569362Y-75959600I500000J0D01*
G01*
%TO.C,ICled91*%
X146629112Y-64969900D02*
X148529112Y-64969900D01*
X146629112Y-66869900D02*
X146629112Y-64969900D01*
X148329112Y-65769900D02*
X148329112Y-66069900D01*
X148329112Y-65769900D02*
X148529112Y-65769900D01*
X148329112Y-66069900D02*
X148529112Y-66069900D01*
X148529112Y-64969900D02*
X148529112Y-65769900D01*
X148529112Y-65769900D02*
X148529112Y-66069900D01*
X148529112Y-66069900D02*
X148529112Y-66869900D01*
X148529112Y-66869900D02*
X146629112Y-66869900D01*
X148079112Y-65919900D02*
G75*
G02*
X147079112Y-65919900I-500000J0D01*
G01*
X147079112Y-65919900D02*
G75*
G02*
X148079112Y-65919900I500000J0D01*
G01*
%TO.C,ICled78*%
X166707112Y-59949200D02*
X168607112Y-59949200D01*
X166707112Y-61849200D02*
X166707112Y-59949200D01*
X168407112Y-60749200D02*
X168407112Y-61049200D01*
X168407112Y-60749200D02*
X168607112Y-60749200D01*
X168407112Y-61049200D02*
X168607112Y-61049200D01*
X168607112Y-59949200D02*
X168607112Y-60749200D01*
X168607112Y-60749200D02*
X168607112Y-61049200D01*
X168607112Y-61049200D02*
X168607112Y-61849200D01*
X168607112Y-61849200D02*
X166707112Y-61849200D01*
X168157112Y-60899200D02*
G75*
G02*
X167157112Y-60899200I-500000J0D01*
G01*
X167157112Y-60899200D02*
G75*
G02*
X168157112Y-60899200I500000J0D01*
G01*
%TO.C,ICled51*%
X144119235Y-54930200D02*
X146019235Y-54930200D01*
X144119235Y-56830200D02*
X144119235Y-54930200D01*
X145819235Y-55730200D02*
X145819235Y-56030200D01*
X145819235Y-55730200D02*
X146019235Y-55730200D01*
X145819235Y-56030200D02*
X146019235Y-56030200D01*
X146019235Y-54930200D02*
X146019235Y-55730200D01*
X146019235Y-55730200D02*
X146019235Y-56030200D01*
X146019235Y-56030200D02*
X146019235Y-56830200D01*
X146019235Y-56830200D02*
X144119235Y-56830200D01*
X145569235Y-55880200D02*
G75*
G02*
X144569235Y-55880200I-500000J0D01*
G01*
X144569235Y-55880200D02*
G75*
G02*
X145569235Y-55880200I500000J0D01*
G01*
%TO.C,ICled226*%
X161687612Y-87560500D02*
X163587612Y-87560500D01*
X161687612Y-89460500D02*
X161687612Y-87560500D01*
X163387612Y-88360500D02*
X163387612Y-88660500D01*
X163387612Y-88360500D02*
X163587612Y-88360500D01*
X163387612Y-88660500D02*
X163587612Y-88660500D01*
X163587612Y-87560500D02*
X163587612Y-88360500D01*
X163587612Y-88360500D02*
X163587612Y-88660500D01*
X163587612Y-88660500D02*
X163587612Y-89460500D01*
X163587612Y-89460500D02*
X161687612Y-89460500D01*
X163137612Y-88510500D02*
G75*
G02*
X162137612Y-88510500I-500000J0D01*
G01*
X162137612Y-88510500D02*
G75*
G02*
X163137612Y-88510500I500000J0D01*
G01*
%TO.C,ICled2*%
X136590112Y-52419000D02*
X138490112Y-52419000D01*
X136590112Y-54319000D02*
X136590112Y-52419000D01*
X138290112Y-53219000D02*
X138290112Y-53519000D01*
X138290112Y-53219000D02*
X138490112Y-53219000D01*
X138290112Y-53519000D02*
X138490112Y-53519000D01*
X138490112Y-52419000D02*
X138490112Y-53219000D01*
X138490112Y-53219000D02*
X138490112Y-53519000D01*
X138490112Y-53519000D02*
X138490112Y-54319000D01*
X138490112Y-54319000D02*
X136590112Y-54319000D01*
X138040112Y-53369000D02*
G75*
G02*
X137040112Y-53369000I-500000J0D01*
G01*
X137040112Y-53369000D02*
G75*
G02*
X138040112Y-53369000I500000J0D01*
G01*
%TO.C,ICled220*%
X156668112Y-87560500D02*
X158568112Y-87560500D01*
X156668112Y-89460500D02*
X156668112Y-87560500D01*
X158368112Y-88360500D02*
X158368112Y-88660500D01*
X158368112Y-88360500D02*
X158568112Y-88360500D01*
X158368112Y-88660500D02*
X158568112Y-88660500D01*
X158568112Y-87560500D02*
X158568112Y-88360500D01*
X158568112Y-88360500D02*
X158568112Y-88660500D01*
X158568112Y-88660500D02*
X158568112Y-89460500D01*
X158568112Y-89460500D02*
X156668112Y-89460500D01*
X158118112Y-88510500D02*
G75*
G02*
X157118112Y-88510500I-500000J0D01*
G01*
X157118112Y-88510500D02*
G75*
G02*
X158118112Y-88510500I500000J0D01*
G01*
%TO.C,ICled116*%
X166707112Y-64969900D02*
X168607112Y-64969900D01*
X166707112Y-66869900D02*
X166707112Y-64969900D01*
X168407112Y-65769900D02*
X168407112Y-66069900D01*
X168407112Y-65769900D02*
X168607112Y-65769900D01*
X168407112Y-66069900D02*
X168607112Y-66069900D01*
X168607112Y-64969900D02*
X168607112Y-65769900D01*
X168607112Y-65769900D02*
X168607112Y-66069900D01*
X168607112Y-66069900D02*
X168607112Y-66869900D01*
X168607112Y-66869900D02*
X166707112Y-66869900D01*
X168157112Y-65919900D02*
G75*
G02*
X167157112Y-65919900I-500000J0D01*
G01*
X167157112Y-65919900D02*
G75*
G02*
X168157112Y-65919900I500000J0D01*
G01*
%TO.C,ICled37*%
X166706946Y-47400000D02*
X168606946Y-47400000D01*
X166706946Y-49300000D02*
X166706946Y-47400000D01*
X168406946Y-48200000D02*
X168406946Y-48500000D01*
X168406946Y-48200000D02*
X168606946Y-48200000D01*
X168406946Y-48500000D02*
X168606946Y-48500000D01*
X168606946Y-47400000D02*
X168606946Y-48200000D01*
X168606946Y-48200000D02*
X168606946Y-48500000D01*
X168606946Y-48500000D02*
X168606946Y-49300000D01*
X168606946Y-49300000D02*
X166706946Y-49300000D01*
X168156946Y-48350000D02*
G75*
G02*
X167156946Y-48350000I-500000J0D01*
G01*
X167156946Y-48350000D02*
G75*
G02*
X168156946Y-48350000I500000J0D01*
G01*
%TO.C,ICled145*%
X159177862Y-72500100D02*
X161077862Y-72500100D01*
X159177862Y-74400100D02*
X159177862Y-72500100D01*
X160877862Y-73300100D02*
X160877862Y-73600100D01*
X160877862Y-73300100D02*
X161077862Y-73300100D01*
X160877862Y-73600100D02*
X161077862Y-73600100D01*
X161077862Y-72500100D02*
X161077862Y-73300100D01*
X161077862Y-73300100D02*
X161077862Y-73600100D01*
X161077862Y-73600100D02*
X161077862Y-74400100D01*
X161077862Y-74400100D02*
X159177862Y-74400100D01*
X160627862Y-73450100D02*
G75*
G02*
X159627862Y-73450100I-500000J0D01*
G01*
X159627862Y-73450100D02*
G75*
G02*
X160627862Y-73450100I500000J0D01*
G01*
%TO.C,ICled112*%
X164197362Y-64969900D02*
X166097362Y-64969900D01*
X164197362Y-66869900D02*
X164197362Y-64969900D01*
X165897362Y-65769900D02*
X165897362Y-66069900D01*
X165897362Y-65769900D02*
X166097362Y-65769900D01*
X165897362Y-66069900D02*
X166097362Y-66069900D01*
X166097362Y-64969900D02*
X166097362Y-65769900D01*
X166097362Y-65769900D02*
X166097362Y-66069900D01*
X166097362Y-66069900D02*
X166097362Y-66869900D01*
X166097362Y-66869900D02*
X164197362Y-66869900D01*
X165647362Y-65919900D02*
G75*
G02*
X164647362Y-65919900I-500000J0D01*
G01*
X164647362Y-65919900D02*
G75*
G02*
X165647362Y-65919900I500000J0D01*
G01*
%TO.C,ICled223*%
X159177862Y-87560500D02*
X161077862Y-87560500D01*
X159177862Y-89460500D02*
X159177862Y-87560500D01*
X160877862Y-88360500D02*
X160877862Y-88660500D01*
X160877862Y-88360500D02*
X161077862Y-88360500D01*
X160877862Y-88660500D02*
X161077862Y-88660500D01*
X161077862Y-87560500D02*
X161077862Y-88360500D01*
X161077862Y-88360500D02*
X161077862Y-88660500D01*
X161077862Y-88660500D02*
X161077862Y-89460500D01*
X161077862Y-89460500D02*
X159177862Y-89460500D01*
X160627862Y-88510500D02*
G75*
G02*
X159627862Y-88510500I-500000J0D01*
G01*
X159627862Y-88510500D02*
G75*
G02*
X160627862Y-88510500I500000J0D01*
G01*
%TO.C,ICled137*%
X151648612Y-75009600D02*
X153548612Y-75009600D01*
X151648612Y-76909600D02*
X151648612Y-75009600D01*
X153348612Y-75809600D02*
X153348612Y-76109600D01*
X153348612Y-75809600D02*
X153548612Y-75809600D01*
X153348612Y-76109600D02*
X153548612Y-76109600D01*
X153548612Y-75009600D02*
X153548612Y-75809600D01*
X153548612Y-75809600D02*
X153548612Y-76109600D01*
X153548612Y-76109600D02*
X153548612Y-76909600D01*
X153548612Y-76909600D02*
X151648612Y-76909600D01*
X153098612Y-75959600D02*
G75*
G02*
X152098612Y-75959600I-500000J0D01*
G01*
X152098612Y-75959600D02*
G75*
G02*
X153098612Y-75959600I500000J0D01*
G01*
%TO.C,ICled94*%
X149138862Y-64969900D02*
X151038862Y-64969900D01*
X149138862Y-66869900D02*
X149138862Y-64969900D01*
X150838862Y-65769900D02*
X150838862Y-66069900D01*
X150838862Y-65769900D02*
X151038862Y-65769900D01*
X150838862Y-66069900D02*
X151038862Y-66069900D01*
X151038862Y-64969900D02*
X151038862Y-65769900D01*
X151038862Y-65769900D02*
X151038862Y-66069900D01*
X151038862Y-66069900D02*
X151038862Y-66869900D01*
X151038862Y-66869900D02*
X149138862Y-66869900D01*
X150588862Y-65919900D02*
G75*
G02*
X149588862Y-65919900I-500000J0D01*
G01*
X149588862Y-65919900D02*
G75*
G02*
X150588862Y-65919900I500000J0D01*
G01*
%TO.C,ICled119*%
X136590112Y-75009600D02*
X138490112Y-75009600D01*
X136590112Y-76909600D02*
X136590112Y-75009600D01*
X138290112Y-75809600D02*
X138290112Y-76109600D01*
X138290112Y-75809600D02*
X138490112Y-75809600D01*
X138290112Y-76109600D02*
X138490112Y-76109600D01*
X138490112Y-75009600D02*
X138490112Y-75809600D01*
X138490112Y-75809600D02*
X138490112Y-76109600D01*
X138490112Y-76109600D02*
X138490112Y-76909600D01*
X138490112Y-76909600D02*
X136590112Y-76909600D01*
X138040112Y-75959600D02*
G75*
G02*
X137040112Y-75959600I-500000J0D01*
G01*
X137040112Y-75959600D02*
G75*
G02*
X138040112Y-75959600I500000J0D01*
G01*
%TO.C,ICled151*%
X164197362Y-72500100D02*
X166097362Y-72500100D01*
X164197362Y-74400100D02*
X164197362Y-72500100D01*
X165897362Y-73300100D02*
X165897362Y-73600100D01*
X165897362Y-73300100D02*
X166097362Y-73300100D01*
X165897362Y-73600100D02*
X166097362Y-73600100D01*
X166097362Y-72500100D02*
X166097362Y-73300100D01*
X166097362Y-73300100D02*
X166097362Y-73600100D01*
X166097362Y-73600100D02*
X166097362Y-74400100D01*
X166097362Y-74400100D02*
X164197362Y-74400100D01*
X165647362Y-73450100D02*
G75*
G02*
X164647362Y-73450100I-500000J0D01*
G01*
X164647362Y-73450100D02*
G75*
G02*
X165647362Y-73450100I500000J0D01*
G01*
%TO.C,ICled188*%
X161687612Y-82539800D02*
X163587612Y-82539800D01*
X161687612Y-84439800D02*
X161687612Y-82539800D01*
X163387612Y-83339800D02*
X163387612Y-83639800D01*
X163387612Y-83339800D02*
X163587612Y-83339800D01*
X163387612Y-83639800D02*
X163587612Y-83639800D01*
X163587612Y-82539800D02*
X163587612Y-83339800D01*
X163587612Y-83339800D02*
X163587612Y-83639800D01*
X163587612Y-83639800D02*
X163587612Y-84439800D01*
X163587612Y-84439800D02*
X161687612Y-84439800D01*
X163137612Y-83489800D02*
G75*
G02*
X162137612Y-83489800I-500000J0D01*
G01*
X162137612Y-83489800D02*
G75*
G02*
X163137612Y-83489800I500000J0D01*
G01*
%TO.C,ICled4*%
X139099897Y-49909500D02*
X140999897Y-49909500D01*
X139099897Y-51809500D02*
X139099897Y-49909500D01*
X140799897Y-50709500D02*
X140799897Y-51009500D01*
X140799897Y-50709500D02*
X140999897Y-50709500D01*
X140799897Y-51009500D02*
X140999897Y-51009500D01*
X140999897Y-49909500D02*
X140999897Y-50709500D01*
X140999897Y-50709500D02*
X140999897Y-51009500D01*
X140999897Y-51009500D02*
X140999897Y-51809500D01*
X140999897Y-51809500D02*
X139099897Y-51809500D01*
X140549897Y-50859500D02*
G75*
G02*
X139549897Y-50859500I-500000J0D01*
G01*
X139549897Y-50859500D02*
G75*
G02*
X140549897Y-50859500I500000J0D01*
G01*
%TO.C,ICled115*%
X166707112Y-62460400D02*
X168607112Y-62460400D01*
X166707112Y-64360400D02*
X166707112Y-62460400D01*
X168407112Y-63260400D02*
X168407112Y-63560400D01*
X168407112Y-63260400D02*
X168607112Y-63260400D01*
X168407112Y-63560400D02*
X168607112Y-63560400D01*
X168607112Y-62460400D02*
X168607112Y-63260400D01*
X168607112Y-63260400D02*
X168607112Y-63560400D01*
X168607112Y-63560400D02*
X168607112Y-64360400D01*
X168607112Y-64360400D02*
X166707112Y-64360400D01*
X168157112Y-63410400D02*
G75*
G02*
X167157112Y-63410400I-500000J0D01*
G01*
X167157112Y-63410400D02*
G75*
G02*
X168157112Y-63410400I500000J0D01*
G01*
%TO.C,ICled133*%
X149138862Y-72500100D02*
X151038862Y-72500100D01*
X149138862Y-74400100D02*
X149138862Y-72500100D01*
X150838862Y-73300100D02*
X150838862Y-73600100D01*
X150838862Y-73300100D02*
X151038862Y-73300100D01*
X150838862Y-73600100D02*
X151038862Y-73600100D01*
X151038862Y-72500100D02*
X151038862Y-73300100D01*
X151038862Y-73300100D02*
X151038862Y-73600100D01*
X151038862Y-73600100D02*
X151038862Y-74400100D01*
X151038862Y-74400100D02*
X149138862Y-74400100D01*
X150588862Y-73450100D02*
G75*
G02*
X149588862Y-73450100I-500000J0D01*
G01*
X149588862Y-73450100D02*
G75*
G02*
X150588862Y-73450100I500000J0D01*
G01*
%TO.C,ICled160*%
X139099862Y-80030300D02*
X140999862Y-80030300D01*
X139099862Y-81930300D02*
X139099862Y-80030300D01*
X140799862Y-80830300D02*
X140799862Y-81130300D01*
X140799862Y-80830300D02*
X140999862Y-80830300D01*
X140799862Y-81130300D02*
X140999862Y-81130300D01*
X140999862Y-80030300D02*
X140999862Y-80830300D01*
X140999862Y-80830300D02*
X140999862Y-81130300D01*
X140999862Y-81130300D02*
X140999862Y-81930300D01*
X140999862Y-81930300D02*
X139099862Y-81930300D01*
X140549862Y-80980300D02*
G75*
G02*
X139549862Y-80980300I-500000J0D01*
G01*
X139549862Y-80980300D02*
G75*
G02*
X140549862Y-80980300I500000J0D01*
G01*
%TO.C,ICled139*%
X154158362Y-72500100D02*
X156058362Y-72500100D01*
X154158362Y-74400100D02*
X154158362Y-72500100D01*
X155858362Y-73300100D02*
X155858362Y-73600100D01*
X155858362Y-73300100D02*
X156058362Y-73300100D01*
X155858362Y-73600100D02*
X156058362Y-73600100D01*
X156058362Y-72500100D02*
X156058362Y-73300100D01*
X156058362Y-73300100D02*
X156058362Y-73600100D01*
X156058362Y-73600100D02*
X156058362Y-74400100D01*
X156058362Y-74400100D02*
X154158362Y-74400100D01*
X155608362Y-73450100D02*
G75*
G02*
X154608362Y-73450100I-500000J0D01*
G01*
X154608362Y-73450100D02*
G75*
G02*
X155608362Y-73450100I500000J0D01*
G01*
%TO.C,ICled209*%
X146629112Y-90070000D02*
X148529112Y-90070000D01*
X146629112Y-91970000D02*
X146629112Y-90070000D01*
X148329112Y-90870000D02*
X148329112Y-91170000D01*
X148329112Y-90870000D02*
X148529112Y-90870000D01*
X148329112Y-91170000D02*
X148529112Y-91170000D01*
X148529112Y-90070000D02*
X148529112Y-90870000D01*
X148529112Y-90870000D02*
X148529112Y-91170000D01*
X148529112Y-91170000D02*
X148529112Y-91970000D01*
X148529112Y-91970000D02*
X146629112Y-91970000D01*
X148079112Y-91020000D02*
G75*
G02*
X147079112Y-91020000I-500000J0D01*
G01*
X147079112Y-91020000D02*
G75*
G02*
X148079112Y-91020000I500000J0D01*
G01*
%TO.C,ICled189*%
X161687612Y-77520800D02*
X163587612Y-77520800D01*
X161687612Y-79420800D02*
X161687612Y-77520800D01*
X163387612Y-78320800D02*
X163387612Y-78620800D01*
X163387612Y-78320800D02*
X163587612Y-78320800D01*
X163387612Y-78620800D02*
X163587612Y-78620800D01*
X163587612Y-77520800D02*
X163587612Y-78320800D01*
X163587612Y-78320800D02*
X163587612Y-78620800D01*
X163587612Y-78620800D02*
X163587612Y-79420800D01*
X163587612Y-79420800D02*
X161687612Y-79420800D01*
X163137612Y-78470800D02*
G75*
G02*
X162137612Y-78470800I-500000J0D01*
G01*
X162137612Y-78470800D02*
G75*
G02*
X163137612Y-78470800I500000J0D01*
G01*
%TO.C,ICled105*%
X156668112Y-62460400D02*
X158568112Y-62460400D01*
X156668112Y-64360400D02*
X156668112Y-62460400D01*
X158368112Y-63260400D02*
X158368112Y-63560400D01*
X158368112Y-63260400D02*
X158568112Y-63260400D01*
X158368112Y-63560400D02*
X158568112Y-63560400D01*
X158568112Y-62460400D02*
X158568112Y-63260400D01*
X158568112Y-63260400D02*
X158568112Y-63560400D01*
X158568112Y-63560400D02*
X158568112Y-64360400D01*
X158568112Y-64360400D02*
X156668112Y-64360400D01*
X158118112Y-63410400D02*
G75*
G02*
X157118112Y-63410400I-500000J0D01*
G01*
X157118112Y-63410400D02*
G75*
G02*
X158118112Y-63410400I500000J0D01*
G01*
%TO.C,ICled33*%
X161687498Y-47400000D02*
X163587498Y-47400000D01*
X161687498Y-49300000D02*
X161687498Y-47400000D01*
X163387498Y-48200000D02*
X163387498Y-48500000D01*
X163387498Y-48200000D02*
X163587498Y-48200000D01*
X163387498Y-48500000D02*
X163587498Y-48500000D01*
X163587498Y-47400000D02*
X163587498Y-48200000D01*
X163587498Y-48200000D02*
X163587498Y-48500000D01*
X163587498Y-48500000D02*
X163587498Y-49300000D01*
X163587498Y-49300000D02*
X161687498Y-49300000D01*
X163137498Y-48350000D02*
G75*
G02*
X162137498Y-48350000I-500000J0D01*
G01*
X162137498Y-48350000D02*
G75*
G02*
X163137498Y-48350000I500000J0D01*
G01*
%TO.C,ICled80*%
X136590112Y-67479400D02*
X138490112Y-67479400D01*
X136590112Y-69379400D02*
X136590112Y-67479400D01*
X138290112Y-68279400D02*
X138290112Y-68579400D01*
X138290112Y-68279400D02*
X138490112Y-68279400D01*
X138290112Y-68579400D02*
X138490112Y-68579400D01*
X138490112Y-67479400D02*
X138490112Y-68279400D01*
X138490112Y-68279400D02*
X138490112Y-68579400D01*
X138490112Y-68579400D02*
X138490112Y-69379400D01*
X138490112Y-69379400D02*
X136590112Y-69379400D01*
X138040112Y-68429400D02*
G75*
G02*
X137040112Y-68429400I-500000J0D01*
G01*
X137040112Y-68429400D02*
G75*
G02*
X138040112Y-68429400I500000J0D01*
G01*
%TO.C,ICled154*%
X166707112Y-69990600D02*
X168607112Y-69990600D01*
X166707112Y-71890600D02*
X166707112Y-69990600D01*
X168407112Y-70790600D02*
X168407112Y-71090600D01*
X168407112Y-70790600D02*
X168607112Y-70790600D01*
X168407112Y-71090600D02*
X168607112Y-71090600D01*
X168607112Y-69990600D02*
X168607112Y-70790600D01*
X168607112Y-70790600D02*
X168607112Y-71090600D01*
X168607112Y-71090600D02*
X168607112Y-71890600D01*
X168607112Y-71890600D02*
X166707112Y-71890600D01*
X168157112Y-70940600D02*
G75*
G02*
X167157112Y-70940600I-500000J0D01*
G01*
X167157112Y-70940600D02*
G75*
G02*
X168157112Y-70940600I500000J0D01*
G01*
%TO.C,ICled34*%
X164197327Y-49909500D02*
X166097327Y-49909500D01*
X164197327Y-51809500D02*
X164197327Y-49909500D01*
X165897327Y-50709500D02*
X165897327Y-51009500D01*
X165897327Y-50709500D02*
X166097327Y-50709500D01*
X165897327Y-51009500D02*
X166097327Y-51009500D01*
X166097327Y-49909500D02*
X166097327Y-50709500D01*
X166097327Y-50709500D02*
X166097327Y-51009500D01*
X166097327Y-51009500D02*
X166097327Y-51809500D01*
X166097327Y-51809500D02*
X164197327Y-51809500D01*
X165647327Y-50859500D02*
G75*
G02*
X164647327Y-50859500I-500000J0D01*
G01*
X164647327Y-50859500D02*
G75*
G02*
X165647327Y-50859500I500000J0D01*
G01*
%TO.C,ICled143*%
X156668112Y-75009600D02*
X158568112Y-75009600D01*
X156668112Y-76909600D02*
X156668112Y-75009600D01*
X158368112Y-75809600D02*
X158368112Y-76109600D01*
X158368112Y-75809600D02*
X158568112Y-75809600D01*
X158368112Y-76109600D02*
X158568112Y-76109600D01*
X158568112Y-75009600D02*
X158568112Y-75809600D01*
X158568112Y-75809600D02*
X158568112Y-76109600D01*
X158568112Y-76109600D02*
X158568112Y-76909600D01*
X158568112Y-76909600D02*
X156668112Y-76909600D01*
X158118112Y-75959600D02*
G75*
G02*
X157118112Y-75959600I-500000J0D01*
G01*
X157118112Y-75959600D02*
G75*
G02*
X158118112Y-75959600I500000J0D01*
G01*
%TO.C,ICled168*%
X144119362Y-77520800D02*
X146019362Y-77520800D01*
X144119362Y-79420800D02*
X144119362Y-77520800D01*
X145819362Y-78320800D02*
X145819362Y-78620800D01*
X145819362Y-78320800D02*
X146019362Y-78320800D01*
X145819362Y-78620800D02*
X146019362Y-78620800D01*
X146019362Y-77520800D02*
X146019362Y-78320800D01*
X146019362Y-78320800D02*
X146019362Y-78620800D01*
X146019362Y-78620800D02*
X146019362Y-79420800D01*
X146019362Y-79420800D02*
X144119362Y-79420800D01*
X145569362Y-78470800D02*
G75*
G02*
X144569362Y-78470800I-500000J0D01*
G01*
X144569362Y-78470800D02*
G75*
G02*
X145569362Y-78470800I500000J0D01*
G01*
D12*
%TO.C,C2*%
X165881252Y-45465000D02*
X165358748Y-45465000D01*
X165881252Y-46935000D02*
X165358748Y-46935000D01*
D10*
%TO.C,ICled5*%
X139099862Y-52419000D02*
X140999862Y-52419000D01*
X139099862Y-54319000D02*
X139099862Y-52419000D01*
X140799862Y-53219000D02*
X140799862Y-53519000D01*
X140799862Y-53219000D02*
X140999862Y-53219000D01*
X140799862Y-53519000D02*
X140999862Y-53519000D01*
X140999862Y-52419000D02*
X140999862Y-53219000D01*
X140999862Y-53219000D02*
X140999862Y-53519000D01*
X140999862Y-53519000D02*
X140999862Y-54319000D01*
X140999862Y-54319000D02*
X139099862Y-54319000D01*
X140549862Y-53369000D02*
G75*
G02*
X139549862Y-53369000I-500000J0D01*
G01*
X139549862Y-53369000D02*
G75*
G02*
X140549862Y-53369000I500000J0D01*
G01*
%TO.C,ICled205*%
X144119362Y-87560500D02*
X146019362Y-87560500D01*
X144119362Y-89460500D02*
X144119362Y-87560500D01*
X145819362Y-88360500D02*
X145819362Y-88660500D01*
X145819362Y-88360500D02*
X146019362Y-88360500D01*
X145819362Y-88660500D02*
X146019362Y-88660500D01*
X146019362Y-87560500D02*
X146019362Y-88360500D01*
X146019362Y-88360500D02*
X146019362Y-88660500D01*
X146019362Y-88660500D02*
X146019362Y-89460500D01*
X146019362Y-89460500D02*
X144119362Y-89460500D01*
X145569362Y-88510500D02*
G75*
G02*
X144569362Y-88510500I-500000J0D01*
G01*
X144569362Y-88510500D02*
G75*
G02*
X145569362Y-88510500I500000J0D01*
G01*
%TO.C,ICled29*%
X159177862Y-52419000D02*
X161077862Y-52419000D01*
X159177862Y-54319000D02*
X159177862Y-52419000D01*
X160877862Y-53219000D02*
X160877862Y-53519000D01*
X160877862Y-53219000D02*
X161077862Y-53219000D01*
X160877862Y-53519000D02*
X161077862Y-53519000D01*
X161077862Y-52419000D02*
X161077862Y-53219000D01*
X161077862Y-53219000D02*
X161077862Y-53519000D01*
X161077862Y-53519000D02*
X161077862Y-54319000D01*
X161077862Y-54319000D02*
X159177862Y-54319000D01*
X160627862Y-53369000D02*
G75*
G02*
X159627862Y-53369000I-500000J0D01*
G01*
X159627862Y-53369000D02*
G75*
G02*
X160627862Y-53369000I500000J0D01*
G01*
%TO.C,ICled100*%
X154158362Y-64969900D02*
X156058362Y-64969900D01*
X154158362Y-66869900D02*
X154158362Y-64969900D01*
X155858362Y-65769900D02*
X155858362Y-66069900D01*
X155858362Y-65769900D02*
X156058362Y-65769900D01*
X155858362Y-66069900D02*
X156058362Y-66069900D01*
X156058362Y-64969900D02*
X156058362Y-65769900D01*
X156058362Y-65769900D02*
X156058362Y-66069900D01*
X156058362Y-66069900D02*
X156058362Y-66869900D01*
X156058362Y-66869900D02*
X154158362Y-66869900D01*
X155608362Y-65919900D02*
G75*
G02*
X154608362Y-65919900I-500000J0D01*
G01*
X154608362Y-65919900D02*
G75*
G02*
X155608362Y-65919900I500000J0D01*
G01*
%TO.C,ICled222*%
X156668112Y-85051000D02*
X158568112Y-85051000D01*
X156668112Y-86951000D02*
X156668112Y-85051000D01*
X158368112Y-85851000D02*
X158368112Y-86151000D01*
X158368112Y-85851000D02*
X158568112Y-85851000D01*
X158368112Y-86151000D02*
X158568112Y-86151000D01*
X158568112Y-85051000D02*
X158568112Y-85851000D01*
X158568112Y-85851000D02*
X158568112Y-86151000D01*
X158568112Y-86151000D02*
X158568112Y-86951000D01*
X158568112Y-86951000D02*
X156668112Y-86951000D01*
X158118112Y-86001000D02*
G75*
G02*
X157118112Y-86001000I-500000J0D01*
G01*
X157118112Y-86001000D02*
G75*
G02*
X158118112Y-86001000I500000J0D01*
G01*
%TO.C,ICled163*%
X141609612Y-80030300D02*
X143509612Y-80030300D01*
X141609612Y-81930300D02*
X141609612Y-80030300D01*
X143309612Y-80830300D02*
X143309612Y-81130300D01*
X143309612Y-80830300D02*
X143509612Y-80830300D01*
X143309612Y-81130300D02*
X143509612Y-81130300D01*
X143509612Y-80030300D02*
X143509612Y-80830300D01*
X143509612Y-80830300D02*
X143509612Y-81130300D01*
X143509612Y-81130300D02*
X143509612Y-81930300D01*
X143509612Y-81930300D02*
X141609612Y-81930300D01*
X143059612Y-80980300D02*
G75*
G02*
X142059612Y-80980300I-500000J0D01*
G01*
X142059612Y-80980300D02*
G75*
G02*
X143059612Y-80980300I500000J0D01*
G01*
%TO.C,ICled229*%
X164197362Y-87560500D02*
X166097362Y-87560500D01*
X164197362Y-89460500D02*
X164197362Y-87560500D01*
X165897362Y-88360500D02*
X165897362Y-88660500D01*
X165897362Y-88360500D02*
X166097362Y-88360500D01*
X165897362Y-88660500D02*
X166097362Y-88660500D01*
X166097362Y-87560500D02*
X166097362Y-88360500D01*
X166097362Y-88360500D02*
X166097362Y-88660500D01*
X166097362Y-88660500D02*
X166097362Y-89460500D01*
X166097362Y-89460500D02*
X164197362Y-89460500D01*
X165647362Y-88510500D02*
G75*
G02*
X164647362Y-88510500I-500000J0D01*
G01*
X164647362Y-88510500D02*
G75*
G02*
X165647362Y-88510500I500000J0D01*
G01*
%TO.C,ICled81*%
X136590112Y-62460400D02*
X138490112Y-62460400D01*
X136590112Y-64360400D02*
X136590112Y-62460400D01*
X138290112Y-63260400D02*
X138290112Y-63560400D01*
X138290112Y-63260400D02*
X138490112Y-63260400D01*
X138290112Y-63560400D02*
X138490112Y-63560400D01*
X138490112Y-62460400D02*
X138490112Y-63260400D01*
X138490112Y-63260400D02*
X138490112Y-63560400D01*
X138490112Y-63560400D02*
X138490112Y-64360400D01*
X138490112Y-64360400D02*
X136590112Y-64360400D01*
X138040112Y-63410400D02*
G75*
G02*
X137040112Y-63410400I-500000J0D01*
G01*
X137040112Y-63410400D02*
G75*
G02*
X138040112Y-63410400I500000J0D01*
G01*
%TO.C,ICled165*%
X141609612Y-77520800D02*
X143509612Y-77520800D01*
X141609612Y-79420800D02*
X141609612Y-77520800D01*
X143309612Y-78320800D02*
X143309612Y-78620800D01*
X143309612Y-78320800D02*
X143509612Y-78320800D01*
X143309612Y-78620800D02*
X143509612Y-78620800D01*
X143509612Y-77520800D02*
X143509612Y-78320800D01*
X143509612Y-78320800D02*
X143509612Y-78620800D01*
X143509612Y-78620800D02*
X143509612Y-79420800D01*
X143509612Y-79420800D02*
X141609612Y-79420800D01*
X143059612Y-78470800D02*
G75*
G02*
X142059612Y-78470800I-500000J0D01*
G01*
X142059612Y-78470800D02*
G75*
G02*
X143059612Y-78470800I500000J0D01*
G01*
%TO.C,ICled130*%
X146629112Y-72500100D02*
X148529112Y-72500100D01*
X146629112Y-74400100D02*
X146629112Y-72500100D01*
X148329112Y-73300100D02*
X148329112Y-73600100D01*
X148329112Y-73300100D02*
X148529112Y-73300100D01*
X148329112Y-73600100D02*
X148529112Y-73600100D01*
X148529112Y-72500100D02*
X148529112Y-73300100D01*
X148529112Y-73300100D02*
X148529112Y-73600100D01*
X148529112Y-73600100D02*
X148529112Y-74400100D01*
X148529112Y-74400100D02*
X146629112Y-74400100D01*
X148079112Y-73450100D02*
G75*
G02*
X147079112Y-73450100I-500000J0D01*
G01*
X147079112Y-73450100D02*
G75*
G02*
X148079112Y-73450100I500000J0D01*
G01*
%TO.C,ICled53*%
X146629112Y-59949200D02*
X148529112Y-59949200D01*
X146629112Y-61849200D02*
X146629112Y-59949200D01*
X148329112Y-60749200D02*
X148329112Y-61049200D01*
X148329112Y-60749200D02*
X148529112Y-60749200D01*
X148329112Y-61049200D02*
X148529112Y-61049200D01*
X148529112Y-59949200D02*
X148529112Y-60749200D01*
X148529112Y-60749200D02*
X148529112Y-61049200D01*
X148529112Y-61049200D02*
X148529112Y-61849200D01*
X148529112Y-61849200D02*
X146629112Y-61849200D01*
X148079112Y-60899200D02*
G75*
G02*
X147079112Y-60899200I-500000J0D01*
G01*
X147079112Y-60899200D02*
G75*
G02*
X148079112Y-60899200I500000J0D01*
G01*
%TO.C,ICled121*%
X139099862Y-72500100D02*
X140999862Y-72500100D01*
X139099862Y-74400100D02*
X139099862Y-72500100D01*
X140799862Y-73300100D02*
X140799862Y-73600100D01*
X140799862Y-73300100D02*
X140999862Y-73300100D01*
X140799862Y-73600100D02*
X140999862Y-73600100D01*
X140999862Y-72500100D02*
X140999862Y-73300100D01*
X140999862Y-73300100D02*
X140999862Y-73600100D01*
X140999862Y-73600100D02*
X140999862Y-74400100D01*
X140999862Y-74400100D02*
X139099862Y-74400100D01*
X140549862Y-73450100D02*
G75*
G02*
X139549862Y-73450100I-500000J0D01*
G01*
X139549862Y-73450100D02*
G75*
G02*
X140549862Y-73450100I500000J0D01*
G01*
%TO.C,ICled38*%
X166707071Y-49909500D02*
X168607071Y-49909500D01*
X166707071Y-51809500D02*
X166707071Y-49909500D01*
X168407071Y-50709500D02*
X168407071Y-51009500D01*
X168407071Y-50709500D02*
X168607071Y-50709500D01*
X168407071Y-51009500D02*
X168607071Y-51009500D01*
X168607071Y-49909500D02*
X168607071Y-50709500D01*
X168607071Y-50709500D02*
X168607071Y-51009500D01*
X168607071Y-51009500D02*
X168607071Y-51809500D01*
X168607071Y-51809500D02*
X166707071Y-51809500D01*
X168157071Y-50859500D02*
G75*
G02*
X167157071Y-50859500I-500000J0D01*
G01*
X167157071Y-50859500D02*
G75*
G02*
X168157071Y-50859500I500000J0D01*
G01*
%TO.C,ICled144*%
X156668112Y-69990600D02*
X158568112Y-69990600D01*
X156668112Y-71890600D02*
X156668112Y-69990600D01*
X158368112Y-70790600D02*
X158368112Y-71090600D01*
X158368112Y-70790600D02*
X158568112Y-70790600D01*
X158368112Y-71090600D02*
X158568112Y-71090600D01*
X158568112Y-69990600D02*
X158568112Y-70790600D01*
X158568112Y-70790600D02*
X158568112Y-71090600D01*
X158568112Y-71090600D02*
X158568112Y-71890600D01*
X158568112Y-71890600D02*
X156668112Y-71890600D01*
X158118112Y-70940600D02*
G75*
G02*
X157118112Y-70940600I-500000J0D01*
G01*
X157118112Y-70940600D02*
G75*
G02*
X158118112Y-70940600I500000J0D01*
G01*
%TO.C,ICled41*%
X136590112Y-59949200D02*
X138490112Y-59949200D01*
X136590112Y-61849200D02*
X136590112Y-59949200D01*
X138290112Y-60749200D02*
X138290112Y-61049200D01*
X138290112Y-60749200D02*
X138490112Y-60749200D01*
X138290112Y-61049200D02*
X138490112Y-61049200D01*
X138490112Y-59949200D02*
X138490112Y-60749200D01*
X138490112Y-60749200D02*
X138490112Y-61049200D01*
X138490112Y-61049200D02*
X138490112Y-61849200D01*
X138490112Y-61849200D02*
X136590112Y-61849200D01*
X138040112Y-60899200D02*
G75*
G02*
X137040112Y-60899200I-500000J0D01*
G01*
X137040112Y-60899200D02*
G75*
G02*
X138040112Y-60899200I500000J0D01*
G01*
%TO.C,ICled57*%
X149138817Y-54930200D02*
X151038817Y-54930200D01*
X149138817Y-56830200D02*
X149138817Y-54930200D01*
X150838817Y-55730200D02*
X150838817Y-56030200D01*
X150838817Y-55730200D02*
X151038817Y-55730200D01*
X150838817Y-56030200D02*
X151038817Y-56030200D01*
X151038817Y-54930200D02*
X151038817Y-55730200D01*
X151038817Y-55730200D02*
X151038817Y-56030200D01*
X151038817Y-56030200D02*
X151038817Y-56830200D01*
X151038817Y-56830200D02*
X149138817Y-56830200D01*
X150588817Y-55880200D02*
G75*
G02*
X149588817Y-55880200I-500000J0D01*
G01*
X149588817Y-55880200D02*
G75*
G02*
X150588817Y-55880200I500000J0D01*
G01*
%TO.C,ICled216*%
X151648612Y-85051000D02*
X153548612Y-85051000D01*
X151648612Y-86951000D02*
X151648612Y-85051000D01*
X153348612Y-85851000D02*
X153348612Y-86151000D01*
X153348612Y-85851000D02*
X153548612Y-85851000D01*
X153348612Y-86151000D02*
X153548612Y-86151000D01*
X153548612Y-85051000D02*
X153548612Y-85851000D01*
X153548612Y-85851000D02*
X153548612Y-86151000D01*
X153548612Y-86151000D02*
X153548612Y-86951000D01*
X153548612Y-86951000D02*
X151648612Y-86951000D01*
X153098612Y-86001000D02*
G75*
G02*
X152098612Y-86001000I-500000J0D01*
G01*
X152098612Y-86001000D02*
G75*
G02*
X153098612Y-86001000I500000J0D01*
G01*
%TO.C,ICled96*%
X149138862Y-62460400D02*
X151038862Y-62460400D01*
X149138862Y-64360400D02*
X149138862Y-62460400D01*
X150838862Y-63260400D02*
X150838862Y-63560400D01*
X150838862Y-63260400D02*
X151038862Y-63260400D01*
X150838862Y-63560400D02*
X151038862Y-63560400D01*
X151038862Y-62460400D02*
X151038862Y-63260400D01*
X151038862Y-63260400D02*
X151038862Y-63560400D01*
X151038862Y-63560400D02*
X151038862Y-64360400D01*
X151038862Y-64360400D02*
X149138862Y-64360400D01*
X150588862Y-63410400D02*
G75*
G02*
X149588862Y-63410400I-500000J0D01*
G01*
X149588862Y-63410400D02*
G75*
G02*
X150588862Y-63410400I500000J0D01*
G01*
%TO.C,ICled77*%
X166707071Y-57439700D02*
X168607071Y-57439700D01*
X166707071Y-59339700D02*
X166707071Y-57439700D01*
X168407071Y-58239700D02*
X168407071Y-58539700D01*
X168407071Y-58239700D02*
X168607071Y-58239700D01*
X168407071Y-58539700D02*
X168607071Y-58539700D01*
X168607071Y-57439700D02*
X168607071Y-58239700D01*
X168607071Y-58239700D02*
X168607071Y-58539700D01*
X168607071Y-58539700D02*
X168607071Y-59339700D01*
X168607071Y-59339700D02*
X166707071Y-59339700D01*
X168157071Y-58389700D02*
G75*
G02*
X167157071Y-58389700I-500000J0D01*
G01*
X167157071Y-58389700D02*
G75*
G02*
X168157071Y-58389700I500000J0D01*
G01*
%TO.C,ICled141*%
X154158362Y-69990600D02*
X156058362Y-69990600D01*
X154158362Y-71890600D02*
X154158362Y-69990600D01*
X155858362Y-70790600D02*
X155858362Y-71090600D01*
X155858362Y-70790600D02*
X156058362Y-70790600D01*
X155858362Y-71090600D02*
X156058362Y-71090600D01*
X156058362Y-69990600D02*
X156058362Y-70790600D01*
X156058362Y-70790600D02*
X156058362Y-71090600D01*
X156058362Y-71090600D02*
X156058362Y-71890600D01*
X156058362Y-71890600D02*
X154158362Y-71890600D01*
X155608362Y-70940600D02*
G75*
G02*
X154608362Y-70940600I-500000J0D01*
G01*
X154608362Y-70940600D02*
G75*
G02*
X155608362Y-70940600I500000J0D01*
G01*
%TO.C,ICled103*%
X156668112Y-64969900D02*
X158568112Y-64969900D01*
X156668112Y-66869900D02*
X156668112Y-64969900D01*
X158368112Y-65769900D02*
X158368112Y-66069900D01*
X158368112Y-65769900D02*
X158568112Y-65769900D01*
X158368112Y-66069900D02*
X158568112Y-66069900D01*
X158568112Y-64969900D02*
X158568112Y-65769900D01*
X158568112Y-65769900D02*
X158568112Y-66069900D01*
X158568112Y-66069900D02*
X158568112Y-66869900D01*
X158568112Y-66869900D02*
X156668112Y-66869900D01*
X158118112Y-65919900D02*
G75*
G02*
X157118112Y-65919900I-500000J0D01*
G01*
X157118112Y-65919900D02*
G75*
G02*
X158118112Y-65919900I500000J0D01*
G01*
%TO.C,ICled181*%
X156668112Y-80030300D02*
X158568112Y-80030300D01*
X156668112Y-81930300D02*
X156668112Y-80030300D01*
X158368112Y-80830300D02*
X158368112Y-81130300D01*
X158368112Y-80830300D02*
X158568112Y-80830300D01*
X158368112Y-81130300D02*
X158568112Y-81130300D01*
X158568112Y-80030300D02*
X158568112Y-80830300D01*
X158568112Y-80830300D02*
X158568112Y-81130300D01*
X158568112Y-81130300D02*
X158568112Y-81930300D01*
X158568112Y-81930300D02*
X156668112Y-81930300D01*
X158118112Y-80980300D02*
G75*
G02*
X157118112Y-80980300I-500000J0D01*
G01*
X157118112Y-80980300D02*
G75*
G02*
X158118112Y-80980300I500000J0D01*
G01*
%TO.C,ICled85*%
X141609612Y-64969900D02*
X143509612Y-64969900D01*
X141609612Y-66869900D02*
X141609612Y-64969900D01*
X143309612Y-65769900D02*
X143309612Y-66069900D01*
X143309612Y-65769900D02*
X143509612Y-65769900D01*
X143309612Y-66069900D02*
X143509612Y-66069900D01*
X143509612Y-64969900D02*
X143509612Y-65769900D01*
X143509612Y-65769900D02*
X143509612Y-66069900D01*
X143509612Y-66069900D02*
X143509612Y-66869900D01*
X143509612Y-66869900D02*
X141609612Y-66869900D01*
X143059612Y-65919900D02*
G75*
G02*
X142059612Y-65919900I-500000J0D01*
G01*
X142059612Y-65919900D02*
G75*
G02*
X143059612Y-65919900I500000J0D01*
G01*
%TO.C,ICled93*%
X146629112Y-62460400D02*
X148529112Y-62460400D01*
X146629112Y-64360400D02*
X146629112Y-62460400D01*
X148329112Y-63260400D02*
X148329112Y-63560400D01*
X148329112Y-63260400D02*
X148529112Y-63260400D01*
X148329112Y-63560400D02*
X148529112Y-63560400D01*
X148529112Y-62460400D02*
X148529112Y-63260400D01*
X148529112Y-63260400D02*
X148529112Y-63560400D01*
X148529112Y-63560400D02*
X148529112Y-64360400D01*
X148529112Y-64360400D02*
X146629112Y-64360400D01*
X148079112Y-63410400D02*
G75*
G02*
X147079112Y-63410400I-500000J0D01*
G01*
X147079112Y-63410400D02*
G75*
G02*
X148079112Y-63410400I500000J0D01*
G01*
%TO.C,ICled187*%
X161687612Y-80030300D02*
X163587612Y-80030300D01*
X161687612Y-81930300D02*
X161687612Y-80030300D01*
X163387612Y-80830300D02*
X163387612Y-81130300D01*
X163387612Y-80830300D02*
X163587612Y-80830300D01*
X163387612Y-81130300D02*
X163587612Y-81130300D01*
X163587612Y-80030300D02*
X163587612Y-80830300D01*
X163587612Y-80830300D02*
X163587612Y-81130300D01*
X163587612Y-81130300D02*
X163587612Y-81930300D01*
X163587612Y-81930300D02*
X161687612Y-81930300D01*
X163137612Y-80980300D02*
G75*
G02*
X162137612Y-80980300I-500000J0D01*
G01*
X162137612Y-80980300D02*
G75*
G02*
X163137612Y-80980300I500000J0D01*
G01*
%TO.C,ICled174*%
X149138862Y-77520800D02*
X151038862Y-77520800D01*
X149138862Y-79420800D02*
X149138862Y-77520800D01*
X150838862Y-78320800D02*
X150838862Y-78620800D01*
X150838862Y-78320800D02*
X151038862Y-78320800D01*
X150838862Y-78620800D02*
X151038862Y-78620800D01*
X151038862Y-77520800D02*
X151038862Y-78320800D01*
X151038862Y-78320800D02*
X151038862Y-78620800D01*
X151038862Y-78620800D02*
X151038862Y-79420800D01*
X151038862Y-79420800D02*
X149138862Y-79420800D01*
X150588862Y-78470800D02*
G75*
G02*
X149588862Y-78470800I-500000J0D01*
G01*
X149588862Y-78470800D02*
G75*
G02*
X150588862Y-78470800I500000J0D01*
G01*
%TO.C,ICled92*%
X146629112Y-67479400D02*
X148529112Y-67479400D01*
X146629112Y-69379400D02*
X146629112Y-67479400D01*
X148329112Y-68279400D02*
X148329112Y-68579400D01*
X148329112Y-68279400D02*
X148529112Y-68279400D01*
X148329112Y-68579400D02*
X148529112Y-68579400D01*
X148529112Y-67479400D02*
X148529112Y-68279400D01*
X148529112Y-68279400D02*
X148529112Y-68579400D01*
X148529112Y-68579400D02*
X148529112Y-69379400D01*
X148529112Y-69379400D02*
X146629112Y-69379400D01*
X148079112Y-68429400D02*
G75*
G02*
X147079112Y-68429400I-500000J0D01*
G01*
X147079112Y-68429400D02*
G75*
G02*
X148079112Y-68429400I500000J0D01*
G01*
%TO.C,ICled76*%
X166707362Y-54930200D02*
X168607362Y-54930200D01*
X166707362Y-56830200D02*
X166707362Y-54930200D01*
X168407362Y-55730200D02*
X168407362Y-56030200D01*
X168407362Y-55730200D02*
X168607362Y-55730200D01*
X168407362Y-56030200D02*
X168607362Y-56030200D01*
X168607362Y-54930200D02*
X168607362Y-55730200D01*
X168607362Y-55730200D02*
X168607362Y-56030200D01*
X168607362Y-56030200D02*
X168607362Y-56830200D01*
X168607362Y-56830200D02*
X166707362Y-56830200D01*
X168157362Y-55880200D02*
G75*
G02*
X167157362Y-55880200I-500000J0D01*
G01*
X167157362Y-55880200D02*
G75*
G02*
X168157362Y-55880200I500000J0D01*
G01*
%TO.C,ICled28*%
X159177841Y-49909500D02*
X161077841Y-49909500D01*
X159177841Y-51809500D02*
X159177841Y-49909500D01*
X160877841Y-50709500D02*
X160877841Y-51009500D01*
X160877841Y-50709500D02*
X161077841Y-50709500D01*
X160877841Y-51009500D02*
X161077841Y-51009500D01*
X161077841Y-49909500D02*
X161077841Y-50709500D01*
X161077841Y-50709500D02*
X161077841Y-51009500D01*
X161077841Y-51009500D02*
X161077841Y-51809500D01*
X161077841Y-51809500D02*
X159177841Y-51809500D01*
X160627841Y-50859500D02*
G75*
G02*
X159627841Y-50859500I-500000J0D01*
G01*
X159627841Y-50859500D02*
G75*
G02*
X160627841Y-50859500I500000J0D01*
G01*
%TO.C,ICled20*%
X151648612Y-52419000D02*
X153548612Y-52419000D01*
X151648612Y-54319000D02*
X151648612Y-52419000D01*
X153348612Y-53219000D02*
X153348612Y-53519000D01*
X153348612Y-53219000D02*
X153548612Y-53219000D01*
X153348612Y-53519000D02*
X153548612Y-53519000D01*
X153548612Y-52419000D02*
X153548612Y-53219000D01*
X153548612Y-53219000D02*
X153548612Y-53519000D01*
X153548612Y-53519000D02*
X153548612Y-54319000D01*
X153548612Y-54319000D02*
X151648612Y-54319000D01*
X153098612Y-53369000D02*
G75*
G02*
X152098612Y-53369000I-500000J0D01*
G01*
X152098612Y-53369000D02*
G75*
G02*
X153098612Y-53369000I500000J0D01*
G01*
%TO.C,ICled171*%
X146629112Y-77520800D02*
X148529112Y-77520800D01*
X146629112Y-79420800D02*
X146629112Y-77520800D01*
X148329112Y-78320800D02*
X148329112Y-78620800D01*
X148329112Y-78320800D02*
X148529112Y-78320800D01*
X148329112Y-78620800D02*
X148529112Y-78620800D01*
X148529112Y-77520800D02*
X148529112Y-78320800D01*
X148529112Y-78320800D02*
X148529112Y-78620800D01*
X148529112Y-78620800D02*
X148529112Y-79420800D01*
X148529112Y-79420800D02*
X146629112Y-79420800D01*
X148079112Y-78470800D02*
G75*
G02*
X147079112Y-78470800I-500000J0D01*
G01*
X147079112Y-78470800D02*
G75*
G02*
X148079112Y-78470800I500000J0D01*
G01*
%TO.C,ICled120*%
X136590112Y-69990600D02*
X138490112Y-69990600D01*
X136590112Y-71890600D02*
X136590112Y-69990600D01*
X138290112Y-70790600D02*
X138290112Y-71090600D01*
X138290112Y-70790600D02*
X138490112Y-70790600D01*
X138290112Y-71090600D02*
X138490112Y-71090600D01*
X138490112Y-69990600D02*
X138490112Y-70790600D01*
X138490112Y-70790600D02*
X138490112Y-71090600D01*
X138490112Y-71090600D02*
X138490112Y-71890600D01*
X138490112Y-71890600D02*
X136590112Y-71890600D01*
X138040112Y-70940600D02*
G75*
G02*
X137040112Y-70940600I-500000J0D01*
G01*
X137040112Y-70940600D02*
G75*
G02*
X138040112Y-70940600I500000J0D01*
G01*
%TO.C,ICled82*%
X139099862Y-64969900D02*
X140999862Y-64969900D01*
X139099862Y-66869900D02*
X139099862Y-64969900D01*
X140799862Y-65769900D02*
X140799862Y-66069900D01*
X140799862Y-65769900D02*
X140999862Y-65769900D01*
X140799862Y-66069900D02*
X140999862Y-66069900D01*
X140999862Y-64969900D02*
X140999862Y-65769900D01*
X140999862Y-65769900D02*
X140999862Y-66069900D01*
X140999862Y-66069900D02*
X140999862Y-66869900D01*
X140999862Y-66869900D02*
X139099862Y-66869900D01*
X140549862Y-65919900D02*
G75*
G02*
X139549862Y-65919900I-500000J0D01*
G01*
X139549862Y-65919900D02*
G75*
G02*
X140549862Y-65919900I500000J0D01*
G01*
%TO.C,ICled185*%
X159177862Y-82539800D02*
X161077862Y-82539800D01*
X159177862Y-84439800D02*
X159177862Y-82539800D01*
X160877862Y-83339800D02*
X160877862Y-83639800D01*
X160877862Y-83339800D02*
X161077862Y-83339800D01*
X160877862Y-83639800D02*
X161077862Y-83639800D01*
X161077862Y-82539800D02*
X161077862Y-83339800D01*
X161077862Y-83339800D02*
X161077862Y-83639800D01*
X161077862Y-83639800D02*
X161077862Y-84439800D01*
X161077862Y-84439800D02*
X159177862Y-84439800D01*
X160627862Y-83489800D02*
G75*
G02*
X159627862Y-83489800I-500000J0D01*
G01*
X159627862Y-83489800D02*
G75*
G02*
X160627862Y-83489800I500000J0D01*
G01*
%TO.C,ICled11*%
X144119362Y-52419000D02*
X146019362Y-52419000D01*
X144119362Y-54319000D02*
X144119362Y-52419000D01*
X145819362Y-53219000D02*
X145819362Y-53519000D01*
X145819362Y-53219000D02*
X146019362Y-53219000D01*
X145819362Y-53519000D02*
X146019362Y-53519000D01*
X146019362Y-52419000D02*
X146019362Y-53219000D01*
X146019362Y-53219000D02*
X146019362Y-53519000D01*
X146019362Y-53519000D02*
X146019362Y-54319000D01*
X146019362Y-54319000D02*
X144119362Y-54319000D01*
X145569362Y-53369000D02*
G75*
G02*
X144569362Y-53369000I-500000J0D01*
G01*
X144569362Y-53369000D02*
G75*
G02*
X145569362Y-53369000I500000J0D01*
G01*
%TO.C,ICled155*%
X166707112Y-72500100D02*
X168607112Y-72500100D01*
X166707112Y-74400100D02*
X166707112Y-72500100D01*
X168407112Y-73300100D02*
X168407112Y-73600100D01*
X168407112Y-73300100D02*
X168607112Y-73300100D01*
X168407112Y-73600100D02*
X168607112Y-73600100D01*
X168607112Y-72500100D02*
X168607112Y-73300100D01*
X168607112Y-73300100D02*
X168607112Y-73600100D01*
X168607112Y-73600100D02*
X168607112Y-74400100D01*
X168607112Y-74400100D02*
X166707112Y-74400100D01*
X168157112Y-73450100D02*
G75*
G02*
X167157112Y-73450100I-500000J0D01*
G01*
X167157112Y-73450100D02*
G75*
G02*
X168157112Y-73450100I500000J0D01*
G01*
%TO.C,ICled180*%
X154158362Y-77520800D02*
X156058362Y-77520800D01*
X154158362Y-79420800D02*
X154158362Y-77520800D01*
X155858362Y-78320800D02*
X155858362Y-78620800D01*
X155858362Y-78320800D02*
X156058362Y-78320800D01*
X155858362Y-78620800D02*
X156058362Y-78620800D01*
X156058362Y-77520800D02*
X156058362Y-78320800D01*
X156058362Y-78320800D02*
X156058362Y-78620800D01*
X156058362Y-78620800D02*
X156058362Y-79420800D01*
X156058362Y-79420800D02*
X154158362Y-79420800D01*
X155608362Y-78470800D02*
G75*
G02*
X154608362Y-78470800I-500000J0D01*
G01*
X154608362Y-78470800D02*
G75*
G02*
X155608362Y-78470800I500000J0D01*
G01*
%TO.C,ICled83*%
X139099862Y-67479400D02*
X140999862Y-67479400D01*
X139099862Y-69379400D02*
X139099862Y-67479400D01*
X140799862Y-68279400D02*
X140799862Y-68579400D01*
X140799862Y-68279400D02*
X140999862Y-68279400D01*
X140799862Y-68579400D02*
X140999862Y-68579400D01*
X140999862Y-67479400D02*
X140999862Y-68279400D01*
X140999862Y-68279400D02*
X140999862Y-68579400D01*
X140999862Y-68579400D02*
X140999862Y-69379400D01*
X140999862Y-69379400D02*
X139099862Y-69379400D01*
X140549862Y-68429400D02*
G75*
G02*
X139549862Y-68429400I-500000J0D01*
G01*
X139549862Y-68429400D02*
G75*
G02*
X140549862Y-68429400I500000J0D01*
G01*
%TO.C,ICled55*%
X149138869Y-57439700D02*
X151038869Y-57439700D01*
X149138869Y-59339700D02*
X149138869Y-57439700D01*
X150838869Y-58239700D02*
X150838869Y-58539700D01*
X150838869Y-58239700D02*
X151038869Y-58239700D01*
X150838869Y-58539700D02*
X151038869Y-58539700D01*
X151038869Y-57439700D02*
X151038869Y-58239700D01*
X151038869Y-58239700D02*
X151038869Y-58539700D01*
X151038869Y-58539700D02*
X151038869Y-59339700D01*
X151038869Y-59339700D02*
X149138869Y-59339700D01*
X150588869Y-58389700D02*
G75*
G02*
X149588869Y-58389700I-500000J0D01*
G01*
X149588869Y-58389700D02*
G75*
G02*
X150588869Y-58389700I500000J0D01*
G01*
D12*
%TO.C,C8*%
X134715000Y-73811252D02*
X134715000Y-73288748D01*
X136185000Y-73811252D02*
X136185000Y-73288748D01*
D10*
%TO.C,ICled44*%
X139099862Y-59949200D02*
X140999862Y-59949200D01*
X139099862Y-61849200D02*
X139099862Y-59949200D01*
X140799862Y-60749200D02*
X140799862Y-61049200D01*
X140799862Y-60749200D02*
X140999862Y-60749200D01*
X140799862Y-61049200D02*
X140999862Y-61049200D01*
X140999862Y-59949200D02*
X140999862Y-60749200D01*
X140999862Y-60749200D02*
X140999862Y-61049200D01*
X140999862Y-61049200D02*
X140999862Y-61849200D01*
X140999862Y-61849200D02*
X139099862Y-61849200D01*
X140549862Y-60899200D02*
G75*
G02*
X139549862Y-60899200I-500000J0D01*
G01*
X139549862Y-60899200D02*
G75*
G02*
X140549862Y-60899200I500000J0D01*
G01*
%TO.C,ICled198*%
X136590112Y-85051000D02*
X138490112Y-85051000D01*
X136590112Y-86951000D02*
X136590112Y-85051000D01*
X138290112Y-85851000D02*
X138290112Y-86151000D01*
X138290112Y-85851000D02*
X138490112Y-85851000D01*
X138290112Y-86151000D02*
X138490112Y-86151000D01*
X138490112Y-85051000D02*
X138490112Y-85851000D01*
X138490112Y-85851000D02*
X138490112Y-86151000D01*
X138490112Y-86151000D02*
X138490112Y-86951000D01*
X138490112Y-86951000D02*
X136590112Y-86951000D01*
X138040112Y-86001000D02*
G75*
G02*
X137040112Y-86001000I-500000J0D01*
G01*
X137040112Y-86001000D02*
G75*
G02*
X138040112Y-86001000I500000J0D01*
G01*
%TO.C,ICled102*%
X154158362Y-62460400D02*
X156058362Y-62460400D01*
X154158362Y-64360400D02*
X154158362Y-62460400D01*
X155858362Y-63260400D02*
X155858362Y-63560400D01*
X155858362Y-63260400D02*
X156058362Y-63260400D01*
X155858362Y-63560400D02*
X156058362Y-63560400D01*
X156058362Y-62460400D02*
X156058362Y-63260400D01*
X156058362Y-63260400D02*
X156058362Y-63560400D01*
X156058362Y-63560400D02*
X156058362Y-64360400D01*
X156058362Y-64360400D02*
X154158362Y-64360400D01*
X155608362Y-63410400D02*
G75*
G02*
X154608362Y-63410400I-500000J0D01*
G01*
X154608362Y-63410400D02*
G75*
G02*
X155608362Y-63410400I500000J0D01*
G01*
%TO.C,ICled64*%
X156668098Y-57439700D02*
X158568098Y-57439700D01*
X156668098Y-59339700D02*
X156668098Y-57439700D01*
X158368098Y-58239700D02*
X158368098Y-58539700D01*
X158368098Y-58239700D02*
X158568098Y-58239700D01*
X158368098Y-58539700D02*
X158568098Y-58539700D01*
X158568098Y-57439700D02*
X158568098Y-58239700D01*
X158568098Y-58239700D02*
X158568098Y-58539700D01*
X158568098Y-58539700D02*
X158568098Y-59339700D01*
X158568098Y-59339700D02*
X156668098Y-59339700D01*
X158118098Y-58389700D02*
G75*
G02*
X157118098Y-58389700I-500000J0D01*
G01*
X157118098Y-58389700D02*
G75*
G02*
X158118098Y-58389700I500000J0D01*
G01*
%TO.C,ICled207*%
X144119362Y-85051000D02*
X146019362Y-85051000D01*
X144119362Y-86951000D02*
X144119362Y-85051000D01*
X145819362Y-85851000D02*
X145819362Y-86151000D01*
X145819362Y-85851000D02*
X146019362Y-85851000D01*
X145819362Y-86151000D02*
X146019362Y-86151000D01*
X146019362Y-85051000D02*
X146019362Y-85851000D01*
X146019362Y-85851000D02*
X146019362Y-86151000D01*
X146019362Y-86151000D02*
X146019362Y-86951000D01*
X146019362Y-86951000D02*
X144119362Y-86951000D01*
X145569362Y-86001000D02*
G75*
G02*
X144569362Y-86001000I-500000J0D01*
G01*
X144569362Y-86001000D02*
G75*
G02*
X145569362Y-86001000I500000J0D01*
G01*
%TO.C,ICled7*%
X141609640Y-49909500D02*
X143509640Y-49909500D01*
X141609640Y-51809500D02*
X141609640Y-49909500D01*
X143309640Y-50709500D02*
X143309640Y-51009500D01*
X143309640Y-50709500D02*
X143509640Y-50709500D01*
X143309640Y-51009500D02*
X143509640Y-51009500D01*
X143509640Y-49909500D02*
X143509640Y-50709500D01*
X143509640Y-50709500D02*
X143509640Y-51009500D01*
X143509640Y-51009500D02*
X143509640Y-51809500D01*
X143509640Y-51809500D02*
X141609640Y-51809500D01*
X143059640Y-50859500D02*
G75*
G02*
X142059640Y-50859500I-500000J0D01*
G01*
X142059640Y-50859500D02*
G75*
G02*
X143059640Y-50859500I500000J0D01*
G01*
%TO.C,ICled231*%
X164197362Y-85051000D02*
X166097362Y-85051000D01*
X164197362Y-86951000D02*
X164197362Y-85051000D01*
X165897362Y-85851000D02*
X165897362Y-86151000D01*
X165897362Y-85851000D02*
X166097362Y-85851000D01*
X165897362Y-86151000D02*
X166097362Y-86151000D01*
X166097362Y-85051000D02*
X166097362Y-85851000D01*
X166097362Y-85851000D02*
X166097362Y-86151000D01*
X166097362Y-86151000D02*
X166097362Y-86951000D01*
X166097362Y-86951000D02*
X164197362Y-86951000D01*
X165647362Y-86001000D02*
G75*
G02*
X164647362Y-86001000I-500000J0D01*
G01*
X164647362Y-86001000D02*
G75*
G02*
X165647362Y-86001000I500000J0D01*
G01*
%TO.C,ICled182*%
X156668112Y-82539800D02*
X158568112Y-82539800D01*
X156668112Y-84439800D02*
X156668112Y-82539800D01*
X158368112Y-83339800D02*
X158368112Y-83639800D01*
X158368112Y-83339800D02*
X158568112Y-83339800D01*
X158368112Y-83639800D02*
X158568112Y-83639800D01*
X158568112Y-82539800D02*
X158568112Y-83339800D01*
X158568112Y-83339800D02*
X158568112Y-83639800D01*
X158568112Y-83639800D02*
X158568112Y-84439800D01*
X158568112Y-84439800D02*
X156668112Y-84439800D01*
X158118112Y-83489800D02*
G75*
G02*
X157118112Y-83489800I-500000J0D01*
G01*
X157118112Y-83489800D02*
G75*
G02*
X158118112Y-83489800I500000J0D01*
G01*
%TO.C,ICled153*%
X164197362Y-69990600D02*
X166097362Y-69990600D01*
X164197362Y-71890600D02*
X164197362Y-69990600D01*
X165897362Y-70790600D02*
X165897362Y-71090600D01*
X165897362Y-70790600D02*
X166097362Y-70790600D01*
X165897362Y-71090600D02*
X166097362Y-71090600D01*
X166097362Y-69990600D02*
X166097362Y-70790600D01*
X166097362Y-70790600D02*
X166097362Y-71090600D01*
X166097362Y-71090600D02*
X166097362Y-71890600D01*
X166097362Y-71890600D02*
X164197362Y-71890600D01*
X165647362Y-70940600D02*
G75*
G02*
X164647362Y-70940600I-500000J0D01*
G01*
X164647362Y-70940600D02*
G75*
G02*
X165647362Y-70940600I500000J0D01*
G01*
%TO.C,ICled74*%
X164197362Y-59949200D02*
X166097362Y-59949200D01*
X164197362Y-61849200D02*
X164197362Y-59949200D01*
X165897362Y-60749200D02*
X165897362Y-61049200D01*
X165897362Y-60749200D02*
X166097362Y-60749200D01*
X165897362Y-61049200D02*
X166097362Y-61049200D01*
X166097362Y-59949200D02*
X166097362Y-60749200D01*
X166097362Y-60749200D02*
X166097362Y-61049200D01*
X166097362Y-61049200D02*
X166097362Y-61849200D01*
X166097362Y-61849200D02*
X164197362Y-61849200D01*
X165647362Y-60899200D02*
G75*
G02*
X164647362Y-60899200I-500000J0D01*
G01*
X164647362Y-60899200D02*
G75*
G02*
X165647362Y-60899200I500000J0D01*
G01*
%TO.C,ICled190*%
X164197362Y-80030300D02*
X166097362Y-80030300D01*
X164197362Y-81930300D02*
X164197362Y-80030300D01*
X165897362Y-80830300D02*
X165897362Y-81130300D01*
X165897362Y-80830300D02*
X166097362Y-80830300D01*
X165897362Y-81130300D02*
X166097362Y-81130300D01*
X166097362Y-80030300D02*
X166097362Y-80830300D01*
X166097362Y-80830300D02*
X166097362Y-81130300D01*
X166097362Y-81130300D02*
X166097362Y-81930300D01*
X166097362Y-81930300D02*
X164197362Y-81930300D01*
X165647362Y-80980300D02*
G75*
G02*
X164647362Y-80980300I-500000J0D01*
G01*
X164647362Y-80980300D02*
G75*
G02*
X165647362Y-80980300I500000J0D01*
G01*
%TO.C,ICled179*%
X154158362Y-82539800D02*
X156058362Y-82539800D01*
X154158362Y-84439800D02*
X154158362Y-82539800D01*
X155858362Y-83339800D02*
X155858362Y-83639800D01*
X155858362Y-83339800D02*
X156058362Y-83339800D01*
X155858362Y-83639800D02*
X156058362Y-83639800D01*
X156058362Y-82539800D02*
X156058362Y-83339800D01*
X156058362Y-83339800D02*
X156058362Y-83639800D01*
X156058362Y-83639800D02*
X156058362Y-84439800D01*
X156058362Y-84439800D02*
X154158362Y-84439800D01*
X155608362Y-83489800D02*
G75*
G02*
X154608362Y-83489800I-500000J0D01*
G01*
X154608362Y-83489800D02*
G75*
G02*
X155608362Y-83489800I500000J0D01*
G01*
%TO.C,ICled150*%
X161687612Y-69990600D02*
X163587612Y-69990600D01*
X161687612Y-71890600D02*
X161687612Y-69990600D01*
X163387612Y-70790600D02*
X163387612Y-71090600D01*
X163387612Y-70790600D02*
X163587612Y-70790600D01*
X163387612Y-71090600D02*
X163587612Y-71090600D01*
X163587612Y-69990600D02*
X163587612Y-70790600D01*
X163587612Y-70790600D02*
X163587612Y-71090600D01*
X163587612Y-71090600D02*
X163587612Y-71890600D01*
X163587612Y-71890600D02*
X161687612Y-71890600D01*
X163137612Y-70940600D02*
G75*
G02*
X162137612Y-70940600I-500000J0D01*
G01*
X162137612Y-70940600D02*
G75*
G02*
X163137612Y-70940600I500000J0D01*
G01*
%TO.C,ICled1*%
X136590154Y-49909500D02*
X138490154Y-49909500D01*
X136590154Y-51809500D02*
X136590154Y-49909500D01*
X138290154Y-50709500D02*
X138290154Y-51009500D01*
X138290154Y-50709500D02*
X138490154Y-50709500D01*
X138290154Y-51009500D02*
X138490154Y-51009500D01*
X138490154Y-49909500D02*
X138490154Y-50709500D01*
X138490154Y-50709500D02*
X138490154Y-51009500D01*
X138490154Y-51009500D02*
X138490154Y-51809500D01*
X138490154Y-51809500D02*
X136590154Y-51809500D01*
X138040154Y-50859500D02*
G75*
G02*
X137040154Y-50859500I-500000J0D01*
G01*
X137040154Y-50859500D02*
G75*
G02*
X138040154Y-50859500I500000J0D01*
G01*
%TO.C,ICled214*%
X151648612Y-87560500D02*
X153548612Y-87560500D01*
X151648612Y-89460500D02*
X151648612Y-87560500D01*
X153348612Y-88360500D02*
X153348612Y-88660500D01*
X153348612Y-88360500D02*
X153548612Y-88360500D01*
X153348612Y-88660500D02*
X153548612Y-88660500D01*
X153548612Y-87560500D02*
X153548612Y-88360500D01*
X153548612Y-88360500D02*
X153548612Y-88660500D01*
X153548612Y-88660500D02*
X153548612Y-89460500D01*
X153548612Y-89460500D02*
X151648612Y-89460500D01*
X153098612Y-88510500D02*
G75*
G02*
X152098612Y-88510500I-500000J0D01*
G01*
X152098612Y-88510500D02*
G75*
G02*
X153098612Y-88510500I500000J0D01*
G01*
%TO.C,ICled113*%
X164197362Y-67479400D02*
X166097362Y-67479400D01*
X164197362Y-69379400D02*
X164197362Y-67479400D01*
X165897362Y-68279400D02*
X165897362Y-68579400D01*
X165897362Y-68279400D02*
X166097362Y-68279400D01*
X165897362Y-68579400D02*
X166097362Y-68579400D01*
X166097362Y-67479400D02*
X166097362Y-68279400D01*
X166097362Y-68279400D02*
X166097362Y-68579400D01*
X166097362Y-68579400D02*
X166097362Y-69379400D01*
X166097362Y-69379400D02*
X164197362Y-69379400D01*
X165647362Y-68429400D02*
G75*
G02*
X164647362Y-68429400I-500000J0D01*
G01*
X164647362Y-68429400D02*
G75*
G02*
X165647362Y-68429400I500000J0D01*
G01*
%TO.C,ICled219*%
X154158362Y-85051000D02*
X156058362Y-85051000D01*
X154158362Y-86951000D02*
X154158362Y-85051000D01*
X155858362Y-85851000D02*
X155858362Y-86151000D01*
X155858362Y-85851000D02*
X156058362Y-85851000D01*
X155858362Y-86151000D02*
X156058362Y-86151000D01*
X156058362Y-85051000D02*
X156058362Y-85851000D01*
X156058362Y-85851000D02*
X156058362Y-86151000D01*
X156058362Y-86151000D02*
X156058362Y-86951000D01*
X156058362Y-86951000D02*
X154158362Y-86951000D01*
X155608362Y-86001000D02*
G75*
G02*
X154608362Y-86001000I-500000J0D01*
G01*
X154608362Y-86001000D02*
G75*
G02*
X155608362Y-86001000I500000J0D01*
G01*
%TO.C,ICled170*%
X146629112Y-82539800D02*
X148529112Y-82539800D01*
X146629112Y-84439800D02*
X146629112Y-82539800D01*
X148329112Y-83339800D02*
X148329112Y-83639800D01*
X148329112Y-83339800D02*
X148529112Y-83339800D01*
X148329112Y-83639800D02*
X148529112Y-83639800D01*
X148529112Y-82539800D02*
X148529112Y-83339800D01*
X148529112Y-83339800D02*
X148529112Y-83639800D01*
X148529112Y-83639800D02*
X148529112Y-84439800D01*
X148529112Y-84439800D02*
X146629112Y-84439800D01*
X148079112Y-83489800D02*
G75*
G02*
X147079112Y-83489800I-500000J0D01*
G01*
X147079112Y-83489800D02*
G75*
G02*
X148079112Y-83489800I500000J0D01*
G01*
%TO.C,ICled197*%
X136590112Y-90070000D02*
X138490112Y-90070000D01*
X136590112Y-91970000D02*
X136590112Y-90070000D01*
X138290112Y-90870000D02*
X138290112Y-91170000D01*
X138290112Y-90870000D02*
X138490112Y-90870000D01*
X138290112Y-91170000D02*
X138490112Y-91170000D01*
X138490112Y-90070000D02*
X138490112Y-90870000D01*
X138490112Y-90870000D02*
X138490112Y-91170000D01*
X138490112Y-91170000D02*
X138490112Y-91970000D01*
X138490112Y-91970000D02*
X136590112Y-91970000D01*
X138040112Y-91020000D02*
G75*
G02*
X137040112Y-91020000I-500000J0D01*
G01*
X137040112Y-91020000D02*
G75*
G02*
X138040112Y-91020000I500000J0D01*
G01*
%TO.C,ICled146*%
X159177862Y-75009600D02*
X161077862Y-75009600D01*
X159177862Y-76909600D02*
X159177862Y-75009600D01*
X160877862Y-75809600D02*
X160877862Y-76109600D01*
X160877862Y-75809600D02*
X161077862Y-75809600D01*
X160877862Y-76109600D02*
X161077862Y-76109600D01*
X161077862Y-75009600D02*
X161077862Y-75809600D01*
X161077862Y-75809600D02*
X161077862Y-76109600D01*
X161077862Y-76109600D02*
X161077862Y-76909600D01*
X161077862Y-76909600D02*
X159177862Y-76909600D01*
X160627862Y-75959600D02*
G75*
G02*
X159627862Y-75959600I-500000J0D01*
G01*
X159627862Y-75959600D02*
G75*
G02*
X160627862Y-75959600I500000J0D01*
G01*
%TO.C,ICled208*%
X146629112Y-87560500D02*
X148529112Y-87560500D01*
X146629112Y-89460500D02*
X146629112Y-87560500D01*
X148329112Y-88360500D02*
X148329112Y-88660500D01*
X148329112Y-88360500D02*
X148529112Y-88360500D01*
X148329112Y-88660500D02*
X148529112Y-88660500D01*
X148529112Y-87560500D02*
X148529112Y-88360500D01*
X148529112Y-88360500D02*
X148529112Y-88660500D01*
X148529112Y-88660500D02*
X148529112Y-89460500D01*
X148529112Y-89460500D02*
X146629112Y-89460500D01*
X148079112Y-88510500D02*
G75*
G02*
X147079112Y-88510500I-500000J0D01*
G01*
X147079112Y-88510500D02*
G75*
G02*
X148079112Y-88510500I500000J0D01*
G01*
%TO.C,ICled172*%
X149138862Y-80030300D02*
X151038862Y-80030300D01*
X149138862Y-81930300D02*
X149138862Y-80030300D01*
X150838862Y-80830300D02*
X150838862Y-81130300D01*
X150838862Y-80830300D02*
X151038862Y-80830300D01*
X150838862Y-81130300D02*
X151038862Y-81130300D01*
X151038862Y-80030300D02*
X151038862Y-80830300D01*
X151038862Y-80830300D02*
X151038862Y-81130300D01*
X151038862Y-81130300D02*
X151038862Y-81930300D01*
X151038862Y-81930300D02*
X149138862Y-81930300D01*
X150588862Y-80980300D02*
G75*
G02*
X149588862Y-80980300I-500000J0D01*
G01*
X149588862Y-80980300D02*
G75*
G02*
X150588862Y-80980300I500000J0D01*
G01*
%TO.C,ICled66*%
X156668190Y-54930200D02*
X158568190Y-54930200D01*
X156668190Y-56830200D02*
X156668190Y-54930200D01*
X158368190Y-55730200D02*
X158368190Y-56030200D01*
X158368190Y-55730200D02*
X158568190Y-55730200D01*
X158368190Y-56030200D02*
X158568190Y-56030200D01*
X158568190Y-54930200D02*
X158568190Y-55730200D01*
X158568190Y-55730200D02*
X158568190Y-56030200D01*
X158568190Y-56030200D02*
X158568190Y-56830200D01*
X158568190Y-56830200D02*
X156668190Y-56830200D01*
X158118190Y-55880200D02*
G75*
G02*
X157118190Y-55880200I-500000J0D01*
G01*
X157118190Y-55880200D02*
G75*
G02*
X158118190Y-55880200I500000J0D01*
G01*
%TO.C,ICled8*%
X141609612Y-52419000D02*
X143509612Y-52419000D01*
X141609612Y-54319000D02*
X141609612Y-52419000D01*
X143309612Y-53219000D02*
X143309612Y-53519000D01*
X143309612Y-53219000D02*
X143509612Y-53219000D01*
X143309612Y-53519000D02*
X143509612Y-53519000D01*
X143509612Y-52419000D02*
X143509612Y-53219000D01*
X143509612Y-53219000D02*
X143509612Y-53519000D01*
X143509612Y-53519000D02*
X143509612Y-54319000D01*
X143509612Y-54319000D02*
X141609612Y-54319000D01*
X143059612Y-53369000D02*
G75*
G02*
X142059612Y-53369000I-500000J0D01*
G01*
X142059612Y-53369000D02*
G75*
G02*
X143059612Y-53369000I500000J0D01*
G01*
%TO.C,ICled61*%
X154158355Y-57439700D02*
X156058355Y-57439700D01*
X154158355Y-59339700D02*
X154158355Y-57439700D01*
X155858355Y-58239700D02*
X155858355Y-58539700D01*
X155858355Y-58239700D02*
X156058355Y-58239700D01*
X155858355Y-58539700D02*
X156058355Y-58539700D01*
X156058355Y-57439700D02*
X156058355Y-58239700D01*
X156058355Y-58239700D02*
X156058355Y-58539700D01*
X156058355Y-58539700D02*
X156058355Y-59339700D01*
X156058355Y-59339700D02*
X154158355Y-59339700D01*
X155608355Y-58389700D02*
G75*
G02*
X154608355Y-58389700I-500000J0D01*
G01*
X154608355Y-58389700D02*
G75*
G02*
X155608355Y-58389700I500000J0D01*
G01*
%TO.C,ICled213*%
X149138862Y-85051000D02*
X151038862Y-85051000D01*
X149138862Y-86951000D02*
X149138862Y-85051000D01*
X150838862Y-85851000D02*
X150838862Y-86151000D01*
X150838862Y-85851000D02*
X151038862Y-85851000D01*
X150838862Y-86151000D02*
X151038862Y-86151000D01*
X151038862Y-85051000D02*
X151038862Y-85851000D01*
X151038862Y-85851000D02*
X151038862Y-86151000D01*
X151038862Y-86151000D02*
X151038862Y-86951000D01*
X151038862Y-86951000D02*
X149138862Y-86951000D01*
X150588862Y-86001000D02*
G75*
G02*
X149588862Y-86001000I-500000J0D01*
G01*
X149588862Y-86001000D02*
G75*
G02*
X150588862Y-86001000I500000J0D01*
G01*
%TO.C,ICled183*%
X156668112Y-77520800D02*
X158568112Y-77520800D01*
X156668112Y-79420800D02*
X156668112Y-77520800D01*
X158368112Y-78320800D02*
X158368112Y-78620800D01*
X158368112Y-78320800D02*
X158568112Y-78320800D01*
X158368112Y-78620800D02*
X158568112Y-78620800D01*
X158568112Y-77520800D02*
X158568112Y-78320800D01*
X158568112Y-78320800D02*
X158568112Y-78620800D01*
X158568112Y-78620800D02*
X158568112Y-79420800D01*
X158568112Y-79420800D02*
X156668112Y-79420800D01*
X158118112Y-78470800D02*
G75*
G02*
X157118112Y-78470800I-500000J0D01*
G01*
X157118112Y-78470800D02*
G75*
G02*
X158118112Y-78470800I500000J0D01*
G01*
%TO.C,ICled225*%
X159177862Y-85051000D02*
X161077862Y-85051000D01*
X159177862Y-86951000D02*
X159177862Y-85051000D01*
X160877862Y-85851000D02*
X160877862Y-86151000D01*
X160877862Y-85851000D02*
X161077862Y-85851000D01*
X160877862Y-86151000D02*
X161077862Y-86151000D01*
X161077862Y-85051000D02*
X161077862Y-85851000D01*
X161077862Y-85851000D02*
X161077862Y-86151000D01*
X161077862Y-86151000D02*
X161077862Y-86951000D01*
X161077862Y-86951000D02*
X159177862Y-86951000D01*
X160627862Y-86001000D02*
G75*
G02*
X159627862Y-86001000I-500000J0D01*
G01*
X159627862Y-86001000D02*
G75*
G02*
X160627862Y-86001000I500000J0D01*
G01*
%TO.C,ICled224*%
X159177862Y-90070000D02*
X161077862Y-90070000D01*
X159177862Y-91970000D02*
X159177862Y-90070000D01*
X160877862Y-90870000D02*
X160877862Y-91170000D01*
X160877862Y-90870000D02*
X161077862Y-90870000D01*
X160877862Y-91170000D02*
X161077862Y-91170000D01*
X161077862Y-90070000D02*
X161077862Y-90870000D01*
X161077862Y-90870000D02*
X161077862Y-91170000D01*
X161077862Y-91170000D02*
X161077862Y-91970000D01*
X161077862Y-91970000D02*
X159177862Y-91970000D01*
X160627862Y-91020000D02*
G75*
G02*
X159627862Y-91020000I-500000J0D01*
G01*
X159627862Y-91020000D02*
G75*
G02*
X160627862Y-91020000I500000J0D01*
G01*
%TO.C,ICled200*%
X139099862Y-90070000D02*
X140999862Y-90070000D01*
X139099862Y-91970000D02*
X139099862Y-90070000D01*
X140799862Y-90870000D02*
X140799862Y-91170000D01*
X140799862Y-90870000D02*
X140999862Y-90870000D01*
X140799862Y-91170000D02*
X140999862Y-91170000D01*
X140999862Y-90070000D02*
X140999862Y-90870000D01*
X140999862Y-90870000D02*
X140999862Y-91170000D01*
X140999862Y-91170000D02*
X140999862Y-91970000D01*
X140999862Y-91970000D02*
X139099862Y-91970000D01*
X140549862Y-91020000D02*
G75*
G02*
X139549862Y-91020000I-500000J0D01*
G01*
X139549862Y-91020000D02*
G75*
G02*
X140549862Y-91020000I500000J0D01*
G01*
%TO.C,ICled10*%
X144119383Y-49909500D02*
X146019383Y-49909500D01*
X144119383Y-51809500D02*
X144119383Y-49909500D01*
X145819383Y-50709500D02*
X145819383Y-51009500D01*
X145819383Y-50709500D02*
X146019383Y-50709500D01*
X145819383Y-51009500D02*
X146019383Y-51009500D01*
X146019383Y-49909500D02*
X146019383Y-50709500D01*
X146019383Y-50709500D02*
X146019383Y-51009500D01*
X146019383Y-51009500D02*
X146019383Y-51809500D01*
X146019383Y-51809500D02*
X144119383Y-51809500D01*
X145569383Y-50859500D02*
G75*
G02*
X144569383Y-50859500I-500000J0D01*
G01*
X144569383Y-50859500D02*
G75*
G02*
X145569383Y-50859500I500000J0D01*
G01*
%TO.C,ICled176*%
X151648612Y-82539800D02*
X153548612Y-82539800D01*
X151648612Y-84439800D02*
X151648612Y-82539800D01*
X153348612Y-83339800D02*
X153348612Y-83639800D01*
X153348612Y-83339800D02*
X153548612Y-83339800D01*
X153348612Y-83639800D02*
X153548612Y-83639800D01*
X153548612Y-82539800D02*
X153548612Y-83339800D01*
X153548612Y-83339800D02*
X153548612Y-83639800D01*
X153548612Y-83639800D02*
X153548612Y-84439800D01*
X153548612Y-84439800D02*
X151648612Y-84439800D01*
X153098612Y-83489800D02*
G75*
G02*
X152098612Y-83489800I-500000J0D01*
G01*
X152098612Y-83489800D02*
G75*
G02*
X153098612Y-83489800I500000J0D01*
G01*
%TO.C,ICled89*%
X144119362Y-67479400D02*
X146019362Y-67479400D01*
X144119362Y-69379400D02*
X144119362Y-67479400D01*
X145819362Y-68279400D02*
X145819362Y-68579400D01*
X145819362Y-68279400D02*
X146019362Y-68279400D01*
X145819362Y-68579400D02*
X146019362Y-68579400D01*
X146019362Y-67479400D02*
X146019362Y-68279400D01*
X146019362Y-68279400D02*
X146019362Y-68579400D01*
X146019362Y-68579400D02*
X146019362Y-69379400D01*
X146019362Y-69379400D02*
X144119362Y-69379400D01*
X145569362Y-68429400D02*
G75*
G02*
X144569362Y-68429400I-500000J0D01*
G01*
X144569362Y-68429400D02*
G75*
G02*
X145569362Y-68429400I500000J0D01*
G01*
D12*
%TO.C,C7*%
X169065000Y-73786252D02*
X169065000Y-73263748D01*
X170535000Y-73786252D02*
X170535000Y-73263748D01*
D10*
%TO.C,ICled13*%
X146629126Y-49909500D02*
X148529126Y-49909500D01*
X146629126Y-51809500D02*
X146629126Y-49909500D01*
X148329126Y-50709500D02*
X148329126Y-51009500D01*
X148329126Y-50709500D02*
X148529126Y-50709500D01*
X148329126Y-51009500D02*
X148529126Y-51009500D01*
X148529126Y-49909500D02*
X148529126Y-50709500D01*
X148529126Y-50709500D02*
X148529126Y-51009500D01*
X148529126Y-51009500D02*
X148529126Y-51809500D01*
X148529126Y-51809500D02*
X146629126Y-51809500D01*
X148079126Y-50859500D02*
G75*
G02*
X147079126Y-50859500I-500000J0D01*
G01*
X147079126Y-50859500D02*
G75*
G02*
X148079126Y-50859500I500000J0D01*
G01*
%TO.C,ICled15*%
X146629166Y-47400000D02*
X148529166Y-47400000D01*
X146629166Y-49300000D02*
X146629166Y-47400000D01*
X148329166Y-48200000D02*
X148329166Y-48500000D01*
X148329166Y-48200000D02*
X148529166Y-48200000D01*
X148329166Y-48500000D02*
X148529166Y-48500000D01*
X148529166Y-47400000D02*
X148529166Y-48200000D01*
X148529166Y-48200000D02*
X148529166Y-48500000D01*
X148529166Y-48500000D02*
X148529166Y-49300000D01*
X148529166Y-49300000D02*
X146629166Y-49300000D01*
X148079166Y-48350000D02*
G75*
G02*
X147079166Y-48350000I-500000J0D01*
G01*
X147079166Y-48350000D02*
G75*
G02*
X148079166Y-48350000I500000J0D01*
G01*
%TO.C,ICled227*%
X161687612Y-90070000D02*
X163587612Y-90070000D01*
X161687612Y-91970000D02*
X161687612Y-90070000D01*
X163387612Y-90870000D02*
X163387612Y-91170000D01*
X163387612Y-90870000D02*
X163587612Y-90870000D01*
X163387612Y-91170000D02*
X163587612Y-91170000D01*
X163587612Y-90070000D02*
X163587612Y-90870000D01*
X163587612Y-90870000D02*
X163587612Y-91170000D01*
X163587612Y-91170000D02*
X163587612Y-91970000D01*
X163587612Y-91970000D02*
X161687612Y-91970000D01*
X163137612Y-91020000D02*
G75*
G02*
X162137612Y-91020000I-500000J0D01*
G01*
X162137612Y-91020000D02*
G75*
G02*
X163137612Y-91020000I500000J0D01*
G01*
%TO.C,ICled206*%
X144119362Y-90070000D02*
X146019362Y-90070000D01*
X144119362Y-91970000D02*
X144119362Y-90070000D01*
X145819362Y-90870000D02*
X145819362Y-91170000D01*
X145819362Y-90870000D02*
X146019362Y-90870000D01*
X145819362Y-91170000D02*
X146019362Y-91170000D01*
X146019362Y-90070000D02*
X146019362Y-90870000D01*
X146019362Y-90870000D02*
X146019362Y-91170000D01*
X146019362Y-91170000D02*
X146019362Y-91970000D01*
X146019362Y-91970000D02*
X144119362Y-91970000D01*
X145569362Y-91020000D02*
G75*
G02*
X144569362Y-91020000I-500000J0D01*
G01*
X144569362Y-91020000D02*
G75*
G02*
X145569362Y-91020000I500000J0D01*
G01*
%TO.C,ICled45*%
X139099653Y-54930200D02*
X140999653Y-54930200D01*
X139099653Y-56830200D02*
X139099653Y-54930200D01*
X140799653Y-55730200D02*
X140799653Y-56030200D01*
X140799653Y-55730200D02*
X140999653Y-55730200D01*
X140799653Y-56030200D02*
X140999653Y-56030200D01*
X140999653Y-54930200D02*
X140999653Y-55730200D01*
X140999653Y-55730200D02*
X140999653Y-56030200D01*
X140999653Y-56030200D02*
X140999653Y-56830200D01*
X140999653Y-56830200D02*
X139099653Y-56830200D01*
X140549653Y-55880200D02*
G75*
G02*
X139549653Y-55880200I-500000J0D01*
G01*
X139549653Y-55880200D02*
G75*
G02*
X140549653Y-55880200I500000J0D01*
G01*
%TO.C,ICled152*%
X164197362Y-75009600D02*
X166097362Y-75009600D01*
X164197362Y-76909600D02*
X164197362Y-75009600D01*
X165897362Y-75809600D02*
X165897362Y-76109600D01*
X165897362Y-75809600D02*
X166097362Y-75809600D01*
X165897362Y-76109600D02*
X166097362Y-76109600D01*
X166097362Y-75009600D02*
X166097362Y-75809600D01*
X166097362Y-75809600D02*
X166097362Y-76109600D01*
X166097362Y-76109600D02*
X166097362Y-76909600D01*
X166097362Y-76909600D02*
X164197362Y-76909600D01*
X165647362Y-75959600D02*
G75*
G02*
X164647362Y-75959600I-500000J0D01*
G01*
X164647362Y-75959600D02*
G75*
G02*
X165647362Y-75959600I500000J0D01*
G01*
%TO.C,ICled23*%
X154158362Y-52419000D02*
X156058362Y-52419000D01*
X154158362Y-54319000D02*
X154158362Y-52419000D01*
X155858362Y-53219000D02*
X155858362Y-53519000D01*
X155858362Y-53219000D02*
X156058362Y-53219000D01*
X155858362Y-53519000D02*
X156058362Y-53519000D01*
X156058362Y-52419000D02*
X156058362Y-53219000D01*
X156058362Y-53219000D02*
X156058362Y-53519000D01*
X156058362Y-53519000D02*
X156058362Y-54319000D01*
X156058362Y-54319000D02*
X154158362Y-54319000D01*
X155608362Y-53369000D02*
G75*
G02*
X154608362Y-53369000I-500000J0D01*
G01*
X154608362Y-53369000D02*
G75*
G02*
X155608362Y-53369000I500000J0D01*
G01*
%TO.C,ICled52*%
X146629126Y-57439700D02*
X148529126Y-57439700D01*
X146629126Y-59339700D02*
X146629126Y-57439700D01*
X148329126Y-58239700D02*
X148329126Y-58539700D01*
X148329126Y-58239700D02*
X148529126Y-58239700D01*
X148329126Y-58539700D02*
X148529126Y-58539700D01*
X148529126Y-57439700D02*
X148529126Y-58239700D01*
X148529126Y-58239700D02*
X148529126Y-58539700D01*
X148529126Y-58539700D02*
X148529126Y-59339700D01*
X148529126Y-59339700D02*
X146629126Y-59339700D01*
X148079126Y-58389700D02*
G75*
G02*
X147079126Y-58389700I-500000J0D01*
G01*
X147079126Y-58389700D02*
G75*
G02*
X148079126Y-58389700I500000J0D01*
G01*
%TO.C,ICled204*%
X141609612Y-85051000D02*
X143509612Y-85051000D01*
X141609612Y-86951000D02*
X141609612Y-85051000D01*
X143309612Y-85851000D02*
X143309612Y-86151000D01*
X143309612Y-85851000D02*
X143509612Y-85851000D01*
X143309612Y-86151000D02*
X143509612Y-86151000D01*
X143509612Y-85051000D02*
X143509612Y-85851000D01*
X143509612Y-85851000D02*
X143509612Y-86151000D01*
X143509612Y-86151000D02*
X143509612Y-86951000D01*
X143509612Y-86951000D02*
X141609612Y-86951000D01*
X143059612Y-86001000D02*
G75*
G02*
X142059612Y-86001000I-500000J0D01*
G01*
X142059612Y-86001000D02*
G75*
G02*
X143059612Y-86001000I500000J0D01*
G01*
%TO.C,ICled69*%
X159177981Y-54930200D02*
X161077981Y-54930200D01*
X159177981Y-56830200D02*
X159177981Y-54930200D01*
X160877981Y-55730200D02*
X160877981Y-56030200D01*
X160877981Y-55730200D02*
X161077981Y-55730200D01*
X160877981Y-56030200D02*
X161077981Y-56030200D01*
X161077981Y-54930200D02*
X161077981Y-55730200D01*
X161077981Y-55730200D02*
X161077981Y-56030200D01*
X161077981Y-56030200D02*
X161077981Y-56830200D01*
X161077981Y-56830200D02*
X159177981Y-56830200D01*
X160627981Y-55880200D02*
G75*
G02*
X159627981Y-55880200I-500000J0D01*
G01*
X159627981Y-55880200D02*
G75*
G02*
X160627981Y-55880200I500000J0D01*
G01*
%TO.C,ICled135*%
X149138862Y-69990600D02*
X151038862Y-69990600D01*
X149138862Y-71890600D02*
X149138862Y-69990600D01*
X150838862Y-70790600D02*
X150838862Y-71090600D01*
X150838862Y-70790600D02*
X151038862Y-70790600D01*
X150838862Y-71090600D02*
X151038862Y-71090600D01*
X151038862Y-69990600D02*
X151038862Y-70790600D01*
X151038862Y-70790600D02*
X151038862Y-71090600D01*
X151038862Y-71090600D02*
X151038862Y-71890600D01*
X151038862Y-71890600D02*
X149138862Y-71890600D01*
X150588862Y-70940600D02*
G75*
G02*
X149588862Y-70940600I-500000J0D01*
G01*
X149588862Y-70940600D02*
G75*
G02*
X150588862Y-70940600I500000J0D01*
G01*
%TO.C,ICled138*%
X151648612Y-69990600D02*
X153548612Y-69990600D01*
X151648612Y-71890600D02*
X151648612Y-69990600D01*
X153348612Y-70790600D02*
X153348612Y-71090600D01*
X153348612Y-70790600D02*
X153548612Y-70790600D01*
X153348612Y-71090600D02*
X153548612Y-71090600D01*
X153548612Y-69990600D02*
X153548612Y-70790600D01*
X153548612Y-70790600D02*
X153548612Y-71090600D01*
X153548612Y-71090600D02*
X153548612Y-71890600D01*
X153548612Y-71890600D02*
X151648612Y-71890600D01*
X153098612Y-70940600D02*
G75*
G02*
X152098612Y-70940600I-500000J0D01*
G01*
X152098612Y-70940600D02*
G75*
G02*
X153098612Y-70940600I500000J0D01*
G01*
%TO.C,ICled199*%
X139099862Y-87560500D02*
X140999862Y-87560500D01*
X139099862Y-89460500D02*
X139099862Y-87560500D01*
X140799862Y-88360500D02*
X140799862Y-88660500D01*
X140799862Y-88360500D02*
X140999862Y-88360500D01*
X140799862Y-88660500D02*
X140999862Y-88660500D01*
X140999862Y-87560500D02*
X140999862Y-88360500D01*
X140999862Y-88360500D02*
X140999862Y-88660500D01*
X140999862Y-88660500D02*
X140999862Y-89460500D01*
X140999862Y-89460500D02*
X139099862Y-89460500D01*
X140549862Y-88510500D02*
G75*
G02*
X139549862Y-88510500I-500000J0D01*
G01*
X139549862Y-88510500D02*
G75*
G02*
X140549862Y-88510500I500000J0D01*
G01*
%TO.C,ICled56*%
X149138862Y-59949200D02*
X151038862Y-59949200D01*
X149138862Y-61849200D02*
X149138862Y-59949200D01*
X150838862Y-60749200D02*
X150838862Y-61049200D01*
X150838862Y-60749200D02*
X151038862Y-60749200D01*
X150838862Y-61049200D02*
X151038862Y-61049200D01*
X151038862Y-59949200D02*
X151038862Y-60749200D01*
X151038862Y-60749200D02*
X151038862Y-61049200D01*
X151038862Y-61049200D02*
X151038862Y-61849200D01*
X151038862Y-61849200D02*
X149138862Y-61849200D01*
X150588862Y-60899200D02*
G75*
G02*
X149588862Y-60899200I-500000J0D01*
G01*
X149588862Y-60899200D02*
G75*
G02*
X150588862Y-60899200I500000J0D01*
G01*
D12*
%TO.C,C3*%
X134715000Y-56871252D02*
X134715000Y-56348748D01*
X136185000Y-56871252D02*
X136185000Y-56348748D01*
D10*
%TO.C,ICled108*%
X159177862Y-62460400D02*
X161077862Y-62460400D01*
X159177862Y-64360400D02*
X159177862Y-62460400D01*
X160877862Y-63260400D02*
X160877862Y-63560400D01*
X160877862Y-63260400D02*
X161077862Y-63260400D01*
X160877862Y-63560400D02*
X161077862Y-63560400D01*
X161077862Y-62460400D02*
X161077862Y-63260400D01*
X161077862Y-63260400D02*
X161077862Y-63560400D01*
X161077862Y-63560400D02*
X161077862Y-64360400D01*
X161077862Y-64360400D02*
X159177862Y-64360400D01*
X160627862Y-63410400D02*
G75*
G02*
X159627862Y-63410400I-500000J0D01*
G01*
X159627862Y-63410400D02*
G75*
G02*
X160627862Y-63410400I500000J0D01*
G01*
%TO.C,ICled228*%
X161687612Y-85051000D02*
X163587612Y-85051000D01*
X161687612Y-86951000D02*
X161687612Y-85051000D01*
X163387612Y-85851000D02*
X163387612Y-86151000D01*
X163387612Y-85851000D02*
X163587612Y-85851000D01*
X163387612Y-86151000D02*
X163587612Y-86151000D01*
X163587612Y-85051000D02*
X163587612Y-85851000D01*
X163587612Y-85851000D02*
X163587612Y-86151000D01*
X163587612Y-86151000D02*
X163587612Y-86951000D01*
X163587612Y-86951000D02*
X161687612Y-86951000D01*
X163137612Y-86001000D02*
G75*
G02*
X162137612Y-86001000I-500000J0D01*
G01*
X162137612Y-86001000D02*
G75*
G02*
X163137612Y-86001000I500000J0D01*
G01*
%TO.C,ICled158*%
X136590112Y-82539800D02*
X138490112Y-82539800D01*
X136590112Y-84439800D02*
X136590112Y-82539800D01*
X138290112Y-83339800D02*
X138290112Y-83639800D01*
X138290112Y-83339800D02*
X138490112Y-83339800D01*
X138290112Y-83639800D02*
X138490112Y-83639800D01*
X138490112Y-82539800D02*
X138490112Y-83339800D01*
X138490112Y-83339800D02*
X138490112Y-83639800D01*
X138490112Y-83639800D02*
X138490112Y-84439800D01*
X138490112Y-84439800D02*
X136590112Y-84439800D01*
X138040112Y-83489800D02*
G75*
G02*
X137040112Y-83489800I-500000J0D01*
G01*
X137040112Y-83489800D02*
G75*
G02*
X138040112Y-83489800I500000J0D01*
G01*
D12*
%TO.C,C6*%
X134715000Y-60321252D02*
X134715000Y-59798748D01*
X136185000Y-60321252D02*
X136185000Y-59798748D01*
D10*
%TO.C,ICled215*%
X151648612Y-90070000D02*
X153548612Y-90070000D01*
X151648612Y-91970000D02*
X151648612Y-90070000D01*
X153348612Y-90870000D02*
X153348612Y-91170000D01*
X153348612Y-90870000D02*
X153548612Y-90870000D01*
X153348612Y-91170000D02*
X153548612Y-91170000D01*
X153548612Y-90070000D02*
X153548612Y-90870000D01*
X153548612Y-90870000D02*
X153548612Y-91170000D01*
X153548612Y-91170000D02*
X153548612Y-91970000D01*
X153548612Y-91970000D02*
X151648612Y-91970000D01*
X153098612Y-91020000D02*
G75*
G02*
X152098612Y-91020000I-500000J0D01*
G01*
X152098612Y-91020000D02*
G75*
G02*
X153098612Y-91020000I500000J0D01*
G01*
%TO.C,ICled90*%
X144119362Y-62460400D02*
X146019362Y-62460400D01*
X144119362Y-64360400D02*
X144119362Y-62460400D01*
X145819362Y-63260400D02*
X145819362Y-63560400D01*
X145819362Y-63260400D02*
X146019362Y-63260400D01*
X145819362Y-63560400D02*
X146019362Y-63560400D01*
X146019362Y-62460400D02*
X146019362Y-63260400D01*
X146019362Y-63260400D02*
X146019362Y-63560400D01*
X146019362Y-63560400D02*
X146019362Y-64360400D01*
X146019362Y-64360400D02*
X144119362Y-64360400D01*
X145569362Y-63410400D02*
G75*
G02*
X144569362Y-63410400I-500000J0D01*
G01*
X144569362Y-63410400D02*
G75*
G02*
X145569362Y-63410400I500000J0D01*
G01*
%TO.C,ICled175*%
X151648612Y-80030300D02*
X153548612Y-80030300D01*
X151648612Y-81930300D02*
X151648612Y-80030300D01*
X153348612Y-80830300D02*
X153348612Y-81130300D01*
X153348612Y-80830300D02*
X153548612Y-80830300D01*
X153348612Y-81130300D02*
X153548612Y-81130300D01*
X153548612Y-80030300D02*
X153548612Y-80830300D01*
X153548612Y-80830300D02*
X153548612Y-81130300D01*
X153548612Y-81130300D02*
X153548612Y-81930300D01*
X153548612Y-81930300D02*
X151648612Y-81930300D01*
X153098612Y-80980300D02*
G75*
G02*
X152098612Y-80980300I-500000J0D01*
G01*
X152098612Y-80980300D02*
G75*
G02*
X153098612Y-80980300I500000J0D01*
G01*
%TO.C,ICled43*%
X139099897Y-57439700D02*
X140999897Y-57439700D01*
X139099897Y-59339700D02*
X139099897Y-57439700D01*
X140799897Y-58239700D02*
X140799897Y-58539700D01*
X140799897Y-58239700D02*
X140999897Y-58239700D01*
X140799897Y-58539700D02*
X140999897Y-58539700D01*
X140999897Y-57439700D02*
X140999897Y-58239700D01*
X140999897Y-58239700D02*
X140999897Y-58539700D01*
X140999897Y-58539700D02*
X140999897Y-59339700D01*
X140999897Y-59339700D02*
X139099897Y-59339700D01*
X140549897Y-58389700D02*
G75*
G02*
X139549897Y-58389700I-500000J0D01*
G01*
X139549897Y-58389700D02*
G75*
G02*
X140549897Y-58389700I500000J0D01*
G01*
%TO.C,ICled147*%
X159177862Y-69990600D02*
X161077862Y-69990600D01*
X159177862Y-71890600D02*
X159177862Y-69990600D01*
X160877862Y-70790600D02*
X160877862Y-71090600D01*
X160877862Y-70790600D02*
X161077862Y-70790600D01*
X160877862Y-71090600D02*
X161077862Y-71090600D01*
X161077862Y-69990600D02*
X161077862Y-70790600D01*
X161077862Y-70790600D02*
X161077862Y-71090600D01*
X161077862Y-71090600D02*
X161077862Y-71890600D01*
X161077862Y-71890600D02*
X159177862Y-71890600D01*
X160627862Y-70940600D02*
G75*
G02*
X159627862Y-70940600I-500000J0D01*
G01*
X159627862Y-70940600D02*
G75*
G02*
X160627862Y-70940600I500000J0D01*
G01*
%TO.C,ICled58*%
X151648612Y-57439700D02*
X153548612Y-57439700D01*
X151648612Y-59339700D02*
X151648612Y-57439700D01*
X153348612Y-58239700D02*
X153348612Y-58539700D01*
X153348612Y-58239700D02*
X153548612Y-58239700D01*
X153348612Y-58539700D02*
X153548612Y-58539700D01*
X153548612Y-57439700D02*
X153548612Y-58239700D01*
X153548612Y-58239700D02*
X153548612Y-58539700D01*
X153548612Y-58539700D02*
X153548612Y-59339700D01*
X153548612Y-59339700D02*
X151648612Y-59339700D01*
X153098612Y-58389700D02*
G75*
G02*
X152098612Y-58389700I-500000J0D01*
G01*
X152098612Y-58389700D02*
G75*
G02*
X153098612Y-58389700I500000J0D01*
G01*
%TO.C,ICled131*%
X146629112Y-75009600D02*
X148529112Y-75009600D01*
X146629112Y-76909600D02*
X146629112Y-75009600D01*
X148329112Y-75809600D02*
X148329112Y-76109600D01*
X148329112Y-75809600D02*
X148529112Y-75809600D01*
X148329112Y-76109600D02*
X148529112Y-76109600D01*
X148529112Y-75009600D02*
X148529112Y-75809600D01*
X148529112Y-75809600D02*
X148529112Y-76109600D01*
X148529112Y-76109600D02*
X148529112Y-76909600D01*
X148529112Y-76909600D02*
X146629112Y-76909600D01*
X148079112Y-75959600D02*
G75*
G02*
X147079112Y-75959600I-500000J0D01*
G01*
X147079112Y-75959600D02*
G75*
G02*
X148079112Y-75959600I500000J0D01*
G01*
%TO.C,ICled192*%
X164197362Y-77520800D02*
X166097362Y-77520800D01*
X164197362Y-79420800D02*
X164197362Y-77520800D01*
X165897362Y-78320800D02*
X165897362Y-78620800D01*
X165897362Y-78320800D02*
X166097362Y-78320800D01*
X165897362Y-78620800D02*
X166097362Y-78620800D01*
X166097362Y-77520800D02*
X166097362Y-78320800D01*
X166097362Y-78320800D02*
X166097362Y-78620800D01*
X166097362Y-78620800D02*
X166097362Y-79420800D01*
X166097362Y-79420800D02*
X164197362Y-79420800D01*
X165647362Y-78470800D02*
G75*
G02*
X164647362Y-78470800I-500000J0D01*
G01*
X164647362Y-78470800D02*
G75*
G02*
X165647362Y-78470800I500000J0D01*
G01*
%TO.C,ICled164*%
X141609612Y-82539800D02*
X143509612Y-82539800D01*
X141609612Y-84439800D02*
X141609612Y-82539800D01*
X143309612Y-83339800D02*
X143309612Y-83639800D01*
X143309612Y-83339800D02*
X143509612Y-83339800D01*
X143309612Y-83639800D02*
X143509612Y-83639800D01*
X143509612Y-82539800D02*
X143509612Y-83339800D01*
X143509612Y-83339800D02*
X143509612Y-83639800D01*
X143509612Y-83639800D02*
X143509612Y-84439800D01*
X143509612Y-84439800D02*
X141609612Y-84439800D01*
X143059612Y-83489800D02*
G75*
G02*
X142059612Y-83489800I-500000J0D01*
G01*
X142059612Y-83489800D02*
G75*
G02*
X143059612Y-83489800I500000J0D01*
G01*
%TO.C,ICled98*%
X151648612Y-67479400D02*
X153548612Y-67479400D01*
X151648612Y-69379400D02*
X151648612Y-67479400D01*
X153348612Y-68279400D02*
X153348612Y-68579400D01*
X153348612Y-68279400D02*
X153548612Y-68279400D01*
X153348612Y-68579400D02*
X153548612Y-68579400D01*
X153548612Y-67479400D02*
X153548612Y-68279400D01*
X153548612Y-68279400D02*
X153548612Y-68579400D01*
X153548612Y-68579400D02*
X153548612Y-69379400D01*
X153548612Y-69379400D02*
X151648612Y-69379400D01*
X153098612Y-68429400D02*
G75*
G02*
X152098612Y-68429400I-500000J0D01*
G01*
X152098612Y-68429400D02*
G75*
G02*
X153098612Y-68429400I500000J0D01*
G01*
%TO.C,ICled21*%
X151648610Y-47400000D02*
X153548610Y-47400000D01*
X151648610Y-49300000D02*
X151648610Y-47400000D01*
X153348610Y-48200000D02*
X153348610Y-48500000D01*
X153348610Y-48200000D02*
X153548610Y-48200000D01*
X153348610Y-48500000D02*
X153548610Y-48500000D01*
X153548610Y-47400000D02*
X153548610Y-48200000D01*
X153548610Y-48200000D02*
X153548610Y-48500000D01*
X153548610Y-48500000D02*
X153548610Y-49300000D01*
X153548610Y-49300000D02*
X151648610Y-49300000D01*
X153098610Y-48350000D02*
G75*
G02*
X152098610Y-48350000I-500000J0D01*
G01*
X152098610Y-48350000D02*
G75*
G02*
X153098610Y-48350000I500000J0D01*
G01*
%TO.C,ICled79*%
X136590112Y-64969900D02*
X138490112Y-64969900D01*
X136590112Y-66869900D02*
X136590112Y-64969900D01*
X138290112Y-65769900D02*
X138290112Y-66069900D01*
X138290112Y-65769900D02*
X138490112Y-65769900D01*
X138290112Y-66069900D02*
X138490112Y-66069900D01*
X138490112Y-64969900D02*
X138490112Y-65769900D01*
X138490112Y-65769900D02*
X138490112Y-66069900D01*
X138490112Y-66069900D02*
X138490112Y-66869900D01*
X138490112Y-66869900D02*
X136590112Y-66869900D01*
X138040112Y-65919900D02*
G75*
G02*
X137040112Y-65919900I-500000J0D01*
G01*
X137040112Y-65919900D02*
G75*
G02*
X138040112Y-65919900I500000J0D01*
G01*
%TO.C,ICled25*%
X156668098Y-49909500D02*
X158568098Y-49909500D01*
X156668098Y-51809500D02*
X156668098Y-49909500D01*
X158368098Y-50709500D02*
X158368098Y-51009500D01*
X158368098Y-50709500D02*
X158568098Y-50709500D01*
X158368098Y-51009500D02*
X158568098Y-51009500D01*
X158568098Y-49909500D02*
X158568098Y-50709500D01*
X158568098Y-50709500D02*
X158568098Y-51009500D01*
X158568098Y-51009500D02*
X158568098Y-51809500D01*
X158568098Y-51809500D02*
X156668098Y-51809500D01*
X158118098Y-50859500D02*
G75*
G02*
X157118098Y-50859500I-500000J0D01*
G01*
X157118098Y-50859500D02*
G75*
G02*
X158118098Y-50859500I500000J0D01*
G01*
%TO.C,ICled6*%
X139100000Y-47400000D02*
X141000000Y-47400000D01*
X139100000Y-49300000D02*
X139100000Y-47400000D01*
X140800000Y-48200000D02*
X140800000Y-48500000D01*
X140800000Y-48200000D02*
X141000000Y-48200000D01*
X140800000Y-48500000D02*
X141000000Y-48500000D01*
X141000000Y-47400000D02*
X141000000Y-48200000D01*
X141000000Y-48200000D02*
X141000000Y-48500000D01*
X141000000Y-48500000D02*
X141000000Y-49300000D01*
X141000000Y-49300000D02*
X139100000Y-49300000D01*
X140550000Y-48350000D02*
G75*
G02*
X139550000Y-48350000I-500000J0D01*
G01*
X139550000Y-48350000D02*
G75*
G02*
X140550000Y-48350000I500000J0D01*
G01*
%TO.C,ICled84*%
X139099862Y-62460400D02*
X140999862Y-62460400D01*
X139099862Y-64360400D02*
X139099862Y-62460400D01*
X140799862Y-63260400D02*
X140799862Y-63560400D01*
X140799862Y-63260400D02*
X140999862Y-63260400D01*
X140799862Y-63560400D02*
X140999862Y-63560400D01*
X140999862Y-62460400D02*
X140999862Y-63260400D01*
X140999862Y-63260400D02*
X140999862Y-63560400D01*
X140999862Y-63560400D02*
X140999862Y-64360400D01*
X140999862Y-64360400D02*
X139099862Y-64360400D01*
X140549862Y-63410400D02*
G75*
G02*
X139549862Y-63410400I-500000J0D01*
G01*
X139549862Y-63410400D02*
G75*
G02*
X140549862Y-63410400I500000J0D01*
G01*
%TO.C,ICled107*%
X159177862Y-67479400D02*
X161077862Y-67479400D01*
X159177862Y-69379400D02*
X159177862Y-67479400D01*
X160877862Y-68279400D02*
X160877862Y-68579400D01*
X160877862Y-68279400D02*
X161077862Y-68279400D01*
X160877862Y-68579400D02*
X161077862Y-68579400D01*
X161077862Y-67479400D02*
X161077862Y-68279400D01*
X161077862Y-68279400D02*
X161077862Y-68579400D01*
X161077862Y-68579400D02*
X161077862Y-69379400D01*
X161077862Y-69379400D02*
X159177862Y-69379400D01*
X160627862Y-68429400D02*
G75*
G02*
X159627862Y-68429400I-500000J0D01*
G01*
X159627862Y-68429400D02*
G75*
G02*
X160627862Y-68429400I500000J0D01*
G01*
%TO.C,ICled26*%
X156668112Y-52419000D02*
X158568112Y-52419000D01*
X156668112Y-54319000D02*
X156668112Y-52419000D01*
X158368112Y-53219000D02*
X158368112Y-53519000D01*
X158368112Y-53219000D02*
X158568112Y-53219000D01*
X158368112Y-53519000D02*
X158568112Y-53519000D01*
X158568112Y-52419000D02*
X158568112Y-53219000D01*
X158568112Y-53219000D02*
X158568112Y-53519000D01*
X158568112Y-53519000D02*
X158568112Y-54319000D01*
X158568112Y-54319000D02*
X156668112Y-54319000D01*
X158118112Y-53369000D02*
G75*
G02*
X157118112Y-53369000I-500000J0D01*
G01*
X157118112Y-53369000D02*
G75*
G02*
X158118112Y-53369000I500000J0D01*
G01*
%TO.C,ICled40*%
X136590154Y-57439700D02*
X138490154Y-57439700D01*
X136590154Y-59339700D02*
X136590154Y-57439700D01*
X138290154Y-58239700D02*
X138290154Y-58539700D01*
X138290154Y-58239700D02*
X138490154Y-58239700D01*
X138290154Y-58539700D02*
X138490154Y-58539700D01*
X138490154Y-57439700D02*
X138490154Y-58239700D01*
X138490154Y-58239700D02*
X138490154Y-58539700D01*
X138490154Y-58539700D02*
X138490154Y-59339700D01*
X138490154Y-59339700D02*
X136590154Y-59339700D01*
X138040154Y-58389700D02*
G75*
G02*
X137040154Y-58389700I-500000J0D01*
G01*
X137040154Y-58389700D02*
G75*
G02*
X138040154Y-58389700I500000J0D01*
G01*
%TO.C,ICled123*%
X139099862Y-69990600D02*
X140999862Y-69990600D01*
X139099862Y-71890600D02*
X139099862Y-69990600D01*
X140799862Y-70790600D02*
X140799862Y-71090600D01*
X140799862Y-70790600D02*
X140999862Y-70790600D01*
X140799862Y-71090600D02*
X140999862Y-71090600D01*
X140999862Y-69990600D02*
X140999862Y-70790600D01*
X140999862Y-70790600D02*
X140999862Y-71090600D01*
X140999862Y-71090600D02*
X140999862Y-71890600D01*
X140999862Y-71890600D02*
X139099862Y-71890600D01*
X140549862Y-70940600D02*
G75*
G02*
X139549862Y-70940600I-500000J0D01*
G01*
X139549862Y-70940600D02*
G75*
G02*
X140549862Y-70940600I500000J0D01*
G01*
%TO.C,ICled60*%
X151648608Y-54930200D02*
X153548608Y-54930200D01*
X151648608Y-56830200D02*
X151648608Y-54930200D01*
X153348608Y-55730200D02*
X153348608Y-56030200D01*
X153348608Y-55730200D02*
X153548608Y-55730200D01*
X153348608Y-56030200D02*
X153548608Y-56030200D01*
X153548608Y-54930200D02*
X153548608Y-55730200D01*
X153548608Y-55730200D02*
X153548608Y-56030200D01*
X153548608Y-56030200D02*
X153548608Y-56830200D01*
X153548608Y-56830200D02*
X151648608Y-56830200D01*
X153098608Y-55880200D02*
G75*
G02*
X152098608Y-55880200I-500000J0D01*
G01*
X152098608Y-55880200D02*
G75*
G02*
X153098608Y-55880200I500000J0D01*
G01*
%TO.C,ICled195*%
X166707112Y-82539800D02*
X168607112Y-82539800D01*
X166707112Y-84439800D02*
X166707112Y-82539800D01*
X168407112Y-83339800D02*
X168407112Y-83639800D01*
X168407112Y-83339800D02*
X168607112Y-83339800D01*
X168407112Y-83639800D02*
X168607112Y-83639800D01*
X168607112Y-82539800D02*
X168607112Y-83339800D01*
X168607112Y-83339800D02*
X168607112Y-83639800D01*
X168607112Y-83639800D02*
X168607112Y-84439800D01*
X168607112Y-84439800D02*
X166707112Y-84439800D01*
X168157112Y-83489800D02*
G75*
G02*
X167157112Y-83489800I-500000J0D01*
G01*
X167157112Y-83489800D02*
G75*
G02*
X168157112Y-83489800I500000J0D01*
G01*
%TO.C,ICled217*%
X154158362Y-87560500D02*
X156058362Y-87560500D01*
X154158362Y-89460500D02*
X154158362Y-87560500D01*
X155858362Y-88360500D02*
X155858362Y-88660500D01*
X155858362Y-88360500D02*
X156058362Y-88360500D01*
X155858362Y-88660500D02*
X156058362Y-88660500D01*
X156058362Y-87560500D02*
X156058362Y-88360500D01*
X156058362Y-88360500D02*
X156058362Y-88660500D01*
X156058362Y-88660500D02*
X156058362Y-89460500D01*
X156058362Y-89460500D02*
X154158362Y-89460500D01*
X155608362Y-88510500D02*
G75*
G02*
X154608362Y-88510500I-500000J0D01*
G01*
X154608362Y-88510500D02*
G75*
G02*
X155608362Y-88510500I500000J0D01*
G01*
%TO.C,ICled18*%
X149138888Y-47400000D02*
X151038888Y-47400000D01*
X149138888Y-49300000D02*
X149138888Y-47400000D01*
X150838888Y-48200000D02*
X150838888Y-48500000D01*
X150838888Y-48200000D02*
X151038888Y-48200000D01*
X150838888Y-48500000D02*
X151038888Y-48500000D01*
X151038888Y-47400000D02*
X151038888Y-48200000D01*
X151038888Y-48200000D02*
X151038888Y-48500000D01*
X151038888Y-48500000D02*
X151038888Y-49300000D01*
X151038888Y-49300000D02*
X149138888Y-49300000D01*
X150588888Y-48350000D02*
G75*
G02*
X149588888Y-48350000I-500000J0D01*
G01*
X149588888Y-48350000D02*
G75*
G02*
X150588888Y-48350000I500000J0D01*
G01*
%TO.C,ICled114*%
X164197362Y-62460400D02*
X166097362Y-62460400D01*
X164197362Y-64360400D02*
X164197362Y-62460400D01*
X165897362Y-63260400D02*
X165897362Y-63560400D01*
X165897362Y-63260400D02*
X166097362Y-63260400D01*
X165897362Y-63560400D02*
X166097362Y-63560400D01*
X166097362Y-62460400D02*
X166097362Y-63260400D01*
X166097362Y-63260400D02*
X166097362Y-63560400D01*
X166097362Y-63560400D02*
X166097362Y-64360400D01*
X166097362Y-64360400D02*
X164197362Y-64360400D01*
X165647362Y-63410400D02*
G75*
G02*
X164647362Y-63410400I-500000J0D01*
G01*
X164647362Y-63410400D02*
G75*
G02*
X165647362Y-63410400I500000J0D01*
G01*
%TO.C,ICled75*%
X164197563Y-54930200D02*
X166097563Y-54930200D01*
X164197563Y-56830200D02*
X164197563Y-54930200D01*
X165897563Y-55730200D02*
X165897563Y-56030200D01*
X165897563Y-55730200D02*
X166097563Y-55730200D01*
X165897563Y-56030200D02*
X166097563Y-56030200D01*
X166097563Y-54930200D02*
X166097563Y-55730200D01*
X166097563Y-55730200D02*
X166097563Y-56030200D01*
X166097563Y-56030200D02*
X166097563Y-56830200D01*
X166097563Y-56830200D02*
X164197563Y-56830200D01*
X165647563Y-55880200D02*
G75*
G02*
X164647563Y-55880200I-500000J0D01*
G01*
X164647563Y-55880200D02*
G75*
G02*
X165647563Y-55880200I500000J0D01*
G01*
%TO.C,ICled161*%
X139099862Y-82539800D02*
X140999862Y-82539800D01*
X139099862Y-84439800D02*
X139099862Y-82539800D01*
X140799862Y-83339800D02*
X140799862Y-83639800D01*
X140799862Y-83339800D02*
X140999862Y-83339800D01*
X140799862Y-83639800D02*
X140999862Y-83639800D01*
X140999862Y-82539800D02*
X140999862Y-83339800D01*
X140999862Y-83339800D02*
X140999862Y-83639800D01*
X140999862Y-83639800D02*
X140999862Y-84439800D01*
X140999862Y-84439800D02*
X139099862Y-84439800D01*
X140549862Y-83489800D02*
G75*
G02*
X139549862Y-83489800I-500000J0D01*
G01*
X139549862Y-83489800D02*
G75*
G02*
X140549862Y-83489800I500000J0D01*
G01*
%TO.C,ICled63*%
X154158399Y-54930200D02*
X156058399Y-54930200D01*
X154158399Y-56830200D02*
X154158399Y-54930200D01*
X155858399Y-55730200D02*
X155858399Y-56030200D01*
X155858399Y-55730200D02*
X156058399Y-55730200D01*
X155858399Y-56030200D02*
X156058399Y-56030200D01*
X156058399Y-54930200D02*
X156058399Y-55730200D01*
X156058399Y-55730200D02*
X156058399Y-56030200D01*
X156058399Y-56030200D02*
X156058399Y-56830200D01*
X156058399Y-56830200D02*
X154158399Y-56830200D01*
X155608399Y-55880200D02*
G75*
G02*
X154608399Y-55880200I-500000J0D01*
G01*
X154608399Y-55880200D02*
G75*
G02*
X155608399Y-55880200I500000J0D01*
G01*
%TO.C,ICled173*%
X149138862Y-82539800D02*
X151038862Y-82539800D01*
X149138862Y-84439800D02*
X149138862Y-82539800D01*
X150838862Y-83339800D02*
X150838862Y-83639800D01*
X150838862Y-83339800D02*
X151038862Y-83339800D01*
X150838862Y-83639800D02*
X151038862Y-83639800D01*
X151038862Y-82539800D02*
X151038862Y-83339800D01*
X151038862Y-83339800D02*
X151038862Y-83639800D01*
X151038862Y-83639800D02*
X151038862Y-84439800D01*
X151038862Y-84439800D02*
X149138862Y-84439800D01*
X150588862Y-83489800D02*
G75*
G02*
X149588862Y-83489800I-500000J0D01*
G01*
X149588862Y-83489800D02*
G75*
G02*
X150588862Y-83489800I500000J0D01*
G01*
%TO.C,ICled221*%
X156668112Y-90070000D02*
X158568112Y-90070000D01*
X156668112Y-91970000D02*
X156668112Y-90070000D01*
X158368112Y-90870000D02*
X158368112Y-91170000D01*
X158368112Y-90870000D02*
X158568112Y-90870000D01*
X158368112Y-91170000D02*
X158568112Y-91170000D01*
X158568112Y-90070000D02*
X158568112Y-90870000D01*
X158568112Y-90870000D02*
X158568112Y-91170000D01*
X158568112Y-91170000D02*
X158568112Y-91970000D01*
X158568112Y-91970000D02*
X156668112Y-91970000D01*
X158118112Y-91020000D02*
G75*
G02*
X157118112Y-91020000I-500000J0D01*
G01*
X157118112Y-91020000D02*
G75*
G02*
X158118112Y-91020000I500000J0D01*
G01*
%TO.C,ICled86*%
X141609612Y-67479400D02*
X143509612Y-67479400D01*
X141609612Y-69379400D02*
X141609612Y-67479400D01*
X143309612Y-68279400D02*
X143309612Y-68579400D01*
X143309612Y-68279400D02*
X143509612Y-68279400D01*
X143309612Y-68579400D02*
X143509612Y-68579400D01*
X143509612Y-67479400D02*
X143509612Y-68279400D01*
X143509612Y-68279400D02*
X143509612Y-68579400D01*
X143509612Y-68579400D02*
X143509612Y-69379400D01*
X143509612Y-69379400D02*
X141609612Y-69379400D01*
X143059612Y-68429400D02*
G75*
G02*
X142059612Y-68429400I-500000J0D01*
G01*
X142059612Y-68429400D02*
G75*
G02*
X143059612Y-68429400I500000J0D01*
G01*
%TO.C,ICled48*%
X141609444Y-54930200D02*
X143509444Y-54930200D01*
X141609444Y-56830200D02*
X141609444Y-54930200D01*
X143309444Y-55730200D02*
X143309444Y-56030200D01*
X143309444Y-55730200D02*
X143509444Y-55730200D01*
X143309444Y-56030200D02*
X143509444Y-56030200D01*
X143509444Y-54930200D02*
X143509444Y-55730200D01*
X143509444Y-55730200D02*
X143509444Y-56030200D01*
X143509444Y-56030200D02*
X143509444Y-56830200D01*
X143509444Y-56830200D02*
X141609444Y-56830200D01*
X143059444Y-55880200D02*
G75*
G02*
X142059444Y-55880200I-500000J0D01*
G01*
X142059444Y-55880200D02*
G75*
G02*
X143059444Y-55880200I500000J0D01*
G01*
%TO.C,ICled212*%
X149138862Y-90070000D02*
X151038862Y-90070000D01*
X149138862Y-91970000D02*
X149138862Y-90070000D01*
X150838862Y-90870000D02*
X150838862Y-91170000D01*
X150838862Y-90870000D02*
X151038862Y-90870000D01*
X150838862Y-91170000D02*
X151038862Y-91170000D01*
X151038862Y-90070000D02*
X151038862Y-90870000D01*
X151038862Y-90870000D02*
X151038862Y-91170000D01*
X151038862Y-91170000D02*
X151038862Y-91970000D01*
X151038862Y-91970000D02*
X149138862Y-91970000D01*
X150588862Y-91020000D02*
G75*
G02*
X149588862Y-91020000I-500000J0D01*
G01*
X149588862Y-91020000D02*
G75*
G02*
X150588862Y-91020000I500000J0D01*
G01*
%TO.C,ICled132*%
X146629112Y-69990600D02*
X148529112Y-69990600D01*
X146629112Y-71890600D02*
X146629112Y-69990600D01*
X148329112Y-70790600D02*
X148329112Y-71090600D01*
X148329112Y-70790600D02*
X148529112Y-70790600D01*
X148329112Y-71090600D02*
X148529112Y-71090600D01*
X148529112Y-69990600D02*
X148529112Y-70790600D01*
X148529112Y-70790600D02*
X148529112Y-71090600D01*
X148529112Y-71090600D02*
X148529112Y-71890600D01*
X148529112Y-71890600D02*
X146629112Y-71890600D01*
X148079112Y-70940600D02*
G75*
G02*
X147079112Y-70940600I-500000J0D01*
G01*
X147079112Y-70940600D02*
G75*
G02*
X148079112Y-70940600I500000J0D01*
G01*
%TO.C,ICled149*%
X161687612Y-75009600D02*
X163587612Y-75009600D01*
X161687612Y-76909600D02*
X161687612Y-75009600D01*
X163387612Y-75809600D02*
X163387612Y-76109600D01*
X163387612Y-75809600D02*
X163587612Y-75809600D01*
X163387612Y-76109600D02*
X163587612Y-76109600D01*
X163587612Y-75009600D02*
X163587612Y-75809600D01*
X163587612Y-75809600D02*
X163587612Y-76109600D01*
X163587612Y-76109600D02*
X163587612Y-76909600D01*
X163587612Y-76909600D02*
X161687612Y-76909600D01*
X163137612Y-75959600D02*
G75*
G02*
X162137612Y-75959600I-500000J0D01*
G01*
X162137612Y-75959600D02*
G75*
G02*
X163137612Y-75959600I500000J0D01*
G01*
%TO.C,ICled184*%
X159177862Y-80030300D02*
X161077862Y-80030300D01*
X159177862Y-81930300D02*
X159177862Y-80030300D01*
X160877862Y-80830300D02*
X160877862Y-81130300D01*
X160877862Y-80830300D02*
X161077862Y-80830300D01*
X160877862Y-81130300D02*
X161077862Y-81130300D01*
X161077862Y-80030300D02*
X161077862Y-80830300D01*
X161077862Y-80830300D02*
X161077862Y-81130300D01*
X161077862Y-81130300D02*
X161077862Y-81930300D01*
X161077862Y-81930300D02*
X159177862Y-81930300D01*
X160627862Y-80980300D02*
G75*
G02*
X159627862Y-80980300I-500000J0D01*
G01*
X159627862Y-80980300D02*
G75*
G02*
X160627862Y-80980300I500000J0D01*
G01*
%TO.C,ICled196*%
X136590112Y-87560500D02*
X138490112Y-87560500D01*
X136590112Y-89460500D02*
X136590112Y-87560500D01*
X138290112Y-88360500D02*
X138290112Y-88660500D01*
X138290112Y-88360500D02*
X138490112Y-88360500D01*
X138290112Y-88660500D02*
X138490112Y-88660500D01*
X138490112Y-87560500D02*
X138490112Y-88360500D01*
X138490112Y-88360500D02*
X138490112Y-88660500D01*
X138490112Y-88660500D02*
X138490112Y-89460500D01*
X138490112Y-89460500D02*
X136590112Y-89460500D01*
X138040112Y-88510500D02*
G75*
G02*
X137040112Y-88510500I-500000J0D01*
G01*
X137040112Y-88510500D02*
G75*
G02*
X138040112Y-88510500I500000J0D01*
G01*
D12*
%TO.C,C1*%
X139831252Y-45465000D02*
X139308748Y-45465000D01*
X139831252Y-46935000D02*
X139308748Y-46935000D01*
D10*
%TO.C,ICled36*%
X164197220Y-47400000D02*
X166097220Y-47400000D01*
X164197220Y-49300000D02*
X164197220Y-47400000D01*
X165897220Y-48200000D02*
X165897220Y-48500000D01*
X165897220Y-48200000D02*
X166097220Y-48200000D01*
X165897220Y-48500000D02*
X166097220Y-48500000D01*
X166097220Y-47400000D02*
X166097220Y-48200000D01*
X166097220Y-48200000D02*
X166097220Y-48500000D01*
X166097220Y-48500000D02*
X166097220Y-49300000D01*
X166097220Y-49300000D02*
X164197220Y-49300000D01*
X165647220Y-48350000D02*
G75*
G02*
X164647220Y-48350000I-500000J0D01*
G01*
X164647220Y-48350000D02*
G75*
G02*
X165647220Y-48350000I500000J0D01*
G01*
%TO.C,ICled122*%
X139099862Y-75009600D02*
X140999862Y-75009600D01*
X139099862Y-76909600D02*
X139099862Y-75009600D01*
X140799862Y-75809600D02*
X140799862Y-76109600D01*
X140799862Y-75809600D02*
X140999862Y-75809600D01*
X140799862Y-76109600D02*
X140999862Y-76109600D01*
X140999862Y-75009600D02*
X140999862Y-75809600D01*
X140999862Y-75809600D02*
X140999862Y-76109600D01*
X140999862Y-76109600D02*
X140999862Y-76909600D01*
X140999862Y-76909600D02*
X139099862Y-76909600D01*
X140549862Y-75959600D02*
G75*
G02*
X139549862Y-75959600I-500000J0D01*
G01*
X139549862Y-75959600D02*
G75*
G02*
X140549862Y-75959600I500000J0D01*
G01*
%TO.C,ICled124*%
X141609612Y-72500100D02*
X143509612Y-72500100D01*
X141609612Y-74400100D02*
X141609612Y-72500100D01*
X143309612Y-73300100D02*
X143309612Y-73600100D01*
X143309612Y-73300100D02*
X143509612Y-73300100D01*
X143309612Y-73600100D02*
X143509612Y-73600100D01*
X143509612Y-72500100D02*
X143509612Y-73300100D01*
X143509612Y-73300100D02*
X143509612Y-73600100D01*
X143509612Y-73600100D02*
X143509612Y-74400100D01*
X143509612Y-74400100D02*
X141609612Y-74400100D01*
X143059612Y-73450100D02*
G75*
G02*
X142059612Y-73450100I-500000J0D01*
G01*
X142059612Y-73450100D02*
G75*
G02*
X143059612Y-73450100I500000J0D01*
G01*
%TO.C,ICled203*%
X141609612Y-90070000D02*
X143509612Y-90070000D01*
X141609612Y-91970000D02*
X141609612Y-90070000D01*
X143309612Y-90870000D02*
X143309612Y-91170000D01*
X143309612Y-90870000D02*
X143509612Y-90870000D01*
X143309612Y-91170000D02*
X143509612Y-91170000D01*
X143509612Y-90070000D02*
X143509612Y-90870000D01*
X143509612Y-90870000D02*
X143509612Y-91170000D01*
X143509612Y-91170000D02*
X143509612Y-91970000D01*
X143509612Y-91970000D02*
X141609612Y-91970000D01*
X143059612Y-91020000D02*
G75*
G02*
X142059612Y-91020000I-500000J0D01*
G01*
X142059612Y-91020000D02*
G75*
G02*
X143059612Y-91020000I500000J0D01*
G01*
%TO.C,ICled194*%
X166707112Y-80030300D02*
X168607112Y-80030300D01*
X166707112Y-81930300D02*
X166707112Y-80030300D01*
X168407112Y-80830300D02*
X168407112Y-81130300D01*
X168407112Y-80830300D02*
X168607112Y-80830300D01*
X168407112Y-81130300D02*
X168607112Y-81130300D01*
X168607112Y-80030300D02*
X168607112Y-80830300D01*
X168607112Y-80830300D02*
X168607112Y-81130300D01*
X168607112Y-81130300D02*
X168607112Y-81930300D01*
X168607112Y-81930300D02*
X166707112Y-81930300D01*
X168157112Y-80980300D02*
G75*
G02*
X167157112Y-80980300I-500000J0D01*
G01*
X167157112Y-80980300D02*
G75*
G02*
X168157112Y-80980300I500000J0D01*
G01*
%TO.C,ICled50*%
X144119362Y-59949200D02*
X146019362Y-59949200D01*
X144119362Y-61849200D02*
X144119362Y-59949200D01*
X145819362Y-60749200D02*
X145819362Y-61049200D01*
X145819362Y-60749200D02*
X146019362Y-60749200D01*
X145819362Y-61049200D02*
X146019362Y-61049200D01*
X146019362Y-59949200D02*
X146019362Y-60749200D01*
X146019362Y-60749200D02*
X146019362Y-61049200D01*
X146019362Y-61049200D02*
X146019362Y-61849200D01*
X146019362Y-61849200D02*
X144119362Y-61849200D01*
X145569362Y-60899200D02*
G75*
G02*
X144569362Y-60899200I-500000J0D01*
G01*
X144569362Y-60899200D02*
G75*
G02*
X145569362Y-60899200I500000J0D01*
G01*
%TO.C,ICled111*%
X161687612Y-62460400D02*
X163587612Y-62460400D01*
X161687612Y-64360400D02*
X161687612Y-62460400D01*
X163387612Y-63260400D02*
X163387612Y-63560400D01*
X163387612Y-63260400D02*
X163587612Y-63260400D01*
X163387612Y-63560400D02*
X163587612Y-63560400D01*
X163587612Y-62460400D02*
X163587612Y-63260400D01*
X163587612Y-63260400D02*
X163587612Y-63560400D01*
X163587612Y-63560400D02*
X163587612Y-64360400D01*
X163587612Y-64360400D02*
X161687612Y-64360400D01*
X163137612Y-63410400D02*
G75*
G02*
X162137612Y-63410400I-500000J0D01*
G01*
X162137612Y-63410400D02*
G75*
G02*
X163137612Y-63410400I500000J0D01*
G01*
%TO.C,ICled73*%
X164197327Y-57439700D02*
X166097327Y-57439700D01*
X164197327Y-59339700D02*
X164197327Y-57439700D01*
X165897327Y-58239700D02*
X165897327Y-58539700D01*
X165897327Y-58239700D02*
X166097327Y-58239700D01*
X165897327Y-58539700D02*
X166097327Y-58539700D01*
X166097327Y-57439700D02*
X166097327Y-58239700D01*
X166097327Y-58239700D02*
X166097327Y-58539700D01*
X166097327Y-58539700D02*
X166097327Y-59339700D01*
X166097327Y-59339700D02*
X164197327Y-59339700D01*
X165647327Y-58389700D02*
G75*
G02*
X164647327Y-58389700I-500000J0D01*
G01*
X164647327Y-58389700D02*
G75*
G02*
X165647327Y-58389700I500000J0D01*
G01*
%TO.C,ICled202*%
X141609612Y-87560500D02*
X143509612Y-87560500D01*
X141609612Y-89460500D02*
X141609612Y-87560500D01*
X143309612Y-88360500D02*
X143309612Y-88660500D01*
X143309612Y-88360500D02*
X143509612Y-88360500D01*
X143309612Y-88660500D02*
X143509612Y-88660500D01*
X143509612Y-87560500D02*
X143509612Y-88360500D01*
X143509612Y-88360500D02*
X143509612Y-88660500D01*
X143509612Y-88660500D02*
X143509612Y-89460500D01*
X143509612Y-89460500D02*
X141609612Y-89460500D01*
X143059612Y-88510500D02*
G75*
G02*
X142059612Y-88510500I-500000J0D01*
G01*
X142059612Y-88510500D02*
G75*
G02*
X143059612Y-88510500I500000J0D01*
G01*
%TO.C,ICled47*%
X141609612Y-59949200D02*
X143509612Y-59949200D01*
X141609612Y-61849200D02*
X141609612Y-59949200D01*
X143309612Y-60749200D02*
X143309612Y-61049200D01*
X143309612Y-60749200D02*
X143509612Y-60749200D01*
X143309612Y-61049200D02*
X143509612Y-61049200D01*
X143509612Y-59949200D02*
X143509612Y-60749200D01*
X143509612Y-60749200D02*
X143509612Y-61049200D01*
X143509612Y-61049200D02*
X143509612Y-61849200D01*
X143509612Y-61849200D02*
X141609612Y-61849200D01*
X143059612Y-60899200D02*
G75*
G02*
X142059612Y-60899200I-500000J0D01*
G01*
X142059612Y-60899200D02*
G75*
G02*
X143059612Y-60899200I500000J0D01*
G01*
%TO.C,ICled9*%
X141609722Y-47400000D02*
X143509722Y-47400000D01*
X141609722Y-49300000D02*
X141609722Y-47400000D01*
X143309722Y-48200000D02*
X143309722Y-48500000D01*
X143309722Y-48200000D02*
X143509722Y-48200000D01*
X143309722Y-48500000D02*
X143509722Y-48500000D01*
X143509722Y-47400000D02*
X143509722Y-48200000D01*
X143509722Y-48200000D02*
X143509722Y-48500000D01*
X143509722Y-48500000D02*
X143509722Y-49300000D01*
X143509722Y-49300000D02*
X141609722Y-49300000D01*
X143059722Y-48350000D02*
G75*
G02*
X142059722Y-48350000I-500000J0D01*
G01*
X142059722Y-48350000D02*
G75*
G02*
X143059722Y-48350000I500000J0D01*
G01*
D12*
%TO.C,C5*%
X169065000Y-59798748D02*
X169065000Y-60321252D01*
X170535000Y-59798748D02*
X170535000Y-60321252D01*
D10*
%TO.C,ICled162*%
X139099862Y-77520800D02*
X140999862Y-77520800D01*
X139099862Y-79420800D02*
X139099862Y-77520800D01*
X140799862Y-78320800D02*
X140799862Y-78620800D01*
X140799862Y-78320800D02*
X140999862Y-78320800D01*
X140799862Y-78620800D02*
X140999862Y-78620800D01*
X140999862Y-77520800D02*
X140999862Y-78320800D01*
X140999862Y-78320800D02*
X140999862Y-78620800D01*
X140999862Y-78620800D02*
X140999862Y-79420800D01*
X140999862Y-79420800D02*
X139099862Y-79420800D01*
X140549862Y-78470800D02*
G75*
G02*
X139549862Y-78470800I-500000J0D01*
G01*
X139549862Y-78470800D02*
G75*
G02*
X140549862Y-78470800I500000J0D01*
G01*
%TO.C,ICled178*%
X154158362Y-80030300D02*
X156058362Y-80030300D01*
X154158362Y-81930300D02*
X154158362Y-80030300D01*
X155858362Y-80830300D02*
X155858362Y-81130300D01*
X155858362Y-80830300D02*
X156058362Y-80830300D01*
X155858362Y-81130300D02*
X156058362Y-81130300D01*
X156058362Y-80030300D02*
X156058362Y-80830300D01*
X156058362Y-80830300D02*
X156058362Y-81130300D01*
X156058362Y-81130300D02*
X156058362Y-81930300D01*
X156058362Y-81930300D02*
X154158362Y-81930300D01*
X155608362Y-80980300D02*
G75*
G02*
X154608362Y-80980300I-500000J0D01*
G01*
X154608362Y-80980300D02*
G75*
G02*
X155608362Y-80980300I500000J0D01*
G01*
%TO.C,ICled54*%
X146629026Y-54930200D02*
X148529026Y-54930200D01*
X146629026Y-56830200D02*
X146629026Y-54930200D01*
X148329026Y-55730200D02*
X148329026Y-56030200D01*
X148329026Y-55730200D02*
X148529026Y-55730200D01*
X148329026Y-56030200D02*
X148529026Y-56030200D01*
X148529026Y-54930200D02*
X148529026Y-55730200D01*
X148529026Y-55730200D02*
X148529026Y-56030200D01*
X148529026Y-56030200D02*
X148529026Y-56830200D01*
X148529026Y-56830200D02*
X146629026Y-56830200D01*
X148079026Y-55880200D02*
G75*
G02*
X147079026Y-55880200I-500000J0D01*
G01*
X147079026Y-55880200D02*
G75*
G02*
X148079026Y-55880200I500000J0D01*
G01*
%TO.C,ICled156*%
X166707112Y-75009600D02*
X168607112Y-75009600D01*
X166707112Y-76909600D02*
X166707112Y-75009600D01*
X168407112Y-75809600D02*
X168407112Y-76109600D01*
X168407112Y-75809600D02*
X168607112Y-75809600D01*
X168407112Y-76109600D02*
X168607112Y-76109600D01*
X168607112Y-75009600D02*
X168607112Y-75809600D01*
X168607112Y-75809600D02*
X168607112Y-76109600D01*
X168607112Y-76109600D02*
X168607112Y-76909600D01*
X168607112Y-76909600D02*
X166707112Y-76909600D01*
X168157112Y-75959600D02*
G75*
G02*
X167157112Y-75959600I-500000J0D01*
G01*
X167157112Y-75959600D02*
G75*
G02*
X168157112Y-75959600I500000J0D01*
G01*
%TO.C,ICled104*%
X156668112Y-67479400D02*
X158568112Y-67479400D01*
X156668112Y-69379400D02*
X156668112Y-67479400D01*
X158368112Y-68279400D02*
X158368112Y-68579400D01*
X158368112Y-68279400D02*
X158568112Y-68279400D01*
X158368112Y-68579400D02*
X158568112Y-68579400D01*
X158568112Y-67479400D02*
X158568112Y-68279400D01*
X158568112Y-68279400D02*
X158568112Y-68579400D01*
X158568112Y-68579400D02*
X158568112Y-69379400D01*
X158568112Y-69379400D02*
X156668112Y-69379400D01*
X158118112Y-68429400D02*
G75*
G02*
X157118112Y-68429400I-500000J0D01*
G01*
X157118112Y-68429400D02*
G75*
G02*
X158118112Y-68429400I500000J0D01*
G01*
%TO.C,ICled12*%
X144119444Y-47400000D02*
X146019444Y-47400000D01*
X144119444Y-49300000D02*
X144119444Y-47400000D01*
X145819444Y-48200000D02*
X145819444Y-48500000D01*
X145819444Y-48200000D02*
X146019444Y-48200000D01*
X145819444Y-48500000D02*
X146019444Y-48500000D01*
X146019444Y-47400000D02*
X146019444Y-48200000D01*
X146019444Y-48200000D02*
X146019444Y-48500000D01*
X146019444Y-48500000D02*
X146019444Y-49300000D01*
X146019444Y-49300000D02*
X144119444Y-49300000D01*
X145569444Y-48350000D02*
G75*
G02*
X144569444Y-48350000I-500000J0D01*
G01*
X144569444Y-48350000D02*
G75*
G02*
X145569444Y-48350000I500000J0D01*
G01*
D12*
%TO.C,C12*%
X169065000Y-80163748D02*
X169065000Y-80686252D01*
X170535000Y-80163748D02*
X170535000Y-80686252D01*
D10*
%TO.C,ICled17*%
X149138862Y-52419000D02*
X151038862Y-52419000D01*
X149138862Y-54319000D02*
X149138862Y-52419000D01*
X150838862Y-53219000D02*
X150838862Y-53519000D01*
X150838862Y-53219000D02*
X151038862Y-53219000D01*
X150838862Y-53519000D02*
X151038862Y-53519000D01*
X151038862Y-52419000D02*
X151038862Y-53219000D01*
X151038862Y-53219000D02*
X151038862Y-53519000D01*
X151038862Y-53519000D02*
X151038862Y-54319000D01*
X151038862Y-54319000D02*
X149138862Y-54319000D01*
X150588862Y-53369000D02*
G75*
G02*
X149588862Y-53369000I-500000J0D01*
G01*
X149588862Y-53369000D02*
G75*
G02*
X150588862Y-53369000I500000J0D01*
G01*
%TO.C,ICled16*%
X149138869Y-49909500D02*
X151038869Y-49909500D01*
X149138869Y-51809500D02*
X149138869Y-49909500D01*
X150838869Y-50709500D02*
X150838869Y-51009500D01*
X150838869Y-50709500D02*
X151038869Y-50709500D01*
X150838869Y-51009500D02*
X151038869Y-51009500D01*
X151038869Y-49909500D02*
X151038869Y-50709500D01*
X151038869Y-50709500D02*
X151038869Y-51009500D01*
X151038869Y-51009500D02*
X151038869Y-51809500D01*
X151038869Y-51809500D02*
X149138869Y-51809500D01*
X150588869Y-50859500D02*
G75*
G02*
X149588869Y-50859500I-500000J0D01*
G01*
X149588869Y-50859500D02*
G75*
G02*
X150588869Y-50859500I500000J0D01*
G01*
%TO.C,ICled95*%
X149138862Y-67479400D02*
X151038862Y-67479400D01*
X149138862Y-69379400D02*
X149138862Y-67479400D01*
X150838862Y-68279400D02*
X150838862Y-68579400D01*
X150838862Y-68279400D02*
X151038862Y-68279400D01*
X150838862Y-68579400D02*
X151038862Y-68579400D01*
X151038862Y-67479400D02*
X151038862Y-68279400D01*
X151038862Y-68279400D02*
X151038862Y-68579400D01*
X151038862Y-68579400D02*
X151038862Y-69379400D01*
X151038862Y-69379400D02*
X149138862Y-69379400D01*
X150588862Y-68429400D02*
G75*
G02*
X149588862Y-68429400I-500000J0D01*
G01*
X149588862Y-68429400D02*
G75*
G02*
X150588862Y-68429400I500000J0D01*
G01*
%TO.C,ICled134*%
X149138862Y-75009600D02*
X151038862Y-75009600D01*
X149138862Y-76909600D02*
X149138862Y-75009600D01*
X150838862Y-75809600D02*
X150838862Y-76109600D01*
X150838862Y-75809600D02*
X151038862Y-75809600D01*
X150838862Y-76109600D02*
X151038862Y-76109600D01*
X151038862Y-75009600D02*
X151038862Y-75809600D01*
X151038862Y-75809600D02*
X151038862Y-76109600D01*
X151038862Y-76109600D02*
X151038862Y-76909600D01*
X151038862Y-76909600D02*
X149138862Y-76909600D01*
X150588862Y-75959600D02*
G75*
G02*
X149588862Y-75959600I-500000J0D01*
G01*
X149588862Y-75959600D02*
G75*
G02*
X150588862Y-75959600I500000J0D01*
G01*
%TO.C,ICled106*%
X159177862Y-64969900D02*
X161077862Y-64969900D01*
X159177862Y-66869900D02*
X159177862Y-64969900D01*
X160877862Y-65769900D02*
X160877862Y-66069900D01*
X160877862Y-65769900D02*
X161077862Y-65769900D01*
X160877862Y-66069900D02*
X161077862Y-66069900D01*
X161077862Y-64969900D02*
X161077862Y-65769900D01*
X161077862Y-65769900D02*
X161077862Y-66069900D01*
X161077862Y-66069900D02*
X161077862Y-66869900D01*
X161077862Y-66869900D02*
X159177862Y-66869900D01*
X160627862Y-65919900D02*
G75*
G02*
X159627862Y-65919900I-500000J0D01*
G01*
X159627862Y-65919900D02*
G75*
G02*
X160627862Y-65919900I500000J0D01*
G01*
%TO.C,ICled186*%
X159177862Y-77520800D02*
X161077862Y-77520800D01*
X159177862Y-79420800D02*
X159177862Y-77520800D01*
X160877862Y-78320800D02*
X160877862Y-78620800D01*
X160877862Y-78320800D02*
X161077862Y-78320800D01*
X160877862Y-78620800D02*
X161077862Y-78620800D01*
X161077862Y-77520800D02*
X161077862Y-78320800D01*
X161077862Y-78320800D02*
X161077862Y-78620800D01*
X161077862Y-78620800D02*
X161077862Y-79420800D01*
X161077862Y-79420800D02*
X159177862Y-79420800D01*
X160627862Y-78470800D02*
G75*
G02*
X159627862Y-78470800I-500000J0D01*
G01*
X159627862Y-78470800D02*
G75*
G02*
X160627862Y-78470800I500000J0D01*
G01*
%TO.C,ICled201*%
X139099862Y-85051000D02*
X140999862Y-85051000D01*
X139099862Y-86951000D02*
X139099862Y-85051000D01*
X140799862Y-85851000D02*
X140799862Y-86151000D01*
X140799862Y-85851000D02*
X140999862Y-85851000D01*
X140799862Y-86151000D02*
X140999862Y-86151000D01*
X140999862Y-85051000D02*
X140999862Y-85851000D01*
X140999862Y-85851000D02*
X140999862Y-86151000D01*
X140999862Y-86151000D02*
X140999862Y-86951000D01*
X140999862Y-86951000D02*
X139099862Y-86951000D01*
X140549862Y-86001000D02*
G75*
G02*
X139549862Y-86001000I-500000J0D01*
G01*
X139549862Y-86001000D02*
G75*
G02*
X140549862Y-86001000I500000J0D01*
G01*
%TO.C,ICled232*%
X166707112Y-85051000D02*
X168607112Y-85051000D01*
X166707112Y-86951000D02*
X166707112Y-85051000D01*
X168407112Y-85851000D02*
X168407112Y-86151000D01*
X168407112Y-85851000D02*
X168607112Y-85851000D01*
X168407112Y-86151000D02*
X168607112Y-86151000D01*
X168607112Y-85051000D02*
X168607112Y-85851000D01*
X168607112Y-85851000D02*
X168607112Y-86151000D01*
X168607112Y-86151000D02*
X168607112Y-86951000D01*
X168607112Y-86951000D02*
X166707112Y-86951000D01*
X168157112Y-86001000D02*
G75*
G02*
X167157112Y-86001000I-500000J0D01*
G01*
X167157112Y-86001000D02*
G75*
G02*
X168157112Y-86001000I500000J0D01*
G01*
%TO.C,ICled230*%
X164197362Y-90070000D02*
X166097362Y-90070000D01*
X164197362Y-91970000D02*
X164197362Y-90070000D01*
X165897362Y-90870000D02*
X165897362Y-91170000D01*
X165897362Y-90870000D02*
X166097362Y-90870000D01*
X165897362Y-91170000D02*
X166097362Y-91170000D01*
X166097362Y-90070000D02*
X166097362Y-90870000D01*
X166097362Y-90870000D02*
X166097362Y-91170000D01*
X166097362Y-91170000D02*
X166097362Y-91970000D01*
X166097362Y-91970000D02*
X164197362Y-91970000D01*
X165647362Y-91020000D02*
G75*
G02*
X164647362Y-91020000I-500000J0D01*
G01*
X164647362Y-91020000D02*
G75*
G02*
X165647362Y-91020000I500000J0D01*
G01*
%TO.C,ICled97*%
X151648612Y-64969900D02*
X153548612Y-64969900D01*
X151648612Y-66869900D02*
X151648612Y-64969900D01*
X153348612Y-65769900D02*
X153348612Y-66069900D01*
X153348612Y-65769900D02*
X153548612Y-65769900D01*
X153348612Y-66069900D02*
X153548612Y-66069900D01*
X153548612Y-64969900D02*
X153548612Y-65769900D01*
X153548612Y-65769900D02*
X153548612Y-66069900D01*
X153548612Y-66069900D02*
X153548612Y-66869900D01*
X153548612Y-66869900D02*
X151648612Y-66869900D01*
X153098612Y-65919900D02*
G75*
G02*
X152098612Y-65919900I-500000J0D01*
G01*
X152098612Y-65919900D02*
G75*
G02*
X153098612Y-65919900I500000J0D01*
G01*
%TO.C,ICled148*%
X161687612Y-72500100D02*
X163587612Y-72500100D01*
X161687612Y-74400100D02*
X161687612Y-72500100D01*
X163387612Y-73300100D02*
X163387612Y-73600100D01*
X163387612Y-73300100D02*
X163587612Y-73300100D01*
X163387612Y-73600100D02*
X163587612Y-73600100D01*
X163587612Y-72500100D02*
X163587612Y-73300100D01*
X163587612Y-73300100D02*
X163587612Y-73600100D01*
X163587612Y-73600100D02*
X163587612Y-74400100D01*
X163587612Y-74400100D02*
X161687612Y-74400100D01*
X163137612Y-73450100D02*
G75*
G02*
X162137612Y-73450100I-500000J0D01*
G01*
X162137612Y-73450100D02*
G75*
G02*
X163137612Y-73450100I500000J0D01*
G01*
%TO.C,ICled109*%
X161687612Y-64969900D02*
X163587612Y-64969900D01*
X161687612Y-66869900D02*
X161687612Y-64969900D01*
X163387612Y-65769900D02*
X163387612Y-66069900D01*
X163387612Y-65769900D02*
X163587612Y-65769900D01*
X163387612Y-66069900D02*
X163587612Y-66069900D01*
X163587612Y-64969900D02*
X163587612Y-65769900D01*
X163587612Y-65769900D02*
X163587612Y-66069900D01*
X163587612Y-66069900D02*
X163587612Y-66869900D01*
X163587612Y-66869900D02*
X161687612Y-66869900D01*
X163137612Y-65919900D02*
G75*
G02*
X162137612Y-65919900I-500000J0D01*
G01*
X162137612Y-65919900D02*
G75*
G02*
X163137612Y-65919900I500000J0D01*
G01*
%TO.C,ICled234*%
X166707112Y-90070000D02*
X168607112Y-90070000D01*
X166707112Y-91970000D02*
X166707112Y-90070000D01*
X168407112Y-90870000D02*
X168407112Y-91170000D01*
X168407112Y-90870000D02*
X168607112Y-90870000D01*
X168407112Y-91170000D02*
X168607112Y-91170000D01*
X168607112Y-90070000D02*
X168607112Y-90870000D01*
X168607112Y-90870000D02*
X168607112Y-91170000D01*
X168607112Y-91170000D02*
X168607112Y-91970000D01*
X168607112Y-91970000D02*
X166707112Y-91970000D01*
X168157112Y-91020000D02*
G75*
G02*
X167157112Y-91020000I-500000J0D01*
G01*
X167157112Y-91020000D02*
G75*
G02*
X168157112Y-91020000I500000J0D01*
G01*
%TO.C,ICled159*%
X136590112Y-77520800D02*
X138490112Y-77520800D01*
X136590112Y-79420800D02*
X136590112Y-77520800D01*
X138290112Y-78320800D02*
X138290112Y-78620800D01*
X138290112Y-78320800D02*
X138490112Y-78320800D01*
X138290112Y-78620800D02*
X138490112Y-78620800D01*
X138490112Y-77520800D02*
X138490112Y-78320800D01*
X138490112Y-78320800D02*
X138490112Y-78620800D01*
X138490112Y-78620800D02*
X138490112Y-79420800D01*
X138490112Y-79420800D02*
X136590112Y-79420800D01*
X138040112Y-78470800D02*
G75*
G02*
X137040112Y-78470800I-500000J0D01*
G01*
X137040112Y-78470800D02*
G75*
G02*
X138040112Y-78470800I500000J0D01*
G01*
%TO.C,ICled67*%
X159177841Y-57439700D02*
X161077841Y-57439700D01*
X159177841Y-59339700D02*
X159177841Y-57439700D01*
X160877841Y-58239700D02*
X160877841Y-58539700D01*
X160877841Y-58239700D02*
X161077841Y-58239700D01*
X160877841Y-58539700D02*
X161077841Y-58539700D01*
X161077841Y-57439700D02*
X161077841Y-58239700D01*
X161077841Y-58239700D02*
X161077841Y-58539700D01*
X161077841Y-58539700D02*
X161077841Y-59339700D01*
X161077841Y-59339700D02*
X159177841Y-59339700D01*
X160627841Y-58389700D02*
G75*
G02*
X159627841Y-58389700I-500000J0D01*
G01*
X159627841Y-58389700D02*
G75*
G02*
X160627841Y-58389700I500000J0D01*
G01*
%TO.C,ICled70*%
X161687584Y-57439700D02*
X163587584Y-57439700D01*
X161687584Y-59339700D02*
X161687584Y-57439700D01*
X163387584Y-58239700D02*
X163387584Y-58539700D01*
X163387584Y-58239700D02*
X163587584Y-58239700D01*
X163387584Y-58539700D02*
X163587584Y-58539700D01*
X163587584Y-57439700D02*
X163587584Y-58239700D01*
X163587584Y-58239700D02*
X163587584Y-58539700D01*
X163587584Y-58539700D02*
X163587584Y-59339700D01*
X163587584Y-59339700D02*
X161687584Y-59339700D01*
X163137584Y-58389700D02*
G75*
G02*
X162137584Y-58389700I-500000J0D01*
G01*
X162137584Y-58389700D02*
G75*
G02*
X163137584Y-58389700I500000J0D01*
G01*
%TO.C,ICled191*%
X164197362Y-82539800D02*
X166097362Y-82539800D01*
X164197362Y-84439800D02*
X164197362Y-82539800D01*
X165897362Y-83339800D02*
X165897362Y-83639800D01*
X165897362Y-83339800D02*
X166097362Y-83339800D01*
X165897362Y-83639800D02*
X166097362Y-83639800D01*
X166097362Y-82539800D02*
X166097362Y-83339800D01*
X166097362Y-83339800D02*
X166097362Y-83639800D01*
X166097362Y-83639800D02*
X166097362Y-84439800D01*
X166097362Y-84439800D02*
X164197362Y-84439800D01*
X165647362Y-83489800D02*
G75*
G02*
X164647362Y-83489800I-500000J0D01*
G01*
X164647362Y-83489800D02*
G75*
G02*
X165647362Y-83489800I500000J0D01*
G01*
%TO.C,ICled46*%
X141609640Y-57439700D02*
X143509640Y-57439700D01*
X141609640Y-59339700D02*
X141609640Y-57439700D01*
X143309640Y-58239700D02*
X143309640Y-58539700D01*
X143309640Y-58239700D02*
X143509640Y-58239700D01*
X143309640Y-58539700D02*
X143509640Y-58539700D01*
X143509640Y-57439700D02*
X143509640Y-58239700D01*
X143509640Y-58239700D02*
X143509640Y-58539700D01*
X143509640Y-58539700D02*
X143509640Y-59339700D01*
X143509640Y-59339700D02*
X141609640Y-59339700D01*
X143059640Y-58389700D02*
G75*
G02*
X142059640Y-58389700I-500000J0D01*
G01*
X142059640Y-58389700D02*
G75*
G02*
X143059640Y-58389700I500000J0D01*
G01*
%TO.C,ICled99*%
X151648612Y-62460400D02*
X153548612Y-62460400D01*
X151648612Y-64360400D02*
X151648612Y-62460400D01*
X153348612Y-63260400D02*
X153348612Y-63560400D01*
X153348612Y-63260400D02*
X153548612Y-63260400D01*
X153348612Y-63560400D02*
X153548612Y-63560400D01*
X153548612Y-62460400D02*
X153548612Y-63260400D01*
X153548612Y-63260400D02*
X153548612Y-63560400D01*
X153548612Y-63560400D02*
X153548612Y-64360400D01*
X153548612Y-64360400D02*
X151648612Y-64360400D01*
X153098612Y-63410400D02*
G75*
G02*
X152098612Y-63410400I-500000J0D01*
G01*
X152098612Y-63410400D02*
G75*
G02*
X153098612Y-63410400I500000J0D01*
G01*
%TO.C,ICled31*%
X161687584Y-49909500D02*
X163587584Y-49909500D01*
X161687584Y-51809500D02*
X161687584Y-49909500D01*
X163387584Y-50709500D02*
X163387584Y-51009500D01*
X163387584Y-50709500D02*
X163587584Y-50709500D01*
X163387584Y-51009500D02*
X163587584Y-51009500D01*
X163587584Y-49909500D02*
X163587584Y-50709500D01*
X163587584Y-50709500D02*
X163587584Y-51009500D01*
X163587584Y-51009500D02*
X163587584Y-51809500D01*
X163587584Y-51809500D02*
X161687584Y-51809500D01*
X163137584Y-50859500D02*
G75*
G02*
X162137584Y-50859500I-500000J0D01*
G01*
X162137584Y-50859500D02*
G75*
G02*
X163137584Y-50859500I500000J0D01*
G01*
%TO.C,ICled218*%
X154158362Y-90070000D02*
X156058362Y-90070000D01*
X154158362Y-91970000D02*
X154158362Y-90070000D01*
X155858362Y-90870000D02*
X155858362Y-91170000D01*
X155858362Y-90870000D02*
X156058362Y-90870000D01*
X155858362Y-91170000D02*
X156058362Y-91170000D01*
X156058362Y-90070000D02*
X156058362Y-90870000D01*
X156058362Y-90870000D02*
X156058362Y-91170000D01*
X156058362Y-91170000D02*
X156058362Y-91970000D01*
X156058362Y-91970000D02*
X154158362Y-91970000D01*
X155608362Y-91020000D02*
G75*
G02*
X154608362Y-91020000I-500000J0D01*
G01*
X154608362Y-91020000D02*
G75*
G02*
X155608362Y-91020000I500000J0D01*
G01*
D12*
%TO.C,C10*%
X134715000Y-80138748D02*
X134715000Y-80661252D01*
X136185000Y-80138748D02*
X136185000Y-80661252D01*
D10*
%TO.C,ICled3*%
X136590278Y-47400000D02*
X138490278Y-47400000D01*
X136590278Y-49300000D02*
X136590278Y-47400000D01*
X138290278Y-48200000D02*
X138290278Y-48500000D01*
X138290278Y-48200000D02*
X138490278Y-48200000D01*
X138290278Y-48500000D02*
X138490278Y-48500000D01*
X138490278Y-47400000D02*
X138490278Y-48200000D01*
X138490278Y-48200000D02*
X138490278Y-48500000D01*
X138490278Y-48500000D02*
X138490278Y-49300000D01*
X138490278Y-49300000D02*
X136590278Y-49300000D01*
X138040278Y-48350000D02*
G75*
G02*
X137040278Y-48350000I-500000J0D01*
G01*
X137040278Y-48350000D02*
G75*
G02*
X138040278Y-48350000I500000J0D01*
G01*
%TO.C,ICled110*%
X161687612Y-67479400D02*
X163587612Y-67479400D01*
X161687612Y-69379400D02*
X161687612Y-67479400D01*
X163387612Y-68279400D02*
X163387612Y-68579400D01*
X163387612Y-68279400D02*
X163587612Y-68279400D01*
X163387612Y-68579400D02*
X163587612Y-68579400D01*
X163587612Y-67479400D02*
X163587612Y-68279400D01*
X163587612Y-68279400D02*
X163587612Y-68579400D01*
X163587612Y-68579400D02*
X163587612Y-69379400D01*
X163587612Y-69379400D02*
X161687612Y-69379400D01*
X163137612Y-68429400D02*
G75*
G02*
X162137612Y-68429400I-500000J0D01*
G01*
X162137612Y-68429400D02*
G75*
G02*
X163137612Y-68429400I500000J0D01*
G01*
%TO.C,ICled157*%
X136590112Y-80030300D02*
X138490112Y-80030300D01*
X136590112Y-81930300D02*
X136590112Y-80030300D01*
X138290112Y-80830300D02*
X138290112Y-81130300D01*
X138290112Y-80830300D02*
X138490112Y-80830300D01*
X138290112Y-81130300D02*
X138490112Y-81130300D01*
X138490112Y-80030300D02*
X138490112Y-80830300D01*
X138490112Y-80830300D02*
X138490112Y-81130300D01*
X138490112Y-81130300D02*
X138490112Y-81930300D01*
X138490112Y-81930300D02*
X136590112Y-81930300D01*
X138040112Y-80980300D02*
G75*
G02*
X137040112Y-80980300I-500000J0D01*
G01*
X137040112Y-80980300D02*
G75*
G02*
X138040112Y-80980300I500000J0D01*
G01*
D12*
%TO.C,C11*%
X169065000Y-77236252D02*
X169065000Y-76713748D01*
X170535000Y-77236252D02*
X170535000Y-76713748D01*
D10*
%TO.C,ICled166*%
X144119362Y-80030300D02*
X146019362Y-80030300D01*
X144119362Y-81930300D02*
X144119362Y-80030300D01*
X145819362Y-80830300D02*
X145819362Y-81130300D01*
X145819362Y-80830300D02*
X146019362Y-80830300D01*
X145819362Y-81130300D02*
X146019362Y-81130300D01*
X146019362Y-80030300D02*
X146019362Y-80830300D01*
X146019362Y-80830300D02*
X146019362Y-81130300D01*
X146019362Y-81130300D02*
X146019362Y-81930300D01*
X146019362Y-81930300D02*
X144119362Y-81930300D01*
X145569362Y-80980300D02*
G75*
G02*
X144569362Y-80980300I-500000J0D01*
G01*
X144569362Y-80980300D02*
G75*
G02*
X145569362Y-80980300I500000J0D01*
G01*
%TO.C,ICled142*%
X156668112Y-72500100D02*
X158568112Y-72500100D01*
X156668112Y-74400100D02*
X156668112Y-72500100D01*
X158368112Y-73300100D02*
X158368112Y-73600100D01*
X158368112Y-73300100D02*
X158568112Y-73300100D01*
X158368112Y-73600100D02*
X158568112Y-73600100D01*
X158568112Y-72500100D02*
X158568112Y-73300100D01*
X158568112Y-73300100D02*
X158568112Y-73600100D01*
X158568112Y-73600100D02*
X158568112Y-74400100D01*
X158568112Y-74400100D02*
X156668112Y-74400100D01*
X158118112Y-73450100D02*
G75*
G02*
X157118112Y-73450100I-500000J0D01*
G01*
X157118112Y-73450100D02*
G75*
G02*
X158118112Y-73450100I500000J0D01*
G01*
%TO.C,ICled49*%
X144119383Y-57439700D02*
X146019383Y-57439700D01*
X144119383Y-59339700D02*
X144119383Y-57439700D01*
X145819383Y-58239700D02*
X145819383Y-58539700D01*
X145819383Y-58239700D02*
X146019383Y-58239700D01*
X145819383Y-58539700D02*
X146019383Y-58539700D01*
X146019383Y-57439700D02*
X146019383Y-58239700D01*
X146019383Y-58239700D02*
X146019383Y-58539700D01*
X146019383Y-58539700D02*
X146019383Y-59339700D01*
X146019383Y-59339700D02*
X144119383Y-59339700D01*
X145569383Y-58389700D02*
G75*
G02*
X144569383Y-58389700I-500000J0D01*
G01*
X144569383Y-58389700D02*
G75*
G02*
X145569383Y-58389700I500000J0D01*
G01*
%TO.C,ICled126*%
X141609612Y-69990600D02*
X143509612Y-69990600D01*
X141609612Y-71890600D02*
X141609612Y-69990600D01*
X143309612Y-70790600D02*
X143309612Y-71090600D01*
X143309612Y-70790600D02*
X143509612Y-70790600D01*
X143309612Y-71090600D02*
X143509612Y-71090600D01*
X143509612Y-69990600D02*
X143509612Y-70790600D01*
X143509612Y-70790600D02*
X143509612Y-71090600D01*
X143509612Y-71090600D02*
X143509612Y-71890600D01*
X143509612Y-71890600D02*
X141609612Y-71890600D01*
X143059612Y-70940600D02*
G75*
G02*
X142059612Y-70940600I-500000J0D01*
G01*
X142059612Y-70940600D02*
G75*
G02*
X143059612Y-70940600I500000J0D01*
G01*
%TO.C,ICled167*%
X144119362Y-82539800D02*
X146019362Y-82539800D01*
X144119362Y-84439800D02*
X144119362Y-82539800D01*
X145819362Y-83339800D02*
X145819362Y-83639800D01*
X145819362Y-83339800D02*
X146019362Y-83339800D01*
X145819362Y-83639800D02*
X146019362Y-83639800D01*
X146019362Y-82539800D02*
X146019362Y-83339800D01*
X146019362Y-83339800D02*
X146019362Y-83639800D01*
X146019362Y-83639800D02*
X146019362Y-84439800D01*
X146019362Y-84439800D02*
X144119362Y-84439800D01*
X145569362Y-83489800D02*
G75*
G02*
X144569362Y-83489800I-500000J0D01*
G01*
X144569362Y-83489800D02*
G75*
G02*
X145569362Y-83489800I500000J0D01*
G01*
%TO.C,ICled71*%
X161687612Y-59949200D02*
X163587612Y-59949200D01*
X161687612Y-61849200D02*
X161687612Y-59949200D01*
X163387612Y-60749200D02*
X163387612Y-61049200D01*
X163387612Y-60749200D02*
X163587612Y-60749200D01*
X163387612Y-61049200D02*
X163587612Y-61049200D01*
X163587612Y-59949200D02*
X163587612Y-60749200D01*
X163587612Y-60749200D02*
X163587612Y-61049200D01*
X163587612Y-61049200D02*
X163587612Y-61849200D01*
X163587612Y-61849200D02*
X161687612Y-61849200D01*
X163137612Y-60899200D02*
G75*
G02*
X162137612Y-60899200I-500000J0D01*
G01*
X162137612Y-60899200D02*
G75*
G02*
X163137612Y-60899200I500000J0D01*
G01*
%TO.C,ICled14*%
X146629112Y-52419000D02*
X148529112Y-52419000D01*
X146629112Y-54319000D02*
X146629112Y-52419000D01*
X148329112Y-53219000D02*
X148329112Y-53519000D01*
X148329112Y-53219000D02*
X148529112Y-53219000D01*
X148329112Y-53519000D02*
X148529112Y-53519000D01*
X148529112Y-52419000D02*
X148529112Y-53219000D01*
X148529112Y-53219000D02*
X148529112Y-53519000D01*
X148529112Y-53519000D02*
X148529112Y-54319000D01*
X148529112Y-54319000D02*
X146629112Y-54319000D01*
X148079112Y-53369000D02*
G75*
G02*
X147079112Y-53369000I-500000J0D01*
G01*
X147079112Y-53369000D02*
G75*
G02*
X148079112Y-53369000I500000J0D01*
G01*
%TO.C,ICled72*%
X161687772Y-54930200D02*
X163587772Y-54930200D01*
X161687772Y-56830200D02*
X161687772Y-54930200D01*
X163387772Y-55730200D02*
X163387772Y-56030200D01*
X163387772Y-55730200D02*
X163587772Y-55730200D01*
X163387772Y-56030200D02*
X163587772Y-56030200D01*
X163587772Y-54930200D02*
X163587772Y-55730200D01*
X163587772Y-55730200D02*
X163587772Y-56030200D01*
X163587772Y-56030200D02*
X163587772Y-56830200D01*
X163587772Y-56830200D02*
X161687772Y-56830200D01*
X163137772Y-55880200D02*
G75*
G02*
X162137772Y-55880200I-500000J0D01*
G01*
X162137772Y-55880200D02*
G75*
G02*
X163137772Y-55880200I500000J0D01*
G01*
%TO.C,ICled118*%
X136590112Y-72500100D02*
X138490112Y-72500100D01*
X136590112Y-74400100D02*
X136590112Y-72500100D01*
X138290112Y-73300100D02*
X138290112Y-73600100D01*
X138290112Y-73300100D02*
X138490112Y-73300100D01*
X138290112Y-73600100D02*
X138490112Y-73600100D01*
X138490112Y-72500100D02*
X138490112Y-73300100D01*
X138490112Y-73300100D02*
X138490112Y-73600100D01*
X138490112Y-73600100D02*
X138490112Y-74400100D01*
X138490112Y-74400100D02*
X136590112Y-74400100D01*
X138040112Y-73450100D02*
G75*
G02*
X137040112Y-73450100I-500000J0D01*
G01*
X137040112Y-73450100D02*
G75*
G02*
X138040112Y-73450100I500000J0D01*
G01*
%TO.C,ICled177*%
X151648612Y-77520800D02*
X153548612Y-77520800D01*
X151648612Y-79420800D02*
X151648612Y-77520800D01*
X153348612Y-78320800D02*
X153348612Y-78620800D01*
X153348612Y-78320800D02*
X153548612Y-78320800D01*
X153348612Y-78620800D02*
X153548612Y-78620800D01*
X153548612Y-77520800D02*
X153548612Y-78320800D01*
X153548612Y-78320800D02*
X153548612Y-78620800D01*
X153548612Y-78620800D02*
X153548612Y-79420800D01*
X153548612Y-79420800D02*
X151648612Y-79420800D01*
X153098612Y-78470800D02*
G75*
G02*
X152098612Y-78470800I-500000J0D01*
G01*
X152098612Y-78470800D02*
G75*
G02*
X153098612Y-78470800I500000J0D01*
G01*
%TO.C,ICled88*%
X144119362Y-64969900D02*
X146019362Y-64969900D01*
X144119362Y-66869900D02*
X144119362Y-64969900D01*
X145819362Y-65769900D02*
X145819362Y-66069900D01*
X145819362Y-65769900D02*
X146019362Y-65769900D01*
X145819362Y-66069900D02*
X146019362Y-66069900D01*
X146019362Y-64969900D02*
X146019362Y-65769900D01*
X146019362Y-65769900D02*
X146019362Y-66069900D01*
X146019362Y-66069900D02*
X146019362Y-66869900D01*
X146019362Y-66869900D02*
X144119362Y-66869900D01*
X145569362Y-65919900D02*
G75*
G02*
X144569362Y-65919900I-500000J0D01*
G01*
X144569362Y-65919900D02*
G75*
G02*
X145569362Y-65919900I500000J0D01*
G01*
%TD*%
M02*
