M48
; DRILL file {KiCad 8.0.2} date 2024-06-24T13:44:36+0200
; FORMAT={-:-/ absolute / inch / decimal}
; #@! TF.CreationDate,2024-06-24T13:44:36+02:00
; #@! TF.GenerationSoftware,Kicad,Pcbnew,8.0.2
; #@! TF.FileFunction,Plated,1,4,PTH
FMAT,2
INCH
; #@! TA.AperFunction,Plated,PTH,ViaDrill
T1C0.0118
; #@! TA.AperFunction,Plated,PTH,ComponentDrill
T2C0.0300
%
G90
G05
T1
X5.3307Y-2.2402
X5.3307Y-2.9055
X5.3308Y-3.5362
X5.3465Y-3.0236
X5.3543Y-3.2362
X5.3543Y-2.3583
X5.3561Y-3.0974
X5.3591Y-2.5402
X5.3593Y-2.7378
X5.3622Y-2.8898
X5.3642Y-2.0762
X5.3647Y-2.232
X5.3701Y-2.1929
X5.376Y-2.7992
X5.376Y-3.5854
X5.3794Y-1.9055
X5.3854Y-2.3059
X5.3858Y-2.0043
X5.3858Y-3.1929
X5.3896Y-3.289
X5.3898Y-2.3937
X5.3921Y-2.1091
X5.3976Y-3.4827
X5.4016Y-2.4921
X5.4016Y-2.9843
X5.4055Y-2.622
X5.4055Y-3.0669
X5.4055Y-3.5748
X5.4075Y-2.6772
X5.408Y-3.0311
X5.4083Y-2.9324
X5.4091Y-2.2835
X5.4094Y-2.4331
X5.4094Y-2.7559
X5.4094Y-3.3622
X5.4131Y-3.1339
X5.4173Y-2.8898
X5.4173Y-3.2992
X5.4185Y-1.8413
X5.4191Y-2.0001
X5.4203Y-2.1426
X5.4206Y-2.0437
X5.4213Y-3.189
X5.4249Y-2.3986
X5.4251Y-3.4936
X5.4252Y-2.7008
X5.4259Y-2.2015
X5.4289Y-3.3877
X5.4296Y-2.5015
X5.4296Y-2.9936
X5.4319Y-3.588
X5.4331Y-2.3008
X5.4331Y-2.7953
X5.435Y-2.5998
X5.4366Y-3.0949
X5.4402Y-1.9125
X5.4854Y-3.1812
X5.4921Y-2.9882
X5.4929Y-1.8988
X5.4939Y-1.9987
X5.4945Y-2.0902
X5.4961Y-2.6921
X5.4961Y-3.0866
X5.4961Y-3.2835
X5.4961Y-3.4803
X5.498Y-2.5929
X5.5Y-2.1929
X5.5Y-2.4803
X5.5Y-2.8898
X5.5Y-3.5787
X5.5003Y-2.297
X5.5079Y-2.3622
X5.5079Y-2.7559
X5.5079Y-3.3543
X5.5157Y-3.3065
X5.5157Y-3.1969
X5.5185Y-3.0014
X5.5197Y-2.7283
X5.5197Y-3.5039
X5.5236Y-2.7953
X5.5243Y-2.4976
X5.5248Y-2.1025
X5.5248Y-1.9098
X5.5248Y-2.0071
X5.5269Y-2.599
X5.5273Y-2.3994
X5.5275Y-3.0913
X5.5276Y-3.3898
X5.528Y-2.8991
X5.5292Y-3.5854
X5.5315Y-2.202
X5.5315Y-2.3008
X5.5626Y-1.828
X5.5893Y-3.1862
X5.5906Y-2.1929
X5.5906Y-2.2968
X5.5906Y-2.5933
X5.5906Y-2.791
X5.5906Y-2.8898
X5.5906Y-3.2835
X5.5937Y-2.3935
X5.5945Y-3.0866
X5.5945Y-3.378
X5.5945Y-3.4827
X5.5953Y-2.0961
X5.5984Y-2.689
X5.5984Y-2.9882
X5.5986Y-2.4946
X5.5996Y-1.8945
X5.6024Y-3.5787
X5.6033Y-2.0016
X5.6146Y-2.7283
X5.6146Y-2.9094
X5.6215Y-2.5959
X5.6219Y-2.2996
X5.622Y-2.2008
X5.622Y-2.4016
X5.622Y-3.0079
X5.622Y-3.2953
X5.6237Y-3.0908
X5.6237Y-3.1929
X5.6249Y-1.9097
X5.626Y-2.7953
X5.626Y-3.3898
X5.626Y-3.4921
X5.627Y-2.1051
X5.6292Y-2.4984
X5.6305Y-2.0133
X5.6308Y-3.5869
X5.686Y-3.1841
X5.689Y-2.0957
X5.6899Y-1.9971
X5.6907Y-3.0849
X5.6913Y-3.3839
X5.6929Y-2.198
X5.6929Y-2.2968
X5.6931Y-3.2833
X5.6949Y-2.791
X5.6969Y-2.4921
X5.6969Y-2.689
X5.6969Y-2.5934
X5.6972Y-2.8898
X5.6974Y-3.4828
X5.698Y-1.8965
X5.7008Y-2.3898
X5.7009Y-3.5823
X5.7047Y-2.9843
X5.7134Y-2.7283
X5.7134Y-3.0157
X5.7134Y-3.3189
X5.7165Y-2.4213
X5.7181Y-2.0057
X5.7193Y-2.1106
X5.7195Y-3.0912
X5.7195Y-3.1969
X5.7205Y-3.3898
X5.7243Y-2.2017
X5.7244Y-2.3071
X5.7244Y-2.7953
X5.7252Y-2.5002
X5.7262Y-2.5972
X5.7268Y-3.4866
X5.7272Y-1.9055
X5.7283Y-2.8937
X5.7301Y-3.5869
X5.7874Y-2.198
X5.7874Y-2.2968
X5.7874Y-2.5906
X5.789Y-1.9016
X5.7901Y-1.9985
X5.7913Y-2.791
X5.7913Y-2.8898
X5.7913Y-3.0874
X5.7913Y-3.1862
X5.7953Y-2.689
X5.7953Y-3.2835
X5.7965Y-2.098
X5.7978Y-3.3842
X5.798Y-3.4831
X5.7984Y-2.3935
X5.7992Y-2.4921
X5.7994Y-3.5822
X5.8031Y-2.9843
X5.8137Y-3.3065
X5.815Y-2.7303
X5.815Y-3.0197
X5.8189Y-2.6024
X5.8205Y-2.8946
X5.8207Y-3.0908
X5.8207Y-3.1894
X5.8227Y-2.2017
X5.8228Y-2.7992
X5.826Y-2.1031
X5.8263Y-3.4916
X5.8264Y-1.9071
X5.8264Y-2.0043
X5.8268Y-2.4016
X5.8268Y-3.3898
X5.8272Y-2.5015
X5.8289Y-3.5854
X5.8307Y-2.3031
X5.8858Y-3.2795
X5.8881Y-3.3809
X5.8881Y-3.4803
X5.889Y-1.9016
X5.889Y-2.0004
X5.8898Y-2.1969
X5.8898Y-2.2968
X5.8898Y-2.9843
X5.8937Y-2.3937
X5.8937Y-2.7874
X5.8937Y-3.0866
X5.8937Y-2.4945
X5.8937Y-2.5906
X5.8938Y-3.1862
X5.8938Y-2.8898
X5.8945Y-2.0992
X5.8976Y-2.689
X5.8976Y-3.5787
X5.9134Y-2.7165
X5.9134Y-3.0157
X5.9134Y-3.2913
X5.9172Y-3.3861
X5.9172Y-3.4921
X5.9173Y-2.9315
X5.9211Y-2.2016
X5.9221Y-3.0947
X5.9227Y-2.5003
X5.9227Y-2.5984
X5.9231Y-3.1901
X5.9239Y-2.1031
X5.924Y-2.0043
X5.924Y-1.9098
X5.9252Y-2.4016
X5.9252Y-2.7953
X5.926Y-3.5869
X5.9274Y-2.301
X5.9844Y-3.1861
X5.9861Y-3.3839
X5.9861Y-3.4803
X5.9866Y-1.9016
X5.9875Y-1.9983
X5.9882Y-2.198
X5.9882Y-2.2953
X5.9882Y-3.0827
X5.9882Y-3.2835
X5.9906Y-2.0976
X5.9921Y-2.4921
X5.9921Y-2.689
X5.9921Y-2.791
X5.9921Y-2.8898
X5.9921Y-2.5933
X5.9964Y-2.3962
X6.0Y-2.9764
X6.0Y-3.5787
X6.0098Y-3.3071
X6.0118Y-2.7283
X6.0118Y-3.0276
X6.0139Y-3.1873
X6.0157Y-3.386
X6.0157Y-3.4882
X6.0181Y-1.9047
X6.0181Y-2.0047
X6.0185Y-3.0906
X6.0195Y-2.2015
X6.021Y-2.5996
X6.022Y-2.1079
X6.0236Y-2.5
X6.0236Y-2.7953
X6.0236Y-2.8976
X6.0268Y-2.3015
X6.0276Y-2.3996
X6.0284Y-3.5869
X6.0832Y-1.9014
X6.0833Y-2.0003
X6.0866Y-2.6921
X6.0866Y-2.791
X6.0866Y-2.8898
X6.0866Y-3.0866
X6.0866Y-3.1862
X6.0866Y-3.2835
X6.0869Y-2.1965
X6.0869Y-2.2953
X6.087Y-2.0969
X6.089Y-3.3806
X6.089Y-3.4827
X6.0906Y-2.3956
X6.0906Y-2.4921
X6.0906Y-2.5933
X6.0945Y-2.9882
X6.0984Y-3.5787
X6.1086Y-3.3189
X6.1102Y-2.7126
X6.1142Y-2.6161
X6.1142Y-3.0197
X6.1157Y-3.0915
X6.1157Y-3.1969
X6.116Y-2.8925
X6.1169Y-2.1087
X6.1177Y-3.3872
X6.1179Y-2.2014
X6.1181Y-2.7953
X6.1183Y-3.4862
X6.1189Y-2.004
X6.1189Y-1.9071
X6.1189Y-2.5002
X6.1266Y-3.5875
X6.1286Y-2.3045
X6.1329Y-2.4025
X6.1834Y-2.1942
X6.1834Y-2.2968
X6.1835Y-1.9016
X6.1851Y-1.9982
X6.1851Y-3.0874
X6.1851Y-3.1862
X6.1852Y-3.3788
X6.1852Y-3.4827
X6.189Y-2.4945
X6.189Y-2.5933
X6.189Y-2.685
X6.189Y-2.791
X6.189Y-2.8858
X6.189Y-3.2835
X6.1915Y-2.0993
X6.1937Y-2.3961
X6.1969Y-3.5787
X6.2008Y-2.9921
X6.2074Y-2.7081
X6.2087Y-3.0236
X6.2087Y-3.3228
X6.2126Y-2.9055
X6.2126Y-3.3898
X6.2141Y-3.4885
X6.2144Y-3.0913
X6.2145Y-3.189
X6.2165Y-2.2047
X6.2202Y-2.5972
X6.2204Y-2.4984
X6.2205Y-2.7953
X6.2213Y-2.1051
X6.2217Y-1.9055
X6.2217Y-2.0083
X6.2231Y-2.3996
X6.2283Y-2.3071
X6.2283Y-3.5854
X6.2799Y-2.0965
X6.2827Y-3.3816
X6.2835Y-2.198
X6.2839Y-1.9016
X6.2839Y-2.0004
X6.2874Y-2.2968
X6.2874Y-2.3898
X6.2874Y-2.4921
X6.2874Y-2.5933
X6.2874Y-2.689
X6.2874Y-3.0866
X6.2874Y-3.185
X6.2874Y-3.4827
X6.2879Y-3.285
X6.2905Y-2.7911
X6.2911Y-2.89
X6.2913Y-3.5787
X6.2953Y-2.9843
X6.3071Y-2.7126
X6.3071Y-3.0157
X6.3071Y-3.3228
X6.311Y-2.6142
X6.311Y-3.2047
X6.311Y-3.3898
X6.3153Y-3.4923
X6.3163Y-2.4981
X6.3166Y-3.091
X6.3185Y-2.1063
X6.3188Y-2.2019
X6.3189Y-2.7992
X6.3194Y-3.5881
X6.3203Y-2.8939
X6.3205Y-1.9083
X6.3205Y-2.0047
X6.3258Y-2.3041
X6.3268Y-2.3996
X6.3776Y-2.0965
X6.3819Y-2.2968
X6.3819Y-2.5933
X6.3843Y-3.3839
X6.3847Y-2.198
X6.3858Y-1.9016
X6.3871Y-2.0004
X6.3882Y-2.3957
X6.3882Y-2.7904
X6.3888Y-2.8898
X6.3898Y-3.0866
X6.3898Y-3.185
X6.3898Y-3.2835
X6.3898Y-3.4803
X6.3906Y-2.6924
X6.3908Y-2.4949
X6.3937Y-2.9803
X6.3976Y-3.5787
X6.4055Y-3.0118
X6.4055Y-3.3189
X6.4059Y-2.6105
X6.4094Y-2.7244
X6.4134Y-3.3898
X6.4142Y-2.2039
X6.4161Y-3.6018
X6.4161Y-2.111
X6.4165Y-2.9001
X6.4173Y-2.4016
X6.4173Y-2.7953
X6.4189Y-3.0916
X6.4189Y-3.1929
X6.4197Y-1.9075
X6.4197Y-2.0138
X6.4213Y-2.4984
X6.4213Y-3.4882
X6.4252Y-2.3031
X6.4767Y-2.295
X6.4839Y-1.9988
X6.4843Y-2.4945
X6.4843Y-2.5906
X6.4843Y-3.0874
X6.4843Y-3.1862
X6.4861Y-3.3839
X6.4861Y-3.4827
X6.4867Y-2.791
X6.4869Y-2.8898
X6.4882Y-2.0886
X6.4882Y-2.189
X6.4882Y-3.2795
X6.4883Y-2.6922
X6.4883Y-3.5816
X6.4884Y-2.3958
X6.4921Y-1.8831
X6.4921Y-2.9882
X6.5039Y-2.7283
X6.5075Y-1.9189
X6.5079Y-3.0157
X6.5079Y-3.3071
X6.5126Y-2.0057
X6.5142Y-2.1205
X6.5155Y-3.3877
X6.5155Y-3.4882
X6.5157Y-3.0913
X6.5157Y-3.1929
X6.5157Y-2.2047
X6.5157Y-2.5
X6.5157Y-2.6024
X6.5157Y-2.7992
X6.5162Y-2.8938
X6.5213Y-2.4036
X6.5217Y-3.5873
X6.523Y-2.3037
X6.5741Y-2.7877
X6.5746Y-3.5789
X6.5757Y-2.8881
X6.5759Y-2.9871
X6.5787Y-2.5933
X6.579Y-3.185
X6.5799Y-2.2948
X6.581Y-1.8953
X6.5827Y-3.2835
X6.5843Y-1.8118
X6.5866Y-2.4921
X6.5868Y-2.3957
X6.587Y-3.0876
X6.5902Y-2.0004
X6.5902Y-2.089
X6.5902Y-2.1886
X6.5945Y-3.4803
X6.597Y-2.6935
X6.6026Y-2.8071
X6.6026Y-2.6496
X6.6026Y-3.539
X6.6026Y-2.3673
X6.6026Y-2.4252
X6.6026Y-2.6142
X6.6026Y-2.7224
X6.6026Y-2.752
X6.6026Y-2.8504
X6.6026Y-2.9528
X6.6026Y-3.0472
X6.6026Y-3.1457
X6.6026Y-3.2205
X6.6026Y-3.3169
X6.6026Y-3.3465
X6.6026Y-3.4449
X6.6026Y-3.5095
X6.6032Y-2.5166
X6.6034Y-3.3827
X6.6052Y-2.4546
X6.6063Y-1.917
X6.6063Y-1.9642
X6.6063Y-2.5551
X6.6066Y-2.2131
X6.6081Y-2.3036
X6.6086Y-2.1638
X6.6106Y-2.1197
X6.6126Y-2.0625
X6.6156Y-3.0948
X6.6181Y-3.0
X6.6181Y-3.5866
X6.6264Y-1.8161
X6.6322Y-3.3894
X6.6362Y-2.0079
X6.6401Y-1.8543
X6.6457Y-2.2953
X6.6496Y-2.9094
X6.6613Y-2.637
X6.6614Y-2.3622
X6.6614Y-3.1614
X6.6641Y-2.8352
X6.6654Y-2.437
X6.6654Y-2.5315
X6.6787Y-2.0622
X6.6811Y-3.0236
X6.685Y-2.2362
X6.685Y-3.1811
T2
X5.2992Y-1.8224
X5.2992Y-1.9224
X5.2992Y-2.0224
X5.2992Y-2.1224
X5.2992Y-2.4906
X5.2992Y-2.5906
X5.2992Y-2.6906
X5.2992Y-2.7906
X5.2992Y-3.289
X5.2992Y-3.389
X5.2992Y-3.489
X5.2992Y-3.589
X6.7165Y-1.8213
X6.7165Y-1.9213
X6.7165Y-2.0213
X6.7165Y-2.1213
X6.7165Y-3.2902
X6.7165Y-3.3902
X6.7165Y-3.4902
X6.7165Y-3.5902
X6.7166Y-2.4858
X6.7166Y-2.5858
X6.7166Y-2.6858
X6.7166Y-2.7858
M30
