%TF.GenerationSoftware,KiCad,Pcbnew,8.0.5*%
%TF.CreationDate,2024-09-22T15:27:04+02:00*%
%TF.ProjectId,PicBytesMicro,50696342-7974-4657-934d-6963726f2e6b,rev?*%
%TF.SameCoordinates,Original*%
%TF.FileFunction,Copper,L4,Bot*%
%TF.FilePolarity,Positive*%
%FSLAX46Y46*%
G04 Gerber Fmt 4.6, Leading zero omitted, Abs format (unit mm)*
G04 Created by KiCad (PCBNEW 8.0.5) date 2024-09-22 15:27:04*
%MOMM*%
%LPD*%
G01*
G04 APERTURE LIST*
G04 Aperture macros list*
%AMRoundRect*
0 Rectangle with rounded corners*
0 $1 Rounding radius*
0 $2 $3 $4 $5 $6 $7 $8 $9 X,Y pos of 4 corners*
0 Add a 4 corners polygon primitive as box body*
4,1,4,$2,$3,$4,$5,$6,$7,$8,$9,$2,$3,0*
0 Add four circle primitives for the rounded corners*
1,1,$1+$1,$2,$3*
1,1,$1+$1,$4,$5*
1,1,$1+$1,$6,$7*
1,1,$1+$1,$8,$9*
0 Add four rect primitives between the rounded corners*
20,1,$1+$1,$2,$3,$4,$5,0*
20,1,$1+$1,$4,$5,$6,$7,0*
20,1,$1+$1,$6,$7,$8,$9,0*
20,1,$1+$1,$8,$9,$2,$3,0*%
G04 Aperture macros list end*
%TA.AperFunction,ComponentPad*%
%ADD10C,1.550000*%
%TD*%
%TA.AperFunction,ComponentPad*%
%ADD11C,2.280000*%
%TD*%
%TA.AperFunction,ComponentPad*%
%ADD12C,2.850000*%
%TD*%
%TA.AperFunction,SMDPad,CuDef*%
%ADD13R,1.470000X1.050000*%
%TD*%
%TA.AperFunction,SMDPad,CuDef*%
%ADD14R,1.050000X1.470000*%
%TD*%
%TA.AperFunction,SMDPad,CuDef*%
%ADD15R,1.525000X0.700000*%
%TD*%
%TA.AperFunction,SMDPad,CuDef*%
%ADD16R,2.513000X3.402000*%
%TD*%
%TA.AperFunction,ComponentPad*%
%ADD17C,1.300000*%
%TD*%
%TA.AperFunction,SMDPad,CuDef*%
%ADD18R,1.250000X0.600000*%
%TD*%
%TA.AperFunction,SMDPad,CuDef*%
%ADD19R,1.450000X1.000000*%
%TD*%
%TA.AperFunction,SMDPad,CuDef*%
%ADD20R,1.000000X1.450000*%
%TD*%
%TA.AperFunction,SMDPad,CuDef*%
%ADD21R,6.000000X2.010000*%
%TD*%
%TA.AperFunction,SMDPad,CuDef*%
%ADD22R,1.470000X1.020000*%
%TD*%
%TA.AperFunction,SMDPad,CuDef*%
%ADD23RoundRect,0.250000X-0.262500X-0.450000X0.262500X-0.450000X0.262500X0.450000X-0.262500X0.450000X0*%
%TD*%
%TA.AperFunction,ComponentPad*%
%ADD24C,1.575000*%
%TD*%
%TA.AperFunction,SMDPad,CuDef*%
%ADD25R,1.020000X1.470000*%
%TD*%
%TA.AperFunction,SMDPad,CuDef*%
%ADD26R,1.400000X0.450000*%
%TD*%
%TA.AperFunction,SMDPad,CuDef*%
%ADD27R,0.900000X1.950000*%
%TD*%
%TA.AperFunction,SMDPad,CuDef*%
%ADD28R,3.200000X1.950000*%
%TD*%
%TA.AperFunction,SMDPad,CuDef*%
%ADD29R,1.200000X1.000000*%
%TD*%
%TA.AperFunction,SMDPad,CuDef*%
%ADD30R,1.550000X2.350000*%
%TD*%
%TA.AperFunction,ViaPad*%
%ADD31C,0.800000*%
%TD*%
%TA.AperFunction,ViaPad*%
%ADD32C,0.850000*%
%TD*%
%TA.AperFunction,Conductor*%
%ADD33C,0.200000*%
%TD*%
%TA.AperFunction,Conductor*%
%ADD34C,0.350000*%
%TD*%
%TA.AperFunction,Conductor*%
%ADD35C,0.250000*%
%TD*%
G04 APERTURE END LIST*
D10*
%TO.P,J1,7*%
%TO.N,N/C*%
X160170000Y-105900000D03*
%TO.P,J1,8*%
X155090000Y-106916000D03*
%TO.P,J1,9*%
X155090000Y-104884000D03*
%TD*%
D11*
%TO.P,J2,MH1,MH1*%
%TO.N,Vgnd_main*%
X132880000Y-124350000D03*
D12*
%TO.P,J2,MH2,MH2*%
X132880000Y-128350000D03*
%TO.P,J2,MH3,MH3*%
X144120000Y-128350000D03*
D11*
%TO.P,J2,MH4,MH4*%
X144120000Y-124350000D03*
%TD*%
D13*
%TO.P,C15,1*%
%TO.N,BMS_Vcc*%
X156400000Y-128580000D03*
%TO.P,C15,2*%
%TO.N,Vgnd_main*%
X156400000Y-126900000D03*
%TD*%
D14*
%TO.P,C8,1*%
%TO.N,Vgnd_main*%
X127610000Y-108650000D03*
%TO.P,C8,2*%
%TO.N,OSC1*%
X129290000Y-108650000D03*
%TD*%
%TO.P,C7,1*%
%TO.N,Vgnd_main*%
X129290000Y-103750000D03*
%TO.P,C7,2*%
%TO.N,OSC2*%
X127610000Y-103750000D03*
%TD*%
D15*
%TO.P,IC_BMS_TP1,1,TEMP*%
%TO.N,Vgnd_main*%
X154312000Y-123995000D03*
%TO.P,IC_BMS_TP1,2,PROG*%
%TO.N,Net-(IC_BMS_TP1-PROG)*%
X154312000Y-125265000D03*
%TO.P,IC_BMS_TP1,3,GND*%
%TO.N,Vgnd_main*%
X154312000Y-126535000D03*
%TO.P,IC_BMS_TP1,4,VCC*%
%TO.N,BMS_Vcc*%
X154312000Y-127805000D03*
%TO.P,IC_BMS_TP1,5,BAT*%
%TO.N,C_BAT+*%
X148888000Y-127805000D03*
%TO.P,IC_BMS_TP1,6,~{STDBY}*%
%TO.N,Net-(IC_BMS_TP1-~{STDBY})*%
X148888000Y-126535000D03*
%TO.P,IC_BMS_TP1,7,~{CHRG}*%
%TO.N,Net-(IC_BMS_TP1-~{CHRG})*%
X148888000Y-125265000D03*
%TO.P,IC_BMS_TP1,8,CE*%
%TO.N,BMS_Vcc*%
X148888000Y-123995000D03*
D16*
%TO.P,IC_BMS_TP1,9,EP*%
%TO.N,unconnected-(IC_BMS_TP1-EP-Pad9)*%
X151600000Y-125900000D03*
%TD*%
D17*
%TO.P,LS1,1,+*%
%TO.N,Net-(LS1-+)*%
X116800000Y-105900000D03*
%TO.P,LS1,2,-*%
%TO.N,Vgnd_main*%
X124400000Y-105900000D03*
%TD*%
D18*
%TO.P,Q2,1*%
%TO.N,Net-(Q2-Pad1)*%
X127200000Y-110690000D03*
%TO.P,Q2,2*%
%TO.N,Net-(LS1-+)*%
X127200000Y-112600000D03*
%TO.P,Q2,3*%
%TO.N,display_main*%
X125100000Y-111645000D03*
%TD*%
D19*
%TO.P,R4,1*%
%TO.N,Buzzer*%
X129200000Y-110745000D03*
%TO.P,R4,2*%
%TO.N,Net-(Q2-Pad1)*%
X129200000Y-112645000D03*
%TD*%
D20*
%TO.P,R12,1*%
%TO.N,Net-(R11-Pad2)*%
X117650000Y-114700000D03*
%TO.P,R12,2*%
%TO.N,uc_supply*%
X119550000Y-114700000D03*
%TD*%
D19*
%TO.P,R16,1*%
%TO.N,Net-(R13-Pad2)*%
X124570000Y-124550000D03*
%TO.P,R16,2*%
%TO.N,uc_supply*%
X124570000Y-122650000D03*
%TD*%
%TO.P,R15,1*%
%TO.N,Net-(R14-Pad1)*%
X126700000Y-114450000D03*
%TO.P,R15,2*%
%TO.N,S_up*%
X126700000Y-116350000D03*
%TD*%
%TO.P,R18,1*%
%TO.N,Net-(R17-Pad2)*%
X136425000Y-115000000D03*
%TO.P,R18,2*%
%TO.N,uc_supply*%
X136425000Y-116900000D03*
%TD*%
%TO.P,R25,1*%
%TO.N,Net-(IC_BMS_TP1-~{STDBY})*%
X146800000Y-126950000D03*
%TO.P,R25,2*%
%TO.N,Net-(LED_green_bms1-K)*%
X146800000Y-128850000D03*
%TD*%
%TO.P,R26,1*%
%TO.N,Net-(IC_BMS_TP1-~{CHRG})*%
X146800000Y-125300000D03*
%TO.P,R26,2*%
%TO.N,Net-(LED_Red_bms1-K)*%
X146800000Y-123400000D03*
%TD*%
%TO.P,R23,1*%
%TO.N,Vgnd_main*%
X156400000Y-125250000D03*
%TO.P,R23,2*%
%TO.N,Net-(IC_BMS_TP1-PROG)*%
X156400000Y-123350000D03*
%TD*%
D20*
%TO.P,R27,1*%
%TO.N,Vgnd_main*%
X133250000Y-118900000D03*
%TO.P,R27,2*%
%TO.N,Net-(J2-CC1)*%
X135150000Y-118900000D03*
%TD*%
D17*
%TO.P,SW_Toggle1,1,1*%
%TO.N,Vdc_battery*%
X123275000Y-128050000D03*
%TO.P,SW_Toggle1,2,2*%
%TO.N,In_Vcc*%
X125775000Y-128050000D03*
%TO.P,SW_Toggle1,3,3*%
%TO.N,unconnected-(SW_Toggle1-Pad3)*%
X128275000Y-128050000D03*
%TD*%
D21*
%TO.P,L1,1*%
%TO.N,Net-(D1-A)*%
X147400000Y-120400000D03*
%TO.P,L1,2*%
%TO.N,In_Vcc*%
X147400000Y-116100000D03*
%TD*%
D18*
%TO.P,Q3,1*%
%TO.N,Net-(Q3-Pad1)*%
X157050065Y-111169365D03*
%TO.P,Q3,2*%
%TO.N,uc_enable_display*%
X157050065Y-113079365D03*
%TO.P,Q3,3*%
%TO.N,In_Vcc*%
X154950065Y-112124365D03*
%TD*%
D22*
%TO.P,C21,1*%
%TO.N,Vgnd_main*%
X138700000Y-116000000D03*
%TO.P,C21,2*%
%TO.N,display_main*%
X138700000Y-117600000D03*
%TD*%
D23*
%TO.P,R3,1*%
%TO.N,Net-(Q1-Pad3)*%
X147937500Y-99800000D03*
%TO.P,R3,2*%
%TO.N,bat_meas*%
X149762500Y-99800000D03*
%TD*%
D19*
%TO.P,R1,1*%
%TO.N,meas_bat_en*%
X152750000Y-103750000D03*
%TO.P,R1,2*%
%TO.N,Net-(Q1-Pad1)*%
X152750000Y-101850000D03*
%TD*%
D20*
%TO.P,R11,1*%
%TO.N,S_left*%
X117650000Y-116700000D03*
%TO.P,R11,2*%
%TO.N,Net-(R11-Pad2)*%
X119550000Y-116700000D03*
%TD*%
D19*
%TO.P,R13,1*%
%TO.N,S_down*%
X126600000Y-124550000D03*
%TO.P,R13,2*%
%TO.N,Net-(R13-Pad2)*%
X126600000Y-122650000D03*
%TD*%
D22*
%TO.P,C12,1*%
%TO.N,S_right*%
X132575000Y-116750000D03*
%TO.P,C12,2*%
%TO.N,Vgnd_main*%
X132575000Y-115150000D03*
%TD*%
D20*
%TO.P,R30,1*%
%TO.N,Net-(IC3-FB)*%
X156750000Y-120850000D03*
%TO.P,R30,2*%
%TO.N,Vgnd_main*%
X154850000Y-120850000D03*
%TD*%
D19*
%TO.P,R17,1*%
%TO.N,S_right*%
X134500000Y-116900000D03*
%TO.P,R17,2*%
%TO.N,Net-(R17-Pad2)*%
X134500000Y-115000000D03*
%TD*%
D24*
%TO.P,J3,1,1*%
%TO.N,Vdc_battery*%
X158200000Y-98450000D03*
%TO.P,J3,2,2*%
%TO.N,Vgnd_main*%
X158200000Y-100950000D03*
%TD*%
D23*
%TO.P,R2,1*%
%TO.N,bat_meas*%
X151437500Y-99800000D03*
%TO.P,R2,2*%
%TO.N,Vdc_battery*%
X153262500Y-99800000D03*
%TD*%
D25*
%TO.P,C19,1*%
%TO.N,Vgnd_main*%
X153200000Y-120850000D03*
%TO.P,C19,2*%
%TO.N,In_Vcc*%
X151600000Y-120850000D03*
%TD*%
D19*
%TO.P,R29,1*%
%TO.N,display_main*%
X158800000Y-118900000D03*
%TO.P,R29,2*%
%TO.N,Net-(IC3-FB)*%
X158800000Y-120800000D03*
%TD*%
%TO.P,R14,1*%
%TO.N,Net-(R14-Pad1)*%
X128705000Y-116350000D03*
%TO.P,R14,2*%
%TO.N,uc_supply*%
X128705000Y-114450000D03*
%TD*%
D22*
%TO.P,C18,1*%
%TO.N,Vgnd_main*%
X158800000Y-115650000D03*
%TO.P,C18,2*%
%TO.N,Net-(C18-Pad2)*%
X158800000Y-117250000D03*
%TD*%
D25*
%TO.P,C20,1*%
%TO.N,Vgnd_main*%
X153200000Y-115250000D03*
%TO.P,C20,2*%
%TO.N,Net-(IC3-SS)*%
X151600000Y-115250000D03*
%TD*%
D26*
%TO.P,IC3,1,COMP*%
%TO.N,Net-(IC3-COMP)*%
X156600000Y-117075000D03*
%TO.P,IC3,2,FB*%
%TO.N,Net-(IC3-FB)*%
X156600000Y-117725000D03*
%TO.P,IC3,3,EN*%
%TO.N,uc_enable_display*%
X156600000Y-118375000D03*
%TO.P,IC3,4,PGND*%
%TO.N,Vgnd_main*%
X156600000Y-119025000D03*
%TO.P,IC3,5,SW*%
%TO.N,Net-(D1-A)*%
X152200000Y-119025000D03*
%TO.P,IC3,6,IN*%
%TO.N,In_Vcc*%
X152200000Y-118375000D03*
%TO.P,IC3,7,FREQ*%
X152200000Y-117725000D03*
%TO.P,IC3,8,SS*%
%TO.N,Net-(IC3-SS)*%
X152200000Y-117075000D03*
%TD*%
D22*
%TO.P,C16,1*%
%TO.N,In_Vcc*%
X152800000Y-110705000D03*
%TO.P,C16,2*%
%TO.N,Vgnd_main*%
X152800000Y-109105000D03*
%TD*%
D27*
%TO.P,IC2,1,VIN*%
%TO.N,In_Vcc*%
X150300000Y-112450000D03*
%TO.P,IC2,2,GND_1*%
%TO.N,Vgnd_main*%
X148000000Y-112450000D03*
%TO.P,IC2,3,VOUT*%
%TO.N,uc_supply*%
X145700000Y-112450000D03*
D28*
%TO.P,IC2,4,GND_2*%
%TO.N,Vgnd_main*%
X148000000Y-106350000D03*
%TD*%
D20*
%TO.P,R28,1*%
%TO.N,Net-(IC3-COMP)*%
X154850000Y-115250000D03*
%TO.P,R28,2*%
%TO.N,Net-(C18-Pad2)*%
X156750000Y-115250000D03*
%TD*%
D29*
%TO.P,Y1,1,CRYSTAL_1*%
%TO.N,OSC2*%
X127625000Y-105550000D03*
%TO.P,Y1,2,GND_1*%
%TO.N,Vgnd_main*%
X129325000Y-105550000D03*
%TO.P,Y1,3,CRYSTAL_2*%
%TO.N,OSC1*%
X129325000Y-106850000D03*
%TO.P,Y1,4,GND_2*%
%TO.N,Vgnd_main*%
X127625000Y-106850000D03*
%TD*%
D20*
%TO.P,R31,1*%
%TO.N,Net-(J2-CC2)*%
X133250000Y-121000000D03*
%TO.P,R31,2*%
%TO.N,Vgnd_main*%
X135150000Y-121000000D03*
%TD*%
D22*
%TO.P,C17,1*%
%TO.N,uc_supply*%
X143200000Y-110705000D03*
%TO.P,C17,2*%
%TO.N,Vgnd_main*%
X143200000Y-109105000D03*
%TD*%
D30*
%TO.P,D1,1,K*%
%TO.N,display_main*%
X142200000Y-116050000D03*
%TO.P,D1,2,A*%
%TO.N,Net-(D1-A)*%
X142200000Y-120350000D03*
%TD*%
D22*
%TO.P,C10,1*%
%TO.N,S_down*%
X128570000Y-124400000D03*
%TO.P,C10,2*%
%TO.N,Vgnd_main*%
X128570000Y-122800000D03*
%TD*%
%TO.P,C11,1*%
%TO.N,Vgnd_main*%
X124805000Y-114600000D03*
%TO.P,C11,2*%
%TO.N,S_up*%
X124805000Y-116200000D03*
%TD*%
D19*
%TO.P,R24,1*%
%TO.N,uc_enable_display*%
X159100065Y-113074365D03*
%TO.P,R24,2*%
%TO.N,Net-(Q3-Pad1)*%
X159100065Y-111174365D03*
%TD*%
D18*
%TO.P,Q1,1*%
%TO.N,Net-(Q1-Pad1)*%
X150600000Y-101845000D03*
%TO.P,Q1,2*%
%TO.N,Vgnd_main*%
X150600000Y-103755000D03*
%TO.P,Q1,3*%
%TO.N,Net-(Q1-Pad3)*%
X148500000Y-102800000D03*
%TD*%
D25*
%TO.P,C9,1*%
%TO.N,S_left*%
X117800000Y-118700000D03*
%TO.P,C9,2*%
%TO.N,Vgnd_main*%
X119400000Y-118700000D03*
%TD*%
D31*
%TO.N,S_a*%
X142100000Y-117900000D03*
%TO.N,uc_supply*%
X134500000Y-103700000D03*
D32*
%TO.N,Vgnd_main*%
X140599406Y-113322354D03*
%TO.N,BMS_Vcc*%
X152300000Y-105500000D03*
%TO.N,Vdc_battery*%
X125400000Y-97300000D03*
%TO.N,In_Vcc*%
X148362347Y-114387653D03*
D31*
%TO.N,Net-(R19-Pad2)*%
X146400000Y-117705002D03*
X147900000Y-118500000D03*
%TO.N,uc_supply*%
X146700000Y-111700000D03*
X150000000Y-114300000D03*
D32*
%TO.N,Vgnd_main*%
X149812294Y-109574142D03*
X142600000Y-108000000D03*
D31*
%TO.N,ISDS_SDA*%
X124800000Y-102800000D03*
X140100000Y-105100000D03*
%TO.N,ISDS_SCL*%
X124800000Y-100900000D03*
X140800000Y-101400000D03*
%TO.N,ISDS_int_0*%
X130700000Y-104900000D03*
X141325000Y-102200000D03*
%TO.N,uc_enable_display*%
X156500000Y-112300000D03*
X141600000Y-113100000D03*
%TO.N,Net-(R20-Pad2)*%
X159000000Y-126125000D03*
X158900000Y-127800000D03*
D32*
%TO.N,Vgnd_main*%
X160600000Y-126600000D03*
D31*
%TO.N,S_b*%
X155300000Y-110300000D03*
X138422503Y-109999998D03*
D32*
%TO.N,display_main*%
X160200000Y-119200000D03*
X143774998Y-116200000D03*
X139900000Y-117674998D03*
X137072403Y-118175866D03*
X125715686Y-110715686D03*
X120700000Y-108600000D03*
%TO.N,Vgnd_main*%
X157000000Y-80600000D03*
X124300000Y-80300000D03*
%TO.N,display_main*%
X123200000Y-86400000D03*
X127500000Y-85700000D03*
X121700000Y-67000000D03*
X127500000Y-67200000D03*
D31*
%TO.N,PWM_display*%
X123000000Y-55200000D03*
X139300000Y-109800000D03*
D32*
%TO.N,Vgnd_main*%
X132800000Y-107700000D03*
D31*
%TO.N,uc_supply*%
X144000000Y-111400000D03*
X128700000Y-115300000D03*
X133600000Y-100300000D03*
X123400000Y-117100000D03*
X133100000Y-112000000D03*
X130625000Y-99700000D03*
X121900000Y-115900000D03*
X146300000Y-100275000D03*
X145600000Y-101600000D03*
X136500000Y-116100000D03*
X131200000Y-102800000D03*
X136100000Y-112900000D03*
%TO.N,OSC2*%
X135295158Y-107574999D03*
X126400000Y-105900000D03*
X132700000Y-106200000D03*
%TO.N,OSC1*%
X131400000Y-106600000D03*
D32*
%TO.N,Vgnd_main*%
X120800000Y-112000000D03*
X152612071Y-114142775D03*
X154100000Y-122500000D03*
X128700000Y-121400000D03*
X155600000Y-103100000D03*
X148400000Y-103800000D03*
X153400000Y-107100000D03*
X122500000Y-117700000D03*
X131500000Y-113000000D03*
X138400000Y-105000000D03*
X131100000Y-117400000D03*
X136500000Y-100400000D03*
X124300000Y-113300000D03*
X160110254Y-116495644D03*
X137900000Y-120000000D03*
X139300000Y-116464998D03*
X131600000Y-103900000D03*
X118600000Y-120000000D03*
%TO.N,BMS_Vcc*%
X149900000Y-123300000D03*
X132000000Y-122400000D03*
X141041585Y-122137979D03*
X152900000Y-128500000D03*
D31*
%TO.N,Net-(LED_green_bms1-K)*%
X148200000Y-129600000D03*
%TO.N,Net-(IC_BMS_TP1-PROG)*%
X153356502Y-124920723D03*
X157600000Y-123800000D03*
%TO.N,Net-(IC3-FB)*%
X156100000Y-120500000D03*
X154050000Y-118599997D03*
%TO.N,Net-(LED_Red_bms1-K)*%
X145500000Y-125600000D03*
%TO.N,SWDIO*%
X143300000Y-106800000D03*
X159000000Y-107500000D03*
X151000000Y-107900000D03*
X146200000Y-108000000D03*
%TO.N,reset*%
X138200000Y-108000000D03*
X157000000Y-104000000D03*
%TO.N,SWCLK*%
X158000000Y-107300000D03*
X157700000Y-103300000D03*
%TO.N,Net-(J2-CC1)*%
X136100000Y-118500000D03*
%TO.N,Net-(J2-CC2)*%
X136200000Y-119900000D03*
X132300000Y-120700000D03*
X139900002Y-118700000D03*
%TO.N,meas_bat_en*%
X142700000Y-105500000D03*
%TO.N,bat_meas*%
X149100000Y-98200000D03*
X140225735Y-109999998D03*
%TO.N,USB_D+*%
X139533884Y-122133884D03*
X147276992Y-114376992D03*
X138400000Y-121500000D03*
%TO.N,USB_D-*%
X146416560Y-114000000D03*
X139475735Y-120375735D03*
%TO.N,Net-(R11-Pad2)*%
X116500000Y-114200000D03*
%TO.N,Net-(R13-Pad2)*%
X122700000Y-122400000D03*
X129636659Y-120983707D03*
%TO.N,Net-(R14-Pad1)*%
X125445668Y-113325000D03*
%TO.N,Net-(R17-Pad2)*%
X136800000Y-114100000D03*
X132000000Y-114039998D03*
%TO.N,Net-(R19-Pad2)*%
X149184015Y-110384015D03*
X152200000Y-111900000D03*
%TO.N,Net-(R20-Pad2)*%
X158004747Y-122254113D03*
X151500000Y-128300000D03*
%TO.N,Net-(U1-Vdi_s5)*%
X147500000Y-67200000D03*
X122800000Y-92400000D03*
X139500000Y-85900000D03*
X152500000Y-66900000D03*
%TO.N,Net-(U1-Vdi_s3)*%
X138300000Y-70100000D03*
X122400000Y-71400000D03*
%TO.N,Net-(U1-Vdi_s2)*%
X122600000Y-57800000D03*
X149500000Y-52800000D03*
%TO.N,Net-(U1-Vdi_s6)*%
X152200000Y-90200000D03*
X123500000Y-94100000D03*
%TO.N,Net-(U1-Vdi_s4)*%
X122700000Y-75500000D03*
X151500000Y-69600000D03*
%TO.N,Buzzer*%
X141600000Y-109500000D03*
%TO.N,S_a*%
X148400000Y-123000000D03*
%TO.N,S_right*%
X135300000Y-116000000D03*
%TO.N,S_left*%
X119200000Y-110400000D03*
X136100000Y-112000000D03*
X131300000Y-111199998D03*
X116000000Y-113200000D03*
X123400000Y-109625000D03*
%TO.N,S_down*%
X131983988Y-119857302D03*
X127600000Y-124100000D03*
X127400000Y-120100000D03*
%TO.N,S_up*%
X132224786Y-112275214D03*
%TO.N,ISDS_int_1*%
X129525000Y-99949498D03*
X142000000Y-100500000D03*
%TD*%
D33*
%TO.N,Net-(Q1-Pad1)*%
X152745000Y-101845000D02*
X152750000Y-101850000D01*
X150600000Y-101845000D02*
X152745000Y-101845000D01*
D34*
%TO.N,Net-(D1-A)*%
X147350000Y-120350000D02*
X147400000Y-120400000D01*
X142200000Y-120350000D02*
X147350000Y-120350000D01*
D33*
%TO.N,uc_supply*%
X134500000Y-101200000D02*
X133600000Y-100300000D01*
X134500000Y-103700000D02*
X134500000Y-101200000D01*
%TO.N,USB_D-*%
X140625000Y-119226470D02*
X139475735Y-120375735D01*
X141275736Y-114000000D02*
X140400000Y-114875736D01*
X140400000Y-117100000D02*
X140625000Y-117325000D01*
X143700000Y-114300000D02*
X143400000Y-114000000D01*
X146116560Y-114300000D02*
X143700000Y-114300000D01*
X140625000Y-117325000D02*
X140625000Y-119226470D01*
X146416560Y-114000000D02*
X146116560Y-114300000D01*
X143400000Y-114000000D02*
X141275736Y-114000000D01*
X140400000Y-114875736D02*
X140400000Y-117100000D01*
D34*
%TO.N,Vgnd_main*%
X140577646Y-113322354D02*
X140599406Y-113322354D01*
X140400000Y-113500000D02*
X140577646Y-113322354D01*
X139300000Y-114600000D02*
X140400000Y-113500000D01*
X139300000Y-116464998D02*
X139300000Y-114600000D01*
D33*
%TO.N,USB_D+*%
X140925000Y-119775000D02*
X139533884Y-121166116D01*
X139533884Y-121166116D02*
X139533884Y-122133884D01*
X140925000Y-114775000D02*
X140925000Y-119775000D01*
X143200000Y-114300000D02*
X141400000Y-114300000D01*
X147100000Y-114600000D02*
X143500000Y-114600000D01*
X141400000Y-114300000D02*
X140925000Y-114775000D01*
X143500000Y-114600000D02*
X143200000Y-114300000D01*
X147300000Y-114400000D02*
X147100000Y-114600000D01*
X147276992Y-114376992D02*
X147300000Y-114400000D01*
%TO.N,Net-(IC3-COMP)*%
X156600000Y-117000000D02*
X154850000Y-115250000D01*
X156600000Y-117075000D02*
X156600000Y-117000000D01*
%TO.N,Net-(R19-Pad2)*%
X146400000Y-117900000D02*
X147000000Y-118500000D01*
X146400000Y-117705002D02*
X146400000Y-117900000D01*
X147900000Y-118500000D02*
X147000000Y-118500000D01*
%TO.N,uc_supply*%
X145950000Y-112450000D02*
X146700000Y-111700000D01*
X145700000Y-112450000D02*
X145950000Y-112450000D01*
%TO.N,Vgnd_main*%
X152130858Y-109574142D02*
X149812294Y-109574142D01*
X152600000Y-109105000D02*
X152130858Y-109574142D01*
X152800000Y-109105000D02*
X152600000Y-109105000D01*
X142600000Y-108000000D02*
X142600000Y-108505000D01*
X142600000Y-108505000D02*
X143200000Y-109105000D01*
%TO.N,uc_enable_display*%
X157050065Y-112850065D02*
X156500000Y-112300000D01*
X157050065Y-113079365D02*
X157050065Y-112850065D01*
%TO.N,Net-(R20-Pad2)*%
X158700000Y-122800000D02*
X159000000Y-123100000D01*
X159000000Y-123100000D02*
X159000000Y-126125000D01*
X158700000Y-128000000D02*
X158900000Y-127800000D01*
X158700000Y-128900000D02*
X158700000Y-128000000D01*
D34*
%TO.N,Vgnd_main*%
X160300000Y-126900000D02*
X160600000Y-126600000D01*
X156400000Y-126900000D02*
X160300000Y-126900000D01*
X154850000Y-120300000D02*
X154850000Y-120850000D01*
X156125000Y-119025000D02*
X154850000Y-120300000D01*
X156600000Y-119025000D02*
X156125000Y-119025000D01*
%TO.N,display_main*%
X159900000Y-118900000D02*
X160200000Y-119200000D01*
X158800000Y-118900000D02*
X159900000Y-118900000D01*
X143624998Y-116050000D02*
X143774998Y-116200000D01*
X142200000Y-116050000D02*
X143624998Y-116050000D01*
X139825002Y-117600000D02*
X139900000Y-117674998D01*
X138700000Y-117600000D02*
X139825002Y-117600000D01*
X138124134Y-118175866D02*
X138700000Y-117600000D01*
X137072403Y-118175866D02*
X138124134Y-118175866D01*
X125100000Y-111331372D02*
X125715686Y-110715686D01*
X125100000Y-111645000D02*
X125100000Y-111331372D01*
%TO.N,Vgnd_main*%
X156700000Y-80300000D02*
X157000000Y-80600000D01*
X124300000Y-80300000D02*
X156700000Y-80300000D01*
%TO.N,display_main*%
X123600000Y-86000000D02*
X123200000Y-86400000D01*
X127500000Y-85700000D02*
X123900000Y-85700000D01*
X123900000Y-85700000D02*
X123600000Y-86000000D01*
X121900000Y-67200000D02*
X121700000Y-67000000D01*
X127500000Y-67200000D02*
X121900000Y-67200000D01*
%TO.N,Vgnd_main*%
X138400000Y-106500000D02*
X138400000Y-105000000D01*
X132800000Y-107700000D02*
X133449999Y-108349999D01*
X133449999Y-108349999D02*
X136550001Y-108349999D01*
X136550001Y-108349999D02*
X138400000Y-106500000D01*
D33*
%TO.N,uc_supply*%
X144650000Y-111400000D02*
X145700000Y-112450000D01*
X144000000Y-111400000D02*
X144650000Y-111400000D01*
X144000000Y-111400000D02*
X143895000Y-111400000D01*
X143895000Y-111400000D02*
X143200000Y-110705000D01*
D34*
%TO.N,Vgnd_main*%
X148000000Y-112450000D02*
X148000000Y-106350000D01*
X148000000Y-107296016D02*
X145855140Y-109440876D01*
X145855140Y-109440876D02*
X143535875Y-109440876D01*
X148000000Y-106350000D02*
X148000000Y-107296016D01*
D33*
%TO.N,uc_supply*%
X119550000Y-114900000D02*
X120900000Y-114900000D01*
D35*
X131225000Y-100300000D02*
X130625000Y-99700000D01*
X146300000Y-100900000D02*
X145600000Y-101600000D01*
D33*
X136425000Y-116900000D02*
X136425000Y-116175000D01*
D35*
X133600000Y-100400000D02*
X133600000Y-100300000D01*
X146300000Y-100275000D02*
X146300000Y-100900000D01*
D33*
X124570000Y-122650000D02*
X124570000Y-118270000D01*
X120900000Y-114900000D02*
X121900000Y-115900000D01*
D35*
X131200000Y-102800000D02*
X133600000Y-100400000D01*
D33*
X128700000Y-115300000D02*
X128700000Y-114455000D01*
X134000000Y-112900000D02*
X133100000Y-112000000D01*
X124570000Y-118270000D02*
X123400000Y-117100000D01*
D35*
X133600000Y-100300000D02*
X131225000Y-100300000D01*
D33*
X128700000Y-114455000D02*
X128705000Y-114450000D01*
X136100000Y-112900000D02*
X134000000Y-112900000D01*
X136425000Y-116175000D02*
X136500000Y-116100000D01*
%TO.N,OSC2*%
X127625000Y-105550000D02*
X126750000Y-105550000D01*
X132700000Y-106200000D02*
X134074999Y-107574999D01*
X126750000Y-105550000D02*
X126400000Y-105900000D01*
X127625000Y-103765000D02*
X127610000Y-103750000D01*
X134074999Y-107574999D02*
X135295158Y-107574999D01*
X127625000Y-105550000D02*
X127625000Y-103765000D01*
D35*
%TO.N,OSC1*%
X129290000Y-108650000D02*
X129290000Y-106885000D01*
X129575000Y-106600000D02*
X129325000Y-106850000D01*
X131400000Y-106600000D02*
X129575000Y-106600000D01*
X129290000Y-106885000D02*
X129325000Y-106850000D01*
D34*
%TO.N,In_Vcc*%
X151600000Y-120850000D02*
X151600000Y-120625000D01*
X153275000Y-119625000D02*
X153275000Y-118500000D01*
X152200000Y-117725000D02*
X149025000Y-117725000D01*
X147400000Y-115350000D02*
X150300000Y-112450000D01*
X153150000Y-118375000D02*
X152200000Y-118375000D01*
X149025000Y-117725000D02*
X147400000Y-116100000D01*
X152200000Y-118375000D02*
X152200000Y-117725000D01*
X152600000Y-119625000D02*
X153275000Y-119625000D01*
X150525000Y-112675000D02*
X154399430Y-112675000D01*
X154950065Y-112124365D02*
X154219365Y-112124365D01*
X154219365Y-112124365D02*
X152800000Y-110705000D01*
X147400000Y-116100000D02*
X147400000Y-115350000D01*
X153275000Y-118500000D02*
X153150000Y-118375000D01*
X150300000Y-112450000D02*
X150525000Y-112675000D01*
X154399430Y-112675000D02*
X154950065Y-112124365D01*
X151600000Y-120625000D02*
X152600000Y-119625000D01*
%TO.N,Vgnd_main*%
X156050000Y-103100000D02*
X158200000Y-100950000D01*
X129325000Y-105550000D02*
X129325000Y-103785000D01*
X160050000Y-115650000D02*
X160110254Y-115710254D01*
X156400000Y-125250000D02*
X155145000Y-123995000D01*
X133250000Y-118900000D02*
X132600000Y-118900000D01*
X135150000Y-120800000D02*
X133250000Y-118900000D01*
D33*
X138400000Y-105000000D02*
X136200000Y-102800000D01*
D34*
X144120000Y-124350000D02*
X142770000Y-123000000D01*
X119400000Y-118700000D02*
X119400000Y-119200000D01*
X124900000Y-110400000D02*
X122400000Y-110400000D01*
X125350000Y-106850000D02*
X124400000Y-105900000D01*
X124950000Y-110350000D02*
X124900000Y-110400000D01*
X155145000Y-123995000D02*
X154312000Y-123995000D01*
X135150000Y-121000000D02*
X135150000Y-120800000D01*
X153200000Y-114730704D02*
X152612071Y-114142775D01*
X130800000Y-116100000D02*
X130800000Y-114000000D01*
X131450000Y-103750000D02*
X131600000Y-103900000D01*
X154312000Y-126535000D02*
X156035000Y-126535000D01*
X154100000Y-121750000D02*
X153200000Y-120850000D01*
X124805000Y-113805000D02*
X124300000Y-113300000D01*
D33*
X148400000Y-103800000D02*
X148445000Y-103755000D01*
D34*
X141200000Y-123000000D02*
X140700000Y-123500000D01*
X160110254Y-115710254D02*
X160110254Y-116495644D01*
X139300000Y-116464998D02*
X139164998Y-116464998D01*
X128700000Y-122670000D02*
X128570000Y-122800000D01*
X154850000Y-121750000D02*
X154100000Y-122500000D01*
X154312000Y-123995000D02*
X154312000Y-122712000D01*
X127625000Y-106850000D02*
X125350000Y-106850000D01*
X119400000Y-119200000D02*
X118600000Y-120000000D01*
X122400000Y-110400000D02*
X120800000Y-112000000D01*
X132600000Y-118900000D02*
X131100000Y-117400000D01*
X155600000Y-103100000D02*
X156050000Y-103100000D01*
X128795000Y-122800000D02*
X130345000Y-124350000D01*
D33*
X136200000Y-101300000D02*
X136200000Y-100700000D01*
D34*
X135150000Y-121000000D02*
X136500000Y-121000000D01*
X129325000Y-103785000D02*
X129290000Y-103750000D01*
X156400000Y-125250000D02*
X156400000Y-126900000D01*
X131100000Y-116400000D02*
X130800000Y-116100000D01*
X156035000Y-126535000D02*
X156400000Y-126900000D01*
X154100000Y-122500000D02*
X154100000Y-121750000D01*
X136500000Y-121000000D02*
X137500000Y-120000000D01*
X131100000Y-116400000D02*
X132350000Y-115150000D01*
X139164998Y-116464998D02*
X138700000Y-116000000D01*
X154850000Y-120850000D02*
X154850000Y-121750000D01*
X144120000Y-128350000D02*
X144120000Y-124350000D01*
X126650000Y-108650000D02*
X124950000Y-110350000D01*
X154312000Y-122712000D02*
X154100000Y-122500000D01*
X127610000Y-108650000D02*
X126650000Y-108650000D01*
X132350000Y-115150000D02*
X132575000Y-115150000D01*
D33*
X124805000Y-114600000D02*
X124580000Y-114600000D01*
D34*
X128700000Y-121400000D02*
X128700000Y-122670000D01*
D33*
X124580000Y-114600000D02*
X122500000Y-116680000D01*
X136200000Y-102800000D02*
X136200000Y-101300000D01*
D34*
X124805000Y-114600000D02*
X124805000Y-113805000D01*
X127610000Y-108650000D02*
X127610000Y-106865000D01*
X130800000Y-114000000D02*
X131500000Y-113300000D01*
X129290000Y-103750000D02*
X131450000Y-103750000D01*
X131100000Y-117400000D02*
X131100000Y-116400000D01*
X133730000Y-123500000D02*
X132880000Y-124350000D01*
D33*
X148445000Y-103755000D02*
X150600000Y-103755000D01*
D34*
X158800000Y-115650000D02*
X160050000Y-115650000D01*
X131500000Y-113300000D02*
X131500000Y-113000000D01*
X132880000Y-128350000D02*
X132880000Y-124350000D01*
X137500000Y-120000000D02*
X137900000Y-120000000D01*
X142770000Y-123000000D02*
X141200000Y-123000000D01*
X153200000Y-115250000D02*
X153200000Y-114730704D01*
X140700000Y-123500000D02*
X133730000Y-123500000D01*
X130345000Y-124350000D02*
X132880000Y-124350000D01*
D33*
X122500000Y-116680000D02*
X122500000Y-117700000D01*
D34*
X128570000Y-122800000D02*
X128795000Y-122800000D01*
D33*
X136200000Y-100700000D02*
X136500000Y-100400000D01*
D34*
X127610000Y-106865000D02*
X127625000Y-106850000D01*
%TO.N,BMS_Vcc*%
X153617000Y-128500000D02*
X154312000Y-127805000D01*
X136300000Y-122700000D02*
X136508884Y-122908884D01*
X140270680Y-122908884D02*
X141041585Y-122137979D01*
X155400000Y-129300000D02*
X155800000Y-129300000D01*
X136508884Y-122908884D02*
X140270680Y-122908884D01*
X155800000Y-129300000D02*
X155800000Y-129180000D01*
X149205000Y-123995000D02*
X149900000Y-123300000D01*
X154312000Y-128212000D02*
X155400000Y-129300000D01*
X148888000Y-123995000D02*
X149205000Y-123995000D01*
X154312000Y-127805000D02*
X154312000Y-128212000D01*
X148900000Y-123983000D02*
X148888000Y-123995000D01*
X135800000Y-122400000D02*
X136100000Y-122700000D01*
X136100000Y-122700000D02*
X136300000Y-122700000D01*
X152900000Y-128500000D02*
X153617000Y-128500000D01*
X155800000Y-129180000D02*
X156400000Y-128580000D01*
X132000000Y-122400000D02*
X135800000Y-122400000D01*
D35*
%TO.N,Vgnd_main*%
X150755000Y-109105000D02*
X148000000Y-106350000D01*
X152800000Y-109105000D02*
X150755000Y-109105000D01*
%TO.N,Net-(C18-Pad2)*%
X158800000Y-117250000D02*
X158575000Y-117250000D01*
X158575000Y-117250000D02*
X156750000Y-115425000D01*
X156750000Y-115425000D02*
X156750000Y-115250000D01*
%TO.N,Net-(IC3-SS)*%
X151600000Y-116475000D02*
X152200000Y-117075000D01*
X151600000Y-115250000D02*
X151600000Y-116475000D01*
%TO.N,display_main*%
X142727690Y-117255012D02*
X142727690Y-116577690D01*
X142727690Y-116577690D02*
X142200000Y-116050000D01*
%TO.N,Net-(LED_green_bms1-K)*%
X148200000Y-129600000D02*
X147550000Y-129600000D01*
X147550000Y-129600000D02*
X146800000Y-128850000D01*
%TO.N,Net-(IC_BMS_TP1-PROG)*%
X153700779Y-125265000D02*
X153356502Y-124920723D01*
X154312000Y-125265000D02*
X153700779Y-125265000D01*
X157600000Y-123800000D02*
X156850000Y-123800000D01*
X156850000Y-123800000D02*
X156400000Y-123350000D01*
%TO.N,Net-(IC_BMS_TP1-~{STDBY})*%
X148473000Y-126950000D02*
X148888000Y-126535000D01*
X146800000Y-126950000D02*
X148473000Y-126950000D01*
%TO.N,Net-(IC_BMS_TP1-~{CHRG})*%
X148853000Y-125300000D02*
X148888000Y-125265000D01*
X146800000Y-125300000D02*
X148853000Y-125300000D01*
%TO.N,Net-(IC3-FB)*%
X156600000Y-117725000D02*
X154924997Y-117725000D01*
X156800000Y-120800000D02*
X156750000Y-120850000D01*
X156400000Y-120500000D02*
X156750000Y-120850000D01*
X156100000Y-120500000D02*
X156400000Y-120500000D01*
X158800000Y-120800000D02*
X156800000Y-120800000D01*
X154924997Y-117725000D02*
X154050000Y-118599997D01*
%TO.N,uc_enable_display*%
X157925000Y-118000000D02*
X159745000Y-118000000D01*
X159100065Y-113074365D02*
X157055065Y-113074365D01*
X157550000Y-118375000D02*
X157925000Y-118000000D01*
X156600000Y-118375000D02*
X157550000Y-118375000D01*
X159774365Y-113074365D02*
X159100065Y-113074365D01*
X159745000Y-118000000D02*
X161100000Y-116645000D01*
X161100000Y-116645000D02*
X161100000Y-114400000D01*
X161100000Y-114400000D02*
X159774365Y-113074365D01*
X157055065Y-113074365D02*
X157050065Y-113079365D01*
%TO.N,Net-(LED_Red_bms1-K)*%
X145500000Y-125200000D02*
X145585000Y-125115000D01*
X145585000Y-124615000D02*
X146800000Y-123400000D01*
X145500000Y-125600000D02*
X145500000Y-125200000D01*
X145585000Y-125115000D02*
X145585000Y-124615000D01*
%TO.N,Net-(D1-A)*%
X148775000Y-119025000D02*
X147400000Y-120400000D01*
X152200000Y-119025000D02*
X148775000Y-119025000D01*
%TO.N,SWDIO*%
X151025000Y-107925000D02*
X151000000Y-107900000D01*
X146200000Y-108000000D02*
X144500000Y-108000000D01*
X158575000Y-107925000D02*
X151025000Y-107925000D01*
X159000000Y-107500000D02*
X158575000Y-107925000D01*
X144500000Y-108000000D02*
X143300000Y-106800000D01*
%TO.N,SWCLK*%
X157700000Y-103800000D02*
X158000000Y-104100000D01*
X157700000Y-103300000D02*
X157700000Y-103800000D01*
X158000000Y-104100000D02*
X158000000Y-107300000D01*
%TO.N,Net-(J2-CC1)*%
X136100000Y-118500000D02*
X135550000Y-118500000D01*
X135550000Y-118500000D02*
X135150000Y-118900000D01*
%TO.N,Net-(J2-CC2)*%
X139350002Y-119250000D02*
X137500000Y-119250000D01*
X132300000Y-120700000D02*
X132950000Y-120700000D01*
X132950000Y-120700000D02*
X133250000Y-121000000D01*
X136850000Y-119250000D02*
X136200000Y-119900000D01*
X137500000Y-119250000D02*
X136850000Y-119250000D01*
X139900002Y-118700000D02*
X139350002Y-119250000D01*
%TO.N,Net-(Q1-Pad3)*%
X147937500Y-102237500D02*
X148500000Y-102800000D01*
X147937500Y-99800000D02*
X147937500Y-102237500D01*
%TO.N,meas_bat_en*%
X143500000Y-104700000D02*
X142700000Y-105500000D01*
X151400000Y-104700000D02*
X143500000Y-104700000D01*
X152750000Y-103750000D02*
X152350000Y-103750000D01*
X152350000Y-103750000D02*
X151400000Y-104700000D01*
%TO.N,bat_meas*%
X151437500Y-99800000D02*
X149762500Y-99800000D01*
D33*
X149762500Y-98862500D02*
X149100000Y-98200000D01*
X149762500Y-99800000D02*
X149762500Y-98862500D01*
D35*
%TO.N,USB_D+*%
X138400000Y-121500000D02*
X138900000Y-121500000D01*
X138900000Y-121500000D02*
X139533884Y-122133884D01*
%TO.N,Net-(R11-Pad2)*%
X117650000Y-114900000D02*
X117200000Y-114900000D01*
X117650000Y-114900000D02*
X117750000Y-114900000D01*
X117750000Y-114900000D02*
X119550000Y-116700000D01*
X117200000Y-114900000D02*
X116500000Y-114200000D01*
%TO.N,Net-(R13-Pad2)*%
X129636659Y-120983707D02*
X129302952Y-120650000D01*
X123000000Y-123400000D02*
X122700000Y-123100000D01*
X127950000Y-120650000D02*
X126600000Y-122000000D01*
X126470000Y-122650000D02*
X124570000Y-124550000D01*
X122700000Y-123100000D02*
X122700000Y-122400000D01*
X129302952Y-120650000D02*
X127950000Y-120650000D01*
X124150000Y-124550000D02*
X123000000Y-123400000D01*
X126600000Y-122000000D02*
X126600000Y-122650000D01*
X126600000Y-122650000D02*
X126470000Y-122650000D01*
X124570000Y-124550000D02*
X124150000Y-124550000D01*
D33*
%TO.N,Net-(R14-Pad1)*%
X126805000Y-114450000D02*
X128705000Y-116350000D01*
X126700000Y-114450000D02*
X126570668Y-114450000D01*
X126570668Y-114450000D02*
X125445668Y-113325000D01*
X126700000Y-114450000D02*
X126805000Y-114450000D01*
D35*
%TO.N,Net-(R17-Pad2)*%
X134500000Y-115000000D02*
X136425000Y-115000000D01*
X136800000Y-114625000D02*
X136425000Y-115000000D01*
X132000000Y-114039998D02*
X136739998Y-114039998D01*
X136800000Y-114100000D02*
X136800000Y-114625000D01*
X136739998Y-114039998D02*
X136800000Y-114100000D01*
%TO.N,Net-(R19-Pad2)*%
X149184015Y-110384015D02*
X150684015Y-110384015D01*
X150684015Y-110384015D02*
X152200000Y-111900000D01*
%TO.N,Net-(R20-Pad2)*%
X158700000Y-122800000D02*
X158154113Y-122254113D01*
X158154113Y-122254113D02*
X158004747Y-122254113D01*
X157800000Y-129800000D02*
X158700000Y-128900000D01*
X151500000Y-128300000D02*
X153000000Y-129800000D01*
X153000000Y-129800000D02*
X157800000Y-129800000D01*
D33*
%TO.N,Net-(LS1-+)*%
X121250305Y-112575000D02*
X121025305Y-112800000D01*
X116800000Y-109025305D02*
X116800000Y-105900000D01*
X120574695Y-112800000D02*
X116800000Y-109025305D01*
X127200000Y-112600000D02*
X127175000Y-112575000D01*
X121025305Y-112800000D02*
X120574695Y-112800000D01*
X127175000Y-112575000D02*
X121250305Y-112575000D01*
D35*
%TO.N,Net-(U1-Vdi_s5)*%
X139500000Y-85900000D02*
X129300000Y-85900000D01*
X152500000Y-66900000D02*
X151900000Y-66900000D01*
X129300000Y-85900000D02*
X122800000Y-92400000D01*
X151600000Y-67200000D02*
X147500000Y-67200000D01*
X151900000Y-66900000D02*
X151600000Y-67200000D01*
%TO.N,Net-(U1-Vdi_s3)*%
X138300000Y-70100000D02*
X123700000Y-70100000D01*
X123700000Y-70100000D02*
X122400000Y-71400000D01*
%TO.N,Net-(U1-Vdi_s2)*%
X148400000Y-53200000D02*
X148800000Y-52800000D01*
X148800000Y-52800000D02*
X149500000Y-52800000D01*
X122600000Y-57800000D02*
X143800000Y-57800000D01*
X143800000Y-57800000D02*
X148400000Y-53200000D01*
%TO.N,Net-(U1-Vdi_s6)*%
X148300000Y-94100000D02*
X152200000Y-90200000D01*
X123500000Y-94100000D02*
X148300000Y-94100000D01*
%TO.N,Net-(U1-Vdi_s4)*%
X145600000Y-75500000D02*
X151500000Y-69600000D01*
X122700000Y-75500000D02*
X145600000Y-75500000D01*
D33*
%TO.N,Buzzer*%
X140500002Y-110599998D02*
X141600000Y-109500000D01*
X129345002Y-110599998D02*
X140500002Y-110599998D01*
X129200000Y-110745000D02*
X129345002Y-110599998D01*
D35*
%TO.N,S_right*%
X134500000Y-116900000D02*
X132725000Y-116900000D01*
X134500000Y-116800000D02*
X135300000Y-116000000D01*
X134500000Y-116900000D02*
X134500000Y-116800000D01*
X132725000Y-116900000D02*
X132575000Y-116750000D01*
%TO.N,S_left*%
X117800000Y-116850000D02*
X117650000Y-116700000D01*
X117800000Y-118700000D02*
X117800000Y-116850000D01*
D33*
X115900000Y-113300000D02*
X116000000Y-113200000D01*
X123100000Y-109925000D02*
X119675000Y-109925000D01*
X119675000Y-109925000D02*
X119200000Y-110400000D01*
X117650000Y-116700000D02*
X115900000Y-114950000D01*
X131800000Y-111400000D02*
X131500002Y-111400000D01*
X131500002Y-111400000D02*
X131300000Y-111199998D01*
X115900000Y-114950000D02*
X115900000Y-113300000D01*
X135500000Y-111400000D02*
X131800000Y-111400000D01*
X136100000Y-112000000D02*
X135500000Y-111400000D01*
X123400000Y-109625000D02*
X123100000Y-109925000D01*
D35*
%TO.N,S_down*%
X126750000Y-124400000D02*
X126600000Y-124550000D01*
D33*
X128570000Y-124400000D02*
X127900000Y-124400000D01*
X131741290Y-120100000D02*
X127400000Y-120100000D01*
X127150000Y-124550000D02*
X127600000Y-124100000D01*
X127900000Y-124400000D02*
X127600000Y-124100000D01*
D35*
X128570000Y-124400000D02*
X126750000Y-124400000D01*
D33*
X131983988Y-119857302D02*
X131741290Y-120100000D01*
X126600000Y-124550000D02*
X127150000Y-124550000D01*
%TO.N,S_up*%
X127850000Y-117500000D02*
X126700000Y-116350000D01*
X130300000Y-117100000D02*
X129900000Y-117500000D01*
X131199695Y-112275000D02*
X130300000Y-113174695D01*
X132224572Y-112275000D02*
X131199695Y-112275000D01*
X130300000Y-113174695D02*
X130300000Y-117100000D01*
X132224786Y-112275214D02*
X132224572Y-112275000D01*
X126550000Y-116200000D02*
X126700000Y-116350000D01*
X124805000Y-116200000D02*
X126550000Y-116200000D01*
X129900000Y-117500000D02*
X127850000Y-117500000D01*
D35*
%TO.N,ISDS_int_1*%
X142000000Y-100400000D02*
X142000000Y-100500000D01*
X129525000Y-99916116D02*
X130366116Y-99075000D01*
X140675000Y-99075000D02*
X141900000Y-100300000D01*
X141900000Y-100300000D02*
X142000000Y-100400000D01*
X129525000Y-99949498D02*
X129525000Y-99916116D01*
X130366116Y-99075000D02*
X140675000Y-99075000D01*
D33*
%TO.N,Net-(Q2-Pad1)*%
X129200000Y-112645000D02*
X129155000Y-112645000D01*
X129155000Y-112645000D02*
X127200000Y-110690000D01*
D35*
%TO.N,Net-(Q3-Pad1)*%
X157050065Y-111169365D02*
X159095065Y-111169365D01*
X159095065Y-111169365D02*
X159100065Y-111174365D01*
D34*
%TO.N,Vdc_battery*%
X154612500Y-98450000D02*
X153262500Y-99800000D01*
X158200000Y-98450000D02*
X154612500Y-98450000D01*
%TD*%
%TA.AperFunction,Conductor*%
%TO.N,Vgnd_main*%
G36*
X159504043Y-46325765D02*
G01*
X159749632Y-46341861D01*
X159765690Y-46343976D01*
X159969394Y-46384495D01*
X160003064Y-46391193D01*
X160018731Y-46395391D01*
X160187510Y-46452683D01*
X160247913Y-46473188D01*
X160262890Y-46479391D01*
X160470539Y-46581792D01*
X160479960Y-46586438D01*
X160494007Y-46594548D01*
X160533528Y-46620955D01*
X160695245Y-46729011D01*
X160708106Y-46738879D01*
X160820036Y-46837039D01*
X160890071Y-46898459D01*
X160901540Y-46909928D01*
X161061117Y-47091890D01*
X161070991Y-47104758D01*
X161205451Y-47305992D01*
X161213561Y-47320039D01*
X161320605Y-47537102D01*
X161326812Y-47552088D01*
X161404608Y-47781268D01*
X161408806Y-47796935D01*
X161456021Y-48034298D01*
X161458139Y-48050379D01*
X161474235Y-48295956D01*
X161474500Y-48304066D01*
X161474500Y-105665898D01*
X161454815Y-105732937D01*
X161402011Y-105778692D01*
X161332853Y-105788636D01*
X161269297Y-105759611D01*
X161231523Y-105700833D01*
X161231266Y-105699947D01*
X161177171Y-105509820D01*
X161138457Y-105432072D01*
X161088329Y-105331401D01*
X161088324Y-105331393D01*
X160968207Y-105172333D01*
X160830783Y-105047055D01*
X160820910Y-105038055D01*
X160727158Y-104980006D01*
X160651447Y-104933127D01*
X160651445Y-104933126D01*
X160524635Y-104884000D01*
X160465586Y-104861124D01*
X160465582Y-104861123D01*
X160386639Y-104846366D01*
X160269660Y-104824500D01*
X160070340Y-104824500D01*
X159986297Y-104840210D01*
X159874417Y-104861123D01*
X159874415Y-104861123D01*
X159874414Y-104861124D01*
X159832827Y-104877235D01*
X159688554Y-104933126D01*
X159688552Y-104933127D01*
X159519088Y-105038056D01*
X159371792Y-105172333D01*
X159251675Y-105331393D01*
X159251670Y-105331401D01*
X159162830Y-105509816D01*
X159142884Y-105579920D01*
X159108767Y-105699832D01*
X159108282Y-105701535D01*
X159089892Y-105899999D01*
X159089892Y-105900000D01*
X159108282Y-106098464D01*
X159108282Y-106098466D01*
X159108283Y-106098469D01*
X159146816Y-106233900D01*
X159162830Y-106290183D01*
X159251670Y-106468598D01*
X159251675Y-106468606D01*
X159371791Y-106627664D01*
X159376889Y-106632312D01*
X159413168Y-106692025D01*
X159411405Y-106761872D01*
X159372159Y-106819678D01*
X159307891Y-106847090D01*
X159257775Y-106840920D01*
X159257508Y-106842005D01*
X159085056Y-106799500D01*
X158914944Y-106799500D01*
X158749774Y-106840209D01*
X158688505Y-106872366D01*
X158619996Y-106886090D01*
X158554943Y-106860597D01*
X158533211Y-106837636D01*
X158533157Y-106837685D01*
X158531686Y-106836025D01*
X158528828Y-106833005D01*
X158528182Y-106832070D01*
X158467273Y-106778109D01*
X158430146Y-106718920D01*
X158425500Y-106685294D01*
X158425500Y-104043984D01*
X158425500Y-104043982D01*
X158396503Y-103935763D01*
X158340485Y-103838737D01*
X158318201Y-103816453D01*
X158284716Y-103755130D01*
X158289700Y-103685438D01*
X158303829Y-103658337D01*
X158324818Y-103627930D01*
X158385140Y-103468872D01*
X158405645Y-103300000D01*
X158385140Y-103131128D01*
X158384782Y-103130185D01*
X158339827Y-103011647D01*
X158324818Y-102972070D01*
X158323482Y-102970135D01*
X158247315Y-102859789D01*
X158228183Y-102832071D01*
X158100852Y-102719266D01*
X158100849Y-102719263D01*
X157950226Y-102640210D01*
X157785056Y-102599500D01*
X157614944Y-102599500D01*
X157449773Y-102640210D01*
X157299150Y-102719263D01*
X157171816Y-102832072D01*
X157075182Y-102972068D01*
X157014860Y-103131125D01*
X157014859Y-103131130D01*
X157007184Y-103194342D01*
X156979562Y-103258519D01*
X156921627Y-103297575D01*
X156913763Y-103299791D01*
X156749773Y-103340210D01*
X156599150Y-103419263D01*
X156508018Y-103500000D01*
X156472882Y-103531128D01*
X156471816Y-103532072D01*
X156375182Y-103672068D01*
X156314860Y-103831125D01*
X156314859Y-103831130D01*
X156294355Y-104000000D01*
X156314859Y-104168869D01*
X156314860Y-104168874D01*
X156375182Y-104327931D01*
X156437475Y-104418177D01*
X156471817Y-104467929D01*
X156565020Y-104550499D01*
X156599150Y-104580736D01*
X156696961Y-104632071D01*
X156749775Y-104659790D01*
X156914944Y-104700500D01*
X157085056Y-104700500D01*
X157250225Y-104659790D01*
X157392875Y-104584920D01*
X157461382Y-104571195D01*
X157526435Y-104596687D01*
X157567380Y-104653303D01*
X157574500Y-104694717D01*
X157574500Y-106685294D01*
X157554815Y-106752333D01*
X157532727Y-106778109D01*
X157471818Y-106832069D01*
X157375182Y-106972068D01*
X157314860Y-107131125D01*
X157314859Y-107131130D01*
X157294416Y-107299500D01*
X157294355Y-107300000D01*
X157299237Y-107340210D01*
X157301708Y-107360553D01*
X157290248Y-107429476D01*
X157243344Y-107481263D01*
X157178612Y-107499500D01*
X156201176Y-107499500D01*
X156134137Y-107479815D01*
X156088382Y-107427011D01*
X156078438Y-107357853D01*
X156090177Y-107320226D01*
X156097170Y-107306182D01*
X156098929Y-107300000D01*
X156151717Y-107114469D01*
X156170108Y-106916000D01*
X156151717Y-106717531D01*
X156097171Y-106525820D01*
X156049770Y-106430626D01*
X156008329Y-106347401D01*
X156008324Y-106347393D01*
X155888207Y-106188333D01*
X155740911Y-106054056D01*
X155740910Y-106054055D01*
X155662372Y-106005426D01*
X155615738Y-105953399D01*
X155604634Y-105884417D01*
X155632587Y-105820383D01*
X155662373Y-105794573D01*
X155740910Y-105745945D01*
X155888209Y-105611664D01*
X156008326Y-105452604D01*
X156097171Y-105274180D01*
X156151717Y-105082469D01*
X156170108Y-104884000D01*
X156151717Y-104685531D01*
X156097171Y-104493820D01*
X156030432Y-104359790D01*
X156008329Y-104315401D01*
X156008324Y-104315393D01*
X155888207Y-104156333D01*
X155740911Y-104022056D01*
X155740910Y-104022055D01*
X155676375Y-103982096D01*
X155571447Y-103917127D01*
X155571445Y-103917126D01*
X155446891Y-103868874D01*
X155385586Y-103845124D01*
X155385582Y-103845123D01*
X155306639Y-103830366D01*
X155189660Y-103808500D01*
X154990340Y-103808500D01*
X154900254Y-103825339D01*
X154794417Y-103845123D01*
X154794415Y-103845123D01*
X154794414Y-103845124D01*
X154742517Y-103865229D01*
X154608554Y-103917126D01*
X154608552Y-103917127D01*
X154439088Y-104022056D01*
X154291792Y-104156333D01*
X154171675Y-104315393D01*
X154171670Y-104315401D01*
X154082830Y-104493816D01*
X154028282Y-104685535D01*
X154009892Y-104883999D01*
X154009892Y-104884000D01*
X154028282Y-105082464D01*
X154028282Y-105082466D01*
X154028283Y-105082469D01*
X154068735Y-105224643D01*
X154082830Y-105274183D01*
X154171670Y-105452598D01*
X154171675Y-105452606D01*
X154291792Y-105611666D01*
X154401807Y-105711957D01*
X154439090Y-105745945D01*
X154490013Y-105777475D01*
X154517626Y-105794573D01*
X154564261Y-105846602D01*
X154575365Y-105915583D01*
X154547411Y-105979618D01*
X154517626Y-106005427D01*
X154439088Y-106054056D01*
X154291792Y-106188333D01*
X154171675Y-106347393D01*
X154171670Y-106347401D01*
X154082830Y-106525816D01*
X154082829Y-106525820D01*
X154041099Y-106672489D01*
X154028282Y-106717535D01*
X154009892Y-106915999D01*
X154009892Y-106916000D01*
X154028282Y-107114464D01*
X154028282Y-107114466D01*
X154028283Y-107114469D01*
X154051528Y-107196167D01*
X154082829Y-107306182D01*
X154089823Y-107320226D01*
X154102086Y-107389011D01*
X154075214Y-107453507D01*
X154017738Y-107493236D01*
X153978824Y-107499500D01*
X151639806Y-107499500D01*
X151572767Y-107479815D01*
X151537756Y-107445940D01*
X151528183Y-107432071D01*
X151400849Y-107319263D01*
X151250226Y-107240210D01*
X151085056Y-107199500D01*
X150914944Y-107199500D01*
X150749773Y-107240210D01*
X150599150Y-107319263D01*
X150471816Y-107432072D01*
X150375182Y-107572068D01*
X150314860Y-107731125D01*
X150314859Y-107731130D01*
X150294355Y-107900000D01*
X150314859Y-108068869D01*
X150314860Y-108068874D01*
X150375182Y-108227931D01*
X150437475Y-108318177D01*
X150471817Y-108367929D01*
X150577505Y-108461560D01*
X150599150Y-108480736D01*
X150730169Y-108549500D01*
X150749775Y-108559790D01*
X150914944Y-108600500D01*
X151085056Y-108600500D01*
X151250225Y-108559790D01*
X151383375Y-108489906D01*
X151451882Y-108476181D01*
X151516935Y-108501673D01*
X151557880Y-108558289D01*
X151565000Y-108599703D01*
X151565000Y-108855000D01*
X154035000Y-108855000D01*
X154035000Y-108547172D01*
X154034999Y-108547158D01*
X154028612Y-108487757D01*
X154041016Y-108418997D01*
X154088626Y-108367859D01*
X154151901Y-108350500D01*
X158631016Y-108350500D01*
X158631018Y-108350500D01*
X158739237Y-108321503D01*
X158836263Y-108265485D01*
X158840488Y-108261260D01*
X158864930Y-108236819D01*
X158926253Y-108203334D01*
X158952611Y-108200500D01*
X159085056Y-108200500D01*
X159250225Y-108159790D01*
X159374273Y-108094684D01*
X159400849Y-108080736D01*
X159400850Y-108080734D01*
X159400852Y-108080734D01*
X159528183Y-107967929D01*
X159624818Y-107827930D01*
X159685140Y-107668872D01*
X159705645Y-107500000D01*
X159685140Y-107331128D01*
X159681005Y-107320226D01*
X159624818Y-107172070D01*
X159596559Y-107131130D01*
X159542907Y-107053402D01*
X159521025Y-106987050D01*
X159538490Y-106919398D01*
X159589758Y-106871928D01*
X159658551Y-106859711D01*
X159689751Y-106867336D01*
X159874414Y-106938876D01*
X160070340Y-106975500D01*
X160070342Y-106975500D01*
X160269658Y-106975500D01*
X160269660Y-106975500D01*
X160465586Y-106938876D01*
X160651446Y-106866873D01*
X160820910Y-106761945D01*
X160947627Y-106646426D01*
X160968207Y-106627666D01*
X160989100Y-106600000D01*
X161088326Y-106468604D01*
X161177171Y-106290180D01*
X161231234Y-106100164D01*
X161268512Y-106041074D01*
X161331822Y-106011516D01*
X161401062Y-106020878D01*
X161454248Y-106066187D01*
X161474496Y-106133059D01*
X161474500Y-106134101D01*
X161474500Y-113873390D01*
X161454815Y-113940429D01*
X161402011Y-113986184D01*
X161332853Y-113996128D01*
X161269297Y-113967103D01*
X161262819Y-113961071D01*
X160161883Y-112860135D01*
X160128398Y-112798812D01*
X160125564Y-112772454D01*
X160125564Y-112529508D01*
X160125564Y-112529501D01*
X160125395Y-112528040D01*
X160122651Y-112504377D01*
X160122650Y-112504375D01*
X160122650Y-112504374D01*
X160077271Y-112401600D01*
X159997830Y-112322159D01*
X159997828Y-112322158D01*
X159895057Y-112276780D01*
X159869930Y-112273865D01*
X158330208Y-112273865D01*
X158330182Y-112273867D01*
X158305077Y-112276778D01*
X158305073Y-112276780D01*
X158202300Y-112322158D01*
X158122859Y-112401599D01*
X158073712Y-112512907D01*
X158070428Y-112511457D01*
X158043008Y-112556033D01*
X157980037Y-112586306D01*
X157910696Y-112577728D01*
X157872292Y-112551621D01*
X157847830Y-112527159D01*
X157745057Y-112481780D01*
X157719933Y-112478865D01*
X157719930Y-112478865D01*
X157323894Y-112478865D01*
X157256855Y-112459180D01*
X157211100Y-112406376D01*
X157200798Y-112339919D01*
X157205645Y-112300000D01*
X157193442Y-112199500D01*
X157185140Y-112131128D01*
X157173524Y-112100500D01*
X157141098Y-112014998D01*
X157124818Y-111972070D01*
X157124817Y-111972068D01*
X157124815Y-111972064D01*
X157119457Y-111964302D01*
X157097575Y-111897947D01*
X157115042Y-111830296D01*
X157166310Y-111782827D01*
X157221508Y-111769864D01*
X157719921Y-111769864D01*
X157719929Y-111769864D01*
X157719944Y-111769862D01*
X157719947Y-111769862D01*
X157745052Y-111766951D01*
X157745053Y-111766950D01*
X157745056Y-111766950D01*
X157847830Y-111721571D01*
X157872294Y-111697106D01*
X157933613Y-111663623D01*
X158003305Y-111668607D01*
X158059239Y-111710477D01*
X158071987Y-111736584D01*
X158073712Y-111735823D01*
X158122858Y-111847129D01*
X158122859Y-111847130D01*
X158202300Y-111926571D01*
X158305074Y-111971950D01*
X158330200Y-111974865D01*
X159869929Y-111974864D01*
X159869944Y-111974862D01*
X159869947Y-111974862D01*
X159895052Y-111971951D01*
X159895053Y-111971950D01*
X159895056Y-111971950D01*
X159997830Y-111926571D01*
X160077271Y-111847130D01*
X160122650Y-111744356D01*
X160125565Y-111719230D01*
X160125564Y-110629501D01*
X160122950Y-110606958D01*
X160122651Y-110604377D01*
X160122650Y-110604375D01*
X160122650Y-110604374D01*
X160077271Y-110501600D01*
X159997830Y-110422159D01*
X159997828Y-110422158D01*
X159895057Y-110376780D01*
X159869930Y-110373865D01*
X158330208Y-110373865D01*
X158330182Y-110373867D01*
X158305077Y-110376778D01*
X158305073Y-110376780D01*
X158202300Y-110422158D01*
X158122859Y-110501599D01*
X158076338Y-110606958D01*
X158031252Y-110660334D01*
X157964465Y-110680861D01*
X157897183Y-110662022D01*
X157875223Y-110644552D01*
X157847830Y-110617159D01*
X157745057Y-110571780D01*
X157719930Y-110568865D01*
X156380208Y-110568865D01*
X156380182Y-110568867D01*
X156355077Y-110571778D01*
X156355073Y-110571780D01*
X156252300Y-110617158D01*
X156172859Y-110696599D01*
X156127480Y-110799371D01*
X156127480Y-110799373D01*
X156124565Y-110824496D01*
X156124565Y-111514221D01*
X156124567Y-111514247D01*
X156127478Y-111539352D01*
X156127479Y-111539354D01*
X156140304Y-111568400D01*
X156149375Y-111637678D01*
X156119551Y-111700863D01*
X156104588Y-111714097D01*
X156104762Y-111714293D01*
X156099149Y-111719265D01*
X156099148Y-111719266D01*
X156079600Y-111736584D01*
X156052277Y-111760790D01*
X155989043Y-111790511D01*
X155919780Y-111781327D01*
X155866477Y-111736155D01*
X155856616Y-111718060D01*
X155827271Y-111651600D01*
X155747830Y-111572159D01*
X155645057Y-111526780D01*
X155619933Y-111523865D01*
X155619930Y-111523865D01*
X154342686Y-111523865D01*
X154275647Y-111504180D01*
X154255005Y-111487546D01*
X153871818Y-111104359D01*
X153838333Y-111043036D01*
X153835499Y-111016678D01*
X153835499Y-110300000D01*
X154594355Y-110300000D01*
X154614859Y-110468869D01*
X154614860Y-110468874D01*
X154675182Y-110627931D01*
X154711718Y-110680861D01*
X154771817Y-110767929D01*
X154835673Y-110824500D01*
X154899150Y-110880736D01*
X155049773Y-110959789D01*
X155049775Y-110959790D01*
X155214944Y-111000500D01*
X155385056Y-111000500D01*
X155550225Y-110959790D01*
X155636037Y-110914752D01*
X155700849Y-110880736D01*
X155700850Y-110880734D01*
X155700852Y-110880734D01*
X155828183Y-110767929D01*
X155924818Y-110627930D01*
X155985140Y-110468872D01*
X156005645Y-110300000D01*
X155985140Y-110131128D01*
X155983037Y-110125584D01*
X155956680Y-110056085D01*
X155924818Y-109972070D01*
X155914176Y-109956653D01*
X155873287Y-109897415D01*
X155828183Y-109832071D01*
X155700852Y-109719266D01*
X155700849Y-109719263D01*
X155550226Y-109640210D01*
X155385056Y-109599500D01*
X155214944Y-109599500D01*
X155049773Y-109640210D01*
X154899150Y-109719263D01*
X154804314Y-109803281D01*
X154772882Y-109831128D01*
X154771816Y-109832072D01*
X154675182Y-109972068D01*
X154614860Y-110131125D01*
X154614859Y-110131130D01*
X154594355Y-110300000D01*
X153835499Y-110300000D01*
X153835499Y-110150143D01*
X153835499Y-110150136D01*
X153832585Y-110125009D01*
X153832582Y-110125003D01*
X153830252Y-110116437D01*
X153831645Y-110046581D01*
X153870583Y-109988567D01*
X153875593Y-109984612D01*
X153892188Y-109972189D01*
X153892190Y-109972186D01*
X153978352Y-109857088D01*
X153978354Y-109857086D01*
X154028596Y-109722379D01*
X154028598Y-109722372D01*
X154034999Y-109662844D01*
X154035000Y-109662827D01*
X154035000Y-109355000D01*
X151565000Y-109355000D01*
X151565000Y-109662844D01*
X151571401Y-109722372D01*
X151571403Y-109722379D01*
X151621645Y-109857086D01*
X151621649Y-109857093D01*
X151707809Y-109972187D01*
X151707812Y-109972190D01*
X151724408Y-109984614D01*
X151766279Y-110040548D01*
X151771263Y-110110239D01*
X151769748Y-110116431D01*
X151767415Y-110125003D01*
X151764500Y-110150131D01*
X151764500Y-110563390D01*
X151744815Y-110630429D01*
X151692011Y-110676184D01*
X151622853Y-110686128D01*
X151559297Y-110657103D01*
X151552819Y-110651071D01*
X150945280Y-110043532D01*
X150945278Y-110043530D01*
X150857401Y-109992794D01*
X150848254Y-109987513D01*
X150848253Y-109987512D01*
X150848252Y-109987512D01*
X150740033Y-109958515D01*
X150740032Y-109958515D01*
X149805595Y-109958515D01*
X149738556Y-109938830D01*
X149717814Y-109921057D01*
X149717812Y-109921060D01*
X149717642Y-109920909D01*
X149712782Y-109916745D01*
X149712200Y-109916088D01*
X149584864Y-109803278D01*
X149434241Y-109724225D01*
X149269071Y-109683515D01*
X149098959Y-109683515D01*
X148933788Y-109724225D01*
X148783165Y-109803278D01*
X148655831Y-109916087D01*
X148559197Y-110056083D01*
X148498875Y-110215140D01*
X148498874Y-110215145D01*
X148478370Y-110384015D01*
X148498874Y-110552884D01*
X148498875Y-110552889D01*
X148559197Y-110711946D01*
X148606687Y-110780746D01*
X148628570Y-110847100D01*
X148611105Y-110914752D01*
X148559837Y-110962222D01*
X148501149Y-110974365D01*
X148501149Y-110975000D01*
X148498082Y-110975000D01*
X148498034Y-110975010D01*
X148497846Y-110975000D01*
X148250000Y-110975000D01*
X148250000Y-112200000D01*
X148950000Y-112200000D01*
X148950000Y-111427172D01*
X148949999Y-111427155D01*
X148943598Y-111367627D01*
X148943597Y-111367623D01*
X148893602Y-111233580D01*
X148888618Y-111163888D01*
X148922103Y-111102565D01*
X148983426Y-111069080D01*
X149039455Y-111069848D01*
X149098959Y-111084515D01*
X149098961Y-111084515D01*
X149269071Y-111084515D01*
X149434240Y-111043805D01*
X149518655Y-110999500D01*
X149584864Y-110964751D01*
X149584865Y-110964749D01*
X149584867Y-110964749D01*
X149712198Y-110851944D01*
X149712200Y-110851940D01*
X149712782Y-110851285D01*
X149713327Y-110850942D01*
X149717812Y-110846970D01*
X149718472Y-110847715D01*
X149771973Y-110814160D01*
X149805595Y-110809515D01*
X150456405Y-110809515D01*
X150523444Y-110829200D01*
X150544086Y-110845834D01*
X150661071Y-110962819D01*
X150694556Y-111024142D01*
X150689572Y-111093834D01*
X150647700Y-111149767D01*
X150582236Y-111174184D01*
X150573390Y-111174500D01*
X149805143Y-111174500D01*
X149805117Y-111174502D01*
X149780012Y-111177413D01*
X149780008Y-111177415D01*
X149677235Y-111222793D01*
X149597794Y-111302234D01*
X149552415Y-111405006D01*
X149552415Y-111405008D01*
X149549500Y-111430131D01*
X149549500Y-112476678D01*
X149529815Y-112543717D01*
X149513181Y-112564359D01*
X149161681Y-112915859D01*
X149100358Y-112949344D01*
X149030666Y-112944360D01*
X148974733Y-112902488D01*
X148950316Y-112837024D01*
X148950000Y-112828178D01*
X148950000Y-112700000D01*
X147050000Y-112700000D01*
X147050000Y-113349804D01*
X147030315Y-113416843D01*
X146977511Y-113462598D01*
X146908353Y-113472542D01*
X146844797Y-113443517D01*
X146843773Y-113442620D01*
X146817412Y-113419266D01*
X146817410Y-113419265D01*
X146817409Y-113419264D01*
X146666786Y-113340210D01*
X146544824Y-113310149D01*
X146484443Y-113274992D01*
X146452655Y-113212773D01*
X146450499Y-113189761D01*
X146450499Y-112567253D01*
X146470184Y-112500215D01*
X146486814Y-112479577D01*
X146529574Y-112436818D01*
X146590897Y-112403333D01*
X146617254Y-112400500D01*
X146785056Y-112400500D01*
X146950225Y-112359790D01*
X147064144Y-112300000D01*
X147100849Y-112280736D01*
X147100850Y-112280734D01*
X147100852Y-112280734D01*
X147156783Y-112231183D01*
X147220015Y-112201463D01*
X147239009Y-112200000D01*
X147750000Y-112200000D01*
X147750000Y-110975000D01*
X147502155Y-110975000D01*
X147442627Y-110981401D01*
X147442620Y-110981403D01*
X147307913Y-111031645D01*
X147307911Y-111031646D01*
X147216414Y-111100142D01*
X147150950Y-111124559D01*
X147084477Y-111110671D01*
X146950226Y-111040210D01*
X146785056Y-110999500D01*
X146614944Y-110999500D01*
X146449773Y-111040210D01*
X146299149Y-111119264D01*
X146299147Y-111119266D01*
X146272000Y-111143316D01*
X146208767Y-111173037D01*
X146189774Y-111174500D01*
X145205143Y-111174500D01*
X145205117Y-111174502D01*
X145180013Y-111177413D01*
X145175545Y-111179386D01*
X145128543Y-111200139D01*
X145059266Y-111209210D01*
X144996082Y-111179386D01*
X144990778Y-111174385D01*
X144895915Y-111079522D01*
X144895913Y-111079520D01*
X144850250Y-111053156D01*
X144804589Y-111026793D01*
X144735129Y-111008182D01*
X144702727Y-110999500D01*
X144702726Y-110999500D01*
X144639806Y-110999500D01*
X144572767Y-110979815D01*
X144537756Y-110945940D01*
X144528183Y-110932071D01*
X144508634Y-110914752D01*
X144400852Y-110819266D01*
X144382273Y-110809515D01*
X144301872Y-110767316D01*
X144251660Y-110718731D01*
X144235499Y-110657520D01*
X144235499Y-110150143D01*
X144235499Y-110150136D01*
X144232585Y-110125009D01*
X144232582Y-110125003D01*
X144230252Y-110116437D01*
X144231645Y-110046581D01*
X144270583Y-109988567D01*
X144275593Y-109984612D01*
X144292188Y-109972189D01*
X144292190Y-109972186D01*
X144378352Y-109857088D01*
X144378354Y-109857086D01*
X144428596Y-109722379D01*
X144428598Y-109722372D01*
X144434999Y-109662844D01*
X144435000Y-109662827D01*
X144435000Y-109355000D01*
X143074000Y-109355000D01*
X143006961Y-109335315D01*
X142961206Y-109282511D01*
X142950000Y-109231000D01*
X142950000Y-108095000D01*
X142417155Y-108095000D01*
X142357627Y-108101401D01*
X142357620Y-108101403D01*
X142222913Y-108151645D01*
X142222906Y-108151649D01*
X142107812Y-108237809D01*
X142107809Y-108237812D01*
X142021649Y-108352906D01*
X142021645Y-108352913D01*
X141971403Y-108487620D01*
X141971401Y-108487627D01*
X141965000Y-108547155D01*
X141965000Y-108710225D01*
X141945315Y-108777264D01*
X141892511Y-108823019D01*
X141823353Y-108832963D01*
X141811325Y-108830622D01*
X141685056Y-108799500D01*
X141514944Y-108799500D01*
X141349773Y-108840210D01*
X141199150Y-108919263D01*
X141071816Y-109032072D01*
X140975182Y-109172068D01*
X140914860Y-109331125D01*
X140914859Y-109331130D01*
X140905678Y-109406748D01*
X140878056Y-109470926D01*
X140820122Y-109509982D01*
X140750269Y-109511517D01*
X140700356Y-109484617D01*
X140641916Y-109432844D01*
X140626584Y-109419261D01*
X140475961Y-109340208D01*
X140310791Y-109299498D01*
X140140679Y-109299498D01*
X139975511Y-109340207D01*
X139964543Y-109345964D01*
X139896034Y-109359686D01*
X139830982Y-109334192D01*
X139824694Y-109328980D01*
X139700852Y-109219266D01*
X139700850Y-109219264D01*
X139550226Y-109140210D01*
X139385056Y-109099500D01*
X139214944Y-109099500D01*
X139049773Y-109140210D01*
X138899150Y-109219264D01*
X138791777Y-109314388D01*
X138728544Y-109344109D01*
X138679876Y-109341969D01*
X138507560Y-109299498D01*
X138507559Y-109299498D01*
X138337447Y-109299498D01*
X138172276Y-109340208D01*
X138021653Y-109419261D01*
X137894319Y-109532070D01*
X137797685Y-109672066D01*
X137737363Y-109831123D01*
X137737362Y-109831128D01*
X137718726Y-109984612D01*
X137716858Y-109999998D01*
X137723888Y-110057897D01*
X137724211Y-110060551D01*
X137712751Y-110129474D01*
X137665847Y-110181261D01*
X137601115Y-110199498D01*
X130314196Y-110199498D01*
X130247157Y-110179813D01*
X130201402Y-110127009D01*
X130200762Y-110125584D01*
X130177206Y-110072235D01*
X130097765Y-109992794D01*
X129994992Y-109947415D01*
X129969868Y-109944500D01*
X128588460Y-109944500D01*
X128521421Y-109924815D01*
X128475666Y-109872011D01*
X128465722Y-109802853D01*
X128489195Y-109746187D01*
X128516996Y-109709051D01*
X128572930Y-109667181D01*
X128642622Y-109662198D01*
X128666348Y-109669930D01*
X128695009Y-109682585D01*
X128720135Y-109685500D01*
X129859864Y-109685499D01*
X129859879Y-109685497D01*
X129859882Y-109685497D01*
X129884987Y-109682586D01*
X129884988Y-109682585D01*
X129884991Y-109682585D01*
X129987765Y-109637206D01*
X130067206Y-109557765D01*
X130112585Y-109454991D01*
X130115500Y-109429865D01*
X130115499Y-107870136D01*
X130115473Y-107869909D01*
X130112586Y-107845012D01*
X130112585Y-107845010D01*
X130112585Y-107845009D01*
X130067985Y-107743999D01*
X130058913Y-107674721D01*
X130088737Y-107611536D01*
X130093738Y-107606231D01*
X130097761Y-107602207D01*
X130097765Y-107602206D01*
X130177206Y-107522765D01*
X130222585Y-107419991D01*
X130225500Y-107394865D01*
X130225500Y-107149500D01*
X130245185Y-107082461D01*
X130297989Y-107036706D01*
X130349500Y-107025500D01*
X130778420Y-107025500D01*
X130845459Y-107045185D01*
X130866200Y-107062957D01*
X130866203Y-107062955D01*
X130866372Y-107063105D01*
X130871233Y-107067270D01*
X130871814Y-107067926D01*
X130871816Y-107067928D01*
X130871817Y-107067929D01*
X130924344Y-107114464D01*
X130999150Y-107180736D01*
X131125537Y-107247069D01*
X131149775Y-107259790D01*
X131314944Y-107300500D01*
X131485056Y-107300500D01*
X131650225Y-107259790D01*
X131765097Y-107199500D01*
X131800849Y-107180736D01*
X131800850Y-107180734D01*
X131800852Y-107180734D01*
X131928183Y-107067929D01*
X132024818Y-106927930D01*
X132071890Y-106803808D01*
X132114067Y-106748106D01*
X132179665Y-106724048D01*
X132247855Y-106739274D01*
X132270056Y-106754961D01*
X132277940Y-106761945D01*
X132299150Y-106780736D01*
X132425577Y-106847090D01*
X132449775Y-106859790D01*
X132614944Y-106900500D01*
X132782745Y-106900500D01*
X132849784Y-106920185D01*
X132870426Y-106936819D01*
X133829086Y-107895479D01*
X133920411Y-107948206D01*
X134022272Y-107975499D01*
X134655352Y-107975499D01*
X134722391Y-107995184D01*
X134757402Y-108029059D01*
X134766973Y-108042926D01*
X134766975Y-108042928D01*
X134809418Y-108080529D01*
X134894308Y-108155735D01*
X135031864Y-108227930D01*
X135044933Y-108234789D01*
X135210102Y-108275499D01*
X135380214Y-108275499D01*
X135545383Y-108234789D01*
X135624850Y-108193080D01*
X135696007Y-108155735D01*
X135696008Y-108155733D01*
X135696010Y-108155733D01*
X135823341Y-108042928D01*
X135852972Y-108000000D01*
X137494355Y-108000000D01*
X137514859Y-108168869D01*
X137514860Y-108168874D01*
X137575182Y-108327931D01*
X137612603Y-108382143D01*
X137671817Y-108467929D01*
X137761264Y-108547172D01*
X137799150Y-108580736D01*
X137949773Y-108659789D01*
X137949775Y-108659790D01*
X138114944Y-108700500D01*
X138285056Y-108700500D01*
X138450225Y-108659790D01*
X138529692Y-108618081D01*
X138600849Y-108580736D01*
X138600850Y-108580734D01*
X138600852Y-108580734D01*
X138728183Y-108467929D01*
X138824818Y-108327930D01*
X138885140Y-108168872D01*
X138905645Y-108000000D01*
X138885140Y-107831128D01*
X138824818Y-107672070D01*
X138822608Y-107668869D01*
X138776594Y-107602206D01*
X138728183Y-107532071D01*
X138612377Y-107429476D01*
X138600849Y-107419263D01*
X138450226Y-107340210D01*
X138285056Y-107299500D01*
X138114944Y-107299500D01*
X137949773Y-107340210D01*
X137799150Y-107419263D01*
X137671816Y-107532072D01*
X137575182Y-107672068D01*
X137514860Y-107831125D01*
X137514859Y-107831130D01*
X137494355Y-108000000D01*
X135852972Y-108000000D01*
X135919976Y-107902929D01*
X135980298Y-107743871D01*
X136000803Y-107574999D01*
X135980298Y-107406127D01*
X135919976Y-107247069D01*
X135823341Y-107107070D01*
X135696010Y-106994265D01*
X135696007Y-106994262D01*
X135545384Y-106915209D01*
X135380214Y-106874499D01*
X135210102Y-106874499D01*
X135044931Y-106915209D01*
X134894308Y-106994262D01*
X134766974Y-107107070D01*
X134757402Y-107120939D01*
X134703119Y-107164929D01*
X134655352Y-107174499D01*
X134292254Y-107174499D01*
X134225215Y-107154814D01*
X134204573Y-107138180D01*
X133433259Y-106366866D01*
X133399774Y-106305543D01*
X133397844Y-106264242D01*
X133405645Y-106200000D01*
X133385140Y-106031128D01*
X133380641Y-106019266D01*
X133355382Y-105952661D01*
X133324818Y-105872070D01*
X133228183Y-105732071D01*
X133100852Y-105619266D01*
X133100849Y-105619263D01*
X132950226Y-105540210D01*
X132785056Y-105499500D01*
X132614944Y-105499500D01*
X132449773Y-105540210D01*
X132299150Y-105619263D01*
X132192592Y-105713666D01*
X132172882Y-105731128D01*
X132171816Y-105732072D01*
X132075182Y-105872068D01*
X132075182Y-105872069D01*
X132028109Y-105996191D01*
X131985931Y-106051894D01*
X131920333Y-106075951D01*
X131852143Y-106060724D01*
X131829940Y-106045036D01*
X131825468Y-106041074D01*
X131800852Y-106019266D01*
X131800850Y-106019265D01*
X131800849Y-106019264D01*
X131650226Y-105940210D01*
X131485056Y-105899500D01*
X131314944Y-105899500D01*
X131149773Y-105940210D01*
X130999150Y-106019263D01*
X130871814Y-106132073D01*
X130871233Y-106132730D01*
X130870687Y-106133072D01*
X130866203Y-106137045D01*
X130865542Y-106136299D01*
X130812042Y-106169855D01*
X130778420Y-106174500D01*
X130549000Y-106174500D01*
X130481961Y-106154815D01*
X130436206Y-106102011D01*
X130425000Y-106050500D01*
X130425000Y-105711957D01*
X130444685Y-105644918D01*
X130497489Y-105599163D01*
X130566647Y-105589219D01*
X130578659Y-105591556D01*
X130614944Y-105600500D01*
X130614946Y-105600500D01*
X130785056Y-105600500D01*
X130950225Y-105559790D01*
X131045434Y-105509820D01*
X131100849Y-105480736D01*
X131100850Y-105480734D01*
X131100852Y-105480734D01*
X131228183Y-105367929D01*
X131324818Y-105227930D01*
X131373335Y-105100000D01*
X139394355Y-105100000D01*
X139414859Y-105268869D01*
X139414860Y-105268874D01*
X139475182Y-105427931D01*
X139524926Y-105499996D01*
X139571817Y-105567929D01*
X139669416Y-105654394D01*
X139699150Y-105680736D01*
X139849434Y-105759611D01*
X139849775Y-105759790D01*
X140014944Y-105800500D01*
X140185056Y-105800500D01*
X140350225Y-105759790D01*
X140441362Y-105711957D01*
X140500849Y-105680736D01*
X140500850Y-105680734D01*
X140500852Y-105680734D01*
X140628183Y-105567929D01*
X140675071Y-105500000D01*
X141994355Y-105500000D01*
X142014859Y-105668869D01*
X142014860Y-105668874D01*
X142075182Y-105827931D01*
X142124928Y-105899999D01*
X142171817Y-105967929D01*
X142254381Y-106041074D01*
X142299150Y-106080736D01*
X142417756Y-106142985D01*
X142449775Y-106159790D01*
X142614944Y-106200500D01*
X142626371Y-106200500D01*
X142693410Y-106220185D01*
X142739165Y-106272989D01*
X142749109Y-106342147D01*
X142728421Y-106394940D01*
X142675183Y-106472068D01*
X142675182Y-106472068D01*
X142614860Y-106631125D01*
X142614859Y-106631130D01*
X142594355Y-106800000D01*
X142614859Y-106968869D01*
X142614860Y-106968874D01*
X142675182Y-107127931D01*
X142737475Y-107218177D01*
X142771817Y-107267929D01*
X142853406Y-107340210D01*
X142899150Y-107380736D01*
X143023386Y-107445940D01*
X143049775Y-107459790D01*
X143214944Y-107500500D01*
X143347391Y-107500500D01*
X143414430Y-107520185D01*
X143435072Y-107536819D01*
X143781572Y-107883319D01*
X143815057Y-107944642D01*
X143810073Y-108014334D01*
X143768201Y-108070267D01*
X143702737Y-108094684D01*
X143693891Y-108095000D01*
X143450000Y-108095000D01*
X143450000Y-108855000D01*
X144435000Y-108855000D01*
X144435000Y-108549500D01*
X144454685Y-108482461D01*
X144507489Y-108436706D01*
X144559000Y-108425500D01*
X145578420Y-108425500D01*
X145645459Y-108445185D01*
X145666200Y-108462957D01*
X145666203Y-108462955D01*
X145666372Y-108463105D01*
X145671233Y-108467270D01*
X145671814Y-108467926D01*
X145671816Y-108467928D01*
X145671817Y-108467929D01*
X145696625Y-108489907D01*
X145799150Y-108580736D01*
X145949773Y-108659789D01*
X145949775Y-108659790D01*
X146114944Y-108700500D01*
X146285056Y-108700500D01*
X146450225Y-108659790D01*
X146529692Y-108618081D01*
X146600849Y-108580736D01*
X146600850Y-108580734D01*
X146600852Y-108580734D01*
X146728183Y-108467929D01*
X146824818Y-108327930D01*
X146885140Y-108168872D01*
X146905645Y-108000000D01*
X146901267Y-107963945D01*
X146912727Y-107895024D01*
X146959631Y-107843237D01*
X147024363Y-107825000D01*
X147750000Y-107825000D01*
X148250000Y-107825000D01*
X149647828Y-107825000D01*
X149647844Y-107824999D01*
X149707372Y-107818598D01*
X149707379Y-107818596D01*
X149842086Y-107768354D01*
X149842093Y-107768350D01*
X149957187Y-107682190D01*
X149957190Y-107682187D01*
X150043350Y-107567093D01*
X150043354Y-107567086D01*
X150093596Y-107432379D01*
X150093598Y-107432372D01*
X150099999Y-107372844D01*
X150100000Y-107372827D01*
X150100000Y-106600000D01*
X148250000Y-106600000D01*
X148250000Y-107825000D01*
X147750000Y-107825000D01*
X147750000Y-106600000D01*
X145900000Y-106600000D01*
X145900000Y-107291373D01*
X145880315Y-107358412D01*
X145833627Y-107401169D01*
X145799152Y-107419263D01*
X145799150Y-107419264D01*
X145671814Y-107532073D01*
X145671233Y-107532730D01*
X145670687Y-107533072D01*
X145666203Y-107537045D01*
X145665542Y-107536299D01*
X145612042Y-107569855D01*
X145578420Y-107574500D01*
X144727609Y-107574500D01*
X144660570Y-107554815D01*
X144639928Y-107538181D01*
X144037087Y-106935339D01*
X144003602Y-106874016D01*
X144001672Y-106832715D01*
X144005645Y-106800000D01*
X143985140Y-106631128D01*
X143973524Y-106600500D01*
X143938440Y-106507988D01*
X143924818Y-106472070D01*
X143922421Y-106468598D01*
X143890476Y-106422318D01*
X143828183Y-106332071D01*
X143733316Y-106248026D01*
X143700849Y-106219263D01*
X143550226Y-106140210D01*
X143385056Y-106099500D01*
X143373629Y-106099500D01*
X143306590Y-106079815D01*
X143260835Y-106027011D01*
X143250891Y-105957853D01*
X143271579Y-105905060D01*
X143283126Y-105888330D01*
X143324818Y-105827930D01*
X143385140Y-105668872D01*
X143405645Y-105500000D01*
X143401672Y-105467285D01*
X143413131Y-105398365D01*
X143437081Y-105364665D01*
X143639930Y-105161816D01*
X143701253Y-105128334D01*
X143727610Y-105125500D01*
X145783636Y-105125500D01*
X145850675Y-105145185D01*
X145896430Y-105197989D01*
X145906925Y-105262756D01*
X145900000Y-105327155D01*
X145900000Y-106100000D01*
X150100000Y-106100000D01*
X150100000Y-105327172D01*
X150099999Y-105327155D01*
X150093075Y-105262756D01*
X150105480Y-105193996D01*
X150153090Y-105142859D01*
X150216364Y-105125500D01*
X151456015Y-105125500D01*
X151456018Y-105125500D01*
X151457133Y-105125201D01*
X151458110Y-105125224D01*
X151464074Y-105124439D01*
X151464196Y-105125368D01*
X151526981Y-105126860D01*
X151584846Y-105166019D01*
X151612353Y-105230246D01*
X151606273Y-105285927D01*
X151588212Y-105337543D01*
X151569909Y-105499996D01*
X151569909Y-105500003D01*
X151588212Y-105662455D01*
X151642210Y-105816774D01*
X151676955Y-105872070D01*
X151729192Y-105955204D01*
X151844796Y-106070808D01*
X151983225Y-106157789D01*
X152137539Y-106211786D01*
X152137542Y-106211786D01*
X152137544Y-106211787D01*
X152299996Y-106230091D01*
X152300000Y-106230091D01*
X152300004Y-106230091D01*
X152462455Y-106211787D01*
X152462456Y-106211786D01*
X152462461Y-106211786D01*
X152616775Y-106157789D01*
X152755204Y-106070808D01*
X152870808Y-105955204D01*
X152957789Y-105816775D01*
X153011786Y-105662461D01*
X153013763Y-105644918D01*
X153030091Y-105500003D01*
X153030091Y-105499996D01*
X153011787Y-105337544D01*
X153011786Y-105337542D01*
X153011786Y-105337539D01*
X152972282Y-105224643D01*
X152957789Y-105183224D01*
X152903134Y-105096243D01*
X152870808Y-105044796D01*
X152755204Y-104929192D01*
X152739402Y-104919263D01*
X152616774Y-104842210D01*
X152546770Y-104817715D01*
X152471965Y-104791539D01*
X152415191Y-104750819D01*
X152389443Y-104685867D01*
X152402899Y-104617305D01*
X152451286Y-104566902D01*
X152512921Y-104550499D01*
X153519856Y-104550499D01*
X153519864Y-104550499D01*
X153519879Y-104550497D01*
X153519882Y-104550497D01*
X153544987Y-104547586D01*
X153544988Y-104547585D01*
X153544991Y-104547585D01*
X153647765Y-104502206D01*
X153727206Y-104422765D01*
X153772585Y-104319991D01*
X153775500Y-104294865D01*
X153775499Y-103205136D01*
X153775497Y-103205117D01*
X153772586Y-103180012D01*
X153772585Y-103180010D01*
X153772585Y-103180009D01*
X153727206Y-103077235D01*
X153647765Y-102997794D01*
X153639292Y-102994053D01*
X153544992Y-102952415D01*
X153519865Y-102949500D01*
X151980143Y-102949500D01*
X151980117Y-102949502D01*
X151955012Y-102952413D01*
X151955008Y-102952415D01*
X151852235Y-102997793D01*
X151772792Y-103077236D01*
X151771328Y-103079374D01*
X151767666Y-103082362D01*
X151764669Y-103085360D01*
X151764365Y-103085056D01*
X151717199Y-103123554D01*
X151647778Y-103131457D01*
X151589556Y-103102766D01*
X151589288Y-103103125D01*
X151587369Y-103101689D01*
X151585105Y-103100573D01*
X151582350Y-103097931D01*
X151467093Y-103011649D01*
X151467086Y-103011645D01*
X151332379Y-102961403D01*
X151332372Y-102961401D01*
X151272844Y-102955000D01*
X150850000Y-102955000D01*
X150850000Y-103881000D01*
X150830315Y-103948039D01*
X150777511Y-103993794D01*
X150726000Y-104005000D01*
X149475000Y-104005000D01*
X149475000Y-104102839D01*
X149478700Y-104137242D01*
X149466296Y-104206002D01*
X149418687Y-104257140D01*
X149355411Y-104274500D01*
X143443982Y-104274500D01*
X143335763Y-104303497D01*
X143335760Y-104303498D01*
X143238740Y-104359513D01*
X143238734Y-104359517D01*
X142835070Y-104763181D01*
X142773747Y-104796666D01*
X142747389Y-104799500D01*
X142614944Y-104799500D01*
X142449773Y-104840210D01*
X142299150Y-104919263D01*
X142202220Y-105005136D01*
X142177651Y-105026903D01*
X142171816Y-105032072D01*
X142075182Y-105172068D01*
X142014860Y-105331125D01*
X142014859Y-105331130D01*
X141994355Y-105500000D01*
X140675071Y-105500000D01*
X140724818Y-105427930D01*
X140785140Y-105268872D01*
X140805645Y-105100000D01*
X140785140Y-104931128D01*
X140784499Y-104929439D01*
X140731300Y-104789162D01*
X140724818Y-104772070D01*
X140723326Y-104769909D01*
X140675416Y-104700500D01*
X140628183Y-104632071D01*
X140500852Y-104519266D01*
X140500849Y-104519263D01*
X140350226Y-104440210D01*
X140185056Y-104399500D01*
X140014944Y-104399500D01*
X139849773Y-104440210D01*
X139699150Y-104519263D01*
X139571816Y-104632072D01*
X139475182Y-104772068D01*
X139414860Y-104931125D01*
X139414859Y-104931130D01*
X139394355Y-105100000D01*
X131373335Y-105100000D01*
X131385140Y-105068872D01*
X131405645Y-104900000D01*
X131385140Y-104731128D01*
X131373524Y-104700500D01*
X131332893Y-104593362D01*
X131324818Y-104572070D01*
X131321321Y-104567004D01*
X131276594Y-104502206D01*
X131228183Y-104432071D01*
X131101673Y-104319993D01*
X131100849Y-104319263D01*
X130950226Y-104240210D01*
X130785056Y-104199500D01*
X130614944Y-104199500D01*
X130614942Y-104199500D01*
X130468674Y-104235551D01*
X130398872Y-104232482D01*
X130341810Y-104192161D01*
X130315605Y-104127392D01*
X130315000Y-104115154D01*
X130315000Y-104000000D01*
X129540000Y-104000000D01*
X129540000Y-104508096D01*
X129572166Y-104567004D01*
X129575000Y-104593362D01*
X129575000Y-105676000D01*
X129555315Y-105743039D01*
X129502511Y-105788794D01*
X129451000Y-105800000D01*
X129199000Y-105800000D01*
X129131961Y-105780315D01*
X129086206Y-105727511D01*
X129075000Y-105676000D01*
X129075000Y-105026903D01*
X129042834Y-104967996D01*
X129040000Y-104941638D01*
X129040000Y-102515000D01*
X128717155Y-102515000D01*
X128657627Y-102521401D01*
X128657620Y-102521403D01*
X128522913Y-102571645D01*
X128522906Y-102571649D01*
X128407812Y-102657809D01*
X128383003Y-102690949D01*
X128327067Y-102732818D01*
X128257376Y-102737800D01*
X128233653Y-102730070D01*
X128204992Y-102717415D01*
X128179865Y-102714500D01*
X127040143Y-102714500D01*
X127040117Y-102714502D01*
X127015012Y-102717413D01*
X127015008Y-102717415D01*
X126912235Y-102762793D01*
X126832794Y-102842234D01*
X126787415Y-102945006D01*
X126787415Y-102945008D01*
X126784500Y-102970131D01*
X126784500Y-104529856D01*
X126784502Y-104529882D01*
X126787413Y-104554987D01*
X126787415Y-104554991D01*
X126832793Y-104657764D01*
X126839288Y-104667245D01*
X126835703Y-104669700D01*
X126858332Y-104711141D01*
X126853348Y-104780833D01*
X126824849Y-104825179D01*
X126772794Y-104877235D01*
X126727415Y-104980006D01*
X126727415Y-104980008D01*
X126724500Y-105005131D01*
X126724500Y-105047055D01*
X126704815Y-105114094D01*
X126652011Y-105159849D01*
X126632598Y-105166828D01*
X126595412Y-105176793D01*
X126595411Y-105176793D01*
X126595409Y-105176794D01*
X126584273Y-105183224D01*
X126584264Y-105183229D01*
X126582487Y-105184255D01*
X126578035Y-105186825D01*
X126510132Y-105203287D01*
X126486385Y-105199827D01*
X126485060Y-105199500D01*
X126485056Y-105199500D01*
X126314944Y-105199500D01*
X126149773Y-105240210D01*
X125999150Y-105319263D01*
X125871816Y-105432072D01*
X125775183Y-105572067D01*
X125752047Y-105633072D01*
X125709868Y-105688774D01*
X125644271Y-105712831D01*
X125576080Y-105697604D01*
X125526948Y-105647927D01*
X125516838Y-105623033D01*
X125476938Y-105482796D01*
X125476933Y-105482783D01*
X125381942Y-105292014D01*
X125381937Y-105292006D01*
X125373163Y-105280389D01*
X124800000Y-105853552D01*
X124800000Y-105847339D01*
X124772741Y-105745606D01*
X124720080Y-105654394D01*
X124645606Y-105579920D01*
X124554394Y-105527259D01*
X124452661Y-105500000D01*
X124446448Y-105500000D01*
X125017007Y-104929439D01*
X124914793Y-104866151D01*
X124914789Y-104866149D01*
X124716063Y-104789163D01*
X124716058Y-104789162D01*
X124506561Y-104750000D01*
X124293439Y-104750000D01*
X124083941Y-104789162D01*
X124083936Y-104789163D01*
X123885210Y-104866149D01*
X123885201Y-104866154D01*
X123782992Y-104929438D01*
X123782991Y-104929439D01*
X124353553Y-105500000D01*
X124347339Y-105500000D01*
X124245606Y-105527259D01*
X124154394Y-105579920D01*
X124079920Y-105654394D01*
X124027259Y-105745606D01*
X124000000Y-105847339D01*
X124000000Y-105853552D01*
X123426836Y-105280388D01*
X123418059Y-105292010D01*
X123323066Y-105482783D01*
X123323058Y-105482803D01*
X123264738Y-105687780D01*
X123264737Y-105687783D01*
X123245073Y-105899999D01*
X123245073Y-105900000D01*
X123264737Y-106112216D01*
X123264738Y-106112219D01*
X123323058Y-106317196D01*
X123323064Y-106317211D01*
X123418061Y-106507991D01*
X123418064Y-106507996D01*
X123426836Y-106519610D01*
X124000000Y-105946446D01*
X124000000Y-105952661D01*
X124027259Y-106054394D01*
X124079920Y-106145606D01*
X124154394Y-106220080D01*
X124245606Y-106272741D01*
X124347339Y-106300000D01*
X124353553Y-106300000D01*
X123782991Y-106870559D01*
X123885204Y-106933847D01*
X123885208Y-106933849D01*
X124083936Y-107010836D01*
X124083941Y-107010837D01*
X124293439Y-107050000D01*
X124506561Y-107050000D01*
X124716058Y-107010837D01*
X124716063Y-107010836D01*
X124914791Y-106933849D01*
X124914798Y-106933846D01*
X125017006Y-106870560D01*
X125017006Y-106870559D01*
X124446448Y-106300000D01*
X124452661Y-106300000D01*
X124554394Y-106272741D01*
X124645606Y-106220080D01*
X124720080Y-106145606D01*
X124772741Y-106054394D01*
X124800000Y-105952661D01*
X124800000Y-105946447D01*
X125373162Y-106519609D01*
X125373163Y-106519609D01*
X125381940Y-106507988D01*
X125381942Y-106507985D01*
X125476933Y-106317216D01*
X125476938Y-106317203D01*
X125516838Y-106176966D01*
X125554117Y-106117872D01*
X125617426Y-106088314D01*
X125686666Y-106097675D01*
X125739853Y-106142985D01*
X125752047Y-106166928D01*
X125775182Y-106227930D01*
X125775182Y-106227931D01*
X125818150Y-106290180D01*
X125871817Y-106367929D01*
X125942588Y-106430626D01*
X125999150Y-106480736D01*
X126149773Y-106559789D01*
X126149775Y-106559790D01*
X126314944Y-106600500D01*
X126488411Y-106600500D01*
X126496676Y-106600000D01*
X127751000Y-106600000D01*
X127818039Y-106619685D01*
X127863794Y-106672489D01*
X127875000Y-106724000D01*
X127875000Y-107826638D01*
X127860000Y-107877721D01*
X127860000Y-108776000D01*
X127840315Y-108843039D01*
X127787511Y-108888794D01*
X127736000Y-108900000D01*
X126585000Y-108900000D01*
X126585000Y-109432844D01*
X126591401Y-109492372D01*
X126591403Y-109492379D01*
X126641645Y-109627086D01*
X126641649Y-109627093D01*
X126727809Y-109742187D01*
X126727812Y-109742190D01*
X126842906Y-109828350D01*
X126842915Y-109828355D01*
X126899120Y-109849318D01*
X126955054Y-109891189D01*
X126979472Y-109956653D01*
X126964621Y-110024926D01*
X126915216Y-110074332D01*
X126855788Y-110089500D01*
X126530143Y-110089500D01*
X126530117Y-110089502D01*
X126505012Y-110092413D01*
X126505008Y-110092415D01*
X126402235Y-110137793D01*
X126402233Y-110137794D01*
X126370700Y-110169328D01*
X126309377Y-110202813D01*
X126239685Y-110197827D01*
X126195339Y-110169327D01*
X126170890Y-110144878D01*
X126032460Y-110057896D01*
X125878141Y-110003898D01*
X125715690Y-109985595D01*
X125715682Y-109985595D01*
X125553230Y-110003898D01*
X125398911Y-110057896D01*
X125260481Y-110144878D01*
X125144878Y-110260481D01*
X125057896Y-110398911D01*
X125003898Y-110553230D01*
X124985595Y-110715682D01*
X124985595Y-110721955D01*
X124965910Y-110788994D01*
X124949280Y-110809632D01*
X124808036Y-110950877D01*
X124808035Y-110950878D01*
X124750730Y-111008182D01*
X124689407Y-111041666D01*
X124663051Y-111044500D01*
X124430143Y-111044500D01*
X124430117Y-111044502D01*
X124405012Y-111047413D01*
X124405008Y-111047415D01*
X124302235Y-111092793D01*
X124222794Y-111172234D01*
X124177415Y-111275006D01*
X124177415Y-111275008D01*
X124174500Y-111300131D01*
X124174500Y-111989856D01*
X124174502Y-111989882D01*
X124177413Y-112014985D01*
X124178218Y-112017941D01*
X124178150Y-112021337D01*
X124178489Y-112024258D01*
X124178091Y-112024304D01*
X124176827Y-112087797D01*
X124137890Y-112145811D01*
X124073769Y-112173565D01*
X124058569Y-112174500D01*
X121197578Y-112174500D01*
X121095715Y-112201793D01*
X121004392Y-112254520D01*
X121004389Y-112254522D01*
X120895731Y-112363181D01*
X120834408Y-112396666D01*
X120808050Y-112399500D01*
X120791950Y-112399500D01*
X120724911Y-112379815D01*
X120704269Y-112363181D01*
X119537024Y-111195936D01*
X119503539Y-111134613D01*
X119508523Y-111064921D01*
X119550395Y-111008988D01*
X119567066Y-110998466D01*
X119600852Y-110980734D01*
X119728183Y-110867929D01*
X119824818Y-110727930D01*
X119885140Y-110568872D01*
X119901449Y-110434552D01*
X119929071Y-110370376D01*
X119987005Y-110331319D01*
X120024545Y-110325500D01*
X123152725Y-110325500D01*
X123152727Y-110325500D01*
X123199645Y-110312927D01*
X123261413Y-110312306D01*
X123314943Y-110325500D01*
X123314944Y-110325500D01*
X123485056Y-110325500D01*
X123650225Y-110284790D01*
X123778939Y-110217235D01*
X123800849Y-110205736D01*
X123800850Y-110205734D01*
X123800852Y-110205734D01*
X123928183Y-110092929D01*
X124024818Y-109952930D01*
X124085140Y-109793872D01*
X124105645Y-109625000D01*
X124085140Y-109456128D01*
X124024818Y-109297070D01*
X124015422Y-109283458D01*
X123971112Y-109219264D01*
X123928183Y-109157071D01*
X123833316Y-109073026D01*
X123800849Y-109044263D01*
X123650226Y-108965210D01*
X123485056Y-108924500D01*
X123314944Y-108924500D01*
X123149773Y-108965210D01*
X122999150Y-109044263D01*
X122871816Y-109157072D01*
X122775182Y-109297068D01*
X122742649Y-109382853D01*
X122724821Y-109429864D01*
X122719281Y-109444471D01*
X122677103Y-109500174D01*
X122611506Y-109524231D01*
X122603339Y-109524500D01*
X120984371Y-109524500D01*
X120917332Y-109504815D01*
X120871577Y-109452011D01*
X120861633Y-109382853D01*
X120890658Y-109319297D01*
X120943417Y-109283458D01*
X121016775Y-109257789D01*
X121155204Y-109170808D01*
X121270808Y-109055204D01*
X121357789Y-108916775D01*
X121411786Y-108762461D01*
X121417672Y-108710225D01*
X121430091Y-108600003D01*
X121430091Y-108599996D01*
X121411787Y-108437544D01*
X121411786Y-108437542D01*
X121411786Y-108437539D01*
X121357789Y-108283225D01*
X121270808Y-108144796D01*
X121155204Y-108029192D01*
X121131558Y-108014334D01*
X121016774Y-107942210D01*
X120862455Y-107888212D01*
X120700004Y-107869909D01*
X120699996Y-107869909D01*
X120537544Y-107888212D01*
X120383225Y-107942210D01*
X120244795Y-108029192D01*
X120129192Y-108144795D01*
X120042210Y-108283225D01*
X119988212Y-108437544D01*
X119969909Y-108599996D01*
X119969909Y-108600003D01*
X119988212Y-108762455D01*
X120042210Y-108916774D01*
X120114657Y-109032072D01*
X120129192Y-109055204D01*
X120244796Y-109170808D01*
X120383225Y-109257789D01*
X120453876Y-109282511D01*
X120456583Y-109283458D01*
X120513359Y-109324180D01*
X120539107Y-109389132D01*
X120525651Y-109457694D01*
X120477264Y-109508097D01*
X120415629Y-109524500D01*
X119622273Y-109524500D01*
X119520413Y-109551793D01*
X119520412Y-109551793D01*
X119520410Y-109551794D01*
X119520409Y-109551794D01*
X119484940Y-109572273D01*
X119429087Y-109604519D01*
X119370424Y-109663182D01*
X119309100Y-109696666D01*
X119282743Y-109699500D01*
X119114944Y-109699500D01*
X118949773Y-109740210D01*
X118799150Y-109819263D01*
X118671815Y-109932072D01*
X118593536Y-110045478D01*
X118539253Y-110089468D01*
X118469805Y-110097127D01*
X118407240Y-110066023D01*
X118403806Y-110062718D01*
X117236819Y-108895731D01*
X117203334Y-108834408D01*
X117200500Y-108808050D01*
X117200500Y-107397844D01*
X126525000Y-107397844D01*
X126531401Y-107457372D01*
X126531403Y-107457379D01*
X126581645Y-107592086D01*
X126581647Y-107592089D01*
X126601237Y-107618258D01*
X126625654Y-107683723D01*
X126618152Y-107735902D01*
X126591403Y-107807619D01*
X126591401Y-107807627D01*
X126585000Y-107867155D01*
X126585000Y-108400000D01*
X127360000Y-108400000D01*
X127360000Y-107438362D01*
X127375000Y-107387278D01*
X127375000Y-107100000D01*
X126525000Y-107100000D01*
X126525000Y-107397844D01*
X117200500Y-107397844D01*
X117200500Y-106838011D01*
X117220185Y-106770972D01*
X117266046Y-106728653D01*
X117330625Y-106694136D01*
X117475357Y-106575357D01*
X117594136Y-106430625D01*
X117682396Y-106265501D01*
X117736747Y-106086331D01*
X117755099Y-105900000D01*
X117736747Y-105713669D01*
X117682396Y-105534499D01*
X117654764Y-105482803D01*
X117594137Y-105369376D01*
X117594135Y-105369373D01*
X117475357Y-105224642D01*
X117330626Y-105105864D01*
X117330623Y-105105862D01*
X117165502Y-105017604D01*
X116986333Y-104963253D01*
X116986331Y-104963252D01*
X116800000Y-104944901D01*
X116613668Y-104963252D01*
X116613666Y-104963253D01*
X116434497Y-105017604D01*
X116269376Y-105105862D01*
X116269373Y-105105864D01*
X116124642Y-105224642D01*
X116005864Y-105369373D01*
X116005862Y-105369376D01*
X115917604Y-105534497D01*
X115863253Y-105713666D01*
X115863252Y-105713668D01*
X115844901Y-105900000D01*
X115863252Y-106086331D01*
X115863253Y-106086333D01*
X115917604Y-106265502D01*
X116005862Y-106430623D01*
X116005864Y-106430626D01*
X116124642Y-106575357D01*
X116225359Y-106658013D01*
X116269375Y-106694136D01*
X116333953Y-106728653D01*
X116383797Y-106777614D01*
X116399500Y-106838011D01*
X116399500Y-109078031D01*
X116426793Y-109179894D01*
X116449524Y-109219264D01*
X116479520Y-109271218D01*
X120328782Y-113120480D01*
X120420107Y-113173207D01*
X120521968Y-113200500D01*
X120521970Y-113200500D01*
X121078030Y-113200500D01*
X121078032Y-113200500D01*
X121179893Y-113173207D01*
X121271218Y-113120480D01*
X121379879Y-113011819D01*
X121441202Y-112978334D01*
X121467560Y-112975500D01*
X124649386Y-112975500D01*
X124716425Y-112995185D01*
X124762180Y-113047989D01*
X124772124Y-113117147D01*
X124765328Y-113143470D01*
X124760529Y-113156122D01*
X124760527Y-113156130D01*
X124740901Y-113317765D01*
X124740023Y-113325000D01*
X124754654Y-113445499D01*
X124755329Y-113451053D01*
X124743869Y-113519977D01*
X124696965Y-113571763D01*
X124632233Y-113590000D01*
X124022155Y-113590000D01*
X123962627Y-113596401D01*
X123962620Y-113596403D01*
X123827913Y-113646645D01*
X123827906Y-113646649D01*
X123712812Y-113732809D01*
X123712809Y-113732812D01*
X123626649Y-113847906D01*
X123626645Y-113847913D01*
X123576403Y-113982620D01*
X123576401Y-113982627D01*
X123570000Y-114042155D01*
X123570000Y-114350000D01*
X124931000Y-114350000D01*
X124998039Y-114369685D01*
X125043794Y-114422489D01*
X125055000Y-114474000D01*
X125055000Y-114726000D01*
X125035315Y-114793039D01*
X124982511Y-114838794D01*
X124931000Y-114850000D01*
X123570000Y-114850000D01*
X123570000Y-115157844D01*
X123576401Y-115217372D01*
X123576403Y-115217379D01*
X123626645Y-115352086D01*
X123626649Y-115352093D01*
X123712809Y-115467187D01*
X123712812Y-115467190D01*
X123729408Y-115479614D01*
X123771279Y-115535548D01*
X123776263Y-115605239D01*
X123774748Y-115611431D01*
X123772415Y-115620003D01*
X123769500Y-115645131D01*
X123769500Y-116311334D01*
X123749815Y-116378373D01*
X123697011Y-116424128D01*
X123627853Y-116434072D01*
X123615825Y-116431731D01*
X123485056Y-116399500D01*
X123314944Y-116399500D01*
X123149773Y-116440210D01*
X122999150Y-116519263D01*
X122871816Y-116632072D01*
X122775182Y-116772068D01*
X122714860Y-116931125D01*
X122714859Y-116931130D01*
X122694355Y-117100000D01*
X122714859Y-117268869D01*
X122714860Y-117268874D01*
X122775182Y-117427931D01*
X122809195Y-117477206D01*
X122871817Y-117567929D01*
X122968829Y-117653874D01*
X122999150Y-117680736D01*
X123149773Y-117759789D01*
X123149775Y-117759790D01*
X123314944Y-117800500D01*
X123482745Y-117800500D01*
X123549784Y-117820185D01*
X123570426Y-117836819D01*
X124133181Y-118399574D01*
X124166666Y-118460897D01*
X124169500Y-118487255D01*
X124169500Y-121725500D01*
X124149815Y-121792539D01*
X124097011Y-121838294D01*
X124045500Y-121849500D01*
X123800143Y-121849500D01*
X123800117Y-121849502D01*
X123775012Y-121852413D01*
X123775008Y-121852415D01*
X123672235Y-121897793D01*
X123592795Y-121977233D01*
X123551415Y-122070948D01*
X123506328Y-122124323D01*
X123439542Y-122144850D01*
X123372260Y-122126011D01*
X123328182Y-122078480D01*
X123324818Y-122072070D01*
X123318299Y-122062626D01*
X123228183Y-121932071D01*
X123115646Y-121832372D01*
X123100849Y-121819263D01*
X122950226Y-121740210D01*
X122785056Y-121699500D01*
X122614944Y-121699500D01*
X122449773Y-121740210D01*
X122299150Y-121819263D01*
X122184785Y-121920582D01*
X122178466Y-121926181D01*
X122171816Y-121932072D01*
X122075182Y-122072068D01*
X122014860Y-122231125D01*
X122014859Y-122231130D01*
X121994355Y-122400000D01*
X122014859Y-122568869D01*
X122014860Y-122568874D01*
X122075182Y-122727931D01*
X122171817Y-122867930D01*
X122232726Y-122921889D01*
X122269853Y-122981078D01*
X122274500Y-123014705D01*
X122274500Y-123043982D01*
X122274500Y-123156018D01*
X122303497Y-123264237D01*
X122359515Y-123361263D01*
X122359517Y-123361265D01*
X123508181Y-124509929D01*
X123541666Y-124571252D01*
X123544500Y-124597610D01*
X123544500Y-125094856D01*
X123544502Y-125094882D01*
X123547413Y-125119987D01*
X123547415Y-125119991D01*
X123592793Y-125222764D01*
X123592794Y-125222765D01*
X123672235Y-125302206D01*
X123775009Y-125347585D01*
X123800135Y-125350500D01*
X125339864Y-125350499D01*
X125339879Y-125350497D01*
X125339882Y-125350497D01*
X125364987Y-125347586D01*
X125364988Y-125347585D01*
X125364991Y-125347585D01*
X125467765Y-125302206D01*
X125497319Y-125272652D01*
X125558642Y-125239167D01*
X125628334Y-125244151D01*
X125672681Y-125272652D01*
X125702235Y-125302206D01*
X125805009Y-125347585D01*
X125830135Y-125350500D01*
X127369864Y-125350499D01*
X127369879Y-125350497D01*
X127369882Y-125350497D01*
X127394987Y-125347586D01*
X127394988Y-125347585D01*
X127394991Y-125347585D01*
X127497765Y-125302206D01*
X127577206Y-125222765D01*
X127577207Y-125222761D01*
X127585196Y-125214773D01*
X127646519Y-125181288D01*
X127716211Y-125186272D01*
X127722929Y-125189005D01*
X127765009Y-125207585D01*
X127790135Y-125210500D01*
X129349864Y-125210499D01*
X129349879Y-125210497D01*
X129349882Y-125210497D01*
X129374987Y-125207586D01*
X129374988Y-125207585D01*
X129374991Y-125207585D01*
X129477765Y-125162206D01*
X129557206Y-125082765D01*
X129602585Y-124979991D01*
X129605500Y-124954865D01*
X129605499Y-123845136D01*
X129602585Y-123820009D01*
X129602582Y-123820003D01*
X129600252Y-123811437D01*
X129601645Y-123741581D01*
X129640583Y-123683567D01*
X129645593Y-123679612D01*
X129662188Y-123667189D01*
X129662190Y-123667186D01*
X129748352Y-123552088D01*
X129748354Y-123552086D01*
X129798596Y-123417379D01*
X129798598Y-123417372D01*
X129804999Y-123357844D01*
X129805000Y-123357827D01*
X129805000Y-123050000D01*
X128444000Y-123050000D01*
X128376961Y-123030315D01*
X128331206Y-122977511D01*
X128320000Y-122926000D01*
X128320000Y-121790000D01*
X127787155Y-121790000D01*
X127719913Y-121797231D01*
X127719685Y-121795116D01*
X127660812Y-121791950D01*
X127604148Y-121751073D01*
X127578578Y-121686050D01*
X127592222Y-121617525D01*
X127614403Y-121587343D01*
X128089928Y-121111819D01*
X128151251Y-121078334D01*
X128177609Y-121075500D01*
X128836696Y-121075500D01*
X128903735Y-121095185D01*
X128949490Y-121147989D01*
X128952635Y-121155523D01*
X128958910Y-121172068D01*
X129011841Y-121311638D01*
X129061355Y-121383370D01*
X129108476Y-121451636D01*
X129235807Y-121564441D01*
X129235808Y-121564441D01*
X129241421Y-121569414D01*
X129240429Y-121570532D01*
X129279085Y-121618231D01*
X129286746Y-121687679D01*
X129255644Y-121750245D01*
X129195654Y-121786063D01*
X129164656Y-121790000D01*
X128820000Y-121790000D01*
X128820000Y-122550000D01*
X129805000Y-122550000D01*
X129805000Y-122242172D01*
X129804999Y-122242155D01*
X129798598Y-122182627D01*
X129798596Y-122182620D01*
X129748354Y-122047913D01*
X129748350Y-122047906D01*
X129662190Y-121932812D01*
X129628342Y-121907473D01*
X129586472Y-121851539D01*
X129581488Y-121781847D01*
X129614974Y-121720524D01*
X129676298Y-121687040D01*
X129702654Y-121684207D01*
X129721715Y-121684207D01*
X129886884Y-121643497D01*
X129979300Y-121594993D01*
X130037508Y-121564443D01*
X130037509Y-121564441D01*
X130037511Y-121564441D01*
X130164842Y-121451636D01*
X130261477Y-121311637D01*
X130321799Y-121152579D01*
X130342304Y-120983707D01*
X130321799Y-120814835D01*
X130266290Y-120668470D01*
X130260924Y-120598807D01*
X130294072Y-120537301D01*
X130355210Y-120503480D01*
X130382233Y-120500500D01*
X131478612Y-120500500D01*
X131545651Y-120520185D01*
X131591406Y-120572989D01*
X131601707Y-120639445D01*
X131598135Y-120668872D01*
X131594355Y-120700000D01*
X131614859Y-120868869D01*
X131614860Y-120868874D01*
X131675182Y-121027931D01*
X131711630Y-121080734D01*
X131771817Y-121167929D01*
X131877505Y-121261560D01*
X131899150Y-121280736D01*
X132040212Y-121354771D01*
X132049775Y-121359790D01*
X132214944Y-121400500D01*
X132325500Y-121400500D01*
X132392539Y-121420185D01*
X132438294Y-121472989D01*
X132449500Y-121524500D01*
X132449500Y-121613891D01*
X132429815Y-121680930D01*
X132377011Y-121726685D01*
X132307853Y-121736629D01*
X132284546Y-121730933D01*
X132162455Y-121688212D01*
X132000004Y-121669909D01*
X131999996Y-121669909D01*
X131837544Y-121688212D01*
X131683225Y-121742210D01*
X131544795Y-121829192D01*
X131429192Y-121944795D01*
X131342210Y-122083225D01*
X131288212Y-122237544D01*
X131269909Y-122399996D01*
X131269909Y-122400003D01*
X131288212Y-122562455D01*
X131342210Y-122716774D01*
X131385359Y-122785444D01*
X131429192Y-122855204D01*
X131544796Y-122970808D01*
X131683225Y-123057789D01*
X131837539Y-123111786D01*
X131837542Y-123111786D01*
X131837544Y-123111787D01*
X131913982Y-123120399D01*
X131972260Y-123126965D01*
X132036673Y-123154031D01*
X132046057Y-123162504D01*
X132548321Y-123664768D01*
X132520005Y-123676497D01*
X132395528Y-123759670D01*
X132289670Y-123865528D01*
X132206497Y-123990005D01*
X132194768Y-124018321D01*
X131553894Y-123377447D01*
X131549109Y-123383052D01*
X131549105Y-123383057D01*
X131414230Y-123603153D01*
X131414228Y-123603156D01*
X131315444Y-123841643D01*
X131315444Y-123841644D01*
X131255183Y-124092650D01*
X131234929Y-124350000D01*
X131255183Y-124607349D01*
X131315444Y-124858355D01*
X131315444Y-124858356D01*
X131414228Y-125096843D01*
X131414230Y-125096846D01*
X131549111Y-125316951D01*
X131553895Y-125322551D01*
X132194768Y-124681678D01*
X132206497Y-124709995D01*
X132289670Y-124834472D01*
X132395528Y-124940330D01*
X132520005Y-125023503D01*
X132548320Y-125035231D01*
X131907447Y-125676103D01*
X131907447Y-125676104D01*
X131913046Y-125680885D01*
X131913052Y-125680890D01*
X132133153Y-125815769D01*
X132133156Y-125815771D01*
X132371644Y-125914555D01*
X132622650Y-125974816D01*
X132880000Y-125995070D01*
X133137349Y-125974816D01*
X133388355Y-125914555D01*
X133388356Y-125914555D01*
X133626843Y-125815771D01*
X133626846Y-125815769D01*
X133785710Y-125718417D01*
X133853155Y-125700172D01*
X133919758Y-125721288D01*
X133964372Y-125775060D01*
X133974500Y-125824144D01*
X133974500Y-126545367D01*
X133954815Y-126612406D01*
X133902011Y-126658161D01*
X133832853Y-126668105D01*
X133791073Y-126654199D01*
X133681721Y-126594488D01*
X133681722Y-126594488D01*
X133423711Y-126498255D01*
X133154661Y-126439727D01*
X132880001Y-126420083D01*
X132879999Y-126420083D01*
X132605338Y-126439727D01*
X132336288Y-126498255D01*
X132078277Y-126594488D01*
X131836613Y-126726447D01*
X131707015Y-126823462D01*
X132407027Y-127523474D01*
X132274410Y-127612087D01*
X132142087Y-127744410D01*
X132053474Y-127877027D01*
X131353462Y-127177015D01*
X131256447Y-127306613D01*
X131124488Y-127548277D01*
X131028255Y-127806288D01*
X130969727Y-128075338D01*
X130950083Y-128349998D01*
X130950083Y-128350001D01*
X130969727Y-128624661D01*
X131028255Y-128893711D01*
X131124488Y-129151722D01*
X131256447Y-129393386D01*
X131256452Y-129393394D01*
X131353461Y-129522983D01*
X131353462Y-129522984D01*
X132053474Y-128822972D01*
X132142087Y-128955590D01*
X132274410Y-129087913D01*
X132407026Y-129176524D01*
X131707014Y-129876536D01*
X131707015Y-129876537D01*
X131836605Y-129973547D01*
X131836613Y-129973552D01*
X132078278Y-130105511D01*
X132078277Y-130105511D01*
X132336288Y-130201744D01*
X132463116Y-130229334D01*
X132524439Y-130262819D01*
X132557924Y-130324142D01*
X132552940Y-130393834D01*
X132511068Y-130449767D01*
X132445604Y-130474184D01*
X132436758Y-130474500D01*
X115004067Y-130474500D01*
X114995957Y-130474235D01*
X114750379Y-130458139D01*
X114734298Y-130456021D01*
X114496935Y-130408806D01*
X114481268Y-130404608D01*
X114252088Y-130326812D01*
X114237102Y-130320605D01*
X114236917Y-130320514D01*
X114196333Y-130300500D01*
X114020039Y-130213561D01*
X114005992Y-130205451D01*
X113804758Y-130070991D01*
X113791890Y-130061117D01*
X113787105Y-130056921D01*
X113654336Y-129940485D01*
X113609928Y-129901540D01*
X113598459Y-129890071D01*
X113438882Y-129708109D01*
X113429008Y-129695241D01*
X113399112Y-129650499D01*
X113320955Y-129533528D01*
X113294548Y-129494007D01*
X113286438Y-129479960D01*
X113262355Y-129431125D01*
X113179391Y-129262890D01*
X113173187Y-129247911D01*
X113095391Y-129018731D01*
X113091193Y-129003064D01*
X113081835Y-128956019D01*
X113043976Y-128765690D01*
X113041861Y-128749632D01*
X113025765Y-128504043D01*
X113025500Y-128495933D01*
X113025500Y-128050000D01*
X122319901Y-128050000D01*
X122338252Y-128236331D01*
X122338253Y-128236333D01*
X122392604Y-128415502D01*
X122480862Y-128580623D01*
X122480864Y-128580626D01*
X122599642Y-128725357D01*
X122744373Y-128844135D01*
X122744376Y-128844137D01*
X122841412Y-128896003D01*
X122909499Y-128932396D01*
X123088666Y-128986746D01*
X123088668Y-128986747D01*
X123105374Y-128988392D01*
X123275000Y-129005099D01*
X123461331Y-128986747D01*
X123640501Y-128932396D01*
X123805625Y-128844136D01*
X123950357Y-128725357D01*
X124069136Y-128580625D01*
X124157396Y-128415501D01*
X124211747Y-128236331D01*
X124230099Y-128050000D01*
X124819901Y-128050000D01*
X124838252Y-128236331D01*
X124838253Y-128236333D01*
X124892604Y-128415502D01*
X124980862Y-128580623D01*
X124980864Y-128580626D01*
X125099642Y-128725357D01*
X125244373Y-128844135D01*
X125244376Y-128844137D01*
X125341412Y-128896003D01*
X125409499Y-128932396D01*
X125588666Y-128986746D01*
X125588668Y-128986747D01*
X125605374Y-128988392D01*
X125775000Y-129005099D01*
X125961331Y-128986747D01*
X126140501Y-128932396D01*
X126305625Y-128844136D01*
X126450357Y-128725357D01*
X126569136Y-128580625D01*
X126657396Y-128415501D01*
X126711747Y-128236331D01*
X126730099Y-128050000D01*
X127319901Y-128050000D01*
X127338252Y-128236331D01*
X127338253Y-128236333D01*
X127392604Y-128415502D01*
X127480862Y-128580623D01*
X127480864Y-128580626D01*
X127599642Y-128725357D01*
X127744373Y-128844135D01*
X127744376Y-128844137D01*
X127841412Y-128896003D01*
X127909499Y-128932396D01*
X128088666Y-128986746D01*
X128088668Y-128986747D01*
X128105374Y-128988392D01*
X128275000Y-129005099D01*
X128461331Y-128986747D01*
X128640501Y-128932396D01*
X128805625Y-128844136D01*
X128950357Y-128725357D01*
X129069136Y-128580625D01*
X129157396Y-128415501D01*
X129211747Y-128236331D01*
X129230099Y-128050000D01*
X129211747Y-127863669D01*
X129157396Y-127684499D01*
X129118691Y-127612087D01*
X129069137Y-127519376D01*
X129069135Y-127519373D01*
X128950357Y-127374642D01*
X128805626Y-127255864D01*
X128805623Y-127255862D01*
X128640502Y-127167604D01*
X128461333Y-127113253D01*
X128461331Y-127113252D01*
X128275000Y-127094901D01*
X128088668Y-127113252D01*
X128088666Y-127113253D01*
X127909497Y-127167604D01*
X127744376Y-127255862D01*
X127744373Y-127255864D01*
X127599642Y-127374642D01*
X127480864Y-127519373D01*
X127480862Y-127519376D01*
X127392604Y-127684497D01*
X127338253Y-127863666D01*
X127338252Y-127863668D01*
X127319901Y-128050000D01*
X126730099Y-128050000D01*
X126711747Y-127863669D01*
X126657396Y-127684499D01*
X126618691Y-127612087D01*
X126569137Y-127519376D01*
X126569135Y-127519373D01*
X126450357Y-127374642D01*
X126305626Y-127255864D01*
X126305623Y-127255862D01*
X126140502Y-127167604D01*
X125961333Y-127113253D01*
X125961331Y-127113252D01*
X125775000Y-127094901D01*
X125588668Y-127113252D01*
X125588666Y-127113253D01*
X125409497Y-127167604D01*
X125244376Y-127255862D01*
X125244373Y-127255864D01*
X125099642Y-127374642D01*
X124980864Y-127519373D01*
X124980862Y-127519376D01*
X124892604Y-127684497D01*
X124838253Y-127863666D01*
X124838252Y-127863668D01*
X124819901Y-128050000D01*
X124230099Y-128050000D01*
X124211747Y-127863669D01*
X124157396Y-127684499D01*
X124118691Y-127612087D01*
X124069137Y-127519376D01*
X124069135Y-127519373D01*
X123950357Y-127374642D01*
X123805626Y-127255864D01*
X123805623Y-127255862D01*
X123640502Y-127167604D01*
X123461333Y-127113253D01*
X123461331Y-127113252D01*
X123275000Y-127094901D01*
X123088668Y-127113252D01*
X123088666Y-127113253D01*
X122909497Y-127167604D01*
X122744376Y-127255862D01*
X122744373Y-127255864D01*
X122599642Y-127374642D01*
X122480864Y-127519373D01*
X122480862Y-127519376D01*
X122392604Y-127684497D01*
X122338253Y-127863666D01*
X122338252Y-127863668D01*
X122319901Y-128050000D01*
X113025500Y-128050000D01*
X113025500Y-113200000D01*
X115294355Y-113200000D01*
X115314859Y-113368869D01*
X115314860Y-113368874D01*
X115375182Y-113527931D01*
X115476078Y-113674103D01*
X115473807Y-113675670D01*
X115498034Y-113727190D01*
X115499500Y-113746204D01*
X115499500Y-114897273D01*
X115499500Y-115002727D01*
X115499648Y-115003279D01*
X115526793Y-115104589D01*
X115543799Y-115134043D01*
X115579520Y-115195913D01*
X116211118Y-115827511D01*
X116813181Y-116429573D01*
X116846666Y-116490896D01*
X116849500Y-116517254D01*
X116849500Y-117469856D01*
X116849502Y-117469882D01*
X116852413Y-117494987D01*
X116852415Y-117494991D01*
X116897793Y-117597764D01*
X116897794Y-117597765D01*
X116977235Y-117677206D01*
X116977237Y-117677207D01*
X116977776Y-117677576D01*
X116978535Y-117678506D01*
X116985360Y-117685331D01*
X116984669Y-117686021D01*
X117021960Y-117731702D01*
X117029867Y-117801122D01*
X117021135Y-117829963D01*
X116992416Y-117895004D01*
X116992415Y-117895008D01*
X116989500Y-117920131D01*
X116989500Y-119479856D01*
X116989502Y-119479882D01*
X116992413Y-119504987D01*
X116992415Y-119504991D01*
X117037793Y-119607764D01*
X117037794Y-119607765D01*
X117117235Y-119687206D01*
X117220009Y-119732585D01*
X117245135Y-119735500D01*
X118354864Y-119735499D01*
X118354879Y-119735497D01*
X118354882Y-119735497D01*
X118379985Y-119732586D01*
X118379986Y-119732585D01*
X118379991Y-119732585D01*
X118379994Y-119732583D01*
X118388560Y-119730253D01*
X118458416Y-119731644D01*
X118516430Y-119770582D01*
X118520386Y-119775592D01*
X118532806Y-119792184D01*
X118532814Y-119792191D01*
X118647906Y-119878350D01*
X118647913Y-119878354D01*
X118782620Y-119928596D01*
X118782627Y-119928598D01*
X118842155Y-119934999D01*
X118842172Y-119935000D01*
X119150000Y-119935000D01*
X119650000Y-119935000D01*
X119957828Y-119935000D01*
X119957844Y-119934999D01*
X120017372Y-119928598D01*
X120017379Y-119928596D01*
X120152086Y-119878354D01*
X120152093Y-119878350D01*
X120267187Y-119792190D01*
X120267190Y-119792187D01*
X120353350Y-119677093D01*
X120353354Y-119677086D01*
X120403596Y-119542379D01*
X120403598Y-119542372D01*
X120409999Y-119482844D01*
X120410000Y-119482827D01*
X120410000Y-118950000D01*
X119650000Y-118950000D01*
X119650000Y-119935000D01*
X119150000Y-119935000D01*
X119150000Y-118574000D01*
X119169685Y-118506961D01*
X119222489Y-118461206D01*
X119274000Y-118450000D01*
X120410000Y-118450000D01*
X120410000Y-117917172D01*
X120409999Y-117917155D01*
X120403598Y-117857627D01*
X120403596Y-117857620D01*
X120353354Y-117722913D01*
X120353352Y-117722910D01*
X120329885Y-117691562D01*
X120305467Y-117626097D01*
X120315716Y-117567167D01*
X120347585Y-117494991D01*
X120350500Y-117469865D01*
X120350499Y-115930136D01*
X120348218Y-115910466D01*
X120347586Y-115905012D01*
X120347585Y-115905010D01*
X120347585Y-115905009D01*
X120302206Y-115802235D01*
X120287652Y-115787681D01*
X120254167Y-115726358D01*
X120259151Y-115656666D01*
X120287652Y-115612319D01*
X120294732Y-115605239D01*
X120302206Y-115597765D01*
X120347585Y-115494991D01*
X120350500Y-115469865D01*
X120350500Y-115424500D01*
X120370185Y-115357461D01*
X120422989Y-115311706D01*
X120474500Y-115300500D01*
X120682745Y-115300500D01*
X120749784Y-115320185D01*
X120770426Y-115336819D01*
X121166739Y-115733132D01*
X121200224Y-115794455D01*
X121202154Y-115835757D01*
X121194355Y-115899997D01*
X121194355Y-115899999D01*
X121214859Y-116068869D01*
X121214860Y-116068874D01*
X121275182Y-116227931D01*
X121308017Y-116275500D01*
X121371817Y-116367929D01*
X121453406Y-116440210D01*
X121499150Y-116480736D01*
X121630169Y-116549500D01*
X121649775Y-116559790D01*
X121814944Y-116600500D01*
X121985056Y-116600500D01*
X122150225Y-116559790D01*
X122254484Y-116505070D01*
X122300849Y-116480736D01*
X122300850Y-116480734D01*
X122300852Y-116480734D01*
X122428183Y-116367929D01*
X122524818Y-116227930D01*
X122585140Y-116068872D01*
X122605645Y-115900000D01*
X122585140Y-115731128D01*
X122524818Y-115572070D01*
X122524373Y-115571426D01*
X122466936Y-115488214D01*
X122428183Y-115432071D01*
X122320665Y-115336819D01*
X122300849Y-115319263D01*
X122150226Y-115240210D01*
X121985056Y-115199500D01*
X121817254Y-115199500D01*
X121750215Y-115179815D01*
X121729573Y-115163181D01*
X121145915Y-114579522D01*
X121145914Y-114579521D01*
X121145913Y-114579520D01*
X121094981Y-114550114D01*
X121054589Y-114526793D01*
X121003657Y-114513146D01*
X120952727Y-114499500D01*
X120952726Y-114499500D01*
X120474499Y-114499500D01*
X120407460Y-114479815D01*
X120361705Y-114427011D01*
X120350499Y-114375500D01*
X120350499Y-113930143D01*
X120350499Y-113930136D01*
X120349317Y-113919940D01*
X120347586Y-113905012D01*
X120347585Y-113905010D01*
X120347585Y-113905009D01*
X120302206Y-113802235D01*
X120222765Y-113722794D01*
X120198473Y-113712068D01*
X120119992Y-113677415D01*
X120094865Y-113674500D01*
X119005143Y-113674500D01*
X119005117Y-113674502D01*
X118980012Y-113677413D01*
X118980008Y-113677415D01*
X118877235Y-113722793D01*
X118797794Y-113802234D01*
X118752415Y-113905006D01*
X118752415Y-113905008D01*
X118749500Y-113930131D01*
X118749500Y-114998390D01*
X118729815Y-115065429D01*
X118677011Y-115111184D01*
X118607853Y-115121128D01*
X118544297Y-115092103D01*
X118537819Y-115086071D01*
X118486818Y-115035070D01*
X118453333Y-114973747D01*
X118450499Y-114947389D01*
X118450499Y-113930143D01*
X118450499Y-113930136D01*
X118449317Y-113919940D01*
X118447586Y-113905012D01*
X118447585Y-113905010D01*
X118447585Y-113905009D01*
X118402206Y-113802235D01*
X118322765Y-113722794D01*
X118298473Y-113712068D01*
X118219992Y-113677415D01*
X118194865Y-113674500D01*
X117105143Y-113674500D01*
X117105119Y-113674502D01*
X117080010Y-113677414D01*
X117080004Y-113677415D01*
X117077012Y-113678737D01*
X117073419Y-113679207D01*
X117071005Y-113679864D01*
X117070915Y-113679534D01*
X117007733Y-113687805D01*
X116944706Y-113658116D01*
X116900852Y-113619266D01*
X116900850Y-113619264D01*
X116743584Y-113536724D01*
X116744479Y-113535018D01*
X116696748Y-113498870D01*
X116672697Y-113433271D01*
X116680487Y-113381140D01*
X116685140Y-113368872D01*
X116705645Y-113200000D01*
X116685140Y-113031128D01*
X116624818Y-112872070D01*
X116528183Y-112732071D01*
X116400852Y-112619266D01*
X116400849Y-112619263D01*
X116250226Y-112540210D01*
X116085056Y-112499500D01*
X115914944Y-112499500D01*
X115749773Y-112540210D01*
X115599150Y-112619263D01*
X115494677Y-112711819D01*
X115472882Y-112731128D01*
X115471816Y-112732072D01*
X115375182Y-112872068D01*
X115314860Y-113031125D01*
X115314859Y-113031130D01*
X115294355Y-113200000D01*
X113025500Y-113200000D01*
X113025500Y-102800000D01*
X124094355Y-102800000D01*
X124114859Y-102968869D01*
X124114860Y-102968874D01*
X124175182Y-103127931D01*
X124211132Y-103180012D01*
X124271817Y-103267929D01*
X124377505Y-103361560D01*
X124399150Y-103380736D01*
X124494568Y-103430815D01*
X124549775Y-103459790D01*
X124714944Y-103500500D01*
X124885056Y-103500500D01*
X125050225Y-103459790D01*
X125129692Y-103418081D01*
X125200849Y-103380736D01*
X125200850Y-103380734D01*
X125200852Y-103380734D01*
X125328183Y-103267929D01*
X125424818Y-103127930D01*
X125485140Y-102968872D01*
X125505645Y-102800000D01*
X125485140Y-102631128D01*
X125474171Y-102602206D01*
X125443527Y-102521403D01*
X125424818Y-102472070D01*
X125416324Y-102459765D01*
X125373142Y-102397205D01*
X125328183Y-102332071D01*
X125200852Y-102219266D01*
X125200849Y-102219263D01*
X125050226Y-102140210D01*
X124885056Y-102099500D01*
X124714944Y-102099500D01*
X124549773Y-102140210D01*
X124399150Y-102219263D01*
X124271816Y-102332072D01*
X124175182Y-102472068D01*
X124114860Y-102631125D01*
X124114859Y-102631130D01*
X124094355Y-102800000D01*
X113025500Y-102800000D01*
X113025500Y-100900000D01*
X124094355Y-100900000D01*
X124114859Y-101068869D01*
X124114860Y-101068874D01*
X124175182Y-101227931D01*
X124211132Y-101280012D01*
X124271817Y-101367929D01*
X124358248Y-101444500D01*
X124399150Y-101480736D01*
X124549773Y-101559789D01*
X124549775Y-101559790D01*
X124714944Y-101600500D01*
X124885056Y-101600500D01*
X125050225Y-101559790D01*
X125163895Y-101500131D01*
X125200849Y-101480736D01*
X125200850Y-101480734D01*
X125200852Y-101480734D01*
X125328183Y-101367929D01*
X125424818Y-101227930D01*
X125485140Y-101068872D01*
X125505645Y-100900000D01*
X125485140Y-100731128D01*
X125483031Y-100725568D01*
X125438932Y-100609287D01*
X125424818Y-100572070D01*
X125395940Y-100530234D01*
X125375071Y-100500000D01*
X125328183Y-100432071D01*
X125214244Y-100331130D01*
X125200849Y-100319263D01*
X125050226Y-100240210D01*
X124885056Y-100199500D01*
X124714944Y-100199500D01*
X124549773Y-100240210D01*
X124399150Y-100319263D01*
X124271816Y-100432072D01*
X124175182Y-100572068D01*
X124114860Y-100731125D01*
X124114859Y-100731130D01*
X124094355Y-100900000D01*
X113025500Y-100900000D01*
X113025500Y-99949498D01*
X128819355Y-99949498D01*
X128839859Y-100118367D01*
X128839860Y-100118372D01*
X128900182Y-100277429D01*
X128943155Y-100339685D01*
X128996817Y-100417427D01*
X129080526Y-100491586D01*
X129124150Y-100530234D01*
X129274773Y-100609287D01*
X129274775Y-100609288D01*
X129439944Y-100649998D01*
X129610056Y-100649998D01*
X129775225Y-100609288D01*
X129854692Y-100567579D01*
X129925849Y-100530234D01*
X129925850Y-100530232D01*
X129925852Y-100530232D01*
X130053183Y-100417427D01*
X130105506Y-100341624D01*
X130159786Y-100297636D01*
X130229235Y-100289976D01*
X130265180Y-100302270D01*
X130374773Y-100359789D01*
X130374775Y-100359790D01*
X130539944Y-100400500D01*
X130672390Y-100400500D01*
X130739429Y-100420185D01*
X130760071Y-100436819D01*
X130963737Y-100640485D01*
X131060763Y-100696503D01*
X131168981Y-100725500D01*
X131168982Y-100725500D01*
X132373390Y-100725500D01*
X132440429Y-100745185D01*
X132486184Y-100797989D01*
X132496128Y-100867147D01*
X132467103Y-100930703D01*
X132461073Y-100937178D01*
X131890899Y-101507352D01*
X131335070Y-102063181D01*
X131273747Y-102096666D01*
X131247389Y-102099500D01*
X131114944Y-102099500D01*
X130949773Y-102140210D01*
X130799150Y-102219263D01*
X130671816Y-102332072D01*
X130575182Y-102472068D01*
X130514860Y-102631125D01*
X130514859Y-102631131D01*
X130500241Y-102751522D01*
X130472619Y-102815700D01*
X130414685Y-102854756D01*
X130344832Y-102856291D01*
X130285238Y-102819816D01*
X130260963Y-102779907D01*
X130258355Y-102772915D01*
X130258350Y-102772906D01*
X130172190Y-102657812D01*
X130172187Y-102657809D01*
X130057093Y-102571649D01*
X130057086Y-102571645D01*
X129922379Y-102521403D01*
X129922372Y-102521401D01*
X129862844Y-102515000D01*
X129540000Y-102515000D01*
X129540000Y-103500000D01*
X130315000Y-103500000D01*
X130315000Y-103118531D01*
X130334685Y-103051492D01*
X130387489Y-103005737D01*
X130456647Y-102995793D01*
X130520203Y-103024818D01*
X130554941Y-103074558D01*
X130563805Y-103097931D01*
X130575182Y-103127931D01*
X130611132Y-103180012D01*
X130671817Y-103267929D01*
X130777505Y-103361560D01*
X130799150Y-103380736D01*
X130894568Y-103430815D01*
X130949775Y-103459790D01*
X131114944Y-103500500D01*
X131285056Y-103500500D01*
X131450225Y-103459790D01*
X131529692Y-103418081D01*
X131600849Y-103380736D01*
X131600850Y-103380734D01*
X131600852Y-103380734D01*
X131728183Y-103267929D01*
X131824818Y-103127930D01*
X131885140Y-102968872D01*
X131905645Y-102800000D01*
X131901672Y-102767285D01*
X131913131Y-102698365D01*
X131937084Y-102664662D01*
X133564929Y-101036819D01*
X133626252Y-101003334D01*
X133652610Y-101000500D01*
X133682745Y-101000500D01*
X133749784Y-101020185D01*
X133770426Y-101036819D01*
X134063181Y-101329574D01*
X134096666Y-101390897D01*
X134099500Y-101417255D01*
X134099500Y-103063146D01*
X134079815Y-103130185D01*
X134057727Y-103155961D01*
X133971818Y-103232069D01*
X133875182Y-103372068D01*
X133814860Y-103531125D01*
X133814859Y-103531130D01*
X133794355Y-103700000D01*
X133814859Y-103868869D01*
X133814860Y-103868874D01*
X133875182Y-104027931D01*
X133886263Y-104043984D01*
X133971817Y-104167929D01*
X134014793Y-104206002D01*
X134099150Y-104280736D01*
X134189071Y-104327930D01*
X134249775Y-104359790D01*
X134414944Y-104400500D01*
X134585056Y-104400500D01*
X134750225Y-104359790D01*
X134834816Y-104315393D01*
X134900849Y-104280736D01*
X134900850Y-104280734D01*
X134900852Y-104280734D01*
X135028183Y-104167929D01*
X135124818Y-104027930D01*
X135185140Y-103868872D01*
X135205645Y-103700000D01*
X135185140Y-103531128D01*
X135173524Y-103500500D01*
X135135600Y-103400500D01*
X135124818Y-103372070D01*
X135102826Y-103340210D01*
X135056272Y-103272765D01*
X135028183Y-103232071D01*
X135028181Y-103232069D01*
X134942273Y-103155961D01*
X134905146Y-103096772D01*
X134900500Y-103063146D01*
X134900500Y-101147275D01*
X134900499Y-101147271D01*
X134894968Y-101126627D01*
X134887242Y-101097793D01*
X134873207Y-101045412D01*
X134820480Y-100954087D01*
X134333259Y-100466866D01*
X134299774Y-100405543D01*
X134297844Y-100364242D01*
X134305645Y-100300000D01*
X134285140Y-100131128D01*
X134280300Y-100118367D01*
X134224817Y-99972068D01*
X134161230Y-99879948D01*
X134128183Y-99832071D01*
X134000852Y-99719266D01*
X134000849Y-99719264D01*
X133998650Y-99717316D01*
X133961523Y-99658126D01*
X133962291Y-99588261D01*
X134000708Y-99529901D01*
X134064579Y-99501576D01*
X134080877Y-99500500D01*
X140447390Y-99500500D01*
X140514429Y-99520185D01*
X140535071Y-99536819D01*
X141273739Y-100275487D01*
X141307224Y-100336810D01*
X141309154Y-100378114D01*
X141294355Y-100499999D01*
X141294355Y-100500000D01*
X141313645Y-100658871D01*
X141302184Y-100727794D01*
X141255280Y-100779580D01*
X141187825Y-100797787D01*
X141132923Y-100783613D01*
X141050226Y-100740210D01*
X140885056Y-100699500D01*
X140714944Y-100699500D01*
X140549773Y-100740210D01*
X140399150Y-100819263D01*
X140271816Y-100932072D01*
X140175182Y-101072068D01*
X140114860Y-101231125D01*
X140114859Y-101231130D01*
X140094355Y-101400000D01*
X140114859Y-101568869D01*
X140114860Y-101568874D01*
X140175182Y-101727931D01*
X140237475Y-101818177D01*
X140271817Y-101867929D01*
X140399148Y-101980734D01*
X140549775Y-102059790D01*
X140549779Y-102059791D01*
X140555404Y-102062743D01*
X140605616Y-102111328D01*
X140621591Y-102179347D01*
X140620874Y-102187483D01*
X140619355Y-102199996D01*
X140619355Y-102199999D01*
X140639859Y-102368869D01*
X140639860Y-102368874D01*
X140700182Y-102527931D01*
X140751451Y-102602205D01*
X140796817Y-102667929D01*
X140891174Y-102751522D01*
X140924150Y-102780736D01*
X141068108Y-102856291D01*
X141074775Y-102859790D01*
X141239944Y-102900500D01*
X141410056Y-102900500D01*
X141575225Y-102859790D01*
X141659231Y-102815700D01*
X141725849Y-102780736D01*
X141725850Y-102780734D01*
X141725852Y-102780734D01*
X141853183Y-102667929D01*
X141949818Y-102527930D01*
X142010140Y-102368872D01*
X142030645Y-102200000D01*
X142010140Y-102031128D01*
X141949818Y-101872070D01*
X141946958Y-101867927D01*
X141878583Y-101768869D01*
X141853183Y-101732071D01*
X141725852Y-101619266D01*
X141725849Y-101619263D01*
X141689147Y-101600000D01*
X144894355Y-101600000D01*
X144914859Y-101768869D01*
X144914860Y-101768874D01*
X144975182Y-101927931D01*
X145011630Y-101980734D01*
X145071817Y-102067929D01*
X145120805Y-102111328D01*
X145199150Y-102180736D01*
X145349773Y-102259789D01*
X145349775Y-102259790D01*
X145514944Y-102300500D01*
X145685056Y-102300500D01*
X145850225Y-102259790D01*
X145929692Y-102218081D01*
X146000849Y-102180736D01*
X146000850Y-102180734D01*
X146000852Y-102180734D01*
X146128183Y-102067929D01*
X146224818Y-101927930D01*
X146285140Y-101768872D01*
X146305645Y-101600000D01*
X146301672Y-101567285D01*
X146313131Y-101498365D01*
X146337081Y-101464665D01*
X146640484Y-101161264D01*
X146696503Y-101064237D01*
X146725500Y-100956019D01*
X146725500Y-100889705D01*
X146745185Y-100822666D01*
X146767274Y-100796889D01*
X146828182Y-100742930D01*
X146828183Y-100742929D01*
X146924818Y-100602930D01*
X146957030Y-100517991D01*
X146999205Y-100462293D01*
X147064802Y-100438235D01*
X147132992Y-100453461D01*
X147182126Y-100503136D01*
X147188322Y-100516469D01*
X147190638Y-100522341D01*
X147282077Y-100642922D01*
X147352732Y-100696501D01*
X147402658Y-100734361D01*
X147433489Y-100746519D01*
X147488633Y-100789424D01*
X147511827Y-100855332D01*
X147512000Y-100861874D01*
X147512000Y-102293517D01*
X147540997Y-102401739D01*
X147557886Y-102430989D01*
X147574500Y-102492991D01*
X147574500Y-103144856D01*
X147574502Y-103144882D01*
X147577413Y-103169987D01*
X147577415Y-103169991D01*
X147622793Y-103272764D01*
X147622794Y-103272765D01*
X147702235Y-103352206D01*
X147805009Y-103397585D01*
X147830135Y-103400500D01*
X149169864Y-103400499D01*
X149169879Y-103400497D01*
X149169882Y-103400497D01*
X149194987Y-103397586D01*
X149194987Y-103397585D01*
X149194991Y-103397585D01*
X149297765Y-103352206D01*
X149297766Y-103352204D01*
X149300913Y-103350815D01*
X149370191Y-103341743D01*
X149433377Y-103371566D01*
X149470408Y-103430815D01*
X149475000Y-103464249D01*
X149475000Y-103505000D01*
X150350000Y-103505000D01*
X150350000Y-102955000D01*
X149927155Y-102955000D01*
X149867627Y-102961401D01*
X149867620Y-102961403D01*
X149732913Y-103011645D01*
X149732911Y-103011647D01*
X149623810Y-103093320D01*
X149558346Y-103117737D01*
X149490073Y-103102886D01*
X149440667Y-103053480D01*
X149425499Y-102994056D01*
X149425499Y-102455136D01*
X149424382Y-102445500D01*
X149422586Y-102430012D01*
X149422585Y-102430010D01*
X149422585Y-102430009D01*
X149377206Y-102327235D01*
X149297765Y-102247794D01*
X149292570Y-102245500D01*
X149194992Y-102202415D01*
X149169868Y-102199500D01*
X149169865Y-102199500D01*
X148552610Y-102199500D01*
X148485571Y-102179815D01*
X148464929Y-102163181D01*
X148399319Y-102097571D01*
X148365834Y-102036248D01*
X148363000Y-102009890D01*
X148363000Y-101500131D01*
X149674500Y-101500131D01*
X149674500Y-102189856D01*
X149674502Y-102189882D01*
X149677413Y-102214987D01*
X149677415Y-102214991D01*
X149722793Y-102317764D01*
X149722794Y-102317765D01*
X149802235Y-102397206D01*
X149905009Y-102442585D01*
X149930135Y-102445500D01*
X151269864Y-102445499D01*
X151269879Y-102445497D01*
X151269882Y-102445497D01*
X151294987Y-102442586D01*
X151294988Y-102442585D01*
X151294991Y-102442585D01*
X151397765Y-102397206D01*
X151477206Y-102317765D01*
X151477207Y-102317760D01*
X151483699Y-102308286D01*
X151485078Y-102309231D01*
X151521564Y-102266037D01*
X151588350Y-102245510D01*
X151589912Y-102245500D01*
X151600501Y-102245500D01*
X151667540Y-102265185D01*
X151713295Y-102317989D01*
X151724501Y-102369500D01*
X151724501Y-102394856D01*
X151724502Y-102394882D01*
X151727413Y-102419987D01*
X151727415Y-102419991D01*
X151772793Y-102522764D01*
X151772794Y-102522765D01*
X151852235Y-102602206D01*
X151955009Y-102647585D01*
X151980135Y-102650500D01*
X153519864Y-102650499D01*
X153519879Y-102650497D01*
X153519882Y-102650497D01*
X153544987Y-102647586D01*
X153544988Y-102647585D01*
X153544991Y-102647585D01*
X153647765Y-102602206D01*
X153727206Y-102522765D01*
X153772585Y-102419991D01*
X153775500Y-102394865D01*
X153775499Y-101305136D01*
X153775497Y-101305117D01*
X153772586Y-101280012D01*
X153772585Y-101280010D01*
X153772585Y-101280009D01*
X153727206Y-101177235D01*
X153647765Y-101097794D01*
X153647763Y-101097793D01*
X153544992Y-101052415D01*
X153519865Y-101049500D01*
X151980143Y-101049500D01*
X151980117Y-101049502D01*
X151955012Y-101052413D01*
X151955008Y-101052415D01*
X151852235Y-101097793D01*
X151772794Y-101177234D01*
X151727415Y-101280006D01*
X151727415Y-101280008D01*
X151724500Y-101305131D01*
X151724500Y-101320500D01*
X151704815Y-101387539D01*
X151652011Y-101433294D01*
X151600500Y-101444500D01*
X151589912Y-101444500D01*
X151522873Y-101424815D01*
X151484845Y-101380928D01*
X151483699Y-101381714D01*
X151477205Y-101372234D01*
X151397765Y-101292794D01*
X151294992Y-101247415D01*
X151269865Y-101244500D01*
X149930143Y-101244500D01*
X149930117Y-101244502D01*
X149905012Y-101247413D01*
X149905008Y-101247415D01*
X149802235Y-101292793D01*
X149722794Y-101372234D01*
X149677415Y-101475006D01*
X149677415Y-101475008D01*
X149674500Y-101500131D01*
X148363000Y-101500131D01*
X148363000Y-100861874D01*
X148382685Y-100794835D01*
X148435489Y-100749080D01*
X148441504Y-100746521D01*
X148472342Y-100734361D01*
X148592922Y-100642922D01*
X148684361Y-100522342D01*
X148734646Y-100394826D01*
X148777551Y-100339685D01*
X148843459Y-100316492D01*
X148911443Y-100332612D01*
X148959920Y-100382929D01*
X148965348Y-100394814D01*
X148984695Y-100443874D01*
X149015639Y-100522343D01*
X149107077Y-100642922D01*
X149227656Y-100734360D01*
X149227657Y-100734360D01*
X149227658Y-100734361D01*
X149368436Y-100789877D01*
X149456898Y-100800500D01*
X149456903Y-100800500D01*
X150068097Y-100800500D01*
X150068102Y-100800500D01*
X150156564Y-100789877D01*
X150297342Y-100734361D01*
X150417922Y-100642922D01*
X150501196Y-100533108D01*
X150557388Y-100491586D01*
X150627110Y-100487034D01*
X150688224Y-100520899D01*
X150698804Y-100533109D01*
X150782077Y-100642922D01*
X150902656Y-100734360D01*
X150902657Y-100734360D01*
X150902658Y-100734361D01*
X151043436Y-100789877D01*
X151131898Y-100800500D01*
X151131903Y-100800500D01*
X151743097Y-100800500D01*
X151743102Y-100800500D01*
X151831564Y-100789877D01*
X151972342Y-100734361D01*
X152092922Y-100642922D01*
X152184361Y-100522342D01*
X152234646Y-100394826D01*
X152277551Y-100339685D01*
X152343459Y-100316492D01*
X152411443Y-100332612D01*
X152459920Y-100382929D01*
X152465348Y-100394814D01*
X152484695Y-100443874D01*
X152515639Y-100522343D01*
X152607077Y-100642922D01*
X152727656Y-100734360D01*
X152727657Y-100734360D01*
X152727658Y-100734361D01*
X152868436Y-100789877D01*
X152956898Y-100800500D01*
X152956903Y-100800500D01*
X153568097Y-100800500D01*
X153568102Y-100800500D01*
X153656564Y-100789877D01*
X153797342Y-100734361D01*
X153917922Y-100642922D01*
X154009361Y-100522342D01*
X154064877Y-100381564D01*
X154075500Y-100293102D01*
X154075500Y-99710821D01*
X154095185Y-99643782D01*
X154111819Y-99623140D01*
X154773140Y-98961819D01*
X154834463Y-98928334D01*
X154860821Y-98925500D01*
X157144572Y-98925500D01*
X157211611Y-98945185D01*
X157255572Y-98994228D01*
X157270997Y-99025206D01*
X157271002Y-99025214D01*
X157310605Y-99077656D01*
X157392514Y-99186121D01*
X157541525Y-99321962D01*
X157712959Y-99428110D01*
X157712962Y-99428111D01*
X157846436Y-99479819D01*
X157901838Y-99522392D01*
X157925429Y-99588158D01*
X157909718Y-99656239D01*
X157859694Y-99705018D01*
X157833737Y-99715221D01*
X157757972Y-99735522D01*
X157757965Y-99735525D01*
X157553787Y-99830735D01*
X157483502Y-99879948D01*
X157483501Y-99879949D01*
X158050177Y-100446624D01*
X157997358Y-100460778D01*
X157877643Y-100529896D01*
X157779896Y-100627643D01*
X157710778Y-100747358D01*
X157696625Y-100800177D01*
X157129949Y-100233501D01*
X157129948Y-100233502D01*
X157080735Y-100303787D01*
X156985525Y-100507965D01*
X156985521Y-100507974D01*
X156927218Y-100725568D01*
X156927216Y-100725578D01*
X156907582Y-100949999D01*
X156907582Y-100950000D01*
X156927216Y-101174421D01*
X156927218Y-101174431D01*
X156985521Y-101392025D01*
X156985525Y-101392034D01*
X157080732Y-101596207D01*
X157080733Y-101596209D01*
X157129949Y-101666497D01*
X157696624Y-101099822D01*
X157710778Y-101152642D01*
X157779896Y-101272357D01*
X157877643Y-101370104D01*
X157997358Y-101439222D01*
X158050177Y-101453375D01*
X157483501Y-102020049D01*
X157553791Y-102069267D01*
X157757965Y-102164474D01*
X157757974Y-102164478D01*
X157975568Y-102222781D01*
X157975578Y-102222783D01*
X158199999Y-102242418D01*
X158200001Y-102242418D01*
X158424421Y-102222783D01*
X158424431Y-102222781D01*
X158642025Y-102164478D01*
X158642034Y-102164474D01*
X158846208Y-102069267D01*
X158846212Y-102069265D01*
X158916497Y-102020050D01*
X158349822Y-101453375D01*
X158402642Y-101439222D01*
X158522357Y-101370104D01*
X158620104Y-101272357D01*
X158689222Y-101152642D01*
X158703375Y-101099822D01*
X159270050Y-101666497D01*
X159319265Y-101596212D01*
X159319267Y-101596208D01*
X159414474Y-101392034D01*
X159414478Y-101392025D01*
X159472781Y-101174431D01*
X159472783Y-101174421D01*
X159492418Y-100950000D01*
X159492418Y-100949999D01*
X159472783Y-100725578D01*
X159472781Y-100725568D01*
X159414478Y-100507974D01*
X159414474Y-100507965D01*
X159319267Y-100303791D01*
X159270049Y-100233501D01*
X158703374Y-100800176D01*
X158689222Y-100747358D01*
X158620104Y-100627643D01*
X158522357Y-100529896D01*
X158402642Y-100460778D01*
X158349822Y-100446624D01*
X158916497Y-99879949D01*
X158916497Y-99879948D01*
X158846209Y-99830733D01*
X158846207Y-99830732D01*
X158642034Y-99735525D01*
X158642028Y-99735522D01*
X158566262Y-99715221D01*
X158506602Y-99678856D01*
X158476073Y-99616009D01*
X158484368Y-99546633D01*
X158528853Y-99492755D01*
X158553559Y-99479820D01*
X158687041Y-99428110D01*
X158858475Y-99321962D01*
X159007486Y-99186121D01*
X159128999Y-99025212D01*
X159218876Y-98844715D01*
X159274056Y-98650776D01*
X159292661Y-98450000D01*
X159274056Y-98249224D01*
X159218876Y-98055285D01*
X159128999Y-97874788D01*
X159007486Y-97713879D01*
X158858475Y-97578038D01*
X158793190Y-97537615D01*
X158687042Y-97471890D01*
X158687040Y-97471889D01*
X158549561Y-97418630D01*
X158499021Y-97399051D01*
X158300818Y-97362000D01*
X158099182Y-97362000D01*
X157900979Y-97399051D01*
X157900976Y-97399051D01*
X157900976Y-97399052D01*
X157712959Y-97471889D01*
X157712957Y-97471890D01*
X157541523Y-97578039D01*
X157392515Y-97713877D01*
X157271002Y-97874785D01*
X157270997Y-97874793D01*
X157255572Y-97905772D01*
X157208068Y-97957009D01*
X157144572Y-97974500D01*
X154675101Y-97974500D01*
X154549899Y-97974500D01*
X154469275Y-97996103D01*
X154428963Y-98006905D01*
X154320537Y-98069504D01*
X154320534Y-98069506D01*
X153626859Y-98763181D01*
X153565536Y-98796666D01*
X153539178Y-98799500D01*
X152956898Y-98799500D01*
X152917853Y-98804188D01*
X152868438Y-98810122D01*
X152727656Y-98865639D01*
X152607077Y-98957077D01*
X152515639Y-99077656D01*
X152485665Y-99153663D01*
X152465353Y-99205171D01*
X152422449Y-99260314D01*
X152356541Y-99283507D01*
X152288556Y-99267386D01*
X152240080Y-99217070D01*
X152234648Y-99205178D01*
X152184361Y-99077658D01*
X152184360Y-99077657D01*
X152184360Y-99077656D01*
X152092922Y-98957077D01*
X151972343Y-98865639D01*
X151876192Y-98827722D01*
X151831564Y-98810123D01*
X151831563Y-98810122D01*
X151831561Y-98810122D01*
X151785926Y-98804642D01*
X151743102Y-98799500D01*
X151131898Y-98799500D01*
X151092853Y-98804188D01*
X151043438Y-98810122D01*
X150902656Y-98865639D01*
X150782079Y-98957076D01*
X150698804Y-99066891D01*
X150642611Y-99108414D01*
X150572890Y-99112965D01*
X150511776Y-99079100D01*
X150501196Y-99066891D01*
X150469585Y-99025206D01*
X150417922Y-98957078D01*
X150417920Y-98957077D01*
X150417920Y-98957076D01*
X150297341Y-98865638D01*
X150221980Y-98835919D01*
X150166837Y-98793013D01*
X150147696Y-98752658D01*
X150142835Y-98734517D01*
X150135707Y-98707913D01*
X150082980Y-98616587D01*
X150008413Y-98542020D01*
X149833259Y-98366866D01*
X149799774Y-98305543D01*
X149797844Y-98264242D01*
X149805645Y-98200000D01*
X149785140Y-98031128D01*
X149724818Y-97872070D01*
X149723946Y-97870807D01*
X149690476Y-97822318D01*
X149628183Y-97732071D01*
X149500852Y-97619266D01*
X149500849Y-97619263D01*
X149350226Y-97540210D01*
X149185056Y-97499500D01*
X149014944Y-97499500D01*
X148849773Y-97540210D01*
X148699150Y-97619263D01*
X148571816Y-97732072D01*
X148475182Y-97872068D01*
X148414860Y-98031125D01*
X148414859Y-98031130D01*
X148394355Y-98200000D01*
X148414859Y-98368869D01*
X148414860Y-98368874D01*
X148475182Y-98527931D01*
X148565141Y-98658257D01*
X148587024Y-98724611D01*
X148569559Y-98792263D01*
X148518291Y-98839733D01*
X148449498Y-98851950D01*
X148417601Y-98844052D01*
X148396977Y-98835919D01*
X148331564Y-98810123D01*
X148331563Y-98810122D01*
X148331561Y-98810122D01*
X148285926Y-98804642D01*
X148243102Y-98799500D01*
X147631898Y-98799500D01*
X147592853Y-98804188D01*
X147543438Y-98810122D01*
X147402656Y-98865639D01*
X147282077Y-98957077D01*
X147190639Y-99077656D01*
X147135122Y-99218438D01*
X147131793Y-99246164D01*
X147124500Y-99306898D01*
X147124500Y-99306903D01*
X147124500Y-99838429D01*
X147104815Y-99905468D01*
X147052011Y-99951223D01*
X146982853Y-99961167D01*
X146919297Y-99932142D01*
X146898450Y-99908870D01*
X146878487Y-99879949D01*
X146828183Y-99807071D01*
X146726870Y-99717316D01*
X146700849Y-99694263D01*
X146550226Y-99615210D01*
X146385056Y-99574500D01*
X146214944Y-99574500D01*
X146049773Y-99615210D01*
X145899150Y-99694263D01*
X145771816Y-99807072D01*
X145675182Y-99947068D01*
X145614860Y-100106125D01*
X145614859Y-100106130D01*
X145594355Y-100275000D01*
X145614859Y-100443869D01*
X145614860Y-100443874D01*
X145663478Y-100572070D01*
X145675182Y-100602930D01*
X145745678Y-100705061D01*
X145767561Y-100771414D01*
X145750096Y-100839066D01*
X145698828Y-100886536D01*
X145643628Y-100899500D01*
X145514944Y-100899500D01*
X145349773Y-100940210D01*
X145199150Y-101019263D01*
X145071816Y-101132072D01*
X144975182Y-101272068D01*
X144914860Y-101431125D01*
X144914859Y-101431130D01*
X144894355Y-101600000D01*
X141689147Y-101600000D01*
X141569595Y-101537254D01*
X141519382Y-101488669D01*
X141503408Y-101420650D01*
X141504126Y-101412507D01*
X141505645Y-101400000D01*
X141486354Y-101241127D01*
X141497814Y-101172205D01*
X141544718Y-101120419D01*
X141612174Y-101102212D01*
X141667076Y-101116386D01*
X141696961Y-101132071D01*
X141749775Y-101159790D01*
X141914944Y-101200500D01*
X142085056Y-101200500D01*
X142250225Y-101159790D01*
X142359930Y-101102212D01*
X142400849Y-101080736D01*
X142400850Y-101080734D01*
X142400852Y-101080734D01*
X142528183Y-100967929D01*
X142624818Y-100827930D01*
X142685140Y-100668872D01*
X142705645Y-100500000D01*
X142685140Y-100331128D01*
X142680641Y-100319266D01*
X142624817Y-100172068D01*
X142587749Y-100118367D01*
X142528183Y-100032071D01*
X142400852Y-99919266D01*
X142400849Y-99919263D01*
X142250226Y-99840210D01*
X142085056Y-99799500D01*
X142052610Y-99799500D01*
X141985571Y-99779815D01*
X141964929Y-99763181D01*
X140936265Y-98734517D01*
X140936263Y-98734515D01*
X140839237Y-98678497D01*
X140731018Y-98649500D01*
X130422135Y-98649500D01*
X130310098Y-98649500D01*
X130201879Y-98678497D01*
X130201876Y-98678498D01*
X130104856Y-98734513D01*
X130104850Y-98734517D01*
X129626689Y-99212679D01*
X129565366Y-99246164D01*
X129539008Y-99248998D01*
X129439944Y-99248998D01*
X129274773Y-99289708D01*
X129124150Y-99368761D01*
X128996816Y-99481570D01*
X128900182Y-99621566D01*
X128839860Y-99780623D01*
X128839859Y-99780628D01*
X128819355Y-99949498D01*
X113025500Y-99949498D01*
X113025500Y-97299996D01*
X124669909Y-97299996D01*
X124669909Y-97300003D01*
X124688212Y-97462455D01*
X124742210Y-97616774D01*
X124814657Y-97732072D01*
X124829192Y-97755204D01*
X124944796Y-97870808D01*
X125083225Y-97957789D01*
X125237539Y-98011786D01*
X125237542Y-98011786D01*
X125237544Y-98011787D01*
X125399996Y-98030091D01*
X125400000Y-98030091D01*
X125400004Y-98030091D01*
X125562455Y-98011787D01*
X125562456Y-98011786D01*
X125562461Y-98011786D01*
X125716775Y-97957789D01*
X125855204Y-97870808D01*
X125970808Y-97755204D01*
X126057789Y-97616775D01*
X126111786Y-97462461D01*
X126111787Y-97462455D01*
X126130091Y-97300003D01*
X126130091Y-97299996D01*
X126111787Y-97137544D01*
X126111786Y-97137542D01*
X126111786Y-97137539D01*
X126057789Y-96983225D01*
X125970808Y-96844796D01*
X125855204Y-96729192D01*
X125716774Y-96642210D01*
X125562455Y-96588212D01*
X125400004Y-96569909D01*
X125399996Y-96569909D01*
X125237544Y-96588212D01*
X125083225Y-96642210D01*
X124944795Y-96729192D01*
X124829192Y-96844795D01*
X124742210Y-96983225D01*
X124688212Y-97137544D01*
X124669909Y-97299996D01*
X113025500Y-97299996D01*
X113025500Y-94100000D01*
X122794355Y-94100000D01*
X122814859Y-94268869D01*
X122814860Y-94268874D01*
X122875182Y-94427931D01*
X122922513Y-94496501D01*
X122971817Y-94567929D01*
X123077505Y-94661560D01*
X123099150Y-94680736D01*
X123249773Y-94759789D01*
X123249775Y-94759790D01*
X123414944Y-94800500D01*
X123585056Y-94800500D01*
X123750225Y-94759790D01*
X123829692Y-94718081D01*
X123900849Y-94680736D01*
X123900850Y-94680734D01*
X123900852Y-94680734D01*
X124028183Y-94567929D01*
X124028185Y-94567925D01*
X124028767Y-94567270D01*
X124029312Y-94566927D01*
X124033797Y-94562955D01*
X124034457Y-94563700D01*
X124087958Y-94530145D01*
X124121580Y-94525500D01*
X148356016Y-94525500D01*
X148356018Y-94525500D01*
X148464237Y-94496503D01*
X148561263Y-94440485D01*
X152064928Y-90936818D01*
X152126251Y-90903334D01*
X152152609Y-90900500D01*
X152285056Y-90900500D01*
X152450225Y-90859790D01*
X152529692Y-90818081D01*
X152600849Y-90780736D01*
X152600850Y-90780734D01*
X152600852Y-90780734D01*
X152728183Y-90667929D01*
X152824818Y-90527930D01*
X152885140Y-90368872D01*
X152905645Y-90200000D01*
X152885140Y-90031128D01*
X152824818Y-89872070D01*
X152728183Y-89732071D01*
X152600852Y-89619266D01*
X152600849Y-89619263D01*
X152450226Y-89540210D01*
X152285056Y-89499500D01*
X152114944Y-89499500D01*
X151949773Y-89540210D01*
X151799150Y-89619263D01*
X151671816Y-89732072D01*
X151575182Y-89872068D01*
X151514860Y-90031125D01*
X151514859Y-90031130D01*
X151494355Y-90200000D01*
X151494355Y-90200003D01*
X151498326Y-90232715D01*
X151486864Y-90301638D01*
X151462911Y-90335339D01*
X148160071Y-93638181D01*
X148098748Y-93671666D01*
X148072390Y-93674500D01*
X124121580Y-93674500D01*
X124054541Y-93654815D01*
X124033799Y-93637042D01*
X124033797Y-93637045D01*
X124033627Y-93636894D01*
X124028767Y-93632730D01*
X124028185Y-93632073D01*
X123900849Y-93519263D01*
X123750226Y-93440210D01*
X123585056Y-93399500D01*
X123414944Y-93399500D01*
X123249773Y-93440210D01*
X123099150Y-93519263D01*
X122971816Y-93632072D01*
X122875182Y-93772068D01*
X122814860Y-93931125D01*
X122814859Y-93931130D01*
X122794355Y-94100000D01*
X113025500Y-94100000D01*
X113025500Y-92400000D01*
X122094355Y-92400000D01*
X122114859Y-92568869D01*
X122114860Y-92568874D01*
X122175182Y-92727931D01*
X122237475Y-92818177D01*
X122271817Y-92867929D01*
X122377505Y-92961560D01*
X122399150Y-92980736D01*
X122549773Y-93059789D01*
X122549775Y-93059790D01*
X122714944Y-93100500D01*
X122885056Y-93100500D01*
X123050225Y-93059790D01*
X123129692Y-93018081D01*
X123200849Y-92980736D01*
X123200850Y-92980734D01*
X123200852Y-92980734D01*
X123328183Y-92867929D01*
X123424818Y-92727930D01*
X123485140Y-92568872D01*
X123505645Y-92400000D01*
X123501672Y-92367285D01*
X123513131Y-92298365D01*
X123537084Y-92264662D01*
X129439929Y-86361819D01*
X129501252Y-86328334D01*
X129527610Y-86325500D01*
X138878420Y-86325500D01*
X138945459Y-86345185D01*
X138966200Y-86362957D01*
X138966203Y-86362955D01*
X138966372Y-86363105D01*
X138971233Y-86367270D01*
X138971814Y-86367926D01*
X138971816Y-86367928D01*
X138971817Y-86367929D01*
X139008013Y-86399996D01*
X139099150Y-86480736D01*
X139249773Y-86559789D01*
X139249775Y-86559790D01*
X139414944Y-86600500D01*
X139585056Y-86600500D01*
X139750225Y-86559790D01*
X139829692Y-86518081D01*
X139900849Y-86480736D01*
X139900850Y-86480734D01*
X139900852Y-86480734D01*
X140028183Y-86367929D01*
X140124818Y-86227930D01*
X140185140Y-86068872D01*
X140205645Y-85900000D01*
X140185140Y-85731128D01*
X140124818Y-85572070D01*
X140116153Y-85559517D01*
X140077485Y-85503497D01*
X140028183Y-85432071D01*
X139900852Y-85319266D01*
X139900849Y-85319263D01*
X139750226Y-85240210D01*
X139585056Y-85199500D01*
X139414944Y-85199500D01*
X139249773Y-85240210D01*
X139099150Y-85319263D01*
X138971814Y-85432073D01*
X138971233Y-85432730D01*
X138970687Y-85433072D01*
X138966203Y-85437045D01*
X138965542Y-85436299D01*
X138912042Y-85469855D01*
X138878420Y-85474500D01*
X129356018Y-85474500D01*
X129243981Y-85474500D01*
X129135763Y-85503497D01*
X129135761Y-85503498D01*
X129135760Y-85503498D01*
X129038740Y-85559513D01*
X129038734Y-85559517D01*
X122935070Y-91663181D01*
X122873747Y-91696666D01*
X122847389Y-91699500D01*
X122714944Y-91699500D01*
X122549773Y-91740210D01*
X122399150Y-91819263D01*
X122271816Y-91932072D01*
X122175182Y-92072068D01*
X122114860Y-92231125D01*
X122114859Y-92231130D01*
X122094355Y-92400000D01*
X113025500Y-92400000D01*
X113025500Y-86399996D01*
X122469909Y-86399996D01*
X122469909Y-86400003D01*
X122488212Y-86562455D01*
X122542210Y-86716774D01*
X122542211Y-86716775D01*
X122629192Y-86855204D01*
X122744796Y-86970808D01*
X122883225Y-87057789D01*
X123037539Y-87111786D01*
X123037542Y-87111786D01*
X123037544Y-87111787D01*
X123199996Y-87130091D01*
X123200000Y-87130091D01*
X123200004Y-87130091D01*
X123362455Y-87111787D01*
X123362456Y-87111786D01*
X123362461Y-87111786D01*
X123516775Y-87057789D01*
X123655204Y-86970808D01*
X123770808Y-86855204D01*
X123857789Y-86716775D01*
X123911786Y-86562461D01*
X123920995Y-86480734D01*
X123930091Y-86400002D01*
X123930091Y-86393730D01*
X123949776Y-86326691D01*
X123966413Y-86306046D01*
X123980494Y-86291965D01*
X124001652Y-86270807D01*
X124060641Y-86211817D01*
X124121962Y-86178334D01*
X124148321Y-86175500D01*
X126898126Y-86175500D01*
X126965165Y-86195185D01*
X126985807Y-86211819D01*
X127044796Y-86270808D01*
X127183225Y-86357789D01*
X127337539Y-86411786D01*
X127337542Y-86411786D01*
X127337544Y-86411787D01*
X127499996Y-86430091D01*
X127500000Y-86430091D01*
X127500004Y-86430091D01*
X127662455Y-86411787D01*
X127662456Y-86411786D01*
X127662461Y-86411786D01*
X127816775Y-86357789D01*
X127955204Y-86270808D01*
X128070808Y-86155204D01*
X128157789Y-86016775D01*
X128211786Y-85862461D01*
X128225335Y-85742210D01*
X128230091Y-85700003D01*
X128230091Y-85699996D01*
X128211787Y-85537544D01*
X128211786Y-85537542D01*
X128211786Y-85537539D01*
X128157789Y-85383225D01*
X128070808Y-85244796D01*
X127955204Y-85129192D01*
X127816774Y-85042210D01*
X127662455Y-84988212D01*
X127500004Y-84969909D01*
X127499996Y-84969909D01*
X127337544Y-84988212D01*
X127183225Y-85042210D01*
X127044795Y-85129192D01*
X126985807Y-85188181D01*
X126924484Y-85221666D01*
X126898126Y-85224500D01*
X123962601Y-85224500D01*
X123837399Y-85224500D01*
X123778770Y-85240210D01*
X123716463Y-85256905D01*
X123608037Y-85319504D01*
X123608034Y-85319506D01*
X123293951Y-85633590D01*
X123232628Y-85667075D01*
X123206270Y-85669909D01*
X123199996Y-85669909D01*
X123037544Y-85688212D01*
X122883225Y-85742210D01*
X122744795Y-85829192D01*
X122629192Y-85944795D01*
X122542210Y-86083225D01*
X122488212Y-86237544D01*
X122469909Y-86399996D01*
X113025500Y-86399996D01*
X113025500Y-75500000D01*
X121994355Y-75500000D01*
X122014859Y-75668869D01*
X122014860Y-75668874D01*
X122075182Y-75827931D01*
X122122513Y-75896501D01*
X122171817Y-75967929D01*
X122277505Y-76061560D01*
X122299150Y-76080736D01*
X122449773Y-76159789D01*
X122449775Y-76159790D01*
X122614944Y-76200500D01*
X122785056Y-76200500D01*
X122950225Y-76159790D01*
X123029692Y-76118081D01*
X123100849Y-76080736D01*
X123100850Y-76080734D01*
X123100852Y-76080734D01*
X123228183Y-75967929D01*
X123228185Y-75967925D01*
X123228767Y-75967270D01*
X123229312Y-75966927D01*
X123233797Y-75962955D01*
X123234457Y-75963700D01*
X123287958Y-75930145D01*
X123321580Y-75925500D01*
X145656016Y-75925500D01*
X145656018Y-75925500D01*
X145764237Y-75896503D01*
X145861263Y-75840485D01*
X151364928Y-70336818D01*
X151426251Y-70303334D01*
X151452609Y-70300500D01*
X151585056Y-70300500D01*
X151750225Y-70259790D01*
X151829692Y-70218081D01*
X151900849Y-70180736D01*
X151900850Y-70180734D01*
X151900852Y-70180734D01*
X152028183Y-70067929D01*
X152124818Y-69927930D01*
X152185140Y-69768872D01*
X152205645Y-69600000D01*
X152185140Y-69431128D01*
X152124818Y-69272070D01*
X152028183Y-69132071D01*
X151900852Y-69019266D01*
X151900849Y-69019263D01*
X151750226Y-68940210D01*
X151585056Y-68899500D01*
X151414944Y-68899500D01*
X151249773Y-68940210D01*
X151099150Y-69019263D01*
X150971816Y-69132072D01*
X150875182Y-69272068D01*
X150814860Y-69431125D01*
X150814859Y-69431130D01*
X150794355Y-69600000D01*
X150794355Y-69600003D01*
X150798326Y-69632715D01*
X150786864Y-69701638D01*
X150762911Y-69735339D01*
X145460071Y-75038181D01*
X145398748Y-75071666D01*
X145372390Y-75074500D01*
X123321580Y-75074500D01*
X123254541Y-75054815D01*
X123233799Y-75037042D01*
X123233797Y-75037045D01*
X123233627Y-75036894D01*
X123228767Y-75032730D01*
X123228185Y-75032073D01*
X123100849Y-74919263D01*
X122950226Y-74840210D01*
X122785056Y-74799500D01*
X122614944Y-74799500D01*
X122449773Y-74840210D01*
X122299150Y-74919263D01*
X122171816Y-75032072D01*
X122075182Y-75172068D01*
X122014860Y-75331125D01*
X122014859Y-75331130D01*
X121994355Y-75500000D01*
X113025500Y-75500000D01*
X113025500Y-71400000D01*
X121694355Y-71400000D01*
X121714859Y-71568869D01*
X121714860Y-71568874D01*
X121775182Y-71727931D01*
X121837475Y-71818177D01*
X121871817Y-71867929D01*
X121977505Y-71961560D01*
X121999150Y-71980736D01*
X122149773Y-72059789D01*
X122149775Y-72059790D01*
X122314944Y-72100500D01*
X122485056Y-72100500D01*
X122650225Y-72059790D01*
X122729692Y-72018081D01*
X122800849Y-71980736D01*
X122800850Y-71980734D01*
X122800852Y-71980734D01*
X122928183Y-71867929D01*
X123024818Y-71727930D01*
X123085140Y-71568872D01*
X123105645Y-71400000D01*
X123101672Y-71367285D01*
X123113131Y-71298365D01*
X123137084Y-71264662D01*
X123839929Y-70561819D01*
X123901252Y-70528334D01*
X123927610Y-70525500D01*
X137678420Y-70525500D01*
X137745459Y-70545185D01*
X137766200Y-70562957D01*
X137766203Y-70562955D01*
X137766372Y-70563105D01*
X137771233Y-70567270D01*
X137771814Y-70567926D01*
X137899150Y-70680736D01*
X138049773Y-70759789D01*
X138049775Y-70759790D01*
X138214944Y-70800500D01*
X138385056Y-70800500D01*
X138550225Y-70759790D01*
X138665097Y-70699500D01*
X138700849Y-70680736D01*
X138700850Y-70680734D01*
X138700852Y-70680734D01*
X138828183Y-70567929D01*
X138924818Y-70427930D01*
X138985140Y-70268872D01*
X139005645Y-70100000D01*
X138985140Y-69931128D01*
X138924818Y-69772070D01*
X138922608Y-69768869D01*
X138869996Y-69692647D01*
X138828183Y-69632071D01*
X138700852Y-69519266D01*
X138700849Y-69519263D01*
X138550226Y-69440210D01*
X138385056Y-69399500D01*
X138214944Y-69399500D01*
X138049773Y-69440210D01*
X137899150Y-69519263D01*
X137771814Y-69632073D01*
X137771233Y-69632730D01*
X137770687Y-69633072D01*
X137766203Y-69637045D01*
X137765542Y-69636299D01*
X137712042Y-69669855D01*
X137678420Y-69674500D01*
X123643982Y-69674500D01*
X123535763Y-69703497D01*
X123535760Y-69703498D01*
X123438740Y-69759513D01*
X123438734Y-69759517D01*
X122535070Y-70663181D01*
X122473747Y-70696666D01*
X122447389Y-70699500D01*
X122314944Y-70699500D01*
X122149773Y-70740210D01*
X121999150Y-70819263D01*
X121871816Y-70932072D01*
X121775182Y-71072068D01*
X121714860Y-71231125D01*
X121714859Y-71231130D01*
X121694355Y-71400000D01*
X113025500Y-71400000D01*
X113025500Y-66999996D01*
X120969909Y-66999996D01*
X120969909Y-67000003D01*
X120988212Y-67162455D01*
X121042210Y-67316774D01*
X121074352Y-67367927D01*
X121129192Y-67455204D01*
X121244796Y-67570808D01*
X121383225Y-67657789D01*
X121537539Y-67711786D01*
X121537542Y-67711786D01*
X121537544Y-67711787D01*
X121699996Y-67730091D01*
X121700000Y-67730091D01*
X121700004Y-67730091D01*
X121862457Y-67711787D01*
X121862459Y-67711786D01*
X121862461Y-67711786D01*
X121946272Y-67682458D01*
X121987227Y-67675500D01*
X126898126Y-67675500D01*
X126965165Y-67695185D01*
X126985807Y-67711819D01*
X127044796Y-67770808D01*
X127183225Y-67857789D01*
X127337539Y-67911786D01*
X127337542Y-67911786D01*
X127337544Y-67911787D01*
X127499996Y-67930091D01*
X127500000Y-67930091D01*
X127500004Y-67930091D01*
X127662455Y-67911787D01*
X127662456Y-67911786D01*
X127662461Y-67911786D01*
X127816775Y-67857789D01*
X127955204Y-67770808D01*
X128070808Y-67655204D01*
X128157789Y-67516775D01*
X128211786Y-67362461D01*
X128230091Y-67200000D01*
X146794355Y-67200000D01*
X146814859Y-67368869D01*
X146814860Y-67368874D01*
X146875182Y-67527931D01*
X146922513Y-67596501D01*
X146971817Y-67667929D01*
X147021322Y-67711786D01*
X147099150Y-67780736D01*
X147245962Y-67857789D01*
X147249775Y-67859790D01*
X147414944Y-67900500D01*
X147585056Y-67900500D01*
X147750225Y-67859790D01*
X147829692Y-67818081D01*
X147900849Y-67780736D01*
X147900850Y-67780734D01*
X147900852Y-67780734D01*
X148028183Y-67667929D01*
X148028185Y-67667925D01*
X148028767Y-67667270D01*
X148029312Y-67666927D01*
X148033797Y-67662955D01*
X148034457Y-67663700D01*
X148087958Y-67630145D01*
X148121580Y-67625500D01*
X151656016Y-67625500D01*
X151656018Y-67625500D01*
X151764237Y-67596503D01*
X151861263Y-67540485D01*
X151922156Y-67479591D01*
X151983478Y-67446107D01*
X152053170Y-67451091D01*
X152092066Y-67474460D01*
X152099145Y-67480732D01*
X152099154Y-67480738D01*
X152249773Y-67559789D01*
X152249775Y-67559790D01*
X152414944Y-67600500D01*
X152585056Y-67600500D01*
X152750225Y-67559790D01*
X152832184Y-67516774D01*
X152900849Y-67480736D01*
X152900850Y-67480734D01*
X152900852Y-67480734D01*
X153028183Y-67367929D01*
X153124818Y-67227930D01*
X153185140Y-67068872D01*
X153205645Y-66900000D01*
X153185140Y-66731128D01*
X153124818Y-66572070D01*
X153116153Y-66559517D01*
X153066936Y-66488214D01*
X153028183Y-66432071D01*
X152900852Y-66319266D01*
X152900849Y-66319263D01*
X152750226Y-66240210D01*
X152585056Y-66199500D01*
X152414944Y-66199500D01*
X152249773Y-66240210D01*
X152099150Y-66319263D01*
X151971814Y-66432073D01*
X151971233Y-66432730D01*
X151970687Y-66433072D01*
X151966203Y-66437045D01*
X151965542Y-66436299D01*
X151912042Y-66469855D01*
X151878420Y-66474500D01*
X151843982Y-66474500D01*
X151735763Y-66503497D01*
X151735760Y-66503498D01*
X151638740Y-66559513D01*
X151638734Y-66559517D01*
X151460071Y-66738181D01*
X151398748Y-66771666D01*
X151372390Y-66774500D01*
X148121580Y-66774500D01*
X148054541Y-66754815D01*
X148033799Y-66737042D01*
X148033797Y-66737045D01*
X148033627Y-66736894D01*
X148028767Y-66732730D01*
X148028185Y-66732073D01*
X148027118Y-66731128D01*
X147954138Y-66666473D01*
X147900849Y-66619263D01*
X147750226Y-66540210D01*
X147585056Y-66499500D01*
X147414944Y-66499500D01*
X147249773Y-66540210D01*
X147099150Y-66619263D01*
X147002583Y-66704815D01*
X146972882Y-66731128D01*
X146971816Y-66732072D01*
X146875182Y-66872068D01*
X146814860Y-67031125D01*
X146814859Y-67031130D01*
X146794355Y-67200000D01*
X128230091Y-67200000D01*
X128225861Y-67162461D01*
X128211787Y-67037544D01*
X128211786Y-67037542D01*
X128211786Y-67037539D01*
X128157789Y-66883225D01*
X128070808Y-66744796D01*
X127955204Y-66629192D01*
X127939402Y-66619263D01*
X127816774Y-66542210D01*
X127662455Y-66488212D01*
X127500004Y-66469909D01*
X127499996Y-66469909D01*
X127337544Y-66488212D01*
X127183225Y-66542210D01*
X127044795Y-66629192D01*
X126985807Y-66688181D01*
X126924484Y-66721666D01*
X126898126Y-66724500D01*
X122452257Y-66724500D01*
X122385218Y-66704815D01*
X122347264Y-66666473D01*
X122270809Y-66544797D01*
X122155204Y-66429192D01*
X122016774Y-66342210D01*
X121862455Y-66288212D01*
X121700004Y-66269909D01*
X121699996Y-66269909D01*
X121537544Y-66288212D01*
X121383225Y-66342210D01*
X121244795Y-66429192D01*
X121129192Y-66544795D01*
X121042210Y-66683225D01*
X120988212Y-66837544D01*
X120969909Y-66999996D01*
X113025500Y-66999996D01*
X113025500Y-57800000D01*
X121894355Y-57800000D01*
X121914859Y-57968869D01*
X121914860Y-57968874D01*
X121975182Y-58127931D01*
X122022513Y-58196501D01*
X122071817Y-58267929D01*
X122177505Y-58361560D01*
X122199150Y-58380736D01*
X122349773Y-58459789D01*
X122349775Y-58459790D01*
X122514944Y-58500500D01*
X122685056Y-58500500D01*
X122850225Y-58459790D01*
X122929692Y-58418081D01*
X123000849Y-58380736D01*
X123000850Y-58380734D01*
X123000852Y-58380734D01*
X123128183Y-58267929D01*
X123128185Y-58267925D01*
X123128767Y-58267270D01*
X123129312Y-58266927D01*
X123133797Y-58262955D01*
X123134457Y-58263700D01*
X123187958Y-58230145D01*
X123221580Y-58225500D01*
X143856016Y-58225500D01*
X143856018Y-58225500D01*
X143964237Y-58196503D01*
X144061263Y-58140485D01*
X148740484Y-53461264D01*
X148740485Y-53461263D01*
X148869134Y-53332613D01*
X148930452Y-53299131D01*
X149000144Y-53304115D01*
X149039038Y-53327481D01*
X149099150Y-53380736D01*
X149249773Y-53459789D01*
X149249775Y-53459790D01*
X149414944Y-53500500D01*
X149585056Y-53500500D01*
X149750225Y-53459790D01*
X149829692Y-53418081D01*
X149900849Y-53380736D01*
X149900850Y-53380734D01*
X149900852Y-53380734D01*
X150028183Y-53267929D01*
X150124818Y-53127930D01*
X150185140Y-52968872D01*
X150205645Y-52800000D01*
X150185140Y-52631128D01*
X150124818Y-52472070D01*
X150116153Y-52459517D01*
X150077485Y-52403497D01*
X150028183Y-52332071D01*
X149900852Y-52219266D01*
X149900849Y-52219263D01*
X149750226Y-52140210D01*
X149585056Y-52099500D01*
X149414944Y-52099500D01*
X149249773Y-52140210D01*
X149099150Y-52219263D01*
X148971814Y-52332073D01*
X148971233Y-52332730D01*
X148970687Y-52333072D01*
X148966203Y-52337045D01*
X148965542Y-52336299D01*
X148912042Y-52369855D01*
X148878420Y-52374500D01*
X148856018Y-52374500D01*
X148743981Y-52374500D01*
X148635763Y-52403497D01*
X148635761Y-52403498D01*
X148635760Y-52403498D01*
X148538740Y-52459513D01*
X148538734Y-52459517D01*
X143660071Y-57338181D01*
X143598748Y-57371666D01*
X143572390Y-57374500D01*
X123221580Y-57374500D01*
X123154541Y-57354815D01*
X123133799Y-57337042D01*
X123133797Y-57337045D01*
X123133627Y-57336894D01*
X123128767Y-57332730D01*
X123128185Y-57332073D01*
X123000849Y-57219263D01*
X122850226Y-57140210D01*
X122685056Y-57099500D01*
X122514944Y-57099500D01*
X122349773Y-57140210D01*
X122199150Y-57219263D01*
X122071816Y-57332072D01*
X121975182Y-57472068D01*
X121914860Y-57631125D01*
X121914859Y-57631130D01*
X121894355Y-57800000D01*
X113025500Y-57800000D01*
X113025500Y-55200000D01*
X122294355Y-55200000D01*
X122314859Y-55368869D01*
X122314860Y-55368874D01*
X122375182Y-55527931D01*
X122437475Y-55618177D01*
X122471817Y-55667929D01*
X122577505Y-55761560D01*
X122599150Y-55780736D01*
X122749773Y-55859789D01*
X122749775Y-55859790D01*
X122914944Y-55900500D01*
X123085056Y-55900500D01*
X123250225Y-55859790D01*
X123329692Y-55818081D01*
X123400849Y-55780736D01*
X123400850Y-55780734D01*
X123400852Y-55780734D01*
X123528183Y-55667929D01*
X123624818Y-55527930D01*
X123685140Y-55368872D01*
X123705645Y-55200000D01*
X123685140Y-55031128D01*
X123624818Y-54872070D01*
X123528183Y-54732071D01*
X123400852Y-54619266D01*
X123400849Y-54619263D01*
X123250226Y-54540210D01*
X123085056Y-54499500D01*
X122914944Y-54499500D01*
X122749773Y-54540210D01*
X122599150Y-54619263D01*
X122471816Y-54732072D01*
X122375182Y-54872068D01*
X122314860Y-55031125D01*
X122314859Y-55031130D01*
X122294355Y-55200000D01*
X113025500Y-55200000D01*
X113025500Y-48304066D01*
X113025765Y-48295956D01*
X113034201Y-48167242D01*
X113041861Y-48050365D01*
X113043976Y-48034311D01*
X113091193Y-47796933D01*
X113095391Y-47781268D01*
X113140790Y-47647527D01*
X113173189Y-47552080D01*
X113179388Y-47537114D01*
X113286441Y-47320033D01*
X113294544Y-47305998D01*
X113429016Y-47104746D01*
X113438873Y-47091900D01*
X113598464Y-46909922D01*
X113609922Y-46898464D01*
X113791900Y-46738873D01*
X113804746Y-46729016D01*
X114005998Y-46594544D01*
X114020033Y-46586441D01*
X114237114Y-46479388D01*
X114252080Y-46473189D01*
X114415302Y-46417783D01*
X114481268Y-46395391D01*
X114496935Y-46391193D01*
X114734311Y-46343976D01*
X114750367Y-46341861D01*
X114975757Y-46327088D01*
X114995958Y-46325765D01*
X115004067Y-46325500D01*
X115008285Y-46325500D01*
X159491715Y-46325500D01*
X159495933Y-46325500D01*
X159504043Y-46325765D01*
G37*
%TD.AperFunction*%
%TA.AperFunction,Conductor*%
G36*
X145646536Y-129522984D02*
G01*
X145655388Y-129522350D01*
X145692261Y-129494748D01*
X145761953Y-129489762D01*
X145823276Y-129523247D01*
X145902235Y-129602206D01*
X146005009Y-129647585D01*
X146030135Y-129650500D01*
X146947389Y-129650499D01*
X147014428Y-129670183D01*
X147035070Y-129686818D01*
X147288737Y-129940485D01*
X147385763Y-129996503D01*
X147493981Y-130025500D01*
X147493982Y-130025500D01*
X147578420Y-130025500D01*
X147645459Y-130045185D01*
X147666200Y-130062957D01*
X147666203Y-130062955D01*
X147666372Y-130063105D01*
X147671233Y-130067270D01*
X147671814Y-130067926D01*
X147671816Y-130067928D01*
X147671817Y-130067929D01*
X147720772Y-130111299D01*
X147799150Y-130180736D01*
X147913409Y-130240704D01*
X147963622Y-130289289D01*
X147979596Y-130357308D01*
X147956261Y-130423165D01*
X147901024Y-130465952D01*
X147855783Y-130474500D01*
X144563242Y-130474500D01*
X144496203Y-130454815D01*
X144450448Y-130402011D01*
X144440504Y-130332853D01*
X144469529Y-130269297D01*
X144528307Y-130231523D01*
X144536884Y-130229334D01*
X144663711Y-130201744D01*
X144921722Y-130105511D01*
X145163386Y-129973552D01*
X145163387Y-129973551D01*
X145292984Y-129876536D01*
X144592972Y-129176524D01*
X144725590Y-129087913D01*
X144857913Y-128955590D01*
X144946525Y-128822972D01*
X145646536Y-129522984D01*
G37*
%TD.AperFunction*%
%TA.AperFunction,Conductor*%
G36*
X161393834Y-117055426D02*
G01*
X161449767Y-117097298D01*
X161474184Y-117162762D01*
X161474500Y-117171608D01*
X161474500Y-128495933D01*
X161474235Y-128504043D01*
X161458139Y-128749620D01*
X161456021Y-128765701D01*
X161408806Y-129003064D01*
X161404608Y-129018731D01*
X161326812Y-129247911D01*
X161320605Y-129262897D01*
X161213561Y-129479960D01*
X161205451Y-129494007D01*
X161070991Y-129695241D01*
X161061117Y-129708109D01*
X160901540Y-129890071D01*
X160890071Y-129901540D01*
X160708109Y-130061117D01*
X160695241Y-130070991D01*
X160494007Y-130205451D01*
X160479960Y-130213561D01*
X160262897Y-130320605D01*
X160247911Y-130326812D01*
X160018731Y-130404608D01*
X160003064Y-130408806D01*
X159765701Y-130456021D01*
X159749620Y-130458139D01*
X159504043Y-130474235D01*
X159495933Y-130474500D01*
X148544217Y-130474500D01*
X148477178Y-130454815D01*
X148431423Y-130402011D01*
X148421479Y-130332853D01*
X148450504Y-130269297D01*
X148486591Y-130240704D01*
X148600849Y-130180736D01*
X148600850Y-130180734D01*
X148600852Y-130180734D01*
X148728183Y-130067929D01*
X148824818Y-129927930D01*
X148885140Y-129768872D01*
X148905645Y-129600000D01*
X148885140Y-129431128D01*
X148824818Y-129272070D01*
X148818486Y-129262897D01*
X148757809Y-129174992D01*
X148728183Y-129132071D01*
X148620665Y-129036819D01*
X148600849Y-129019263D01*
X148450226Y-128940210D01*
X148285056Y-128899500D01*
X148114944Y-128899500D01*
X148114942Y-128899500D01*
X147979173Y-128932963D01*
X147909371Y-128929893D01*
X147852309Y-128889573D01*
X147826104Y-128824804D01*
X147825499Y-128812566D01*
X147825499Y-128541326D01*
X147845184Y-128474287D01*
X147897988Y-128428532D01*
X147967146Y-128418588D01*
X147999579Y-128427889D01*
X148055509Y-128452585D01*
X148080635Y-128455500D01*
X149695364Y-128455499D01*
X149695379Y-128455497D01*
X149695382Y-128455497D01*
X149720487Y-128452586D01*
X149720488Y-128452585D01*
X149720491Y-128452585D01*
X149823265Y-128407206D01*
X149902706Y-128327765D01*
X149948085Y-128224991D01*
X149951000Y-128199865D01*
X149950999Y-127932829D01*
X149970683Y-127865793D01*
X150023487Y-127820038D01*
X150092646Y-127810094D01*
X150156201Y-127839119D01*
X150162680Y-127845151D01*
X150170735Y-127853206D01*
X150273509Y-127898585D01*
X150298635Y-127901500D01*
X150722302Y-127901499D01*
X150789340Y-127921183D01*
X150835095Y-127973987D01*
X150845039Y-128043146D01*
X150838243Y-128069469D01*
X150814861Y-128131122D01*
X150814859Y-128131130D01*
X150794355Y-128300000D01*
X150814859Y-128468869D01*
X150814860Y-128468874D01*
X150875182Y-128627931D01*
X150924067Y-128698752D01*
X150971817Y-128767929D01*
X151077505Y-128861560D01*
X151099150Y-128880736D01*
X151242584Y-128956016D01*
X151249775Y-128959790D01*
X151414944Y-129000500D01*
X151547391Y-129000500D01*
X151614430Y-129020185D01*
X151635072Y-129036819D01*
X152655174Y-130056921D01*
X152655184Y-130056932D01*
X152659514Y-130061262D01*
X152659515Y-130061263D01*
X152738737Y-130140485D01*
X152820611Y-130187755D01*
X152835763Y-130196503D01*
X152943981Y-130225500D01*
X152943982Y-130225500D01*
X152943983Y-130225500D01*
X157856016Y-130225500D01*
X157856018Y-130225500D01*
X157964237Y-130196503D01*
X158061263Y-130140485D01*
X159040484Y-129161263D01*
X159096503Y-129064237D01*
X159125500Y-128956019D01*
X159125500Y-128843982D01*
X159104725Y-128766448D01*
X159100500Y-128734355D01*
X159100500Y-128560847D01*
X159120185Y-128493808D01*
X159166871Y-128451053D01*
X159300852Y-128380734D01*
X159428183Y-128267929D01*
X159524818Y-128127930D01*
X159585140Y-127968872D01*
X159605645Y-127800000D01*
X159585140Y-127631128D01*
X159524818Y-127472070D01*
X159428183Y-127332071D01*
X159300852Y-127219266D01*
X159300849Y-127219263D01*
X159150226Y-127140210D01*
X158985056Y-127099500D01*
X158814944Y-127099500D01*
X158649773Y-127140210D01*
X158499150Y-127219263D01*
X158371816Y-127332072D01*
X158275182Y-127472068D01*
X158214860Y-127631125D01*
X158214859Y-127631130D01*
X158194355Y-127800000D01*
X158214859Y-127968869D01*
X158214860Y-127968874D01*
X158259436Y-128086411D01*
X158275182Y-128127930D01*
X158277549Y-128131360D01*
X158278509Y-128134269D01*
X158278668Y-128134572D01*
X158278617Y-128134598D01*
X158299433Y-128197713D01*
X158299500Y-128201800D01*
X158299500Y-128647390D01*
X158279815Y-128714429D01*
X158263181Y-128735071D01*
X157660071Y-129338181D01*
X157598748Y-129371666D01*
X157572390Y-129374500D01*
X157534794Y-129374500D01*
X157467755Y-129354815D01*
X157422000Y-129302011D01*
X157412056Y-129232853D01*
X157421360Y-129200413D01*
X157425128Y-129191879D01*
X157432585Y-129174991D01*
X157435500Y-129149865D01*
X157435499Y-128010136D01*
X157435497Y-128010117D01*
X157432586Y-127985013D01*
X157432585Y-127985011D01*
X157432585Y-127985009D01*
X157419928Y-127956344D01*
X157410857Y-127887071D01*
X157440679Y-127823886D01*
X157459053Y-127806994D01*
X157492189Y-127782188D01*
X157492190Y-127782187D01*
X157578350Y-127667093D01*
X157578354Y-127667086D01*
X157628596Y-127532379D01*
X157628598Y-127532372D01*
X157634999Y-127472844D01*
X157635000Y-127472827D01*
X157635000Y-127150000D01*
X156274000Y-127150000D01*
X156206961Y-127130315D01*
X156161206Y-127077511D01*
X156150000Y-127026000D01*
X156150000Y-126650000D01*
X156650000Y-126650000D01*
X157635000Y-126650000D01*
X157635000Y-126327172D01*
X157634999Y-126327155D01*
X157628598Y-126267627D01*
X157628596Y-126267620D01*
X157578354Y-126132913D01*
X157575867Y-126129591D01*
X157574415Y-126125701D01*
X157574103Y-126125128D01*
X157574185Y-126125083D01*
X157551447Y-126064127D01*
X157565303Y-126000416D01*
X157565253Y-126000398D01*
X157565384Y-126000046D01*
X157566296Y-125995854D01*
X157566301Y-125995846D01*
X157568350Y-125992092D01*
X157618597Y-125857376D01*
X157618598Y-125857372D01*
X157624999Y-125797844D01*
X157625000Y-125797827D01*
X157625000Y-125500000D01*
X156650000Y-125500000D01*
X156650000Y-126650000D01*
X156150000Y-126650000D01*
X156150000Y-125124000D01*
X156169685Y-125056961D01*
X156222489Y-125011206D01*
X156274000Y-125000000D01*
X157625000Y-125000000D01*
X157625000Y-124702172D01*
X157624999Y-124702155D01*
X157617769Y-124634913D01*
X157619222Y-124634756D01*
X157622502Y-124573554D01*
X157663368Y-124516882D01*
X157709761Y-124494410D01*
X157850225Y-124459790D01*
X157867424Y-124450763D01*
X158000849Y-124380736D01*
X158000850Y-124380734D01*
X158000852Y-124380734D01*
X158128183Y-124267929D01*
X158224818Y-124127930D01*
X158285140Y-123968872D01*
X158305645Y-123800000D01*
X158285140Y-123631128D01*
X158224818Y-123472070D01*
X158223834Y-123470645D01*
X158187062Y-123417372D01*
X158128183Y-123332071D01*
X158000852Y-123219266D01*
X158000850Y-123219265D01*
X158000849Y-123219264D01*
X157942060Y-123188409D01*
X157891848Y-123139825D01*
X157875873Y-123071806D01*
X157899208Y-123005948D01*
X157954444Y-122963161D01*
X157999686Y-122954613D01*
X158089805Y-122954613D01*
X158089805Y-122954612D01*
X158152716Y-122939106D01*
X158222517Y-122942174D01*
X158270073Y-122971821D01*
X158438737Y-123140485D01*
X158508251Y-123180618D01*
X158533931Y-123200324D01*
X158563181Y-123229574D01*
X158596666Y-123290897D01*
X158599500Y-123317255D01*
X158599500Y-125488146D01*
X158579815Y-125555185D01*
X158557727Y-125580961D01*
X158471818Y-125657069D01*
X158375182Y-125797068D01*
X158314860Y-125956125D01*
X158314859Y-125956130D01*
X158294355Y-126125000D01*
X158314859Y-126293869D01*
X158314860Y-126293874D01*
X158375182Y-126452931D01*
X158437475Y-126543177D01*
X158471817Y-126592929D01*
X158577505Y-126686560D01*
X158599150Y-126705736D01*
X158749773Y-126784789D01*
X158749775Y-126784790D01*
X158914944Y-126825500D01*
X159085056Y-126825500D01*
X159250225Y-126784790D01*
X159361387Y-126726447D01*
X159400849Y-126705736D01*
X159400850Y-126705734D01*
X159400852Y-126705734D01*
X159528183Y-126592929D01*
X159624818Y-126452930D01*
X159685140Y-126293872D01*
X159705645Y-126125000D01*
X159685140Y-125956128D01*
X159624818Y-125797070D01*
X159609625Y-125775060D01*
X159558785Y-125701406D01*
X159528183Y-125657071D01*
X159528181Y-125657069D01*
X159442273Y-125580961D01*
X159405146Y-125521772D01*
X159400500Y-125488146D01*
X159400500Y-123047275D01*
X159400499Y-123047271D01*
X159399797Y-123044652D01*
X159389987Y-123008037D01*
X159373207Y-122945412D01*
X159320480Y-122854087D01*
X159100324Y-122633931D01*
X159080617Y-122608249D01*
X159075567Y-122599502D01*
X159040485Y-122538737D01*
X158734364Y-122232616D01*
X158700879Y-122171293D01*
X158698949Y-122159880D01*
X158697124Y-122144850D01*
X158689887Y-122085241D01*
X158689122Y-122083225D01*
X158645650Y-121968597D01*
X158629565Y-121926183D01*
X158628403Y-121924500D01*
X158564811Y-121832372D01*
X158538972Y-121794938D01*
X158517090Y-121728585D01*
X158534555Y-121660933D01*
X158585823Y-121613463D01*
X158641023Y-121600499D01*
X159569856Y-121600499D01*
X159569864Y-121600499D01*
X159569879Y-121600497D01*
X159569882Y-121600497D01*
X159594987Y-121597586D01*
X159594988Y-121597585D01*
X159594991Y-121597585D01*
X159697765Y-121552206D01*
X159777206Y-121472765D01*
X159822585Y-121369991D01*
X159825500Y-121344865D01*
X159825499Y-120255136D01*
X159822600Y-120230136D01*
X159822586Y-120230012D01*
X159822585Y-120230010D01*
X159822585Y-120230009D01*
X159777206Y-120127235D01*
X159697765Y-120047794D01*
X159662156Y-120032071D01*
X159594992Y-120002415D01*
X159569865Y-119999500D01*
X158030143Y-119999500D01*
X158030117Y-119999502D01*
X158005012Y-120002413D01*
X158005008Y-120002415D01*
X157902235Y-120047793D01*
X157822794Y-120127234D01*
X157787933Y-120206187D01*
X157742847Y-120259563D01*
X157676061Y-120280090D01*
X157608779Y-120261251D01*
X157562362Y-120209028D01*
X157550499Y-120156100D01*
X157550499Y-120080143D01*
X157550499Y-120080136D01*
X157550497Y-120080117D01*
X157547586Y-120055012D01*
X157547585Y-120055010D01*
X157547585Y-120055009D01*
X157502206Y-119952235D01*
X157460920Y-119910949D01*
X157427435Y-119849626D01*
X157432419Y-119779934D01*
X157474291Y-119724001D01*
X157505270Y-119707085D01*
X157542088Y-119693353D01*
X157542093Y-119693350D01*
X157657187Y-119607190D01*
X157663460Y-119600918D01*
X157664404Y-119601862D01*
X157712982Y-119565488D01*
X157782673Y-119560494D01*
X157844000Y-119593971D01*
X157902235Y-119652206D01*
X158005009Y-119697585D01*
X158030135Y-119700500D01*
X159569864Y-119700499D01*
X159569879Y-119700497D01*
X159569882Y-119700497D01*
X159604051Y-119696535D01*
X159672911Y-119708365D01*
X159706016Y-119732028D01*
X159744796Y-119770808D01*
X159883225Y-119857789D01*
X160037539Y-119911786D01*
X160037542Y-119911786D01*
X160037544Y-119911787D01*
X160199996Y-119930091D01*
X160200000Y-119930091D01*
X160200004Y-119930091D01*
X160362455Y-119911787D01*
X160362456Y-119911786D01*
X160362461Y-119911786D01*
X160516775Y-119857789D01*
X160655204Y-119770808D01*
X160770808Y-119655204D01*
X160857789Y-119516775D01*
X160911786Y-119362461D01*
X160912359Y-119357379D01*
X160930091Y-119200003D01*
X160930091Y-119199996D01*
X160911787Y-119037544D01*
X160911786Y-119037542D01*
X160911786Y-119037539D01*
X160857789Y-118883225D01*
X160770808Y-118744796D01*
X160655204Y-118629192D01*
X160597783Y-118593112D01*
X160516774Y-118542210D01*
X160382939Y-118495379D01*
X160362461Y-118488214D01*
X160362460Y-118488213D01*
X160362455Y-118488212D01*
X160200004Y-118469909D01*
X160199997Y-118469909D01*
X160187939Y-118471267D01*
X160119118Y-118459209D01*
X160067741Y-118411857D01*
X160050120Y-118344246D01*
X160071850Y-118277841D01*
X160086371Y-118260376D01*
X161262819Y-117083926D01*
X161324142Y-117050442D01*
X161393834Y-117055426D01*
G37*
%TD.AperFunction*%
%TA.AperFunction,Conductor*%
G36*
X143214290Y-125718417D02*
G01*
X143373153Y-125815769D01*
X143373156Y-125815771D01*
X143611644Y-125914555D01*
X143862650Y-125974816D01*
X144120000Y-125995070D01*
X144377349Y-125974816D01*
X144628347Y-125914557D01*
X144720714Y-125876297D01*
X144790184Y-125868828D01*
X144852663Y-125900102D01*
X144869796Y-125922533D01*
X144870921Y-125921757D01*
X144875182Y-125927930D01*
X144971817Y-126067929D01*
X145045169Y-126132913D01*
X145099150Y-126180736D01*
X145249773Y-126259789D01*
X145249775Y-126259790D01*
X145414944Y-126300500D01*
X145585057Y-126300500D01*
X145585057Y-126300499D01*
X145620824Y-126291684D01*
X145690625Y-126294752D01*
X145747688Y-126335071D01*
X145773894Y-126399839D01*
X145774500Y-126412080D01*
X145774500Y-127052981D01*
X145754815Y-127120020D01*
X145702011Y-127165775D01*
X145648037Y-127175513D01*
X144946524Y-127877026D01*
X144857913Y-127744410D01*
X144725590Y-127612087D01*
X144592971Y-127523474D01*
X145292984Y-126823461D01*
X145163394Y-126726452D01*
X145163386Y-126726447D01*
X144921721Y-126594488D01*
X144921722Y-126594488D01*
X144663711Y-126498255D01*
X144394661Y-126439727D01*
X144120001Y-126420083D01*
X144119999Y-126420083D01*
X143845338Y-126439727D01*
X143576288Y-126498255D01*
X143318278Y-126594488D01*
X143208927Y-126654199D01*
X143140654Y-126669051D01*
X143075190Y-126644634D01*
X143033318Y-126588701D01*
X143025500Y-126545367D01*
X143025500Y-125824144D01*
X143045185Y-125757105D01*
X143097989Y-125711350D01*
X143167147Y-125701406D01*
X143214290Y-125718417D01*
G37*
%TD.AperFunction*%
%TA.AperFunction,Conductor*%
G36*
X155542539Y-118170185D02*
G01*
X155588294Y-118222989D01*
X155599500Y-118274500D01*
X155599500Y-118338303D01*
X155579815Y-118405342D01*
X155549814Y-118437567D01*
X155542817Y-118442804D01*
X155542808Y-118442814D01*
X155456649Y-118557906D01*
X155456645Y-118557913D01*
X155406403Y-118692620D01*
X155406401Y-118692627D01*
X155400000Y-118752155D01*
X155400000Y-118800000D01*
X155623667Y-118800000D01*
X155690706Y-118819685D01*
X155711348Y-118836319D01*
X155727235Y-118852206D01*
X155830009Y-118897585D01*
X155855135Y-118900500D01*
X156701001Y-118900499D01*
X156768039Y-118920183D01*
X156813794Y-118972987D01*
X156825000Y-119024499D01*
X156825000Y-119126000D01*
X156805315Y-119193039D01*
X156752511Y-119238794D01*
X156701000Y-119250000D01*
X155400000Y-119250000D01*
X155400000Y-119297844D01*
X155406401Y-119357372D01*
X155406403Y-119357379D01*
X155443808Y-119457667D01*
X155448792Y-119527359D01*
X155415307Y-119588682D01*
X155353984Y-119622166D01*
X155327626Y-119625000D01*
X155100000Y-119625000D01*
X155100000Y-122075000D01*
X155397828Y-122075000D01*
X155397844Y-122074999D01*
X155457372Y-122068598D01*
X155457379Y-122068596D01*
X155592086Y-122018354D01*
X155592093Y-122018350D01*
X155707187Y-121932190D01*
X155707190Y-121932187D01*
X155793350Y-121817093D01*
X155793355Y-121817084D01*
X155800295Y-121798478D01*
X155842165Y-121742544D01*
X155907629Y-121718126D01*
X155975903Y-121732977D01*
X156004158Y-121754129D01*
X156077235Y-121827206D01*
X156180009Y-121872585D01*
X156205135Y-121875500D01*
X157219506Y-121875499D01*
X157286545Y-121895183D01*
X157332300Y-121947987D01*
X157342244Y-122017146D01*
X157335449Y-122043467D01*
X157332121Y-122052242D01*
X157319606Y-122085242D01*
X157319606Y-122085243D01*
X157299102Y-122254113D01*
X157318354Y-122412667D01*
X157306894Y-122481591D01*
X157259990Y-122533377D01*
X157192534Y-122551584D01*
X157180967Y-122550788D01*
X157169865Y-122549500D01*
X155630143Y-122549500D01*
X155630117Y-122549502D01*
X155605012Y-122552413D01*
X155605008Y-122552415D01*
X155502235Y-122597793D01*
X155422794Y-122677234D01*
X155377415Y-122780006D01*
X155377415Y-122780008D01*
X155374500Y-122805131D01*
X155374500Y-123044652D01*
X155354815Y-123111691D01*
X155302011Y-123157446D01*
X155232853Y-123167390D01*
X155207169Y-123160835D01*
X155181879Y-123151403D01*
X155181872Y-123151401D01*
X155122344Y-123145000D01*
X154562000Y-123145000D01*
X154562000Y-124121000D01*
X154542315Y-124188039D01*
X154489511Y-124233794D01*
X154438000Y-124245000D01*
X154186000Y-124245000D01*
X154118961Y-124225315D01*
X154073206Y-124172511D01*
X154062000Y-124121000D01*
X154062000Y-123145000D01*
X153501655Y-123145000D01*
X153442127Y-123151401D01*
X153442120Y-123151403D01*
X153307413Y-123201645D01*
X153307406Y-123201649D01*
X153192312Y-123287809D01*
X153192309Y-123287812D01*
X153106149Y-123402906D01*
X153106145Y-123402913D01*
X153055903Y-123537620D01*
X153055901Y-123537627D01*
X153049500Y-123597155D01*
X153049500Y-123776468D01*
X153029815Y-123843507D01*
X152977011Y-123889262D01*
X152911210Y-123899642D01*
X152901370Y-123898500D01*
X152901365Y-123898500D01*
X150605130Y-123898500D01*
X150538091Y-123878815D01*
X150492336Y-123826011D01*
X150482392Y-123756853D01*
X150500137Y-123708527D01*
X150506782Y-123697952D01*
X150557789Y-123616775D01*
X150611786Y-123462461D01*
X150611787Y-123462455D01*
X150630091Y-123300003D01*
X150630091Y-123299996D01*
X150611787Y-123137544D01*
X150611786Y-123137542D01*
X150611786Y-123137539D01*
X150557789Y-122983225D01*
X150470808Y-122844796D01*
X150355204Y-122729192D01*
X150316590Y-122704929D01*
X150216774Y-122642210D01*
X150082509Y-122595229D01*
X150062461Y-122588214D01*
X150062460Y-122588213D01*
X150062455Y-122588212D01*
X149900004Y-122569909D01*
X149899996Y-122569909D01*
X149737544Y-122588212D01*
X149583225Y-122642210D01*
X149444795Y-122729192D01*
X149329193Y-122844794D01*
X149311781Y-122872505D01*
X149259445Y-122918795D01*
X149190392Y-122929442D01*
X149126544Y-122901066D01*
X149088173Y-122842675D01*
X149086390Y-122836202D01*
X149085141Y-122831138D01*
X149085140Y-122831128D01*
X149024818Y-122672070D01*
X149008061Y-122647794D01*
X148976737Y-122602413D01*
X148928183Y-122532071D01*
X148800852Y-122419266D01*
X148800849Y-122419263D01*
X148650226Y-122340210D01*
X148485056Y-122299500D01*
X148314944Y-122299500D01*
X148149773Y-122340210D01*
X147999150Y-122419263D01*
X147871817Y-122532071D01*
X147828221Y-122595229D01*
X147773937Y-122639218D01*
X147704489Y-122646876D01*
X147676086Y-122638222D01*
X147640223Y-122622387D01*
X147594991Y-122602415D01*
X147569865Y-122599500D01*
X146030143Y-122599500D01*
X146030117Y-122599502D01*
X146005012Y-122602413D01*
X146005008Y-122602415D01*
X145902235Y-122647793D01*
X145822794Y-122727234D01*
X145777415Y-122830006D01*
X145777415Y-122830008D01*
X145774500Y-122855131D01*
X145774500Y-123471463D01*
X145754815Y-123538502D01*
X145702011Y-123584257D01*
X145632853Y-123594201D01*
X145569297Y-123565176D01*
X145544773Y-123536253D01*
X145450890Y-123383052D01*
X145450885Y-123383046D01*
X145446103Y-123377447D01*
X144805231Y-124018319D01*
X144793503Y-123990005D01*
X144710330Y-123865528D01*
X144604472Y-123759670D01*
X144479995Y-123676497D01*
X144451679Y-123664768D01*
X145092551Y-123023895D01*
X145092551Y-123023894D01*
X145086951Y-123019111D01*
X144866846Y-122884230D01*
X144866843Y-122884228D01*
X144628355Y-122785444D01*
X144377349Y-122725183D01*
X144120000Y-122704929D01*
X143862650Y-122725183D01*
X143611644Y-122785444D01*
X143611643Y-122785444D01*
X143373156Y-122884228D01*
X143373153Y-122884230D01*
X143153057Y-123019105D01*
X143153052Y-123019109D01*
X143147447Y-123023894D01*
X143788321Y-123664768D01*
X143760005Y-123676497D01*
X143635528Y-123759670D01*
X143529670Y-123865528D01*
X143446497Y-123990005D01*
X143434768Y-124018321D01*
X142793894Y-123377447D01*
X142789109Y-123383052D01*
X142789105Y-123383057D01*
X142654230Y-123603153D01*
X142654229Y-123603155D01*
X142614964Y-123697952D01*
X142571124Y-123752356D01*
X142504830Y-123774421D01*
X142500403Y-123774500D01*
X134499597Y-123774500D01*
X134432558Y-123754815D01*
X134386803Y-123702011D01*
X134385036Y-123697952D01*
X134345770Y-123603155D01*
X134345769Y-123603153D01*
X134210890Y-123383052D01*
X134210885Y-123383046D01*
X134206103Y-123377447D01*
X133565231Y-124018320D01*
X133553503Y-123990005D01*
X133470330Y-123865528D01*
X133364472Y-123759670D01*
X133239995Y-123676497D01*
X133211679Y-123664768D01*
X133852551Y-123023895D01*
X133851784Y-123004371D01*
X133868820Y-122936610D01*
X133919786Y-122888816D01*
X133975688Y-122875500D01*
X135551679Y-122875500D01*
X135618718Y-122895185D01*
X135639360Y-122911819D01*
X135719505Y-122991964D01*
X135808036Y-123080495D01*
X135916464Y-123143095D01*
X136037399Y-123175500D01*
X136051679Y-123175500D01*
X136118718Y-123195185D01*
X136139360Y-123211819D01*
X136216920Y-123289379D01*
X136290866Y-123332071D01*
X136325348Y-123351979D01*
X136325351Y-123351979D01*
X136325354Y-123351981D01*
X136405971Y-123373583D01*
X136446283Y-123384385D01*
X136446284Y-123384385D01*
X136579081Y-123384385D01*
X136579097Y-123384384D01*
X140333279Y-123384384D01*
X140333281Y-123384384D01*
X140454216Y-123351979D01*
X140562644Y-123289379D01*
X140947633Y-122904388D01*
X141008956Y-122870904D01*
X141035314Y-122868070D01*
X141041588Y-122868070D01*
X141204040Y-122849766D01*
X141204041Y-122849765D01*
X141204046Y-122849765D01*
X141358360Y-122795768D01*
X141496789Y-122708787D01*
X141612393Y-122593183D01*
X141699374Y-122454754D01*
X141753371Y-122300440D01*
X141753477Y-122299500D01*
X141771676Y-122137982D01*
X141771676Y-122137975D01*
X141752592Y-121968597D01*
X141754265Y-121968408D01*
X141757998Y-121907368D01*
X141799289Y-121851005D01*
X141864498Y-121825913D01*
X141874621Y-121825499D01*
X143019856Y-121825499D01*
X143019864Y-121825499D01*
X143019879Y-121825497D01*
X143019882Y-121825497D01*
X143044987Y-121822586D01*
X143044988Y-121822585D01*
X143044991Y-121822585D01*
X143147765Y-121777206D01*
X143227206Y-121697765D01*
X143272585Y-121594991D01*
X143275500Y-121569865D01*
X143275500Y-120949500D01*
X143295185Y-120882461D01*
X143347989Y-120836706D01*
X143399500Y-120825500D01*
X143975501Y-120825500D01*
X144042540Y-120845185D01*
X144088295Y-120897989D01*
X144099501Y-120949500D01*
X144099501Y-121449856D01*
X144099502Y-121449882D01*
X144102413Y-121474987D01*
X144102415Y-121474991D01*
X144147793Y-121577764D01*
X144147794Y-121577765D01*
X144227235Y-121657206D01*
X144330009Y-121702585D01*
X144355135Y-121705500D01*
X150444864Y-121705499D01*
X150444879Y-121705497D01*
X150444882Y-121705497D01*
X150469987Y-121702586D01*
X150469988Y-121702585D01*
X150469991Y-121702585D01*
X150572765Y-121657206D01*
X150597818Y-121632152D01*
X150659137Y-121598669D01*
X150728829Y-121603653D01*
X150784763Y-121645523D01*
X150798931Y-121669749D01*
X150837793Y-121757764D01*
X150837794Y-121757765D01*
X150917235Y-121837206D01*
X151020009Y-121882585D01*
X151045135Y-121885500D01*
X152154864Y-121885499D01*
X152154879Y-121885497D01*
X152154882Y-121885497D01*
X152179985Y-121882586D01*
X152179986Y-121882585D01*
X152179991Y-121882585D01*
X152179994Y-121882583D01*
X152188560Y-121880253D01*
X152258416Y-121881644D01*
X152316430Y-121920582D01*
X152320386Y-121925592D01*
X152332806Y-121942184D01*
X152332814Y-121942191D01*
X152447906Y-122028350D01*
X152447913Y-122028354D01*
X152582620Y-122078596D01*
X152582627Y-122078598D01*
X152642155Y-122084999D01*
X152642172Y-122085000D01*
X152950000Y-122085000D01*
X153450000Y-122085000D01*
X153757828Y-122085000D01*
X153757844Y-122084999D01*
X153817372Y-122078598D01*
X153817376Y-122078597D01*
X153952091Y-122028351D01*
X153962365Y-122020660D01*
X154027828Y-121996240D01*
X154096102Y-122011090D01*
X154104530Y-122016507D01*
X154107906Y-122018350D01*
X154242623Y-122068597D01*
X154242627Y-122068598D01*
X154302155Y-122074999D01*
X154302172Y-122075000D01*
X154600000Y-122075000D01*
X154600000Y-121100000D01*
X153450000Y-121100000D01*
X153450000Y-122085000D01*
X152950000Y-122085000D01*
X152950000Y-120724000D01*
X152969685Y-120656961D01*
X153022489Y-120611206D01*
X153074000Y-120600000D01*
X154600000Y-120600000D01*
X154600000Y-119625000D01*
X154302155Y-119625000D01*
X154242627Y-119631401D01*
X154242620Y-119631403D01*
X154107913Y-119681645D01*
X154100128Y-119685897D01*
X154098993Y-119683819D01*
X154045504Y-119703760D01*
X153977233Y-119688896D01*
X153962371Y-119679343D01*
X153952091Y-119671648D01*
X153952088Y-119671646D01*
X153831166Y-119626545D01*
X153775233Y-119584673D01*
X153750816Y-119519209D01*
X153750500Y-119510363D01*
X153750500Y-119405915D01*
X153770185Y-119338876D01*
X153822989Y-119293121D01*
X153892147Y-119283177D01*
X153904152Y-119285513D01*
X153964944Y-119300497D01*
X153964946Y-119300497D01*
X154135056Y-119300497D01*
X154300225Y-119259787D01*
X154379692Y-119218078D01*
X154450849Y-119180733D01*
X154450850Y-119180731D01*
X154450852Y-119180731D01*
X154578183Y-119067926D01*
X154674818Y-118927927D01*
X154735140Y-118768869D01*
X154755645Y-118599997D01*
X154751672Y-118567282D01*
X154763131Y-118498362D01*
X154787081Y-118464662D01*
X155064927Y-118186816D01*
X155126249Y-118153334D01*
X155152607Y-118150500D01*
X155475500Y-118150500D01*
X155542539Y-118170185D01*
G37*
%TD.AperFunction*%
%TA.AperFunction,Conductor*%
G36*
X138949849Y-119695185D02*
G01*
X138995604Y-119747989D01*
X139005548Y-119817147D01*
X138976523Y-119880703D01*
X138965037Y-119892315D01*
X138947553Y-119907804D01*
X138850917Y-120047803D01*
X138790595Y-120206860D01*
X138790594Y-120206865D01*
X138770090Y-120375735D01*
X138790594Y-120544604D01*
X138790595Y-120544609D01*
X138849503Y-120699936D01*
X138854870Y-120769600D01*
X138821722Y-120831106D01*
X138760584Y-120864927D01*
X138690866Y-120860325D01*
X138675936Y-120853704D01*
X138650225Y-120840209D01*
X138485056Y-120799500D01*
X138314944Y-120799500D01*
X138149773Y-120840210D01*
X137999150Y-120919263D01*
X137871816Y-121032072D01*
X137775182Y-121172068D01*
X137714860Y-121331125D01*
X137714859Y-121331130D01*
X137694355Y-121500000D01*
X137714859Y-121668869D01*
X137714860Y-121668874D01*
X137775182Y-121827931D01*
X137814918Y-121885497D01*
X137871817Y-121967929D01*
X137961228Y-122047140D01*
X137999150Y-122080736D01*
X138149773Y-122159789D01*
X138149775Y-122159790D01*
X138251149Y-122184776D01*
X138268233Y-122188987D01*
X138328613Y-122224143D01*
X138360402Y-122286362D01*
X138353506Y-122355891D01*
X138310115Y-122410654D01*
X138244005Y-122433264D01*
X138238558Y-122433384D01*
X136757205Y-122433384D01*
X136690166Y-122413699D01*
X136669524Y-122397065D01*
X136591965Y-122319506D01*
X136591964Y-122319505D01*
X136483536Y-122256905D01*
X136483537Y-122256905D01*
X136443224Y-122246103D01*
X136362601Y-122224500D01*
X136362599Y-122224500D01*
X136348321Y-122224500D01*
X136281282Y-122204815D01*
X136260640Y-122188181D01*
X136135085Y-122062626D01*
X136101600Y-122001303D01*
X136106584Y-121931611D01*
X136106585Y-121931610D01*
X136143596Y-121832380D01*
X136143598Y-121832372D01*
X136149999Y-121772844D01*
X136150000Y-121772827D01*
X136150000Y-121250000D01*
X135024000Y-121250000D01*
X134956961Y-121230315D01*
X134911206Y-121177511D01*
X134900000Y-121126000D01*
X134900000Y-120874000D01*
X134919685Y-120806961D01*
X134972489Y-120761206D01*
X135024000Y-120750000D01*
X136150000Y-120750000D01*
X136150000Y-120724500D01*
X136169685Y-120657461D01*
X136222489Y-120611706D01*
X136274000Y-120600500D01*
X136285056Y-120600500D01*
X136450225Y-120559790D01*
X136557514Y-120503480D01*
X136600849Y-120480736D01*
X136600850Y-120480734D01*
X136600852Y-120480734D01*
X136728183Y-120367929D01*
X136824818Y-120227930D01*
X136885140Y-120068872D01*
X136905645Y-119900000D01*
X136901672Y-119867286D01*
X136913131Y-119798367D01*
X136937084Y-119764662D01*
X136989931Y-119711817D01*
X137051255Y-119678333D01*
X137077611Y-119675500D01*
X137443982Y-119675500D01*
X138882810Y-119675500D01*
X138949849Y-119695185D01*
G37*
%TD.AperFunction*%
%TA.AperFunction,Conductor*%
G36*
X132899298Y-112671996D02*
G01*
X133014944Y-112700500D01*
X133182745Y-112700500D01*
X133249784Y-112720185D01*
X133270426Y-112736819D01*
X133754087Y-113220480D01*
X133845412Y-113273207D01*
X133947273Y-113300500D01*
X135460194Y-113300500D01*
X135527233Y-113320185D01*
X135562243Y-113354059D01*
X135571817Y-113367929D01*
X135605402Y-113397683D01*
X135642529Y-113456872D01*
X135641761Y-113526737D01*
X135603344Y-113585097D01*
X135539473Y-113613422D01*
X135523175Y-113614498D01*
X132621580Y-113614498D01*
X132554541Y-113594813D01*
X132533799Y-113577040D01*
X132533797Y-113577043D01*
X132533627Y-113576892D01*
X132528767Y-113572728D01*
X132528185Y-113572071D01*
X132527837Y-113571763D01*
X132415840Y-113472542D01*
X132400849Y-113459261D01*
X132250226Y-113380208D01*
X132085056Y-113339498D01*
X131914944Y-113339498D01*
X131749773Y-113380208D01*
X131599150Y-113459261D01*
X131490301Y-113555694D01*
X131472163Y-113571763D01*
X131471816Y-113572070D01*
X131375182Y-113712066D01*
X131314860Y-113871123D01*
X131314859Y-113871128D01*
X131294355Y-114039998D01*
X131314859Y-114208867D01*
X131314860Y-114208872D01*
X131337615Y-114268871D01*
X131375104Y-114367722D01*
X131380471Y-114437384D01*
X131375344Y-114455025D01*
X131346403Y-114532619D01*
X131346401Y-114532627D01*
X131340000Y-114592155D01*
X131340000Y-114900000D01*
X132701000Y-114900000D01*
X132768039Y-114919685D01*
X132813794Y-114972489D01*
X132825000Y-115024000D01*
X132825000Y-115276000D01*
X132805315Y-115343039D01*
X132752511Y-115388794D01*
X132701000Y-115400000D01*
X131340000Y-115400000D01*
X131340000Y-115707844D01*
X131346401Y-115767372D01*
X131346403Y-115767379D01*
X131396645Y-115902086D01*
X131396649Y-115902093D01*
X131482809Y-116017187D01*
X131482812Y-116017190D01*
X131499408Y-116029614D01*
X131541279Y-116085548D01*
X131546263Y-116155239D01*
X131544748Y-116161431D01*
X131542415Y-116170003D01*
X131539500Y-116195131D01*
X131539500Y-117304856D01*
X131539502Y-117304882D01*
X131542413Y-117329987D01*
X131542415Y-117329991D01*
X131587793Y-117432764D01*
X131587794Y-117432765D01*
X131667235Y-117512206D01*
X131770009Y-117557585D01*
X131795135Y-117560500D01*
X132363979Y-117560499D01*
X132431016Y-117580183D01*
X132476771Y-117632987D01*
X132486715Y-117702146D01*
X132457690Y-117765702D01*
X132438290Y-117783764D01*
X132392811Y-117817810D01*
X132392809Y-117817812D01*
X132306649Y-117932906D01*
X132306645Y-117932913D01*
X132256403Y-118067620D01*
X132256401Y-118067627D01*
X132250000Y-118127155D01*
X132250000Y-118650000D01*
X133376000Y-118650000D01*
X133443039Y-118669685D01*
X133488794Y-118722489D01*
X133500000Y-118774000D01*
X133500000Y-119026000D01*
X133480315Y-119093039D01*
X133427511Y-119138794D01*
X133376000Y-119150000D01*
X132243172Y-119150000D01*
X132196888Y-119175272D01*
X132140857Y-119174502D01*
X132069044Y-119156802D01*
X131898932Y-119156802D01*
X131733761Y-119197512D01*
X131583138Y-119276565D01*
X131455804Y-119389374D01*
X131359170Y-119529370D01*
X131359169Y-119529373D01*
X131325001Y-119619470D01*
X131282824Y-119675173D01*
X131217226Y-119699231D01*
X131209059Y-119699500D01*
X128039806Y-119699500D01*
X127972767Y-119679815D01*
X127937756Y-119645940D01*
X127928183Y-119632071D01*
X127800849Y-119519263D01*
X127650226Y-119440210D01*
X127485056Y-119399500D01*
X127314944Y-119399500D01*
X127149773Y-119440210D01*
X126999150Y-119519263D01*
X126871816Y-119632072D01*
X126775182Y-119772068D01*
X126714860Y-119931125D01*
X126714859Y-119931130D01*
X126694355Y-120100000D01*
X126714859Y-120268869D01*
X126714860Y-120268874D01*
X126775182Y-120427931D01*
X126837475Y-120518177D01*
X126871817Y-120567929D01*
X126999148Y-120680734D01*
X127058720Y-120712000D01*
X127108931Y-120760582D01*
X127124906Y-120828601D01*
X127101572Y-120894459D01*
X127088774Y-120909476D01*
X126321296Y-121676955D01*
X126321295Y-121676955D01*
X126321296Y-121676956D01*
X126259514Y-121738737D01*
X126231361Y-121787501D01*
X126180793Y-121835716D01*
X126123974Y-121849500D01*
X125830143Y-121849500D01*
X125830117Y-121849502D01*
X125805012Y-121852413D01*
X125805008Y-121852415D01*
X125702235Y-121897793D01*
X125702234Y-121897794D01*
X125672681Y-121927348D01*
X125611358Y-121960833D01*
X125541666Y-121955849D01*
X125497319Y-121927348D01*
X125467765Y-121897794D01*
X125364992Y-121852415D01*
X125339868Y-121849500D01*
X125339865Y-121849500D01*
X125094500Y-121849500D01*
X125027461Y-121829815D01*
X124981706Y-121777011D01*
X124970500Y-121725500D01*
X124970500Y-118217274D01*
X124970499Y-118217270D01*
X124966006Y-118200500D01*
X124963585Y-118191464D01*
X124943207Y-118115412D01*
X124890480Y-118024087D01*
X124133259Y-117266866D01*
X124099774Y-117205543D01*
X124097844Y-117164241D01*
X124103271Y-117119548D01*
X124130895Y-117055372D01*
X124188830Y-117016317D01*
X124226367Y-117010499D01*
X125584856Y-117010499D01*
X125584864Y-117010499D01*
X125584879Y-117010497D01*
X125584882Y-117010497D01*
X125609983Y-117007586D01*
X125609983Y-117007585D01*
X125609991Y-117007585D01*
X125609997Y-117007581D01*
X125617343Y-117005584D01*
X125687199Y-117006977D01*
X125737581Y-117037552D01*
X125802235Y-117102206D01*
X125905009Y-117147585D01*
X125930135Y-117150500D01*
X126882744Y-117150499D01*
X126949783Y-117170183D01*
X126970425Y-117186818D01*
X127525179Y-117741571D01*
X127525189Y-117741582D01*
X127529519Y-117745912D01*
X127529520Y-117745913D01*
X127604087Y-117820480D01*
X127604089Y-117820481D01*
X127604090Y-117820482D01*
X127688991Y-117869500D01*
X127688992Y-117869500D01*
X127695413Y-117873207D01*
X127797273Y-117900501D01*
X127797275Y-117900501D01*
X127910323Y-117900501D01*
X127910339Y-117900500D01*
X129952725Y-117900500D01*
X129952727Y-117900500D01*
X130054588Y-117873207D01*
X130145913Y-117820480D01*
X130620480Y-117345913D01*
X130628631Y-117331795D01*
X130673207Y-117254587D01*
X130700500Y-117152727D01*
X130700500Y-113391950D01*
X130720185Y-113324911D01*
X130736819Y-113304269D01*
X131329269Y-112711819D01*
X131390592Y-112678334D01*
X131416950Y-112675500D01*
X131584832Y-112675500D01*
X131651871Y-112695185D01*
X131686881Y-112729059D01*
X131696601Y-112743141D01*
X131696602Y-112743142D01*
X131696603Y-112743143D01*
X131759441Y-112798812D01*
X131823936Y-112855950D01*
X131956325Y-112925433D01*
X131974561Y-112935004D01*
X132139730Y-112975714D01*
X132309842Y-112975714D01*
X132475011Y-112935004D01*
X132578413Y-112880734D01*
X132625635Y-112855950D01*
X132625636Y-112855948D01*
X132625638Y-112855948D01*
X132752969Y-112743143D01*
X132767591Y-112721957D01*
X132821869Y-112677969D01*
X132891318Y-112670306D01*
X132899298Y-112671996D01*
G37*
%TD.AperFunction*%
%TA.AperFunction,Conductor*%
G36*
X155889174Y-112667608D02*
G01*
X155927281Y-112703408D01*
X155971817Y-112767929D01*
X156082793Y-112866245D01*
X156119919Y-112925433D01*
X156124565Y-112959059D01*
X156124565Y-113424221D01*
X156124567Y-113424247D01*
X156127478Y-113449352D01*
X156127480Y-113449356D01*
X156172858Y-113552129D01*
X156172859Y-113552130D01*
X156252300Y-113631571D01*
X156355074Y-113676950D01*
X156380200Y-113679865D01*
X157719929Y-113679864D01*
X157719944Y-113679862D01*
X157719947Y-113679862D01*
X157745052Y-113676951D01*
X157745053Y-113676950D01*
X157745056Y-113676950D01*
X157847830Y-113631571D01*
X157875224Y-113604176D01*
X157936544Y-113570692D01*
X158006236Y-113575676D01*
X158062170Y-113617546D01*
X158076338Y-113641771D01*
X158112021Y-113722584D01*
X158122859Y-113747130D01*
X158202300Y-113826571D01*
X158305074Y-113871950D01*
X158330200Y-113874865D01*
X159869929Y-113874864D01*
X159884558Y-113873167D01*
X159902828Y-113871049D01*
X159971689Y-113882879D01*
X160004794Y-113906542D01*
X160638181Y-114539929D01*
X160671666Y-114601252D01*
X160674500Y-114627610D01*
X160674500Y-116417389D01*
X160654815Y-116484428D01*
X160638181Y-116505070D01*
X160047180Y-117096071D01*
X159985857Y-117129556D01*
X159916165Y-117124572D01*
X159860232Y-117082700D01*
X159835815Y-117017236D01*
X159835499Y-117008390D01*
X159835499Y-116695143D01*
X159835499Y-116695136D01*
X159832585Y-116670009D01*
X159832582Y-116670003D01*
X159830252Y-116661437D01*
X159831645Y-116591581D01*
X159870583Y-116533567D01*
X159875593Y-116529612D01*
X159892188Y-116517189D01*
X159892190Y-116517186D01*
X159978352Y-116402088D01*
X159978354Y-116402086D01*
X160028596Y-116267379D01*
X160028598Y-116267372D01*
X160034999Y-116207844D01*
X160035000Y-116207827D01*
X160035000Y-115900000D01*
X158674000Y-115900000D01*
X158606961Y-115880315D01*
X158561206Y-115827511D01*
X158550000Y-115776000D01*
X158550000Y-115400000D01*
X159050000Y-115400000D01*
X160035000Y-115400000D01*
X160035000Y-115092172D01*
X160034999Y-115092155D01*
X160028598Y-115032627D01*
X160028596Y-115032620D01*
X159978354Y-114897913D01*
X159978350Y-114897906D01*
X159892190Y-114782812D01*
X159892187Y-114782809D01*
X159777093Y-114696649D01*
X159777086Y-114696645D01*
X159642379Y-114646403D01*
X159642372Y-114646401D01*
X159582844Y-114640000D01*
X159050000Y-114640000D01*
X159050000Y-115400000D01*
X158550000Y-115400000D01*
X158550000Y-114640000D01*
X158017155Y-114640000D01*
X157957627Y-114646401D01*
X157957620Y-114646403D01*
X157822913Y-114696645D01*
X157822911Y-114696647D01*
X157748810Y-114752119D01*
X157683346Y-114776536D01*
X157615073Y-114761685D01*
X157565667Y-114712279D01*
X157550499Y-114652852D01*
X157550499Y-114480143D01*
X157550499Y-114480136D01*
X157550462Y-114479815D01*
X157547586Y-114455012D01*
X157547585Y-114455010D01*
X157547585Y-114455009D01*
X157502206Y-114352235D01*
X157422765Y-114272794D01*
X157422763Y-114272793D01*
X157319992Y-114227415D01*
X157294865Y-114224500D01*
X156205143Y-114224500D01*
X156205117Y-114224502D01*
X156180012Y-114227413D01*
X156180008Y-114227415D01*
X156077235Y-114272793D01*
X155997794Y-114352234D01*
X155952415Y-114455006D01*
X155952415Y-114455008D01*
X155949500Y-114480131D01*
X155949500Y-115483745D01*
X155929815Y-115550784D01*
X155877011Y-115596539D01*
X155807853Y-115606483D01*
X155744297Y-115577458D01*
X155737819Y-115571426D01*
X155686818Y-115520425D01*
X155653333Y-115459102D01*
X155650499Y-115432744D01*
X155650499Y-114480143D01*
X155650499Y-114480136D01*
X155650462Y-114479815D01*
X155647586Y-114455012D01*
X155647585Y-114455010D01*
X155647585Y-114455009D01*
X155602206Y-114352235D01*
X155522765Y-114272794D01*
X155522763Y-114272793D01*
X155419992Y-114227415D01*
X155394865Y-114224500D01*
X154305143Y-114224500D01*
X154305117Y-114224502D01*
X154280012Y-114227413D01*
X154280008Y-114227415D01*
X154249455Y-114240905D01*
X154180177Y-114249975D01*
X154116993Y-114220151D01*
X154100104Y-114201781D01*
X154067186Y-114157808D01*
X153952093Y-114071649D01*
X153952086Y-114071645D01*
X153817379Y-114021403D01*
X153817372Y-114021401D01*
X153757844Y-114015000D01*
X153450000Y-114015000D01*
X153450000Y-116485000D01*
X153757828Y-116485000D01*
X153757844Y-116484999D01*
X153817372Y-116478598D01*
X153817379Y-116478596D01*
X153952086Y-116428354D01*
X153952093Y-116428350D01*
X154067185Y-116342191D01*
X154100103Y-116298219D01*
X154156037Y-116256348D01*
X154225728Y-116251363D01*
X154249451Y-116259092D01*
X154280009Y-116272585D01*
X154305135Y-116275500D01*
X155257744Y-116275499D01*
X155324783Y-116295183D01*
X155345425Y-116311818D01*
X155607042Y-116573434D01*
X155640527Y-116634757D01*
X155635543Y-116704448D01*
X155632796Y-116711200D01*
X155602415Y-116780006D01*
X155602415Y-116780008D01*
X155600976Y-116792415D01*
X155599500Y-116805135D01*
X155599500Y-117050442D01*
X155599501Y-117175500D01*
X155579817Y-117242539D01*
X155527013Y-117288294D01*
X155475501Y-117299500D01*
X154868979Y-117299500D01*
X154760760Y-117328497D01*
X154760757Y-117328498D01*
X154663737Y-117384513D01*
X154663731Y-117384517D01*
X154185070Y-117863178D01*
X154123747Y-117896663D01*
X154097389Y-117899497D01*
X153964944Y-117899497D01*
X153799773Y-117940207D01*
X153649149Y-118019261D01*
X153649147Y-118019262D01*
X153639781Y-118027560D01*
X153576546Y-118057277D01*
X153507283Y-118048089D01*
X153469879Y-118022420D01*
X153441965Y-117994506D01*
X153441964Y-117994505D01*
X153333536Y-117931905D01*
X153333531Y-117931903D01*
X153292404Y-117920883D01*
X153232744Y-117884518D01*
X153202216Y-117821671D01*
X153200499Y-117801118D01*
X153200499Y-117455136D01*
X153199308Y-117444865D01*
X153196511Y-117420742D01*
X153198280Y-117420536D01*
X153198282Y-117379460D01*
X153196510Y-117379255D01*
X153200378Y-117345913D01*
X153200500Y-117344865D01*
X153200499Y-116805136D01*
X153198686Y-116789500D01*
X153197586Y-116780012D01*
X153197585Y-116780010D01*
X153197585Y-116780009D01*
X153152206Y-116677235D01*
X153072765Y-116597794D01*
X153043269Y-116584770D01*
X153023912Y-116576223D01*
X152970536Y-116531136D01*
X152950010Y-116464349D01*
X152950000Y-116462789D01*
X152950000Y-114015000D01*
X152642155Y-114015000D01*
X152582627Y-114021401D01*
X152582620Y-114021403D01*
X152447913Y-114071645D01*
X152447906Y-114071649D01*
X152332814Y-114157808D01*
X152332807Y-114157814D01*
X152320385Y-114174409D01*
X152264451Y-114216280D01*
X152194759Y-114221263D01*
X152188566Y-114219748D01*
X152179991Y-114217415D01*
X152154865Y-114214500D01*
X151045143Y-114214500D01*
X151045117Y-114214502D01*
X151020012Y-114217413D01*
X151020008Y-114217415D01*
X150917235Y-114262793D01*
X150904604Y-114275424D01*
X150843280Y-114308908D01*
X150773589Y-114303922D01*
X150717656Y-114262049D01*
X150693829Y-114202688D01*
X150693719Y-114201781D01*
X150685140Y-114131128D01*
X150624818Y-113972070D01*
X150624817Y-113972068D01*
X150624816Y-113972066D01*
X150588835Y-113919940D01*
X150566951Y-113853585D01*
X150584416Y-113785934D01*
X150635683Y-113738463D01*
X150690884Y-113725499D01*
X150794856Y-113725499D01*
X150794864Y-113725499D01*
X150794879Y-113725497D01*
X150794882Y-113725497D01*
X150819987Y-113722586D01*
X150819988Y-113722585D01*
X150819991Y-113722585D01*
X150922765Y-113677206D01*
X151002206Y-113597765D01*
X151047585Y-113494991D01*
X151050500Y-113469865D01*
X151050500Y-113274500D01*
X151070185Y-113207461D01*
X151122989Y-113161706D01*
X151174500Y-113150500D01*
X154462029Y-113150500D01*
X154462031Y-113150500D01*
X154582966Y-113118095D01*
X154691394Y-113055495D01*
X154985705Y-112761182D01*
X155047028Y-112727698D01*
X155073386Y-112724864D01*
X155619921Y-112724864D01*
X155619929Y-112724864D01*
X155619944Y-112724862D01*
X155619947Y-112724862D01*
X155645052Y-112721951D01*
X155645053Y-112721950D01*
X155645056Y-112721950D01*
X155747830Y-112676571D01*
X155747835Y-112676565D01*
X155755154Y-112671553D01*
X155821585Y-112649905D01*
X155889174Y-112667608D01*
G37*
%TD.AperFunction*%
%TA.AperFunction,Conductor*%
G36*
X142116435Y-110101936D02*
G01*
X142157380Y-110158552D01*
X142164500Y-110199966D01*
X142164500Y-111259856D01*
X142164502Y-111259882D01*
X142167413Y-111284987D01*
X142167415Y-111284991D01*
X142212793Y-111387764D01*
X142212794Y-111387765D01*
X142292235Y-111467206D01*
X142395009Y-111512585D01*
X142420135Y-111515500D01*
X143209026Y-111515499D01*
X143276065Y-111535183D01*
X143321820Y-111587987D01*
X143324968Y-111595527D01*
X143353997Y-111672070D01*
X143372770Y-111721571D01*
X143375183Y-111727932D01*
X143412068Y-111781368D01*
X143471817Y-111867929D01*
X143552600Y-111939496D01*
X143599150Y-111980736D01*
X143729487Y-112049142D01*
X143749775Y-112059790D01*
X143914944Y-112100500D01*
X144085056Y-112100500D01*
X144250225Y-112059790D01*
X144400852Y-111980734D01*
X144453196Y-111934360D01*
X144516427Y-111904640D01*
X144585691Y-111913823D01*
X144623103Y-111939496D01*
X144913181Y-112229574D01*
X144946666Y-112290897D01*
X144949500Y-112317255D01*
X144949500Y-113469856D01*
X144949502Y-113469882D01*
X144952413Y-113494987D01*
X144952415Y-113494991D01*
X144997793Y-113597764D01*
X145085360Y-113685331D01*
X145083119Y-113687571D01*
X145115571Y-113727327D01*
X145123477Y-113796748D01*
X145092596Y-113859423D01*
X145032733Y-113895453D01*
X145001311Y-113899500D01*
X143917255Y-113899500D01*
X143850216Y-113879815D01*
X143829574Y-113863181D01*
X143645915Y-113679522D01*
X143645913Y-113679520D01*
X143593917Y-113649500D01*
X143554589Y-113626793D01*
X143503657Y-113613146D01*
X143452727Y-113599500D01*
X143452726Y-113599500D01*
X142339395Y-113599500D01*
X142272356Y-113579815D01*
X142226601Y-113527011D01*
X142216657Y-113457853D01*
X142223453Y-113431529D01*
X142226215Y-113424247D01*
X142285140Y-113268872D01*
X142305645Y-113100000D01*
X142285140Y-112931128D01*
X142224818Y-112772070D01*
X142197208Y-112732071D01*
X142155744Y-112672000D01*
X142128183Y-112632071D01*
X142010756Y-112528040D01*
X142000849Y-112519263D01*
X141850226Y-112440210D01*
X141685056Y-112399500D01*
X141514944Y-112399500D01*
X141349773Y-112440210D01*
X141199150Y-112519263D01*
X141071816Y-112632072D01*
X140975182Y-112772068D01*
X140914860Y-112931125D01*
X140914859Y-112931130D01*
X140894355Y-113100000D01*
X140914859Y-113268869D01*
X140914860Y-113268874D01*
X140975182Y-113427931D01*
X140975183Y-113427933D01*
X141024149Y-113498870D01*
X141041451Y-113523937D01*
X141041533Y-113524055D01*
X141063417Y-113590410D01*
X141045952Y-113658061D01*
X141027166Y-113682177D01*
X140955256Y-113754087D01*
X140079522Y-114629820D01*
X140079520Y-114629823D01*
X140026794Y-114721146D01*
X140006602Y-114796500D01*
X140006602Y-114796503D01*
X139999500Y-114823009D01*
X139999500Y-114823012D01*
X139999500Y-115040760D01*
X139979815Y-115107799D01*
X139927011Y-115153554D01*
X139857853Y-115163498D01*
X139800053Y-115137102D01*
X139799288Y-115138125D01*
X139794585Y-115134604D01*
X139794297Y-115134473D01*
X139793835Y-115134043D01*
X139677093Y-115046649D01*
X139677086Y-115046645D01*
X139542379Y-114996403D01*
X139542372Y-114996401D01*
X139482844Y-114990000D01*
X138950000Y-114990000D01*
X138950000Y-116126000D01*
X138930315Y-116193039D01*
X138877511Y-116238794D01*
X138826000Y-116250000D01*
X137476333Y-116250000D01*
X137409294Y-116230315D01*
X137388652Y-116213681D01*
X137322765Y-116147794D01*
X137269651Y-116124342D01*
X137216275Y-116079256D01*
X137196642Y-116025854D01*
X137185140Y-115931128D01*
X137183786Y-115925634D01*
X137186855Y-115855832D01*
X137227175Y-115798770D01*
X137254089Y-115782528D01*
X137322765Y-115752206D01*
X137322770Y-115752200D01*
X137323536Y-115751677D01*
X137325160Y-115751147D01*
X137333277Y-115747564D01*
X137333639Y-115748384D01*
X137389967Y-115730030D01*
X137457557Y-115747734D01*
X137460455Y-115750000D01*
X138450000Y-115750000D01*
X138450000Y-114990000D01*
X137917155Y-114990000D01*
X137857627Y-114996401D01*
X137857620Y-114996403D01*
X137722913Y-115046645D01*
X137722911Y-115046647D01*
X137648810Y-115102119D01*
X137583346Y-115126536D01*
X137515073Y-115111685D01*
X137465667Y-115062279D01*
X137450499Y-115002853D01*
X137450499Y-114455136D01*
X137449325Y-114445009D01*
X137446511Y-114420742D01*
X137448563Y-114420503D01*
X137449709Y-114362861D01*
X137452014Y-114356216D01*
X137485140Y-114268872D01*
X137505645Y-114100000D01*
X137485140Y-113931128D01*
X137484766Y-113930143D01*
X137455732Y-113853585D01*
X137424818Y-113772070D01*
X137408433Y-113748333D01*
X137382008Y-113710050D01*
X137328183Y-113632071D01*
X137220558Y-113536724D01*
X137200849Y-113519263D01*
X137050226Y-113440210D01*
X136885056Y-113399500D01*
X136839395Y-113399500D01*
X136772356Y-113379815D01*
X136726601Y-113327011D01*
X136716657Y-113257853D01*
X136723453Y-113231529D01*
X136727644Y-113220479D01*
X136785140Y-113068872D01*
X136805645Y-112900000D01*
X136785140Y-112731128D01*
X136782764Y-112724864D01*
X136764450Y-112676572D01*
X136724818Y-112572070D01*
X136724816Y-112572068D01*
X136724816Y-112572066D01*
X136724815Y-112572065D01*
X136689181Y-112520441D01*
X136667297Y-112454087D01*
X136684762Y-112386435D01*
X136689181Y-112379559D01*
X136724815Y-112327934D01*
X136724816Y-112327933D01*
X136724816Y-112327932D01*
X136724818Y-112327930D01*
X136785140Y-112168872D01*
X136805645Y-112000000D01*
X136785140Y-111831128D01*
X136784824Y-111830296D01*
X136740831Y-111714293D01*
X136724818Y-111672070D01*
X136721958Y-111667927D01*
X136666779Y-111587987D01*
X136628183Y-111532071D01*
X136500852Y-111419266D01*
X136500849Y-111419263D01*
X136350226Y-111340210D01*
X136185056Y-111299500D01*
X136017255Y-111299500D01*
X135950216Y-111279815D01*
X135929574Y-111263181D01*
X135878572Y-111212179D01*
X135845087Y-111150856D01*
X135850071Y-111081164D01*
X135891943Y-111025231D01*
X135957407Y-111000814D01*
X135966253Y-111000498D01*
X140552727Y-111000498D01*
X140552729Y-111000498D01*
X140654590Y-110973205D01*
X140745915Y-110920478D01*
X141429573Y-110236818D01*
X141490896Y-110203334D01*
X141517254Y-110200500D01*
X141685056Y-110200500D01*
X141850225Y-110159790D01*
X141944636Y-110110239D01*
X141982874Y-110090170D01*
X142051382Y-110076444D01*
X142116435Y-110101936D01*
G37*
%TD.AperFunction*%
%TD*%
M02*
