M48
; DRILL file {KiCad 8.0.5} date 2024-09-22T15:27:01+0200
; FORMAT={-:-/ absolute / inch / decimal}
; #@! TF.CreationDate,2024-09-22T15:27:01+02:00
; #@! TF.GenerationSoftware,Kicad,Pcbnew,8.0.5
; #@! TF.FileFunction,Plated,1,4,PTH
FMAT,2
INCH
; #@! TA.AperFunction,Plated,PTH,ViaDrill
T1C0.0157
; #@! TA.AperFunction,Plated,PTH,ComponentDrill
T2C0.0315
; #@! TA.AperFunction,Plated,PTH,ComponentDrill
T3C0.0413
; #@! TA.AperFunction,Plated,PTH,ComponentDrill
T4C0.0420
; #@! TA.AperFunction,Plated,PTH,ComponentDrill
T5C0.0598
; #@! TA.AperFunction,Plated,PTH,ComponentDrill
T6C0.0748
%
G90
G05
T1
X4.5669Y-4.4567
X4.5866Y-4.4961
X4.6693Y-4.7244
X4.6929Y-4.3465
X4.752Y-4.2756
X4.7559Y-4.4094
X4.7913Y-2.6378
X4.7992Y-4.563
X4.8189Y-2.811
X4.8228Y-4.6339
X4.8268Y-2.2756
X4.8307Y-2.9724
X4.8307Y-4.8189
X4.8346Y-3.6378
X4.8425Y-2.1732
X4.8504Y-3.4016
X4.8583Y-4.3159
X4.8583Y-4.6102
X4.8622Y-3.7047
X4.8937Y-3.1614
X4.8937Y-4.4606
X4.9134Y-3.9724
X4.9134Y-4.0472
X4.937Y-3.8307
X4.9388Y-4.4616
X4.9494Y-4.3589
X4.9764Y-4.1693
X5.0157Y-4.7283
X5.0197Y-2.6457
X5.0197Y-3.374
X5.0236Y-4.8858
X5.0669Y-4.5394
X5.0669Y-4.7795
X5.0994Y-3.935
X5.1038Y-4.7631
X5.1427Y-3.9252
X5.1457Y-4.1299
X5.1614Y-4.622
X5.1654Y-4.0472
X5.1693Y-4.378
X5.1732Y-4.1969
X5.1772Y-4.4488
X5.1811Y-4.0906
X5.1962Y-4.7188
X5.1969Y-4.4898
X5.1969Y-4.8189
X5.2057Y-4.4203
X5.2087Y-4.752
X5.2244Y-4.1811
X5.2283Y-4.2402
X5.2402Y-4.4094
X5.2598Y-3.9488
X5.2953Y-4.0827
X5.3266Y-4.2352
X5.3268Y-4.5669
X5.3583Y-4.4094
X5.3583Y-4.4449
X5.3583Y-4.6654
X5.3622Y-4.7205
X5.374Y-3.9528
X5.374Y-4.5709
X5.3858Y-4.4921
X5.3966Y-4.6526
X5.4291Y-4.7244
X5.4409Y-4.252
X5.4449Y-2.7598
X5.4488Y-4.1339
X5.4488Y-4.7835
X5.4497Y-4.3307
X5.4843Y-4.3228
X5.4843Y-4.5852
X5.4912Y-4.7392
X5.4921Y-3.3819
X5.4935Y-4.8084
X5.5079Y-4.6329
X5.5079Y-4.6732
X5.5157Y-4.1378
X5.5207Y-4.3307
X5.5354Y-4.4615
X5.5433Y-3.9921
X5.5528Y-4.8086
X5.564Y-4.0236
X5.5748Y-4.311
X5.5748Y-4.4528
X5.5906Y-3.9567
X5.5945Y-4.6417
X5.6142Y-4.252
X5.6181Y-4.1535
X5.6417Y-4.2047
X5.6604Y-4.5748
X5.6693Y-4.3858
X5.7283Y-4.9449
X5.7323Y-4.0
X5.7559Y-4.252
X5.7598Y-3.9478
X5.7638Y-4.6341
X5.7644Y-4.4882
X5.7756Y-4.3976
X5.7983Y-4.503
X5.8071Y-2.6457
X5.8228Y-4.6654
X5.8346Y-5.1024
X5.841Y-4.5035
X5.8425Y-4.0866
X5.8425Y-4.8425
X5.8701Y-3.8661
X5.8734Y-4.3458
X5.8858Y-2.0787
X5.8981Y-4.3139
X5.9016Y-4.8543
X5.9055Y-4.5
X5.9449Y-4.248
X5.9646Y-2.7402
X5.9646Y-5.0512
X5.9921Y-3.5512
X5.9921Y-4.4055
X5.9961Y-4.1535
X6.0039Y-2.6339
X6.0083Y-4.4938
X6.0197Y-5.0591
X6.0377Y-4.9181
X6.0394Y-4.2165
X6.065Y-4.6693
X6.0669Y-4.8228
X6.1142Y-4.3425
X6.126Y-4.0591
X6.1457Y-4.7441
X6.1614Y-4.4213
X6.1811Y-3.1732
X6.1811Y-4.0945
X6.2047Y-4.874
X6.2087Y-4.0669
X6.2205Y-4.2244
X6.2207Y-4.8132
X6.2559Y-5.0315
X6.2598Y-4.2323
X6.2598Y-4.9656
X6.3036Y-4.5864
X6.3071Y-4.6929
X6.3228Y-4.9843
T2
X4.5984Y-4.1693
X4.8533Y-5.0413
X4.8976Y-4.1693
X4.9518Y-5.0413
X5.0502Y-5.0413
T3
X6.2283Y-3.876
X6.2283Y-3.9744
T4
X6.1059Y-4.1293
X6.1059Y-4.2093
X6.3059Y-4.1693
T5
X5.2315Y-4.8957
X5.674Y-4.8957
T6
X5.2315Y-5.0531
X5.674Y-5.0531
M30
